  0
SECTION
  2
HEADER
  9
$ACADVER
  1
AC1009
  9
$DWGCODEPAGE
  3
ansi_1252
  9
$INSBASE
 10
0.0
 20
0.0
 30
0.0
  9
$EXTMIN
 10
-82.92833266817274
 20
-118.3359353804262
 30
-0.000000000000079
  9
$EXTMAX
 10
337.0716521028405
 20
178.6640592998592
 30
8.000000000000107
  9
$LIMMIN
 10
0.0
 20
0.0
  9
$LIMMAX
 10
12.0
 20
9.0
  9
$ORTHOMODE
 70
     1
  9
$REGENMODE
 70
     1
  9
$FILLMODE
 70
     1
  9
$QTEXTMODE
 70
     0
  9
$MIRRTEXT
 70
     1
  9
$DRAGMODE
 70
     2
  9
$LTSCALE
 40
1.0
  9
$OSMODE
 70
   511
  9
$ATTMODE
 70
     1
  9
$TEXTSIZE
 40
2.5
  9
$TRACEWID
 40
0.05
  9
$TEXTSTYLE
  7
STANDARD
  9
$CLAYER
  8
COTAS
  9
$CELTYPE
  6
BYLAYER
  9
$CECOLOR
 62
   256
  9
$DIMSCALE
 40
10.0
  9
$DIMASZ
 40
0.18
  9
$DIMEXO
 40
0.625
  9
$DIMDLI
 40
0.38
  9
$DIMRND
 40
0.0
  9
$DIMDLE
 40
0.38
  9
$DIMEXE
 40
0.18
  9
$DIMTP
 40
0.0
  9
$DIMTM
 40
0.0
  9
$DIMTXT
 40
0.18
  9
$DIMCEN
 40
0.09
  9
$DIMTSZ
 40
0.0
  9
$DIMTOL
 70
     0
  9
$DIMLIM
 70
     0
  9
$DIMTIH
 70
     1
  9
$DIMTOH
 70
     1
  9
$DIMSE1
 70
     0
  9
$DIMSE2
 70
     0
  9
$DIMTAD
 70
     0
  9
$DIMZIN
 70
     0
  9
$DIMBLK
  1

  9
$DIMASO
 70
     1
  9
$DIMSHO
 70
     1
  9
$DIMPOST
  1

  9
$DIMAPOST
  1

  9
$DIMALT
 70
     0
  9
$DIMALTD
 70
     2
  9
$DIMALTF
 40
25.4
  9
$DIMLFAC
 40
1.0
  9
$DIMTOFL
 70
     0
  9
$DIMTVP
 40
0.0
  9
$DIMTIX
 70
     0
  9
$DIMSOXD
 70
     0
  9
$DIMSAH
 70
     0
  9
$DIMBLK1
  1

  9
$DIMBLK2
  1

  9
$DIMSTYLE
  2
ISO-25
  9
$DIMCLRD
 70
     0
  9
$DIMCLRE
 70
     0
  9
$DIMCLRT
 70
     0
  9
$DIMTFAC
 40
1.0
  9
$DIMGAP
 40
0.09
  9
$LUNITS
 70
     2
  9
$LUPREC
 70
     4
  9
$SKETCHINC
 40
0.1
  9
$FILLETRAD
 40
0.5
  9
$AUNITS
 70
     0
  9
$AUPREC
 70
     0
  9
$MENU
  1

  9
$ELEVATION
 40
0.0
  9
$PELEVATION
 40
0.0
  9
$THICKNESS
 40
0.0
  9
$LIMCHECK
 70
     0
  9
$CHAMFERA
 40
0.5
  9
$CHAMFERB
 40
0.5
  9
$SKPOLY
 70
     0
  9
$TDCREATE
 40
2447892.875
  9
$TDUPDATE
 40
2457149.948866944
  9
$TDINDWG
 40
0.0558177431
  9
$TDUSRTIMER
 40
2457150.057549965
  9
$USRTIMER
 70
     0
  9
$ANGBASE
 50
0.0
  9
$ANGDIR
 70
     0
  9
$PDMODE
 70
     0
  9
$PDSIZE
 40
0.0
  9
$PLINEWID
 40
0.0
  9
$COORDS
 70
     1
  9
$SPLFRAME
 70
     0
  9
$SPLINETYPE
 70
     6
  9
$SPLINESEGS
 70
     8
  9
$ATTDIA
 70
     0
  9
$ATTREQ
 70
     1
  9
$HANDLING
 70
     1
  9
$HANDSEED
  5
1C8B
  9
$SURFTAB1
 70
     6
  9
$SURFTAB2
 70
     6
  9
$SURFTYPE
 70
     6
  9
$SURFU
 70
     6
  9
$SURFV
 70
     6
  9
$UCSNAME
  2

  9
$UCSORG
 10
0.0
 20
0.0
 30
0.0
  9
$UCSXDIR
 10
1.0
 20
0.0
 30
0.0
  9
$UCSYDIR
 10
0.0
 20
1.0
 30
0.0
  9
$PUCSNAME
  2

  9
$PUCSORG
 10
0.0
 20
0.0
 30
0.0
  9
$PUCSXDIR
 10
1.0
 20
0.0
 30
0.0
  9
$PUCSYDIR
 10
0.0
 20
1.0
 30
0.0
  9
$USERI1
 70
     0
  9
$USERI2
 70
     0
  9
$USERI3
 70
     0
  9
$USERI4
 70
     0
  9
$USERI5
 70
     0
  9
$USERR1
 40
0.0
  9
$USERR2
 40
0.0
  9
$USERR3
 40
0.0
  9
$USERR4
 40
0.0
  9
$USERR5
 40
0.0
  9
$WORLDVIEW
 70
     1
  9
$SHADEDGE
 70
     3
  9
$SHADEDIF
 70
    70
  9
$TILEMODE
 70
     1
  9
$MAXACTVP
 70
    64
  9
$PLIMCHECK
 70
     0
  9
$PEXTMIN
 10
0.0
 20
0.0
 30
0.0
  9
$PEXTMAX
 10
0.0
 20
0.0
 30
0.0
  9
$PLIMMIN
 10
0.0
 20
0.0
  9
$PLIMMAX
 10
0.0
 20
0.0
  9
$UNITMODE
 70
     0
  9
$VISRETAIN
 70
     1
  9
$PLINEGEN
 70
     0
  9
$PSLTSCALE
 70
     1
  0
ENDSEC
  0
SECTION
  2
TABLES
  0
TABLE
  2
VPORT
 70
     1
  0
VPORT
  2
*ACTIVE
 70
     0
 10
0.0
 20
0.0
 11
1.0
 21
1.0
 12
-82.73522504829123
 22
-118.2442327180179
 13
0.0
 23
0.0
 14
0.5
 24
0.5
 15
0.0
 25
0.0
 16
0.0
 26
0.0
 36
1.0
 17
209.8068847656251
 27
148.4082946777344
 37
0.0
 40
302.9399945738911
 41
2.152066115702479
 42
50.0
 43
0.0
 44
0.0
 50
0.0
 51
0.0
 71
    16
 72
     0
 73
     0
 74
     1
 75
     0
 76
     0
 77
     0
 78
     0
  0
ENDTAB
  0
TABLE
  2
LTYPE
 70
     6
  0
LTYPE
  2
CONTINUOUS
 70
     0
  3
Solid line
 72
    65
 73
     0
 40
0.0
  0
LTYPE
  2
AVEVASOLID
 70
     0
  3
Aveva linetype
 72
    65
 73
     1
 40
2.25
 49
2.25
  0
LTYPE
  2
AVEVASOLIDXWIDE
 70
     0
  3
Aveva linetype
 72
    65
 73
     1
 40
2.25
 49
2.25
  0
LTYPE
  2
AVEVASHORTDASHED
 70
     0
  3
Aveva linetype
 72
    65
 73
     2
 40
2.0
 49
1.5
 49
-0.5
  0
ENDTAB
  0
TABLE
  2
LAYER
 70
    14
  0
LAYER
  2
0
 70
     0
 62
     7
  6
CONTINUOUS
  0
LAYER
  2
-11
 70
     0
 62
     7
  6
CONTINUOUS
  0
LAYER
  2
-300
 70
     0
 62
     7
  6
CONTINUOUS
  0
LAYER
  2
VIEWPORTS
 70
     0
 62
    -7
  6
CONTINUOUS
  0
LAYER
  2
COTAS
 70
     0
 62
     4
  6
CONTINUOUS
  0
LAYER
  2
DEFPOINTS
 70
     0
 62
     7
  6
CONTINUOUS
  0
ENDTAB
  0
TABLE
  2
STYLE
 70
     3
  0
STYLE
  2
STANDARD
 70
     0
 40
0.0
 41
1.0
 50
0.0
 71
     0
 42
2.5
  3
txt
  4

  0
ENDTAB
  0
TABLE
  2
VIEW
 70
     0
  0
ENDTAB
  0
TABLE
  2
UCS
 70
     0
  0
ENDTAB
  0
TABLE
  2
APPID
 70
     2
  0
APPID
  2
ACAD
 70
     0
  0
APPID
  2
ACAECLAYERSTANDARD
 70
     0
  0
ENDTAB
  0
TABLE
  2
DIMSTYLE
 70
     2
  0
DIMSTYLE
  2
ISO-25
 70
     0
  3

  4

  5

  6

  7

 40
1.0
 41
2.5
 42
0.625
 43
0.3799999952316284
 44
0.1800000071525574
 45
0.0
 46
0.3799999952316284
 47
0.0
 48
0.0
140
2.5
141
0.0900000035762787
142
0.0
143
25.39999961853027
144
1.0
145
0.0
146
1.0
147
0.0900000035762787
 71
     0
 72
     0
 73
     1
 74
     1
 75
     0
 76
     0
 77
     1
 78
     0
170
     0
171
     3
172
     0
173
     0
174
     0
175
     0
176
     0
177
     0
178
     0
  0
DIMSTYLE
  2
STANDARD
 70
     0
  3

  4

  5

  6

  7

 40
1.0
 41
0.18
 42
0.0625
 43
0.38
 44
0.18
 45
0.0
 46
0.0
 47
0.0
 48
0.0
140
0.18
141
0.09
142
0.0
143
25.4
144
1.0
145
0.0
146
1.0
147
0.09
 71
     0
 72
     0
 73
     1
 74
     1
 75
     0
 76
     0
 77
     0
 78
     0
170
     0
171
     2
172
     0
173
     0
174
     0
175
     0
176
     0
177
     0
178
     0
  0
ENDTAB
  0
ENDSEC
  0
SECTION
  2
BLOCKS
  0
BLOCK
  8
0
  2
$MODEL_SPACE
 70
     0
 10
0.0
 20
0.0
 30
0.0
  3
$MODEL_SPACE
  1

  0
ENDBLK
  5
7
  8
0
  0
BLOCK
 67
     1
  8
0
  2
$PAPER_SPACE
 70
     0
 10
0.0
 20
0.0
 30
0.0
  3
$PAPER_SPACE
  1

  0
ENDBLK
  5
A
 67
     1
  8
0
  0
BLOCK
  8
0
  2
*D0
 70
     1
 10
0.0
 20
0.0
 30
0.0
  3
*D0
  1

  0
LINE
  5
1B20
  8
COTAS
 62
     0
 10
0.0
 20
87.2500000000001
 30
0.0
 11
0.0
 21
93.30315177013247
 31
0.0
  0
LINE
  5
1B21
  8
COTAS
 62
     0
 10
60.0
 20
87.2500000000001
 30
0.0
 11
60.0
 21
93.30315177013247
 31
0.0
  0
LINE
  5
1B22
  8
COTAS
 62
     0
 10
1.8
 20
91.50315177013248
 30
0.0
 11
24.45000000000001
 21
91.50315177013248
 31
0.0
  0
LINE
  5
1B23
  8
COTAS
 62
     0
 10
58.2
 20
91.50315177013248
 30
0.0
 11
35.55
 21
91.50315177013248
 31
0.0
  0
SOLID
  5
1B24
  8
COTAS
 62
     0
 10
1.8
 20
91.80315177013247
 30
0.0
 11
1.8
 21
91.20315177013248
 31
0.0
 12
0.0
 22
91.50315177013248
 32
0.0
 13
0.0
 23
91.50315177013248
 33
0.0
  0
SOLID
  5
1B25
  8
COTAS
 62
     0
 10
58.2
 20
91.20315177013248
 30
0.0
 11
58.2
 21
91.80315177013247
 31
0.0
 12
60.0
 22
91.50315177013248
 32
0.0
 13
60.0
 23
91.50315177013248
 33
0.0
  0
TEXT
  5
1B26
  8
COTAS
  6
CONTINUOUS
 62
     0
 10
25.35
 20
90.60315177013248
 30
0.0
 40
1.8
  1
60.0000
  0
POINT
  5
1B27
  8
DEFPOINTS
 62
     0
 10
0.0
 20
81.0000000000001
 30
0.0
  0
POINT
  5
1B28
  8
DEFPOINTS
 62
     0
 10
60.0
 20
81.0000000000001
 30
0.0
  0
POINT
  5
1B29
  8
DEFPOINTS
 62
     0
 10
60.0
 20
91.50315177013248
 30
0.0
  0
ENDBLK
  5
1B1F
  8
0
  0
BLOCK
  8
0
  2
*D1
 70
     1
 10
0.0
 20
0.0
 30
0.0
  3
*D1
  1

  0
LINE
  5
1C11
  8
COTAS
 62
     0
 10
0.1499999999998627
 20
75.49756692621517
 30
0.0
 11
-11.97247571532723
 21
75.49756692621517
 31
0.0
  0
LINE
  5
1C12
  8
COTAS
 62
     0
 10
0.1499999999998627
 20
28.39756692621522
 30
0.0
 11
-11.97247571532724
 21
28.39756692621522
 31
0.0
  0
LINE
  5
1C13
  8
COTAS
 62
     0
 10
-10.17247571532724
 20
73.69756692621517
 30
0.0
 11
-10.17247571532724
 21
53.74756692621519
 31
0.0
  0
LINE
  5
1C14
  8
COTAS
 62
     0
 10
-10.17247571532724
 20
30.19756692621522
 30
0.0
 11
-10.17247571532724
 21
50.1475669262152
 31
0.0
  0
SOLID
  5
1C15
  8
COTAS
 62
     0
 10
-9.872475715327235
 20
73.69756692621517
 30
0.0
 11
-10.47247571532724
 21
73.69756692621517
 31
0.0
 12
-10.17247571532724
 22
75.49756692621517
 32
0.0
 13
-10.17247571532724
 23
75.49756692621517
 33
0.0
  0
SOLID
  5
1C16
  8
COTAS
 62
     0
 10
-10.47247571532724
 20
30.19756692621522
 30
0.0
 11
-9.872475715327239
 21
30.19756692621522
 31
0.0
 12
-10.17247571532724
 22
28.39756692621522
 32
0.0
 13
-10.17247571532724
 23
28.39756692621522
 33
0.0
  0
TEXT
  5
1C17
  8
COTAS
  6
CONTINUOUS
 62
     0
 10
-12.57247571532724
 20
51.0475669262152
 30
0.0
 40
1.8
  1
47.1
  0
POINT
  5
1C18
  8
DEFPOINTS
 62
     0
 10
6.399999999999863
 20
75.49756692621517
 30
0.0
  0
POINT
  5
1C19
  8
DEFPOINTS
 62
     0
 10
6.399999999999863
 20
28.39756692621522
 30
0.0
  0
POINT
  5
1C1A
  8
DEFPOINTS
 62
     0
 10
-10.17247571532724
 20
28.39756692621522
 30
0.0
  0
ENDBLK
  5
1C10
  8
0
  0
BLOCK
  8
0
  2
*D2
 70
     1
 10
0.0
 20
0.0
 30
0.0
  3
*D2
  1

  0
LINE
  5
1C21
  8
COTAS
 62
     0
 10
6.399999999999864
 20
81.74756692621517
 30
0.0
 11
6.399999999999864
 21
89.21785822876073
 31
0.0
  0
LINE
  5
1C22
  8
COTAS
 62
     0
 10
53.59999999999899
 20
81.74756692621517
 30
0.0
 11
53.59999999999899
 21
89.21785822876073
 31
0.0
  0
LINE
  5
1C23
  8
COTAS
 62
     0
 10
8.199999999999864
 20
87.41785822876074
 30
0.0
 11
26.39999999999943
 21
87.41785822876074
 31
0.0
  0
LINE
  5
1C24
  8
COTAS
 62
     0
 10
51.799999999999
 20
87.41785822876074
 30
0.0
 11
33.59999999999943
 21
87.41785822876074
 31
0.0
  0
SOLID
  5
1C25
  8
COTAS
 62
     0
 10
8.199999999999864
 20
87.71785822876073
 30
0.0
 11
8.199999999999864
 21
87.11785822876074
 31
0.0
 12
6.399999999999864
 22
87.41785822876074
 32
0.0
 13
6.399999999999864
 23
87.41785822876074
 33
0.0
  0
SOLID
  5
1C26
  8
COTAS
 62
     0
 10
51.799999999999
 20
87.11785822876074
 30
0.0
 11
51.799999999999
 21
87.71785822876073
 31
0.0
 12
53.59999999999899
 22
87.41785822876074
 32
0.0
 13
53.59999999999899
 23
87.41785822876074
 33
0.0
  0
TEXT
  5
1C27
  8
COTAS
  6
CONTINUOUS
 62
     0
 10
27.29999999999943
 20
86.51785822876074
 30
0.0
 40
1.8
  1
47.2
  0
POINT
  5
1C28
  8
DEFPOINTS
 62
     0
 10
6.399999999999863
 20
75.49756692621517
 30
0.0
  0
POINT
  5
1C29
  8
DEFPOINTS
 62
     0
 10
53.59999999999899
 20
75.49756692621517
 30
0.0
  0
POINT
  5
1C2A
  8
DEFPOINTS
 62
     0
 10
53.59999999999899
 20
87.41785822876074
 30
0.0
  0
ENDBLK
  5
1C20
  8
0
  0
ENDSEC
  0
SECTION
  2
ENTITIES
  0
LINE
  5
65
  8
-11
  6
AVEVASOLID
 62
   253
 10
183.0716521028405
 20
171.6640592998592
 30
0.0
 11
330.0716521028405
 21
171.6640592998592
 31
0.0
  0
TEXT
  5
110
  8
-300
  6
CONTINUOUS
 62
    92
 10
230.4017851501996
 20
-109.8054927281508
 30
0.0
 40
3.125
  1
Verif:
  0
TEXT
  5
113
  8
-300
  6
CONTINUOUS
 62
    92
 10
198.1358942593087
 20
-109.7523143115541
 30
0.0
 40
3.125
  1
Exec:
  0
TEXT
  5
118
  8
-300
  6
CONTINUOUS
 62
    92
 10
197.8023195419805
 20
-98.73903594550212
 30
0.0
 40
3.125
  1
Material:
  0
TEXT
  5
119
  8
-300
  6
CONTINUOUS
 62
    92
 10
292.8475262961977
 20
-96.0839131885441
 30
0.0
 40
3.125
  1
Rev:
  0
TEXT
  5
11A
  8
-300
  6
CONTINUOUS
 62
    92
 10
292.853782552454
 20
-106.0839131885441
 30
0.0
 40
3.125
  1
Data:
  0
TEXT
  5
11F
  8
-300
  6
CONTINUOUS
 62
    92
 10
262.4205539189684
 20
-109.7833347118037
 30
0.0
 40
3.125
  1
Aprov:
  0
TEXT
  5
123
  8
-300
  6
CONTINUOUS
 62
     7
 10
216.0443590656704
 20
-109.7182128253481
 30
0.0
 40
3.125
  1
DR
  0
TEXT
  5
124
  8
-300
  6
CONTINUOUS
 62
     7
 10
248.0443590656704
 20
-109.7182149711152
 30
0.0
 40
3.125
  1
DR
  0
TEXT
  5
126
  8
-300
  6
CONTINUOUS
 62
     7
 10
280.0443590656704
 20
-109.7492351329464
 30
0.0
 40
3.125
  1
DR
  0
TEXT
  5
12C
  8
-300
  6
CONTINUOUS
 62
     7
 10
310.9477745800078
 20
-96.2136761368791
 30
0.0
 40
3.130000114440918
  1
0
  0
TEXT
  5
12D
  8
-300
  6
CONTINUOUS
 62
     7
 10
307.4015761054001
 20
-106.2543236894151
 30
0.0
 40
3.125
  1
03/05/15
  0
LINE
  5
131
  8
-300
  6
AVEVASOLIDXWIDE
 62
    92
 10
-62.73523266278448
 20
-111.2442353778752
 30
0.0
 11
-62.73523266278448
 21
171.7557646221248
 31
0.0
  0
LINE
  5
132
  8
-300
  6
AVEVASOLIDXWIDE
 62
    92
 10
-62.73523266278448
 20
171.7557646221248
 30
0.0
 11
330.0716521028405
 21
171.6640592998592
 31
0.0
  0
LINE
  5
133
  8
-300
  6
AVEVASOLIDXWIDE
 62
    92
 10
330.0716521028405
 20
171.6640592998592
 30
0.0
 11
330.0716521028405
 21
-111.335935454932
 31
0.0
  0
LINE
  5
134
  8
-300
  6
AVEVASOLIDXWIDE
 62
    92
 10
-62.73523266278448
 20
-111.2442353778752
 30
0.0
 11
330.0716521028405
 21
-111.335935454932
 31
0.0
  0
LINE
  5
136
  8
-300
  6
AVEVASOLID
 62
    92
 10
290.5249622160042
 20
-100.3359349780949
 30
0.0
 11
322.1140430265511
 21
-100.3359349780949
 31
0.0
  0
LINE
  5
13A
  8
-300
  6
AVEVASOLID
 62
    92
 10
-82.92833266817274
 20
178.6640592998592
 30
0.0
 11
-82.92833266817274
 21
-118.3359353804262
 31
0.0
  0
LINE
  5
13B
  8
-300
  6
AVEVASOLID
 62
    92
 10
-82.92833266817274
 20
-118.3359353804262
 30
0.0
 11
337.0716521028405
 21
-118.3359353804262
 31
0.0
  0
LINE
  5
13D
  8
-300
  6
AVEVASOLIDXWIDE
 62
    92
 10
337.0716521028405
 20
-118.3359353804262
 30
0.0
 11
337.0716521028405
 21
-108.3359349780949
 31
0.0
  0
LINE
  5
13E
  8
-300
  6
AVEVASOLIDXWIDE
 62
    92
 10
327.0716521028405
 20
-118.3359353804262
 30
0.0
 11
337.0716521028405
 21
-118.3359353804262
 31
0.0
  0
LINE
  5
13F
  8
-300
  6
AVEVASOLID
 62
    92
 10
337.0716521028405
 20
178.6640592998592
 30
0.0
 11
337.0716521028405
 21
-118.3359353804262
 31
0.0
  0
LINE
  5
142
  8
-300
  6
AVEVASOLID
 62
    92
 10
-82.92833266817274
 20
178.6640592998592
 30
0.0
 11
337.0716521028405
 21
178.6640592998592
 31
0.0
  0
LINE
  5
144
  8
-300
  6
AVEVASOLID
 62
    92
 10
197.1874120930276
 20
-89.33593497809488
 30
0.0
 11
197.1874120930276
 21
-111.335935454932
 31
0.0
  0
LINE
  5
145
  8
-300
  6
AVEVASOLID
 62
    92
 10
290.5249622160042
 20
-111.335935454932
 30
0.0
 11
290.5249622160042
 21
-89.33593497809488
 31
0.0
  0
LINE
  5
14C
  8
-300
  6
AVEVASOLID
 62
    92
 10
197.1874120930276
 20
-89.33593497809488
 30
0.0
 11
197.1874120930276
 21
-111.335935454932
 31
0.0
  0
LINE
  5
14D
  8
-300
  6
AVEVASOLID
 62
    92
 10
290.5249622160042
 20
-111.335935454932
 30
0.0
 11
290.5249622160042
 21
-89.33593497809488
 31
0.0
  0
LINE
  5
151
  8
-300
  6
AVEVASOLIDXWIDE
 62
    92
 10
337.0716521028405
 20
-118.3359353804262
 30
0.0
 11
337.0716521028405
 21
-108.3359349780949
 31
0.0
  0
LINE
  5
152
  8
-300
  6
AVEVASOLIDXWIDE
 62
    92
 10
327.0716521028405
 20
-118.3359353804262
 30
0.0
 11
337.0716521028405
 21
-118.3359353804262
 31
0.0
  0
LINE
  5
153
  8
-300
  6
AVEVASOLID
 62
    92
 10
337.0716521028405
 20
178.6640592998592
 30
0.0
 11
337.0716521028405
 21
-118.3359353804262
 31
0.0
  0
LINE
  5
156
  8
-300
  6
AVEVASOLID
 62
    92
 10
-82.92833266817274
 20
178.6640592998592
 30
0.0
 11
337.0716521028405
 21
178.6640592998592
 31
0.0
  0
LINE
  5
159
  8
-300
  6
AVEVASOLID
 62
    92
 10
-82.92833266817274
 20
178.6640592998592
 30
0.0
 11
-82.92833266817274
 21
-118.3359353804262
 31
0.0
  0
LINE
  5
15A
  8
-300
  6
AVEVASOLID
 62
    92
 10
-82.92833266817274
 20
-118.3359353804262
 30
0.0
 11
337.0716521028405
 21
-118.3359353804262
 31
0.0
  0
LINE
  5
15D
  8
-300
  6
AVEVASOLID
 62
    92
 10
290.5249622160042
 20
-100.3359349780949
 30
0.0
 11
330.0716521028405
 21
-100.3359349780949
 31
0.0
  0
LINE
  5
1732
  8
-300
  6
AVEVASOLIDXWIDE
 62
    92
 10
197.1874120930276
 20
-89.33593497809488
 30
0.0
 11
290.5249622160042
 21
-89.33593497809488
 31
0.0
  0
LINE
  5
1733
  8
-300
  6
AVEVASOLIDXWIDE
 62
    92
 10
197.1874120930276
 20
-89.33593497809488
 30
0.0
 11
290.5249622160042
 21
-89.33593497809488
 31
0.0
  0
LINE
  5
1734
  8
-300
  6
AVEVASOLID
 62
    92
 10
197.1874120930276
 20
-94.83593497809488
 30
0.0
 11
290.5249622160042
 21
-94.83593497809488
 31
0.0
  0
LINE
  5
1735
  8
-300
  6
AVEVASOLID
 62
    92
 10
197.1874120930276
 20
-94.83593497809488
 30
0.0
 11
290.5249622160042
 21
-94.83593497809488
 31
0.0
  0
LINE
  5
1736
  8
-300
  6
AVEVASOLID
 62
    92
 10
197.1874120930276
 20
-100.3359349780949
 30
0.0
 11
290.5249622160042
 21
-100.3359349780949
 31
0.0
  0
LINE
  5
1737
  8
-300
  6
AVEVASOLID
 62
    92
 10
197.1874120930276
 20
-100.3359349780949
 30
0.0
 11
290.5249622160042
 21
-100.3359349780949
 31
0.0
  0
LINE
  5
1738
  8
-300
  6
AVEVASOLID
 62
    92
 10
197.1874120930276
 20
-105.8359349780949
 30
0.0
 11
290.5249622160042
 21
-105.8359349780949
 31
0.0
  0
LINE
  5
1739
  8
-300
  6
AVEVASOLID
 62
    92
 10
197.1874120930276
 20
-105.8359349780949
 30
0.0
 11
290.5249622160042
 21
-105.8359349780949
 31
0.0
  0
TEXT
  5
173B
  8
-300
  6
CONTINUOUS
 62
     7
 10
222.1746753582354
 20
-98.80241271681994
 30
0.0
 40
3.125
  1
MDF ou Alumínio 6061
  0
TEXT
  5
1766
  8
-300
  6
CONTINUOUS
 62
     7
 10
309.320647663588
 20
-117.3915822617073
 30
0.0
 40
3.125
  1
Padrao-A3
  0
LINE
  5
1A19
  8
0
 10
0.0
 20
0.0
 30
0.0
 11
59.99999999999932
 21
0.0
 31
0.0000000000000056
  0
LINE
  5
1A26
  8
0
 10
0.0
 20
-24.0
 30
0.0
 11
0.0
 21
-39.0
 31
0.0
  0
LINE
  5
1A27
  8
0
 10
59.99999999999932
 20
-24.0
 30
0.0000000000000056
 11
59.99999999999932
 21
-39.00000000000001
 31
0.0000000000000056
  0
LINE
  5
1A28
  8
0
 10
0.0
 20
-39.0
 30
0.0
 11
59.99999999999932
 21
-39.0
 31
0.0
  0
LINE
  5
1A29
  8
0
 10
0.0
 20
-24.0
 30
0.0
 11
59.99999999999932
 21
-24.0
 31
0.0
  0
LINE
  5
1A2E
  8
0
  6
AVEVASHORTDASHED
 10
49.99999999999968
 20
-24.0
 30
0.0000000000000057
 11
49.99999999999968
 21
-39.0
 31
0.0
  0
LINE
  5
1A2F
  8
0
  6
AVEVASHORTDASHED
 10
9.999999999999638
 20
-24.0
 30
0.0000000000000063
 11
9.999999999999638
 21
-39.0
 31
0.0
  0
LINE
  5
1A32
  8
0
  6
AVEVASHORTDASHED
 10
56.0999999999998
 20
-24.00000000000001
 30
0.000000000000002
 11
56.0999999999998
 21
-39.0
 31
0.0
  0
LINE
  5
1A33
  8
0
  6
AVEVASHORTDASHED
 10
3.899999999999824
 20
-24.00000000000001
 30
0.0
 11
3.899999999999824
 21
-39.0
 31
0.0
  0
LINE
  5
1A36
  8
0
  6
AVEVASHORTDASHED
 10
1.900000000000258
 20
-31.0
 30
0.0
 11
10.90000000000038
 21
-31.0
 31
0.0
  0
LINE
  5
1A3B
  8
0
  6
AVEVASHORTDASHED
 10
8.900000000000334
 20
-30.99999999999999
 30
8.000000000000039
 11
8.900000000000334
 21
-38.99999999999999
 31
8.000000000000039
  0
LINE
  5
1A3C
  8
0
  6
AVEVASHORTDASHED
 10
10.90000000000038
 20
-24.0
 30
8.000000000000036
 11
10.90000000000038
 21
-31.00000000000001
 31
8.000000000000036
  0
LINE
  5
1A3D
  8
0
  6
AVEVASHORTDASHED
 10
1.900000000000258
 20
-24.0
 30
8.000000000000037
 11
1.900000000000258
 21
-31.0
 31
8.000000000000037
  0
LINE
  5
1A3E
  8
0
  6
AVEVASHORTDASHED
 10
49.0999999999985
 20
-31.0
 30
0.0
 11
58.09999999999859
 21
-31.0
 31
0.0
  0
LINE
  5
1A3F
  8
0
  6
AVEVASHORTDASHED
 10
51.09999999999853
 20
-30.99999999999997
 30
0.0000000000000254
 11
51.09999999999853
 21
-39.0
 31
0.0000000000000254
  0
LINE
  5
1A40
  8
0
  6
AVEVASHORTDASHED
 10
58.09999999999859
 20
-24.00000000000003
 30
0.6331434763685078
 11
58.09999999999859
 21
-31.0
 31
0.0
  0
LINE
  5
1A41
  8
0
  6
AVEVASHORTDASHED
 10
49.09999999999849
 20
-24.00000000000003
 30
0.6331434763685078
 11
49.09999999999849
 21
-31.0
 31
0.0
  0
CIRCLE
  5
1A79
  8
0
 10
-53.09999999999991
 20
15.0
 30
-0.0000000000000192
 40
3.0
210
9.399888275159535E-16
220
9.433117598291737E-17
230
-1.0
  0
CIRCLE
  5
1A7A
  8
0
 10
-29.99999999999886
 20
51.89756692621521
 30
-0.0000000000000145
 40
20.00000000000002
210
1.231232206464958E-15
220
-1.234164485259341E-16
230
-1.0
  0
CIRCLE
  5
1A7B
  8
0
 10
-6.899999999999864
 20
15.0
 30
-0.0000000000000102
 40
3.000000000000041
210
1.432203511637419E-15
220
-5.893902686385082E-16
230
-1.0
  0
LINE
  5
1A7C
  8
0
 10
0.0
 20
81.0000000000001
 30
0.0000000000000084
 11
60.0
 21
81.00000000000009
 31
0.0000000000000846
  0
LINE
  5
1A7D
  8
0
 10
0.0
 20
81.0000000000001
 30
0.0000000000000084
 11
0.0
 21
0.0
 31
0.0
  0
CIRCLE
  5
1A7F
  8
0
 10
-6.399999999999864
 20
75.49756692621517
 30
0.0000000000000297
 40
2.500000000000016
210
9.317766791510961E-16
220
5.379615165323873E-16
230
-1.0
  0
CIRCLE
  5
1A80
  8
0
 10
-6.399999999999864
 20
28.39756692621521
 30
0.0000000000000047
 40
2.500000000000016
210
1.136007434875471E-15
220
3.043922747705991E-16
230
-1.0
  0
CIRCLE
  5
1A81
  8
0
 10
53.599999999999
 20
75.49756692621517
 30
0.0000000000000761
 40
2.500000000000013
  0
CIRCLE
  5
1A82
  8
0
 10
53.599999999999
 20
28.39756692621521
 30
0.0000000000000705
 40
2.500000000000016
  0
LINE
  5
1A83
  8
0
 10
60.0
 20
81.00000000000009
 30
0.0000000000000846
 11
60.0
 21
0.0
 31
0.0000000000000761
  0
CIRCLE
  5
1A84
  8
0
 10
53.599999999999
 20
75.49756692621517
 30
8.000000000035074
 40
2.500000000000013
  0
CIRCLE
  5
1A85
  8
0
 10
53.599999999999
 20
28.39756692621521
 30
8.00000000003435
 40
2.500000000000016
  0
CIRCLE
  5
1A86
  8
0
 10
-6.399999999999872
 20
28.39756692621522
 30
-7.999999999999984
 40
2.500000000000016
210
1.118090988404907E-15
220
3.204840193936751E-16
230
-1.0
  0
CIRCLE
  5
1A87
  8
0
 10
-6.399999999999872
 20
75.49756692621517
 30
-8.000000000000021
 40
2.500000000000014
210
1.079857113930429E-15
220
-3.281239135167676E-16
230
-1.0
  0
CIRCLE
  5
1A88
  8
0
 10
-6.399999999999873
 20
28.39756692621521
 30
-7.99999999999999
 40
4.499999999999969
210
1.177528050103522E-15
220
8.864990902637639E-18
230
-1.0
  0
CIRCLE
  5
1A89
  8
0
 10
-6.399999999999872
 20
75.49756692621517
 30
-8.000000000000016
 40
4.500000000000003
210
1.076129992122731E-15
220
-2.532149562295571E-16
230
-1.0
  0
CIRCLE
  5
1A8A
  8
0
 10
-53.59999999999901
 20
75.49756692621517
 30
-8.000000000035005
 40
4.500000000000003
210
1.352950843847776E-15
220
-3.813940501516004E-17
230
-1.0
  0
CIRCLE
  5
1A8B
  8
0
 10
-53.59999999999901
 20
28.39756692621521
 30
-8.000000000034273
 40
4.499999999999993
210
1.502215858932859E-15
220
-1.728709105805667E-16
230
-1.0
  0
TEXT
  5
1B09
  8
-300
  6
CONTINUOUS
 62
     7
 10
212.1746753582354
 20
-93.30241271681994
 30
0.0
 40
3.125
  1
Fabricar-suporte-motor-XY
  0
TEXT
  5
1B0A
  8
-300
  6
CONTINUOUS
 62
    92
 10
197.8023195419805
 20
-93.23903594550212
 30
0.0
 40
3.125
  1
Nome:
  0
LINE
  5
1B0B
  8
-300
  6
AVEVASOLIDXWIDE
 62
    92
 10
197.1874120930276
 20
-89.33593497809488
 30
0.0
 11
330.0716521028405
 21
-89.33593497809488
 31
0.0
  0
TEXT
  5
1B0C
  8
-300
  6
CONTINUOUS
 62
    92
 10
197.8023195419805
 20
-104.2390359455021
 30
0.0
 40
3.125
  1
Qtd:
  0
TEXT
  5
1B0D
  8
-300
  6
CONTINUOUS
 62
     7
 10
210.1687941204283
 20
-104.3024127168199
 30
0.0
 40
3.125
  1
2
  0
VIEWPORT
  5
16EA
 67
     1
  8
0
 10
143.5
 20
95.0
 30
0.0
 40
462.0
 41
231.0
 68
     1
 69
     1
1001
ACAD
1000
MVIEW
1002
{
1070
    16
1010
0.0
1020
0.0
1030
0.0
1020
0.0
1030
0.0
1010
0.0
1020
0.0
1030
1.0
1020
0.0
1030
1.0
1040
0.0
1040
231.0
1040
143.5
1040
95.0
1040
50.0
1040
0.0
1040
0.0
1070
     0
1070
   100
1070
     1
1070
     0
1070
     0
1070
     0
1070
     0
1070
     0
1040
0.0
1040
0.0
1040
0.0
1040
10.0
1040
10.0
1040
10.0
1040
10.0
1070
     1
1002
{
1002
}
1002
}
  0
VIEWPORT
  5
16EC
 67
     1
  8
VIEWPORTS
 10
143.5
 20
95.0
 30
0.0
 40
287.0
 41
162.7319641113281
 68
     2
 69
     2
1001
ACAD
1000
MVIEW
1002
{
1070
    16
1010
0.0
1020
0.0
1030
0.0
1020
0.0
1030
0.0
1010
0.0
1020
0.0
1030
1.0
1020
0.0
1030
1.0
1040
0.0
1040
305.9693908691406
1040
209.806884765625
1040
148.4082946777344
1040
50.0
1040
0.0
1040
0.0
1070
     0
1070
   100
1070
     1
1070
     0
1070
     0
1070
     0
1070
     0
1070
     0
1040
0.0
1040
0.0
1040
0.0
1040
10.0
1040
10.0
1040
10.0
1040
10.0
1070
     1
1002
{
1002
}
1002
}
  0
ENDSEC
  0
EOF
