  0
SECTION
  2
HEADER
  9
$ACADVER
  1
AC1009
  9
$DWGCODEPAGE
  3
ansi_1252
  9
$INSBASE
 10
0.0
 20
0.0
 30
0.0
  9
$EXTMIN
 10
-221.1972444554907
 20
-118.3359353804262
 30
-11.00000000004725
  9
$EXTMAX
 10
449.0716490570431
 20
657.4957962164692
 30
11.00000000008134
  9
$LIMMIN
 10
0.0
 20
0.0
  9
$LIMMAX
 10
12.0
 20
9.0
  9
$ORTHOMODE
 70
     1
  9
$REGENMODE
 70
     1
  9
$FILLMODE
 70
     1
  9
$QTEXTMODE
 70
     0
  9
$MIRRTEXT
 70
     1
  9
$DRAGMODE
 70
     2
  9
$LTSCALE
 40
1.0
  9
$OSMODE
 70
   511
  9
$ATTMODE
 70
     1
  9
$TEXTSIZE
 40
2.5
  9
$TRACEWID
 40
0.05
  9
$TEXTSTYLE
  7
STANDARD
  9
$CLAYER
  8
COTAS
  9
$CELTYPE
  6
BYLAYER
  9
$CECOLOR
 62
   256
  9
$DIMSCALE
 40
10.0
  9
$DIMASZ
 40
0.18
  9
$DIMEXO
 40
0.625
  9
$DIMDLI
 40
0.38
  9
$DIMRND
 40
0.0
  9
$DIMDLE
 40
0.38
  9
$DIMEXE
 40
0.18
  9
$DIMTP
 40
0.0
  9
$DIMTM
 40
0.0
  9
$DIMTXT
 40
0.18
  9
$DIMCEN
 40
0.09
  9
$DIMTSZ
 40
0.0
  9
$DIMTOL
 70
     0
  9
$DIMLIM
 70
     0
  9
$DIMTIH
 70
     1
  9
$DIMTOH
 70
     1
  9
$DIMSE1
 70
     0
  9
$DIMSE2
 70
     0
  9
$DIMTAD
 70
     0
  9
$DIMZIN
 70
     0
  9
$DIMBLK
  1

  9
$DIMASO
 70
     1
  9
$DIMSHO
 70
     1
  9
$DIMPOST
  1

  9
$DIMAPOST
  1

  9
$DIMALT
 70
     0
  9
$DIMALTD
 70
     2
  9
$DIMALTF
 40
25.4
  9
$DIMLFAC
 40
1.0
  9
$DIMTOFL
 70
     0
  9
$DIMTVP
 40
0.0
  9
$DIMTIX
 70
     0
  9
$DIMSOXD
 70
     0
  9
$DIMSAH
 70
     0
  9
$DIMBLK1
  1

  9
$DIMBLK2
  1

  9
$DIMSTYLE
  2
ISO-25
  9
$DIMCLRD
 70
     0
  9
$DIMCLRE
 70
     0
  9
$DIMCLRT
 70
     0
  9
$DIMTFAC
 40
1.0
  9
$DIMGAP
 40
0.09
  9
$LUNITS
 70
     2
  9
$LUPREC
 70
     4
  9
$SKETCHINC
 40
0.1
  9
$FILLETRAD
 40
0.5
  9
$AUNITS
 70
     0
  9
$AUPREC
 70
     0
  9
$MENU
  1

  9
$ELEVATION
 40
0.0
  9
$PELEVATION
 40
0.0
  9
$THICKNESS
 40
0.0
  9
$LIMCHECK
 70
     0
  9
$CHAMFERA
 40
0.5
  9
$CHAMFERB
 40
0.5
  9
$SKPOLY
 70
     0
  9
$TDCREATE
 40
2447892.875
  9
$TDUPDATE
 40
2457161.12835368
  9
$TDINDWG
 40
0.0722365162
  9
$TDUSRTIMER
 40
2457161.23777037
  9
$USRTIMER
 70
     0
  9
$ANGBASE
 50
0.0
  9
$ANGDIR
 70
     0
  9
$PDMODE
 70
     0
  9
$PDSIZE
 40
0.0
  9
$PLINEWID
 40
0.0
  9
$COORDS
 70
     1
  9
$SPLFRAME
 70
     0
  9
$SPLINETYPE
 70
     6
  9
$SPLINESEGS
 70
     8
  9
$ATTDIA
 70
     0
  9
$ATTREQ
 70
     1
  9
$HANDLING
 70
     1
  9
$HANDSEED
  5
24CA
  9
$SURFTAB1
 70
     6
  9
$SURFTAB2
 70
     6
  9
$SURFTYPE
 70
     6
  9
$SURFU
 70
     6
  9
$SURFV
 70
     6
  9
$UCSNAME
  2

  9
$UCSORG
 10
0.0
 20
0.0
 30
0.0
  9
$UCSXDIR
 10
1.0
 20
0.0
 30
0.0
  9
$UCSYDIR
 10
0.0
 20
1.0
 30
0.0
  9
$PUCSNAME
  2

  9
$PUCSORG
 10
0.0
 20
0.0
 30
0.0
  9
$PUCSXDIR
 10
1.0
 20
0.0
 30
0.0
  9
$PUCSYDIR
 10
0.0
 20
1.0
 30
0.0
  9
$USERI1
 70
     0
  9
$USERI2
 70
     0
  9
$USERI3
 70
     0
  9
$USERI4
 70
     0
  9
$USERI5
 70
     0
  9
$USERR1
 40
0.0
  9
$USERR2
 40
0.0
  9
$USERR3
 40
0.0
  9
$USERR4
 40
0.0
  9
$USERR5
 40
0.0
  9
$WORLDVIEW
 70
     1
  9
$SHADEDGE
 70
     3
  9
$SHADEDIF
 70
    70
  9
$TILEMODE
 70
     1
  9
$MAXACTVP
 70
    64
  9
$PLIMCHECK
 70
     0
  9
$PEXTMIN
 10
0.0
 20
0.0
 30
0.0
  9
$PEXTMAX
 10
0.0
 20
0.0
 30
0.0
  9
$PLIMMIN
 10
0.0
 20
0.0
  9
$PLIMMAX
 10
0.0
 20
0.0
  9
$UNITMODE
 70
     0
  9
$VISRETAIN
 70
     1
  9
$PLINEGEN
 70
     0
  9
$PSLTSCALE
 70
     1
  0
ENDSEC
  0
SECTION
  2
TABLES
  0
TABLE
  2
VPORT
 70
     1
  0
VPORT
  2
*ACTIVE
 70
     0
 10
0.0
 20
0.0
 11
1.0
 21
1.0
 12
-14.07172968718544
 22
-94.67680623505532
 13
0.0
 23
0.0
 14
0.5
 24
0.5
 15
0.0
 25
0.0
 16
0.0
 26
0.0
 36
1.0
 17
209.806884765625
 27
148.4082946777344
 37
0.0
 40
405.1703635091627
 41
2.152066115702479
 42
50.0
 43
0.0
 44
0.0
 50
0.0
 51
0.0
 71
    16
 72
     0
 73
     0
 74
     1
 75
     0
 76
     1
 77
     0
 78
     0
  0
ENDTAB
  0
TABLE
  2
LTYPE
 70
     6
  0
LTYPE
  2
CONTINUOUS
 70
     0
  3
Solid line
 72
    65
 73
     0
 40
0.0
  0
LTYPE
  2
AVEVASOLID
 70
     0
  3
Aveva linetype
 72
    65
 73
     1
 40
2.25
 49
2.25
  0
LTYPE
  2
AVEVASOLIDXWIDE
 70
     0
  3
Aveva linetype
 72
    65
 73
     1
 40
2.25
 49
2.25
  0
LTYPE
  2
AVEVASHORTDASHED
 70
     0
  3
Aveva linetype
 72
    65
 73
     2
 40
2.0
 49
1.5
 49
-0.5
  0
ENDTAB
  0
TABLE
  2
LAYER
 70
    15
  0
LAYER
  2
0
 70
     0
 62
     7
  6
CONTINUOUS
  0
LAYER
  2
-11
 70
     0
 62
     7
  6
CONTINUOUS
  0
LAYER
  2
-300
 70
     0
 62
     7
  6
CONTINUOUS
  0
LAYER
  2
VIEWPORTS
 70
     0
 62
    -7
  6
CONTINUOUS
  0
LAYER
  2
DEFPOINTS
 70
     0
 62
     7
  6
CONTINUOUS
  0
LAYER
  2
COTAS
 70
     0
 62
     4
  6
CONTINUOUS
  0
ENDTAB
  0
TABLE
  2
STYLE
 70
     3
  0
STYLE
  2
STANDARD
 70
     0
 40
0.0
 41
1.0
 50
0.0
 71
     0
 42
2.5
  3
txt
  4

  0
ENDTAB
  0
TABLE
  2
VIEW
 70
     0
  0
ENDTAB
  0
TABLE
  2
UCS
 70
     0
  0
ENDTAB
  0
TABLE
  2
APPID
 70
     3
  0
APPID
  2
ACAD
 70
     0
  0
APPID
  2
ACAECLAYERSTANDARD
 70
     0
  0
APPID
  2
ACAD_DSTYLE_DIMRADIAL_EXTE
 70
     0
  0
ENDTAB
  0
TABLE
  2
DIMSTYLE
 70
     2
  0
DIMSTYLE
  2
ISO-25
 70
     0
  3

  4

  5

  6

  7

 40
1.0
 41
2.5
 42
0.625
 43
0.3799999952316284
 44
0.1800000071525574
 45
0.0
 46
0.3799999952316284
 47
0.0
 48
0.0
140
2.5
141
0.0900000035762787
142
0.0
143
25.39999961853027
144
1.0
145
0.0
146
1.0
147
0.0900000035762787
 71
     0
 72
     0
 73
     1
 74
     1
 75
     0
 76
     0
 77
     1
 78
     0
170
     0
171
     3
172
     0
173
     0
174
     0
175
     0
176
     0
177
     0
178
     0
  0
DIMSTYLE
  2
STANDARD
 70
     0
  3

  4

  5

  6

  7

 40
1.0
 41
0.18
 42
0.0625
 43
0.38
 44
0.18
 45
0.0
 46
0.0
 47
0.0
 48
0.0
140
0.18
141
0.09
142
0.0
143
25.4
144
1.0
145
0.0
146
1.0
147
0.09
 71
     0
 72
     0
 73
     1
 74
     1
 75
     0
 76
     0
 77
     0
 78
     0
170
     0
171
     2
172
     0
173
     0
174
     0
175
     0
176
     0
177
     0
178
     0
  0
ENDTAB
  0
ENDSEC
  0
SECTION
  2
BLOCKS
  0
BLOCK
  8
0
  2
$MODEL_SPACE
 70
     0
 10
0.0
 20
0.0
 30
0.0
  3
$MODEL_SPACE
  1

  0
ENDBLK
  5
7
  8
0
  0
BLOCK
 67
     1
  8
0
  2
$PAPER_SPACE
 70
     0
 10
0.0
 20
0.0
 30
0.0
  3
$PAPER_SPACE
  1

  0
ENDBLK
  5
A
 67
     1
  8
0
  0
BLOCK
  8
0
  2
*D2
 70
     1
 10
0.0
 20
0.0
 30
0.0
  3
*D2
  1

  0
LINE
  5
2124
  8
COTAS
 62
     0
 10
61.97244922624801
 20
118.6801345856824
 30
0.0
 11
62.02930933377871
 21
124.4998568237425
 31
0.0
  0
TEXT
  5
2125
  8
COTAS
  6
CONTINUOUS
 62
     0
 10
62.71131540458748
 20
125.3039621906691
 30
0.0
 40
0.18
  1
ø6.0000
  0
SOLID
  5
2126
  8
COTAS
 62
     0
 10
62.05754934198941
 20
124.3195723209802
 30
0.0
 11
61.99755220551457
 21
124.3201585076558
 31
0.0
 12
62.02930933377871
 22
124.4998568237425
 32
0.0
 13
62.02930933377871
 23
124.4998568237425
 33
0.0
  0
SOLID
  5
2127
  8
COTAS
 62
     0
 10
61.94245065801059
 20
118.6804276790202
 30
0.0
 11
62.00244779448543
 21
118.6798414923446
 31
0.0
 12
61.97069066622129
 22
118.5001431762579
 32
0.0
 13
61.97069066622129
 23
118.5001431762579
 33
0.0
  0
POINT
  5
2128
  8
DEFPOINTS
 62
     0
 10
61.97069066622129
 20
118.5001431762579
 30
0.0
  0
POINT
  5
2129
  8
DEFPOINTS
 62
     0
 10
62.02930933377871
 20
124.4998568237425
 30
0.0
  0
ENDBLK
  5
2123
  8
0
  0
BLOCK
  8
0
  2
*D3
 70
     1
 10
0.0
 20
0.0
 30
0.0
  3
*D3
  1

  0
LINE
  5
2132
  8
COTAS
 62
     0
 10
62.78885322304085
 20
122.4042735164199
 30
0.0
 11
60.02786694239789
 21
119.2393162089509
 31
0.0
  0
TEXT
  5
2133
  8
COTAS
  6
CONTINUOUS
 62
     0
 10
60.19536389793613
 20
124.9136795952441
 30
0.0
 40
1.8
  1
ø6.0000
  0
SOLID
  5
2134
  8
COTAS
 62
     0
 10
60.98507839785422
 20
120.7929397893407
 30
0.0
 11
61.43721515606408
 21
120.3985131778203
 31
0.0
 12
60.02786694239789
 22
119.2393162089509
 32
0.0
 13
60.02786694239789
 23
119.2393162089509
 33
0.0
  0
SOLID
  5
2135
  8
COTAS
 62
     0
 10
63.01492160214578
 20
122.2070602106597
 30
0.0
 11
62.56278484393592
 21
122.6014868221801
 31
0.0
 12
63.97213305760211
 22
123.7606837910495
 32
0.0
 13
63.97213305760211
 23
123.7606837910495
 33
0.0
  0
POINT
  5
2136
  8
DEFPOINTS
 62
     0
 10
63.97213305760211
 20
123.7606837910495
 30
0.0
  0
POINT
  5
2137
  8
DEFPOINTS
 62
     0
 10
60.02786694239789
 20
119.2393162089509
 30
0.0
  0
ENDBLK
  5
2131
  8
0
  0
BLOCK
  8
0
  2
*D4
 70
     1
 10
0.0
 20
0.0
 30
0.0
  3
*D4
  1

  0
LINE
  5
213E
  8
COTAS
 62
     0
 10
62.39243784360853
 20
122.6340161105136
 30
0.0
 11
61.01890539097867
 21
118.6649597237168
 31
0.0
  0
TEXT
  5
213F
  8
COTAS
  6
CONTINUOUS
 62
     0
 10
61.26720977983086
 20
125.5027566542968
 30
0.0
 40
1.8
  1
ø6.0
  0
SOLID
  5
2140
  8
COTAS
 62
     0
 10
61.32405812876313
 20
120.464093350389
 30
0.0
 11
61.89106618401982
 21
120.2678744285847
 31
0.0
 12
61.01890539097867
 22
118.6649597237168
 32
0.0
 13
61.01890539097867
 23
118.6649597237168
 33
0.0
  0
SOLID
  5
2141
  8
COTAS
 62
     0
 10
62.67594187123687
 20
122.5359066496114
 30
0.0
 11
62.10893381598018
 21
122.7321255714157
 31
0.0
 12
62.98109460902133
 22
124.3350402762836
 32
0.0
 13
62.98109460902133
 23
124.3350402762836
 33
0.0
  0
POINT
  5
2142
  8
DEFPOINTS
 62
     0
 10
62.98109460902133
 20
124.3350402762836
 30
0.0
  0
POINT
  5
2143
  8
DEFPOINTS
 62
     0
 10
61.01890539097867
 20
118.6649597237168
 30
0.0
  0
ENDBLK
  5
213D
  8
0
  0
BLOCK
  8
0
  2
*D5
 70
     1
 10
0.0
 20
0.0
 30
0.0
  3
*D5
  1

  0
LINE
  5
214A
  8
COTAS
 62
     0
 10
67.34487347252305
 20
123.4804866984472
 30
0.0
 11
54.96727174668051
 21
118.8940964494142
 31
0.0
  0
TEXT
  5
214B
  8
COTAS
  6
CONTINUOUS
 62
     0
 10
68.87747129037692
 20
125.281852757152
 30
0.0
 40
1.8
  1
ø15.0
  0
SOLID
  5
214C
  8
COTAS
 62
     0
 10
56.55089038545372
 20
119.8008224316878
 30
0.0
 11
56.75936266950067
 21
119.2382041714222
 31
0.0
 12
54.96727174668051
 22
118.8940964494142
 32
0.0
 13
54.96727174668051
 23
118.8940964494142
 33
0.0
  0
SOLID
  5
214D
  8
COTAS
 62
     0
 10
67.44910961454653
 20
123.1991775683144
 30
0.0
 11
67.24063733049957
 21
123.7617958285799
 31
0.0
 12
69.03272825331973
 22
124.105903550588
 32
0.0
 13
69.03272825331973
 23
124.105903550588
 33
0.0
  0
POINT
  5
214E
  8
DEFPOINTS
 62
     0
 10
69.03272825331973
 20
124.105903550588
 30
0.0
  0
POINT
  5
214F
  8
DEFPOINTS
 62
     0
 10
54.96727174668051
 20
118.8940964494142
 30
0.0
  0
ENDBLK
  5
2149
  8
0
  0
BLOCK
  8
0
  2
*D6
 70
     1
 10
0.0
 20
0.0
 30
0.0
  3
*D6
  1

  0
LINE
  5
2156
  8
COTAS
 62
     0
 10
33.53672103745601
 20
127.5732802653327
 30
0.0
 11
31.65819740636035
 21
123.8167993366689
 31
0.0
  0
TEXT
  5
2157
  8
COTAS
  6
CONTINUOUS
 62
     0
 10
35.31633969079098
 20
129.2200193767152
 30
0.0
 40
1.8
  1
ø6.0
  0
SOLID
  5
2158
  8
COTAS
 62
     0
 10
32.19495889621108
 20
125.5608999940317
 30
0.0
 11
32.73159902887734
 21
125.2925394753037
 31
0.0
 12
31.65819740636035
 22
123.8167993366689
 32
0.0
 13
31.65819740636035
 23
123.8167993366689
 33
0.0
  0
SOLID
  5
2159
  8
COTAS
 62
     0
 10
33.80504110378914
 20
127.4391000059687
 30
0.0
 11
33.26840097112288
 21
127.7074605246967
 31
0.0
 12
34.34180259363987
 22
129.1832006633315
 32
0.0
 13
34.34180259363987
 23
129.1832006633315
 33
0.0
  0
POINT
  5
215A
  8
DEFPOINTS
 62
     0
 10
34.34180259363987
 20
129.1832006633315
 30
0.0
  0
POINT
  5
215B
  8
DEFPOINTS
 62
     0
 10
31.65819740636035
 20
123.8167993366689
 30
0.0
  0
ENDBLK
  5
2155
  8
0
  0
BLOCK
  8
0
  2
*D7
 70
     1
 10
0.0
 20
0.0
 30
0.0
  3
*D7
  1

  0
LINE
  5
2162
  8
COTAS
 62
     0
 10
10.7137889428579
 20
90.96462704972086
 30
0.0
 11
8.215527642856419
 21
87.58843237569586
 31
0.0
  0
TEXT
  5
2163
  8
COTAS
  6
CONTINUOUS
 62
     0
 10
11.45722593183903
 20
94.01856634382007
 30
0.0
 40
1.8
  1
ø6.0
  0
SOLID
  5
2164
  8
COTAS
 62
     0
 10
9.045054294712417
 20
89.21382018599239
 30
0.0
 11
9.527367819573131
 21
88.85692571456362
 31
0.0
 12
8.215527642856419
 22
87.58843237569586
 32
0.0
 13
8.215527642856419
 23
87.58843237569586
 33
0.0
  0
SOLID
  5
2165
  8
COTAS
 62
     0
 10
10.95494570528826
 20
90.78617981400647
 30
0.0
 11
10.47263218042755
 21
91.14307428543525
 31
0.0
 12
11.78447235714426
 22
92.411567624303
 32
0.0
 13
11.78447235714426
 23
92.411567624303
 33
0.0
  0
POINT
  5
2166
  8
DEFPOINTS
 62
     0
 10
11.78447235714426
 20
92.411567624303
 30
0.0
  0
POINT
  5
2167
  8
DEFPOINTS
 62
     0
 10
8.215527642856419
 20
87.58843237569586
 30
0.0
  0
ENDBLK
  5
2161
  8
0
  0
BLOCK
  8
0
  2
*D8
 70
     1
 10
0.0
 20
0.0
 30
0.0
  3
*D8
  1

  0
LINE
  5
216E
  8
COTAS
 62
     0
 10
127.7271986480551
 20
7.454558602845841
 30
0.0
 11
125.1820033798624
 21
4.113603492885444
 31
0.0
  0
TEXT
  5
216F
  8
COTAS
  6
CONTINUOUS
 62
     0
 10
128.1019003449688
 20
10.28104310567461
 30
0.0
 40
1.8
  1
ø6.0
  0
SOLID
  5
2170
  8
COTAS
 62
     0
 10
126.0341617012335
 20
5.727241059167914
 30
0.0
 11
126.5114410026564
 21
5.363641735140403
 31
0.0
 12
125.1820033798624
 22
4.113603492885444
 32
0.0
 13
125.1820033798624
 23
4.113603492885444
 33
0.0
  0
SOLID
  5
2171
  8
COTAS
 62
     0
 10
127.9658382987665
 20
7.272758940832086
 30
0.0
 11
127.4885589973436
 21
7.636358264859597
 31
0.0
 12
128.8179966201376
 22
8.886396507114556
 32
0.0
 13
128.8179966201376
 23
8.886396507114556
 33
0.0
  0
POINT
  5
2172
  8
DEFPOINTS
 62
     0
 10
128.8179966201376
 20
8.886396507114556
 30
0.0
  0
POINT
  5
2173
  8
DEFPOINTS
 62
     0
 10
125.1820033798624
 20
4.113603492885444
 30
0.0
  0
ENDBLK
  5
216D
  8
0
  0
BLOCK
  8
0
  2
*D9
 70
     1
 10
0.0
 20
0.0
 30
0.0
  3
*D9
  1

  0
LINE
  5
217A
  8
COTAS
 62
     0
 10
0.0
 20
140.2500000000002
 30
0.0
 11
0.0
 21
145.2290097874413
 31
0.0
  0
LINE
  5
217B
  8
COTAS
 62
     0
 10
33.00000000000011
 20
132.7500000000002
 30
0.0
 11
33.00000000000011
 21
145.2290097874413
 31
0.0
  0
LINE
  5
217C
  8
COTAS
 62
     0
 10
1.8
 20
143.4290097874413
 30
0.0
 11
13.05000000000005
 21
143.4290097874413
 31
0.0
  0
LINE
  5
217D
  8
COTAS
 62
     0
 10
31.20000000000011
 20
143.4290097874413
 30
0.0
 11
19.95000000000006
 21
143.4290097874413
 31
0.0
  0
SOLID
  5
217E
  8
COTAS
 62
     0
 10
1.8
 20
143.7290097874413
 30
0.0
 11
1.8
 21
143.1290097874413
 31
0.0
 12
0.0
 22
143.4290097874413
 32
0.0
 13
0.0
 23
143.4290097874413
 33
0.0
  0
SOLID
  5
217F
  8
COTAS
 62
     0
 10
31.20000000000011
 20
143.1290097874413
 30
0.0
 11
31.20000000000011
 21
143.7290097874413
 31
0.0
 12
33.00000000000011
 22
143.4290097874413
 32
0.0
 13
33.00000000000011
 23
143.4290097874413
 33
0.0
  0
TEXT
  5
2180
  8
COTAS
  6
CONTINUOUS
 62
     0
 10
13.95000000000005
 20
142.5290097874413
 30
0.0
 40
1.8
  1
33.0
  0
POINT
  5
2181
  8
DEFPOINTS
 62
     0
 10
0.0
 20
134.0000000000002
 30
0.0
  0
POINT
  5
2182
  8
DEFPOINTS
 62
     0
 10
33.00000000000011
 20
126.5000000000002
 30
0.0
  0
POINT
  5
2183
  8
DEFPOINTS
 62
     0
 10
33.00000000000011
 20
143.4290097874413
 30
0.0
  0
ENDBLK
  5
2179
  8
0
  0
BLOCK
  8
0
  2
*D10
 70
     1
 10
0.0
 20
0.0
 30
0.0
  3
*D10
  1

  0
LINE
  5
2188
  8
COTAS
 62
     0
 10
33.00000000000011
 20
132.7500000000002
 30
0.0
 11
33.00000000000011
 21
145.2290097874413
 31
0.0
  0
LINE
  5
2189
  8
COTAS
 62
     0
 10
62.00000000000033
 20
127.7500000000012
 30
0.0
 11
62.00000000000033
 21
145.2290097874413
 31
0.0
  0
LINE
  5
218A
  8
COTAS
 62
     0
 10
34.8000000000001
 20
143.4290097874413
 30
0.0
 11
44.05000000000022
 21
143.4290097874413
 31
0.0
  0
LINE
  5
218B
  8
COTAS
 62
     0
 10
60.20000000000034
 20
143.4290097874413
 30
0.0
 11
50.95000000000022
 21
143.4290097874413
 31
0.0
  0
SOLID
  5
218C
  8
COTAS
 62
     0
 10
34.8000000000001
 20
143.7290097874413
 30
0.0
 11
34.8000000000001
 21
143.1290097874413
 31
0.0
 12
33.00000000000011
 22
143.4290097874413
 32
0.0
 13
33.00000000000011
 23
143.4290097874413
 33
0.0
  0
SOLID
  5
218D
  8
COTAS
 62
     0
 10
60.20000000000034
 20
143.1290097874413
 30
0.0
 11
60.20000000000034
 21
143.7290097874413
 31
0.0
 12
62.00000000000033
 22
143.4290097874413
 32
0.0
 13
62.00000000000033
 23
143.4290097874413
 33
0.0
  0
TEXT
  5
218E
  8
COTAS
  6
CONTINUOUS
 62
     0
 10
44.95000000000022
 20
142.5290097874413
 30
0.0
 40
1.8
  1
29.0
  0
POINT
  5
218F
  8
DEFPOINTS
 62
     0
 10
33.00000000000011
 20
126.5000000000002
 30
0.0
  0
POINT
  5
2190
  8
DEFPOINTS
 62
     0
 10
62.00000000000033
 20
121.5000000000012
 30
0.0
  0
POINT
  5
2191
  8
DEFPOINTS
 62
     0
 10
62.00000000000033
 20
143.4290097874413
 30
0.0
  0
ENDBLK
  5
2187
  8
0
  0
BLOCK
  8
0
  2
*D11
 70
     1
 10
0.0
 20
0.0
 30
0.0
  3
*D11
  1

  0
LINE
  5
2196
  8
COTAS
 62
     0
 10
62.00000000000033
 20
127.7500000000012
 30
0.0
 11
62.00000000000033
 21
145.2290097874413
 31
0.0
  0
LINE
  5
2197
  8
COTAS
 62
     0
 10
102.0
 20
127.7500000000002
 30
0.0
 11
102.0
 21
145.2290097874413
 31
0.0
  0
LINE
  5
2198
  8
COTAS
 62
     0
 10
63.80000000000033
 20
143.4290097874413
 30
0.0
 11
78.70000000000016
 21
143.4290097874413
 31
0.0
  0
LINE
  5
2199
  8
COTAS
 62
     0
 10
100.2
 20
143.4290097874413
 30
0.0
 11
85.30000000000018
 21
143.4290097874413
 31
0.0
  0
SOLID
  5
219A
  8
COTAS
 62
     0
 10
63.80000000000033
 20
143.7290097874413
 30
0.0
 11
63.80000000000033
 21
143.1290097874413
 31
0.0
 12
62.00000000000033
 22
143.4290097874413
 32
0.0
 13
62.00000000000033
 23
143.4290097874413
 33
0.0
  0
SOLID
  5
219B
  8
COTAS
 62
     0
 10
100.2
 20
143.1290097874413
 30
0.0
 11
100.2
 21
143.7290097874413
 31
0.0
 12
102.0
 22
143.4290097874413
 32
0.0
 13
102.0
 23
143.4290097874413
 33
0.0
  0
TEXT
  5
219C
  8
COTAS
  6
CONTINUOUS
 62
     0
 10
79.60000000000016
 20
142.5290097874413
 30
0.0
 40
1.8
  1
40.0
  0
POINT
  5
219D
  8
DEFPOINTS
 62
     0
 10
62.00000000000033
 20
121.5000000000012
 30
0.0
  0
POINT
  5
219E
  8
DEFPOINTS
 62
     0
 10
102.0
 20
121.5000000000002
 30
0.0
  0
POINT
  5
219F
  8
DEFPOINTS
 62
     0
 10
102.0
 20
143.4290097874413
 30
0.0
  0
ENDBLK
  5
2195
  8
0
  0
BLOCK
  8
0
  2
*D12
 70
     1
 10
0.0
 20
0.0
 30
0.0
  3
*D12
  1

  0
LINE
  5
21A6
  8
COTAS
 62
     0
 10
0.0
 20
140.2500000000002
 30
0.0
 11
0.0
 21
145.2290097874413
 31
0.0
  0
LINE
  5
21A7
  8
COTAS
 62
     0
 10
10.00000000000034
 20
96.24999999999943
 30
0.0
 11
10.00000000000034
 21
145.2290097874413
 31
0.0
  0
LINE
  5
21A8
  8
COTAS
 62
     0
 10
-1.8
 20
143.4290097874413
 30
0.0
 11
-3.6
 21
143.4290097874413
 31
0.0
  0
LINE
  5
21A9
  8
COTAS
 62
     0
 10
11.80000000000034
 20
143.4290097874413
 30
0.0
 11
13.60000000000034
 21
143.4290097874413
 31
0.0
  0
SOLID
  5
21AA
  8
COTAS
 62
     0
 10
-1.8
 20
143.1290097874413
 30
0.0
 11
-1.8
 21
143.7290097874413
 31
0.0
 12
0.0
 22
143.4290097874413
 32
0.0
 13
0.0
 23
143.4290097874413
 33
0.0
  0
SOLID
  5
21AB
  8
COTAS
 62
     0
 10
11.80000000000034
 20
143.7290097874413
 30
0.0
 11
11.80000000000034
 21
143.1290097874413
 31
0.0
 12
10.00000000000034
 22
143.4290097874413
 32
0.0
 13
10.00000000000034
 23
143.4290097874413
 33
0.0
  0
TEXT
  5
21AC
  8
COTAS
  6
CONTINUOUS
 62
     0
 10
2.90000000000017
 20
142.5290097874413
 30
0.0
 40
1.8
  1
10.0
  0
POINT
  5
21AD
  8
DEFPOINTS
 62
     0
 10
0.0
 20
134.0000000000002
 30
0.0
  0
POINT
  5
21AE
  8
DEFPOINTS
 62
     0
 10
10.00000000000034
 20
89.99999999999943
 30
0.0
  0
POINT
  5
21AF
  8
DEFPOINTS
 62
     0
 10
10.00000000000034
 20
143.4290097874413
 30
0.0
  0
ENDBLK
  5
21A5
  8
0
  0
BLOCK
  8
0
  2
*D13
 70
     1
 10
0.0
 20
0.0
 30
0.0
  3
*D13
  1

  0
LINE
  5
21B6
  8
COTAS
 62
     0
 10
10.00000000000034
 20
96.24999999999943
 30
0.0
 11
10.00000000000034
 21
145.2290097874413
 31
0.0
  0
LINE
  5
21B7
  8
COTAS
 62
     0
 10
33.00000000000011
 20
132.7500000000002
 30
0.0
 11
33.00000000000011
 21
145.2290097874413
 31
0.0
  0
LINE
  5
21B8
  8
COTAS
 62
     0
 10
11.80000000000034
 20
143.4290097874413
 30
0.0
 11
18.05000000000022
 21
143.4290097874413
 31
0.0
  0
LINE
  5
21B9
  8
COTAS
 62
     0
 10
31.20000000000011
 20
143.4290097874413
 30
0.0
 11
24.95000000000022
 21
143.4290097874413
 31
0.0
  0
SOLID
  5
21BA
  8
COTAS
 62
     0
 10
11.80000000000034
 20
143.7290097874413
 30
0.0
 11
11.80000000000034
 21
143.1290097874413
 31
0.0
 12
10.00000000000034
 22
143.4290097874413
 32
0.0
 13
10.00000000000034
 23
143.4290097874413
 33
0.0
  0
SOLID
  5
21BB
  8
COTAS
 62
     0
 10
31.20000000000011
 20
143.1290097874413
 30
0.0
 11
31.20000000000011
 21
143.7290097874413
 31
0.0
 12
33.00000000000011
 22
143.4290097874413
 32
0.0
 13
33.00000000000011
 23
143.4290097874413
 33
0.0
  0
TEXT
  5
21BC
  8
COTAS
  6
CONTINUOUS
 62
     0
 10
18.95000000000022
 20
142.5290097874413
 30
0.0
 40
1.8
  1
23.0
  0
POINT
  5
21BD
  8
DEFPOINTS
 62
     0
 10
10.00000000000034
 20
89.99999999999943
 30
0.0
  0
POINT
  5
21BE
  8
DEFPOINTS
 62
     0
 10
33.00000000000011
 20
126.5000000000002
 30
0.0
  0
POINT
  5
21BF
  8
DEFPOINTS
 62
     0
 10
33.00000000000011
 20
143.4290097874413
 30
0.0
  0
ENDBLK
  5
21B5
  8
0
  0
BLOCK
  8
0
  2
*D14
 70
     1
 10
0.0
 20
0.0
 30
0.0
  3
*D14
  1

  0
LINE
  5
21C8
  8
COTAS
 62
     0
 10
-6.25
 20
134.0000000000002
 30
0.0
 11
-12.03176697882451
 21
134.0000000000002
 31
0.0
  0
LINE
  5
21C9
  8
COTAS
 62
     0
 10
3.750000000000339
 20
89.99999999999943
 30
0.0
 11
-12.03176697882451
 21
89.99999999999943
 31
0.0
  0
LINE
  5
21CA
  8
COTAS
 62
     0
 10
-10.23176697882451
 20
132.2000000000002
 30
0.0
 11
-10.23176697882451
 21
113.7999999999998
 31
0.0
  0
LINE
  5
21CB
  8
COTAS
 62
     0
 10
-10.23176697882451
 20
91.79999999999943
 30
0.0
 11
-10.23176697882451
 21
110.1999999999998
 31
0.0
  0
SOLID
  5
21CC
  8
COTAS
 62
     0
 10
-9.931766978824506
 20
132.2000000000002
 30
0.0
 11
-10.53176697882451
 21
132.2000000000002
 31
0.0
 12
-10.23176697882451
 22
134.0000000000002
 32
0.0
 13
-10.23176697882451
 23
134.0000000000002
 33
0.0
  0
SOLID
  5
21CD
  8
COTAS
 62
     0
 10
-10.53176697882451
 20
91.79999999999943
 30
0.0
 11
-9.931766978824509
 21
91.79999999999943
 31
0.0
 12
-10.23176697882451
 22
89.99999999999943
 32
0.0
 13
-10.23176697882451
 23
89.99999999999943
 33
0.0
  0
TEXT
  5
21CE
  8
COTAS
  6
CONTINUOUS
 62
     0
 10
-12.78176697882451
 20
111.0999999999998
 30
0.0
 40
1.8
  1
44.0
  0
POINT
  5
21CF
  8
DEFPOINTS
 62
     0
 10
0.0
 20
134.0000000000002
 30
0.0
  0
POINT
  5
21D0
  8
DEFPOINTS
 62
     0
 10
10.00000000000034
 20
89.99999999999943
 30
0.0
  0
POINT
  5
21D1
  8
DEFPOINTS
 62
     0
 10
-10.23176697882451
 20
89.99999999999943
 30
0.0
  0
ENDBLK
  5
21C7
  8
0
  0
BLOCK
  8
0
  2
*D15
 70
     1
 10
0.0
 20
0.0
 30
0.0
  3
*D15
  1

  0
LINE
  5
21D6
  8
COTAS
 62
     0
 10
3.750000000000339
 20
89.99999999999943
 30
0.0
 11
-12.03176697882451
 21
89.99999999999943
 31
0.0
  0
LINE
  5
21D7
  8
COTAS
 62
     0
 10
3.750000000000339
 20
43.99999999999977
 30
0.0
 11
-12.03176697882451
 21
43.99999999999977
 31
0.0
  0
LINE
  5
21D8
  8
COTAS
 62
     0
 10
-10.23176697882451
 20
88.19999999999943
 30
0.0
 11
-10.23176697882451
 21
68.79999999999961
 31
0.0
  0
LINE
  5
21D9
  8
COTAS
 62
     0
 10
-10.23176697882451
 20
45.79999999999977
 30
0.0
 11
-10.23176697882451
 21
65.19999999999959
 31
0.0
  0
SOLID
  5
21DA
  8
COTAS
 62
     0
 10
-9.931766978824509
 20
88.19999999999943
 30
0.0
 11
-10.53176697882451
 21
88.19999999999943
 31
0.0
 12
-10.23176697882451
 22
89.99999999999943
 32
0.0
 13
-10.23176697882451
 23
89.99999999999943
 33
0.0
  0
SOLID
  5
21DB
  8
COTAS
 62
     0
 10
-10.53176697882451
 20
45.79999999999977
 30
0.0
 11
-9.931766978824513
 21
45.79999999999977
 31
0.0
 12
-10.23176697882451
 22
43.99999999999977
 32
0.0
 13
-10.23176697882451
 23
43.99999999999977
 33
0.0
  0
TEXT
  5
21DC
  8
COTAS
  6
CONTINUOUS
 62
     0
 10
-12.78176697882451
 20
66.09999999999961
 30
0.0
 40
1.8
  1
46.0
  0
POINT
  5
21DD
  8
DEFPOINTS
 62
     0
 10
10.00000000000034
 20
89.99999999999943
 30
0.0
  0
POINT
  5
21DE
  8
DEFPOINTS
 62
     0
 10
10.00000000000034
 20
43.99999999999977
 30
0.0
  0
POINT
  5
21DF
  8
DEFPOINTS
 62
     0
 10
-10.23176697882451
 20
43.99999999999977
 30
0.0
  0
ENDBLK
  5
21D5
  8
0
  0
BLOCK
  8
0
  2
*D16
 70
     1
 10
0.0
 20
0.0
 30
0.0
  3
*D16
  1

  0
LINE
  5
21E6
  8
COTAS
 62
     0
 10
26.75000000000011
 20
134.0000000000002
 30
0.0
 11
21.60750214613914
 21
134.0000000000002
 31
0.0
  0
LINE
  5
21E7
  8
COTAS
 62
     0
 10
26.75000000000011
 20
126.5000000000002
 30
0.0
 11
21.60750214613914
 21
126.5000000000002
 31
0.0
  0
LINE
  5
21E8
  8
COTAS
 62
     0
 10
23.40750214613914
 20
132.2000000000002
 30
0.0
 11
23.40750214613914
 21
128.3000000000002
 31
0.0
  0
SOLID
  5
21E9
  8
COTAS
 62
     0
 10
23.70750214613914
 20
132.2000000000002
 30
0.0
 11
23.10750214613914
 21
132.2000000000002
 31
0.0
 12
23.40750214613914
 22
134.0000000000002
 32
0.0
 13
23.40750214613914
 23
134.0000000000002
 33
0.0
  0
SOLID
  5
21EA
  8
COTAS
 62
     0
 10
23.10750214613914
 20
128.3000000000002
 30
0.0
 11
23.70750214613914
 21
128.3000000000002
 31
0.0
 12
23.40750214613914
 22
126.5000000000002
 32
0.0
 13
23.40750214613914
 23
126.5000000000002
 33
0.0
  0
TEXT
  5
21EB
  8
COTAS
  6
CONTINUOUS
 62
     0
 10
17.55750214613913
 20
129.3500000000002
 30
0.0
 40
1.8
  1
7.5
  0
POINT
  5
21EC
  8
DEFPOINTS
 62
     0
 10
33.00000000000011
 20
134.0000000000002
 30
0.0
  0
POINT
  5
21ED
  8
DEFPOINTS
 62
     0
 10
33.00000000000011
 20
126.5000000000002
 30
0.0
  0
POINT
  5
21EE
  8
DEFPOINTS
 62
     0
 10
23.40750214613914
 20
126.5000000000002
 30
0.0
  0
ENDBLK
  5
21E5
  8
0
  0
BLOCK
  8
0
  2
*D17
 70
     1
 10
0.0
 20
0.0
 30
0.0
  3
*D17
  1

  0
LINE
  5
21F3
  8
COTAS
 62
     0
 10
26.75000000000011
 20
126.5000000000002
 30
0.0
 11
21.60750214613914
 21
126.5000000000002
 31
0.0
  0
LINE
  5
21F4
  8
COTAS
 62
     0
 10
26.75000000000011
 20
81.49999999999989
 30
0.0
 11
21.60750214613913
 21
81.49999999999989
 31
0.0
  0
LINE
  5
21F5
  8
COTAS
 62
     0
 10
23.40750214613914
 20
124.7000000000002
 30
0.0
 11
23.40750214613914
 21
105.8000000000001
 31
0.0
  0
LINE
  5
21F6
  8
COTAS
 62
     0
 10
23.40750214613913
 20
83.29999999999988
 30
0.0
 11
23.40750214613913
 21
102.2
 31
0.0
  0
SOLID
  5
21F7
  8
COTAS
 62
     0
 10
23.70750214613914
 20
124.7000000000002
 30
0.0
 11
23.10750214613914
 21
124.7000000000002
 31
0.0
 12
23.40750214613914
 22
126.5000000000002
 32
0.0
 13
23.40750214613914
 23
126.5000000000002
 33
0.0
  0
SOLID
  5
21F8
  8
COTAS
 62
     0
 10
23.10750214613913
 20
83.29999999999988
 30
0.0
 11
23.70750214613913
 21
83.29999999999988
 31
0.0
 12
23.40750214613913
 22
81.49999999999989
 32
0.0
 13
23.40750214613913
 23
81.49999999999989
 33
0.0
  0
TEXT
  5
21F9
  8
COTAS
  6
CONTINUOUS
 62
     0
 10
20.85750214613914
 20
103.1000000000001
 30
0.0
 40
1.8
  1
45.0
  0
POINT
  5
21FA
  8
DEFPOINTS
 62
     0
 10
33.00000000000011
 20
126.5000000000002
 30
0.0
  0
POINT
  5
21FB
  8
DEFPOINTS
 62
     0
 10
33.00000000000011
 20
81.49999999999989
 30
0.0
  0
POINT
  5
21FC
  8
DEFPOINTS
 62
     0
 10
23.40750214613913
 20
81.49999999999989
 30
0.0
  0
ENDBLK
  5
21F2
  8
0
  0
BLOCK
  8
0
  2
*D18
 70
     1
 10
0.0
 20
0.0
 30
0.0
  3
*D18
  1

  0
LINE
  5
2201
  8
COTAS
 62
     0
 10
26.75000000000011
 20
81.49999999999989
 30
0.0
 11
21.60750214613913
 21
81.49999999999989
 31
0.0
  0
LINE
  5
2202
  8
COTAS
 62
     0
 10
26.75000000000011
 20
52.49999999999898
 30
0.0
 11
21.60750214613913
 21
52.49999999999898
 31
0.0
  0
LINE
  5
2203
  8
COTAS
 62
     0
 10
23.40750214613913
 20
79.69999999999989
 30
0.0
 11
23.40750214613913
 21
68.79999999999944
 31
0.0
  0
LINE
  5
2204
  8
COTAS
 62
     0
 10
23.40750214613913
 20
54.29999999999897
 30
0.0
 11
23.40750214613913
 21
65.19999999999942
 31
0.0
  0
SOLID
  5
2205
  8
COTAS
 62
     0
 10
23.70750214613913
 20
79.69999999999989
 30
0.0
 11
23.10750214613913
 21
79.69999999999989
 31
0.0
 12
23.40750214613913
 22
81.49999999999989
 32
0.0
 13
23.40750214613913
 23
81.49999999999989
 33
0.0
  0
SOLID
  5
2206
  8
COTAS
 62
     0
 10
23.10750214613913
 20
54.29999999999897
 30
0.0
 11
23.70750214613913
 21
54.29999999999897
 31
0.0
 12
23.40750214613913
 22
52.49999999999898
 32
0.0
 13
23.40750214613913
 23
52.49999999999898
 33
0.0
  0
TEXT
  5
2207
  8
COTAS
  6
CONTINUOUS
 62
     0
 10
20.85750214613913
 20
66.09999999999944
 30
0.0
 40
1.8
  1
29.0
  0
POINT
  5
2208
  8
DEFPOINTS
 62
     0
 10
33.00000000000011
 20
81.49999999999989
 30
0.0
  0
POINT
  5
2209
  8
DEFPOINTS
 62
     0
 10
33.00000000000011
 20
52.49999999999898
 30
0.0
  0
POINT
  5
220A
  8
DEFPOINTS
 62
     0
 10
23.40750214613913
 20
52.49999999999898
 30
0.0
  0
ENDBLK
  5
2200
  8
0
  0
BLOCK
  8
0
  2
*D19
 70
     1
 10
0.0
 20
0.0
 30
0.0
  3
*D19
  1

  0
LINE
  5
220F
  8
COTAS
 62
     0
 10
26.75000000000011
 20
52.49999999999898
 30
0.0
 11
21.60750214613913
 21
52.49999999999898
 31
0.0
  0
LINE
  5
2210
  8
COTAS
 62
     0
 10
26.75000000000011
 20
7.499999999999774
 30
0.0
 11
21.60750214613913
 21
7.499999999999774
 31
0.0
  0
LINE
  5
2211
  8
COTAS
 62
     0
 10
23.40750214613913
 20
50.69999999999898
 30
0.0
 11
23.40750214613913
 21
31.79999999999937
 31
0.0
  0
LINE
  5
2212
  8
COTAS
 62
     0
 10
23.40750214613913
 20
9.299999999999773
 30
0.0
 11
23.40750214613913
 21
28.19999999999937
 31
0.0
  0
SOLID
  5
2213
  8
COTAS
 62
     0
 10
23.70750214613913
 20
50.69999999999898
 30
0.0
 11
23.10750214613913
 21
50.69999999999898
 31
0.0
 12
23.40750214613913
 22
52.49999999999898
 32
0.0
 13
23.40750214613913
 23
52.49999999999898
 33
0.0
  0
SOLID
  5
2214
  8
COTAS
 62
     0
 10
23.10750214613913
 20
9.299999999999773
 30
0.0
 11
23.70750214613913
 21
9.299999999999773
 31
0.0
 12
23.40750214613913
 22
7.499999999999774
 32
0.0
 13
23.40750214613913
 23
7.499999999999774
 33
0.0
  0
TEXT
  5
2215
  8
COTAS
  6
CONTINUOUS
 62
     0
 10
20.85750214613913
 20
29.09999999999937
 30
0.0
 40
1.8
  1
45.0
  0
POINT
  5
2216
  8
DEFPOINTS
 62
     0
 10
33.00000000000011
 20
52.49999999999898
 30
0.0
  0
POINT
  5
2217
  8
DEFPOINTS
 62
     0
 10
33.00000000000011
 20
7.499999999999773
 30
0.0
  0
POINT
  5
2218
  8
DEFPOINTS
 62
     0
 10
23.40750214613913
 20
7.499999999999774
 30
0.0
  0
ENDBLK
  5
220E
  8
0
  0
BLOCK
  8
0
  2
*D20
 70
     1
 10
0.0
 20
0.0
 30
0.0
  3
*D20
  1

  0
LINE
  5
221F
  8
COTAS
 62
     0
 10
55.75000000000033
 20
134.0000000000002
 30
0.0
 11
47.36764582660157
 21
134.0000000000002
 31
0.0
  0
LINE
  5
2220
  8
COTAS
 62
     0
 10
55.75000000000033
 20
121.5000000000012
 30
0.0
 11
47.36764582660157
 21
121.5000000000012
 31
0.0
  0
LINE
  5
2221
  8
COTAS
 62
     0
 10
49.16764582660157
 20
132.2000000000002
 30
0.0
 11
49.16764582660157
 21
129.5500000000007
 31
0.0
  0
LINE
  5
2222
  8
COTAS
 62
     0
 10
49.16764582660157
 20
123.3000000000012
 30
0.0
 11
49.16764582660157
 21
125.9500000000007
 31
0.0
  0
SOLID
  5
2223
  8
COTAS
 62
     0
 10
49.46764582660157
 20
132.2000000000002
 30
0.0
 11
48.86764582660157
 21
132.2000000000002
 31
0.0
 12
49.16764582660157
 22
134.0000000000002
 32
0.0
 13
49.16764582660157
 23
134.0000000000002
 33
0.0
  0
SOLID
  5
2224
  8
COTAS
 62
     0
 10
48.86764582660157
 20
123.3000000000012
 30
0.0
 11
49.46764582660157
 21
123.3000000000012
 31
0.0
 12
49.16764582660157
 22
121.5000000000012
 32
0.0
 13
49.16764582660157
 23
121.5000000000012
 33
0.0
  0
TEXT
  5
2225
  8
COTAS
  6
CONTINUOUS
 62
     0
 10
46.76764582660157
 20
126.8500000000007
 30
0.0
 40
1.8
  1
12.5
  0
POINT
  5
2226
  8
DEFPOINTS
 62
     0
 10
62.00000000000033
 20
134.0000000000002
 30
0.0
  0
POINT
  5
2227
  8
DEFPOINTS
 62
     0
 10
62.00000000000033
 20
121.5000000000012
 30
0.0
  0
POINT
  5
2228
  8
DEFPOINTS
 62
     0
 10
49.16764582660157
 20
121.5000000000012
 30
0.0
  0
ENDBLK
  5
221E
  8
0
  0
BLOCK
  8
0
  2
*D21
 70
     1
 10
0.0
 20
0.0
 30
0.0
  3
*D21
  1

  0
LINE
  5
222D
  8
COTAS
 62
     0
 10
55.75000000000033
 20
121.5000000000012
 30
0.0
 11
47.36764582660157
 21
121.5000000000012
 31
0.0
  0
LINE
  5
222E
  8
COTAS
 62
     0
 10
55.75000000000011
 20
81.50000000000023
 30
0.0
 11
47.36764582660157
 21
81.50000000000023
 31
0.0
  0
LINE
  5
222F
  8
COTAS
 62
     0
 10
49.16764582660157
 20
119.7000000000012
 30
0.0
 11
49.16764582660157
 21
103.3000000000007
 31
0.0
  0
LINE
  5
2230
  8
COTAS
 62
     0
 10
49.16764582660157
 20
83.30000000000022
 30
0.0
 11
49.16764582660157
 21
99.70000000000068
 31
0.0
  0
SOLID
  5
2231
  8
COTAS
 62
     0
 10
49.46764582660157
 20
119.7000000000012
 30
0.0
 11
48.86764582660157
 21
119.7000000000012
 31
0.0
 12
49.16764582660157
 22
121.5000000000012
 32
0.0
 13
49.16764582660157
 23
121.5000000000012
 33
0.0
  0
SOLID
  5
2232
  8
COTAS
 62
     0
 10
48.86764582660157
 20
83.30000000000022
 30
0.0
 11
49.46764582660157
 21
83.30000000000022
 31
0.0
 12
49.16764582660157
 22
81.50000000000023
 32
0.0
 13
49.16764582660157
 23
81.50000000000023
 33
0.0
  0
TEXT
  5
2233
  8
COTAS
  6
CONTINUOUS
 62
     0
 10
46.76764582660157
 20
100.6000000000007
 30
0.0
 40
1.8
  1
40.0
  0
POINT
  5
2234
  8
DEFPOINTS
 62
     0
 10
62.00000000000033
 20
121.5000000000012
 30
0.0
  0
POINT
  5
2235
  8
DEFPOINTS
 62
     0
 10
62.00000000000011
 20
81.50000000000023
 30
0.0
  0
POINT
  5
2236
  8
DEFPOINTS
 62
     0
 10
49.16764582660157
 20
81.50000000000023
 30
0.0
  0
ENDBLK
  5
222C
  8
0
  0
BLOCK
  8
0
  2
*D22
 70
     1
 10
0.0
 20
0.0
 30
0.0
  3
*D22
  1

  0
LINE
  5
223B
  8
COTAS
 62
     0
 10
55.75000000000011
 20
81.50000000000023
 30
0.0
 11
47.36764582660157
 21
81.50000000000023
 31
0.0
  0
LINE
  5
223C
  8
COTAS
 62
     0
 10
55.75
 20
52.50000000000034
 30
0.0
 11
47.36764582660157
 21
52.50000000000034
 31
0.0
  0
LINE
  5
223D
  8
COTAS
 62
     0
 10
49.16764582660157
 20
79.70000000000023
 30
0.0
 11
49.16764582660157
 21
68.8000000000003
 31
0.0
  0
LINE
  5
223E
  8
COTAS
 62
     0
 10
49.16764582660157
 20
54.30000000000034
 30
0.0
 11
49.16764582660157
 21
65.20000000000027
 31
0.0
  0
SOLID
  5
223F
  8
COTAS
 62
     0
 10
49.46764582660157
 20
79.70000000000023
 30
0.0
 11
48.86764582660157
 21
79.70000000000023
 31
0.0
 12
49.16764582660157
 22
81.50000000000023
 32
0.0
 13
49.16764582660157
 23
81.50000000000023
 33
0.0
  0
SOLID
  5
2240
  8
COTAS
 62
     0
 10
48.86764582660157
 20
54.30000000000034
 30
0.0
 11
49.46764582660157
 21
54.30000000000034
 31
0.0
 12
49.16764582660157
 22
52.50000000000034
 32
0.0
 13
49.16764582660157
 23
52.50000000000034
 33
0.0
  0
TEXT
  5
2241
  8
COTAS
  6
CONTINUOUS
 62
     0
 10
46.61764582660157
 20
66.10000000000029
 30
0.0
 40
1.8
  1
29.0
  0
POINT
  5
2242
  8
DEFPOINTS
 62
     0
 10
62.00000000000011
 20
81.50000000000023
 30
0.0
  0
POINT
  5
2243
  8
DEFPOINTS
 62
     0
 10
62.0
 20
52.50000000000034
 30
0.0
  0
POINT
  5
2244
  8
DEFPOINTS
 62
     0
 10
49.16764582660157
 20
52.50000000000034
 30
0.0
  0
ENDBLK
  5
223A
  8
0
  0
BLOCK
  8
0
  2
*D23
 70
     1
 10
0.0
 20
0.0
 30
0.0
  3
*D23
  1

  0
LINE
  5
2249
  8
COTAS
 62
     0
 10
55.75
 20
52.50000000000034
 30
0.0
 11
47.36764582660157
 21
52.50000000000034
 31
0.0
  0
LINE
  5
224A
  8
COTAS
 62
     0
 10
55.75
 20
12.50000000000011
 30
0.0
 11
47.36764582660157
 21
12.50000000000011
 31
0.0
  0
LINE
  5
224B
  8
COTAS
 62
     0
 10
49.16764582660157
 20
50.70000000000034
 30
0.0
 11
49.16764582660157
 21
34.30000000000022
 31
0.0
  0
LINE
  5
224C
  8
COTAS
 62
     0
 10
49.16764582660157
 20
14.30000000000011
 30
0.0
 11
49.16764582660157
 21
30.70000000000022
 31
0.0
  0
SOLID
  5
224D
  8
COTAS
 62
     0
 10
49.46764582660157
 20
50.70000000000034
 30
0.0
 11
48.86764582660157
 21
50.70000000000034
 31
0.0
 12
49.16764582660157
 22
52.50000000000034
 32
0.0
 13
49.16764582660157
 23
52.50000000000034
 33
0.0
  0
SOLID
  5
224E
  8
COTAS
 62
     0
 10
48.86764582660157
 20
14.30000000000011
 30
0.0
 11
49.46764582660157
 21
14.30000000000011
 31
0.0
 12
49.16764582660157
 22
12.50000000000011
 32
0.0
 13
49.16764582660157
 23
12.50000000000011
 33
0.0
  0
TEXT
  5
224F
  8
COTAS
  6
CONTINUOUS
 62
     0
 10
46.76764582660157
 20
31.60000000000023
 30
0.0
 40
1.8
  1
40.0
  0
POINT
  5
2250
  8
DEFPOINTS
 62
     0
 10
62.0
 20
52.50000000000034
 30
0.0
  0
POINT
  5
2251
  8
DEFPOINTS
 62
     0
 10
62.0
 20
12.50000000000011
 30
0.0
  0
POINT
  5
2252
  8
DEFPOINTS
 62
     0
 10
49.16764582660157
 20
12.50000000000011
 30
0.0
  0
ENDBLK
  5
2248
  8
0
  0
BLOCK
  8
0
  2
*D24
 70
     1
 10
0.0
 20
0.0
 30
0.0
  3
*D24
  1

  0
LINE
  5
2259
  8
COTAS
 62
     0
 10
137.0
 20
-6.25
 30
0.0
 11
137.0
 21
-14.17849827138373
 31
0.0
  0
LINE
  5
225A
  8
COTAS
 62
     0
 10
127.0
 20
0.25
 30
0.0
 11
127.0
 21
-14.17849827138373
 31
0.0
  0
LINE
  5
225B
  8
COTAS
 62
     0
 10
138.8
 20
-12.37849827138373
 30
0.0
 11
140.6
 21
-12.37849827138373
 31
0.0
  0
LINE
  5
225C
  8
COTAS
 62
     0
 10
125.2
 20
-12.37849827138373
 30
0.0
 11
123.4
 21
-12.37849827138373
 31
0.0
  0
SOLID
  5
225D
  8
COTAS
 62
     0
 10
138.8
 20
-12.07849827138373
 30
0.0
 11
138.8
 21
-12.67849827138373
 31
0.0
 12
137.0
 22
-12.37849827138373
 32
0.0
 13
137.0
 23
-12.37849827138373
 33
0.0
  0
SOLID
  5
225E
  8
COTAS
 62
     0
 10
125.2
 20
-12.67849827138373
 30
0.0
 11
125.2
 21
-12.07849827138373
 31
0.0
 12
127.0
 22
-12.37849827138373
 32
0.0
 13
127.0
 23
-12.37849827138373
 33
0.0
  0
TEXT
  5
225F
  8
COTAS
  6
CONTINUOUS
 62
     0
 10
129.9
 20
-13.27849827138373
 30
0.0
 40
1.8
  1
10.0
  0
POINT
  5
2260
  8
DEFPOINTS
 62
     0
 10
137.0
 20
0.0
 30
0.0
  0
POINT
  5
2261
  8
DEFPOINTS
 62
     0
 10
127.0
 20
6.5
 30
0.0
  0
POINT
  5
2262
  8
DEFPOINTS
 62
     0
 10
127.0
 20
-12.37849827138373
 30
0.0
  0
ENDBLK
  5
2258
  8
0
  0
BLOCK
  8
0
  2
*D25
 70
     1
 10
0.0
 20
0.0
 30
0.0
  3
*D25
  1

  0
LINE
  5
2269
  8
COTAS
 62
     0
 10
186.0
 20
-6.25
 30
0.0
 11
186.0
 21
-14.17849827138373
 31
0.0
  0
LINE
  5
226A
  8
COTAS
 62
     0
 10
196.0
 20
0.25
 30
0.0
 11
196.0
 21
-14.17849827138373
 31
0.0
  0
LINE
  5
226B
  8
COTAS
 62
     0
 10
184.2
 20
-12.37849827138373
 30
0.0
 11
182.4
 21
-12.37849827138373
 31
0.0
  0
LINE
  5
226C
  8
COTAS
 62
     0
 10
197.8
 20
-12.37849827138373
 30
0.0
 11
199.6
 21
-12.37849827138373
 31
0.0
  0
SOLID
  5
226D
  8
COTAS
 62
     0
 10
184.2
 20
-12.67849827138373
 30
0.0
 11
184.2
 21
-12.07849827138373
 31
0.0
 12
186.0
 22
-12.37849827138373
 32
0.0
 13
186.0
 23
-12.37849827138373
 33
0.0
  0
SOLID
  5
226E
  8
COTAS
 62
     0
 10
197.8
 20
-12.07849827138373
 30
0.0
 11
197.8
 21
-12.67849827138373
 31
0.0
 12
196.0
 22
-12.37849827138373
 32
0.0
 13
196.0
 23
-12.37849827138373
 33
0.0
  0
TEXT
  5
226F
  8
COTAS
  6
CONTINUOUS
 62
     0
 10
188.9
 20
-13.27849827138373
 30
0.0
 40
1.8
  1
10.0
  0
POINT
  5
2270
  8
DEFPOINTS
 62
     0
 10
186.0
 20
0.0
 30
0.0
  0
POINT
  5
2271
  8
DEFPOINTS
 62
     0
 10
196.0
 20
6.5
 30
0.0
  0
POINT
  5
2272
  8
DEFPOINTS
 62
     0
 10
196.0
 20
-12.37849827138373
 30
0.0
  0
ENDBLK
  5
2268
  8
0
  0
BLOCK
  8
0
  2
*D26
 70
     1
 10
0.0
 20
0.0
 30
0.0
  3
*D26
  1

  0
LINE
  5
2279
  8
COTAS
 62
     0
 10
127.0
 20
0.25
 30
0.0
 11
127.0
 21
-14.17849827138373
 31
0.0
  0
LINE
  5
227A
  8
COTAS
 62
     0
 10
0.0
 20
-6.25
 30
0.0
 11
0.0
 21
-14.17849827138373
 31
0.0
  0
LINE
  5
227B
  8
COTAS
 62
     0
 10
125.2
 20
-12.37849827138373
 30
0.0
 11
67.55000000000001
 21
-12.37849827138373
 31
0.0
  0
LINE
  5
227C
  8
COTAS
 62
     0
 10
1.8
 20
-12.37849827138373
 30
0.0
 11
59.44999999999999
 21
-12.37849827138373
 31
0.0
  0
SOLID
  5
227D
  8
COTAS
 62
     0
 10
125.2
 20
-12.67849827138373
 30
0.0
 11
125.2
 21
-12.07849827138373
 31
0.0
 12
127.0
 22
-12.37849827138373
 32
0.0
 13
127.0
 23
-12.37849827138373
 33
0.0
  0
SOLID
  5
227E
  8
COTAS
 62
     0
 10
1.8
 20
-12.07849827138373
 30
0.0
 11
1.8
 21
-12.67849827138373
 31
0.0
 12
0.0
 22
-12.37849827138373
 32
0.0
 13
0.0
 23
-12.37849827138373
 33
0.0
  0
TEXT
  5
227F
  8
COTAS
  6
CONTINUOUS
 62
     0
 10
60.35
 20
-13.27849827138373
 30
0.0
 40
1.8
  1
127.0
  0
POINT
  5
2280
  8
DEFPOINTS
 62
     0
 10
127.0
 20
6.5
 30
0.0
  0
POINT
  5
2281
  8
DEFPOINTS
 62
     0
 10
0.0
 20
0.0
 30
0.0
  0
POINT
  5
2282
  8
DEFPOINTS
 62
     0
 10
0.0
 20
-12.37849827138373
 30
0.0
  0
ENDBLK
  5
2278
  8
0
  0
BLOCK
  8
0
  2
*D27
 70
     1
 10
0.0
 20
0.0
 30
0.0
  3
*D27
  1

  0
LINE
  5
2289
  8
COTAS
 62
     0
 10
137.0
 20
-6.25
 30
0.0
 11
137.0
 21
-14.17849827138373
 31
0.0
  0
LINE
  5
228A
  8
COTAS
 62
     0
 10
186.0
 20
-6.25
 30
0.0
 11
186.0
 21
-14.17849827138373
 31
0.0
  0
LINE
  5
228B
  8
COTAS
 62
     0
 10
138.8
 20
-12.37849827138373
 30
0.0
 11
158.05
 21
-12.37849827138373
 31
0.0
  0
LINE
  5
228C
  8
COTAS
 62
     0
 10
184.2
 20
-12.37849827138373
 30
0.0
 11
164.95
 21
-12.37849827138373
 31
0.0
  0
SOLID
  5
228D
  8
COTAS
 62
     0
 10
138.8
 20
-12.07849827138373
 30
0.0
 11
138.8
 21
-12.67849827138373
 31
0.0
 12
137.0
 22
-12.37849827138373
 32
0.0
 13
137.0
 23
-12.37849827138373
 33
0.0
  0
SOLID
  5
228E
  8
COTAS
 62
     0
 10
184.2
 20
-12.67849827138373
 30
0.0
 11
184.2
 21
-12.07849827138373
 31
0.0
 12
186.0
 22
-12.37849827138373
 32
0.0
 13
186.0
 23
-12.37849827138373
 33
0.0
  0
TEXT
  5
228F
  8
COTAS
  6
CONTINUOUS
 62
     0
 10
158.95
 20
-13.27849827138373
 30
0.0
 40
1.8
  1
49.0
  0
POINT
  5
2290
  8
DEFPOINTS
 62
     0
 10
137.0
 20
0.0
 30
0.0
  0
POINT
  5
2291
  8
DEFPOINTS
 62
     0
 10
186.0
 20
0.0
 30
0.0
  0
POINT
  5
2292
  8
DEFPOINTS
 62
     0
 10
186.0
 20
-12.37849827138373
 30
0.0
  0
ENDBLK
  5
2288
  8
0
  0
BLOCK
  8
0
  2
*D28
 70
     1
 10
0.0
 20
0.0
 30
0.0
  3
*D28
  1

  0
LINE
  5
2299
  8
COTAS
 62
     0
 10
143.25
 20
-0.0000000000000006
 30
0.0
 11
147.8480377941266
 21
-0.0000000000000011
 31
0.0
  0
LINE
  5
229A
  8
COTAS
 62
     0
 10
133.25
 20
6.5
 30
0.0
 11
147.8480377941266
 21
6.499999999999999
 31
0.0
  0
LINE
  5
229B
  8
COTAS
 62
     0
 10
146.0480377941266
 20
1.799999999999999
 30
0.0
 11
146.0480377941266
 21
4.699999999999999
 31
0.0
  0
SOLID
  5
229C
  8
COTAS
 62
     0
 10
145.7480377941266
 20
1.799999999999999
 30
0.0
 11
146.3480377941266
 21
1.799999999999999
 31
0.0
 12
146.0480377941266
 22
-0.0000000000000009
 32
0.0
 13
146.0480377941266
 23
-0.0000000000000009
 33
0.0
  0
SOLID
  5
229D
  8
COTAS
 62
     0
 10
146.3480377941266
 20
4.699999999999999
 30
0.0
 11
145.7480377941266
 21
4.699999999999999
 31
0.0
 12
146.0480377941266
 22
6.499999999999999
 32
0.0
 13
146.0480377941266
 23
6.499999999999999
 33
0.0
  0
TEXT
  5
229E
  8
COTAS
  6
CONTINUOUS
 62
     0
 10
150.0980377941266
 20
2.349999999999999
 30
0.0
 40
1.8
  1
6.5
  0
POINT
  5
229F
  8
DEFPOINTS
 62
     0
 10
137.0
 20
0.0
 30
0.0
  0
POINT
  5
22A0
  8
DEFPOINTS
 62
     0
 10
127.0
 20
6.5
 30
0.0
  0
POINT
  5
22A1
  8
DEFPOINTS
 62
     0
 10
146.0480377941266
 20
6.499999999999999
 30
0.0
  0
ENDBLK
  5
2298
  8
0
  0
BLOCK
  8
0
  2
*D29
 70
     1
 10
0.0
 20
0.0
 30
0.0
  3
*D29
  1

  0
LINE
  5
22A8
  8
COTAS
 62
     0
 10
179.75
 20
0.0000000000000006
 30
0.0
 11
175.4272530130722
 21
0.0000000000000011
 31
0.0
  0
LINE
  5
22A9
  8
COTAS
 62
     0
 10
189.75
 20
6.5
 30
0.0
 11
175.4272530130722
 21
6.500000000000001
 31
0.0
  0
LINE
  5
22AA
  8
COTAS
 62
     0
 10
177.2272530130722
 20
1.800000000000001
 30
0.0
 11
177.2272530130722
 21
4.700000000000001
 31
0.0
  0
SOLID
  5
22AB
  8
COTAS
 62
     0
 10
176.9272530130722
 20
1.800000000000001
 30
0.0
 11
177.5272530130723
 21
1.800000000000001
 31
0.0
 12
177.2272530130722
 22
0.0000000000000009
 32
0.0
 13
177.2272530130722
 23
0.0000000000000009
 33
0.0
  0
SOLID
  5
22AC
  8
COTAS
 62
     0
 10
177.5272530130723
 20
4.700000000000001
 30
0.0
 11
176.9272530130722
 21
4.700000000000001
 31
0.0
 12
177.2272530130722
 22
6.500000000000001
 32
0.0
 13
177.2272530130722
 23
6.500000000000001
 33
0.0
  0
TEXT
  5
22AD
  8
COTAS
  6
CONTINUOUS
 62
     0
 10
171.3772530130722
 20
2.350000000000001
 30
0.0
 40
1.8
  1
6.5
  0
POINT
  5
22AE
  8
DEFPOINTS
 62
     0
 10
186.0
 20
0.0
 30
0.0
  0
POINT
  5
22AF
  8
DEFPOINTS
 62
     0
 10
196.0
 20
6.5
 30
0.0
  0
POINT
  5
22B0
  8
DEFPOINTS
 62
     0
 10
177.2272530130722
 20
6.500000000000001
 30
0.0
  0
ENDBLK
  5
22A7
  8
0
  0
BLOCK
  8
0
  2
*D30
 70
     1
 10
0.0
 20
0.0
 30
0.0
  3
*D30
  1

  0
LINE
  5
22B7
  8
COTAS
 62
     0
 10
179.75
 20
0.0000000000000005
 30
0.0
 11
163.3008472950535
 21
0.0000000000000019
 31
0.0
  0
LINE
  5
22B8
  8
COTAS
 62
     0
 10
179.75
 20
15.30000000000018
 30
0.0
 11
163.3008472950535
 21
15.30000000000018
 31
0.0
  0
LINE
  5
22B9
  8
COTAS
 62
     0
 10
165.1008472950535
 20
1.800000000000002
 30
0.0
 11
165.1008472950535
 21
5.850000000000092
 31
0.0
  0
LINE
  5
22BA
  8
COTAS
 62
     0
 10
165.1008472950535
 20
13.50000000000018
 30
0.0
 11
165.1008472950535
 21
9.450000000000092
 31
0.0
  0
SOLID
  5
22BB
  8
COTAS
 62
     0
 10
164.8008472950535
 20
1.800000000000002
 30
0.0
 11
165.4008472950535
 21
1.800000000000002
 31
0.0
 12
165.1008472950535
 22
0.0000000000000018
 32
0.0
 13
165.1008472950535
 23
0.0000000000000018
 33
0.0
  0
SOLID
  5
22BC
  8
COTAS
 62
     0
 10
165.4008472950535
 20
13.50000000000018
 30
0.0
 11
164.8008472950535
 21
13.50000000000018
 31
0.0
 12
165.1008472950535
 22
15.30000000000018
 32
0.0
 13
165.1008472950535
 23
15.30000000000018
 33
0.0
  0
TEXT
  5
22BD
  8
COTAS
  6
CONTINUOUS
 62
     0
 10
162.8508472950535
 20
6.750000000000091
 30
0.0
 40
1.8
  1
15.0
  0
POINT
  5
22BE
  8
DEFPOINTS
 62
     0
 10
186.0
 20
0.0
 30
0.0
  0
POINT
  5
22BF
  8
DEFPOINTS
 62
     0
 10
186.0
 20
15.30000000000018
 30
0.0
  0
POINT
  5
22C0
  8
DEFPOINTS
 62
     0
 10
165.1008472950535
 20
15.30000000000018
 30
0.0
  0
ENDBLK
  5
22B6
  8
0
  0
BLOCK
  8
0
  2
*D31
 70
     1
 10
0.0
 20
0.0
 30
0.0
  3
*D31
  1

  0
LINE
  5
230B
  8
COTAS
 62
     0
 10
107.344873472523
 20
123.4804866984472
 30
0.0
 11
94.96727174668051
 21
118.8940964494142
 31
0.0
  0
TEXT
  5
230C
  8
COTAS
  6
CONTINUOUS
 62
     0
 10
108.8774712903769
 20
125.281852757152
 30
0.0
 40
1.8
  1
ø15.0
  0
SOLID
  5
230D
  8
COTAS
 62
     0
 10
96.55089038545371
 20
119.8008224316878
 30
0.0
 11
96.75936266950067
 21
119.2382041714222
 31
0.0
 12
94.96727174668051
 22
118.8940964494142
 32
0.0
 13
94.96727174668051
 23
118.8940964494142
 33
0.0
  0
SOLID
  5
230E
  8
COTAS
 62
     0
 10
107.4491096145465
 20
123.1991775683144
 30
0.0
 11
107.2406373304996
 21
123.7617958285799
 31
0.0
 12
109.0327282533197
 22
124.105903550588
 32
0.0
 13
109.0327282533197
 23
124.105903550588
 33
0.0
  0
POINT
  5
230F
  8
DEFPOINTS
 62
     0
 10
109.0327282533197
 20
124.105903550588
 30
0.0
  0
POINT
  5
2310
  8
DEFPOINTS
 62
     0
 10
94.96727174668051
 20
118.8940964494142
 30
0.0
  0
ENDBLK
  5
230A
  8
0
  0
BLOCK
  8
0
  2
*D32
 70
     1
 10
0.0
 20
0.0
 30
0.0
  3
*D32
  1

  0
LINE
  5
2314
  8
COTAS
 62
     0
 10
102.3924378436085
 20
122.6340161105136
 30
0.0
 11
101.0189053909787
 21
118.6649597237168
 31
0.0
  0
TEXT
  5
2315
  8
COTAS
  6
CONTINUOUS
 62
     0
 10
101.2672097798309
 20
125.5027566542968
 30
0.0
 40
1.8
  1
ø6.0
  0
SOLID
  5
2316
  8
COTAS
 62
     0
 10
101.3240581287631
 20
120.464093350389
 30
0.0
 11
101.8910661840198
 21
120.2678744285847
 31
0.0
 12
101.0189053909787
 22
118.6649597237168
 32
0.0
 13
101.0189053909787
 23
118.6649597237168
 33
0.0
  0
SOLID
  5
2317
  8
COTAS
 62
     0
 10
102.6759418712369
 20
122.5359066496114
 30
0.0
 11
102.1089338159802
 21
122.7321255714157
 31
0.0
 12
102.9810946090213
 22
124.3350402762836
 32
0.0
 13
102.9810946090213
 23
124.3350402762836
 33
0.0
  0
POINT
  5
2318
  8
DEFPOINTS
 62
     0
 10
102.9810946090213
 20
124.3350402762836
 30
0.0
  0
POINT
  5
2319
  8
DEFPOINTS
 62
     0
 10
101.0189053909787
 20
118.6649597237168
 30
0.0
  0
ENDBLK
  5
2313
  8
0
  0
BLOCK
  8
0
  2
*D33
 70
     1
 10
0.0
 20
0.0
 30
0.0
  3
*D33
  1

  0
LINE
  5
2323
  8
COTAS
 62
     0
 10
227.3448734725232
 20
123.4804866984472
 30
0.0
 11
214.9672717466807
 21
118.8940964494142
 31
0.0
  0
TEXT
  5
2324
  8
COTAS
  6
CONTINUOUS
 62
     0
 10
228.8774712903771
 20
125.281852757152
 30
0.0
 40
1.8
  1
ø15.0
  0
SOLID
  5
2325
  8
COTAS
 62
     0
 10
216.5508903854539
 20
119.8008224316878
 30
0.0
 11
216.7593626695009
 21
119.2382041714222
 31
0.0
 12
214.9672717466807
 22
118.8940964494142
 32
0.0
 13
214.9672717466807
 23
118.8940964494142
 33
0.0
  0
SOLID
  5
2326
  8
COTAS
 62
     0
 10
227.4491096145467
 20
123.1991775683144
 30
0.0
 11
227.2406373304998
 21
123.7617958285799
 31
0.0
 12
229.0327282533199
 22
124.105903550588
 32
0.0
 13
229.0327282533199
 23
124.105903550588
 33
0.0
  0
POINT
  5
2327
  8
DEFPOINTS
 62
     0
 10
229.0327282533199
 20
124.105903550588
 30
0.0
  0
POINT
  5
2328
  8
DEFPOINTS
 62
     0
 10
214.9672717466807
 20
118.8940964494142
 30
0.0
  0
ENDBLK
  5
2322
  8
0
  0
BLOCK
  8
0
  2
*D34
 70
     1
 10
0.0
 20
0.0
 30
0.0
  3
*D34
  1

  0
LINE
  5
232C
  8
COTAS
 62
     0
 10
222.3924378436087
 20
122.6340161105136
 30
0.0
 11
221.0189053909789
 21
118.6649597237168
 31
0.0
  0
TEXT
  5
232D
  8
COTAS
  6
CONTINUOUS
 62
     0
 10
221.267209779831
 20
125.5027566542968
 30
0.0
 40
1.8
  1
ø6.0
  0
SOLID
  5
232E
  8
COTAS
 62
     0
 10
221.3240581287633
 20
120.464093350389
 30
0.0
 11
221.89106618402
 21
120.2678744285847
 31
0.0
 12
221.0189053909789
 22
118.6649597237168
 32
0.0
 13
221.0189053909789
 23
118.6649597237168
 33
0.0
  0
SOLID
  5
232F
  8
COTAS
 62
     0
 10
222.6759418712371
 20
122.5359066496114
 30
0.0
 11
222.1089338159804
 21
122.7321255714157
 31
0.0
 12
222.9810946090215
 22
124.3350402762836
 32
0.0
 13
222.9810946090215
 23
124.3350402762836
 33
0.0
  0
POINT
  5
2330
  8
DEFPOINTS
 62
     0
 10
222.9810946090215
 20
124.3350402762836
 30
0.0
  0
POINT
  5
2331
  8
DEFPOINTS
 62
     0
 10
221.0189053909789
 20
118.6649597237168
 30
0.0
  0
ENDBLK
  5
232B
  8
0
  0
BLOCK
  8
0
  2
*D35
 70
     1
 10
0.0
 20
0.0
 30
0.0
  3
*D35
  1

  0
LINE
  5
233B
  8
COTAS
 62
     0
 10
267.3448734725232
 20
123.4804866984472
 30
0.0
 11
254.9672717466806
 21
118.8940964494142
 31
0.0
  0
TEXT
  5
233C
  8
COTAS
  6
CONTINUOUS
 62
     0
 10
268.8774712903771
 20
125.281852757152
 30
0.0
 40
1.8
  1
ø15.0
  0
SOLID
  5
233D
  8
COTAS
 62
     0
 10
256.5508903854538
 20
119.8008224316878
 30
0.0
 11
256.7593626695008
 21
119.2382041714222
 31
0.0
 12
254.9672717466806
 22
118.8940964494142
 32
0.0
 13
254.9672717466806
 23
118.8940964494142
 33
0.0
  0
SOLID
  5
233E
  8
COTAS
 62
     0
 10
267.4491096145467
 20
123.1991775683144
 30
0.0
 11
267.2406373304997
 21
123.7617958285799
 31
0.0
 12
269.0327282533199
 22
124.105903550588
 32
0.0
 13
269.0327282533199
 23
124.105903550588
 33
0.0
  0
POINT
  5
233F
  8
DEFPOINTS
 62
     0
 10
269.0327282533199
 20
124.105903550588
 30
0.0
  0
POINT
  5
2340
  8
DEFPOINTS
 62
     0
 10
254.9672717466806
 20
118.8940964494142
 30
0.0
  0
ENDBLK
  5
233A
  8
0
  0
BLOCK
  8
0
  2
*D36
 70
     1
 10
0.0
 20
0.0
 30
0.0
  3
*D36
  1

  0
LINE
  5
2344
  8
COTAS
 62
     0
 10
262.3924378436087
 20
122.6340161105136
 30
0.0
 11
261.0189053909788
 21
118.6649597237168
 31
0.0
  0
TEXT
  5
2345
  8
COTAS
  6
CONTINUOUS
 62
     0
 10
261.267209779831
 20
125.5027566542968
 30
0.0
 40
1.8
  1
ø6.0
  0
SOLID
  5
2346
  8
COTAS
 62
     0
 10
261.3240581287632
 20
120.464093350389
 30
0.0
 11
261.8910661840199
 21
120.2678744285847
 31
0.0
 12
261.0189053909788
 22
118.6649597237168
 32
0.0
 13
261.0189053909788
 23
118.6649597237168
 33
0.0
  0
SOLID
  5
2347
  8
COTAS
 62
     0
 10
262.675941871237
 20
122.5359066496114
 30
0.0
 11
262.1089338159803
 21
122.7321255714157
 31
0.0
 12
262.9810946090215
 22
124.3350402762836
 32
0.0
 13
262.9810946090215
 23
124.3350402762836
 33
0.0
  0
POINT
  5
2348
  8
DEFPOINTS
 62
     0
 10
262.9810946090215
 20
124.3350402762836
 30
0.0
  0
POINT
  5
2349
  8
DEFPOINTS
 62
     0
 10
261.0189053909788
 20
118.6649597237168
 30
0.0
  0
ENDBLK
  5
2343
  8
0
  0
BLOCK
  8
0
  2
*D37
 70
     1
 10
0.0
 20
0.0
 30
0.0
  3
*D37
  1

  0
LINE
  5
2350
  8
COTAS
 62
     0
 10
210.8274509046488
 20
90.86909435643969
 30
0.0
 11
207.9313727383788
 21
87.82726410889882
 31
0.0
  0
TEXT
  5
2351
  8
COTAS
  6
CONTINUOUS
 62
     0
 10
212.9866965664739
 20
93.76257582501547
 30
0.0
 40
1.8
  1
ø6.0
  0
SOLID
  5
2352
  8
COTAS
 62
     0
 10
208.9552755062416
 20
89.33776836972132
 30
0.0
 11
209.3898226844617
 21
88.92404291739703
 31
0.0
 12
207.9313727383788
 22
87.82726410889882
 32
0.0
 13
207.9313727383788
 23
87.82726410889882
 33
0.0
  0
SOLID
  5
2353
  8
COTAS
 62
     0
 10
211.0447244937588
 20
90.66223163027755
 30
0.0
 11
210.6101773155387
 21
91.07595708260183
 31
0.0
 12
212.0686272616216
 22
92.17273589110005
 32
0.0
 13
212.0686272616216
 23
92.17273589110005
 33
0.0
  0
POINT
  5
2354
  8
DEFPOINTS
 62
     0
 10
212.0686272616216
 20
92.17273589110005
 30
0.0
  0
POINT
  5
2355
  8
DEFPOINTS
 62
     0
 10
207.9313727383788
 20
87.82726410889882
 30
0.0
  0
ENDBLK
  5
234F
  8
0
  0
BLOCK
  8
0
  2
*D38
 70
     1
 10
0.0
 20
0.0
 30
0.0
  3
*D38
  1

  0
LINE
  5
235C
  8
COTAS
 62
     0
 10
323.7397654318205
 20
125.5551470453647
 30
0.0
 11
321.1505864204488
 21
128.862132386589
 31
0.0
  0
TEXT
  5
235D
  8
COTAS
  6
CONTINUOUS
 62
     0
 10
326.0464634640019
 20
123.8182157207558
 30
0.0
 40
1.8
  1
ø6.0
  0
SOLID
  5
235E
  8
COTAS
 62
     0
 10
322.4964478068384
 20
127.6297943125908
 30
0.0
 11
322.0240213295206
 21
127.2599115966806
 31
0.0
 12
321.1505864204488
 22
128.862132386589
 32
0.0
 13
321.1505864204488
 23
128.862132386589
 33
0.0
  0
SOLID
  5
235F
  8
COTAS
 62
     0
 10
323.5035521931616
 20
125.3702056874096
 30
0.0
 11
323.9759786704794
 21
125.7400884033198
 31
0.0
 12
324.8494135795512
 22
124.1378676134114
 32
0.0
 13
324.8494135795512
 23
124.1378676134114
 33
0.0
  0
POINT
  5
2360
  8
DEFPOINTS
 62
     0
 10
324.8494135795512
 20
124.1378676134114
 30
0.0
  0
POINT
  5
2361
  8
DEFPOINTS
 62
     0
 10
321.1505864204488
 20
128.862132386589
 30
0.0
  0
ENDBLK
  5
235B
  8
0
  0
BLOCK
  8
0
  2
*D39
 70
     1
 10
0.0
 20
0.0
 30
0.0
  3
*D39
  1

  0
LINE
  5
2368
  8
COTAS
 62
     0
 10
371.8177130769144
 20
90.87826267360221
 30
0.0
 11
368.9557173077158
 21
87.8043433159923
 31
0.0
  0
TEXT
  5
2369
  8
COTAS
  6
CONTINUOUS
 62
     0
 10
371.8321578846157
 20
94.04346965581679
 30
0.0
 40
1.8
  1
ø6.0
  0
SOLID
  5
236A
  8
COTAS
 62
     0
 10
369.9627212546859
 20
89.32616559562501
 30
0.0
 11
370.4018525914873
 21
88.91730905716807
 31
0.0
 12
368.9557173077158
 22
87.8043433159923
 32
0.0
 13
368.9557173077158
 23
87.8043433159923
 33
0.0
  0
SOLID
  5
236B
  8
COTAS
 62
     0
 10
372.0372787453151
 20
90.67383440437374
 30
0.0
 11
371.5981474085137
 21
91.08269094283068
 31
0.0
 12
373.0442826922853
 22
92.19565668400645
 32
0.0
 13
373.0442826922853
 23
92.19565668400645
 33
0.0
  0
POINT
  5
236C
  8
DEFPOINTS
 62
     0
 10
373.0442826922853
 20
92.19565668400645
 30
0.0
  0
POINT
  5
236D
  8
DEFPOINTS
 62
     0
 10
368.9557173077158
 20
87.8043433159923
 30
0.0
  0
ENDBLK
  5
2367
  8
0
  0
BLOCK
  8
0
  2
*D40
 70
     1
 10
0.0
 20
0.0
 30
0.0
  3
*D40
  1

  0
LINE
  5
2374
  8
COTAS
 62
     0
 10
384.7338468226034
 20
90.94945712960327
 30
0.0
 11
382.1653829434933
 21
87.62635717598963
 31
0.0
  0
TEXT
  5
2375
  8
COTAS
  6
CONTINUOUS
 62
     0
 10
386.8599778324859
 20
94.46481040201876
 30
0.0
 40
1.8
  1
ø6.0
  0
SOLID
  5
2376
  8
COTAS
 62
     0
 10
383.0287888949967
 20
89.23400457604619
 30
0.0
 11
383.5035174597986
 21
88.86708116474476
 31
0.0
 12
382.1653829434933
 22
87.62635717598963
 32
0.0
 13
382.1653829434933
 23
87.62635717598963
 33
0.0
  0
SOLID
  5
2377
  8
COTAS
 62
     0
 10
384.9712111050043
 20
90.76599542395256
 30
0.0
 11
384.4964825402024
 21
91.13291883525399
 31
0.0
 12
385.8346170565077
 22
92.37364282400912
 32
0.0
 13
385.8346170565077
 23
92.37364282400912
 33
0.0
  0
POINT
  5
2378
  8
DEFPOINTS
 62
     0
 10
385.8346170565077
 20
92.37364282400912
 30
0.0
  0
POINT
  5
2379
  8
DEFPOINTS
 62
     0
 10
382.1653829434933
 20
87.62635717598963
 30
0.0
  0
ENDBLK
  5
2373
  8
0
  0
BLOCK
  8
0
  2
*D41
 70
     1
 10
0.0
 20
0.0
 30
0.0
  3
*D41
  1

  0
LINE
  5
2380
  8
COTAS
 62
     0
 10
102.0000000000003
 20
127.7500000000012
 30
0.0
 11
102.0000000000003
 21
145.2290097874413
 31
0.0
  0
LINE
  5
2381
  8
COTAS
 62
     0
 10
222.0000000000003
 20
127.7500000000011
 30
0.0
 11
222.0000000000003
 21
145.2290097874413
 31
0.0
  0
LINE
  5
2382
  8
COTAS
 62
     0
 10
103.8000000000003
 20
143.4290097874413
 30
0.0
 11
158.1000000000003
 21
143.4290097874413
 31
0.0
  0
LINE
  5
2383
  8
COTAS
 62
     0
 10
220.2000000000003
 20
143.4290097874413
 30
0.0
 11
165.9000000000003
 21
143.4290097874413
 31
0.0
  0
SOLID
  5
2384
  8
COTAS
 62
     0
 10
103.8000000000003
 20
143.7290097874413
 30
0.0
 11
103.8000000000003
 21
143.1290097874413
 31
0.0
 12
102.0000000000003
 22
143.4290097874413
 32
0.0
 13
102.0000000000003
 23
143.4290097874413
 33
0.0
  0
SOLID
  5
2385
  8
COTAS
 62
     0
 10
220.2000000000003
 20
143.1290097874413
 30
0.0
 11
220.2000000000003
 21
143.7290097874413
 31
0.0
 12
222.0000000000003
 22
143.4290097874413
 32
0.0
 13
222.0000000000003
 23
143.4290097874413
 33
0.0
  0
TEXT
  5
2386
  8
COTAS
  6
CONTINUOUS
 62
     0
 10
159.0000000000003
 20
142.5290097874413
 30
0.0
 40
1.8
  1
120.0
  0
POINT
  5
2387
  8
DEFPOINTS
 62
     0
 10
102.0000000000003
 20
121.5000000000012
 30
0.0
  0
POINT
  5
2388
  8
DEFPOINTS
 62
     0
 10
222.0000000000003
 20
121.5000000000011
 30
0.0
  0
POINT
  5
2389
  8
DEFPOINTS
 62
     0
 10
222.0000000000003
 20
143.4290097874413
 30
0.0
  0
ENDBLK
  5
237F
  8
0
  0
BLOCK
  8
0
  2
*D42
 70
     1
 10
0.0
 20
0.0
 30
0.0
  3
*D42
  1

  0
LINE
  5
238E
  8
COTAS
 62
     0
 10
222.0000000000003
 20
127.7500000000011
 30
0.0
 11
222.0000000000003
 21
145.2290097874413
 31
0.0
  0
LINE
  5
238F
  8
COTAS
 62
     0
 10
262.0000000000005
 20
127.7500000000012
 30
0.0
 11
262.0000000000005
 21
145.2290097874413
 31
0.0
  0
LINE
  5
2390
  8
COTAS
 62
     0
 10
223.8000000000003
 20
143.4290097874413
 30
0.0
 11
238.7000000000004
 21
143.4290097874413
 31
0.0
  0
LINE
  5
2391
  8
COTAS
 62
     0
 10
260.2000000000004
 20
143.4290097874413
 30
0.0
 11
245.3000000000004
 21
143.4290097874413
 31
0.0
  0
SOLID
  5
2392
  8
COTAS
 62
     0
 10
223.8000000000003
 20
143.7290097874413
 30
0.0
 11
223.8000000000003
 21
143.1290097874413
 31
0.0
 12
222.0000000000003
 22
143.4290097874413
 32
0.0
 13
222.0000000000003
 23
143.4290097874413
 33
0.0
  0
SOLID
  5
2393
  8
COTAS
 62
     0
 10
260.2000000000004
 20
143.1290097874413
 30
0.0
 11
260.2000000000004
 21
143.7290097874413
 31
0.0
 12
262.0000000000005
 22
143.4290097874413
 32
0.0
 13
262.0000000000005
 23
143.4290097874413
 33
0.0
  0
TEXT
  5
2394
  8
COTAS
  6
CONTINUOUS
 62
     0
 10
239.6000000000004
 20
142.5290097874413
 30
0.0
 40
1.8
  1
40.0
  0
POINT
  5
2395
  8
DEFPOINTS
 62
     0
 10
222.0000000000003
 20
121.5000000000011
 30
0.0
  0
POINT
  5
2396
  8
DEFPOINTS
 62
     0
 10
262.0000000000005
 20
121.5000000000012
 30
0.0
  0
POINT
  5
2397
  8
DEFPOINTS
 62
     0
 10
262.0000000000005
 20
143.4290097874413
 30
0.0
  0
ENDBLK
  5
238D
  8
0
  0
BLOCK
  8
0
  2
*D43
 70
     1
 10
0.0
 20
0.0
 30
0.0
  3
*D43
  1

  0
LINE
  5
239E
  8
COTAS
 62
     0
 10
222.0000000000003
 20
140.2500000000002
 30
0.0
 11
222.0000000000003
 21
139.8934933723608
 31
0.0
  0
LINE
  5
239F
  8
COTAS
 62
     0
 10
210.0000000000002
 20
96.24999999999943
 30
0.0
 11
210.0000000000002
 21
139.8934933723608
 31
0.0
  0
LINE
  5
23A0
  8
COTAS
 62
     0
 10
220.2000000000003
 20
138.0934933723608
 30
0.0
 11
219.1500000000002
 21
138.0934933723608
 31
0.0
  0
LINE
  5
23A1
  8
COTAS
 62
     0
 10
211.8000000000002
 20
138.0934933723608
 30
0.0
 11
212.8500000000002
 21
138.0934933723608
 31
0.0
  0
SOLID
  5
23A2
  8
COTAS
 62
     0
 10
220.2000000000003
 20
137.7934933723608
 30
0.0
 11
220.2000000000003
 21
138.3934933723608
 31
0.0
 12
222.0000000000003
 22
138.0934933723608
 32
0.0
 13
222.0000000000003
 23
138.0934933723608
 33
0.0
  0
SOLID
  5
23A3
  8
COTAS
 62
     0
 10
211.8000000000002
 20
138.3934933723608
 30
0.0
 11
211.8000000000002
 21
137.7934933723608
 31
0.0
 12
210.0000000000002
 22
138.0934933723608
 32
0.0
 13
210.0000000000002
 23
138.0934933723608
 33
0.0
  0
TEXT
  5
23A4
  8
COTAS
  6
CONTINUOUS
 62
     0
 10
213.7500000000002
 20
137.1934933723608
 30
0.0
 40
1.8
  1
12.0
  0
POINT
  5
23A5
  8
DEFPOINTS
 62
     0
 10
222.0000000000003
 20
134.0000000000002
 30
0.0
  0
POINT
  5
23A6
  8
DEFPOINTS
 62
     0
 10
210.0000000000002
 20
89.99999999999943
 30
0.0
  0
POINT
  5
23A7
  8
DEFPOINTS
 62
     0
 10
210.0000000000002
 20
138.0934933723608
 30
0.0
  0
ENDBLK
  5
239D
  8
0
  0
BLOCK
  8
0
  2
*D44
 70
     1
 10
0.0
 20
0.0
 30
0.0
  3
*D44
  1

  0
LINE
  5
23AE
  8
COTAS
 62
     0
 10
203.7500000000002
 20
134.0000000000002
 30
0.0
 11
186.3767333194085
 21
134.0000000000002
 31
0.0
  0
LINE
  5
23AF
  8
COTAS
 62
     0
 10
204.4089115813972
 20
121.5000000000002
 30
0.0
 11
186.3767333194085
 21
121.5000000000002
 31
0.0
  0
LINE
  5
23B0
  8
COTAS
 62
     0
 10
188.1767333194085
 20
132.2000000000002
 30
0.0
 11
188.1767333194085
 21
129.5500000000002
 31
0.0
  0
LINE
  5
23B1
  8
COTAS
 62
     0
 10
188.1767333194085
 20
123.3000000000002
 30
0.0
 11
188.1767333194085
 21
125.9500000000002
 31
0.0
  0
SOLID
  5
23B2
  8
COTAS
 62
     0
 10
188.4767333194085
 20
132.2000000000002
 30
0.0
 11
187.8767333194085
 21
132.2000000000002
 31
0.0
 12
188.1767333194085
 22
134.0000000000002
 32
0.0
 13
188.1767333194085
 23
134.0000000000002
 33
0.0
  0
SOLID
  5
23B3
  8
COTAS
 62
     0
 10
187.8767333194085
 20
123.3000000000002
 30
0.0
 11
188.4767333194085
 21
123.3000000000002
 31
0.0
 12
188.1767333194085
 22
121.5000000000002
 32
0.0
 13
188.1767333194085
 23
121.5000000000002
 33
0.0
  0
TEXT
  5
23B4
  8
COTAS
  6
CONTINUOUS
 62
     0
 10
185.7767333194085
 20
126.8500000000002
 30
0.0
 40
1.8
  1
12.5
  0
POINT
  5
23B5
  8
DEFPOINTS
 62
     0
 10
210.0000000000002
 20
134.0000000000002
 30
0.0
  0
POINT
  5
23B6
  8
DEFPOINTS
 62
     0
 10
210.6589115813972
 20
121.5000000000002
 30
0.0
  0
POINT
  5
23B7
  8
DEFPOINTS
 62
     0
 10
188.1767333194085
 20
121.5000000000002
 30
0.0
  0
ENDBLK
  5
23AD
  8
0
  0
BLOCK
  8
0
  2
*D45
 70
     1
 10
0.0
 20
0.0
 30
0.0
  3
*D45
  1

  0
LINE
  5
23BC
  8
COTAS
 62
     0
 10
204.4089115813972
 20
121.5000000000002
 30
0.0
 11
186.3767333194085
 21
121.5000000000002
 31
0.0
  0
LINE
  5
23BD
  8
COTAS
 62
     0
 10
204.4089115813972
 20
81.50000000000023
 30
0.0
 11
186.3767333194085
 21
81.50000000000023
 31
0.0
  0
LINE
  5
23BE
  8
COTAS
 62
     0
 10
188.1767333194085
 20
119.7000000000002
 30
0.0
 11
188.1767333194085
 21
103.3000000000002
 31
0.0
  0
LINE
  5
23BF
  8
COTAS
 62
     0
 10
188.1767333194085
 20
83.30000000000022
 30
0.0
 11
188.1767333194085
 21
99.7000000000002
 31
0.0
  0
SOLID
  5
23C0
  8
COTAS
 62
     0
 10
188.4767333194085
 20
119.7000000000002
 30
0.0
 11
187.8767333194085
 21
119.7000000000002
 31
0.0
 12
188.1767333194085
 22
121.5000000000002
 32
0.0
 13
188.1767333194085
 23
121.5000000000002
 33
0.0
  0
SOLID
  5
23C1
  8
COTAS
 62
     0
 10
187.8767333194085
 20
83.30000000000022
 30
0.0
 11
188.4767333194085
 21
83.30000000000022
 31
0.0
 12
188.1767333194085
 22
81.50000000000023
 32
0.0
 13
188.1767333194085
 23
81.50000000000023
 33
0.0
  0
TEXT
  5
23C2
  8
COTAS
  6
CONTINUOUS
 62
     0
 10
185.7767333194085
 20
100.6000000000002
 30
0.0
 40
1.8
  1
40.0
  0
POINT
  5
23C3
  8
DEFPOINTS
 62
     0
 10
210.6589115813972
 20
121.5000000000002
 30
0.0
  0
POINT
  5
23C4
  8
DEFPOINTS
 62
     0
 10
210.6589115813972
 20
81.50000000000023
 30
0.0
  0
POINT
  5
23C5
  8
DEFPOINTS
 62
     0
 10
188.1767333194085
 20
81.50000000000023
 30
0.0
  0
ENDBLK
  5
23BB
  8
0
  0
BLOCK
  8
0
  2
*D46
 70
     1
 10
0.0
 20
0.0
 30
0.0
  3
*D46
  1

  0
LINE
  5
23CA
  8
COTAS
 62
     0
 10
204.4089115813972
 20
81.50000000000023
 30
0.0
 11
186.3767333194085
 21
81.50000000000023
 31
0.0
  0
LINE
  5
23CB
  8
COTAS
 62
     0
 10
204.4089115813972
 20
52.5
 30
0.0
 11
186.3767333194085
 21
52.5
 31
0.0
  0
LINE
  5
23CC
  8
COTAS
 62
     0
 10
188.1767333194085
 20
79.70000000000023
 30
0.0
 11
188.1767333194085
 21
68.80000000000013
 31
0.0
  0
LINE
  5
23CD
  8
COTAS
 62
     0
 10
188.1767333194085
 20
54.3
 30
0.0
 11
188.1767333194085
 21
65.2000000000001
 31
0.0
  0
SOLID
  5
23CE
  8
COTAS
 62
     0
 10
188.4767333194085
 20
79.70000000000023
 30
0.0
 11
187.8767333194085
 21
79.70000000000023
 31
0.0
 12
188.1767333194085
 22
81.50000000000023
 32
0.0
 13
188.1767333194085
 23
81.50000000000023
 33
0.0
  0
SOLID
  5
23CF
  8
COTAS
 62
     0
 10
187.8767333194085
 20
54.3
 30
0.0
 11
188.4767333194085
 21
54.3
 31
0.0
 12
188.1767333194085
 22
52.5
 32
0.0
 13
188.1767333194085
 23
52.5
 33
0.0
  0
TEXT
  5
23D0
  8
COTAS
  6
CONTINUOUS
 62
     0
 10
185.6267333194085
 20
66.10000000000012
 30
0.0
 40
1.8
  1
29.0
  0
POINT
  5
23D1
  8
DEFPOINTS
 62
     0
 10
210.6589115813972
 20
81.50000000000023
 30
0.0
  0
POINT
  5
23D2
  8
DEFPOINTS
 62
     0
 10
210.6589115813972
 20
52.5
 30
0.0
  0
POINT
  5
23D3
  8
DEFPOINTS
 62
     0
 10
188.1767333194085
 20
52.5
 30
0.0
  0
ENDBLK
  5
23C9
  8
0
  0
BLOCK
  8
0
  2
*D47
 70
     1
 10
0.0
 20
0.0
 30
0.0
  3
*D47
  1

  0
LINE
  5
23D8
  8
COTAS
 62
     0
 10
204.4089115813972
 20
52.5
 30
0.0
 11
186.3767333194085
 21
52.5
 31
0.0
  0
LINE
  5
23D9
  8
COTAS
 62
     0
 10
204.408911581397
 20
12.49999999999932
 30
0.0
 11
186.3767333194085
 21
12.49999999999932
 31
0.0
  0
LINE
  5
23DA
  8
COTAS
 62
     0
 10
188.1767333194085
 20
50.7
 30
0.0
 11
188.1767333194085
 21
34.29999999999966
 31
0.0
  0
LINE
  5
23DB
  8
COTAS
 62
     0
 10
188.1767333194085
 20
14.29999999999932
 30
0.0
 11
188.1767333194085
 21
30.69999999999966
 31
0.0
  0
SOLID
  5
23DC
  8
COTAS
 62
     0
 10
188.4767333194085
 20
50.7
 30
0.0
 11
187.8767333194085
 21
50.7
 31
0.0
 12
188.1767333194085
 22
52.5
 32
0.0
 13
188.1767333194085
 23
52.5
 33
0.0
  0
SOLID
  5
23DD
  8
COTAS
 62
     0
 10
187.8767333194085
 20
14.29999999999932
 30
0.0
 11
188.4767333194085
 21
14.29999999999932
 31
0.0
 12
188.1767333194085
 22
12.49999999999932
 32
0.0
 13
188.1767333194085
 23
12.49999999999932
 33
0.0
  0
TEXT
  5
23DE
  8
COTAS
  6
CONTINUOUS
 62
     0
 10
185.7767333194085
 20
31.59999999999966
 30
0.0
 40
1.8
  1
40.0
  0
POINT
  5
23DF
  8
DEFPOINTS
 62
     0
 10
210.6589115813972
 20
52.5
 30
0.0
  0
POINT
  5
23E0
  8
DEFPOINTS
 62
     0
 10
210.658911581397
 20
12.49999999999932
 30
0.0
  0
POINT
  5
23E1
  8
DEFPOINTS
 62
     0
 10
188.1767333194085
 20
12.49999999999932
 30
0.0
  0
ENDBLK
  5
23D7
  8
0
  0
BLOCK
  8
0
  2
*D48
 70
     1
 10
0.0
 20
0.0
 30
0.0
  3
*D48
  1

  0
LINE
  5
23E8
  8
COTAS
 62
     0
 10
203.7500000000002
 20
134.0000000000002
 30
0.0
 11
200.5920459168553
 21
134.0000000000002
 31
0.0
  0
LINE
  5
23E9
  8
COTAS
 62
     0
 10
203.7500000000002
 20
89.99999999999943
 30
0.0
 11
200.5920459168553
 21
89.99999999999943
 31
0.0
  0
LINE
  5
23EA
  8
COTAS
 62
     0
 10
202.3920459168553
 20
132.2000000000002
 30
0.0
 11
202.3920459168553
 21
113.7999999999998
 31
0.0
  0
LINE
  5
23EB
  8
COTAS
 62
     0
 10
202.3920459168553
 20
91.79999999999943
 30
0.0
 11
202.3920459168553
 21
110.1999999999998
 31
0.0
  0
SOLID
  5
23EC
  8
COTAS
 62
     0
 10
202.6920459168553
 20
132.2000000000002
 30
0.0
 11
202.0920459168553
 21
132.2000000000002
 31
0.0
 12
202.3920459168553
 22
134.0000000000002
 32
0.0
 13
202.3920459168553
 23
134.0000000000002
 33
0.0
  0
SOLID
  5
23ED
  8
COTAS
 62
     0
 10
202.0920459168553
 20
91.79999999999943
 30
0.0
 11
202.6920459168553
 21
91.79999999999943
 31
0.0
 12
202.3920459168553
 22
89.99999999999943
 32
0.0
 13
202.3920459168553
 23
89.99999999999943
 33
0.0
  0
TEXT
  5
23EE
  8
COTAS
  6
CONTINUOUS
 62
     0
 10
199.8420459168553
 20
111.0999999999998
 30
0.0
 40
1.8
  1
44.0
  0
POINT
  5
23EF
  8
DEFPOINTS
 62
     0
 10
210.0000000000002
 20
134.0000000000002
 30
0.0
  0
POINT
  5
23F0
  8
DEFPOINTS
 62
     0
 10
210.0000000000002
 20
89.99999999999943
 30
0.0
  0
POINT
  5
23F1
  8
DEFPOINTS
 62
     0
 10
202.3920459168553
 20
89.99999999999943
 30
0.0
  0
ENDBLK
  5
23E7
  8
0
  0
BLOCK
  8
0
  2
*D49
 70
     1
 10
0.0
 20
0.0
 30
0.0
  3
*D49
  1

  0
LINE
  5
23F8
  8
COTAS
 62
     0
 10
423.0
 20
140.2500000000002
 30
0.0
 11
423.0
 21
144.9483753611053
 31
0.0
  0
LINE
  5
23F9
  8
COTAS
 62
     0
 10
384.0000000000005
 20
106.1515075357456
 30
0.0
 11
384.0000000000005
 21
144.9483753611053
 31
0.0
  0
LINE
  5
23FA
  8
COTAS
 62
     0
 10
421.2
 20
143.1483753611053
 30
0.0
 11
406.9500000000002
 21
143.1483753611053
 31
0.0
  0
LINE
  5
23FB
  8
COTAS
 62
     0
 10
385.8000000000005
 20
143.1483753611053
 30
0.0
 11
400.0500000000002
 21
143.1483753611053
 31
0.0
  0
SOLID
  5
23FC
  8
COTAS
 62
     0
 10
421.2
 20
142.8483753611052
 30
0.0
 11
421.2
 21
143.4483753611053
 31
0.0
 12
423.0
 22
143.1483753611053
 32
0.0
 13
423.0
 23
143.1483753611053
 33
0.0
  0
SOLID
  5
23FD
  8
COTAS
 62
     0
 10
385.8000000000005
 20
143.4483753611053
 30
0.0
 11
385.8000000000005
 21
142.8483753611052
 31
0.0
 12
384.0000000000005
 22
143.1483753611053
 32
0.0
 13
384.0000000000005
 23
143.1483753611053
 33
0.0
  0
TEXT
  5
23FE
  8
COTAS
  6
CONTINUOUS
 62
     0
 10
400.9500000000002
 20
142.2483753611052
 30
0.0
 40
1.8
  1
39.0
  0
POINT
  5
23FF
  8
DEFPOINTS
 62
     0
 10
423.0
 20
134.0000000000002
 30
0.0
  0
POINT
  5
2400
  8
DEFPOINTS
 62
     0
 10
384.0000000000005
 20
99.90150753574562
 30
0.0
  0
POINT
  5
2401
  8
DEFPOINTS
 62
     0
 10
384.0000000000005
 20
143.1483753611053
 30
0.0
  0
ENDBLK
  5
23F7
  8
0
  0
BLOCK
  8
0
  2
*D50
 70
     1
 10
0.0
 20
0.0
 30
0.0
  3
*D50
  1

  0
LINE
  5
2406
  8
COTAS
 62
     0
 10
384.0000000000005
 20
106.1515075357456
 30
0.0
 11
384.0000000000005
 21
144.9483753611053
 31
0.0
  0
LINE
  5
2407
  8
COTAS
 62
     0
 10
371.0000000000005
 20
106.1515075357456
 30
0.0
 11
371.0000000000005
 21
144.9483753611053
 31
0.0
  0
LINE
  5
2408
  8
COTAS
 62
     0
 10
382.2000000000005
 20
143.1483753611053
 30
0.0
 11
380.6500000000005
 21
143.1483753611053
 31
0.0
  0
LINE
  5
2409
  8
COTAS
 62
     0
 10
372.8000000000005
 20
143.1483753611053
 30
0.0
 11
374.3500000000005
 21
143.1483753611053
 31
0.0
  0
SOLID
  5
240A
  8
COTAS
 62
     0
 10
382.2000000000005
 20
142.8483753611052
 30
0.0
 11
382.2000000000005
 21
143.4483753611053
 31
0.0
 12
384.0000000000005
 22
143.1483753611053
 32
0.0
 13
384.0000000000005
 23
143.1483753611053
 33
0.0
  0
SOLID
  5
240B
  8
COTAS
 62
     0
 10
372.8000000000005
 20
143.4483753611053
 30
0.0
 11
372.8000000000005
 21
142.8483753611052
 31
0.0
 12
371.0000000000005
 22
143.1483753611053
 32
0.0
 13
371.0000000000005
 23
143.1483753611053
 33
0.0
  0
TEXT
  5
240C
  8
COTAS
  6
CONTINUOUS
 62
     0
 10
375.2500000000005
 20
142.2483753611052
 30
0.0
 40
1.8
  1
13.0
  0
POINT
  5
240D
  8
DEFPOINTS
 62
     0
 10
384.0000000000005
 20
99.90150753574562
 30
0.0
  0
POINT
  5
240E
  8
DEFPOINTS
 62
     0
 10
371.0000000000005
 20
99.90150753574562
 30
0.0
  0
POINT
  5
240F
  8
DEFPOINTS
 62
     0
 10
371.0000000000005
 20
143.1483753611053
 30
0.0
  0
ENDBLK
  5
2405
  8
0
  0
BLOCK
  8
0
  2
*D51
 70
     1
 10
0.0
 20
0.0
 30
0.0
  3
*D51
  1

  0
LINE
  5
2414
  8
COTAS
 62
     0
 10
371.0000000000005
 20
106.1515075357456
 30
0.0
 11
371.0000000000005
 21
144.9483753611053
 31
0.0
  0
LINE
  5
2415
  8
COTAS
 62
     0
 10
323.0
 20
132.7500000000002
 30
0.0
 11
323.0
 21
144.9483753611053
 31
0.0
  0
LINE
  5
2416
  8
COTAS
 62
     0
 10
369.2000000000005
 20
143.1483753611053
 30
0.0
 11
350.4500000000002
 21
143.1483753611053
 31
0.0
  0
LINE
  5
2417
  8
COTAS
 62
     0
 10
324.8
 20
143.1483753611053
 30
0.0
 11
343.5500000000002
 21
143.1483753611053
 31
0.0
  0
SOLID
  5
2418
  8
COTAS
 62
     0
 10
369.2000000000005
 20
142.8483753611052
 30
0.0
 11
369.2000000000005
 21
143.4483753611053
 31
0.0
 12
371.0000000000005
 22
143.1483753611053
 32
0.0
 13
371.0000000000005
 23
143.1483753611053
 33
0.0
  0
SOLID
  5
2419
  8
COTAS
 62
     0
 10
324.8
 20
143.4483753611053
 30
0.0
 11
324.8
 21
142.8483753611052
 31
0.0
 12
323.0
 22
143.1483753611053
 32
0.0
 13
323.0
 23
143.1483753611053
 33
0.0
  0
TEXT
  5
241A
  8
COTAS
  6
CONTINUOUS
 62
     0
 10
344.4500000000002
 20
142.2483753611052
 30
0.0
 40
1.8
  1
48.0
  0
POINT
  5
241B
  8
DEFPOINTS
 62
     0
 10
371.0000000000005
 20
99.90150753574562
 30
0.0
  0
POINT
  5
241C
  8
DEFPOINTS
 62
     0
 10
323.0
 20
126.5000000000002
 30
0.0
  0
POINT
  5
241D
  8
DEFPOINTS
 62
     0
 10
323.0
 20
143.1483753611053
 30
0.0
  0
ENDBLK
  5
2413
  8
0
  0
BLOCK
  8
0
  2
*D52
 70
     1
 10
0.0
 20
0.0
 30
0.0
  3
*D52
  1

  0
LINE
  5
2424
  8
COTAS
 62
     0
 10
416.75
 20
134.0000000000002
 30
0.0
 11
408.1344522497688
 21
134.0000000000002
 31
0.0
  0
LINE
  5
2425
  8
COTAS
 62
     0
 10
401.5910884186035
 20
89.99999999999937
 30
0.0
 11
411.7344522497688
 21
89.99999999999937
 31
0.0
  0
LINE
  5
2426
  8
COTAS
 62
     0
 10
409.9344522497688
 20
132.2000000000002
 30
0.0
 11
409.9344522497688
 21
113.7999999999998
 31
0.0
  0
LINE
  5
2427
  8
COTAS
 62
     0
 10
409.9344522497688
 20
91.79999999999937
 30
0.0
 11
409.9344522497688
 21
110.1999999999998
 31
0.0
  0
SOLID
  5
2428
  8
COTAS
 62
     0
 10
410.2344522497688
 20
132.2000000000002
 30
0.0
 11
409.6344522497688
 21
132.2000000000002
 31
0.0
 12
409.9344522497688
 22
134.0000000000002
 32
0.0
 13
409.9344522497688
 23
134.0000000000002
 33
0.0
  0
SOLID
  5
2429
  8
COTAS
 62
     0
 10
409.6344522497688
 20
91.79999999999937
 30
0.0
 11
410.2344522497688
 21
91.79999999999937
 31
0.0
 12
409.9344522497688
 22
89.99999999999937
 32
0.0
 13
409.9344522497688
 23
89.99999999999937
 33
0.0
  0
TEXT
  5
242A
  8
COTAS
  6
CONTINUOUS
 62
     0
 10
407.3844522497688
 20
111.0999999999998
 30
0.0
 40
1.8
  1
44.0
  0
POINT
  5
242B
  8
DEFPOINTS
 62
     0
 10
423.0
 20
134.0000000000002
 30
0.0
  0
POINT
  5
242C
  8
DEFPOINTS
 62
     0
 10
395.3410884186035
 20
89.99999999999937
 30
0.0
  0
POINT
  5
242D
  8
DEFPOINTS
 62
     0
 10
409.9344522497688
 20
89.99999999999937
 30
0.0
  0
ENDBLK
  5
2423
  8
0
  0
BLOCK
  8
0
  2
*D53
 70
     1
 10
0.0
 20
0.0
 30
0.0
  3
*D53
  1

  0
LINE
  5
2432
  8
COTAS
 62
     0
 10
401.5910884186035
 20
89.99999999999937
 30
0.0
 11
411.7344522497688
 21
89.99999999999937
 31
0.0
  0
LINE
  5
2433
  8
COTAS
 62
     0
 10
401.5910884186032
 20
43.99999999999937
 30
0.0
 11
411.7344522497688
 21
43.99999999999937
 31
0.0
  0
LINE
  5
2434
  8
COTAS
 62
     0
 10
409.9344522497688
 20
88.19999999999938
 30
0.0
 11
409.9344522497688
 21
68.79999999999939
 31
0.0
  0
LINE
  5
2435
  8
COTAS
 62
     0
 10
409.9344522497688
 20
45.79999999999936
 30
0.0
 11
409.9344522497688
 21
65.19999999999936
 31
0.0
  0
SOLID
  5
2436
  8
COTAS
 62
     0
 10
410.2344522497688
 20
88.19999999999938
 30
0.0
 11
409.6344522497688
 21
88.19999999999938
 31
0.0
 12
409.9344522497688
 22
89.99999999999937
 32
0.0
 13
409.9344522497688
 23
89.99999999999937
 33
0.0
  0
SOLID
  5
2437
  8
COTAS
 62
     0
 10
409.6344522497688
 20
45.79999999999936
 30
0.0
 11
410.2344522497688
 21
45.79999999999936
 31
0.0
 12
409.9344522497688
 22
43.99999999999937
 32
0.0
 13
409.9344522497688
 23
43.99999999999937
 33
0.0
  0
TEXT
  5
2438
  8
COTAS
  6
CONTINUOUS
 62
     0
 10
407.3844522497688
 20
66.09999999999938
 30
0.0
 40
1.8
  1
46.0
  0
POINT
  5
2439
  8
DEFPOINTS
 62
     0
 10
395.3410884186035
 20
89.99999999999937
 30
0.0
  0
POINT
  5
243A
  8
DEFPOINTS
 62
     0
 10
395.3410884186032
 20
43.99999999999937
 30
0.0
  0
POINT
  5
243B
  8
DEFPOINTS
 62
     0
 10
409.9344522497688
 20
43.99999999999937
 30
0.0
  0
ENDBLK
  5
2431
  8
0
  0
BLOCK
  8
0
  2
*D54
 70
     1
 10
0.0
 20
0.0
 30
0.0
  3
*D54
  1

  0
LINE
  5
2442
  8
COTAS
 62
     0
 10
353.4089115813975
 20
89.99999999999937
 30
0.0
 11
348.3347890518334
 21
89.99999999999937
 31
0.0
  0
LINE
  5
2443
  8
COTAS
 62
     0
 10
364.7500000000005
 20
134.0000000000002
 30
0.0
 11
348.3347890518334
 21
134.0000000000002
 31
0.0
  0
LINE
  5
2444
  8
COTAS
 62
     0
 10
350.1347890518334
 20
91.79999999999937
 30
0.0
 11
350.1347890518334
 21
110.1999999999998
 31
0.0
  0
LINE
  5
2445
  8
COTAS
 62
     0
 10
350.1347890518334
 20
132.2000000000002
 30
0.0
 11
350.1347890518334
 21
113.7999999999998
 31
0.0
  0
SOLID
  5
2446
  8
COTAS
 62
     0
 10
349.8347890518334
 20
91.79999999999937
 30
0.0
 11
350.4347890518334
 21
91.79999999999937
 31
0.0
 12
350.1347890518334
 22
89.99999999999937
 32
0.0
 13
350.1347890518334
 23
89.99999999999937
 33
0.0
  0
SOLID
  5
2447
  8
COTAS
 62
     0
 10
350.4347890518334
 20
132.2000000000002
 30
0.0
 11
349.8347890518334
 21
132.2000000000002
 31
0.0
 12
350.1347890518334
 22
134.0000000000002
 32
0.0
 13
350.1347890518334
 23
134.0000000000002
 33
0.0
  0
TEXT
  5
2448
  8
COTAS
  6
CONTINUOUS
 62
     0
 10
347.5847890518334
 20
111.0999999999998
 30
0.0
 40
1.8
  1
44.0
  0
POINT
  5
2449
  8
DEFPOINTS
 62
     0
 10
359.6589115813975
 20
89.99999999999937
 30
0.0
  0
POINT
  5
244A
  8
DEFPOINTS
 62
     0
 10
371.0000000000005
 20
134.0000000000002
 30
0.0
  0
POINT
  5
244B
  8
DEFPOINTS
 62
     0
 10
350.1347890518334
 20
134.0000000000002
 30
0.0
  0
ENDBLK
  5
2441
  8
0
  0
BLOCK
  8
0
  2
*D55
 70
     1
 10
0.0
 20
0.0
 30
0.0
  3
*D55
  1

  0
LINE
  5
2452
  8
COTAS
 62
     0
 10
353.4089115813975
 20
43.99999999999937
 30
0.0
 11
348.3347890518334
 21
43.99999999999937
 31
0.0
  0
LINE
  5
2453
  8
COTAS
 62
     0
 10
353.4089115813975
 20
89.99999999999937
 30
0.0
 11
348.3347890518334
 21
89.99999999999937
 31
0.0
  0
LINE
  5
2454
  8
COTAS
 62
     0
 10
350.1347890518334
 20
45.79999999999936
 30
0.0
 11
350.1347890518334
 21
65.19999999999936
 31
0.0
  0
LINE
  5
2455
  8
COTAS
 62
     0
 10
350.1347890518334
 20
88.19999999999938
 30
0.0
 11
350.1347890518334
 21
68.79999999999939
 31
0.0
  0
SOLID
  5
2456
  8
COTAS
 62
     0
 10
349.8347890518334
 20
45.79999999999936
 30
0.0
 11
350.4347890518334
 21
45.79999999999936
 31
0.0
 12
350.1347890518334
 22
43.99999999999937
 32
0.0
 13
350.1347890518334
 23
43.99999999999937
 33
0.0
  0
SOLID
  5
2457
  8
COTAS
 62
     0
 10
350.4347890518334
 20
88.19999999999938
 30
0.0
 11
349.8347890518334
 21
88.19999999999938
 31
0.0
 12
350.1347890518334
 22
89.99999999999937
 32
0.0
 13
350.1347890518334
 23
89.99999999999937
 33
0.0
  0
TEXT
  5
2458
  8
COTAS
  6
CONTINUOUS
 62
     0
 10
347.5847890518334
 20
66.09999999999938
 30
0.0
 40
1.8
  1
46.0
  0
POINT
  5
2459
  8
DEFPOINTS
 62
     0
 10
359.6589115813975
 20
43.99999999999937
 30
0.0
  0
POINT
  5
245A
  8
DEFPOINTS
 62
     0
 10
359.6589115813975
 20
89.99999999999937
 30
0.0
  0
POINT
  5
245B
  8
DEFPOINTS
 62
     0
 10
350.1347890518334
 20
89.99999999999937
 30
0.0
  0
ENDBLK
  5
2451
  8
0
  0
BLOCK
  8
0
  2
*D56
 70
     1
 10
0.0
 20
0.0
 30
0.0
  3
*D56
  1

  0
LINE
  5
2462
  8
COTAS
 62
     0
 10
316.75
 20
134.0000000000002
 30
0.0
 11
300.7610122836605
 21
134.0000000000002
 31
0.0
  0
LINE
  5
2463
  8
COTAS
 62
     0
 10
305.408911581397
 20
126.5000000000002
 30
0.0
 11
300.7610122836605
 21
126.5000000000002
 31
0.0
  0
LINE
  5
2464
  8
COTAS
 62
     0
 10
302.5610122836605
 20
132.2000000000002
 30
0.0
 11
302.5610122836605
 21
128.3000000000002
 31
0.0
  0
SOLID
  5
2465
  8
COTAS
 62
     0
 10
302.8610122836605
 20
132.2000000000002
 30
0.0
 11
302.2610122836605
 21
132.2000000000002
 31
0.0
 12
302.5610122836605
 22
134.0000000000002
 32
0.0
 13
302.5610122836605
 23
134.0000000000002
 33
0.0
  0
SOLID
  5
2466
  8
COTAS
 62
     0
 10
302.2610122836605
 20
128.3000000000002
 30
0.0
 11
302.8610122836605
 21
128.3000000000002
 31
0.0
 12
302.5610122836605
 22
126.5000000000002
 32
0.0
 13
302.5610122836605
 23
126.5000000000002
 33
0.0
  0
TEXT
  5
2467
  8
COTAS
  6
CONTINUOUS
 62
     0
 10
296.7110122836605
 20
129.3500000000002
 30
0.0
 40
1.8
  1
7.5
  0
POINT
  5
2468
  8
DEFPOINTS
 62
     0
 10
323.0
 20
134.0000000000002
 30
0.0
  0
POINT
  5
2469
  8
DEFPOINTS
 62
     0
 10
311.658911581397
 20
126.5000000000002
 30
0.0
  0
POINT
  5
246A
  8
DEFPOINTS
 62
     0
 10
302.5610122836605
 20
126.5000000000002
 30
0.0
  0
ENDBLK
  5
2461
  8
0
  0
BLOCK
  8
0
  2
*D57
 70
     1
 10
0.0
 20
0.0
 30
0.0
  3
*D57
  1

  0
LINE
  5
246F
  8
COTAS
 62
     0
 10
305.408911581397
 20
126.5000000000002
 30
0.0
 11
300.7610122836605
 21
126.5000000000002
 31
0.0
  0
LINE
  5
2470
  8
COTAS
 62
     0
 10
305.4089115813969
 20
81.49999999999915
 30
0.0
 11
300.7610122836605
 21
81.49999999999915
 31
0.0
  0
LINE
  5
2471
  8
COTAS
 62
     0
 10
302.5610122836605
 20
124.7000000000002
 30
0.0
 11
302.5610122836605
 21
105.7999999999997
 31
0.0
  0
LINE
  5
2472
  8
COTAS
 62
     0
 10
302.5610122836605
 20
83.29999999999914
 30
0.0
 11
302.5610122836605
 21
102.1999999999997
 31
0.0
  0
SOLID
  5
2473
  8
COTAS
 62
     0
 10
302.8610122836605
 20
124.7000000000002
 30
0.0
 11
302.2610122836605
 21
124.7000000000002
 31
0.0
 12
302.5610122836605
 22
126.5000000000002
 32
0.0
 13
302.5610122836605
 23
126.5000000000002
 33
0.0
  0
SOLID
  5
2474
  8
COTAS
 62
     0
 10
302.2610122836605
 20
83.29999999999914
 30
0.0
 11
302.8610122836605
 21
83.29999999999914
 31
0.0
 12
302.5610122836605
 22
81.49999999999915
 32
0.0
 13
302.5610122836605
 23
81.49999999999915
 33
0.0
  0
TEXT
  5
2475
  8
COTAS
  6
CONTINUOUS
 62
     0
 10
300.0110122836605
 20
103.0999999999997
 30
0.0
 40
1.8
  1
45.0
  0
POINT
  5
2476
  8
DEFPOINTS
 62
     0
 10
311.658911581397
 20
126.5000000000002
 30
0.0
  0
POINT
  5
2477
  8
DEFPOINTS
 62
     0
 10
311.6589115813969
 20
81.49999999999915
 30
0.0
  0
POINT
  5
2478
  8
DEFPOINTS
 62
     0
 10
302.5610122836605
 20
81.49999999999915
 30
0.0
  0
ENDBLK
  5
246E
  8
0
  0
BLOCK
  8
0
  2
*D58
 70
     1
 10
0.0
 20
0.0
 30
0.0
  3
*D58
  1

  0
LINE
  5
247D
  8
COTAS
 62
     0
 10
305.4089115813969
 20
81.49999999999915
 30
0.0
 11
300.7610122836605
 21
81.49999999999915
 31
0.0
  0
LINE
  5
247E
  8
COTAS
 62
     0
 10
305.4089115813968
 20
52.50000000000028
 30
0.0
 11
300.7610122836605
 21
52.50000000000028
 31
0.0
  0
LINE
  5
247F
  8
COTAS
 62
     0
 10
302.5610122836605
 20
79.69999999999915
 30
0.0
 11
302.5610122836605
 21
68.79999999999973
 31
0.0
  0
LINE
  5
2480
  8
COTAS
 62
     0
 10
302.5610122836605
 20
54.30000000000027
 30
0.0
 11
302.5610122836605
 21
65.1999999999997
 31
0.0
  0
SOLID
  5
2481
  8
COTAS
 62
     0
 10
302.8610122836605
 20
79.69999999999915
 30
0.0
 11
302.2610122836605
 21
79.69999999999915
 31
0.0
 12
302.5610122836605
 22
81.49999999999915
 32
0.0
 13
302.5610122836605
 23
81.49999999999915
 33
0.0
  0
SOLID
  5
2482
  8
COTAS
 62
     0
 10
302.2610122836605
 20
54.30000000000027
 30
0.0
 11
302.8610122836605
 21
54.30000000000027
 31
0.0
 12
302.5610122836605
 22
52.50000000000028
 32
0.0
 13
302.5610122836605
 23
52.50000000000028
 33
0.0
  0
TEXT
  5
2483
  8
COTAS
  6
CONTINUOUS
 62
     0
 10
300.0110122836605
 20
66.09999999999972
 30
0.0
 40
1.8
  1
29.0
  0
POINT
  5
2484
  8
DEFPOINTS
 62
     0
 10
311.6589115813969
 20
81.49999999999915
 30
0.0
  0
POINT
  5
2485
  8
DEFPOINTS
 62
     0
 10
311.6589115813968
 20
52.50000000000028
 30
0.0
  0
POINT
  5
2486
  8
DEFPOINTS
 62
     0
 10
302.5610122836605
 20
52.50000000000028
 30
0.0
  0
ENDBLK
  5
247C
  8
0
  0
BLOCK
  8
0
  2
*D59
 70
     1
 10
0.0
 20
0.0
 30
0.0
  3
*D59
  1

  0
LINE
  5
248B
  8
COTAS
 62
     0
 10
305.4089115813968
 20
52.50000000000028
 30
0.0
 11
300.7610122836605
 21
52.50000000000028
 31
0.0
  0
LINE
  5
248C
  8
COTAS
 62
     0
 10
305.4089115813968
 20
7.500000000000456
 30
0.0
 11
300.7610122836605
 21
7.500000000000456
 31
0.0
  0
LINE
  5
248D
  8
COTAS
 62
     0
 10
302.5610122836605
 20
50.70000000000028
 30
0.0
 11
302.5610122836605
 21
31.80000000000036
 31
0.0
  0
LINE
  5
248E
  8
COTAS
 62
     0
 10
302.5610122836605
 20
9.300000000000455
 30
0.0
 11
302.5610122836605
 21
28.20000000000036
 31
0.0
  0
SOLID
  5
248F
  8
COTAS
 62
     0
 10
302.8610122836605
 20
50.70000000000028
 30
0.0
 11
302.2610122836605
 21
50.70000000000028
 31
0.0
 12
302.5610122836605
 22
52.50000000000028
 32
0.0
 13
302.5610122836605
 23
52.50000000000028
 33
0.0
  0
SOLID
  5
2490
  8
COTAS
 62
     0
 10
302.2610122836605
 20
9.300000000000455
 30
0.0
 11
302.8610122836605
 21
9.300000000000455
 31
0.0
 12
302.5610122836605
 22
7.500000000000456
 32
0.0
 13
302.5610122836605
 23
7.500000000000456
 33
0.0
  0
TEXT
  5
2491
  8
COTAS
  6
CONTINUOUS
 62
     0
 10
300.0110122836605
 20
29.10000000000036
 30
0.0
 40
1.8
  1
45.0
  0
POINT
  5
2492
  8
DEFPOINTS
 62
     0
 10
311.6589115813968
 20
52.50000000000028
 30
0.0
  0
POINT
  5
2493
  8
DEFPOINTS
 62
     0
 10
311.6589115813968
 20
7.500000000000455
 30
0.0
  0
POINT
  5
2494
  8
DEFPOINTS
 62
     0
 10
302.5610122836605
 20
7.500000000000456
 30
0.0
  0
ENDBLK
  5
248A
  8
0
  0
BLOCK
  8
0
  2
*D60
 70
     1
 10
0.0
 20
0.0
 30
0.0
  3
*D60
  1

  0
LINE
  5
249B
  8
COTAS
 62
     0
 10
-6.25
 20
-50.0
 30
0.0
 11
-19.0008298657376
 21
-50.0
 31
0.0
  0
LINE
  5
249C
  8
COTAS
 62
     0
 10
-6.25
 20
-35.0
 30
0.0
 11
-19.0008298657376
 21
-35.0
 31
0.0
  0
LINE
  5
249D
  8
COTAS
 62
     0
 10
-17.2008298657376
 20
-48.2
 30
0.0
 11
-17.2008298657376
 21
-44.3
 31
0.0
  0
LINE
  5
249E
  8
COTAS
 62
     0
 10
-17.2008298657376
 20
-36.8
 30
0.0
 11
-17.2008298657376
 21
-40.7
 31
0.0
  0
SOLID
  5
249F
  8
COTAS
 62
     0
 10
-17.5008298657376
 20
-48.2
 30
0.0
 11
-16.9008298657376
 21
-48.2
 31
0.0
 12
-17.2008298657376
 22
-50.0
 32
0.0
 13
-17.2008298657376
 23
-50.0
 33
0.0
  0
SOLID
  5
24A0
  8
COTAS
 62
     0
 10
-16.9008298657376
 20
-36.8
 30
0.0
 11
-17.5008298657376
 21
-36.8
 31
0.0
 12
-17.2008298657376
 22
-35.0
 32
0.0
 13
-17.2008298657376
 23
-35.0
 33
0.0
  0
TEXT
  5
24A1
  8
COTAS
  6
CONTINUOUS
 62
     0
 10
-19.4508298657376
 20
-43.4
 30
0.0
 40
1.8
  1
15.0
  0
POINT
  5
24A2
  8
DEFPOINTS
 62
     0
 10
0.0
 20
-50.0
 30
0.0
  0
POINT
  5
24A3
  8
DEFPOINTS
 62
     0
 10
0.0
 20
-35.0
 30
0.0
  0
POINT
  5
24A4
  8
DEFPOINTS
 62
     0
 10
-17.2008298657376
 20
-35.0
 30
0.0
  0
ENDBLK
  5
249A
  8
0
  0
BLOCK
  8
0
  2
*D61
 70
     1
 10
0.0
 20
0.0
 30
0.0
  3
*D61
  1

  0
LINE
  5
24AB
  8
COTAS
 62
     0
 10
-6.25
 20
-35.0
 30
0.0
 11
-10.0055066757454
 21
-35.0
 31
0.0
  0
LINE
  5
24AC
  8
COTAS
 62
     0
 10
48.24999999999994
 20
-42.0
 30
0.0
 11
-10.0055066757454
 21
-41.99999999999999
 31
0.0
  0
LINE
  5
24AD
  8
COTAS
 62
     0
 10
-8.205506675745397
 20
-36.8
 30
0.0
 11
-8.205506675745397
 21
-40.2
 31
0.0
  0
SOLID
  5
24AE
  8
COTAS
 62
     0
 10
-7.905506675745397
 20
-36.8
 30
0.0
 11
-8.505506675745398
 21
-36.8
 31
0.0
 12
-8.205506675745397
 22
-35.0
 32
0.0
 13
-8.205506675745397
 23
-35.0
 33
0.0
  0
SOLID
  5
24AF
  8
COTAS
 62
     0
 10
-8.505506675745398
 20
-40.2
 30
0.0
 11
-7.905506675745397
 21
-40.2
 31
0.0
 12
-8.205506675745397
 22
-41.99999999999999
 32
0.0
 13
-8.205506675745397
 23
-41.99999999999999
 33
0.0
  0
TEXT
  5
24B0
  8
COTAS
  6
CONTINUOUS
 62
     0
 10
-13.90550667574539
 20
-39.4
 30
0.0
 40
1.8
  1
7.0
  0
POINT
  5
24B1
  8
DEFPOINTS
 62
     0
 10
0.0
 20
-35.0
 30
0.0
  0
POINT
  5
24B2
  8
DEFPOINTS
 62
     0
 10
54.49999999999994
 20
-42.0
 30
0.0
  0
POINT
  5
24B3
  8
DEFPOINTS
 62
     0
 10
-8.205506675745397
 20
-41.99999999999999
 30
0.0
  0
ENDBLK
  5
24AA
  8
0
  0
ENDSEC
  0
SECTION
  2
ENTITIES
  0
LINE
  5
65
  8
-11
  6
AVEVASOLID
 62
   253
 10
264.2716490570431
 20
229.6640582359163
 30
0.0
 11
440.6716490570431
 21
229.6640582359163
 31
0.0
  0
LINE
  5
131
  8
-300
  6
AVEVASOLIDXWIDE
 62
    92
 10
-30.69661266170684
 20
-109.825895377365
 30
0.0
 11
-30.69661266170684
 21
229.774104622635
 31
0.0
  0
LINE
  5
132
  8
-300
  6
AVEVASOLIDXWIDE
 62
    92
 10
-30.69661266170684
 20
229.774104622635
 30
0.0
 11
440.6716490570431
 21
229.6640582359163
 31
0.0
  0
LINE
  5
133
  8
-300
  6
AVEVASOLIDXWIDE
 62
    92
 10
440.6716490570431
 20
229.6640582359163
 30
0.0
 11
440.6716490570431
 21
-109.9359354698331
 31
0.0
  0
LINE
  5
134
  8
-300
  6
AVEVASOLIDXWIDE
 62
    92
 10
-30.69661266170684
 20
-109.825895377365
 30
0.0
 11
440.6716490570431
 21
-109.9359354698331
 31
0.0
  0
LINE
  5
13A
  8
-300
  6
AVEVASOLID
 62
    92
 10
-54.92833266817274
 20
238.0640582359163
 30
0.0
 11
-54.92833266817274
 21
-118.3359353804262
 31
0.0
  0
LINE
  5
13B
  8
-300
  6
AVEVASOLID
 62
    92
 10
-54.92833266817274
 20
-118.3359353804262
 30
0.0
 11
449.0716490570431
 21
-118.3359353804262
 31
0.0
  0
LINE
  5
13D
  8
-300
  6
AVEVASOLIDXWIDE
 62
    92
 10
449.0716490570431
 20
-118.3359353804262
 30
0.0
 11
449.0716490570431
 21
-106.3359348976286
 31
0.0
  0
LINE
  5
13E
  8
-300
  6
AVEVASOLIDXWIDE
 62
    92
 10
437.0716490570431
 20
-118.3359353804262
 30
0.0
 11
449.0716490570431
 21
-118.3359353804262
 31
0.0
  0
LINE
  5
13F
  8
-300
  6
AVEVASOLID
 62
    92
 10
449.0716490570431
 20
238.0640582359163
 30
0.0
 11
449.0716490570431
 21
-118.3359353804262
 31
0.0
  0
LINE
  5
142
  8
-300
  6
AVEVASOLID
 62
    92
 10
-54.92833266817274
 20
238.0640582359163
 30
0.0
 11
449.0716490570431
 21
238.0640582359163
 31
0.0
  0
LINE
  5
14C
  8
-300
  6
AVEVASOLID
 62
    92
 10
307.7874090472303
 20
-87.93593499299595
 30
0.0
 11
307.7874090472303
 21
-109.9359354698331
 31
0.0
  0
LINE
  5
151
  8
-300
  6
AVEVASOLIDXWIDE
 62
    92
 10
449.0716490570431
 20
-118.3359353804262
 30
0.0
 11
449.0716490570431
 21
-106.3359348976286
 31
0.0
  0
LINE
  5
152
  8
-300
  6
AVEVASOLIDXWIDE
 62
    92
 10
437.0716490570431
 20
-118.3359353804262
 30
0.0
 11
449.0716490570431
 21
-118.3359353804262
 31
0.0
  0
LINE
  5
153
  8
-300
  6
AVEVASOLID
 62
    92
 10
449.0716490570431
 20
238.0640582359163
 30
0.0
 11
449.0716490570431
 21
-118.3359353804262
 31
0.0
  0
LINE
  5
156
  8
-300
  6
AVEVASOLID
 62
    92
 10
-54.92833266817274
 20
238.0640582359163
 30
0.0
 11
449.0716490570431
 21
238.0640582359163
 31
0.0
  0
LINE
  5
159
  8
-300
  6
AVEVASOLID
 62
    92
 10
-54.92833266817274
 20
238.0640582359163
 30
0.0
 11
-54.92833266817274
 21
-118.3359353804262
 31
0.0
  0
LINE
  5
15A
  8
-300
  6
AVEVASOLID
 62
    92
 10
-54.92833266817274
 20
-118.3359353804262
 30
0.0
 11
449.0716490570431
 21
-118.3359353804262
 31
0.0
  0
TEXT
  5
1766
  8
-300
  6
CONTINUOUS
 62
     7
 10
415.7704437299401
 20
-117.2027116379635
 30
0.0
 40
3.75
  1
Padrao-A3
  0
CIRCLE
  5
1CC5
  8
0
 10
-371.0000000000005
 20
43.99999999999937
 30
-0.0000000000001092
 40
2.999999999999999
210
1.678510484549289E-15
220
3.491655361970004E-16
230
-1.0
  0
CIRCLE
  5
1CC6
  8
0
 10
-371.0000000000005
 20
89.99999999999937
 30
-0.0000000000000702
 40
3.0
210
1.949089256500020E-15
220
-1.042425437791236E-17
230
-1.0
  0
CIRCLE
  5
1CC7
  8
0
 10
-10.00000000000034
 20
43.99999999999977
 30
0.0000000000000066
 40
3.0
210
2.175401231199696E-15
220
1.046906892002465E-16
230
-1.0
  0
CIRCLE
  5
1CC8
  8
0
 10
-10.00000000000034
 20
89.99999999999943
 30
-0.0000000000000439
 40
2.999999999999997
210
1.950716118640701E-15
220
1.649578654383610E-17
230
-1.0
  0
CIRCLE
  5
1CC9
  8
0
 10
-33.00000000000011
 20
7.499999999999773
 30
-0.0000000000000202
 40
2.999999999999998
210
1.338156416317502E-15
220
4.377772465043576E-16
230
-1.0
  0
CIRCLE
  5
1CCA
  8
0
 10
-322.9999999999998
 20
52.50000000000028
 30
-0.0000000000909824
 40
3.00000000000004
210
1.317124011935641E-15
220
4.013480535095750E-16
230
-1.0
  0
CIRCLE
  5
1CCB
  8
0
 10
-33.00000000000011
 20
52.49999999999898
 30
0.0000000000000213
 40
2.999999999999993
210
1.889625147665894E-15
220
5.063235323147082E-16
230
-1.0
  0
CIRCLE
  5
1CCC
  8
0
 10
-322.9999999999998
 20
7.500000000000455
 30
0.0000000000000915
 40
2.999999999999999
210
2.152210620220622E-15
220
-3.221716725262979E-17
230
-1.0
  0
CIRCLE
  5
1CCD
  8
0
 10
-384.0000000000005
 20
89.99999999999937
 30
-0.0000000000000486
 40
2.999999999999992
210
1.879977655031907E-15
220
2.428612866367496E-17
230
-1.0
  0
CIRCLE
  5
1CCE
  8
0
 10
-384.0000000000003
 20
43.99999999999937
 30
0.0000000000001301
 40
2.999999999999993
210
2.311198435755160E-15
220
3.474914609494141E-16
230
-1.0
  0
CIRCLE
  5
1CCF
  8
0
 10
-102.0
 20
81.49999999999989
 30
-10.9999999999644
 40
7.500000000000099
210
1.879977655031907E-15
220
-3.453462926555057E-31
230
-1.0
  0
CIRCLE
  5
1CD0
  8
0
 10
102.0
 20
52.5
 30
10.99999999999238
 40
7.500000000000098
  0
CIRCLE
  5
1CD1
  8
0
 10
-101.9999999999999
 20
12.50000000000012
 30
-11.00000000001974
 40
7.499999999999917
210
1.974796887631989E-15
220
1.398860140649338E-16
230
-1.0
  0
CIRCLE
  5
1CD2
  8
0
 10
-222.0000000000001
 20
52.5
 30
-10.99999999992921
 40
7.500000000000099
210
2.132308015624843E-15
220
-3.216161560510688E-17
230
-1.0
  0
CIRCLE
  5
1CD3
  8
0
 10
-222.0
 20
81.50000000000023
 30
-10.99999999995682
 40
7.500000000000098
210
2.073202720609393E-15
220
1.055225774152841E-16
230
-1.0
  0
CIRCLE
  5
1CD4
  8
0
 10
-222.0000000000003
 20
121.5000000000011
 30
-10.99999999998455
 40
7.500000000000098
210
2.012279232133096E-15
220
-3.696496980933734E-31
230
-1.0
  0
CIRCLE
  5
1CD5
  8
0
 10
-102.0
 20
121.5000000000002
 30
-10.99999999993661
 40
7.500000000000102
210
1.974796887631989E-15
220
-1.398860140649346E-16
230
-1.0
  0
CIRCLE
  5
1CD6
  8
0
 10
-62.00000000000034
 20
121.5000000000012
 30
-10.99999999996223
 40
3.0
210
2.058957450688646E-14
220
7.107201707004924E-15
230
-1.0
  0
CIRCLE
  5
1CD7
  8
0
 10
-101.9999999999998
 20
81.50000000000094
 30
-10.99999999996435
 40
3.000000000000001
210
-1.805063590274775E-14
220
2.322603426380083E-14
230
-1.0
  0
CIRCLE
  5
1CD8
  8
0
 10
-261.9999999999997
 20
81.50000000000074
 30
-10.9999999999684
 40
2.999999999999997
210
-1.616437732643177E-14
220
1.075256281540243E-14
230
-1.0
  0
CIRCLE
  5
1CD9
  8
0
 10
-262.0000000000003
 20
121.5000000000011
 30
-10.99999999993619
 40
2.999999999999998
210
3.606288332926432E-15
220
2.486319309307619E-15
230
-1.0
  0
CIRCLE
  5
1CDA
  8
0
 10
-102.0
 20
121.5000000000002
 30
-10.99999999993653
 40
2.999999999999997
210
2.214201044736791E-15
220
3.497388385859783E-16
230
-1.0
  0
CIRCLE
  5
1CDB
  8
0
 10
-62.00000000000014
 20
81.49999999999989
 30
-10.99999999982477
 40
2.999999999999997
210
1.985486776745474E-15
220
1.462616492034839E-16
230
-1.0
  0
CIRCLE
  5
1CDC
  8
0
 10
-323.0
 20
126.5000000000002
 30
-0.0000000000001537
 40
2.999999999999991
210
1.663113695936011E-15
220
-3.337687475838649E-16
230
-1.0
  0
CIRCLE
  5
1CDD
  8
0
 10
-322.9999999999999
 20
81.49999999999915
 30
0.0000000000001058
 40
2.999999999999999
210
2.092038295389939E-15
220
4.125880711942123E-16
230
-1.0
  0
CIRCLE
  5
1CDE
  8
0
 10
-62.0
 20
12.50000000000011
 30
0.0000000000000218
 40
2.999999999999997
210
2.178911969432793E-15
220
8.681342957760868E-16
230
-1.0
  0
CIRCLE
  5
1CDF
  8
0
 10
-222.0000000000002
 20
52.49999999999966
 30
0.0000000000001988
 40
2.999999999999997
210
3.684842510356892E-15
220
9.873505748861118E-16
230
-1.0
  0
CIRCLE
  5
1CE0
  8
0
 10
-222.0
 20
12.49999999999932
 30
0.0000000000003121
 40
2.999999999999997
210
3.819639659155884E-15
220
-7.016564223722311E-31
230
-1.0
  0
CIRCLE
  5
1CE1
  8
0
 10
-102.0
 20
52.49999999999966
 30
-0.0000000000000589
 40
3.000000000000002
210
2.767998188079587E-15
220
-4.213867096022903E-29
230
-1.0
  0
CIRCLE
  5
1CE2
  8
0
 10
-62.00000000000011
 20
52.5
 30
-0.0000000000000779
 40
2.999999999999996
210
2.507384470913491E-15
220
-3.622334940407083E-16
230
-1.0
  0
CIRCLE
  5
1CE3
  8
0
 10
-102.0
 20
81.50000000000023
 30
0.0000000000002594
 40
2.999999999999998
210
2.491817825275150E-15
220
2.035914847765255E-15
230
-1.0
  0
CIRCLE
  5
1CE4
  8
0
 10
-62.0
 20
121.5000000000002
 30
0.0000000000000616
 40
3.0
210
2.403606926027618E-15
220
3.023175005649623E-16
230
-1.0
  0
CIRCLE
  5
1CE5
  8
0
 10
-102.0
 20
121.5000000000002
 30
0.0000000000000217
 40
2.999999999999997
210
2.231661259819009E-15
220
-4.099495227927749E-31
230
-1.0
  0
CIRCLE
  5
1CE6
  8
0
 10
-62.00000000000011
 20
81.50000000000023
 30
0.0000000000000379
 40
2.999999999999997
210
2.340151121764716E-15
220
-3.461064397351867E-16
230
-1.0
  0
CIRCLE
  5
1CE7
  8
0
 10
-222.0000000000002
 20
81.50000000000023
 30
0.0000000000004215
 40
2.999999999999999
210
-1.648437346009940E-15
220
1.512867123202636E-14
230
-1.0
  0
CIRCLE
  5
1CE8
  8
0
 10
-262.0000000000001
 20
81.50000000000017
 30
-0.0000000000056255
 40
2.999999999999999
210
-1.733511467655573E-14
220
-6.272650953105255E-15
230
-1.0
  0
CIRCLE
  5
1CE9
  8
0
 10
-262.0000000000001
 20
121.5000000000002
 30
-0.0000000000000413
 40
3.0
210
1.599762086086858E-15
220
1.293282494068516E-15
230
-1.0
  0
CIRCLE
  5
1CEA
  8
0
 10
-222.0000000000002
 20
121.5000000000002
 30
0.0000000000000974
 40
2.999999999999997
210
2.819966482547860E-15
220
5.878323715234139E-17
230
-1.0
  0
CIRCLE
  5
1CEB
  8
0
 10
-222.0
 20
81.50000000000023
 30
-10.99999999995693
 40
3.0
210
1.657015262448985E-15
220
4.257812007017010E-17
230
-1.0
  0
CIRCLE
  5
1CEC
  8
0
 10
-222.0000000000003
 20
121.5000000000011
 30
-10.99999999998456
 40
2.999999999999998
210
1.950716118640698E-15
220
1.649578654383049E-17
230
-1.0
  0
CIRCLE
  5
1CED
  8
0
 10
-62.00000000000002
 20
52.50000000000034
 30
-10.99999999928069
 40
2.999999999999998
210
2.003148327330764E-15
220
9.130904802332097E-18
230
-1.0
  0
CIRCLE
  5
1CEE
  8
0
 10
261.9999999999999
 20
12.49999999999932
 30
10.99999999990202
 40
2.999999999999859
  0
CIRCLE
  5
1CEF
  8
0
 10
262.0
 20
12.49999999999932
 30
0.0000000000006627
 40
2.999999999999858
  0
CIRCLE
  5
1CF0
  8
0
 10
262.0000000000001
 20
52.49999999999926
 30
0.0000000000007981
 40
3.000000000000039
  0
CIRCLE
  5
1CF1
  8
0
 10
262.0000000000001
 20
52.4999999999996
 30
10.99999999987436
 40
3.00000000000004
  0
CIRCLE
  5
1CF2
  8
0
 10
101.9999999999999
 20
12.50000000000011
 30
0.000000000000251
 40
2.999999999999858
  0
CIRCLE
  5
1CF3
  8
0
 10
101.9999999999999
 20
12.50000000000011
 30
11.00000000001995
 40
2.999999999999858
  0
CIRCLE
  5
1CF4
  8
0
 10
-102.0
 20
52.5
 30
-10.99999999999232
 40
3.000000000000001
210
7.778645577751656E-16
220
-2.781458414127994E-16
230
-1.0
  0
CIRCLE
  5
1CF5
  8
0
 10
-62.00000000000002
 20
12.50000000000011
 30
-11.00000000004726
 40
2.999999999999997
210
2.051539024039773E-15
220
-9.905100257922591E-17
230
-1.0
  0
CIRCLE
  5
1CF6
  8
0
 10
-222.0000000000001
 20
12.49999999999961
 30
-10.99999999989953
 40
2.999999999999997
210
8.964111361114142E-15
220
2.619084316502129E-14
230
-1.0
  0
CIRCLE
  5
1CF7
  8
0
 10
-222.0000000000002
 20
52.49999999999992
 30
-10.99999999992867
 40
2.999999999999996
210
6.177588675136261E-15
220
-6.939942143534283E-15
230
-1.0
  0
CIRCLE
  5
1CF8
  8
0
 10
-262.0000000000001
 20
121.5000000000011
 30
-10.99999999993682
 40
7.500000000000098
210
1.979203837857800E-15
220
5.728826336518710E-17
230
-1.0
  0
CIRCLE
  5
1CF9
  8
0
 10
-261.9999999999999
 20
81.50000000000063
 30
-10.99999999996451
 40
7.500000000000098
210
2.023454289780933E-15
220
-4.170588291923444E-17
230
-1.0
  0
CIRCLE
  5
1CFA
  8
0
 10
-262.0000000000001
 20
52.4999999999996
 30
-10.99999999987384
 40
7.500000000000099
210
1.950716118640678E-15
220
-1.649578654384092E-17
230
-1.0
  0
CIRCLE
  5
1CFB
  8
0
 10
-261.9999999999999
 20
12.49999999999932
 30
-10.99999999990151
 40
7.49999999999992
210
1.936681079913133E-15
220
-7.559815221996313E-17
230
-1.0
  0
CIRCLE
  5
1CFC
  8
0
 10
-222.0
 20
12.49999999999932
 30
-10.9999999999014
 40
7.499999999999918
210
2.012279232133097E-15
220
-3.696496980933736E-31
230
-1.0
  0
CIRCLE
  5
1CFD
  8
0
 10
-62.00000000000014
 20
121.5000000000011
 30
-10.99999999996424
 40
7.500000000000098
210
1.979203837857800E-15
220
5.728826336518688E-17
230
-1.0
  0
CIRCLE
  5
1CFE
  8
0
 10
-62.00000000000014
 20
81.49999999999989
 30
-10.99999999982479
 40
7.500000000000099
210
1.950716118640678E-15
220
-1.649578654384092E-17
230
-1.0
  0
CIRCLE
  5
1CFF
  8
0
 10
-62.00000000000014
 20
52.5
 30
-10.99999999985276
 40
7.500000000000099
210
1.968367375057534E-15
220
-2.535252250319360E-17
230
-1.0
  0
CIRCLE
  5
1D00
  8
0
 10
-62.00000000000002
 20
12.50000000000011
 30
-11.00000000004727
 40
7.500000000000102
210
1.936681079913115E-15
220
-7.559815221997883E-17
230
-1.0
  0
CIRCLE
  5
1D01
  8
0
 10
-127.0
 20
6.5
 30
-0.0000000002729362
 40
3.000000000000039
210
1.954168599807794E-15
220
-2.938062167172333E-17
230
-1.0
  0
LINE
  5
1D02
  8
0
 10
0.0
 20
134.0000000000002
 30
0.0
 11
423.0
 21
134.0000000000002
 31
0.0000000000008516
  0
LINE
  5
1D03
  8
0
 10
137.0
 20
15.30000000000018
 30
0.0000000000002764
 11
186.0
 21
15.30000000000018
 31
0.0000000000003751
  0
CIRCLE
  5
1D04
  8
0
 10
-196.0
 20
6.5
 30
-0.0000000000880495
 40
3.000000000000042
210
2.136623987936342E-15
220
-5.921400628764304E-17
230
-1.0
  0
LINE
  5
1D05
  8
0
 10
137.0
 20
0.0
 30
0.0000000000002764
 11
137.0
 21
15.30000000000018
 31
0.0000000000002764
  0
LINE
  5
1D06
  8
0
 10
423.0
 20
134.0000000000002
 30
0.0000000000008516
 11
423.0
 21
-0.0000000000001137
 31
0.0000000000008516
  0
LINE
  5
1D07
  8
0
 10
423.0
 20
-0.0000000000001137
 30
0.0000000000008516
 11
186.0
 21
0.0
 31
0.0000000000003751
  0
LINE
  5
1D08
  8
0
 10
186.0
 20
0.0
 30
0.0000000000003751
 11
186.0
 21
15.30000000000018
 31
0.0000000000003751
  0
LINE
  5
1D09
  8
0
 10
137.0
 20
0.0
 30
0.0000000000002764
 11
0.0
 21
0.0
 31
0.0
  0
LINE
  5
1D0A
  8
0
 10
0.0
 20
0.0
 30
0.0
 11
0.0
 21
134.0000000000002
 31
0.0
  0
CIRCLE
  5
1D0B
  8
0
 10
-33.00000000000011
 20
126.5000000000002
 30
-0.0000000000000052
 40
2.999999999999989
210
1.879977655031935E-15
220
3.253724281355418E-18
230
-1.0
  0
CIRCLE
  5
1D0C
  8
0
 10
-33.00000000000011
 20
81.49999999999989
 30
-0.0000000000000025
 40
2.999999999999998
210
1.943017724334103E-15
220
1.223501214508508E-17
230
-1.0
  0
CIRCLE
  5
1D0D
  8
0
 10
-210.0000000000002
 20
89.99999999999943
 30
0.0000000000966943
 40
3.00000000000004
210
2.089824805739249E-15
220
-1.402725676056816E-16
230
-1.0
  0
LINE
  5
1D0E
  8
0
 10
137.0
 20
-50.0
 30
0.0000000000002764
 11
0.0
 21
-50.0
 31
0.0
  0
LINE
  5
1D0F
  8
0
 10
423.0
 20
-50.00000000000011
 30
0.0000000000008516
 11
186.0
 21
-50.0
 31
0.0000000000003751
  0
LINE
  5
1D10
  8
0
 10
137.0
 20
-35.0
 30
0.0000000000002764
 11
0.0
 21
-35.0
 31
0.0
  0
LINE
  5
1D11
  8
0
 10
423.0
 20
-35.00000000000011
 30
0.0000000000008516
 11
186.0
 21
-35.0
 31
0.0000000000003751
  0
LINE
  5
1D12
  8
0
  6
CONTINUOUS
 10
137.0
 20
-35.0
 30
0.0000000000002764
 11
137.0
 21
-50.0
 31
0.0000000000002764
  0
LINE
  5
1D13
  8
0
 10
137.0
 20
-50.0
 30
0.0000000000002764
 11
186.0
 21
-50.0
 31
0.0000000000003751
  0
LINE
  5
1D14
  8
0
  6
CONTINUOUS
 10
186.0
 20
-50.0
 30
0.0000000000003751
 11
186.0
 21
-35.0
 31
0.0000000000003751
  0
LINE
  5
1D15
  8
0
 10
186.0
 20
-35.0
 30
0.0000000000003751
 11
137.0
 21
-35.0
 31
0.0000000000002764
  0
LINE
  5
1D26
  8
0
 10
0.0
 20
-35.0
 30
0.0
 11
0.0
 21
-50.0
 31
0.0
  0
LINE
  5
1D28
  8
0
 10
423.0
 20
-35.00000000000011
 30
0.0000000000008516
 11
423.0
 21
-50.00000000000011
 31
0.0000000000008516
  0
LINE
  5
1D2A
  8
0
  6
AVEVASHORTDASHED
 10
387.0000000000003
 20
-35.0000000000001
 30
0.0000000000007796
 11
387.0000000000003
 21
-50.00000000000009
 31
0.0000000000007796
  0
LINE
  5
1D2B
  8
0
  6
AVEVASHORTDASHED
 10
381.0000000000003
 20
-35.00000000000009
 30
0.0000000000007657
 11
381.0000000000003
 21
-50.00000000000007
 31
0.0000000000007657
  0
LINE
  5
1D2C
  8
0
  6
AVEVASHORTDASHED
 10
374.0000000000005
 20
-35.00000000000007
 30
0.0000000000007523
 11
374.0000000000005
 21
-50.00000000000007
 31
0.0000000000007523
  0
LINE
  5
1D2D
  8
0
  6
AVEVASHORTDASHED
 10
368.0000000000005
 20
-35.00000000000007
 30
0.0000000000007423
 11
368.0000000000005
 21
-50.00000000000007
 31
0.0000000000007423
  0
LINE
  5
1D2E
  8
0
  6
AVEVASHORTDASHED
 10
325.9999999999998
 20
-35.00000000000007
 30
0.0000000000006099
 11
325.9999999999998
 21
-50.00000000000007
 31
0.0000000000006099
  0
LINE
  5
1D2F
  8
0
  6
AVEVASHORTDASHED
 10
319.9999999999998
 20
-35.00000000000006
 30
0.000000000000597
 11
319.9999999999998
 21
-50.00000000000006
 31
0.000000000000597
  0
LINE
  5
1D30
  8
0
  6
AVEVASHORTDASHED
 10
213.0000000000003
 20
-35.00000000000001
 30
-0.0000000000962618
 11
213.0000000000003
 21
-50.0
 31
-0.0000000000962618
  0
LINE
  5
1D31
  8
0
  6
AVEVASHORTDASHED
 10
207.0000000000002
 20
-35.00000000000001
 30
-0.0000000000962743
 11
207.0000000000002
 21
-50.00000000000003
 31
-0.0000000000962743
  0
LINE
  5
1D32
  8
0
  6
AVEVASHORTDASHED
 10
199.0
 20
-35.0
 30
0.0000000000884744
 11
199.0
 21
-50.00000000000001
 31
0.0000000000884744
  0
LINE
  5
1D33
  8
0
  6
AVEVASHORTDASHED
 10
193.0
 20
-35.0
 30
0.0000000000884615
 11
193.0
 21
-50.00000000000001
 31
0.0000000000884615
  0
LINE
  5
1D34
  8
0
  6
AVEVASHORTDASHED
 10
130.0
 20
-35.0
 30
0.0000000002731901
 11
130.0
 21
-50.0
 31
0.0000000002731901
  0
LINE
  5
1D35
  8
0
  6
AVEVASHORTDASHED
 10
124.0
 20
-35.0
 30
0.0000000002731784
 11
124.0
 21
-50.0
 31
0.0000000002731784
  0
LINE
  5
1D36
  8
0
  6
AVEVASHORTDASHED
 10
36.00000000000011
 20
-35.0
 30
0.0000000000000717
 11
36.00000000000011
 21
-50.0
 31
0.0000000000000717
  0
LINE
  5
1D37
  8
0
  6
AVEVASHORTDASHED
 10
30.00000000000012
 20
-35.0
 30
0.0000000000000637
 11
30.00000000000012
 21
-49.99999999999999
 31
0.0000000000000637
  0
LINE
  5
1D38
  8
0
  6
AVEVASHORTDASHED
 10
13.00000000000034
 20
-35.0
 30
0.0000000000000262
 11
13.00000000000034
 21
-50.00000000000001
 31
0.0000000000000262
  0
LINE
  5
1D39
  8
0
  6
AVEVASHORTDASHED
 10
7.000000000000341
 20
-35.0
 30
0.0000000000000132
 11
7.000000000000341
 21
-50.0
 31
0.0000000000000132
  0
LINE
  5
1D3E
  8
0
  6
AVEVASHORTDASHED
 10
65.00000000000095
 20
-42.0
 30
-1.764705882385661
 11
65.00000000000095
 21
-50.0
 31
-1.764705882352802
  0
LINE
  5
1D3F
  8
0
  6
AVEVASHORTDASHED
 10
54.49999999999994
 20
-42.0
 30
-1.764705882352802
 11
69.50000000000014
 21
-42.0
 31
-1.764705882352802
  0
LINE
  5
1D40
  8
0
  6
AVEVASHORTDASHED
 10
59.00000000000004
 20
-42.0
 30
-0.8235294117645813
 11
59.00000000000004
 21
-50.0
 31
-1.764705882352802
  0
LINE
  5
1D41
  8
0
  6
AVEVASHORTDASHED
 10
69.50000000000014
 20
-35.0
 30
0.0000000000001039
 11
69.50000000000014
 21
-42.0
 31
-0.8235294117645839
  0
LINE
  5
1D42
  8
0
  6
AVEVASHORTDASHED
 10
54.49999999999994
 20
-35.0
 30
0.0000000000001137
 11
54.49999999999994
 21
-42.0
 31
-0.8235294117645795
  0
LINE
  5
1D43
  8
0
  6
AVEVASHORTDASHED
 10
105.000000000001
 20
-42.0
 30
-1.764705882385584
 11
105.000000000001
 21
-50.0
 31
-1.764705882352725
  0
LINE
  5
1D44
  8
0
  6
AVEVASHORTDASHED
 10
94.49999999999996
 20
-42.0
 30
-1.764705882352725
 11
109.5000000000001
 21
-42.0
 31
-1.764705882352725
  0
LINE
  5
1D45
  8
0
  6
AVEVASHORTDASHED
 10
99.00000000000006
 20
-42.0
 30
-0.8235294117645043
 11
99.00000000000006
 21
-50.0
 31
-1.764705882352725
  0
LINE
  5
1D46
  8
0
  6
AVEVASHORTDASHED
 10
109.5000000000001
 20
-35.0
 30
0.0000000000001809
 11
109.5000000000001
 21
-42.0
 31
-0.823529411764507
  0
LINE
  5
1D47
  8
0
  6
AVEVASHORTDASHED
 10
94.49999999999996
 20
-35.0
 30
0.0000000000001907
 11
94.49999999999996
 21
-42.0
 31
-0.8235294117645026
  0
LINE
  5
1D48
  8
0
  6
AVEVASHORTDASHED
 10
225.0000000000011
 20
-42.0
 30
-1.764705882385345
 11
225.0000000000011
 21
-50.0
 31
-1.764705882352486
  0
LINE
  5
1D49
  8
0
  6
AVEVASHORTDASHED
 10
214.5000000000001
 20
-42.0
 30
-1.764705882352486
 11
229.5000000000003
 21
-42.0
 31
-1.764705882352486
  0
LINE
  5
1D4A
  8
0
  6
AVEVASHORTDASHED
 10
219.0000000000002
 20
-42.0
 30
-0.8235294117642651
 11
219.0000000000002
 21
-50.0
 31
-1.764705882352486
  0
LINE
  5
1D4B
  8
0
  6
AVEVASHORTDASHED
 10
229.5000000000003
 20
-35.0
 30
0.0000000000004201
 11
229.5000000000003
 21
-42.0
 31
-0.8235294117642677
  0
LINE
  5
1D4C
  8
0
  6
AVEVASHORTDASHED
 10
214.5000000000001
 20
-35.0
 30
0.0000000000004299
 11
214.5000000000001
 21
-42.0
 31
-0.8235294117642633
  0
LINE
  5
1D4D
  8
0
  6
AVEVASHORTDASHED
 10
265.000000000001
 20
-42.00000000000006
 30
-1.764705882385262
 11
265.000000000001
 21
-50.00000000000006
 31
-1.764705882352403
  0
LINE
  5
1D4E
  8
0
  6
AVEVASHORTDASHED
 10
254.4999999999999
 20
-42.00000000000006
 30
-1.764705882352403
 11
269.5000000000001
 21
-42.00000000000006
 31
-1.764705882352403
  0
LINE
  5
1D4F
  8
0
  6
AVEVASHORTDASHED
 10
259.0000000000001
 20
-42.00000000000006
 30
-0.8235294117641822
 11
259.0000000000001
 21
-50.00000000000006
 31
-1.764705882352403
  0
LINE
  5
1D50
  8
0
  6
AVEVASHORTDASHED
 10
269.5000000000001
 20
-35.00000000000006
 30
0.000000000000503
 11
269.5000000000001
 21
-42.00000000000006
 31
-0.8235294117641848
  0
LINE
  5
1D51
  8
0
  6
AVEVASHORTDASHED
 10
254.4999999999999
 20
-35.00000000000006
 30
0.0000000000005128
 11
254.4999999999999
 21
-42.00000000000006
 31
-0.8235294117641804
  0
CIRCLE
  5
1DC1
  8
0
 10
-10.04268953762892
 20
372.8190049720309
 30
0.0000000000000412
 40
3.0
210
2.175401231199696E-15
220
1.046906892002465E-16
230
-1.0
  0
CIRCLE
  5
1DC2
  8
0
 10
-10.04268953762892
 20
418.8190049720306
 30
-0.0000000000000384
 40
2.999999999999997
210
1.950716118640701E-15
220
1.649578654383610E-17
230
-1.0
  0
CIRCLE
  5
1DC3
  8
0
 10
-33.04268953762869
 20
336.3190049720309
 30
0.0000000000001238
 40
2.999999999999998
210
1.338156416317502E-15
220
4.377772465043576E-16
230
-1.0
  0
CIRCLE
  5
1DC5
  8
0
 10
-33.04268953762869
 20
381.3190049720301
 30
0.0000000000001879
 40
2.999999999999993
210
1.889625147665894E-15
220
5.063235323147082E-16
230
-1.0
  0
CIRCLE
  5
1DC9
  8
0
 10
-102.0426895376286
 20
410.3190049720311
 30
-10.9999999999644
 40
7.500000000000099
210
1.879977655031907E-15
220
-3.453462926555057E-31
230
-1.0
  0
CIRCLE
  5
1DCA
  8
0
 10
102.0426895376286
 20
381.3190049720312
 30
10.99999999999238
 40
7.500000000000098
  0
CIRCLE
  5
1DCB
  8
0
 10
-102.0426895376285
 20
341.3190049720313
 30
-11.0000000000197
 40
7.499999999999917
210
1.974796887631989E-15
220
1.398860140649338E-16
230
-1.0
  0
CIRCLE
  5
1DCF
  8
0
 10
-102.0426895376286
 20
450.3190049720314
 30
-10.99999999993666
 40
7.500000000000102
210
1.974796887631989E-15
220
-1.398860140649346E-16
230
-1.0
  0
CIRCLE
  5
1DD0
  8
0
 10
-62.04268953762892
 20
450.3190049720324
 30
-10.99999999995989
 40
3.0
210
2.058957450688646E-14
220
7.107201707004924E-15
230
-1.0
  0
CIRCLE
  5
1DD1
  8
0
 10
-102.0426895376284
 20
410.3190049720321
 30
-10.99999999995672
 40
3.000000000000001
210
-1.805063590274775E-14
220
2.322603426380083E-14
230
-1.0
  0
CIRCLE
  5
1DD4
  8
0
 10
-102.0426895376286
 20
450.3190049720314
 30
-10.99999999993641
 40
2.999999999999997
210
2.214201044736791E-15
220
3.497388385859783E-16
230
-1.0
  0
CIRCLE
  5
1DD5
  8
0
 10
-62.04268953762871
 20
410.3190049720311
 30
-10.99999999982472
 40
2.999999999999997
210
1.985486776745474E-15
220
1.462616492034839E-16
230
-1.0
  0
CIRCLE
  5
1DD8
  8
0
 10
-62.04268953762858
 20
341.3190049720313
 30
0.0000000000003074
 40
2.999999999999997
210
2.178911969432793E-15
220
8.681342957760868E-16
230
-1.0
  0
CIRCLE
  5
1DDB
  8
0
 10
-102.0426895376286
 20
381.3190049720308
 30
-0.0000000000000588
 40
3.000000000000002
210
2.767998188079587E-15
220
-4.213867096022903E-29
230
-1.0
  0
CIRCLE
  5
1DDC
  8
0
 10
-62.04268953762869
 20
381.3190049720312
 30
-0.0000000000001969
 40
2.999999999999996
210
2.507384470913491E-15
220
-3.622334940407083E-16
230
-1.0
  0
CIRCLE
  5
1DDD
  8
0
 10
-102.0426895376286
 20
410.3190049720314
 30
0.0000000000009289
 40
2.999999999999998
210
2.491817825275150E-15
220
2.035914847765255E-15
230
-1.0
  0
CIRCLE
  5
1DDE
  8
0
 10
-62.04268953762858
 20
450.3190049720314
 30
0.0000000000001612
 40
3.0
210
2.403606926027618E-15
220
3.023175005649623E-16
230
-1.0
  0
CIRCLE
  5
1DDF
  8
0
 10
-102.0426895376286
 20
450.3190049720314
 30
0.0000000000000218
 40
2.999999999999997
210
2.231661259819009E-15
220
-4.099495227927749E-31
230
-1.0
  0
CIRCLE
  5
1DE0
  8
0
 10
-62.04268953762869
 20
410.3190049720314
 30
-0.0000000000000758
 40
2.999999999999997
210
2.340151121764716E-15
220
-3.461064397351867E-16
230
-1.0
  0
CIRCLE
  5
1DE7
  8
0
 10
-62.0426895376286
 20
381.3190049720315
 30
-10.99999999928068
 40
2.999999999999998
210
2.003148327330764E-15
220
9.130904802332097E-18
230
-1.0
  0
CIRCLE
  5
1DEC
  8
0
 10
102.0426895376285
 20
341.3190049720313
 30
0.000000000000251
 40
2.999999999999858
  0
CIRCLE
  5
1DED
  8
0
 10
102.0426895376285
 20
341.3190049720313
 30
11.00000000001995
 40
2.999999999999858
  0
CIRCLE
  5
1DEE
  8
0
 10
-102.0426895376286
 20
381.3190049720312
 30
-10.99999999999241
 40
3.000000000000001
210
7.778645577751656E-16
220
-2.781458414127994E-16
230
-1.0
  0
CIRCLE
  5
1DEF
  8
0
 10
-62.0426895376286
 20
341.3190049720313
 30
-11.0000000000473
 40
2.999999999999997
210
2.051539024039773E-15
220
-9.905100257922591E-17
230
-1.0
  0
CIRCLE
  5
1DF7
  8
0
 10
-62.04268953762871
 20
450.3190049720323
 30
-10.99999999996422
 40
7.500000000000098
210
1.979203837857800E-15
220
5.728826336518688E-17
230
-1.0
  0
CIRCLE
  5
1DF8
  8
0
 10
-62.04268953762871
 20
410.3190049720311
 30
-10.99999999982479
 40
7.500000000000099
210
1.950716118640678E-15
220
-1.649578654384092E-17
230
-1.0
  0
CIRCLE
  5
1DF9
  8
0
 10
-62.04268953762871
 20
381.3190049720312
 30
-10.99999999985276
 40
7.500000000000099
210
1.968367375057534E-15
220
-2.535252250319360E-17
230
-1.0
  0
CIRCLE
  5
1DFA
  8
0
 10
-62.0426895376286
 20
341.3190049720313
 30
-11.0000000000473
 40
7.500000000000102
210
1.936681079913115E-15
220
-7.559815221997883E-17
230
-1.0
  0
CIRCLE
  5
1DFB
  8
0
 10
-127.0426895376286
 20
335.3190049720312
 30
-0.0000000002729458
 40
3.000000000000039
210
1.954168599807794E-15
220
-2.938062167172333E-17
230
-1.0
  0
LINE
  5
1DFC
  8
0
 10
0.0426895376285756
 20
462.8190049720314
 30
0.0
 11
220.0426895376286
 21
462.8190049720313
 31
0.0000000000004429
  0
LINE
  5
1DFD
  8
0
 10
137.0426895376286
 20
344.1190049720313
 30
0.0000000000002764
 11
186.0426895376286
 21
344.1190049720313
 31
0.0000000000003751
  0
CIRCLE
  5
1DFE
  8
0
 10
-196.0426895376286
 20
335.3190049720312
 30
-0.0000000000880689
 40
3.000000000000042
210
2.136623987936342E-15
220
-5.921400628764304E-17
230
-1.0
  0
LINE
  5
1DFF
  8
0
 10
137.0426895376286
 20
328.8190049720312
 30
0.0000000000002764
 11
137.0426895376286
 21
344.1190049720313
 31
0.0000000000002764
  0
LINE
  5
1E01
  8
0
 10
220.0426895376286
 20
328.8190049720312
 30
0.0000000000004435
 11
186.0426895376286
 21
328.8190049720312
 31
0.0000000000003751
  0
LINE
  5
1E02
  8
0
 10
186.0426895376286
 20
328.8190049720312
 30
0.0000000000003751
 11
186.0426895376286
 21
344.1190049720313
 31
0.0000000000003751
  0
LINE
  5
1E03
  8
0
 10
137.0426895376286
 20
328.8190049720312
 30
0.0000000000002764
 11
0.0426895376285756
 21
328.8190049720312
 31
0.0
  0
LINE
  5
1E04
  8
0
 10
0.0426895376285756
 20
328.8190049720312
 30
0.0
 11
0.0426895376285756
 21
462.8190049720314
 31
0.0
  0
CIRCLE
  5
1E05
  8
0
 10
-33.04268953762869
 20
455.3190049720314
 30
-0.0000000000000041
 40
2.999999999999989
210
1.879977655031935E-15
220
3.253724281355418E-18
230
-1.0
  0
CIRCLE
  5
1E06
  8
0
 10
-33.04268953762869
 20
410.3190049720311
 30
0.0000000000000016
 40
2.999999999999998
210
1.943017724334103E-15
220
1.223501214508508E-17
230
-1.0
  0
CIRCLE
  5
1E07
  8
0
 10
-210.0426895376288
 20
418.8190049720306
 30
0.0000000000966483
 40
3.00000000000004
210
2.089824805739249E-15
220
-1.402725676056816E-16
230
-1.0
  0
CIRCLE
  5
1E61
  8
0
 10
-171.0426895376291
 20
567.4957962164683
 30
-0.000000000096595
 40
2.999999999999999
210
1.678510484549289E-15
220
3.491655361970004E-16
230
-1.0
  0
CIRCLE
  5
1E62
  8
0
 10
-171.0426895376291
 20
613.4957962164683
 30
-0.0000000000967983
 40
3.0
210
1.949089256500020E-15
220
-1.042425437791236E-17
230
-1.0
  0
CIRCLE
  5
1E63
  8
0
 10
-123.0426895376285
 20
575.9957962164692
 30
-0.0000000001873686
 40
3.00000000000004
210
1.317124011935641E-15
220
4.013480535095750E-16
230
-1.0
  0
CIRCLE
  5
1E64
  8
0
 10
-123.0426895376285
 20
530.9957962164694
 30
-0.0000000000966887
 40
2.999999999999999
210
2.152210620220622E-15
220
-3.221716725262979E-17
230
-1.0
  0
CIRCLE
  5
1E65
  8
0
 10
-184.0426895376291
 20
613.4957962164683
 30
-0.0000000000967447
 40
2.999999999999992
210
1.879977655031907E-15
220
2.428612866367496E-17
230
-1.0
  0
CIRCLE
  5
1E66
  8
0
 10
-184.042689537629
 20
567.4957962164683
 30
-0.0000000000964831
 40
2.999999999999993
210
2.311198435755160E-15
220
3.474914609494141E-16
230
-1.0
  0
CIRCLE
  5
1E67
  8
0
 10
-22.04268953762883
 20
575.995796216469
 30
-11.00000000002598
 40
7.500000000000099
210
2.132308015624843E-15
220
-3.216161560510688E-17
230
-1.0
  0
CIRCLE
  5
1E68
  8
0
 10
-22.04268953762871
 20
604.9957962164692
 30
-11.00000000005351
 40
7.500000000000098
210
2.073202720609393E-15
220
1.055225774152841E-16
230
-1.0
  0
CIRCLE
  5
1E69
  8
0
 10
-22.04268953762894
 20
644.9957962164701
 30
-11.00000000008128
 40
7.500000000000098
210
2.012279232133096E-15
220
-3.696496980933734E-31
230
-1.0
  0
CIRCLE
  5
1E6A
  8
0
 10
-62.0426895376284
 20
604.9957962164698
 30
-11.00000000005587
 40
2.999999999999997
210
-1.616437732643177E-14
220
1.075256281540243E-14
230
-1.0
  0
CIRCLE
  5
1E6B
  8
0
 10
-62.04268953762896
 20
644.9957962164701
 30
-11.00000000003194
 40
2.999999999999998
210
3.606288332926432E-15
220
2.486319309307619E-15
230
-1.0
  0
CIRCLE
  5
1E6C
  8
0
 10
-123.0426895376287
 20
649.9957962164692
 30
-0.0000000000969939
 40
2.999999999999991
210
1.663113695936011E-15
220
-3.337687475838649E-16
230
-1.0
  0
CIRCLE
  5
1E6D
  8
0
 10
-123.0426895376286
 20
604.9957962164681
 30
-0.0000000000964294
 40
2.999999999999999
210
2.092038295389939E-15
220
4.125880711942123E-16
230
-1.0
  0
CIRCLE
  5
1E6E
  8
0
 10
-22.04268953762892
 20
575.9957962164686
 30
-0.0000000000963541
 40
2.999999999999997
210
3.684842510356892E-15
220
9.873505748861118E-16
230
-1.0
  0
CIRCLE
  5
1E6F
  8
0
 10
-22.04268953762869
 20
535.9957962164683
 30
-0.0000000000967846
 40
2.999999999999997
210
3.819639659155884E-15
220
-7.016564223722311E-31
230
-1.0
  0
CIRCLE
  5
1E70
  8
0
 10
-22.04268953762892
 20
604.9957962164692
 30
-0.000000000087662
 40
2.999999999999999
210
-1.648437346009940E-15
220
1.512867123202636E-14
230
-1.0
  0
CIRCLE
  5
1E71
  8
0
 10
-62.0426895376288
 20
604.9957962164692
 30
-0.0000000001017758
 40
2.999999999999999
210
-1.733511467655573E-14
220
-6.272650953105255E-15
230
-1.0
  0
CIRCLE
  5
1E72
  8
0
 10
-62.0426895376288
 20
644.9957962164692
 30
-0.0000000000960171
 40
3.0
210
1.599762086086858E-15
220
1.293282494068516E-15
230
-1.0
  0
CIRCLE
  5
1E73
  8
0
 10
-22.04268953762892
 20
644.9957962164692
 30
-0.0000000000967687
 40
2.999999999999997
210
2.819966482547860E-15
220
5.878323715234139E-17
230
-1.0
  0
CIRCLE
  5
1E74
  8
0
 10
-22.04268953762871
 20
604.9957962164692
 30
-11.00000000005357
 40
3.0
210
1.657015262448985E-15
220
4.257812007017010E-17
230
-1.0
  0
CIRCLE
  5
1E75
  8
0
 10
-22.04268953762894
 20
644.9957962164701
 30
-11.00000000008128
 40
2.999999999999998
210
1.950716118640698E-15
220
1.649578654383049E-17
230
-1.0
  0
CIRCLE
  5
1E76
  8
0
 10
62.04268953762858
 20
535.9957962164683
 30
10.99999999999835
 40
2.999999999999859
  0
CIRCLE
  5
1E77
  8
0
 10
62.04268953762869
 20
535.9957962164683
 30
0.0000000000969956
 40
2.999999999999858
  0
CIRCLE
  5
1E78
  8
0
 10
62.0426895376288
 20
575.9957962164683
 30
0.000000000097131
 40
3.000000000000039
  0
CIRCLE
  5
1E79
  8
0
 10
62.0426895376288
 20
575.9957962164685
 30
10.99999999997069
 40
3.00000000000004
  0
CIRCLE
  5
1E7A
  8
0
 10
-22.04268953762879
 20
535.9957962164686
 30
-10.99999999998394
 40
2.999999999999997
210
8.964111361114142E-15
220
2.619084316502129E-14
230
-1.0
  0
CIRCLE
  5
1E7B
  8
0
 10
-22.04268953762887
 20
575.9957962164689
 30
-11.00000000002987
 40
2.999999999999996
210
6.177588675136261E-15
220
-6.939942143534283E-15
230
-1.0
  0
CIRCLE
  5
1E7C
  8
0
 10
-62.04268953762882
 20
644.9957962164701
 30
-11.00000000003352
 40
7.500000000000098
210
1.979203837857800E-15
220
5.728826336518710E-17
230
-1.0
  0
CIRCLE
  5
1E7D
  8
0
 10
-62.0426895376286
 20
604.9957962164697
 30
-11.00000000006128
 40
7.500000000000098
210
2.023454289780933E-15
220
-4.170588291923444E-17
230
-1.0
  0
CIRCLE
  5
1E7E
  8
0
 10
-62.04268953762882
 20
575.9957962164685
 30
-10.99999999997057
 40
7.500000000000099
210
1.950716118640678E-15
220
-1.649578654384092E-17
230
-1.0
  0
CIRCLE
  5
1E7F
  8
0
 10
-62.0426895376286
 20
535.9957962164683
 30
-10.99999999999827
 40
7.49999999999992
210
1.936681079913133E-15
220
-7.559815221996313E-17
230
-1.0
  0
CIRCLE
  5
1E80
  8
0
 10
-22.04268953762871
 20
535.9957962164683
 30
-10.99999999999813
 40
7.499999999999918
210
2.012279232133097E-15
220
-3.696496980933736E-31
230
-1.0
  0
LINE
  5
1E81
  8
0
 10
4.042689537628888
 20
657.4957962164692
 30
0.0000000000967436
 11
223.0426895376287
 21
657.4957962164692
 31
0.0000000000971845
  0
LINE
  5
1E82
  8
0
 10
223.0426895376287
 20
657.4957962164692
 30
0.0000000000971845
 11
223.0426895376287
 21
523.4957962164689
 31
0.0000000000971845
  0
LINE
  5
1E83
  8
0
 10
223.0426895376287
 20
523.4957962164689
 30
0.0000000000971845
 11
4.04268953762886
 21
523.495796216469
 31
0.0000000000967442
  0
CIRCLE
  5
1E84
  8
0
 10
-10.04268953762892
 20
613.4957962164684
 30
-0.00000000000013
 40
3.00000000000004
210
2.089824805739249E-15
220
-1.402725676056816E-16
230
-1.0
  0
LINE
  5
1E86
  8
0
  6
AVEVASHORTDASHED
 10
0.0426895376285756
 20
523.495796216469
 30
0.0
 11
0.0426895376285756
 21
535.4421735712187
 31
0.0
  0
LINE
  5
1E8D
  8
0
  6
AVEVASHORTDASHED
 10
0.0426895376285756
 20
523.495796216469
 30
0.0000000000967362
 11
-13.95731046237131
 21
523.495796216469
 31
0.000000000096708
  0
TEXT
  5
1EC4
  8
-300
  6
CONTINUOUS
 62
     7
 10
-221.1972444554907
 20
400.3344962578707
 30
0.0
 40
30.0
  1
Parte 1
  0
TEXT
  5
1EEB
  8
-300
  6
CONTINUOUS
 62
     7
 10
-215.9047396290277
 20
586.5878043145115
 30
0.0
 40
30.0
  1
Parte 2
  0
LINE
  5
1EEC
  8
0
  6
AVEVASHORTDASHED
 10
6.672169554953584
 20
422.864086393406
 30
0.0000000000000649
 11
-26.2903686702786
 21
453.0396015792993
 31
0.0
  0
LINE
  5
1EED
  8
0
  6
AVEVASHORTDASHED
 10
-26.2903686702786
 20
453.0396015792993
 30
0.0
 11
-83.08088355858719
 21
453.0396015792993
 31
0.0
  0
TEXT
  5
1F14
  8
-300
  6
CONTINUOUS
 62
     7
 10
-82.16472726604978
 20
455.0643718427496
 30
0.0
 40
3.75
  1
Ponto Referencia
  0
LINE
  5
1F3D
  8
0
  6
AVEVASHORTDASHED
 10
6.691645671498918
 20
617.7394798837074
 30
0.0000000000000649
 11
-26.27089255373326
 21
647.9149950696008
 31
0.0
  0
LINE
  5
1F3E
  8
0
  6
AVEVASHORTDASHED
 10
-26.27089255373326
 20
647.9149950696008
 30
0.0
 11
-83.06140744204185
 21
647.9149950696008
 31
0.0
  0
TEXT
  5
1F3F
  8
-300
  6
CONTINUOUS
 62
     7
 10
-82.14525114950445
 20
649.9397653330509
 30
0.0
 40
3.75
  1
Ponto Referencia
  0
LINE
  5
2072
  8
-300
  6
AVEVASOLIDXWIDE
 62
    92
 10
307.7874090472303
 20
-87.93593499299595
 30
0.0
 11
404.3873846331679
 21
-87.93593499299595
 31
0.0
  0
LINE
  5
2073
  8
-300
  6
AVEVASOLIDXWIDE
 62
    92
 10
307.7874090472303
 20
-87.93593499299595
 30
0.0
 11
440.6716490570431
 21
-87.93593499299595
 31
0.0
  0
TEXT
  5
2074
  8
-300
  6
CONTINUOUS
 62
    92
 10
341.0017821044023
 20
-108.4054927430519
 30
0.0
 40
3.125
  1
Verif:
  0
TEXT
  5
2075
  8
-300
  6
CONTINUOUS
 62
    92
 10
308.7358912135114
 20
-108.3523143264552
 30
0.0
 40
3.125
  1
Exec:
  0
TEXT
  5
2076
  8
-300
  6
CONTINUOUS
 62
    92
 10
308.4023164961831
 20
-97.3390359604032
 30
0.0
 40
3.125
  1
Material:
  0
TEXT
  5
2077
  8
-300
  6
CONTINUOUS
 62
    92
 10
403.4475232504004
 20
-94.68391320344517
 30
0.0
 40
3.125
  1
Rev:
  0
TEXT
  5
2078
  8
-300
  6
CONTINUOUS
 62
    92
 10
403.4537795066566
 20
-104.6839132034452
 30
0.0
 40
3.125
  1
Data:
  0
TEXT
  5
2079
  8
-300
  6
CONTINUOUS
 62
    92
 10
373.020550873171
 20
-108.3833347267048
 30
0.0
 40
3.125
  1
Aprov:
  0
TEXT
  5
207A
  8
-300
  6
CONTINUOUS
 62
     7
 10
326.644356019873
 20
-108.3182128402492
 30
0.0
 40
3.125
  1
DR
  0
TEXT
  5
207B
  8
-300
  6
CONTINUOUS
 62
     7
 10
358.6443560198731
 20
-108.3182149860163
 30
0.0
 40
3.125
  1
DR
  0
TEXT
  5
207C
  8
-300
  6
CONTINUOUS
 62
     7
 10
390.6443560198731
 20
-108.3492351478475
 30
0.0
 40
3.125
  1
DR
  0
TEXT
  5
207D
  8
-300
  6
CONTINUOUS
 62
     7
 10
421.5477715342104
 20
-94.81367615178017
 30
0.0
 40
3.130000114440918
  1
0
  0
TEXT
  5
207E
  8
-300
  6
CONTINUOUS
 62
     7
 10
418.0015730596028
 20
-104.8543237043162
 30
0.0
 40
3.125
  1
03/05/15
  0
LINE
  5
207F
  8
-300
  6
AVEVASOLID
 62
    92
 10
401.1249591702069
 20
-98.93593499299597
 30
0.0
 11
432.7140399807537
 21
-98.93593499299597
 31
0.0
  0
LINE
  5
2080
  8
-300
  6
AVEVASOLID
 62
    92
 10
307.7874090472303
 20
-87.93593499299595
 30
0.0
 11
307.7874090472303
 21
-109.9359354698331
 31
0.0
  0
LINE
  5
2081
  8
-300
  6
AVEVASOLID
 62
    92
 10
401.1249591702069
 20
-109.9359354698331
 30
0.0
 11
401.1249591702069
 21
-87.93593499299595
 31
0.0
  0
LINE
  5
2082
  8
-300
  6
AVEVASOLID
 62
    92
 10
401.1249591702069
 20
-98.93593499299597
 30
0.0
 11
440.6716490570431
 21
-98.93593499299597
 31
0.0
  0
LINE
  5
2083
  8
-300
  6
AVEVASOLID
 62
    92
 10
307.7874090472303
 20
-93.43593499299595
 30
0.0
 11
401.1249591702069
 21
-93.43593499299595
 31
0.0
  0
LINE
  5
2084
  8
-300
  6
AVEVASOLID
 62
    92
 10
307.7874090472303
 20
-93.43593499299595
 30
0.0
 11
401.1249591702069
 21
-93.43593499299595
 31
0.0
  0
LINE
  5
2085
  8
-300
  6
AVEVASOLID
 62
    92
 10
307.7874090472303
 20
-98.93593499299597
 30
0.0
 11
401.1249591702069
 21
-98.93593499299597
 31
0.0
  0
LINE
  5
2086
  8
-300
  6
AVEVASOLID
 62
    92
 10
307.7874090472303
 20
-98.93593499299597
 30
0.0
 11
401.1249591702069
 21
-98.93593499299597
 31
0.0
  0
LINE
  5
2087
  8
-300
  6
AVEVASOLID
 62
    92
 10
307.7874090472303
 20
-104.435934992996
 30
0.0
 11
401.1249591702069
 21
-104.435934992996
 31
0.0
  0
LINE
  5
2088
  8
-300
  6
AVEVASOLID
 62
    92
 10
307.7874090472303
 20
-104.435934992996
 30
0.0
 11
401.1249591702069
 21
-104.435934992996
 31
0.0
  0
TEXT
  5
2089
  8
-300
  6
CONTINUOUS
 62
     7
 10
332.774672312438
 20
-97.40241273172101
 30
0.0
 40
3.125
  1
MDF ou Alumínio 6061
  0
TEXT
  5
208A
  8
-300
  6
CONTINUOUS
 62
     7
 10
322.774672312438
 20
-91.90241273172101
 30
0.0
 40
3.125
  1
Fabricar-Y-mesa
  0
TEXT
  5
208B
  8
-300
  6
CONTINUOUS
 62
    92
 10
308.4023164961831
 20
-91.8390359604032
 30
0.0
 40
3.125
  1
Nome:
  0
LINE
  5
208C
  8
-300
  6
AVEVASOLIDXWIDE
 62
    92
 10
307.7874090472303
 20
-87.93593499299595
 30
0.0
 11
440.6716490570431
 21
-87.93593499299595
 31
0.0
  0
TEXT
  5
208D
  8
-300
  6
CONTINUOUS
 62
    92
 10
308.4023164961831
 20
-102.8390359604032
 30
0.0
 40
3.125
  1
Qtd:
  0
LINE
  5
208E
  8
-300
  6
AVEVASOLIDXWIDE
 62
    92
 10
307.7874090472303
 20
-87.93593499299595
 30
0.0
 11
401.1249591702069
 21
-87.93593499299595
 31
0.0
  0
LINE
  5
208F
  8
-300
  6
AVEVASOLID
 62
    92
 10
401.1249591702069
 20
-109.9359354698331
 30
0.0
 11
401.1249591702069
 21
-87.93593499299595
 31
0.0
  0
LINE
  5
2090
  8
-300
  6
AVEVASOLID
 62
    92
 10
307.7874090472303
 20
-87.93593499299595
 30
0.0
 11
307.7874090472303
 21
-109.9359354698331
 31
0.0
  0
LINE
  5
2091
  8
-300
  6
AVEVASOLIDXWIDE
 62
    92
 10
307.7874090472303
 20
-87.93593499299595
 30
0.0
 11
401.1249591702069
 21
-87.93593499299595
 31
0.0
  0
TEXT
  5
2092
  8
-300
  6
CONTINUOUS
 62
     7
 10
320.7687910746309
 20
-102.902412731721
 30
0.0
 40
3.125
  1
1
  0
DIMENSION
  5
2138
  8
COTAS
  2
*D4
 10
61.01890539097867
 20
118.6649597237168
 30
0.0000000000001209
 11
63.81720977983086
 21
126.4027566542968
 31
0.0
 70
   163
  1
<>
  3
ISO-25
 15
62.98109460902133
 25
124.3350402762836
 35
0.0000000000001274
 40
0.0
1001
ACAD
1000
DSTYLE
1002
{
1070
   287
1070
     5
1070
   171
1070
     2
1070
   143
1040
25.4
1070
    41
1040
0.18
1070
   141
1040
0.09
1070
   271
1070
     1
1070
    46
1040
0.38
1070
    43
1040
0.38
1070
    44
1040
0.18
1070
   147
1040
0.09
1070
    40
1040
10.0
1070
    77
1070
     0
1070
   279
1070
     2
1070
   140
1040
0.18
1002
}
1001
ACAD_DSTYLE_DIMRADIAL_EXTE
1070
   387
1070
     1
1070
   388
1040
0.0
1070
   390
1040
6.283185307179586
  0
DIMENSION
  5
2144
  8
COTAS
  2
*D5
 10
54.96727174668051
 20
118.8940964494142
 30
10.99999999996436
 11
72.02747129037692
 21
126.181852757152
 31
0.0
 70
   163
  1
<>
  3
ISO-25
 15
69.03272825331973
 25
124.105903550588
 35
10.99999999996438
 40
0.0
1001
ACAD
1000
DSTYLE
1002
{
1070
   287
1070
     5
1070
   171
1070
     2
1070
   143
1040
25.4
1070
    41
1040
0.18
1070
   141
1040
0.09
1070
   271
1070
     1
1070
    46
1040
0.38
1070
    43
1040
0.38
1070
    44
1040
0.18
1070
   147
1040
0.09
1070
    40
1040
10.0
1070
    77
1070
     0
1070
   279
1070
     2
1070
   140
1040
0.18
1002
}
1001
ACAD_DSTYLE_DIMRADIAL_EXTE
1070
   387
1070
     1
1070
   388
1040
0.0
1070
   390
1040
6.283185307179586
  0
DIMENSION
  5
2150
  8
COTAS
  2
*D6
 10
31.65819740636035
 20
123.8167993366689
 30
0.0000000000000651
 11
37.86633969079097
 21
130.1200193767152
 31
0.0
 70
   163
  1
<>
  3
ISO-25
 15
34.34180259363987
 25
129.1832006633315
 35
0.0000000000000702
 40
0.0
1001
ACAD
1000
DSTYLE
1002
{
1070
   287
1070
     5
1070
   171
1070
     2
1070
   143
1040
25.4
1070
    41
1040
0.18
1070
   141
1040
0.09
1070
   271
1070
     1
1070
    46
1040
0.38
1070
    43
1040
0.38
1070
    44
1040
0.18
1070
   147
1040
0.09
1070
    40
1040
10.0
1070
    77
1070
     0
1070
   279
1070
     2
1070
   140
1040
0.18
1002
}
1001
ACAD_DSTYLE_DIMRADIAL_EXTE
1070
   387
1070
     1
1070
   388
1040
0.0
1070
   390
1040
6.283185307179586
  0
DIMENSION
  5
215C
  8
COTAS
  2
*D7
 10
8.215527642856419
 20
87.58843237569586
 30
0.0000000000000614
 11
14.00722593183903
 21
94.91856634382006
 31
0.0
 70
   163
  1
<>
  3
ISO-25
 15
11.78447235714426
 25
92.411567624303
 35
0.0000000000000684
 40
0.0
1001
ACAD
1000
DSTYLE
1002
{
1070
   287
1070
     5
1070
   171
1070
     2
1070
   143
1040
25.4
1070
    41
1040
0.18
1070
   141
1040
0.09
1070
   271
1070
     1
1070
    46
1040
0.38
1070
    43
1040
0.38
1070
    44
1040
0.18
1070
   147
1040
0.09
1070
    40
1040
10.0
1070
    77
1070
     0
1070
   279
1070
     2
1070
   140
1040
0.18
1002
}
1001
ACAD_DSTYLE_DIMRADIAL_EXTE
1070
   387
1070
     1
1070
   388
1040
0.0
1070
   390
1040
6.283185307179586
  0
DIMENSION
  5
2168
  8
COTAS
  2
*D8
 10
125.1820033798624
 20
4.113603492885444
 30
0.0000000002731807
 11
130.6519003449688
 21
11.18104310567461
 31
0.0
 70
   163
  1
<>
  3
ISO-25
 15
128.8179966201376
 25
8.886396507114556
 35
0.0000000002731877
 40
0.0
1001
ACAD
1000
DSTYLE
1002
{
1070
   287
1070
     5
1070
   171
1070
     2
1070
   143
1040
25.4
1070
    41
1040
0.18
1070
   141
1040
0.09
1070
   271
1070
     1
1070
    46
1040
0.38
1070
    43
1040
0.38
1070
    44
1040
0.18
1070
   147
1040
0.09
1070
    40
1040
10.0
1070
    77
1070
     0
1070
   279
1070
     2
1070
   140
1040
0.18
1002
}
1001
ACAD_DSTYLE_DIMRADIAL_EXTE
1070
   387
1070
     1
1070
   388
1040
0.0
1070
   390
1040
6.283185307179586
  0
DIMENSION
  5
2184
  8
COTAS
  2
*D10
 10
62.00000000000033
 20
143.4290097874413
 30
0.0
 11
47.50000000000022
 21
143.4290097874413
 31
0.0
 70
    32
  3
ISO-25
 13
33.00000000000011
 23
126.5000000000002
 33
0.0000000000000677
 14
62.00000000000033
 24
121.5000000000012
 34
0.0
1001
ACAD
1000
DSTYLE
1002
{
1070
   287
1070
     5
1070
   171
1070
     2
1070
   143
1040
25.4
1070
    41
1040
0.18
1070
   141
1040
0.09
1070
   271
1070
     1
1070
    46
1040
0.38
1070
    43
1040
0.38
1070
    44
1040
0.18
1070
   147
1040
0.09
1070
    40
1040
10.0
1070
    77
1070
     0
1070
   279
1070
     2
1070
   140
1040
0.18
1002
}
  0
DIMENSION
  5
2192
  8
COTAS
  2
*D11
 10
102.0
 20
143.4290097874413
 30
0.0
 11
82.00000000000017
 21
143.4290097874413
 31
0.0
 70
    32
  3
ISO-25
 13
62.00000000000033
 23
121.5000000000012
 33
0.0
 14
102.0
 24
121.5000000000002
 34
0.0000000000002059
1001
ACAD
1000
DSTYLE
1002
{
1070
   287
1070
     5
1070
   171
1070
     2
1070
   143
1040
25.4
1070
    41
1040
0.18
1070
   141
1040
0.09
1070
   271
1070
     1
1070
    46
1040
0.38
1070
    43
1040
0.38
1070
    44
1040
0.18
1070
   147
1040
0.09
1070
    40
1040
10.0
1070
    77
1070
     0
1070
   279
1070
     2
1070
   140
1040
0.18
1002
}
  0
DIMENSION
  5
21A0
  8
COTAS
  2
*D12
 10
10.00000000000034
 20
143.4290097874413
 30
0.0
 11
5.00000000000017
 21
143.4290097874413
 31
0.0
 70
    32
  3
ISO-25
 13
0.0
 23
134.0000000000002
 33
0.0
 14
10.00000000000034
 24
89.99999999999943
 34
0.0000000000000649
1001
ACAD
1000
DSTYLE
1002
{
1070
   287
1070
     5
1070
   171
1070
     2
1070
   143
1040
25.4
1070
    41
1040
0.18
1070
   141
1040
0.09
1070
   271
1070
     1
1070
    46
1040
0.38
1070
    43
1040
0.38
1070
    44
1040
0.18
1070
   147
1040
0.09
1070
    40
1040
10.0
1070
    77
1070
     0
1070
   279
1070
     2
1070
   140
1040
0.18
1002
}
  0
DIMENSION
  5
21B0
  8
COTAS
  2
*D13
 10
33.00000000000011
 20
143.4290097874413
 30
0.0
 11
21.50000000000022
 21
143.4290097874413
 31
0.0
 70
    32
  3
ISO-25
 13
10.00000000000034
 23
89.99999999999943
 33
0.0000000000000649
 14
33.00000000000011
 24
126.5000000000002
 34
0.0
1001
ACAD
1000
DSTYLE
1002
{
1070
   287
1070
     5
1070
   171
1070
     2
1070
   143
1040
25.4
1070
    41
1040
0.18
1070
   141
1040
0.09
1070
   271
1070
     1
1070
    46
1040
0.38
1070
    43
1040
0.38
1070
    44
1040
0.18
1070
   147
1040
0.09
1070
    40
1040
10.0
1070
    77
1070
     0
1070
   279
1070
     2
1070
   140
1040
0.18
1002
}
  0
DIMENSION
  5
21C2
  8
COTAS
  2
*D14
 10
-10.23176697882451
 20
89.99999999999943
 30
0.0
 11
-10.23176697882451
 21
111.9999999999998
 31
0.0
 70
    32
  3
ISO-25
 13
0.0
 23
134.0000000000002
 33
0.0
 14
10.00000000000034
 24
89.99999999999943
 34
0.0000000000000649
 50
90.0
1001
ACAD
1000
DSTYLE
1002
{
1070
   287
1070
     5
1070
   171
1070
     2
1070
   143
1040
25.4
1070
    41
1040
0.18
1070
   141
1040
0.09
1070
   271
1070
     1
1070
    46
1040
0.38
1070
    43
1040
0.38
1070
    44
1040
0.18
1070
   147
1040
0.09
1070
    40
1040
10.0
1070
    77
1070
     0
1070
   279
1070
     2
1070
   140
1040
0.18
1002
}
  0
DIMENSION
  5
21D2
  8
COTAS
  2
*D15
 10
-10.23176697882451
 20
43.99999999999977
 30
0.0
 11
-10.23176697882451
 21
66.9999999999996
 31
0.0
 70
    32
  3
ISO-25
 13
10.00000000000034
 23
89.99999999999943
 33
0.0000000000000649
 14
10.00000000000034
 24
43.99999999999977
 34
0.0000000000000198
 50
90.0
1001
ACAD
1000
DSTYLE
1002
{
1070
   287
1070
     5
1070
   171
1070
     2
1070
   143
1040
25.4
1070
    41
1040
0.18
1070
   141
1040
0.09
1070
   271
1070
     1
1070
    46
1040
0.38
1070
    43
1040
0.38
1070
    44
1040
0.18
1070
   147
1040
0.09
1070
    40
1040
10.0
1070
    77
1070
     0
1070
   279
1070
     2
1070
   140
1040
0.18
1002
}
  0
DIMENSION
  5
21E0
  8
COTAS
  2
*D16
 10
23.40750214613914
 20
126.5000000000002
 30
0.0
 11
19.35750214613913
 21
130.2500000000002
 31
0.0
 70
    32
  3
ISO-25
 13
33.00000000000011
 23
134.0000000000002
 33
0.0000000000000664
 14
33.00000000000011
 24
126.5000000000002
 34
0.0000000000000677
 50
90.0
1001
ACAD
1000
DSTYLE
1002
{
1070
   287
1070
     5
1070
   171
1070
     2
1070
   143
1040
25.4
1070
    41
1040
0.18
1070
   141
1040
0.09
1070
   271
1070
     1
1070
    46
1040
0.38
1070
    43
1040
0.38
1070
    44
1040
0.18
1070
   147
1040
0.09
1070
    40
1040
10.0
1070
    77
1070
     0
1070
   279
1070
     2
1070
   140
1040
0.18
1002
}
  0
DIMENSION
  5
21EF
  8
COTAS
  2
*D17
 10
23.40750214613913
 20
81.49999999999989
 30
0.0
 11
23.40750214613914
 21
104.0
 31
0.0
 70
    32
  3
ISO-25
 13
33.00000000000011
 23
126.5000000000002
 33
0.0000000000000677
 14
33.00000000000011
 24
81.49999999999989
 34
0.0000000000000676
 50
90.0
1001
ACAD
1000
DSTYLE
1002
{
1070
   287
1070
     5
1070
   171
1070
     2
1070
   143
1040
25.4
1070
    41
1040
0.18
1070
   141
1040
0.09
1070
   271
1070
     1
1070
    46
1040
0.38
1070
    43
1040
0.38
1070
    44
1040
0.18
1070
   147
1040
0.09
1070
    40
1040
10.0
1070
    77
1070
     0
1070
   279
1070
     2
1070
   140
1040
0.18
1002
}
  0
DIMENSION
  5
21FD
  8
COTAS
  2
*D18
 10
23.40750214613913
 20
52.49999999999898
 30
0.0
 11
23.40750214613913
 21
66.99999999999943
 31
0.0
 70
    32
  3
ISO-25
 13
33.00000000000011
 23
81.49999999999989
 33
0.0000000000000676
 14
33.00000000000011
 24
52.49999999999898
 34
0.0000000000000676
 50
90.0
1001
ACAD
1000
DSTYLE
1002
{
1070
   287
1070
     5
1070
   171
1070
     2
1070
   143
1040
25.4
1070
    41
1040
0.18
1070
   141
1040
0.09
1070
   271
1070
     1
1070
    46
1040
0.38
1070
    43
1040
0.38
1070
    44
1040
0.18
1070
   147
1040
0.09
1070
    40
1040
10.0
1070
    77
1070
     0
1070
   279
1070
     2
1070
   140
1040
0.18
1002
}
  0
DIMENSION
  5
220B
  8
COTAS
  2
*D19
 10
23.40750214613913
 20
7.499999999999774
 30
0.0
 11
23.40750214613913
 21
29.99999999999937
 31
0.0
 70
    32
  3
ISO-25
 13
33.00000000000011
 23
52.49999999999898
 33
0.0000000000000676
 14
33.00000000000011
 24
7.499999999999773
 34
0.0000000000000676
 50
90.0
1001
ACAD
1000
DSTYLE
1002
{
1070
   287
1070
     5
1070
   171
1070
     2
1070
   143
1040
25.4
1070
    41
1040
0.18
1070
   141
1040
0.09
1070
   271
1070
     1
1070
    46
1040
0.38
1070
    43
1040
0.38
1070
    44
1040
0.18
1070
   147
1040
0.09
1070
    40
1040
10.0
1070
    77
1070
     0
1070
   279
1070
     2
1070
   140
1040
0.18
1002
}
  0
DIMENSION
  5
2219
  8
COTAS
  2
*D20
 10
49.16764582660157
 20
121.5000000000012
 30
0.0
 11
49.16764582660157
 21
127.7500000000007
 31
0.0
 70
    32
  3
ISO-25
 13
62.00000000000033
 23
134.0000000000002
 33
0.0000000000001248
 14
62.00000000000033
 24
121.5000000000012
 34
0.0
 50
90.0
1001
ACAD
1000
DSTYLE
1002
{
1070
   287
1070
     5
1070
   171
1070
     2
1070
   143
1040
25.4
1070
    41
1040
0.18
1070
   141
1040
0.09
1070
   271
1070
     1
1070
    46
1040
0.38
1070
    43
1040
0.38
1070
    44
1040
0.18
1070
   147
1040
0.09
1070
    40
1040
10.0
1070
    77
1070
     0
1070
   279
1070
     2
1070
   140
1040
0.18
1002
}
  0
DIMENSION
  5
2229
  8
COTAS
  2
*D21
 10
49.16764582660157
 20
81.50000000000023
 30
0.0
 11
49.16764582660157
 21
101.5000000000007
 31
0.0
 70
    32
  3
ISO-25
 13
62.00000000000033
 23
121.5000000000012
 33
0.0
 14
62.00000000000011
 24
81.50000000000023
 34
0.000000000000079
 50
90.0
1001
ACAD
1000
DSTYLE
1002
{
1070
   287
1070
     5
1070
   171
1070
     2
1070
   143
1040
25.4
1070
    41
1040
0.18
1070
   141
1040
0.09
1070
   271
1070
     1
1070
    46
1040
0.38
1070
    43
1040
0.38
1070
    44
1040
0.18
1070
   147
1040
0.09
1070
    40
1040
10.0
1070
    77
1070
     0
1070
   279
1070
     2
1070
   140
1040
0.18
1002
}
  0
DIMENSION
  5
2237
  8
COTAS
  2
*D22
 10
49.16764582660157
 20
52.50000000000034
 30
0.0
 11
49.16764582660157
 21
67.00000000000028
 31
0.0
 70
    32
  3
ISO-25
 13
62.00000000000011
 23
81.50000000000023
 33
0.000000000000079
 14
62.0
 24
52.50000000000034
 34
10.99999999928081
 50
90.0
1001
ACAD
1000
DSTYLE
1002
{
1070
   287
1070
     5
1070
   171
1070
     2
1070
   143
1040
25.4
1070
    41
1040
0.18
1070
   141
1040
0.09
1070
   271
1070
     1
1070
    46
1040
0.38
1070
    43
1040
0.38
1070
    44
1040
0.18
1070
   147
1040
0.09
1070
    40
1040
10.0
1070
    77
1070
     0
1070
   279
1070
     2
1070
   140
1040
0.18
1002
}
  0
DIMENSION
  5
2245
  8
COTAS
  2
*D23
 10
49.16764582660157
 20
12.50000000000011
 30
0.0
 11
49.16764582660157
 21
32.50000000000023
 31
0.0
 70
    32
  3
ISO-25
 13
62.0
 23
52.50000000000034
 33
10.99999999928081
 14
62.0
 24
12.50000000000011
 34
11.00000000004739
 50
90.0
1001
ACAD
1000
DSTYLE
1002
{
1070
   287
1070
     5
1070
   171
1070
     2
1070
   143
1040
25.4
1070
    41
1040
0.18
1070
   141
1040
0.09
1070
   271
1070
     1
1070
    46
1040
0.38
1070
    43
1040
0.38
1070
    44
1040
0.18
1070
   147
1040
0.09
1070
    40
1040
10.0
1070
    77
1070
     0
1070
   279
1070
     2
1070
   140
1040
0.18
1002
}
  0
DIMENSION
  5
2253
  8
COTAS
  2
*D24
 10
127.0
 20
-12.37849827138373
 30
0.0
 11
132.0
 21
-12.37849827138373
 31
0.0
 70
    32
  3
ISO-25
 13
137.0
 23
0.0
 33
0.0000000000002764
 14
127.0
 24
6.5
 34
0.0000000002731842
1001
ACAD
1000
DSTYLE
1002
{
1070
   287
1070
     5
1070
   171
1070
     2
1070
   143
1040
25.4
1070
    41
1040
0.18
1070
   141
1040
0.09
1070
   271
1070
     1
1070
    46
1040
0.38
1070
    43
1040
0.38
1070
    44
1040
0.18
1070
   147
1040
0.09
1070
    40
1040
10.0
1070
    77
1070
     0
1070
   279
1070
     2
1070
   140
1040
0.18
1002
}
  0
DIMENSION
  5
2263
  8
COTAS
  2
*D25
 10
196.0
 20
-12.37849827138373
 30
0.0
 11
191.0
 21
-12.37849827138373
 31
0.0
 70
    32
  3
ISO-25
 13
186.0
 23
0.0
 33
0.0000000000003751
 14
196.0
 24
6.5
 34
0.0000000000884679
1001
ACAD
1000
DSTYLE
1002
{
1070
   287
1070
     5
1070
   171
1070
     2
1070
   143
1040
25.4
1070
    41
1040
0.18
1070
   141
1040
0.09
1070
   271
1070
     1
1070
    46
1040
0.38
1070
    43
1040
0.38
1070
    44
1040
0.18
1070
   147
1040
0.09
1070
    40
1040
10.0
1070
    77
1070
     0
1070
   279
1070
     2
1070
   140
1040
0.18
1002
}
  0
DIMENSION
  5
2273
  8
COTAS
  2
*D26
 10
0.0
 20
-12.37849827138373
 30
0.0
 11
63.5
 21
-12.37849827138373
 31
0.0
 70
    32
  3
ISO-25
 13
127.0
 23
6.5
 33
0.0000000002731842
 14
0.0
 24
0.0
 34
0.0
1001
ACAD
1000
DSTYLE
1002
{
1070
   287
1070
     5
1070
   171
1070
     2
1070
   143
1040
25.4
1070
    41
1040
0.18
1070
   141
1040
0.09
1070
   271
1070
     1
1070
    46
1040
0.38
1070
    43
1040
0.38
1070
    44
1040
0.18
1070
   147
1040
0.09
1070
    40
1040
10.0
1070
    77
1070
     0
1070
   279
1070
     2
1070
   140
1040
0.18
1002
}
  0
DIMENSION
  5
2283
  8
COTAS
  2
*D27
 10
186.0
 20
-12.37849827138373
 30
0.0
 11
161.5
 21
-12.37849827138373
 31
0.0
 70
    32
  3
ISO-25
 13
137.0
 23
0.0
 33
0.0000000000002764
 14
186.0
 24
0.0
 34
0.0000000000003751
1001
ACAD
1000
DSTYLE
1002
{
1070
   287
1070
     5
1070
   171
1070
     2
1070
   143
1040
25.4
1070
    41
1040
0.18
1070
   141
1040
0.09
1070
   271
1070
     1
1070
    46
1040
0.38
1070
    43
1040
0.38
1070
    44
1040
0.18
1070
   147
1040
0.09
1070
    40
1040
10.0
1070
    77
1070
     0
1070
   279
1070
     2
1070
   140
1040
0.18
1002
}
  0
DIMENSION
  5
2293
  8
COTAS
  2
*D28
 10
146.0480377941266
 20
6.499999999999999
 30
0.0
 11
151.8980377941267
 21
3.249999999999999
 31
0.0
 70
    32
  3
ISO-25
 13
137.0
 23
0.0
 33
0.0000000000002764
 14
127.0
 24
6.5
 34
0.0000000002731842
 50
90.0
1001
ACAD
1000
DSTYLE
1002
{
1070
   287
1070
     5
1070
   171
1070
     2
1070
   143
1040
25.4
1070
    41
1040
0.18
1070
   141
1040
0.09
1070
   271
1070
     1
1070
    46
1040
0.38
1070
    43
1040
0.38
1070
    44
1040
0.18
1070
   147
1040
0.09
1070
    40
1040
10.0
1070
    77
1070
     0
1070
   279
1070
     2
1070
   140
1040
0.18
1002
}
  0
DIMENSION
  5
22A2
  8
COTAS
  2
*D29
 10
177.2272530130722
 20
6.500000000000001
 30
0.0
 11
173.1772530130722
 21
3.250000000000001
 31
0.0
 70
    32
  3
ISO-25
 13
186.0
 23
0.0
 33
0.0000000000003751
 14
196.0
 24
6.5
 34
0.0000000000884679
 50
90.0
1001
ACAD
1000
DSTYLE
1002
{
1070
   287
1070
     5
1070
   171
1070
     2
1070
   143
1040
25.4
1070
    41
1040
0.18
1070
   141
1040
0.09
1070
   271
1070
     1
1070
    46
1040
0.38
1070
    43
1040
0.38
1070
    44
1040
0.18
1070
   147
1040
0.09
1070
    40
1040
10.0
1070
    77
1070
     0
1070
   279
1070
     2
1070
   140
1040
0.18
1002
}
  0
DIMENSION
  5
22B1
  8
COTAS
  2
*D30
 10
165.1008472950535
 20
15.30000000000018
 30
0.0
 11
165.1008472950535
 21
7.650000000000092
 31
0.0
 70
    32
  1
{15.0}
  3
ISO-25
 13
186.0
 23
0.0
 33
0.0000000000003751
 14
186.0
 24
15.30000000000018
 34
0.0000000000003751
 50
90.0
1001
ACAD
1000
DSTYLE
1002
{
1070
   287
1070
     5
1070
   171
1070
     2
1070
   143
1040
25.4
1070
    41
1040
0.18
1070
   141
1040
0.09
1070
   271
1070
     1
1070
    46
1040
0.38
1070
    43
1040
0.38
1070
    44
1040
0.18
1070
   147
1040
0.09
1070
    40
1040
10.0
1070
    77
1070
     0
1070
   279
1070
     2
1070
   140
1040
0.18
1002
}
  0
LINE
  5
22C1
  8
COTAS
  6
AVEVASHORTDASHED
 10
102.0
 20
42.59849246425341
 30
0.0000000000003412
 11
102.0
 21
62.40150753574591
 31
0.0000000000003412
  0
LINE
  5
22C2
  8
COTAS
  6
AVEVASHORTDASHED
 10
90.65891158139704
 20
52.49999999999966
 30
0.0000000000003412
 11
113.341088418603
 21
52.49999999999966
 31
0.0000000000003412
  0
LINE
  5
22C4
  8
COTAS
  6
AVEVASHORTDASHED
 10
101.9999999999999
 20
2.598492464253866
 30
0.000000000000251
 11
101.9999999999999
 21
22.40150753574636
 31
0.000000000000251
  0
LINE
  5
22C5
  8
COTAS
  6
AVEVASHORTDASHED
 10
90.65891158139694
 20
12.50000000000011
 30
0.000000000000251
 11
113.3410884186029
 21
12.50000000000011
 31
0.000000000000251
  0
LINE
  5
22C6
  8
COTAS
  6
AVEVASHORTDASHED
 10
62.0
 20
2.598492464253866
 30
0.0000000000001241
 11
62.0
 21
22.40150753574636
 31
0.0000000000001241
  0
LINE
  5
22C7
  8
COTAS
  6
AVEVASHORTDASHED
 10
50.65891158139704
 20
12.50000000000011
 30
0.0000000000001241
 11
90.65891158139694
 21
12.50000000000011
 31
0.000000000000251
  0
LINE
  5
22C8
  8
COTAS
  6
AVEVASHORTDASHED
 10
62.00000000000012
 20
42.59849246425375
 30
10.99999999985288
 11
62.00000000000012
 21
62.40150753574625
 31
10.99999999985288
  0
LINE
  5
22C9
  8
COTAS
  6
AVEVASHORTDASHED
 10
50.65891158139716
 20
52.5
 30
10.99999999985288
 11
90.65891158139704
 21
52.49999999999966
 31
0.0000000000003411
  0
LINE
  5
22CA
  8
COTAS
  6
AVEVASHORTDASHED
 10
62.00000000000033
 20
111.5984924642549
 30
0.0
 11
62.00000000000033
 21
131.4015075357474
 31
0.0
  0
LINE
  5
22CB
  8
COTAS
  6
AVEVASHORTDASHED
 10
50.65891158139737
 20
121.5000000000012
 30
0.0
 11
90.658911581397
 21
121.5000000000002
 31
10.9999999999368
  0
LINE
  5
22CC
  8
COTAS
  6
AVEVASHORTDASHED
 10
102.0
 20
111.598492464254
 30
10.9999999999368
 11
102.0
 21
131.4015075357464
 31
10.9999999999368
  0
LINE
  5
22CD
  8
COTAS
  6
AVEVASHORTDASHED
 10
90.658911581397
 20
121.5000000000002
 30
10.9999999999368
 11
113.3410884186029
 21
121.5000000000002
 31
10.9999999999368
  0
LINE
  5
22CE
  8
COTAS
  6
AVEVASHORTDASHED
 10
62.00000000000011
 20
71.59849246425398
 30
0.000000000000079
 11
62.00000000000011
 21
91.40150753574648
 31
0.000000000000079
  0
LINE
  5
22CF
  8
COTAS
  6
AVEVASHORTDASHED
 10
50.65891158139714
 20
81.50000000000023
 30
0.000000000000079
 11
90.65891158139704
 21
81.50000000000023
 31
0.0000000000001607
  0
LINE
  5
22D0
  8
COTAS
  6
AVEVASHORTDASHED
 10
102.0
 20
71.59849246425398
 30
0.0000000000001607
 11
102.0
 21
91.40150753574648
 31
0.0000000000001607
  0
LINE
  5
22D1
  8
COTAS
  6
AVEVASHORTDASHED
 10
90.65891158139704
 20
81.50000000000023
 30
0.0000000000001607
 11
113.341088418603
 21
81.50000000000023
 31
0.0000000000001607
  0
LINE
  5
22D2
  8
COTAS
  6
AVEVASHORTDASHED
 10
33.00000000000011
 20
116.598492464254
 30
0.0000000000000677
 11
33.00000000000011
 21
136.4015075357464
 31
0.0000000000000677
  0
LINE
  5
22D3
  8
COTAS
  6
AVEVASHORTDASHED
 10
21.65891158139715
 20
126.5000000000002
 30
0.0000000000000677
 11
44.34108841860308
 21
126.5000000000002
 31
0.0000000000000677
  0
LINE
  5
22D4
  8
COTAS
  6
AVEVASHORTDASHED
 10
33.00000000000011
 20
71.59849246425364
 30
0.0000000000000676
 11
33.00000000000011
 21
91.40150753574613
 31
0.0000000000000676
  0
LINE
  5
22D5
  8
COTAS
  6
AVEVASHORTDASHED
 10
21.65891158139715
 20
81.49999999999989
 30
0.0000000000000676
 11
44.34108841860308
 21
81.49999999999989
 31
0.0000000000000676
  0
LINE
  5
22D6
  8
COTAS
  6
AVEVASHORTDASHED
 10
33.00000000000011
 20
42.59849246425273
 30
0.0000000000000676
 11
33.00000000000011
 21
62.40150753574522
 31
0.0000000000000676
  0
LINE
  5
22D7
  8
COTAS
  6
AVEVASHORTDASHED
 10
21.65891158139715
 20
52.49999999999898
 30
0.0000000000000676
 11
44.34108841860308
 21
52.49999999999898
 31
0.0000000000000676
  0
LINE
  5
22D8
  8
COTAS
  6
AVEVASHORTDASHED
 10
33.00000000000011
 20
-2.401507535746475
 30
0.0000000000000676
 11
33.00000000000011
 21
17.40150753574602
 31
0.0000000000000676
  0
LINE
  5
22D9
  8
COTAS
  6
AVEVASHORTDASHED
 10
21.65891158139715
 20
7.499999999999773
 30
0.0000000000000676
 11
44.34108841860308
 21
7.499999999999773
 31
0.0000000000000676
  0
LINE
  5
22DA
  8
COTAS
  6
AVEVASHORTDASHED
 10
10.00000000000034
 20
34.09849246425352
 30
0.0000000000000198
 11
10.00000000000034
 21
53.90150753574602
 31
0.0000000000000198
  0
LINE
  5
22DB
  8
COTAS
  6
AVEVASHORTDASHED
 10
-1.341088418602624
 20
43.99999999999977
 30
0.0000000000000198
 11
21.34108841860331
 21
43.99999999999977
 31
0.0000000000000198
  0
LINE
  5
22DC
  8
COTAS
  6
AVEVASHORTDASHED
 10
10.00000000000034
 20
80.09849246425318
 30
0.0000000000000649
 11
10.00000000000034
 21
99.90150753574568
 31
0.0000000000000649
  0
LINE
  5
22DD
  8
COTAS
  6
AVEVASHORTDASHED
 10
-1.341088418602624
 20
89.99999999999943
 30
0.0000000000000649
 11
21.34108841860331
 21
89.99999999999943
 31
0.0000000000000649
  0
LINE
  5
22DE
  8
COTAS
  6
AVEVASHORTDASHED
 10
222.0000000000002
 20
111.598492464254
 30
0.0000000000005358
 11
222.0000000000002
 21
131.4015075357464
 31
0.0000000000005358
  0
LINE
  5
22DF
  8
COTAS
  6
AVEVASHORTDASHED
 10
210.6589115813972
 20
121.5000000000002
 30
0.0000000000005358
 11
233.3410884186032
 21
121.5000000000002
 31
0.0000000000005358
  0
LINE
  5
22E0
  8
COTAS
  6
AVEVASHORTDASHED
 10
262.0000000000002
 20
111.5984924642548
 30
10.99999999993744
 11
262.0000000000002
 21
131.4015075357473
 31
10.99999999993744
  0
LINE
  5
22E1
  8
COTAS
  6
AVEVASHORTDASHED
 10
250.6589115813973
 20
121.5000000000011
 30
10.99999999993744
 11
273.3410884186032
 21
121.5000000000011
 31
10.99999999993744
  0
LINE
  5
22E2
  8
COTAS
  6
AVEVASHORTDASHED
 10
262.0000000000001
 20
71.59849246425392
 30
0.0000000000005725
 11
262.0000000000001
 21
91.40150753574642
 31
0.0000000000005725
  0
LINE
  5
22E3
  8
COTAS
  6
AVEVASHORTDASHED
 10
250.6589115813971
 20
81.50000000000017
 30
0.0000000000005725
 11
273.3410884186031
 21
81.50000000000017
 31
0.0000000000005725
  0
LINE
  5
22E4
  8
COTAS
  6
AVEVASHORTDASHED
 10
222.0000000000002
 20
71.59849246425398
 30
0.0000000000004455
 11
222.0000000000002
 21
91.40150753574648
 31
0.0000000000004455
  0
LINE
  5
22E5
  8
COTAS
  6
AVEVASHORTDASHED
 10
210.6589115813972
 20
81.50000000000023
 30
0.0000000000004455
 11
233.3410884186032
 21
81.50000000000023
 31
0.0000000000004455
  0
LINE
  5
22E6
  8
COTAS
  6
AVEVASHORTDASHED
 10
222.0000000000001
 20
42.59849246425375
 30
10.99999999992968
 11
222.0000000000001
 21
62.40150753574625
 31
10.99999999992968
  0
LINE
  5
22E7
  8
COTAS
  6
AVEVASHORTDASHED
 10
210.6589115813972
 20
52.5
 30
10.99999999992968
 11
233.3410884186031
 21
52.5
 31
10.99999999992968
  0
LINE
  5
22E8
  8
COTAS
  6
AVEVASHORTDASHED
 10
262.0000000000001
 20
42.59849246425335
 30
10.99999999987436
 11
262.0000000000001
 21
62.40150753574585
 31
10.99999999987436
  0
LINE
  5
22E9
  8
COTAS
  6
AVEVASHORTDASHED
 10
250.6589115813971
 20
52.4999999999996
 30
10.99999999987436
 11
273.3410884186031
 21
52.4999999999996
 31
10.99999999987436
  0
LINE
  5
22EA
  8
COTAS
  6
AVEVASHORTDASHED
 10
222.0
 20
2.59849246425307
 30
10.99999999990185
 11
222.0
 21
22.40150753574557
 31
10.99999999990185
  0
LINE
  5
22EB
  8
COTAS
  6
AVEVASHORTDASHED
 10
210.658911581397
 20
12.49999999999932
 30
10.99999999990185
 11
233.3410884186029
 21
12.49999999999932
 31
10.99999999990185
  0
LINE
  5
22EC
  8
COTAS
  6
AVEVASHORTDASHED
 10
261.9999999999999
 20
2.59849246425307
 30
10.99999999990202
 11
261.9999999999999
 21
22.40150753574557
 31
10.99999999990202
  0
LINE
  5
22ED
  8
COTAS
  6
AVEVASHORTDASHED
 10
250.6589115813969
 20
12.49999999999932
 30
10.99999999990202
 11
273.3410884186029
 21
12.49999999999932
 31
10.99999999990202
  0
LINE
  5
22EE
  8
COTAS
  6
AVEVASHORTDASHED
 10
196.0
 20
-3.401507535746248
 30
0.0000000000884679
 11
196.0
 21
16.40150753574625
 31
0.0000000000884679
  0
LINE
  5
22EF
  8
COTAS
  6
AVEVASHORTDASHED
 10
184.658911581397
 20
6.5
 30
0.0000000000884679
 11
207.341088418603
 21
6.5
 31
0.0000000000884679
  0
LINE
  5
22F0
  8
COTAS
  6
AVEVASHORTDASHED
 10
322.9999999999998
 20
-2.401507535745793
 30
0.0000000000006034
 11
322.9999999999998
 21
17.4015075357467
 31
0.0000000000006034
  0
LINE
  5
22F1
  8
COTAS
  6
AVEVASHORTDASHED
 10
311.6589115813968
 20
7.500000000000455
 30
0.0000000000006034
 11
334.3410884186027
 21
7.500000000000455
 31
0.0000000000006034
  0
LINE
  5
22F2
  8
COTAS
  6
AVEVASHORTDASHED
 10
322.9999999999998
 20
42.59849246425403
 30
0.0000000000914289
 11
322.9999999999998
 21
62.40150753574652
 31
0.0000000000914289
  0
LINE
  5
22F3
  8
COTAS
  6
AVEVASHORTDASHED
 10
311.6589115813968
 20
52.50000000000028
 30
0.0000000000914289
 11
334.3410884186027
 21
52.50000000000028
 31
0.0000000000914289
  0
LINE
  5
22F4
  8
COTAS
  6
AVEVASHORTDASHED
 10
322.9999999999999
 20
71.5984924642529
 30
0.0000000000006036
 11
322.9999999999999
 21
91.4015075357454
 31
0.0000000000006036
  0
LINE
  5
22F5
  8
COTAS
  6
AVEVASHORTDASHED
 10
311.6589115813969
 20
81.49999999999915
 30
0.0000000000006036
 11
334.3410884186029
 21
81.49999999999915
 31
0.0000000000006036
  0
LINE
  5
22F6
  8
COTAS
  6
AVEVASHORTDASHED
 10
323.0
 20
116.598492464254
 30
0.0000000000006487
 11
323.0
 21
136.4015075357464
 31
0.0000000000006487
  0
LINE
  5
22F7
  8
COTAS
  6
AVEVASHORTDASHED
 10
311.658911581397
 20
126.5000000000002
 30
0.0000000000006487
 11
334.341088418603
 21
126.5000000000002
 31
0.0000000000006487
  0
LINE
  5
22F8
  8
COTAS
  6
AVEVASHORTDASHED
 10
371.0000000000005
 20
80.09849246425313
 30
0.0000000000007924
 11
371.0000000000005
 21
99.90150753574562
 31
0.0000000000007924
  0
LINE
  5
22F9
  8
COTAS
  6
AVEVASHORTDASHED
 10
359.6589115813975
 20
89.99999999999937
 30
0.0000000000007924
 11
382.3410884186035
 21
89.99999999999937
 31
0.0000000000007924
  0
LINE
  5
22FA
  8
COTAS
  6
AVEVASHORTDASHED
 10
384.0000000000005
 20
80.09849246425313
 30
0.0000000000007727
 11
384.0000000000005
 21
99.90150753574562
 31
0.0000000000007727
  0
LINE
  5
22FB
  8
COTAS
  6
AVEVASHORTDASHED
 10
372.6589115813975
 20
89.99999999999937
 30
0.0000000000007727
 11
395.3410884186035
 21
89.99999999999937
 31
0.0000000000007727
  0
LINE
  5
22FC
  8
COTAS
  6
AVEVASHORTDASHED
 10
384.0000000000003
 20
34.09849246425312
 30
0.0000000000007727
 11
384.0000000000003
 21
53.90150753574562
 31
0.0000000000007727
  0
LINE
  5
22FD
  8
COTAS
  6
AVEVASHORTDASHED
 10
372.6589115813973
 20
43.99999999999937
 30
0.0000000000007727
 11
395.3410884186032
 21
43.99999999999937
 31
0.0000000000007727
  0
LINE
  5
22FE
  8
COTAS
  6
AVEVASHORTDASHED
 10
371.0000000000005
 20
34.09849246425312
 30
0.0000000000007473
 11
371.0000000000005
 21
53.90150753574562
 31
0.0000000000007473
  0
LINE
  5
22FF
  8
COTAS
  6
AVEVASHORTDASHED
 10
359.6589115813975
 20
43.99999999999937
 30
0.0000000000007473
 11
382.3410884186035
 21
43.99999999999937
 31
0.0000000000007473
  0
LINE
  5
2300
  8
COTAS
  6
AVEVASHORTDASHED
 10
210.0000000000002
 20
80.09849246425318
 30
-0.0000000000962681
 11
210.0000000000002
 21
99.90150753574568
 31
-0.0000000000962681
  0
LINE
  5
2301
  8
COTAS
  6
AVEVASHORTDASHED
 10
198.6589115813972
 20
89.99999999999943
 30
-0.0000000000962681
 11
221.3410884186032
 21
89.99999999999943
 31
-0.0000000000962681
  0
DIMENSION
  5
2302
  8
COTAS
  2
*D31
 10
94.96727174668051
 20
118.8940964494142
 30
10.99999999996444
 11
112.0274712903769
 21
126.181852757152
 31
0.0000000000000818
 70
   163
  1
<>
  3
ISO-25
 15
109.0327282533197
 25
124.105903550588
 35
10.99999999996447
 40
0.0
1001
ACAD
1000
DSTYLE
1002
{
1070
   287
1070
     5
1070
   171
1070
     2
1070
   143
1040
25.4
1070
    41
1040
0.18
1070
   141
1040
0.09
1070
   271
1070
     1
1070
    46
1040
0.38
1070
    43
1040
0.38
1070
    44
1040
0.18
1070
   147
1040
0.09
1070
    40
1040
10.0
1070
    77
1070
     0
1070
   279
1070
     2
1070
   140
1040
0.18
1002
}
1001
ACAD_DSTYLE_DIMRADIAL_EXTE
1070
   387
1070
     1
1070
   388
1040
0.0
1070
   390
1040
6.283185307179586
  0
DIMENSION
  5
2305
  8
COTAS
  2
*D32
 10
101.0189053909787
 20
118.6649597237168
 30
0.0000000000002027
 11
103.8172097798309
 21
126.4027566542968
 31
0.0000000000000818
 70
   163
  1
<>
  3
ISO-25
 15
102.9810946090213
 25
124.3350402762836
 35
0.0000000000002091
 40
0.0
1001
ACAD
1000
DSTYLE
1002
{
1070
   287
1070
     5
1070
   171
1070
     2
1070
   143
1040
25.4
1070
    41
1040
0.18
1070
   141
1040
0.09
1070
   271
1070
     1
1070
    46
1040
0.38
1070
    43
1040
0.38
1070
    44
1040
0.18
1070
   147
1040
0.09
1070
    40
1040
10.0
1070
    77
1070
     0
1070
   279
1070
     2
1070
   140
1040
0.18
1002
}
1001
ACAD_DSTYLE_DIMRADIAL_EXTE
1070
   387
1070
     1
1070
   388
1040
0.0
1070
   390
1040
6.283185307179586
  0
DIMENSION
  5
231A
  8
COTAS
  2
*D33
 10
214.9672717466807
 20
118.8940964494142
 30
10.99999999996477
 11
232.0274712903771
 21
126.181852757152
 31
0.0000000000004116
 70
   163
  1
<>
  3
ISO-25
 15
229.0327282533199
 25
124.105903550588
 35
10.9999999999648
 40
0.0
1001
ACAD
1000
DSTYLE
1002
{
1070
   287
1070
     5
1070
   171
1070
     2
1070
   143
1040
25.4
1070
    41
1040
0.18
1070
   141
1040
0.09
1070
   271
1070
     1
1070
    46
1040
0.38
1070
    43
1040
0.38
1070
    44
1040
0.18
1070
   147
1040
0.09
1070
    40
1040
10.0
1070
    77
1070
     0
1070
   279
1070
     2
1070
   140
1040
0.18
1002
}
1001
ACAD_DSTYLE_DIMRADIAL_EXTE
1070
   387
1070
     1
1070
   388
1040
0.0
1070
   390
1040
6.283185307179586
  0
DIMENSION
  5
231D
  8
COTAS
  2
*D34
 10
221.0189053909789
 20
118.6649597237168
 30
0.0000000000005326
 11
223.817209779831
 21
126.4027566542968
 31
0.0000000000004116
 70
   163
  1
<>
  3
ISO-25
 15
222.9810946090215
 25
124.3350402762836
 35
0.000000000000539
 40
0.0
1001
ACAD
1000
DSTYLE
1002
{
1070
   287
1070
     5
1070
   171
1070
     2
1070
   143
1040
25.4
1070
    41
1040
0.18
1070
   141
1040
0.09
1070
   271
1070
     1
1070
    46
1040
0.38
1070
    43
1040
0.38
1070
    44
1040
0.18
1070
   147
1040
0.09
1070
    40
1040
10.0
1070
    77
1070
     0
1070
   279
1070
     2
1070
   140
1040
0.18
1002
}
1001
ACAD_DSTYLE_DIMRADIAL_EXTE
1070
   387
1070
     1
1070
   388
1040
0.0
1070
   390
1040
6.283185307179586
  0
DIMENSION
  5
2332
  8
COTAS
  2
*D35
 10
254.9672717466806
 20
118.8940964494142
 30
10.99999999996485
 11
272.027471290377
 21
126.181852757152
 31
0.0000000000004934
 70
   163
  1
<>
  3
ISO-25
 15
269.0327282533199
 25
124.105903550588
 35
10.99999999996488
 40
0.0
1001
ACAD
1000
DSTYLE
1002
{
1070
   287
1070
     5
1070
   171
1070
     2
1070
   143
1040
25.4
1070
    41
1040
0.18
1070
   141
1040
0.09
1070
   271
1070
     1
1070
    46
1040
0.38
1070
    43
1040
0.38
1070
    44
1040
0.18
1070
   147
1040
0.09
1070
    40
1040
10.0
1070
    77
1070
     0
1070
   279
1070
     2
1070
   140
1040
0.18
1002
}
1001
ACAD_DSTYLE_DIMRADIAL_EXTE
1070
   387
1070
     1
1070
   388
1040
0.0
1070
   390
1040
6.283185307179586
  0
DIMENSION
  5
2335
  8
COTAS
  2
*D36
 10
261.0189053909788
 20
118.6649597237168
 30
0.0000000000006144
 11
263.817209779831
 21
126.4027566542968
 31
0.0000000000004934
 70
   163
  1
<>
  3
ISO-25
 15
262.9810946090215
 25
124.3350402762836
 35
0.0000000000006208
 40
0.0
1001
ACAD
1000
DSTYLE
1002
{
1070
   287
1070
     5
1070
   171
1070
     2
1070
   143
1040
25.4
1070
    41
1040
0.18
1070
   141
1040
0.09
1070
   271
1070
     1
1070
    46
1040
0.38
1070
    43
1040
0.38
1070
    44
1040
0.18
1070
   147
1040
0.09
1070
    40
1040
10.0
1070
    77
1070
     0
1070
   279
1070
     2
1070
   140
1040
0.18
1002
}
1001
ACAD_DSTYLE_DIMRADIAL_EXTE
1070
   387
1070
     1
1070
   388
1040
0.0
1070
   390
1040
6.283185307179586
  0
DIMENSION
  5
234A
  8
COTAS
  2
*D37
 10
207.9313727383788
 20
87.82726410889882
 30
-0.0000000000962721
 11
215.5366965664739
 21
94.66257582501547
 31
0.0
 70
   163
  1
<>
  3
ISO-25
 15
212.0686272616216
 25
92.17273589110005
 35
-0.000000000096264
 40
0.0
1001
ACAD
1000
DSTYLE
1002
{
1070
   287
1070
     5
1070
   171
1070
     2
1070
   143
1040
25.4
1070
    41
1040
0.18
1070
   141
1040
0.09
1070
   271
1070
     1
1070
    46
1040
0.38
1070
    43
1040
0.38
1070
    44
1040
0.18
1070
   147
1040
0.09
1070
    40
1040
10.0
1070
    77
1070
     0
1070
   279
1070
     2
1070
   140
1040
0.18
1002
}
1001
ACAD_DSTYLE_DIMRADIAL_EXTE
1070
   387
1070
     1
1070
   388
1040
0.0
1070
   390
1040
6.283185307179586
  0
DIMENSION
  5
2356
  8
COTAS
  2
*D38
 10
321.1505864204488
 20
128.862132386589
 30
0.0000000000006448
 11
328.5964634640019
 21
124.7182157207558
 31
0.0
 70
   163
  1
<>
  3
ISO-25
 15
324.8494135795512
 25
124.1378676134114
 35
0.0000000000006525
 40
0.0
1001
ACAD
1000
DSTYLE
1002
{
1070
   287
1070
     5
1070
   171
1070
     2
1070
   143
1040
25.4
1070
    41
1040
0.18
1070
   141
1040
0.09
1070
   271
1070
     1
1070
    46
1040
0.38
1070
    43
1040
0.38
1070
    44
1040
0.18
1070
   147
1040
0.09
1070
    40
1040
10.0
1070
    77
1070
     0
1070
   279
1070
     2
1070
   140
1040
0.18
1002
}
1001
ACAD_DSTYLE_DIMRADIAL_EXTE
1070
   387
1070
     1
1070
   388
1040
0.0
1070
   390
1040
6.283185307179586
  0
DIMENSION
  5
2362
  8
COTAS
  2
*D39
 10
368.9557173077158
 20
87.8043433159923
 30
0.0000000000007884
 11
374.3821578846157
 21
94.94346965581678
 31
0.0
 70
   163
  1
<>
  3
ISO-25
 15
373.0442826922853
 25
92.19565668400645
 35
0.0000000000007963
 40
0.0
1001
ACAD
1000
DSTYLE
1002
{
1070
   287
1070
     5
1070
   171
1070
     2
1070
   143
1040
25.4
1070
    41
1040
0.18
1070
   141
1040
0.09
1070
   271
1070
     1
1070
    46
1040
0.38
1070
    43
1040
0.38
1070
    44
1040
0.18
1070
   147
1040
0.09
1070
    40
1040
10.0
1070
    77
1070
     0
1070
   279
1070
     2
1070
   140
1040
0.18
1002
}
1001
ACAD_DSTYLE_DIMRADIAL_EXTE
1070
   387
1070
     1
1070
   388
1040
0.0
1070
   390
1040
6.283185307179586
  0
DIMENSION
  5
236E
  8
COTAS
  2
*D40
 10
382.1653829434933
 20
87.62635717598963
 30
0.0000000000007692
 11
389.4099778324859
 21
95.36481040201875
 31
0.0
 70
   163
  1
<>
  3
ISO-25
 15
385.8346170565077
 25
92.37364282400912
 35
0.0000000000007762
 40
0.0
1001
ACAD
1000
DSTYLE
1002
{
1070
   287
1070
     5
1070
   171
1070
     2
1070
   143
1040
25.4
1070
    41
1040
0.18
1070
   141
1040
0.09
1070
   271
1070
     1
1070
    46
1040
0.38
1070
    43
1040
0.38
1070
    44
1040
0.18
1070
   147
1040
0.09
1070
    40
1040
10.0
1070
    77
1070
     0
1070
   279
1070
     2
1070
   140
1040
0.18
1002
}
1001
ACAD_DSTYLE_DIMRADIAL_EXTE
1070
   387
1070
     1
1070
   388
1040
0.0
1070
   390
1040
6.283185307179586
  0
DIMENSION
  5
237A
  8
COTAS
  2
*D41
 10
222.0000000000003
 20
143.4290097874413
 30
0.0
 11
162.0000000000003
 21
143.4290097874413
 31
0.0
 70
    32
  3
ISO-25
 13
102.0000000000003
 23
121.5000000000012
 33
0.0
 14
222.0000000000003
 24
121.5000000000011
 34
10.999999999985
1001
ACAD
1000
DSTYLE
1002
{
1070
   287
1070
     5
1070
   171
1070
     2
1070
   143
1040
25.4
1070
    41
1040
0.18
1070
   141
1040
0.09
1070
   271
1070
     1
1070
    46
1040
0.38
1070
    43
1040
0.38
1070
    44
1040
0.18
1070
   147
1040
0.09
1070
    40
1040
10.0
1070
    77
1070
     0
1070
   279
1070
     2
1070
   140
1040
0.18
1002
}
  0
DIMENSION
  5
238A
  8
COTAS
  2
*D42
 10
262.0000000000005
 20
143.4290097874413
 30
0.0
 11
242.0000000000004
 21
143.4290097874413
 31
0.0
 70
    32
  3
ISO-25
 13
222.0000000000003
 23
121.5000000000011
 33
10.999999999985
 14
262.0000000000005
 24
121.5000000000012
 34
0.0
1001
ACAD
1000
DSTYLE
1002
{
1070
   287
1070
     5
1070
   171
1070
     2
1070
   143
1040
25.4
1070
    41
1040
0.18
1070
   141
1040
0.09
1070
   271
1070
     1
1070
    46
1040
0.38
1070
    43
1040
0.38
1070
    44
1040
0.18
1070
   147
1040
0.09
1070
    40
1040
10.0
1070
    77
1070
     0
1070
   279
1070
     2
1070
   140
1040
0.18
1002
}
  0
DIMENSION
  5
2398
  8
COTAS
  2
*D43
 10
210.0000000000002
 20
138.0934933723608
 30
0.0
 11
216.0000000000002
 21
138.0934933723608
 31
0.0
 70
    32
  3
ISO-25
 13
222.0000000000003
 23
134.0000000000002
 33
0.0000000000004469
 14
210.0000000000002
 24
89.99999999999943
 34
-0.0000000000962681
1001
ACAD
1000
DSTYLE
1002
{
1070
   287
1070
     5
1070
   171
1070
     2
1070
   143
1040
25.4
1070
    41
1040
0.18
1070
   141
1040
0.09
1070
   271
1070
     1
1070
    46
1040
0.38
1070
    43
1040
0.38
1070
    44
1040
0.18
1070
   147
1040
0.09
1070
    40
1040
10.0
1070
    77
1070
     0
1070
   279
1070
     2
1070
   140
1040
0.18
1002
}
  0
DIMENSION
  5
23A8
  8
COTAS
  2
*D44
 10
188.1767333194085
 20
121.5000000000002
 30
0.0
 11
188.1767333194085
 21
127.7500000000002
 31
0.0
 70
    32
  3
ISO-25
 13
210.0000000000002
 23
134.0000000000002
 33
0.0000000000004228
 14
210.6589115813972
 24
121.5000000000002
 34
0.0000000000005358
 50
90.0
1001
ACAD
1000
DSTYLE
1002
{
1070
   287
1070
     5
1070
   171
1070
     2
1070
   143
1040
25.4
1070
    41
1040
0.18
1070
   141
1040
0.09
1070
   271
1070
     1
1070
    46
1040
0.38
1070
    43
1040
0.38
1070
    44
1040
0.18
1070
   147
1040
0.09
1070
    40
1040
10.0
1070
    77
1070
     0
1070
   279
1070
     2
1070
   140
1040
0.18
1002
}
  0
DIMENSION
  5
23B8
  8
COTAS
  2
*D45
 10
188.1767333194085
 20
81.50000000000023
 30
0.0
 11
188.1767333194085
 21
101.5000000000002
 31
0.0
 70
    32
  3
ISO-25
 13
210.6589115813972
 23
121.5000000000002
 33
0.0000000000005358
 14
210.6589115813972
 24
81.50000000000023
 34
0.0000000000004455
 50
90.0
1001
ACAD
1000
DSTYLE
1002
{
1070
   287
1070
     5
1070
   171
1070
     2
1070
   143
1040
25.4
1070
    41
1040
0.18
1070
   141
1040
0.09
1070
   271
1070
     1
1070
    46
1040
0.38
1070
    43
1040
0.38
1070
    44
1040
0.18
1070
   147
1040
0.09
1070
    40
1040
10.0
1070
    77
1070
     0
1070
   279
1070
     2
1070
   140
1040
0.18
1002
}
  0
DIMENSION
  5
23C6
  8
COTAS
  2
*D46
 10
188.1767333194085
 20
52.5
 30
0.0
 11
188.1767333194085
 21
67.00000000000011
 31
0.0
 70
    32
  3
ISO-25
 13
210.6589115813972
 23
81.50000000000023
 33
0.0000000000004455
 14
210.6589115813972
 24
52.5
 34
10.99999999992968
 50
90.0
1001
ACAD
1000
DSTYLE
1002
{
1070
   287
1070
     5
1070
   171
1070
     2
1070
   143
1040
25.4
1070
    41
1040
0.18
1070
   141
1040
0.09
1070
   271
1070
     1
1070
    46
1040
0.38
1070
    43
1040
0.38
1070
    44
1040
0.18
1070
   147
1040
0.09
1070
    40
1040
10.0
1070
    77
1070
     0
1070
   279
1070
     2
1070
   140
1040
0.18
1002
}
  0
DIMENSION
  5
23D4
  8
COTAS
  2
*D47
 10
188.1767333194085
 20
12.49999999999932
 30
0.0
 11
188.1767333194085
 21
32.49999999999966
 31
0.0
 70
    32
  3
ISO-25
 13
210.6589115813972
 23
52.5
 33
10.99999999992968
 14
210.658911581397
 24
12.49999999999932
 34
10.99999999990185
 50
90.0
1001
ACAD
1000
DSTYLE
1002
{
1070
   287
1070
     5
1070
   171
1070
     2
1070
   143
1040
25.4
1070
    41
1040
0.18
1070
   141
1040
0.09
1070
   271
1070
     1
1070
    46
1040
0.38
1070
    43
1040
0.38
1070
    44
1040
0.18
1070
   147
1040
0.09
1070
    40
1040
10.0
1070
    77
1070
     0
1070
   279
1070
     2
1070
   140
1040
0.18
1002
}
  0
DIMENSION
  5
23E2
  8
COTAS
  2
*D48
 10
202.3920459168553
 20
89.99999999999943
 30
0.0
 11
202.3920459168553
 21
111.9999999999998
 31
0.0
 70
    32
  3
ISO-25
 13
210.0000000000002
 23
134.0000000000002
 33
0.0
 14
210.0000000000002
 24
89.99999999999943
 34
-0.0000000000962681
 50
90.0
1001
ACAD
1000
DSTYLE
1002
{
1070
   287
1070
     5
1070
   171
1070
     2
1070
   143
1040
25.4
1070
    41
1040
0.18
1070
   141
1040
0.09
1070
   271
1070
     1
1070
    46
1040
0.38
1070
    43
1040
0.38
1070
    44
1040
0.18
1070
   147
1040
0.09
1070
    40
1040
10.0
1070
    77
1070
     0
1070
   279
1070
     2
1070
   140
1040
0.18
1002
}
  0
DIMENSION
  5
23F2
  8
COTAS
  2
*D49
 10
384.0000000000005
 20
143.1483753611053
 30
0.0
 11
403.5000000000002
 21
143.1483753611053
 31
0.0
 70
    32
  3
ISO-25
 13
423.0
 23
134.0000000000002
 33
0.0000000000008516
 14
384.0000000000005
 24
99.90150753574562
 34
0.0000000000007727
1001
ACAD
1000
DSTYLE
1002
{
1070
   287
1070
     5
1070
   171
1070
     2
1070
   143
1040
25.4
1070
    41
1040
0.18
1070
   141
1040
0.09
1070
   271
1070
     1
1070
    46
1040
0.38
1070
    43
1040
0.38
1070
    44
1040
0.18
1070
   147
1040
0.09
1070
    40
1040
10.0
1070
    77
1070
     0
1070
   279
1070
     2
1070
   140
1040
0.18
1002
}
  0
DIMENSION
  5
2402
  8
COTAS
  2
*D50
 10
371.0000000000005
 20
143.1483753611053
 30
0.0
 11
377.5000000000005
 21
143.1483753611053
 31
0.0
 70
    32
  3
ISO-25
 13
384.0000000000005
 23
99.90150753574562
 33
0.0000000000007727
 14
371.0000000000005
 24
99.90150753574562
 34
0.0000000000007924
1001
ACAD
1000
DSTYLE
1002
{
1070
   287
1070
     5
1070
   171
1070
     2
1070
   143
1040
25.4
1070
    41
1040
0.18
1070
   141
1040
0.09
1070
   271
1070
     1
1070
    46
1040
0.38
1070
    43
1040
0.38
1070
    44
1040
0.18
1070
   147
1040
0.09
1070
    40
1040
10.0
1070
    77
1070
     0
1070
   279
1070
     2
1070
   140
1040
0.18
1002
}
  0
DIMENSION
  5
2410
  8
COTAS
  2
*D51
 10
323.0
 20
143.1483753611053
 30
0.0
 11
347.0000000000002
 21
143.1483753611053
 31
0.0
 70
    32
  3
ISO-25
 13
371.0000000000005
 23
99.90150753574562
 33
0.0000000000007924
 14
323.0
 24
126.5000000000002
 34
0.0000000000006487
1001
ACAD
1000
DSTYLE
1002
{
1070
   287
1070
     5
1070
   171
1070
     2
1070
   143
1040
25.4
1070
    41
1040
0.18
1070
   141
1040
0.09
1070
   271
1070
     1
1070
    46
1040
0.38
1070
    43
1040
0.38
1070
    44
1040
0.18
1070
   147
1040
0.09
1070
    40
1040
10.0
1070
    77
1070
     0
1070
   279
1070
     2
1070
   140
1040
0.18
1002
}
  0
DIMENSION
  5
243C
  8
COTAS
  2
*D54
 10
350.1347890518334
 20
134.0000000000002
 30
0.0
 11
350.1347890518334
 21
111.9999999999998
 31
0.0
 70
    32
  3
ISO-25
 13
359.6589115813975
 23
89.99999999999937
 33
0.0000000000007924
 14
371.0000000000005
 24
134.0000000000002
 34
0.0000000000007469
 50
90.0
1001
ACAD
1000
DSTYLE
1002
{
1070
   287
1070
     5
1070
   171
1070
     2
1070
   143
1040
25.4
1070
    41
1040
0.18
1070
   141
1040
0.09
1070
   271
1070
     1
1070
    46
1040
0.38
1070
    43
1040
0.38
1070
    44
1040
0.18
1070
   147
1040
0.09
1070
    40
1040
10.0
1070
    77
1070
     0
1070
   279
1070
     2
1070
   140
1040
0.18
1002
}
  0
DIMENSION
  5
244C
  8
COTAS
  2
*D55
 10
350.1347890518334
 20
89.99999999999937
 30
0.0
 11
350.1347890518334
 21
66.99999999999937
 31
0.0
 70
    32
  3
ISO-25
 13
359.6589115813975
 23
43.99999999999937
 33
0.0000000000007473
 14
359.6589115813975
 24
89.99999999999937
 34
0.0000000000007924
 50
90.0
1001
ACAD
1000
DSTYLE
1002
{
1070
   287
1070
     5
1070
   171
1070
     2
1070
   143
1040
25.4
1070
    41
1040
0.18
1070
   141
1040
0.09
1070
   271
1070
     1
1070
    46
1040
0.38
1070
    43
1040
0.38
1070
    44
1040
0.18
1070
   147
1040
0.09
1070
    40
1040
10.0
1070
    77
1070
     0
1070
   279
1070
     2
1070
   140
1040
0.18
1002
}
  0
DIMENSION
  5
245C
  8
COTAS
  2
*D56
 10
302.5610122836605
 20
126.5000000000002
 30
0.0
 11
298.5110122836605
 21
130.2500000000002
 31
0.0
 70
    32
  3
ISO-25
 13
323.0
 23
134.0000000000002
 33
0.0000000000006503
 14
311.658911581397
 24
126.5000000000002
 34
0.0000000000006487
 50
90.0
1001
ACAD
1000
DSTYLE
1002
{
1070
   287
1070
     5
1070
   171
1070
     2
1070
   143
1040
25.4
1070
    41
1040
0.18
1070
   141
1040
0.09
1070
   271
1070
     1
1070
    46
1040
0.38
1070
    43
1040
0.38
1070
    44
1040
0.18
1070
   147
1040
0.09
1070
    40
1040
10.0
1070
    77
1070
     0
1070
   279
1070
     2
1070
   140
1040
0.18
1002
}
  0
DIMENSION
  5
246B
  8
COTAS
  2
*D57
 10
302.5610122836605
 20
81.49999999999915
 30
0.0
 11
302.5610122836605
 21
103.9999999999997
 31
0.0
 70
    32
  3
ISO-25
 13
311.658911581397
 23
126.5000000000002
 33
0.0000000000006487
 14
311.6589115813969
 24
81.49999999999915
 34
0.0000000000006036
 50
90.0
1001
ACAD
1000
DSTYLE
1002
{
1070
   287
1070
     5
1070
   171
1070
     2
1070
   143
1040
25.4
1070
    41
1040
0.18
1070
   141
1040
0.09
1070
   271
1070
     1
1070
    46
1040
0.38
1070
    43
1040
0.38
1070
    44
1040
0.18
1070
   147
1040
0.09
1070
    40
1040
10.0
1070
    77
1070
     0
1070
   279
1070
     2
1070
   140
1040
0.18
1002
}
  0
DIMENSION
  5
2479
  8
COTAS
  2
*D58
 10
302.5610122836605
 20
52.50000000000028
 30
0.0
 11
302.5610122836605
 21
66.99999999999972
 31
0.0
 70
    32
  3
ISO-25
 13
311.6589115813969
 23
81.49999999999915
 33
0.0000000000006036
 14
311.6589115813968
 24
52.50000000000028
 34
0.0000000000914289
 50
90.0
1001
ACAD
1000
DSTYLE
1002
{
1070
   287
1070
     5
1070
   171
1070
     2
1070
   143
1040
25.4
1070
    41
1040
0.18
1070
   141
1040
0.09
1070
   271
1070
     1
1070
    46
1040
0.38
1070
    43
1040
0.38
1070
    44
1040
0.18
1070
   147
1040
0.09
1070
    40
1040
10.0
1070
    77
1070
     0
1070
   279
1070
     2
1070
   140
1040
0.18
1002
}
  0
DIMENSION
  5
2487
  8
COTAS
  2
*D59
 10
302.5610122836605
 20
7.500000000000456
 30
0.0
 11
302.5610122836605
 21
30.00000000000037
 31
0.0
 70
    32
  3
ISO-25
 13
311.6589115813968
 23
52.50000000000028
 33
0.0000000000914289
 14
311.6589115813968
 24
7.500000000000455
 34
0.0000000000006034
 50
90.0
1001
ACAD
1000
DSTYLE
1002
{
1070
   287
1070
     5
1070
   171
1070
     2
1070
   143
1040
25.4
1070
    41
1040
0.18
1070
   141
1040
0.09
1070
   271
1070
     1
1070
    46
1040
0.38
1070
    43
1040
0.38
1070
    44
1040
0.18
1070
   147
1040
0.09
1070
    40
1040
10.0
1070
    77
1070
     0
1070
   279
1070
     2
1070
   140
1040
0.18
1002
}
  0
DIMENSION
  5
2495
  8
COTAS
  2
*D60
 10
-17.2008298657376
 20
-35.0
 30
0.0
 11
-17.2008298657376
 21
-42.5
 31
0.0
 70
    32
  3
ISO-25
 13
0.0
 23
-50.0
 33
0.0
 14
0.0
 24
-35.0
 34
0.0
 50
90.0
1001
ACAD
1000
DSTYLE
1002
{
1070
   287
1070
     5
1070
   171
1070
     2
1070
   143
1040
25.4
1070
    41
1040
0.18
1070
   141
1040
0.09
1070
   271
1070
     1
1070
    46
1040
0.38
1070
    43
1040
0.38
1070
    44
1040
0.18
1070
   147
1040
0.09
1070
    40
1040
10.0
1070
    77
1070
     0
1070
   279
1070
     2
1070
   140
1040
0.18
1002
}
  0
DIMENSION
  5
24A5
  8
COTAS
  2
*D61
 10
-8.205506675745397
 20
-41.99999999999999
 30
0.0
 11
-12.25550667574539
 21
-38.5
 31
0.0
 70
    32
  3
ISO-25
 13
0.0
 23
-35.0
 33
0.0
 14
54.49999999999994
 24
-42.0
 34
-1.764705882352802
 50
90.0
1001
ACAD
1000
DSTYLE
1002
{
1070
   287
1070
     5
1070
   171
1070
     2
1070
   143
1040
25.4
1070
    41
1040
0.18
1070
   141
1040
0.09
1070
   271
1070
     1
1070
    46
1040
0.38
1070
    43
1040
0.38
1070
    44
1040
0.18
1070
   147
1040
0.09
1070
    40
1040
10.0
1070
    77
1070
     0
1070
   279
1070
     2
1070
   140
1040
0.18
1002
}
  0
LINE
  5
24BF
  8
COTAS
  6
AVEVASHORTDASHED
 10
10.00000000000034
 20
-52.40150753574635
 30
-11.00000000004725
 11
10.00000000000034
 21
-32.59849246425385
 31
-11.00000000004725
  0
LINE
  5
24C0
  8
COTAS
  6
AVEVASHORTDASHED
 10
33.00000000000014
 20
-52.40150753574635
 30
-11.0000000000472
 11
33.00000000000014
 21
-32.59849246425385
 31
-11.0000000000472
  0
LINE
  5
24C1
  8
COTAS
  6
AVEVASHORTDASHED
 10
62.00000000000003
 20
-52.40150753574635
 30
-11.00000000004714
 11
62.00000000000003
 21
-32.59849246425385
 31
-11.00000000004714
  0
LINE
  5
24C2
  8
COTAS
  6
AVEVASHORTDASHED
 10
101.9999999999999
 20
-52.40150753574635
 30
-11.00000000004706
 11
101.9999999999999
 21
-32.59849246425385
 31
-11.00000000004706
  0
LINE
  5
24C3
  8
COTAS
  6
AVEVASHORTDASHED
 10
127.0
 20
-52.40150753574635
 30
-11.00000000004701
 11
127.0
 21
-32.59849246425385
 31
-11.00000000004701
  0
LINE
  5
24C4
  8
COTAS
  6
AVEVASHORTDASHED
 10
195.9999999999999
 20
-52.40150753574635
 30
-11.00000000004687
 11
195.9999999999999
 21
-32.59849246425386
 31
-11.00000000004687
  0
LINE
  5
24C5
  8
COTAS
  6
AVEVASHORTDASHED
 10
222.0
 20
-52.40150753574636
 30
-11.00000000004682
 11
222.0
 21
-32.59849246425387
 31
-11.00000000004682
  0
LINE
  5
24C6
  8
COTAS
  6
AVEVASHORTDASHED
 10
261.9999999999999
 20
-52.40150753574638
 30
-11.00000000004674
 11
261.9999999999999
 21
-32.59849246425389
 31
-11.00000000004674
  0
LINE
  5
24C7
  8
COTAS
  6
AVEVASHORTDASHED
 10
322.9999999999998
 20
-52.40150753574641
 30
-11.00000000004662
 11
322.9999999999998
 21
-32.59849246425392
 31
-11.00000000004662
  0
LINE
  5
24C8
  8
COTAS
  6
AVEVASHORTDASHED
 10
371.0000000000005
 20
-52.40150753574643
 30
-11.00000000004652
 11
371.0000000000005
 21
-32.59849246425394
 31
-11.00000000004652
  0
LINE
  5
24C9
  8
COTAS
  6
AVEVASHORTDASHED
 10
384.0000000000002
 20
-52.40150753574644
 30
-11.00000000004649
 11
384.0000000000002
 21
-32.59849246425394
 31
-11.00000000004649
  0
VIEWPORT
  5
16EA
 67
     1
  8
0
 10
143.5
 20
95.0
 30
0.0
 40
462.0
 41
231.0
 68
     1
 69
     1
1001
ACAD
1000
MVIEW
1002
{
1070
    16
1010
0.0
1020
0.0
1030
0.0
1020
0.0
1030
0.0
1010
0.0
1020
0.0
1030
1.0
1020
0.0
1030
1.0
1040
0.0
1040
231.0
1040
143.5
1040
95.0
1040
50.0
1040
0.0
1040
0.0
1070
     0
1070
   100
1070
     1
1070
     0
1070
     0
1070
     0
1070
     0
1070
     0
1040
0.0
1040
0.0
1040
0.0
1040
10.0
1040
10.0
1040
10.0
1040
10.0
1070
     1
1002
{
1002
}
1002
}
  0
VIEWPORT
  5
16EC
 67
     1
  8
VIEWPORTS
 10
143.5
 20
95.0
 30
0.0
 40
287.0
 41
162.7319641113281
 68
     2
 69
     2
1001
ACAD
1000
MVIEW
1002
{
1070
    16
1010
0.0
1020
0.0
1030
0.0
1020
0.0
1030
0.0
1010
0.0
1020
0.0
1030
1.0
1020
0.0
1030
1.0
1040
0.0
1040
305.9693908691406
1040
209.806884765625
1040
148.4082946777344
1040
50.0
1040
0.0
1040
0.0
1070
     0
1070
   100
1070
     1
1070
     0
1070
     0
1070
     0
1070
     0
1070
     0
1040
0.0
1040
0.0
1040
0.0
1040
10.0
1040
10.0
1040
10.0
1040
10.0
1070
     1
1002
{
1002
}
1002
}
  0
ENDSEC
  0
EOF
