  0
SECTION
  2
HEADER
  9
$ACADVER
  1
AC1009
  9
$DWGCODEPAGE
  3
ansi_1252
  9
$INSBASE
 10
0.0
 20
0.0
 30
0.0
  9
$EXTMIN
 10
-82.92833266817274
 20
-118.3359353804262
 30
-8.000000000176797
  9
$EXTMAX
 10
337.0716521028405
 20
178.6640592998592
 30
8.000000000000066
  9
$LIMMIN
 10
0.0
 20
0.0
  9
$LIMMAX
 10
12.0
 20
9.0
  9
$ORTHOMODE
 70
     1
  9
$REGENMODE
 70
     1
  9
$FILLMODE
 70
     1
  9
$QTEXTMODE
 70
     0
  9
$MIRRTEXT
 70
     1
  9
$DRAGMODE
 70
     2
  9
$LTSCALE
 40
1.0
  9
$OSMODE
 70
   511
  9
$ATTMODE
 70
     1
  9
$TEXTSIZE
 40
2.5
  9
$TRACEWID
 40
0.05
  9
$TEXTSTYLE
  7
STANDARD
  9
$CLAYER
  8
COTAS
  9
$CELTYPE
  6
BYLAYER
  9
$CECOLOR
 62
   256
  9
$DIMSCALE
 40
10.0
  9
$DIMASZ
 40
0.18
  9
$DIMEXO
 40
0.625
  9
$DIMDLI
 40
0.38
  9
$DIMRND
 40
0.0
  9
$DIMDLE
 40
0.38
  9
$DIMEXE
 40
0.18
  9
$DIMTP
 40
0.0
  9
$DIMTM
 40
0.0
  9
$DIMTXT
 40
0.18
  9
$DIMCEN
 40
0.09
  9
$DIMTSZ
 40
0.0
  9
$DIMTOL
 70
     0
  9
$DIMLIM
 70
     0
  9
$DIMTIH
 70
     1
  9
$DIMTOH
 70
     1
  9
$DIMSE1
 70
     0
  9
$DIMSE2
 70
     0
  9
$DIMTAD
 70
     0
  9
$DIMZIN
 70
     0
  9
$DIMBLK
  1

  9
$DIMASO
 70
     1
  9
$DIMSHO
 70
     1
  9
$DIMPOST
  1

  9
$DIMAPOST
  1

  9
$DIMALT
 70
     0
  9
$DIMALTD
 70
     2
  9
$DIMALTF
 40
25.4
  9
$DIMLFAC
 40
1.0
  9
$DIMTOFL
 70
     0
  9
$DIMTVP
 40
0.0
  9
$DIMTIX
 70
     0
  9
$DIMSOXD
 70
     0
  9
$DIMSAH
 70
     0
  9
$DIMBLK1
  1

  9
$DIMBLK2
  1

  9
$DIMSTYLE
  2
ISO-25
  9
$DIMCLRD
 70
     0
  9
$DIMCLRE
 70
     0
  9
$DIMCLRT
 70
     0
  9
$DIMTFAC
 40
1.0
  9
$DIMGAP
 40
0.09
  9
$LUNITS
 70
     2
  9
$LUPREC
 70
     4
  9
$SKETCHINC
 40
0.1
  9
$FILLETRAD
 40
0.5
  9
$AUNITS
 70
     0
  9
$AUPREC
 70
     0
  9
$MENU
  1

  9
$ELEVATION
 40
0.0
  9
$PELEVATION
 40
0.0
  9
$THICKNESS
 40
0.0
  9
$LIMCHECK
 70
     0
  9
$CHAMFERA
 40
0.5
  9
$CHAMFERB
 40
0.5
  9
$SKPOLY
 70
     0
  9
$TDCREATE
 40
2447892.875
  9
$TDUPDATE
 40
2457149.978433727
  9
$TDINDWG
 40
0.0329285301
  9
$TDUSRTIMER
 40
2457150.103167315
  9
$USRTIMER
 70
     0
  9
$ANGBASE
 50
0.0
  9
$ANGDIR
 70
     0
  9
$PDMODE
 70
     0
  9
$PDSIZE
 40
0.0
  9
$PLINEWID
 40
0.0
  9
$COORDS
 70
     1
  9
$SPLFRAME
 70
     0
  9
$SPLINETYPE
 70
     6
  9
$SPLINESEGS
 70
     8
  9
$ATTDIA
 70
     0
  9
$ATTREQ
 70
     1
  9
$HANDLING
 70
     1
  9
$HANDSEED
  5
1E2B
  9
$SURFTAB1
 70
     6
  9
$SURFTAB2
 70
     6
  9
$SURFTYPE
 70
     6
  9
$SURFU
 70
     6
  9
$SURFV
 70
     6
  9
$UCSNAME
  2

  9
$UCSORG
 10
0.0
 20
0.0
 30
0.0
  9
$UCSXDIR
 10
1.0
 20
0.0
 30
0.0
  9
$UCSYDIR
 10
0.0
 20
1.0
 30
0.0
  9
$PUCSNAME
  2

  9
$PUCSORG
 10
0.0
 20
0.0
 30
0.0
  9
$PUCSXDIR
 10
1.0
 20
0.0
 30
0.0
  9
$PUCSYDIR
 10
0.0
 20
1.0
 30
0.0
  9
$USERI1
 70
     0
  9
$USERI2
 70
     0
  9
$USERI3
 70
     0
  9
$USERI4
 70
     0
  9
$USERI5
 70
     0
  9
$USERR1
 40
0.0
  9
$USERR2
 40
0.0
  9
$USERR3
 40
0.0
  9
$USERR4
 40
0.0
  9
$USERR5
 40
0.0
  9
$WORLDVIEW
 70
     1
  9
$SHADEDGE
 70
     3
  9
$SHADEDIF
 70
    70
  9
$TILEMODE
 70
     1
  9
$MAXACTVP
 70
    64
  9
$PLIMCHECK
 70
     0
  9
$PEXTMIN
 10
0.0
 20
0.0
 30
0.0
  9
$PEXTMAX
 10
0.0
 20
0.0
 30
0.0
  9
$PLIMMIN
 10
0.0
 20
0.0
  9
$PLIMMAX
 10
0.0
 20
0.0
  9
$UNITMODE
 70
     0
  9
$VISRETAIN
 70
     1
  9
$PLINEGEN
 70
     0
  9
$PSLTSCALE
 70
     1
  0
ENDSEC
  0
SECTION
  2
TABLES
  0
TABLE
  2
VPORT
 70
     1
  0
VPORT
  2
*ACTIVE
 70
     0
 10
0.0
 20
0.0
 11
1.0
 21
1.0
 12
-82.73522504829123
 22
-118.244232718018
 13
0.0
 23
0.0
 14
0.5
 24
0.5
 15
0.0
 25
0.0
 16
0.0
 26
0.0
 36
1.0
 17
209.8068847656251
 27
148.4082946777345
 37
0.0
 40
302.9399945738911
 41
2.050393700787402
 42
50.0
 43
0.0
 44
0.0
 50
0.0
 51
0.0
 71
    16
 72
     0
 73
     0
 74
     1
 75
     0
 76
     0
 77
     0
 78
     0
  0
ENDTAB
  0
TABLE
  2
LTYPE
 70
     4
  0
LTYPE
  2
CONTINUOUS
 70
     0
  3
Solid line
 72
    65
 73
     0
 40
0.0
  0
LTYPE
  2
AVEVASOLID
 70
     0
  3
Aveva linetype
 72
    65
 73
     1
 40
2.25
 49
2.25
  0
LTYPE
  2
AVEVASOLIDXWIDE
 70
     0
  3
Aveva linetype
 72
    65
 73
     1
 40
2.25
 49
2.25
  0
LTYPE
  2
AVEVASHORTDASHED
 70
     0
  3
Aveva linetype
 72
    65
 73
     2
 40
2.0
 49
1.5
 49
-0.5
  0
ENDTAB
  0
TABLE
  2
LAYER
 70
     6
  0
LAYER
  2
0
 70
     0
 62
     7
  6
CONTINUOUS
  0
LAYER
  2
-11
 70
     0
 62
     7
  6
CONTINUOUS
  0
LAYER
  2
-300
 70
     0
 62
     7
  6
CONTINUOUS
  0
LAYER
  2
VIEWPORTS
 70
     0
 62
    -7
  6
CONTINUOUS
  0
LAYER
  2
COTAS
 70
     0
 62
     4
  6
CONTINUOUS
  0
LAYER
  2
DEFPOINTS
 70
     0
 62
     7
  6
CONTINUOUS
  0
ENDTAB
  0
TABLE
  2
STYLE
 70
     1
  0
STYLE
  2
STANDARD
 70
     0
 40
0.0
 41
1.0
 50
0.0
 71
     0
 42
2.5
  3
txt
  4

  0
ENDTAB
  0
TABLE
  2
VIEW
 70
     0
  0
ENDTAB
  0
TABLE
  2
UCS
 70
     0
  0
ENDTAB
  0
TABLE
  2
APPID
 70
     3
  0
APPID
  2
ACAD
 70
     0
  0
APPID
  2
ACAECLAYERSTANDARD
 70
     0
  0
APPID
  2
ACAD_DSTYLE_DIMRADIAL_EXTE
 70
     0
  0
ENDTAB
  0
TABLE
  2
DIMSTYLE
 70
     2
  0
DIMSTYLE
  2
ISO-25
 70
     0
  3

  4

  5

  6

  7

 40
1.0
 41
2.5
 42
0.625
 43
0.3799999952316284
 44
0.1800000071525574
 45
0.0
 46
0.3799999952316284
 47
0.0
 48
0.0
140
2.5
141
0.0900000035762787
142
0.0
143
25.39999961853027
144
1.0
145
0.0
146
1.0
147
0.0900000035762787
 71
     0
 72
     0
 73
     1
 74
     1
 75
     0
 76
     0
 77
     1
 78
     0
170
     0
171
     3
172
     0
173
     0
174
     0
175
     0
176
     0
177
     0
178
     0
  0
DIMSTYLE
  2
STANDARD
 70
     0
  3

  4

  5

  6

  7

 40
1.0
 41
0.18
 42
0.0625
 43
0.38
 44
0.18
 45
0.0
 46
0.0
 47
0.0
 48
0.0
140
0.18
141
0.09
142
0.0
143
25.4
144
1.0
145
0.0
146
1.0
147
0.09
 71
     0
 72
     0
 73
     1
 74
     1
 75
     0
 76
     0
 77
     0
 78
     0
170
     0
171
     2
172
     0
173
     0
174
     0
175
     0
176
     0
177
     0
178
     0
  0
ENDTAB
  0
ENDSEC
  0
SECTION
  2
BLOCKS
  0
BLOCK
  8
0
  2
$MODEL_SPACE
 70
     0
 10
0.0
 20
0.0
 30
0.0
  3
$MODEL_SPACE
  1

  0
ENDBLK
  5
7
  8
0
  0
BLOCK
 67
     1
  8
0
  2
$PAPER_SPACE
 70
     0
 10
0.0
 20
0.0
 30
0.0
  3
$PAPER_SPACE
  1

  0
ENDBLK
  5
A
 67
     1
  8
0
  0
BLOCK
  8
0
  2
*D0
 70
     1
 10
0.0
 20
0.0
 30
0.0
  3
*D0
  1

  0
LINE
  5
1A93
  8
COTAS
 62
     0
 10
0.0000000000009095
 20
140.25
 30
0.0
 11
0.0000000000009095
 21
142.9939458707943
 31
0.0
  0
LINE
  5
1A94
  8
COTAS
 62
     0
 10
9.00000000000091
 20
130.2499999999999
 30
0.0
 11
9.00000000000091
 21
142.9939458707943
 31
0.0
  0
LINE
  5
1A95
  8
COTAS
 62
     0
 10
1.800000000000909
 20
141.1939458707943
 30
0.0
 11
7.20000000000091
 21
141.1939458707943
 31
0.0
  0
SOLID
  5
1A96
  8
COTAS
 62
     0
 10
1.800000000000909
 20
141.4939458707943
 30
0.0
 11
1.800000000000909
 21
140.8939458707943
 31
0.0
 12
0.0000000000009095
 22
141.1939458707943
 32
0.0
 13
0.0000000000009095
 23
141.1939458707943
 33
0.0
  0
SOLID
  5
1A97
  8
COTAS
 62
     0
 10
7.20000000000091
 20
140.8939458707943
 30
0.0
 11
7.20000000000091
 21
141.4939458707943
 31
0.0
 12
9.00000000000091
 22
141.1939458707943
 32
0.0
 13
9.00000000000091
 23
141.1939458707943
 33
0.0
  0
TEXT
  5
1A98
  8
COTAS
  6
CONTINUOUS
 62
     0
 10
2.85000000000091
 20
144.3439458707943
 30
0.0
 40
1.8
  1
9.0
  0
POINT
  5
1A99
  8
DEFPOINTS
 62
     0
 10
0.0000000000009095
 20
134.0
 30
0.0
  0
POINT
  5
1A9A
  8
DEFPOINTS
 62
     0
 10
9.00000000000091
 20
124.0
 30
0.0
  0
POINT
  5
1A9B
  8
DEFPOINTS
 62
     0
 10
9.00000000000091
 20
141.1939458707943
 30
0.0
  0
ENDBLK
  5
1A92
  8
0
  0
BLOCK
  8
0
  2
*D1
 70
     1
 10
0.0
 20
0.0
 30
0.0
  3
*D1
  1

  0
LINE
  5
1AA0
  8
COTAS
 62
     0
 10
9.00000000000091
 20
130.2499999999999
 30
0.0
 11
9.00000000000091
 21
142.9939458707943
 31
0.0
  0
LINE
  5
1AA1
  8
COTAS
 62
     0
 10
49.0000000000009
 20
130.25
 30
0.0
 11
49.0000000000009
 21
142.9939458707943
 31
0.0
  0
LINE
  5
1AA2
  8
COTAS
 62
     0
 10
10.80000000000091
 20
141.1939458707943
 30
0.0
 11
25.70000000000091
 21
141.1939458707943
 31
0.0
  0
LINE
  5
1AA3
  8
COTAS
 62
     0
 10
47.20000000000091
 20
141.1939458707943
 30
0.0
 11
32.30000000000091
 21
141.1939458707943
 31
0.0
  0
SOLID
  5
1AA4
  8
COTAS
 62
     0
 10
10.80000000000091
 20
141.4939458707943
 30
0.0
 11
10.80000000000091
 21
140.8939458707943
 31
0.0
 12
9.00000000000091
 22
141.1939458707943
 32
0.0
 13
9.00000000000091
 23
141.1939458707943
 33
0.0
  0
SOLID
  5
1AA5
  8
COTAS
 62
     0
 10
47.20000000000091
 20
140.8939458707943
 30
0.0
 11
47.20000000000091
 21
141.4939458707943
 31
0.0
 12
49.0000000000009
 22
141.1939458707943
 32
0.0
 13
49.0000000000009
 23
141.1939458707943
 33
0.0
  0
TEXT
  5
1AA6
  8
COTAS
  6
CONTINUOUS
 62
     0
 10
26.60000000000091
 20
140.2939458707943
 30
0.0
 40
1.8
  1
40.0
  0
POINT
  5
1AA7
  8
DEFPOINTS
 62
     0
 10
9.00000000000091
 20
124.0
 30
0.0
  0
POINT
  5
1AA8
  8
DEFPOINTS
 62
     0
 10
49.0000000000009
 20
124.0
 30
0.0
  0
POINT
  5
1AA9
  8
DEFPOINTS
 62
     0
 10
49.0000000000009
 20
141.1939458707943
 30
0.0
  0
ENDBLK
  5
1A9F
  8
0
  0
BLOCK
  8
0
  2
*D2
 70
     1
 10
0.0
 20
0.0
 30
0.0
  3
*D2
  1

  0
LINE
  5
1AAE
  8
COTAS
 62
     0
 10
49.0000000000009
 20
130.25
 30
0.0
 11
49.0000000000009
 21
142.9939458707943
 31
0.0
  0
LINE
  5
1AAF
  8
COTAS
 62
     0
 10
96.00000000000136
 20
130.2500000000009
 30
0.0
 11
96.00000000000136
 21
142.9939458707943
 31
0.0
  0
LINE
  5
1AB0
  8
COTAS
 62
     0
 10
50.8000000000009
 20
141.1939458707943
 30
0.0
 11
69.05000000000113
 21
141.1939458707943
 31
0.0
  0
LINE
  5
1AB1
  8
COTAS
 62
     0
 10
94.20000000000137
 20
141.1939458707943
 30
0.0
 11
75.95000000000114
 21
141.1939458707943
 31
0.0
  0
SOLID
  5
1AB2
  8
COTAS
 62
     0
 10
50.8000000000009
 20
141.4939458707943
 30
0.0
 11
50.8000000000009
 21
140.8939458707943
 31
0.0
 12
49.0000000000009
 22
141.1939458707943
 32
0.0
 13
49.0000000000009
 23
141.1939458707943
 33
0.0
  0
SOLID
  5
1AB3
  8
COTAS
 62
     0
 10
94.20000000000137
 20
140.8939458707943
 30
0.0
 11
94.20000000000137
 21
141.4939458707943
 31
0.0
 12
96.00000000000136
 22
141.1939458707943
 32
0.0
 13
96.00000000000136
 23
141.1939458707943
 33
0.0
  0
TEXT
  5
1AB4
  8
COTAS
  6
CONTINUOUS
 62
     0
 10
69.95000000000114
 20
140.2939458707943
 30
0.0
 40
1.8
  1
47.0
  0
POINT
  5
1AB5
  8
DEFPOINTS
 62
     0
 10
49.0000000000009
 20
124.0
 30
0.0
  0
POINT
  5
1AB6
  8
DEFPOINTS
 62
     0
 10
96.00000000000136
 20
124.0000000000009
 30
0.0
  0
POINT
  5
1AB7
  8
DEFPOINTS
 62
     0
 10
96.00000000000136
 20
141.1939458707943
 30
0.0
  0
ENDBLK
  5
1AAD
  8
0
  0
BLOCK
  8
0
  2
*D3
 70
     1
 10
0.0
 20
0.0
 30
0.0
  3
*D3
  1

  0
LINE
  5
1ABC
  8
COTAS
 62
     0
 10
96.00000000000136
 20
130.2500000000009
 30
0.0
 11
96.00000000000136
 21
142.9939458707943
 31
0.0
  0
LINE
  5
1ABD
  8
COTAS
 62
     0
 10
136.0000000000014
 20
130.25
 30
0.0
 11
136.0000000000014
 21
142.9939458707943
 31
0.0
  0
LINE
  5
1ABE
  8
COTAS
 62
     0
 10
97.80000000000136
 20
141.1939458707943
 30
0.0
 11
112.7000000000014
 21
141.1939458707943
 31
0.0
  0
LINE
  5
1ABF
  8
COTAS
 62
     0
 10
134.2000000000014
 20
141.1939458707943
 30
0.0
 11
119.3000000000014
 21
141.1939458707943
 31
0.0
  0
SOLID
  5
1AC0
  8
COTAS
 62
     0
 10
97.80000000000136
 20
141.4939458707943
 30
0.0
 11
97.80000000000136
 21
140.8939458707943
 31
0.0
 12
96.00000000000136
 22
141.1939458707943
 32
0.0
 13
96.00000000000136
 23
141.1939458707943
 33
0.0
  0
SOLID
  5
1AC1
  8
COTAS
 62
     0
 10
134.2000000000014
 20
140.8939458707943
 30
0.0
 11
134.2000000000014
 21
141.4939458707943
 31
0.0
 12
136.0000000000014
 22
141.1939458707943
 32
0.0
 13
136.0000000000014
 23
141.1939458707943
 33
0.0
  0
TEXT
  5
1AC2
  8
COTAS
  6
CONTINUOUS
 62
     0
 10
113.6000000000014
 20
140.2939458707943
 30
0.0
 40
1.8
  1
40.0
  0
POINT
  5
1AC3
  8
DEFPOINTS
 62
     0
 10
96.00000000000136
 20
124.0000000000009
 30
0.0
  0
POINT
  5
1AC4
  8
DEFPOINTS
 62
     0
 10
136.0000000000014
 20
124.0
 30
0.0
  0
POINT
  5
1AC5
  8
DEFPOINTS
 62
     0
 10
136.0000000000014
 20
141.1939458707943
 30
0.0
  0
ENDBLK
  5
1ABB
  8
0
  0
BLOCK
  8
0
  2
*D4
 70
     1
 10
0.0
 20
0.0
 30
0.0
  3
*D4
  1

  0
LINE
  5
1ACE
  8
COTAS
 62
     0
 10
-6.249999999999091
 20
134.0
 30
0.0
 11
-12.5600263565983
 21
134.0
 31
0.0
  0
LINE
  5
1ACF
  8
COTAS
 62
     0
 10
2.750000000000909
 20
124.0
 30
0.0
 11
-12.5600263565983
 21
124.0
 31
0.0
  0
LINE
  5
1AD0
  8
COTAS
 62
     0
 10
-10.7600263565983
 20
132.2
 30
0.0
 11
-10.7600263565983
 21
130.8
 31
0.0
  0
LINE
  5
1AD1
  8
COTAS
 62
     0
 10
-10.7600263565983
 20
125.8
 30
0.0
 11
-10.7600263565983
 21
127.2
 31
0.0
  0
SOLID
  5
1AD2
  8
COTAS
 62
     0
 10
-10.4600263565983
 20
132.2
 30
0.0
 11
-11.0600263565983
 21
132.2
 31
0.0
 12
-10.7600263565983
 22
134.0
 32
0.0
 13
-10.7600263565983
 23
134.0
 33
0.0
  0
SOLID
  5
1AD3
  8
COTAS
 62
     0
 10
-11.0600263565983
 20
125.8
 30
0.0
 11
-10.4600263565983
 21
125.8
 31
0.0
 12
-10.7600263565983
 22
124.0
 32
0.0
 13
-10.7600263565983
 23
124.0
 33
0.0
  0
TEXT
  5
1AD4
  8
COTAS
  6
CONTINUOUS
 62
     0
 10
-12.8600263565983
 20
128.1
 30
0.0
 40
1.8
  1
10.0
  0
POINT
  5
1AD5
  8
DEFPOINTS
 62
     0
 10
0.0000000000009095
 20
134.0
 30
0.0
  0
POINT
  5
1AD6
  8
DEFPOINTS
 62
     0
 10
9.00000000000091
 20
124.0
 30
0.0
  0
POINT
  5
1AD7
  8
DEFPOINTS
 62
     0
 10
-10.7600263565983
 20
124.0
 30
0.0
  0
ENDBLK
  5
1ACD
  8
0
  0
BLOCK
  8
0
  2
*D5
 70
     1
 10
0.0
 20
0.0
 30
0.0
  3
*D5
  1

  0
LINE
  5
1ADC
  8
COTAS
 62
     0
 10
2.750000000000909
 20
124.0
 30
0.0
 11
-12.5600263565983
 21
124.0
 31
0.0
  0
LINE
  5
1ADD
  8
COTAS
 62
     0
 10
2.75000000000068
 20
83.99999999999999
 30
0.0
 11
-12.5600263565983
 21
83.99999999999999
 31
0.0
  0
LINE
  5
1ADE
  8
COTAS
 62
     0
 10
-10.7600263565983
 20
122.2
 30
0.0
 11
-10.7600263565983
 21
105.8
 31
0.0
  0
LINE
  5
1ADF
  8
COTAS
 62
     0
 10
-10.7600263565983
 20
85.79999999999998
 30
0.0
 11
-10.7600263565983
 21
102.2
 31
0.0
  0
SOLID
  5
1AE0
  8
COTAS
 62
     0
 10
-10.4600263565983
 20
122.2
 30
0.0
 11
-11.0600263565983
 21
122.2
 31
0.0
 12
-10.7600263565983
 22
124.0
 32
0.0
 13
-10.7600263565983
 23
124.0
 33
0.0
  0
SOLID
  5
1AE1
  8
COTAS
 62
     0
 10
-11.06002635659831
 20
85.79999999999998
 30
0.0
 11
-10.4600263565983
 21
85.79999999999998
 31
0.0
 12
-10.7600263565983
 22
83.99999999999999
 32
0.0
 13
-10.7600263565983
 23
83.99999999999999
 33
0.0
  0
TEXT
  5
1AE2
  8
COTAS
  6
CONTINUOUS
 62
     0
 10
-13.1600263565983
 20
103.1
 30
0.0
 40
1.8
  1
40.0
  0
POINT
  5
1AE3
  8
DEFPOINTS
 62
     0
 10
9.00000000000091
 20
124.0
 30
0.0
  0
POINT
  5
1AE4
  8
DEFPOINTS
 62
     0
 10
9.00000000000068
 20
83.99999999999999
 30
0.0
  0
POINT
  5
1AE5
  8
DEFPOINTS
 62
     0
 10
-10.7600263565983
 20
83.99999999999999
 30
0.0
  0
ENDBLK
  5
1ADB
  8
0
  0
BLOCK
  8
0
  2
*D6
 70
     1
 10
0.0
 20
0.0
 30
0.0
  3
*D6
  1

  0
LINE
  5
1AEA
  8
COTAS
 62
     0
 10
2.75000000000068
 20
83.99999999999999
 30
0.0
 11
-12.5600263565983
 21
83.99999999999999
 31
0.0
  0
LINE
  5
1AEB
  8
COTAS
 62
     0
 10
2.750000000000455
 20
49.99999999999999
 30
0.0
 11
-12.56002635659831
 21
49.99999999999999
 31
0.0
  0
LINE
  5
1AEC
  8
COTAS
 62
     0
 10
-10.7600263565983
 20
82.19999999999999
 30
0.0
 11
-10.7600263565983
 21
68.8
 31
0.0
  0
LINE
  5
1AED
  8
COTAS
 62
     0
 10
-10.76002635659831
 20
51.79999999999998
 30
0.0
 11
-10.76002635659831
 21
65.19999999999997
 31
0.0
  0
SOLID
  5
1AEE
  8
COTAS
 62
     0
 10
-10.4600263565983
 20
82.19999999999999
 30
0.0
 11
-11.06002635659831
 21
82.19999999999999
 31
0.0
 12
-10.7600263565983
 22
83.99999999999999
 32
0.0
 13
-10.7600263565983
 23
83.99999999999999
 33
0.0
  0
SOLID
  5
1AEF
  8
COTAS
 62
     0
 10
-11.06002635659831
 20
51.79999999999998
 30
0.0
 11
-10.46002635659831
 21
51.79999999999998
 31
0.0
 12
-10.76002635659831
 22
49.99999999999999
 32
0.0
 13
-10.76002635659831
 23
49.99999999999999
 33
0.0
  0
TEXT
  5
1AF0
  8
COTAS
  6
CONTINUOUS
 62
     0
 10
-13.31002635659831
 20
66.1
 30
0.0
 40
1.8
  1
34.0
  0
POINT
  5
1AF1
  8
DEFPOINTS
 62
     0
 10
9.00000000000068
 20
83.99999999999999
 30
0.0
  0
POINT
  5
1AF2
  8
DEFPOINTS
 62
     0
 10
9.000000000000455
 20
49.99999999999999
 30
0.0
  0
POINT
  5
1AF3
  8
DEFPOINTS
 62
     0
 10
-10.76002635659831
 20
49.99999999999999
 30
0.0
  0
ENDBLK
  5
1AE9
  8
0
  0
BLOCK
  8
0
  2
*D7
 70
     1
 10
0.0
 20
0.0
 30
0.0
  3
*D7
  1

  0
LINE
  5
1AF8
  8
COTAS
 62
     0
 10
2.750000000000455
 20
49.99999999999999
 30
0.0
 11
-12.56002635659831
 21
49.99999999999999
 31
0.0
  0
LINE
  5
1AF9
  8
COTAS
 62
     0
 10
2.75
 20
10.0
 30
0.0
 11
-12.56002635659831
 21
10.0
 31
0.0
  0
LINE
  5
1AFA
  8
COTAS
 62
     0
 10
-10.76002635659831
 20
48.19999999999999
 30
0.0
 11
-10.76002635659831
 21
31.79999999999999
 31
0.0
  0
LINE
  5
1AFB
  8
COTAS
 62
     0
 10
-10.76002635659831
 20
11.8
 30
0.0
 11
-10.76002635659831
 21
28.19999999999999
 31
0.0
  0
SOLID
  5
1AFC
  8
COTAS
 62
     0
 10
-10.46002635659831
 20
48.19999999999999
 30
0.0
 11
-11.06002635659831
 21
48.19999999999999
 31
0.0
 12
-10.76002635659831
 22
49.99999999999999
 32
0.0
 13
-10.76002635659831
 23
49.99999999999999
 33
0.0
  0
SOLID
  5
1AFD
  8
COTAS
 62
     0
 10
-11.06002635659831
 20
11.8
 30
0.0
 11
-10.46002635659831
 21
11.8
 31
0.0
 12
-10.76002635659831
 22
10.0
 32
0.0
 13
-10.76002635659831
 23
10.0
 33
0.0
  0
TEXT
  5
1AFE
  8
COTAS
  6
CONTINUOUS
 62
     0
 10
-13.16002635659831
 20
29.09999999999999
 30
0.0
 40
1.8
  1
40.0
  0
POINT
  5
1AFF
  8
DEFPOINTS
 62
     0
 10
9.000000000000455
 20
49.99999999999999
 30
0.0
  0
POINT
  5
1B00
  8
DEFPOINTS
 62
     0
 10
9.0
 20
10.0
 30
0.0
  0
POINT
  5
1B01
  8
DEFPOINTS
 62
     0
 10
-10.76002635659831
 20
10.0
 30
0.0
  0
ENDBLK
  5
1AF7
  8
0
  0
BLOCK
  8
0
  2
*D8
 70
     1
 10
0.0
 20
0.0
 30
0.0
  3
*D8
  1

  0
LINE
  5
1B08
  8
COTAS
 62
     0
 10
80.75000000000064
 20
92.0
 30
0.0
 11
85.12862941267852
 21
92.0
 31
0.0
  0
LINE
  5
1B09
  8
COTAS
 62
     0
 10
80.7500000000002
 20
42.0
 30
0.0
 11
85.12862941267852
 21
42.0
 31
0.0
  0
LINE
  5
1B0A
  8
COTAS
 62
     0
 10
83.32862941267852
 20
90.2
 30
0.0
 11
83.32862941267852
 21
68.80000000000001
 31
0.0
  0
LINE
  5
1B0B
  8
COTAS
 62
     0
 10
83.32862941267852
 20
43.8
 30
0.0
 11
83.32862941267852
 21
65.19999999999999
 31
0.0
  0
SOLID
  5
1B0C
  8
COTAS
 62
     0
 10
83.62862941267852
 20
90.2
 30
0.0
 11
83.02862941267853
 21
90.2
 31
0.0
 12
83.32862941267852
 22
92.0
 32
0.0
 13
83.32862941267852
 23
92.0
 33
0.0
  0
SOLID
  5
1B0D
  8
COTAS
 62
     0
 10
83.02862941267853
 20
43.8
 30
0.0
 11
83.62862941267852
 21
43.8
 31
0.0
 12
83.32862941267852
 22
42.0
 32
0.0
 13
83.32862941267852
 23
42.0
 33
0.0
  0
TEXT
  5
1B0E
  8
COTAS
  6
CONTINUOUS
 62
     0
 10
80.92862941267852
 20
66.10000000000001
 30
0.0
 40
1.8
  1
50.0
  0
POINT
  5
1B0F
  8
DEFPOINTS
 62
     0
 10
74.50000000000064
 20
92.0
 30
0.0
  0
POINT
  5
1B10
  8
DEFPOINTS
 62
     0
 10
74.5000000000002
 20
42.0
 30
0.0
  0
POINT
  5
1B11
  8
DEFPOINTS
 62
     0
 10
83.32862941267852
 20
42.0
 30
0.0
  0
ENDBLK
  5
1B07
  8
0
  0
BLOCK
  8
0
  2
*D9
 70
     1
 10
0.0
 20
0.0
 30
0.0
  3
*D9
  1

  0
LINE
  5
1B18
  8
COTAS
 62
     0
 10
59.50000000000045
 20
98.25
 30
0.0
 11
59.50000000000045
 21
104.5380920141417
 31
0.0
  0
LINE
  5
1B19
  8
COTAS
 62
     0
 10
74.50000000000064
 20
98.25
 30
0.0
 11
74.50000000000064
 21
104.5380920141417
 31
0.0
  0
LINE
  5
1B1A
  8
COTAS
 62
     0
 10
61.30000000000044
 20
102.7380920141417
 30
0.0
 11
63.85000000000053
 21
102.7380920141417
 31
0.0
  0
LINE
  5
1B1B
  8
COTAS
 62
     0
 10
72.70000000000064
 20
102.7380920141417
 30
0.0
 11
70.15000000000055
 21
102.7380920141417
 31
0.0
  0
SOLID
  5
1B1C
  8
COTAS
 62
     0
 10
61.30000000000044
 20
103.0380920141417
 30
0.0
 11
61.30000000000044
 21
102.4380920141417
 31
0.0
 12
59.50000000000045
 22
102.7380920141417
 32
0.0
 13
59.50000000000045
 23
102.7380920141417
 33
0.0
  0
SOLID
  5
1B1D
  8
COTAS
 62
     0
 10
72.70000000000064
 20
102.4380920141417
 30
0.0
 11
72.70000000000064
 21
103.0380920141417
 31
0.0
 12
74.50000000000064
 22
102.7380920141417
 32
0.0
 13
74.50000000000064
 23
102.7380920141417
 33
0.0
  0
TEXT
  5
1B1E
  8
COTAS
  6
CONTINUOUS
 62
     0
 10
64.75000000000054
 20
101.8380920141417
 30
0.0
 40
1.8
  1
15.0
  0
POINT
  5
1B1F
  8
DEFPOINTS
 62
     0
 10
59.50000000000045
 20
92.0
 30
0.0
  0
POINT
  5
1B20
  8
DEFPOINTS
 62
     0
 10
74.50000000000064
 20
92.0
 30
0.0
  0
POINT
  5
1B21
  8
DEFPOINTS
 62
     0
 10
74.50000000000064
 20
102.7380920141417
 30
0.0
  0
ENDBLK
  5
1B17
  8
0
  0
BLOCK
  8
0
  2
*D10
 70
     1
 10
0.0
 20
0.0
 30
0.0
  3
*D10
  1

  0
LINE
  5
1B29
  8
COTAS
 62
     0
 10
8.031231971610953
 20
123.2918414674881
 30
0.0
 11
11.42192007097582
 21
125.7703963312798
 31
0.0
  0
TEXT
  5
1B2A
  8
COTAS
  6
CONTINUOUS
 62
     0
 10
1.474758389644443
 20
119.4631543419762
 30
0.0
 40
1.8
  1
ø6.0
  0
SOLID
  5
1B2B
  8
COTAS
 62
     0
 10
10.14580766151886
 20
124.4659665254144
 30
0.0
 11
9.791728395262897
 21
124.9503505396094
 31
0.0
 12
11.42192007097582
 22
125.7703963312798
 32
0.0
 13
11.42192007097582
 23
125.7703963312798
 33
0.0
  0
SOLID
  5
1B2C
  8
COTAS
 62
     0
 10
7.854192338482974
 20
123.5340334745856
 30
0.0
 11
8.208271604738933
 21
123.0496494603906
 31
0.0
 12
6.578079929026014
 22
122.2296036687202
 32
0.0
 13
6.578079929026014
 23
122.2296036687202
 33
0.0
  0
POINT
  5
1B2D
  8
DEFPOINTS
 62
     0
 10
6.578079929026014
 20
122.2296036687202
 30
0.0
  0
POINT
  5
1B2E
  8
DEFPOINTS
 62
     0
 10
11.42192007097582
 20
125.7703963312798
 30
0.0
  0
ENDBLK
  5
1B28
  8
0
  0
BLOCK
  8
0
  2
*D11
 70
     1
 10
0.0
 20
0.0
 30
0.0
  3
*D11
  1

  0
LINE
  5
1B35
  8
COTAS
 62
     0
 10
14.25481932243883
 20
121.7916354719992
 30
0.0
 11
2.085764049424676
 21
126.905742800001
 31
0.0
  0
TEXT
  5
1B36
  8
COTAS
  6
CONTINUOUS
 62
     0
 10
18.01240969042164
 20
120.5384579530054
 30
0.0
 40
1.8
  1
ø15.0
  0
SOLID
  5
1B37
  8
COTAS
 62
     0
 10
3.861410389563034
 20
126.4849339660238
 30
0.0
 11
3.628950965562947
 21
125.9317950899777
 31
0.0
 12
2.085764049424676
 22
126.905742800001
 32
0.0
 13
2.085764049424676
 23
126.905742800001
 33
0.0
  0
SOLID
  5
1B38
  8
COTAS
 62
     0
 10
14.13858961043879
 20
121.5150660339761
 30
0.0
 11
14.37104903443887
 21
122.0682049100222
 31
0.0
 12
15.91423595057714
 22
121.0942571999989
 32
0.0
 13
15.91423595057714
 23
121.0942571999989
 33
0.0
  0
POINT
  5
1B39
  8
DEFPOINTS
 62
     0
 10
15.91423595057714
 20
121.0942571999989
 30
0.0
  0
POINT
  5
1B3A
  8
DEFPOINTS
 62
     0
 10
2.085764049424676
 20
126.905742800001
 30
0.0
  0
ENDBLK
  5
1B34
  8
0
  0
BLOCK
  8
0
  2
*D12
 70
     1
 10
0.0
 20
0.0
 30
0.0
  3
*D12
  1

  0
LINE
  5
1B41
  8
COTAS
 62
     0
 10
0.0000000000009095
 20
140.25
 30
0.0
 11
0.0000000000009095
 21
152.8896961573937
 31
0.0
  0
LINE
  5
1B42
  8
COTAS
 62
     0
 10
239.0000000000014
 20
140.25
 30
0.0
 11
239.0000000000014
 21
152.8896961573937
 31
0.0
  0
LINE
  5
1B43
  8
COTAS
 62
     0
 10
1.800000000000909
 20
151.0896961573937
 30
0.0
 11
115.1500000000011
 21
151.0896961573937
 31
0.0
  0
LINE
  5
1B44
  8
COTAS
 62
     0
 10
237.2000000000014
 20
151.0896961573937
 30
0.0
 11
123.8500000000012
 21
151.0896961573937
 31
0.0
  0
SOLID
  5
1B45
  8
COTAS
 62
     0
 10
1.800000000000909
 20
151.3896961573937
 30
0.0
 11
1.800000000000909
 21
150.7896961573937
 31
0.0
 12
0.0000000000009095
 22
151.0896961573937
 32
0.0
 13
0.0000000000009095
 23
151.0896961573937
 33
0.0
  0
SOLID
  5
1B46
  8
COTAS
 62
     0
 10
237.2000000000014
 20
150.7896961573937
 30
0.0
 11
237.2000000000014
 21
151.3896961573937
 31
0.0
 12
239.0000000000014
 22
151.0896961573937
 32
0.0
 13
239.0000000000014
 23
151.0896961573937
 33
0.0
  0
TEXT
  5
1B47
  8
COTAS
  6
CONTINUOUS
 62
     0
 10
116.0500000000011
 20
150.1896961573937
 30
0.0
 40
1.8
  1
239.0
  0
POINT
  5
1B48
  8
DEFPOINTS
 62
     0
 10
0.0000000000009095
 20
134.0
 30
0.0
  0
POINT
  5
1B49
  8
DEFPOINTS
 62
     0
 10
239.0000000000014
 20
134.0
 30
0.0
  0
POINT
  5
1B4A
  8
DEFPOINTS
 62
     0
 10
239.0000000000014
 20
151.0896961573937
 30
0.0
  0
ENDBLK
  5
1B40
  8
0
  0
BLOCK
  8
0
  2
*D13
 70
     1
 10
0.0
 20
0.0
 30
0.0
  3
*D13
  1

  0
LINE
  5
1B51
  8
COTAS
 62
     0
 10
-6.249999999999091
 20
134.0
 30
0.0
 11
-24.4457921464569
 21
134.0
 31
0.0
  0
LINE
  5
1B52
  8
COTAS
 62
     0
 10
-6.249999999999091
 20
0.0000000000000004
 30
0.0
 11
-24.4457921464569
 21
0.0000000000000015
 31
0.0
  0
LINE
  5
1B53
  8
COTAS
 62
     0
 10
-22.64579214645689
 20
132.2
 30
0.0
 11
-22.6457921464569
 21
68.79999999999998
 31
0.0
  0
LINE
  5
1B54
  8
COTAS
 62
     0
 10
-22.6457921464569
 20
1.800000000000001
 30
0.0
 11
-22.6457921464569
 21
65.19999999999997
 31
0.0
  0
SOLID
  5
1B55
  8
COTAS
 62
     0
 10
-22.34579214645689
 20
132.2
 30
0.0
 11
-22.9457921464569
 21
132.2
 31
0.0
 12
-22.64579214645689
 22
134.0
 32
0.0
 13
-22.64579214645689
 23
134.0
 33
0.0
  0
SOLID
  5
1B56
  8
COTAS
 62
     0
 10
-22.9457921464569
 20
1.800000000000001
 30
0.0
 11
-22.3457921464569
 21
1.800000000000001
 31
0.0
 12
-22.6457921464569
 22
0.0000000000000014
 32
0.0
 13
-22.6457921464569
 23
0.0000000000000014
 33
0.0
  0
TEXT
  5
1B57
  8
COTAS
  6
CONTINUOUS
 62
     0
 10
-25.7957921464569
 20
66.10000000000001
 30
0.0
 40
1.8
  1
134.0
  0
POINT
  5
1B58
  8
DEFPOINTS
 62
     0
 10
0.0000000000009095
 20
134.0
 30
0.0
  0
POINT
  5
1B59
  8
DEFPOINTS
 62
     0
 10
0.0000000000009095
 20
0.0
 30
0.0
  0
POINT
  5
1B5A
  8
DEFPOINTS
 62
     0
 10
-22.6457921464569
 20
0.0000000000000014
 30
0.0
  0
ENDBLK
  5
1B50
  8
0
  0
BLOCK
  8
0
  2
*D14
 70
     1
 10
0.0
 20
0.0
 30
0.0
  3
*D14
  1

  0
LINE
  5
1B61
  8
COTAS
 62
     0
 10
0.0
 20
-6.25
 30
0.0
 11
0.0
 21
-8.43939192653308
 31
0.0
  0
LINE
  5
1B62
  8
COTAS
 62
     0
 10
59.50000000000045
 20
35.75
 30
0.0
 11
59.50000000000045
 21
-8.43939192653308
 31
0.0
  0
LINE
  5
1B63
  8
COTAS
 62
     0
 10
1.8
 20
-6.639391926533079
 30
0.0
 11
26.15000000000023
 21
-6.639391926533079
 31
0.0
  0
LINE
  5
1B64
  8
COTAS
 62
     0
 10
57.70000000000045
 20
-6.639391926533079
 30
0.0
 11
33.35000000000022
 21
-6.639391926533079
 31
0.0
  0
SOLID
  5
1B65
  8
COTAS
 62
     0
 10
1.8
 20
-6.33939192653308
 30
0.0
 11
1.8
 21
-6.939391926533079
 31
0.0
 12
0.0
 22
-6.639391926533079
 32
0.0
 13
0.0
 23
-6.639391926533079
 33
0.0
  0
SOLID
  5
1B66
  8
COTAS
 62
     0
 10
57.70000000000045
 20
-6.939391926533079
 30
0.0
 11
57.70000000000045
 21
-6.33939192653308
 31
0.0
 12
59.50000000000045
 22
-6.639391926533079
 32
0.0
 13
59.50000000000045
 23
-6.639391926533079
 33
0.0
  0
TEXT
  5
1B67
  8
COTAS
  6
CONTINUOUS
 62
     0
 10
27.05000000000022
 20
-7.539391926533079
 30
0.0
 40
1.8
  1
59.5
  0
POINT
  5
1B68
  8
DEFPOINTS
 62
     0
 10
0.0
 20
0.0
 30
0.0
  0
POINT
  5
1B69
  8
DEFPOINTS
 62
     0
 10
59.50000000000045
 20
42.0
 30
0.0
  0
POINT
  5
1B6A
  8
DEFPOINTS
 62
     0
 10
59.50000000000045
 20
-6.639391926533079
 30
0.0
  0
ENDBLK
  5
1B60
  8
0
  0
BLOCK
  8
0
  2
*D15
 70
     1
 10
0.0
 20
0.0
 30
0.0
  3
*D15
  1

  0
LINE
  5
1B71
  8
COTAS
 62
     0
 10
113.2500000000004
 20
0.0
 30
0.0
 11
81.28931470633958
 21
0.0
 31
0.0
  0
LINE
  5
1B72
  8
COTAS
 62
     0
 10
80.7500000000002
 20
42.0
 30
0.0
 11
84.88931470633958
 21
42.0
 31
0.0
  0
LINE
  5
1B73
  8
COTAS
 62
     0
 10
83.08931470633958
 20
1.8
 30
0.0
 11
83.08931470633958
 21
19.2
 31
0.0
  0
LINE
  5
1B74
  8
COTAS
 62
     0
 10
83.08931470633958
 20
40.2
 30
0.0
 11
83.08931470633958
 21
22.8
 31
0.0
  0
SOLID
  5
1B75
  8
COTAS
 62
     0
 10
82.78931470633958
 20
1.8
 30
0.0
 11
83.38931470633958
 21
1.8
 31
0.0
 12
83.08931470633958
 22
0.0
 32
0.0
 13
83.08931470633958
 23
0.0
 33
0.0
  0
SOLID
  5
1B76
  8
COTAS
 62
     0
 10
83.38931470633958
 20
40.2
 30
0.0
 11
82.78931470633958
 21
40.2
 31
0.0
 12
83.08931470633958
 22
42.0
 32
0.0
 13
83.08931470633958
 23
42.0
 33
0.0
  0
TEXT
  5
1B77
  8
COTAS
  6
CONTINUOUS
 62
     0
 10
80.53931470633958
 20
20.1
 30
0.0
 40
1.8
  1
42.0
  0
POINT
  5
1B78
  8
DEFPOINTS
 62
     0
 10
119.5000000000004
 20
0.0
 30
0.0
  0
POINT
  5
1B79
  8
DEFPOINTS
 62
     0
 10
74.5000000000002
 20
42.0
 30
0.0
  0
POINT
  5
1B7A
  8
DEFPOINTS
 62
     0
 10
83.08931470633958
 20
42.0
 30
0.0
  0
ENDBLK
  5
1B70
  8
0
  0
BLOCK
  8
0
  2
*D16
 70
     1
 10
0.0
 20
0.0
 30
0.0
  3
*D16
  1

  0
LINE
  5
1B81
  8
COTAS
 62
     0
 10
239.0000000000014
 20
140.25
 30
0.0
 11
239.0000000000014
 21
142.9939458707943
 31
0.0
  0
LINE
  5
1B82
  8
COTAS
 62
     0
 10
229.0000000000014
 20
108.25
 30
0.0
 11
229.0000000000014
 21
142.9939458707943
 31
0.0
  0
LINE
  5
1B83
  8
COTAS
 62
     0
 10
240.8000000000014
 20
141.1939458707943
 30
0.0
 11
242.6000000000014
 21
141.1939458707943
 31
0.0
  0
LINE
  5
1B84
  8
COTAS
 62
     0
 10
227.2000000000014
 20
141.1939458707943
 30
0.0
 11
225.4000000000014
 21
141.1939458707943
 31
0.0
  0
SOLID
  5
1B85
  8
COTAS
 62
     0
 10
240.8000000000014
 20
141.4939458707943
 30
0.0
 11
240.8000000000014
 21
140.8939458707943
 31
0.0
 12
239.0000000000014
 22
141.1939458707943
 32
0.0
 13
239.0000000000014
 23
141.1939458707943
 33
0.0
  0
SOLID
  5
1B86
  8
COTAS
 62
     0
 10
227.2000000000014
 20
140.8939458707943
 30
0.0
 11
227.2000000000014
 21
141.4939458707943
 31
0.0
 12
229.0000000000014
 22
141.1939458707943
 32
0.0
 13
229.0000000000014
 23
141.1939458707943
 33
0.0
  0
TEXT
  5
1B87
  8
COTAS
  6
CONTINUOUS
 62
     0
 10
231.9000000000014
 20
140.2939458707943
 30
0.0
 40
1.8
  1
10.0
  0
POINT
  5
1B88
  8
DEFPOINTS
 62
     0
 10
239.0000000000014
 20
134.0
 30
0.0
  0
POINT
  5
1B89
  8
DEFPOINTS
 62
     0
 10
229.0000000000014
 20
102.0
 30
0.0
  0
POINT
  5
1B8A
  8
DEFPOINTS
 62
     0
 10
229.0000000000014
 20
141.1939458707943
 30
0.0
  0
ENDBLK
  5
1B80
  8
0
  0
BLOCK
  8
0
  2
*D17
 70
     1
 10
0.0
 20
0.0
 30
0.0
  3
*D17
  1

  0
LINE
  5
1B8F
  8
COTAS
 62
     0
 10
229.0000000000014
 20
108.25
 30
0.0
 11
229.0000000000014
 21
142.9939458707943
 31
0.0
  0
LINE
  5
1B90
  8
COTAS
 62
     0
 10
191.0000000000014
 20
108.25
 30
0.0
 11
191.0000000000014
 21
142.9939458707943
 31
0.0
  0
LINE
  5
1B91
  8
COTAS
 62
     0
 10
227.2000000000014
 20
141.1939458707943
 30
0.0
 11
213.4500000000014
 21
141.1939458707943
 31
0.0
  0
LINE
  5
1B92
  8
COTAS
 62
     0
 10
192.8000000000014
 20
141.1939458707943
 30
0.0
 11
206.5500000000014
 21
141.1939458707943
 31
0.0
  0
SOLID
  5
1B93
  8
COTAS
 62
     0
 10
227.2000000000014
 20
140.8939458707943
 30
0.0
 11
227.2000000000014
 21
141.4939458707943
 31
0.0
 12
229.0000000000014
 22
141.1939458707943
 32
0.0
 13
229.0000000000014
 23
141.1939458707943
 33
0.0
  0
SOLID
  5
1B94
  8
COTAS
 62
     0
 10
192.8000000000014
 20
141.4939458707943
 30
0.0
 11
192.8000000000014
 21
140.8939458707943
 31
0.0
 12
191.0000000000014
 22
141.1939458707943
 32
0.0
 13
191.0000000000014
 23
141.1939458707943
 33
0.0
  0
TEXT
  5
1B95
  8
COTAS
  6
CONTINUOUS
 62
     0
 10
207.4500000000014
 20
140.2939458707943
 30
0.0
 40
1.8
  1
38.0
  0
POINT
  5
1B96
  8
DEFPOINTS
 62
     0
 10
229.0000000000014
 20
102.0
 30
0.0
  0
POINT
  5
1B97
  8
DEFPOINTS
 62
     0
 10
191.0000000000014
 20
102.0
 30
0.0
  0
POINT
  5
1B98
  8
DEFPOINTS
 62
     0
 10
191.0000000000014
 20
141.1939458707943
 30
0.0
  0
ENDBLK
  5
1B8E
  8
0
  0
BLOCK
  8
0
  2
*D18
 70
     1
 10
0.0
 20
0.0
 30
0.0
  3
*D18
  1

  0
LINE
  5
1B9D
  8
COTAS
 62
     0
 10
191.0000000000014
 20
108.25
 30
0.0
 11
191.0000000000014
 21
142.9939458707943
 31
0.0
  0
LINE
  5
1B9E
  8
COTAS
 62
     0
 10
153.0000000000014
 20
108.25
 30
0.0
 11
153.0000000000014
 21
142.9939458707943
 31
0.0
  0
LINE
  5
1B9F
  8
COTAS
 62
     0
 10
189.2000000000014
 20
141.1939458707943
 30
0.0
 11
175.4500000000014
 21
141.1939458707943
 31
0.0
  0
LINE
  5
1BA0
  8
COTAS
 62
     0
 10
154.8000000000014
 20
141.1939458707943
 30
0.0
 11
168.5500000000014
 21
141.1939458707943
 31
0.0
  0
SOLID
  5
1BA1
  8
COTAS
 62
     0
 10
189.2000000000014
 20
140.8939458707943
 30
0.0
 11
189.2000000000014
 21
141.4939458707943
 31
0.0
 12
191.0000000000014
 22
141.1939458707943
 32
0.0
 13
191.0000000000014
 23
141.1939458707943
 33
0.0
  0
SOLID
  5
1BA2
  8
COTAS
 62
     0
 10
154.8000000000014
 20
141.4939458707943
 30
0.0
 11
154.8000000000014
 21
140.8939458707943
 31
0.0
 12
153.0000000000014
 22
141.1939458707943
 32
0.0
 13
153.0000000000014
 23
141.1939458707943
 33
0.0
  0
TEXT
  5
1BA3
  8
COTAS
  6
CONTINUOUS
 62
     0
 10
169.4500000000014
 20
140.2939458707943
 30
0.0
 40
1.8
  1
38.0
  0
POINT
  5
1BA4
  8
DEFPOINTS
 62
     0
 10
191.0000000000014
 20
102.0
 30
0.0
  0
POINT
  5
1BA5
  8
DEFPOINTS
 62
     0
 10
153.0000000000014
 20
102.0
 30
0.0
  0
POINT
  5
1BA6
  8
DEFPOINTS
 62
     0
 10
153.0000000000014
 20
141.1939458707943
 30
0.0
  0
ENDBLK
  5
1B9C
  8
0
  0
BLOCK
  8
0
  2
*D19
 70
     1
 10
0.0
 20
0.0
 30
0.0
  3
*D19
  1

  0
LINE
  5
1BAD
  8
COTAS
 62
     0
 10
245.2500000000014
 20
134.0
 30
0.0
 11
254.4540574679651
 21
134.0
 31
0.0
  0
LINE
  5
1BAE
  8
COTAS
 62
     0
 10
235.2500000000014
 20
102.0
 30
0.0
 11
254.4540574679651
 21
102.0
 31
0.0
  0
LINE
  5
1BAF
  8
COTAS
 62
     0
 10
252.6540574679651
 20
132.2
 30
0.0
 11
252.6540574679651
 21
119.8
 31
0.0
  0
LINE
  5
1BB0
  8
COTAS
 62
     0
 10
252.6540574679651
 20
103.8
 30
0.0
 11
252.6540574679651
 21
116.2
 31
0.0
  0
SOLID
  5
1BB1
  8
COTAS
 62
     0
 10
252.9540574679651
 20
132.2
 30
0.0
 11
252.3540574679651
 21
132.2
 31
0.0
 12
252.6540574679651
 22
134.0
 32
0.0
 13
252.6540574679651
 23
134.0
 33
0.0
  0
SOLID
  5
1BB2
  8
COTAS
 62
     0
 10
252.3540574679651
 20
103.8
 30
0.0
 11
252.9540574679651
 21
103.8
 31
0.0
 12
252.6540574679651
 22
102.0
 32
0.0
 13
252.6540574679651
 23
102.0
 33
0.0
  0
TEXT
  5
1BB3
  8
COTAS
  6
CONTINUOUS
 62
     0
 10
250.1040574679651
 20
117.1
 30
0.0
 40
1.8
  1
32.0
  0
POINT
  5
1BB4
  8
DEFPOINTS
 62
     0
 10
239.0000000000014
 20
134.0
 30
0.0
  0
POINT
  5
1BB5
  8
DEFPOINTS
 62
     0
 10
229.0000000000014
 20
102.0
 30
0.0
  0
POINT
  5
1BB6
  8
DEFPOINTS
 62
     0
 10
252.6540574679651
 20
102.0
 30
0.0
  0
ENDBLK
  5
1BAC
  8
0
  0
BLOCK
  8
0
  2
*D20
 70
     1
 10
0.0
 20
0.0
 30
0.0
  3
*D20
  1

  0
LINE
  5
1BBB
  8
COTAS
 62
     0
 10
235.2500000000014
 20
102.0
 30
0.0
 11
254.4540574679651
 21
102.0
 31
0.0
  0
LINE
  5
1BBC
  8
COTAS
 62
     0
 10
235.2500000000009
 20
32.00000000000001
 30
0.0
 11
254.4540574679651
 21
32.00000000000001
 31
0.0
  0
LINE
  5
1BBD
  8
COTAS
 62
     0
 10
252.6540574679651
 20
100.2
 30
0.0
 11
252.6540574679651
 21
68.8
 31
0.0
  0
LINE
  5
1BBE
  8
COTAS
 62
     0
 10
252.6540574679651
 20
33.8
 30
0.0
 11
252.6540574679651
 21
65.19999999999999
 31
0.0
  0
SOLID
  5
1BBF
  8
COTAS
 62
     0
 10
252.9540574679651
 20
100.2
 30
0.0
 11
252.3540574679651
 21
100.2
 31
0.0
 12
252.6540574679651
 22
102.0
 32
0.0
 13
252.6540574679651
 23
102.0
 33
0.0
  0
SOLID
  5
1BC0
  8
COTAS
 62
     0
 10
252.3540574679651
 20
33.8
 30
0.0
 11
252.9540574679651
 21
33.8
 31
0.0
 12
252.6540574679651
 22
32.00000000000001
 32
0.0
 13
252.6540574679651
 23
32.00000000000001
 33
0.0
  0
TEXT
  5
1BC1
  8
COTAS
  6
CONTINUOUS
 62
     0
 10
250.2540574679651
 20
66.1
 30
0.0
 40
1.8
  1
70.0
  0
POINT
  5
1BC2
  8
DEFPOINTS
 62
     0
 10
229.0000000000014
 20
102.0
 30
0.0
  0
POINT
  5
1BC3
  8
DEFPOINTS
 62
     0
 10
229.0000000000009
 20
32.00000000000001
 30
0.0
  0
POINT
  5
1BC4
  8
DEFPOINTS
 62
     0
 10
252.6540574679651
 20
32.00000000000001
 30
0.0
  0
ENDBLK
  5
1BBA
  8
0
  0
BLOCK
  8
0
  2
*D21
 70
     1
 10
0.0
 20
0.0
 30
0.0
  3
*D21
  1

  0
LINE
  5
1BCB
  8
COTAS
 62
     0
 10
-6.25
 20
-48.99681102175278
 30
0.0
 11
-19.13808315061683
 21
-48.99681102175278
 31
0.0
  0
LINE
  5
1BCC
  8
COTAS
 62
     0
 10
-4.750000000000097
 20
-55.99681102175278
 30
0.0
 11
-19.13808315061683
 21
-55.99681102175278
 31
0.0
  0
LINE
  5
1BCD
  8
COTAS
 62
     0
 10
-17.33808315061682
 20
-50.79681102175277
 30
0.0
 11
-17.33808315061682
 21
-54.19681102175278
 31
0.0
  0
SOLID
  5
1BCE
  8
COTAS
 62
     0
 10
-17.03808315061682
 20
-50.79681102175277
 30
0.0
 11
-17.63808315061683
 21
-50.79681102175277
 31
0.0
 12
-17.33808315061682
 22
-48.99681102175278
 32
0.0
 13
-17.33808315061682
 23
-48.99681102175278
 33
0.0
  0
SOLID
  5
1BCF
  8
COTAS
 62
     0
 10
-17.63808315061683
 20
-54.19681102175278
 30
0.0
 11
-17.03808315061682
 21
-54.19681102175278
 31
0.0
 12
-17.33808315061682
 22
-55.99681102175278
 32
0.0
 13
-17.33808315061682
 23
-55.99681102175278
 33
0.0
  0
TEXT
  5
1BD0
  8
COTAS
  6
CONTINUOUS
 62
     0
 10
-23.03808315061682
 20
-53.39681102175278
 30
0.0
 40
1.8
  1
7.0
  0
POINT
  5
1BD1
  8
DEFPOINTS
 62
     0
 10
0.0
 20
-48.99681102175278
 30
0.0
  0
POINT
  5
1BD2
  8
DEFPOINTS
 62
     0
 10
1.499999999999903
 20
-55.99681102175278
 30
0.0
  0
POINT
  5
1BD3
  8
DEFPOINTS
 62
     0
 10
-17.33808315061682
 20
-55.99681102175278
 30
0.0
  0
ENDBLK
  5
1BCA
  8
0
  0
BLOCK
  8
0
  2
*D22
 70
     1
 10
0.0
 20
0.0
 30
0.0
  3
*D22
  1

  0
LINE
  5
1BDA
  8
COTAS
 62
     0
 10
-6.25
 20
-48.99681102175278
 30
0.0
 11
-31.15553748082077
 21
-48.99681102175278
 31
0.0
  0
LINE
  5
1BDB
  8
COTAS
 62
     0
 10
-6.25
 20
-63.99681102175278
 30
0.0
 11
-31.15553748082077
 21
-63.99681102175278
 31
0.0
  0
LINE
  5
1BDC
  8
COTAS
 62
     0
 10
-29.35553748082077
 20
-50.79681102175277
 30
0.0
 11
-29.35553748082077
 21
-54.69681102175278
 31
0.0
  0
LINE
  5
1BDD
  8
COTAS
 62
     0
 10
-29.35553748082077
 20
-62.19681102175278
 30
0.0
 11
-29.35553748082077
 21
-58.29681102175277
 31
0.0
  0
SOLID
  5
1BDE
  8
COTAS
 62
     0
 10
-29.05553748082077
 20
-50.79681102175277
 30
0.0
 11
-29.65553748082077
 21
-50.79681102175277
 31
0.0
 12
-29.35553748082077
 22
-48.99681102175278
 32
0.0
 13
-29.35553748082077
 23
-48.99681102175278
 33
0.0
  0
SOLID
  5
1BDF
  8
COTAS
 62
     0
 10
-29.65553748082077
 20
-62.19681102175278
 30
0.0
 11
-29.05553748082077
 21
-62.19681102175278
 31
0.0
 12
-29.35553748082077
 22
-63.99681102175278
 32
0.0
 13
-29.35553748082077
 23
-63.99681102175278
 33
0.0
  0
TEXT
  5
1BE0
  8
COTAS
  6
CONTINUOUS
 62
     0
 10
-31.60553748082077
 20
-57.39681102175278
 30
0.0
 40
1.8
  1
15.0
  0
POINT
  5
1BE1
  8
DEFPOINTS
 62
     0
 10
0.0
 20
-48.99681102175278
 30
0.0
  0
POINT
  5
1BE2
  8
DEFPOINTS
 62
     0
 10
0.0
 20
-63.99681102175278
 30
0.0
  0
POINT
  5
1BE3
  8
DEFPOINTS
 62
     0
 10
-29.35553748082077
 20
-63.99681102175278
 30
0.0
  0
ENDBLK
  5
1BD9
  8
0
  0
BLOCK
  8
0
  2
*D23
 70
     1
 10
0.0
 20
0.0
 30
0.0
  3
*D23
  1

  0
LINE
  5
1BEA
  8
COTAS
 62
     0
 10
245.2500000000007
 20
-63.99681102175278
 30
0.0
 11
258.0592937670263
 21
-63.99681102175278
 31
0.0
  0
LINE
  5
1BEB
  8
COTAS
 62
     0
 10
242.750000000001
 20
-56.99681102175278
 30
0.0
 11
258.0592937670263
 21
-56.99681102175278
 31
0.0
  0
LINE
  5
1BEC
  8
COTAS
 62
     0
 10
256.2592937670263
 20
-62.19681102175278
 30
0.0
 11
256.2592937670263
 21
-58.79681102175277
 31
0.0
  0
SOLID
  5
1BED
  8
COTAS
 62
     0
 10
255.9592937670263
 20
-62.19681102175278
 30
0.0
 11
256.5592937670263
 21
-62.19681102175278
 31
0.0
 12
256.2592937670263
 22
-63.99681102175278
 32
0.0
 13
256.2592937670263
 23
-63.99681102175278
 33
0.0
  0
SOLID
  5
1BEE
  8
COTAS
 62
     0
 10
256.5592937670263
 20
-58.79681102175277
 30
0.0
 11
255.9592937670263
 21
-58.79681102175277
 31
0.0
 12
256.2592937670263
 22
-56.99681102175278
 32
0.0
 13
256.2592937670263
 23
-56.99681102175278
 33
0.0
  0
TEXT
  5
1BEF
  8
COTAS
  6
CONTINUOUS
 62
     0
 10
258.6592937670263
 20
-61.39681102175278
 30
0.0
 40
1.8
  1
7.0
  0
POINT
  5
1BF0
  8
DEFPOINTS
 62
     0
 10
239.0000000000007
 20
-63.99681102175278
 30
0.0
  0
POINT
  5
1BF1
  8
DEFPOINTS
 62
     0
 10
236.500000000001
 20
-56.99681102175278
 30
0.0
  0
POINT
  5
1BF2
  8
DEFPOINTS
 62
     0
 10
256.2592937670263
 20
-56.99681102175278
 30
0.0
  0
ENDBLK
  5
1BE9
  8
0
  0
BLOCK
  8
0
  2
*D24
 70
     1
 10
0.0
 20
0.0
 30
0.0
  3
*D24
  1

  0
LINE
  5
1BF9
  8
COTAS
 62
     0
 10
245.2500000000007
 20
-63.99681102175278
 30
0.0
 11
269.6761662862235
 21
-63.99681102175278
 31
0.0
  0
LINE
  5
1BFA
  8
COTAS
 62
     0
 10
245.2500000000007
 20
-48.99681102175279
 30
0.0
 11
269.6761662862235
 21
-48.99681102175279
 31
0.0
  0
LINE
  5
1BFB
  8
COTAS
 62
     0
 10
267.8761662862235
 20
-62.19681102175278
 30
0.0
 11
267.8761662862235
 21
-58.29681102175278
 31
0.0
  0
LINE
  5
1BFC
  8
COTAS
 62
     0
 10
267.8761662862235
 20
-50.79681102175279
 30
0.0
 11
267.8761662862235
 21
-54.69681102175279
 31
0.0
  0
SOLID
  5
1BFD
  8
COTAS
 62
     0
 10
267.5761662862234
 20
-62.19681102175278
 30
0.0
 11
268.1761662862235
 21
-62.19681102175278
 31
0.0
 12
267.8761662862235
 22
-63.99681102175278
 32
0.0
 13
267.8761662862235
 23
-63.99681102175278
 33
0.0
  0
SOLID
  5
1BFE
  8
COTAS
 62
     0
 10
268.1761662862235
 20
-50.79681102175279
 30
0.0
 11
267.5761662862234
 21
-50.79681102175279
 31
0.0
 12
267.8761662862235
 22
-48.99681102175279
 32
0.0
 13
267.8761662862235
 23
-48.99681102175279
 33
0.0
  0
TEXT
  5
1BFF
  8
COTAS
  6
CONTINUOUS
 62
     0
 10
265.6261662862235
 20
-57.39681102175278
 30
0.0
 40
1.8
  1
15.0
  0
POINT
  5
1C00
  8
DEFPOINTS
 62
     0
 10
239.0000000000007
 20
-63.99681102175278
 30
0.0
  0
POINT
  5
1C01
  8
DEFPOINTS
 62
     0
 10
239.0000000000007
 20
-48.99681102175279
 30
0.0
  0
POINT
  5
1C02
  8
DEFPOINTS
 62
     0
 10
267.8761662862235
 20
-48.99681102175279
 30
0.0
  0
ENDBLK
  5
1BF8
  8
0
  0
ENDSEC
  0
SECTION
  2
ENTITIES
  0
LINE
  5
65
  8
-11
  6
AVEVASOLID
 62
   253
 10
183.0716521028405
 20
171.6640592998592
 30
0.0
 11
330.0716521028405
 21
171.6640592998592
 31
0.0
  0
LINE
  5
131
  8
-300
  6
AVEVASOLIDXWIDE
 62
    92
 10
-62.73523266278448
 20
-111.2442353778752
 30
0.0
 11
-62.73523266278448
 21
171.7557646221248
 31
0.0
  0
LINE
  5
132
  8
-300
  6
AVEVASOLIDXWIDE
 62
    92
 10
-62.73523266278448
 20
171.7557646221248
 30
0.0
 11
330.0716521028405
 21
171.6640592998592
 31
0.0
  0
LINE
  5
133
  8
-300
  6
AVEVASOLIDXWIDE
 62
    92
 10
330.0716521028405
 20
171.6640592998592
 30
0.0
 11
330.0716521028405
 21
-111.335935454932
 31
0.0
  0
LINE
  5
134
  8
-300
  6
AVEVASOLIDXWIDE
 62
    92
 10
-62.73523266278448
 20
-111.2442353778752
 30
0.0
 11
330.0716521028405
 21
-111.335935454932
 31
0.0
  0
LINE
  5
139
  8
-300
  6
AVEVASOLIDXWIDE
 62
    92
 10
10.00000002980232
 20
0.0
 30
0.0
 11
0.0
 21
0.0
 31
0.0
  0
LINE
  5
13A
  8
-300
  6
AVEVASOLID
 62
    92
 10
-82.92833266817274
 20
178.6640592998592
 30
0.0
 11
-82.92833266817274
 21
-118.3359353804262
 31
0.0
  0
LINE
  5
13B
  8
-300
  6
AVEVASOLID
 62
    92
 10
-82.92833266817274
 20
-118.3359353804262
 30
0.0
 11
337.0716521028405
 21
-118.3359353804262
 31
0.0
  0
LINE
  5
13D
  8
-300
  6
AVEVASOLIDXWIDE
 62
    92
 10
337.0716521028405
 20
-118.3359353804262
 30
0.0
 11
337.0716521028405
 21
-108.3359349780949
 31
0.0
  0
LINE
  5
13E
  8
-300
  6
AVEVASOLIDXWIDE
 62
    92
 10
327.0716521028405
 20
-118.3359353804262
 30
0.0
 11
337.0716521028405
 21
-118.3359353804262
 31
0.0
  0
LINE
  5
13F
  8
-300
  6
AVEVASOLID
 62
    92
 10
337.0716521028405
 20
178.6640592998592
 30
0.0
 11
337.0716521028405
 21
-118.3359353804262
 31
0.0
  0
LINE
  5
142
  8
-300
  6
AVEVASOLID
 62
    92
 10
-82.92833266817274
 20
178.6640592998592
 30
0.0
 11
337.0716521028405
 21
178.6640592998592
 31
0.0
  0
LINE
  5
143
  8
-300
  6
AVEVASOLIDXWIDE
 62
    92
 10
0.0
 20
0.0
 30
0.0
 11
0.0
 21
10.00000040233135
 31
0.0
  0
LINE
  5
151
  8
-300
  6
AVEVASOLIDXWIDE
 62
    92
 10
337.0716521028405
 20
-118.3359353804262
 30
0.0
 11
337.0716521028405
 21
-108.3359349780949
 31
0.0
  0
LINE
  5
152
  8
-300
  6
AVEVASOLIDXWIDE
 62
    92
 10
327.0716521028405
 20
-118.3359353804262
 30
0.0
 11
337.0716521028405
 21
-118.3359353804262
 31
0.0
  0
LINE
  5
153
  8
-300
  6
AVEVASOLID
 62
    92
 10
337.0716521028405
 20
178.6640592998592
 30
0.0
 11
337.0716521028405
 21
-118.3359353804262
 31
0.0
  0
LINE
  5
156
  8
-300
  6
AVEVASOLID
 62
    92
 10
-82.92833266817274
 20
178.6640592998592
 30
0.0
 11
337.0716521028405
 21
178.6640592998592
 31
0.0
  0
LINE
  5
157
  8
-300
  6
AVEVASOLIDXWIDE
 62
    92
 10
0.0
 20
0.0
 30
0.0
 11
0.0
 21
10.00000040233135
 31
0.0
  0
LINE
  5
158
  8
-300
  6
AVEVASOLIDXWIDE
 62
    92
 10
10.00000002980232
 20
0.0
 30
0.0
 11
0.0
 21
0.0
 31
0.0
  0
LINE
  5
159
  8
-300
  6
AVEVASOLID
 62
    92
 10
-82.92833266817274
 20
178.6640592998592
 30
0.0
 11
-82.92833266817274
 21
-118.3359353804262
 31
0.0
  0
LINE
  5
15A
  8
-300
  6
AVEVASOLID
 62
    92
 10
-82.92833266817274
 20
-118.3359353804262
 30
0.0
 11
337.0716521028405
 21
-118.3359353804262
 31
0.0
  0
CIRCLE
  5
17C1
  8
0
 10
-136.0000000000014
 20
124.0
 30
-7.999999997877424
 40
7.499999999999915
210
3.000000000000000E-16
220
5.200000000000000E-15
230
-1.0
  0
CIRCLE
  5
17C2
  8
0
 10
-229.0000000000009
 20
32.00000000000004
 30
-6.999999999830392
 40
3.000000000000039
210
7.000000000000000E-16
220
4.700000000000000E-15
230
-1.0
  0
CIRCLE
  5
17C3
  8
0
 10
-229.0000000000014
 20
102.0000000000001
 30
-7.000000000258769
 40
3.000000000000039
210
1.000000000000000E-15
220
7.600000000000000E-15
230
-1.0
  0
CIRCLE
  5
17C4
  8
0
 10
-191.0000000000009
 20
32.00000000000006
 30
-6.999999999889272
 40
3.000000000000039
210
1.100000000000000E-15
220
9.300000000000000E-15
230
-1.0
  0
CIRCLE
  5
17C5
  8
0
 10
-191.0000000000014
 20
102.0
 30
-6.999999999948469
 40
3.000000000000039
210
5.000000000000000E-16
220
7.000000000000000E-15
230
-1.0
  0
CIRCLE
  5
17C6
  8
0
 10
-153.0000000000009
 20
32.00000000000004
 30
-6.99999999994865
 40
2.999999999999869
210
3.000000000000000E-16
220
5.200000000000000E-15
230
-1.0
  0
CIRCLE
  5
17C7
  8
0
 10
-153.0000000000014
 20
102.0000000000001
 30
-6.999999999822544
 40
3.000000000000041
210
1.700000000000000E-15
220
8.300000000000000E-15
230
-1.0
  0
CIRCLE
  5
17C8
  8
0
 10
-153.0000000000014
 20
102.0
 30
-6.999999999999897
 40
7.500000000000097
210
4.000000000000000E-16
220
5.000000000000000E-15
230
-1.0
  0
CIRCLE
  5
17C9
  8
0
 10
-153.0000000000009
 20
32.00000000000004
 30
-6.999999999940798
 40
7.500000000000097
210
3.000000000000000E-16
220
5.000000000000000E-15
230
-1.0
  0
CIRCLE
  5
17CA
  8
0
 10
-191.0000000000014
 20
102.0
 30
-7.000000000125415
 40
7.5000000000001
210
1.000000000000000E-15
220
5.700000000000000E-15
230
-1.0
  0
CIRCLE
  5
17CB
  8
0
 10
-191.0000000000009
 20
32.00000000000004
 30
-7.000000000066507
 40
7.500000000000102
210
3.000000000000000E-16
220
5.100000000000000E-15
230
-1.0
  0
CIRCLE
  5
17CC
  8
0
 10
-136.0000000000009
 20
50.00000000000003
 30
-7.999999998231086
 40
7.500000000000098
210
3.000000000000000E-16
220
5.000000000000000E-15
230
-1.0
  0
CIRCLE
  5
17CD
  8
0
 10
-136.000000000001
 20
84.00000000000003
 30
-7.999999998054255
 40
7.500000000000094
210
4.000000000000000E-16
220
5.100000000000000E-15
230
-1.0
  0
CIRCLE
  5
17CE
  8
0
 10
96.00000000000115
 20
84.0000000000009
 30
7.999999998939117
 40
7.500000000000097
  0
CIRCLE
  5
17CF
  8
0
 10
-96.00000000000092
 20
50.00000000000003
 30
-7.999999998761793
 40
7.500000000000098
210
3.000000000000000E-16
220
5.100000000000000E-15
230
-1.0
  0
CIRCLE
  5
17D0
  8
0
 10
-96.00000000000068
 20
10.00000000000095
 30
-7.999999998584906
 40
7.500000000000098
210
2.000000000000000E-16
220
5.000000000000000E-15
230
-1.0
  0
CIRCLE
  5
17D1
  8
0
 10
136.0000000000007
 20
10.0
 30
7.999999998408048
 40
7.500000000000098
  0
CIRCLE
  5
17D2
  8
0
 10
96.00000000000136
 20
124.0000000000009
 30
7.999999999116142
 40
2.999999999999996
  0
CIRCLE
  5
17D3
  8
0
 10
96.00000000000115
 20
84.0000000000009
 30
7.999999998939117
 40
2.999999999999996
  0
CIRCLE
  5
17D4
  8
0
 10
136.000000000001
 20
84.0
 30
7.999999998054732
 40
2.999999999999998
  0
CIRCLE
  5
17D5
  8
0
 10
136.0000000000007
 20
10.0
 30
7.999999998408048
 40
3.0
  0
CIRCLE
  5
17D6
  8
0
 10
96.00000000000068
 20
10.00000000000091
 30
7.99999999858497
 40
2.999999999999998
  0
CIRCLE
  5
17D7
  8
0
 10
136.0000000000009
 20
50.0
 30
7.999999998231382
 40
3.000000000000001
  0
LINE
  5
17D8
  8
0
 10
239.0000000000007
 20
0.0
 30
-0.000000000000079
 11
0.0
 21
0.0
 31
0.0
  0
CIRCLE
  5
17D9
  8
0
 10
-9.000000000000002
 20
10.00000000000004
 30
-7.999999999999972
 40
7.500000000000097
210
3.000000000000000E-16
220
5.100000000000000E-15
230
-1.0
  0
CIRCLE
  5
17DA
  8
0
 10
9.0
 20
10.0
 30
8.000000000000027
 40
2.999999999999998
  0
CIRCLE
  5
17DB
  8
0
 10
-9.000000000000457
 20
50.00000000000003
 30
-7.999999999823087
 40
7.500000000000098
210
2.000000000000000E-16
220
5.100000000000000E-15
230
-1.0
  0
CIRCLE
  5
17DC
  8
0
 10
9.000000000000455
 20
50.0
 30
7.999999999823344
 40
2.999999999999998
  0
CIRCLE
  5
17DD
  8
0
 10
-9.000000000000682
 20
84.00000000000003
 30
-7.999999999646196
 40
7.500000000000098
210
2.000000000000000E-16
220
5.000000000000000E-15
230
-1.0
  0
CIRCLE
  5
17DE
  8
0
 10
9.000000000000682
 20
84.0
 30
7.999999999646616
 40
2.999999999999998
  0
CIRCLE
  5
17DF
  8
0
 10
-9.000000000000911
 20
124.0
 30
-7.999999999469271
 40
7.499999999999917
210
3.000000000000000E-16
220
5.100000000000000E-15
230
-1.0
  0
CIRCLE
  5
17E0
  8
0
 10
9.00000000000091
 20
124.0
 30
7.999999999469904
 40
3.0
  0
CIRCLE
  5
17E1
  8
0
 10
49.00000000000023
 20
10.0
 30
7.999999999823114
 40
7.500000000000098
  0
CIRCLE
  5
17E2
  8
0
 10
49.00000000000023
 20
10.0
 30
7.999999999823114
 40
2.999999999999996
  0
CIRCLE
  5
17E3
  8
0
 10
49.00000000000045
 20
50.0
 30
7.999999999646336
 40
7.500000000000096
  0
CIRCLE
  5
17E4
  8
0
 10
49.00000000000045
 20
50.0
 30
7.999999999646336
 40
2.999999999999996
  0
CIRCLE
  5
17E5
  8
0
 10
-49.00000000000045
 20
84.00000000000003
 30
-7.999999999469162
 40
7.500000000000098
210
4.000000000000000E-16
220
5.300000000000000E-15
230
-1.0
  0
CIRCLE
  5
17E6
  8
0
 10
49.00000000000045
 20
84.0
 30
7.999999999469629
 40
3.0
  0
CIRCLE
  5
17E7
  8
0
 10
-49.0000000000009
 20
124.0
 30
-7.999999999292295
 40
7.499999999999922
210
3.000000000000000E-16
220
5.100000000000000E-15
230
-1.0
  0
CIRCLE
  5
17E8
  8
0
 10
49.0000000000009
 20
124.0
 30
7.999999999292942
 40
2.999999999999996
  0
CIRCLE
  5
17E9
  8
0
 10
-96.00000000000136
 20
124.000000000001
 30
-7.999999999115495
 40
7.499999999999912
210
3.000000000000000E-16
220
5.000000000000000E-15
230
-1.0
  0
CIRCLE
  5
17EA
  8
0
 10
-229.0000000000014
 20
102.0
 30
-7.000000000066552
 40
7.500000000000098
210
2.000000000000000E-16
220
5.000000000000000E-15
230
-1.0
  0
CIRCLE
  5
17EB
  8
0
 10
-229.0000000000009
 20
32.00000000000004
 30
-7.000000000007392
 40
7.5000000000001
210
4.000000000000000E-16
220
5.200000000000000E-15
230
-1.0
  0
LINE
  5
17EC
  8
0
 10
74.5000000000002
 20
42.0
 30
0.0000000001927701
 11
74.50000000000064
 21
92.0
 31
0.0000000001930239
  0
LINE
  5
17ED
  8
0
 10
0.0
 20
0.0
 30
0.0
 11
0.0000000000009095
 21
134.0
 31
0.0000000000006571
  0
LINE
  5
17EE
  8
0
 10
0.0000000000009095
 20
134.0
 30
0.0000000000006571
 11
239.0000000000014
 21
134.0
 31
0.0000000000006909
  0
LINE
  5
17EF
  8
0
 10
239.0000000000014
 20
134.0
 30
0.0000000000006909
 11
239.0000000000007
 21
0.0
 31
-0.000000000000079
  0
LINE
  5
17F0
  8
0
 10
59.50000000000045
 20
92.0
 30
0.0000000001930182
 11
59.50000000000045
 21
42.0
 31
0.0000000001927644
  0
LINE
  5
17F1
  8
0
 10
59.50000000000045
 20
42.0
 30
0.0000000001927644
 11
74.5000000000002
 21
42.0
 31
0.00000000019277
  0
LINE
  5
17F2
  8
0
 10
74.50000000000064
 20
92.0
 30
0.0000000001930238
 11
59.50000000000045
 21
92.0
 31
0.0000000001930182
  0
CIRCLE
  5
17F3
  8
0
 10
96.00000000000092
 20
50.0
 30
7.999999998762075
 40
3.0
  0
CIRCLE
  5
17F4
  8
0
 10
136.0000000000014
 20
124.0
 30
7.999999997878111
 40
2.999999999999998
  0
LINE
  5
17F5
  8
0
 10
0.0
 20
-48.99681102175278
 30
0.0
 11
0.0
 21
-63.99681102175278
 31
0.0
  0
LINE
  5
17F6
  8
0
 10
239.0000000000007
 20
-48.99681102175279
 30
-0.000000000000079
 11
239.0000000000007
 21
-63.99681102175278
 31
-0.000000000000079
  0
LINE
  5
17F7
  8
0
 10
0.0
 20
-63.99681102175278
 30
0.0
 11
239.0000000000007
 21
-63.99681102175278
 31
0.0
  0
LINE
  5
17F8
  8
0
 10
0.0
 20
-48.99681102175278
 30
0.0
 11
239.0000000000007
 21
-48.99681102175278
 31
0.0
  0
LINE
  5
1817
  8
0
  6
AVEVASHORTDASHED
 10
1.499999999999902
 20
-55.99681102175278
 30
0.0
 11
16.5000000000001
 21
-55.99681102175278
 31
0.0
  0
LINE
  5
1818
  8
0
  6
AVEVASHORTDASHED
 10
41.50000000000013
 20
-55.99681102175278
 30
0.0
 11
56.50000000000033
 21
-55.99681102175278
 31
0.0
  0
LINE
  5
1819
  8
0
  6
AVEVASHORTDASHED
 10
88.50000000000058
 20
-55.99681102175278
 30
0.0
 11
103.5000000000008
 21
-55.99681102175278
 31
0.0
  0
LINE
  5
181A
  8
0
  6
AVEVASHORTDASHED
 10
128.5000000000006
 20
-55.99681102175278
 30
0.0
 11
143.5000000000008
 21
-55.99681102175278
 31
0.0
  0
LINE
  5
181E
  8
0
  6
AVEVASHORTDASHED
 10
145.5000000000008
 20
-56.99681102175278
 30
0.0
 11
160.500000000001
 21
-56.99681102175278
 31
0.0
  0
LINE
  5
181F
  8
0
  6
AVEVASHORTDASHED
 10
12.0
 20
-55.99681102175278
 30
8.000000000000027
 11
12.0
 21
-63.99681102175278
 31
8.000000000000027
  0
LINE
  5
1820
  8
0
  6
AVEVASHORTDASHED
 10
6.000000000000002
 20
-55.99681102175281
 30
8.000000000000027
 11
6.000000000000002
 21
-63.99681102175279
 31
8.000000000000027
  0
LINE
  5
1821
  8
0
  6
AVEVASHORTDASHED
 10
52.00000000000023
 20
-55.99681102175278
 30
7.999999999851051
 11
52.00000000000023
 21
-63.99681102175278
 31
7.999999999851051
  0
LINE
  5
1822
  8
0
  6
AVEVASHORTDASHED
 10
46.00000000000023
 20
-55.99681102175278
 30
7.999999999851051
 11
46.00000000000023
 21
-63.99681102175279
 31
7.999999999851051
  0
LINE
  5
1823
  8
0
  6
AVEVASHORTDASHED
 10
99.00000000000068
 20
-55.99681102175278
 30
7.999999998697285
 11
99.00000000000068
 21
-63.99681102175278
 31
7.999999998697285
  0
LINE
  5
1824
  8
0
  6
AVEVASHORTDASHED
 10
93.00000000000068
 20
-55.99681102175278
 30
7.999999998697285
 11
93.00000000000068
 21
-63.99681102175278
 31
7.999999998697285
  0
LINE
  5
1825
  8
0
  6
AVEVASHORTDASHED
 10
139.0000000000007
 20
-55.99681102175278
 30
7.999999998496823
 11
139.0000000000007
 21
-63.99681102175278
 31
7.999999998496823
  0
LINE
  5
1826
  8
0
  6
AVEVASHORTDASHED
 10
133.0000000000007
 20
-55.99681102175278
 30
7.999999998496823
 11
133.0000000000007
 21
-63.99681102175279
 31
7.999999998496823
  0
LINE
  5
1827
  8
0
  6
AVEVASHORTDASHED
 10
160.500000000001
 20
-56.9968110217528
 30
6.999999999941005
 11
160.500000000001
 21
-63.99681102175277
 31
6.999999999941005
  0
LINE
  5
1828
  8
0
  6
AVEVASHORTDASHED
 10
183.5000000000008
 20
-56.99681102175278
 30
0.0
 11
198.500000000001
 21
-56.99681102175278
 31
0.0
  0
LINE
  5
1829
  8
0
  6
AVEVASHORTDASHED
 10
145.5000000000008
 20
-56.9968110217528
 30
6.999999999941
 11
145.5000000000008
 21
-63.99681102175277
 31
6.999999999941
  0
LINE
  5
182A
  8
0
  6
AVEVASHORTDASHED
 10
183.5000000000008
 20
-56.9968110217528
 30
7.000000000066725
 11
183.5000000000008
 21
-63.99681102175277
 31
7.000000000066725
  0
LINE
  5
182B
  8
0
  6
AVEVASHORTDASHED
 10
198.500000000001
 20
-56.9968110217528
 30
7.000000000066729
 11
198.500000000001
 21
-63.99681102175277
 31
7.000000000066729
  0
LINE
  5
182C
  8
0
  6
AVEVASHORTDASHED
 10
221.5000000000008
 20
-56.99681102175278
 30
0.0
 11
236.500000000001
 21
-56.99681102175278
 31
0.0
  0
LINE
  5
182D
  8
0
  6
AVEVASHORTDASHED
 10
221.5000000000008
 20
-56.99681102175277
 30
7.000000000007647
 11
221.5000000000008
 21
-63.99681102175277
 31
7.000000000007647
  0
LINE
  5
182E
  8
0
  6
AVEVASHORTDASHED
 10
236.500000000001
 20
-56.99681102175277
 30
7.000000000007651
 11
236.500000000001
 21
-63.99681102175277
 31
7.000000000007651
  0
LINE
  5
182F
  8
0
  6
AVEVASHORTDASHED
 10
232.0000000000009
 20
-48.99681102175281
 30
7.000000000007651
 11
232.0000000000009
 21
-56.99681102175278
 31
7.000000000007651
  0
LINE
  5
1830
  8
0
  6
AVEVASHORTDASHED
 10
226.0000000000009
 20
-48.99681102175281
 30
7.00000000000765
 11
226.0000000000009
 21
-56.99681102175278
 31
7.00000000000765
  0
LINE
  5
1831
  8
0
  6
AVEVASHORTDASHED
 10
194.0000000000009
 20
-48.99681102175281
 30
7.000000000066729
 11
194.0000000000009
 21
-56.99681102175278
 31
7.000000000066729
  0
LINE
  5
1832
  8
0
  6
AVEVASHORTDASHED
 10
188.0000000000009
 20
-48.99681102175281
 30
7.00000000006673
 11
188.0000000000009
 21
-56.99681102175278
 31
7.00000000006673
  0
LINE
  5
1833
  8
0
  6
AVEVASHORTDASHED
 10
156.0000000000009
 20
-48.99681102175281
 30
6.999999999941004
 11
156.0000000000009
 21
-56.99681102175278
 31
6.999999999941004
  0
LINE
  5
1834
  8
0
  6
AVEVASHORTDASHED
 10
150.0000000000009
 20
-48.99681102175281
 30
6.999999999941005
 11
150.0000000000009
 21
-56.99681102175278
 31
6.999999999941005
  0
LINE
  5
1835
  8
0
  6
AVEVASHORTDASHED
 10
143.5000000000008
 20
-48.99681102175276
 30
7.999999998496823
 11
143.5000000000008
 21
-55.99681102175276
 31
7.999999998496823
  0
LINE
  5
1836
  8
0
  6
AVEVASHORTDASHED
 10
128.5000000000006
 20
-48.99681102175276
 30
7.999999998496819
 11
128.5000000000006
 21
-55.99681102175278
 31
7.999999998496819
  0
LINE
  5
1837
  8
0
  6
AVEVASHORTDASHED
 10
103.5000000000008
 20
-48.99681102175279
 30
7.999999998697285
 11
103.5000000000008
 21
-55.99681102175278
 31
7.999999998697285
  0
LINE
  5
1838
  8
0
  6
AVEVASHORTDASHED
 10
88.50000000000058
 20
-48.99681102175279
 30
7.999999998697281
 11
88.50000000000058
 21
-55.99681102175278
 31
7.999999998697281
  0
LINE
  5
1839
  8
0
  6
AVEVASHORTDASHED
 10
74.8000000000002
 20
-48.99681102175276
 30
0.0000000000272796
 11
74.8000000000002
 21
-63.99681102175278
 31
0.0
  0
LINE
  5
183A
  8
0
  6
AVEVASHORTDASHED
 10
59.50000000000044
 20
-48.99681102175276
 30
0.0000000000272788
 11
59.50000000000044
 21
-63.99681102175278
 31
0.0
  0
LINE
  5
183B
  8
0
  6
AVEVASHORTDASHED
 10
56.50000000000033
 20
-48.99681102175276
 30
7.999999999851051
 11
56.50000000000033
 21
-55.99681102175276
 31
7.999999999851051
  0
LINE
  5
183C
  8
0
  6
AVEVASHORTDASHED
 10
41.50000000000013
 20
-48.99681102175276
 30
7.999999999851047
 11
41.50000000000013
 21
-55.99681102175278
 31
7.999999999851047
  0
LINE
  5
183D
  8
0
  6
AVEVASHORTDASHED
 10
16.5000000000001
 20
-48.99681102175277
 30
8.000000000000027
 11
16.5000000000001
 21
-55.99681102175279
 31
8.000000000000027
  0
LINE
  5
183E
  8
0
  6
AVEVASHORTDASHED
 10
1.499999999999903
 20
-48.99681102175276
 30
8.000000000000023
 11
1.499999999999903
 21
-55.99681102175278
 31
8.000000000000023
  0
LINE
  5
198C
  8
-300
  6
AVEVASOLIDXWIDE
 62
    92
 10
337.0716521028405
 20
-118.3359353804262
 30
0.0
 11
337.0716521028405
 21
-108.3359349780949
 31
0.0
  0
LINE
  5
198D
  8
-300
  6
AVEVASOLIDXWIDE
 62
    92
 10
327.0716521028405
 20
-118.3359353804262
 30
0.0
 11
337.0716521028405
 21
-118.3359353804262
 31
0.0
  0
LINE
  5
1992
  8
-300
  6
AVEVASOLIDXWIDE
 62
    92
 10
337.0716521028405
 20
-118.3359353804262
 30
0.0
 11
337.0716521028405
 21
-108.3359349780949
 31
0.0
  0
LINE
  5
1993
  8
-300
  6
AVEVASOLIDXWIDE
 62
    92
 10
327.0716521028405
 20
-118.3359353804262
 30
0.0
 11
337.0716521028405
 21
-118.3359353804262
 31
0.0
  0
LINE
  5
1995
  8
-300
  6
AVEVASOLIDXWIDE
 62
    92
 10
197.1874120930276
 20
-89.33593497809488
 30
0.0
 11
293.7873876789652
 21
-89.33593497809488
 31
0.0
  0
LINE
  5
1996
  8
-300
  6
AVEVASOLIDXWIDE
 62
    92
 10
197.1874120930276
 20
-89.33593497809488
 30
0.0
 11
330.0716521028405
 21
-89.33593497809488
 31
0.0
  0
TEXT
  5
199E
  8
-300
  6
CONTINUOUS
 62
     7
 10
309.320647663588
 20
-117.3915822617073
 30
0.0
 40
3.125
  1
Padrao-A3
  0
TEXT
  5
1A65
  8
-300
  6
CONTINUOUS
 62
    92
 10
230.4017851501996
 20
-109.8054927281508
 30
0.0
 40
3.125
  1
Verif:
  0
TEXT
  5
1A66
  8
-300
  6
CONTINUOUS
 62
    92
 10
198.1358942593087
 20
-109.7523143115541
 30
0.0
 40
3.125
  1
Exec:
  0
TEXT
  5
1A67
  8
-300
  6
CONTINUOUS
 62
    92
 10
197.8023195419805
 20
-98.73903594550212
 30
0.0
 40
3.125
  1
Material:
  0
TEXT
  5
1A68
  8
-300
  6
CONTINUOUS
 62
    92
 10
292.8475262961977
 20
-96.0839131885441
 30
0.0
 40
3.125
  1
Rev:
  0
TEXT
  5
1A69
  8
-300
  6
CONTINUOUS
 62
    92
 10
292.853782552454
 20
-106.0839131885441
 30
0.0
 40
3.125
  1
Data:
  0
TEXT
  5
1A6A
  8
-300
  6
CONTINUOUS
 62
    92
 10
262.4205539189684
 20
-109.7833347118037
 30
0.0
 40
3.125
  1
Aprov:
  0
TEXT
  5
1A6B
  8
-300
  6
CONTINUOUS
 62
     7
 10
216.0443590656704
 20
-109.7182128253481
 30
0.0
 40
3.125
  1
DR
  0
TEXT
  5
1A6C
  8
-300
  6
CONTINUOUS
 62
     7
 10
248.0443590656704
 20
-109.7182149711152
 30
0.0
 40
3.125
  1
DR
  0
TEXT
  5
1A6D
  8
-300
  6
CONTINUOUS
 62
     7
 10
280.0443590656704
 20
-109.7492351329464
 30
0.0
 40
3.125
  1
DR
  0
TEXT
  5
1A6E
  8
-300
  6
CONTINUOUS
 62
     7
 10
310.9477745800078
 20
-96.2136761368791
 30
0.0
 40
3.130000114440918
  1
0
  0
TEXT
  5
1A6F
  8
-300
  6
CONTINUOUS
 62
     7
 10
307.4015761054001
 20
-106.2543236894151
 30
0.0
 40
3.125
  1
03/05/15
  0
LINE
  5
1A70
  8
-300
  6
AVEVASOLID
 62
    92
 10
290.5249622160042
 20
-100.3359349780949
 30
0.0
 11
322.1140430265511
 21
-100.3359349780949
 31
0.0
  0
LINE
  5
1A71
  8
-300
  6
AVEVASOLID
 62
    92
 10
197.1874120930276
 20
-89.33593497809488
 30
0.0
 11
197.1874120930276
 21
-111.335935454932
 31
0.0
  0
LINE
  5
1A72
  8
-300
  6
AVEVASOLID
 62
    92
 10
290.5249622160042
 20
-111.335935454932
 30
0.0
 11
290.5249622160042
 21
-89.33593497809488
 31
0.0
  0
LINE
  5
1A73
  8
-300
  6
AVEVASOLID
 62
    92
 10
290.5249622160042
 20
-100.3359349780949
 30
0.0
 11
330.0716521028405
 21
-100.3359349780949
 31
0.0
  0
LINE
  5
1A74
  8
-300
  6
AVEVASOLID
 62
    92
 10
197.1874120930276
 20
-94.83593497809488
 30
0.0
 11
290.5249622160042
 21
-94.83593497809488
 31
0.0
  0
LINE
  5
1A75
  8
-300
  6
AVEVASOLID
 62
    92
 10
197.1874120930276
 20
-94.83593497809488
 30
0.0
 11
290.5249622160042
 21
-94.83593497809488
 31
0.0
  0
LINE
  5
1A76
  8
-300
  6
AVEVASOLID
 62
    92
 10
197.1874120930276
 20
-100.3359349780949
 30
0.0
 11
290.5249622160042
 21
-100.3359349780949
 31
0.0
  0
LINE
  5
1A77
  8
-300
  6
AVEVASOLID
 62
    92
 10
197.1874120930276
 20
-100.3359349780949
 30
0.0
 11
290.5249622160042
 21
-100.3359349780949
 31
0.0
  0
LINE
  5
1A78
  8
-300
  6
AVEVASOLID
 62
    92
 10
197.1874120930276
 20
-105.8359349780949
 30
0.0
 11
290.5249622160042
 21
-105.8359349780949
 31
0.0
  0
LINE
  5
1A79
  8
-300
  6
AVEVASOLID
 62
    92
 10
197.1874120930276
 20
-105.8359349780949
 30
0.0
 11
290.5249622160042
 21
-105.8359349780949
 31
0.0
  0
TEXT
  5
1A7A
  8
-300
  6
CONTINUOUS
 62
     7
 10
222.1746753582354
 20
-98.80241271681994
 30
0.0
 40
3.125
  1
MDF ou Alumínio 6061
  0
TEXT
  5
1A7B
  8
-300
  6
CONTINUOUS
 62
     7
 10
212.1746753582354
 20
-93.30241271681994
 30
0.0
 40
3.125
  1
Fabricar-Z-mesa
  0
TEXT
  5
1A7C
  8
-300
  6
CONTINUOUS
 62
    92
 10
197.8023195419805
 20
-93.23903594550212
 30
0.0
 40
3.125
  1
Nome:
  0
LINE
  5
1A7D
  8
-300
  6
AVEVASOLIDXWIDE
 62
    92
 10
197.1874120930276
 20
-89.33593497809488
 30
0.0
 11
330.0716521028405
 21
-89.33593497809488
 31
0.0
  0
TEXT
  5
1A7E
  8
-300
  6
CONTINUOUS
 62
    92
 10
197.8023195419805
 20
-104.2390359455021
 30
0.0
 40
3.125
  1
Qtd:
  0
LINE
  5
1A7F
  8
-300
  6
AVEVASOLIDXWIDE
 62
    92
 10
197.1874120930276
 20
-89.33593497809488
 30
0.0
 11
290.5249622160042
 21
-89.33593497809488
 31
0.0
  0
LINE
  5
1A80
  8
-300
  6
AVEVASOLID
 62
    92
 10
290.5249622160042
 20
-111.335935454932
 30
0.0
 11
290.5249622160042
 21
-89.33593497809488
 31
0.0
  0
LINE
  5
1A81
  8
-300
  6
AVEVASOLID
 62
    92
 10
197.1874120930276
 20
-89.33593497809488
 30
0.0
 11
197.1874120930276
 21
-111.335935454932
 31
0.0
  0
LINE
  5
1A82
  8
-300
  6
AVEVASOLIDXWIDE
 62
    92
 10
197.1874120930276
 20
-89.33593497809488
 30
0.0
 11
290.5249622160042
 21
-89.33593497809488
 31
0.0
  0
TEXT
  5
1A83
  8
-300
  6
CONTINUOUS
 62
     7
 10
210.1687941204283
 20
-104.3024127168199
 30
0.0
 40
3.125
  1
1
  0
DIMENSION
  5
1A8D
  8
COTAS
  2
*D0
 10
9.00000000000091
 20
141.1939458707943
 30
0.0
 11
4.500000000000909
 21
145.2439458707943
 31
0.0
 70
    32
  3
ISO-25
 13
0.0000000000009095
 23
134.0
 33
0.0000000000006571
 14
9.00000000000091
 24
124.0
 34
7.999999999469906
1001
ACAD
1000
DSTYLE
1002
{
1070
   287
1070
     5
1070
   171
1070
     2
1070
   143
1040
25.4
1070
    41
1040
0.18
1070
   141
1040
0.09
1070
   271
1070
     1
1070
    46
1040
0.38
1070
    43
1040
0.38
1070
    44
1040
0.18
1070
   147
1040
0.09
1070
    40
1040
10.0
1070
    77
1070
     0
1070
   279
1070
     2
1070
   140
1040
0.18
1002
}
  0
DIMENSION
  5
1A9C
  8
COTAS
  2
*D1
 10
49.0000000000009
 20
141.1939458707943
 30
0.0
 11
29.00000000000091
 21
141.1939458707943
 31
0.0
 70
    32
  3
ISO-25
 13
9.00000000000091
 23
124.0
 33
7.999999999469906
 14
49.0000000000009
 24
124.0
 34
7.999999999292942
1001
ACAD
1000
DSTYLE
1002
{
1070
   287
1070
     5
1070
   171
1070
     2
1070
   143
1040
25.4
1070
    41
1040
0.18
1070
   141
1040
0.09
1070
   271
1070
     1
1070
    46
1040
0.38
1070
    43
1040
0.38
1070
    44
1040
0.18
1070
   147
1040
0.09
1070
    40
1040
10.0
1070
    77
1070
     0
1070
   279
1070
     2
1070
   140
1040
0.18
1002
}
  0
DIMENSION
  5
1AAA
  8
COTAS
  2
*D2
 10
96.00000000000136
 20
141.1939458707943
 30
0.0
 11
72.50000000000114
 21
141.1939458707943
 31
0.0
 70
    32
  3
ISO-25
 13
49.0000000000009
 23
124.0
 33
7.999999999292942
 14
96.00000000000136
 24
124.0000000000009
 34
7.999999999116142
1001
ACAD
1000
DSTYLE
1002
{
1070
   287
1070
     5
1070
   171
1070
     2
1070
   143
1040
25.4
1070
    41
1040
0.18
1070
   141
1040
0.09
1070
   271
1070
     1
1070
    46
1040
0.38
1070
    43
1040
0.38
1070
    44
1040
0.18
1070
   147
1040
0.09
1070
    40
1040
10.0
1070
    77
1070
     0
1070
   279
1070
     2
1070
   140
1040
0.18
1002
}
  0
DIMENSION
  5
1AB8
  8
COTAS
  2
*D3
 10
136.0000000000014
 20
141.1939458707943
 30
0.0
 11
116.0000000000014
 21
141.1939458707943
 31
0.0
 70
    32
  3
ISO-25
 13
96.00000000000136
 23
124.0000000000009
 33
7.999999999116142
 14
136.0000000000014
 24
124.0
 34
7.999999997878111
1001
ACAD
1000
DSTYLE
1002
{
1070
   287
1070
     5
1070
   171
1070
     2
1070
   143
1040
25.4
1070
    41
1040
0.18
1070
   141
1040
0.09
1070
   271
1070
     1
1070
    46
1040
0.38
1070
    43
1040
0.38
1070
    44
1040
0.18
1070
   147
1040
0.09
1070
    40
1040
10.0
1070
    77
1070
     0
1070
   279
1070
     2
1070
   140
1040
0.18
1002
}
  0
DIMENSION
  5
1AC8
  8
COTAS
  2
*D4
 10
-10.7600263565983
 20
124.0
 30
0.0
 11
-10.7600263565983
 21
129.0
 31
0.0
 70
    32
  3
ISO-25
 13
0.0000000000009095
 23
134.0
 33
0.0000000000006571
 14
9.00000000000091
 24
124.0
 34
7.999999999469904
 50
90.0
1001
ACAD
1000
DSTYLE
1002
{
1070
   287
1070
     5
1070
   171
1070
     2
1070
   143
1040
25.4
1070
    41
1040
0.18
1070
   141
1040
0.09
1070
   271
1070
     1
1070
    46
1040
0.38
1070
    43
1040
0.38
1070
    44
1040
0.18
1070
   147
1040
0.09
1070
    40
1040
10.0
1070
    77
1070
     0
1070
   279
1070
     2
1070
   140
1040
0.18
1002
}
  0
DIMENSION
  5
1AD8
  8
COTAS
  2
*D5
 10
-10.7600263565983
 20
83.99999999999999
 30
0.0
 11
-10.7600263565983
 21
104.0
 31
0.0
 70
    32
  3
ISO-25
 13
9.00000000000091
 23
124.0
 33
7.999999999469904
 14
9.00000000000068
 24
83.99999999999999
 34
7.999999999646618
 50
90.0
1001
ACAD
1000
DSTYLE
1002
{
1070
   287
1070
     5
1070
   171
1070
     2
1070
   143
1040
25.4
1070
    41
1040
0.18
1070
   141
1040
0.09
1070
   271
1070
     1
1070
    46
1040
0.38
1070
    43
1040
0.38
1070
    44
1040
0.18
1070
   147
1040
0.09
1070
    40
1040
10.0
1070
    77
1070
     0
1070
   279
1070
     2
1070
   140
1040
0.18
1002
}
  0
DIMENSION
  5
1AE6
  8
COTAS
  2
*D6
 10
-10.76002635659831
 20
49.99999999999999
 30
0.0
 11
-10.76002635659831
 21
66.99999999999999
 31
0.0
 70
    32
  3
ISO-25
 13
9.00000000000068
 23
83.99999999999999
 33
7.999999999646618
 14
9.000000000000455
 24
49.99999999999999
 34
7.999999999823344
 50
90.0
1001
ACAD
1000
DSTYLE
1002
{
1070
   287
1070
     5
1070
   171
1070
     2
1070
   143
1040
25.4
1070
    41
1040
0.18
1070
   141
1040
0.09
1070
   271
1070
     1
1070
    46
1040
0.38
1070
    43
1040
0.38
1070
    44
1040
0.18
1070
   147
1040
0.09
1070
    40
1040
10.0
1070
    77
1070
     0
1070
   279
1070
     2
1070
   140
1040
0.18
1002
}
  0
DIMENSION
  5
1AF4
  8
COTAS
  2
*D7
 10
-10.76002635659831
 20
10.0
 30
0.0
 11
-10.76002635659831
 21
29.99999999999999
 31
0.0
 70
    32
  3
ISO-25
 13
9.000000000000455
 23
49.99999999999999
 33
7.999999999823344
 14
9.0
 24
10.0
 34
8.000000000000027
 50
90.0
1001
ACAD
1000
DSTYLE
1002
{
1070
   287
1070
     5
1070
   171
1070
     2
1070
   143
1040
25.4
1070
    41
1040
0.18
1070
   141
1040
0.09
1070
   271
1070
     1
1070
    46
1040
0.38
1070
    43
1040
0.38
1070
    44
1040
0.18
1070
   147
1040
0.09
1070
    40
1040
10.0
1070
    77
1070
     0
1070
   279
1070
     2
1070
   140
1040
0.18
1002
}
  0
DIMENSION
  5
1B02
  8
COTAS
  2
*D8
 10
83.32862941267852
 20
42.0
 30
0.0
 11
83.32862941267852
 21
67.0
 31
0.0
 70
    32
  3
ISO-25
 13
74.50000000000064
 23
92.0
 33
0.0000000001930239
 14
74.5000000000002
 24
42.0
 34
0.00000000019277
 50
90.0
1001
ACAD
1000
DSTYLE
1002
{
1070
   287
1070
     5
1070
   171
1070
     2
1070
   143
1040
25.4
1070
    41
1040
0.18
1070
   141
1040
0.09
1070
   271
1070
     1
1070
    46
1040
0.38
1070
    43
1040
0.38
1070
    44
1040
0.18
1070
   147
1040
0.09
1070
    40
1040
10.0
1070
    77
1070
     0
1070
   279
1070
     2
1070
   140
1040
0.18
1002
}
  0
DIMENSION
  5
1B12
  8
COTAS
  2
*D9
 10
74.50000000000064
 20
102.7380920141417
 30
0.0
 11
67.00000000000054
 21
102.7380920141417
 31
0.0
 70
    32
  3
ISO-25
 13
59.50000000000045
 23
92.0
 33
0.0000000001930182
 14
74.50000000000064
 24
92.0
 34
0.0000000001930238
1001
ACAD
1000
DSTYLE
1002
{
1070
   287
1070
     5
1070
   171
1070
     2
1070
   143
1040
25.4
1070
    41
1040
0.18
1070
   141
1040
0.09
1070
   271
1070
     1
1070
    46
1040
0.38
1070
    43
1040
0.38
1070
    44
1040
0.18
1070
   147
1040
0.09
1070
    40
1040
10.0
1070
    77
1070
     0
1070
   279
1070
     2
1070
   140
1040
0.18
1002
}
  0
DIMENSION
  5
1B23
  8
COTAS
  2
*D10
 10
11.42192007097582
 20
125.7703963312798
 30
7.999999999469904
 11
4.024758389644443
 21
120.3631543419762
 31
7.999999999469904
 70
   163
  1
<>
  3
ISO-25
 15
6.578079929026014
 25
122.2296036687202
 35
7.999999999469904
 40
0.0
1001
ACAD
1000
DSTYLE
1002
{
1070
   287
1070
     5
1070
   171
1070
     2
1070
   143
1040
25.4
1070
    41
1040
0.18
1070
   141
1040
0.09
1070
   271
1070
     1
1070
    46
1040
0.38
1070
    43
1040
0.38
1070
    44
1040
0.18
1070
   147
1040
0.09
1070
    40
1040
10.0
1070
    77
1070
     0
1070
   279
1070
     2
1070
   140
1040
0.18
1002
}
1001
ACAD_DSTYLE_DIMRADIAL_EXTE
1070
   387
1070
     1
1070
   388
1040
0.0
1070
   390
1040
6.283185307179586
  0
DIMENSION
  5
1B2F
  8
COTAS
  2
*D11
 10
2.085764049424676
 20
126.905742800001
 30
7.999999999469919
 11
21.16240969042164
 21
121.4384579530054
 31
0.0
 70
   163
  1
<>
  3
ISO-25
 15
15.91423595057714
 25
121.0942571999989
 35
7.999999999469892
 40
0.0
1001
ACAD
1000
DSTYLE
1002
{
1070
   287
1070
     5
1070
   171
1070
     2
1070
   143
1040
25.4
1070
    41
1040
0.18
1070
   141
1040
0.09
1070
   271
1070
     1
1070
    46
1040
0.38
1070
    43
1040
0.38
1070
    44
1040
0.18
1070
   147
1040
0.09
1070
    40
1040
10.0
1070
    77
1070
     0
1070
   279
1070
     2
1070
   140
1040
0.18
1002
}
1001
ACAD_DSTYLE_DIMRADIAL_EXTE
1070
   387
1070
     1
1070
   388
1040
0.0
1070
   390
1040
6.283185307179586
  0
DIMENSION
  5
1B3B
  8
COTAS
  2
*D12
 10
239.0000000000014
 20
151.0896961573937
 30
0.0
 11
119.5000000000012
 21
151.0896961573937
 31
0.0
 70
    32
  3
ISO-25
 13
0.0000000000009095
 23
134.0
 33
0.0000000000006571
 14
239.0000000000014
 24
134.0
 34
0.0000000000006909
1001
ACAD
1000
DSTYLE
1002
{
1070
   287
1070
     5
1070
   171
1070
     2
1070
   143
1040
25.4
1070
    41
1040
0.18
1070
   141
1040
0.09
1070
   271
1070
     1
1070
    46
1040
0.38
1070
    43
1040
0.38
1070
    44
1040
0.18
1070
   147
1040
0.09
1070
    40
1040
10.0
1070
    77
1070
     0
1070
   279
1070
     2
1070
   140
1040
0.18
1002
}
  0
DIMENSION
  5
1B4B
  8
COTAS
  2
*D13
 10
-22.6457921464569
 20
0.0000000000000014
 30
0.0
 11
-22.6457921464569
 21
67.0
 31
0.0
 70
    32
  3
ISO-25
 13
0.0000000000009095
 23
134.0
 33
0.0000000000006571
 14
0.0000000000009095
 24
0.0
 34
0.0
 50
90.0
1001
ACAD
1000
DSTYLE
1002
{
1070
   287
1070
     5
1070
   171
1070
     2
1070
   143
1040
25.4
1070
    41
1040
0.18
1070
   141
1040
0.09
1070
   271
1070
     1
1070
    46
1040
0.38
1070
    43
1040
0.38
1070
    44
1040
0.18
1070
   147
1040
0.09
1070
    40
1040
10.0
1070
    77
1070
     0
1070
   279
1070
     2
1070
   140
1040
0.18
1002
}
  0
DIMENSION
  5
1B5B
  8
COTAS
  2
*D14
 10
59.50000000000045
 20
-6.639391926533079
 30
0.0
 11
29.75000000000022
 21
-6.639391926533079
 31
0.0
 70
    32
  3
ISO-25
 13
0.0
 23
0.0
 33
0.0
 14
59.50000000000045
 24
42.0
 34
0.0000000001927644
1001
ACAD
1000
DSTYLE
1002
{
1070
   287
1070
     5
1070
   171
1070
     2
1070
   143
1040
25.4
1070
    41
1040
0.18
1070
   141
1040
0.09
1070
   271
1070
     1
1070
    46
1040
0.38
1070
    43
1040
0.38
1070
    44
1040
0.18
1070
   147
1040
0.09
1070
    40
1040
10.0
1070
    77
1070
     0
1070
   279
1070
     2
1070
   140
1040
0.18
1002
}
  0
DIMENSION
  5
1B6B
  8
COTAS
  2
*D15
 10
83.08931470633958
 20
42.0
 30
0.0
 11
83.08931470633958
 21
21.0
 31
0.0
 70
    32
  3
ISO-25
 13
119.5000000000004
 23
0.0
 33
-0.0000000000000395
 14
74.5000000000002
 24
42.0
 34
0.00000000019277
 50
90.0
1001
ACAD
1000
DSTYLE
1002
{
1070
   287
1070
     5
1070
   171
1070
     2
1070
   143
1040
25.4
1070
    41
1040
0.18
1070
   141
1040
0.09
1070
   271
1070
     1
1070
    46
1040
0.38
1070
    43
1040
0.38
1070
    44
1040
0.18
1070
   147
1040
0.09
1070
    40
1040
10.0
1070
    77
1070
     0
1070
   279
1070
     2
1070
   140
1040
0.18
1002
}
  0
DIMENSION
  5
1B7B
  8
COTAS
  2
*D16
 10
229.0000000000014
 20
141.1939458707943
 30
0.0
 11
234.0000000000014
 21
141.1939458707943
 31
0.0
 70
    32
  3
ISO-25
 13
239.0000000000014
 23
134.0
 33
0.0000000000006909
 14
229.0000000000014
 24
102.0
 34
7.000000000259774
1001
ACAD
1000
DSTYLE
1002
{
1070
   287
1070
     5
1070
   171
1070
     2
1070
   143
1040
25.4
1070
    41
1040
0.18
1070
   141
1040
0.09
1070
   271
1070
     1
1070
    46
1040
0.38
1070
    43
1040
0.38
1070
    44
1040
0.18
1070
   147
1040
0.09
1070
    40
1040
10.0
1070
    77
1070
     0
1070
   279
1070
     2
1070
   140
1040
0.18
1002
}
  0
DIMENSION
  5
1B8B
  8
COTAS
  2
*D17
 10
191.0000000000014
 20
141.1939458707943
 30
0.0
 11
210.0000000000014
 21
141.1939458707943
 31
0.0
 70
    32
  3
ISO-25
 13
229.0000000000014
 23
102.0
 33
7.000000000259774
 14
191.0000000000014
 24
102.0
 34
7.000000000126188
1001
ACAD
1000
DSTYLE
1002
{
1070
   287
1070
     5
1070
   171
1070
     2
1070
   143
1040
25.4
1070
    41
1040
0.18
1070
   141
1040
0.09
1070
   271
1070
     1
1070
    46
1040
0.38
1070
    43
1040
0.38
1070
    44
1040
0.18
1070
   147
1040
0.09
1070
    40
1040
10.0
1070
    77
1070
     0
1070
   279
1070
     2
1070
   140
1040
0.18
1002
}
  0
DIMENSION
  5
1B99
  8
COTAS
  2
*D18
 10
153.0000000000014
 20
141.1939458707943
 30
0.0
 11
172.0000000000014
 21
141.1939458707943
 31
0.0
 70
    32
  3
ISO-25
 13
191.0000000000014
 23
102.0
 33
7.000000000126188
 14
153.0000000000014
 24
102.0
 34
6.99999999982365
1001
ACAD
1000
DSTYLE
1002
{
1070
   287
1070
     5
1070
   171
1070
     2
1070
   143
1040
25.4
1070
    41
1040
0.18
1070
   141
1040
0.09
1070
   271
1070
     1
1070
    46
1040
0.38
1070
    43
1040
0.38
1070
    44
1040
0.18
1070
   147
1040
0.09
1070
    40
1040
10.0
1070
    77
1070
     0
1070
   279
1070
     2
1070
   140
1040
0.18
1002
}
  0
DIMENSION
  5
1BA7
  8
COTAS
  2
*D19
 10
252.6540574679651
 20
102.0
 30
0.0
 11
252.6540574679651
 21
118.0
 31
0.0
 70
    32
  3
ISO-25
 13
239.0000000000014
 23
134.0
 33
0.0000000000006909
 14
229.0000000000014
 24
102.0
 34
7.000000000067108
 50
90.0
1001
ACAD
1000
DSTYLE
1002
{
1070
   287
1070
     5
1070
   171
1070
     2
1070
   143
1040
25.4
1070
    41
1040
0.18
1070
   141
1040
0.09
1070
   271
1070
     1
1070
    46
1040
0.38
1070
    43
1040
0.38
1070
    44
1040
0.18
1070
   147
1040
0.09
1070
    40
1040
10.0
1070
    77
1070
     0
1070
   279
1070
     2
1070
   140
1040
0.18
1002
}
  0
DIMENSION
  5
1BB7
  8
COTAS
  2
*D20
 10
252.6540574679651
 20
32.00000000000001
 30
0.0
 11
252.6540574679651
 21
66.99999999999999
 31
0.0
 70
    32
  3
ISO-25
 13
229.0000000000014
 23
102.0
 33
7.000000000067108
 14
229.0000000000009
 24
32.00000000000001
 34
7.00000000000765
 50
90.0
1001
ACAD
1000
DSTYLE
1002
{
1070
   287
1070
     5
1070
   171
1070
     2
1070
   143
1040
25.4
1070
    41
1040
0.18
1070
   141
1040
0.09
1070
   271
1070
     1
1070
    46
1040
0.38
1070
    43
1040
0.38
1070
    44
1040
0.18
1070
   147
1040
0.09
1070
    40
1040
10.0
1070
    77
1070
     0
1070
   279
1070
     2
1070
   140
1040
0.18
1002
}
  0
DIMENSION
  5
1BC5
  8
COTAS
  2
*D21
 10
-17.33808315061682
 20
-55.99681102175278
 30
0.0
 11
-21.38808315061682
 21
-52.49681102175278
 31
0.0
 70
    32
  3
ISO-25
 13
0.0
 23
-48.99681102175278
 33
0.0
 14
1.499999999999903
 24
-55.99681102175278
 34
8.000000000000023
 50
90.0
1001
ACAD
1000
DSTYLE
1002
{
1070
   287
1070
     5
1070
   171
1070
     2
1070
   143
1040
25.4
1070
    41
1040
0.18
1070
   141
1040
0.09
1070
   271
1070
     1
1070
    46
1040
0.38
1070
    43
1040
0.38
1070
    44
1040
0.18
1070
   147
1040
0.09
1070
    40
1040
10.0
1070
    77
1070
     0
1070
   279
1070
     2
1070
   140
1040
0.18
1002
}
  0
DIMENSION
  5
1BD4
  8
COTAS
  2
*D22
 10
-29.35553748082077
 20
-63.99681102175278
 30
0.0
 11
-29.35553748082077
 21
-56.49681102175278
 31
0.0
 70
    32
  3
ISO-25
 13
0.0
 23
-48.99681102175278
 33
0.0
 14
0.0
 24
-63.99681102175278
 34
0.0
 50
90.0
1001
ACAD
1000
DSTYLE
1002
{
1070
   287
1070
     5
1070
   171
1070
     2
1070
   143
1040
25.4
1070
    41
1040
0.18
1070
   141
1040
0.09
1070
   271
1070
     1
1070
    46
1040
0.38
1070
    43
1040
0.38
1070
    44
1040
0.18
1070
   147
1040
0.09
1070
    40
1040
10.0
1070
    77
1070
     0
1070
   279
1070
     2
1070
   140
1040
0.18
1002
}
  0
DIMENSION
  5
1BE4
  8
COTAS
  2
*D23
 10
256.2592937670263
 20
-56.99681102175278
 30
0.0
 11
260.3092937670263
 21
-60.49681102175278
 31
0.0
 70
    32
  3
ISO-25
 13
239.0000000000007
 23
-63.99681102175278
 33
-0.000000000000079
 14
236.500000000001
 24
-56.99681102175278
 34
0.0
 50
90.0
1001
ACAD
1000
DSTYLE
1002
{
1070
   287
1070
     5
1070
   171
1070
     2
1070
   143
1040
25.4
1070
    41
1040
0.18
1070
   141
1040
0.09
1070
   271
1070
     1
1070
    46
1040
0.38
1070
    43
1040
0.38
1070
    44
1040
0.18
1070
   147
1040
0.09
1070
    40
1040
10.0
1070
    77
1070
     0
1070
   279
1070
     2
1070
   140
1040
0.18
1002
}
  0
DIMENSION
  5
1BF3
  8
COTAS
  2
*D24
 10
267.8761662862235
 20
-48.99681102175279
 30
0.0
 11
267.8761662862235
 21
-56.49681102175278
 31
0.0
 70
    32
  3
ISO-25
 13
239.0000000000007
 23
-63.99681102175278
 33
-0.000000000000079
 14
239.0000000000007
 24
-48.99681102175279
 34
-0.000000000000079
 50
90.0
1001
ACAD
1000
DSTYLE
1002
{
1070
   287
1070
     5
1070
   171
1070
     2
1070
   143
1040
25.4
1070
    41
1040
0.18
1070
   141
1040
0.09
1070
   271
1070
     1
1070
    46
1040
0.38
1070
    43
1040
0.38
1070
    44
1040
0.18
1070
   147
1040
0.09
1070
    40
1040
10.0
1070
    77
1070
     0
1070
   279
1070
     2
1070
   140
1040
0.18
1002
}
  0
LINE
  5
1CAA
  8
COTAS
  6
AVEVASHORTDASHED
 10
9.00000000000091
 20
134.0
 30
0.0000000000006584
 11
9.00000000000091
 21
112.7372324661619
 31
0.0000000000006584
  0
LINE
  5
1CAB
  8
COTAS
  6
AVEVASHORTDASHED
 10
0.0000000000008416
 20
124.0
 30
0.0000000000006081
 11
19.42507220544542
 21
124.0
 31
0.0000000000006081
  0
LINE
  5
1CAC
  8
COTAS
  6
AVEVASHORTDASHED
 10
49.0000000000009
 20
134.0
 30
-0.0000000001763041
 11
49.0000000000009
 21
112.7372324661619
 31
-0.0000000001763041
  0
LINE
  5
1CAD
  8
COTAS
  6
AVEVASHORTDASHED
 10
40.00000000000083
 20
124.0
 30
-0.0000000001763544
 11
59.42507220544541
 21
124.0
 31
-0.0000000001763544
  0
LINE
  5
1CAE
  8
COTAS
  6
AVEVASHORTDASHED
 10
96.00000000000136
 20
134.0
 30
-7.999999999469246
 11
96.00000000000136
 21
112.7372324661619
 31
-7.999999999469246
  0
LINE
  5
1CAF
  8
COTAS
  6
AVEVASHORTDASHED
 10
87.0000000000013
 20
124.0
 30
-7.999999999469296
 11
106.4250722054459
 21
124.0
 31
-7.999999999469296
  0
LINE
  5
1CB0
  8
COTAS
  6
AVEVASHORTDASHED
 10
96.00000000000115
 20
94.0000000000009
 30
-0.0000000005301286
 11
96.00000000000115
 21
72.73723246616277
 31
-0.0000000005301286
  0
LINE
  5
1CB1
  8
COTAS
  6
AVEVASHORTDASHED
 10
87.00000000000108
 20
84.0000000000009
 30
-0.0000000005301789
 11
106.4250722054457
 21
84.0000000000009
 31
-0.0000000005301789
  0
LINE
  5
1CB2
  8
COTAS
  6
AVEVASHORTDASHED
 10
49.00000000000045
 20
93.99999999999999
 30
0.0000000000003813
 11
49.00000000000045
 21
72.73723246616186
 31
0.0000000000003813
  0
LINE
  5
1CB3
  8
COTAS
  6
AVEVASHORTDASHED
 10
40.00000000000038
 20
83.99999999999999
 30
0.000000000000331
 11
59.42507220544496
 21
83.99999999999999
 31
0.000000000000331
  0
LINE
  5
1CB4
  8
COTAS
 10
9.000000000000682
 20
94.0
 30
0.0000000001773704
 11
9.000000000000682
 21
72.73723246616187
 31
0.0000000001773704
  0
LINE
  5
1CB5
  8
COTAS
  6
AVEVASHORTDASHED
 10
0.0000000000006143
 20
84.0
 30
0.00000000017732
 11
19.42507220544519
 21
84.0
 31
0.00000000017732
  0
LINE
  5
1CB6
  8
COTAS
  6
AVEVASHORTDASHED
 10
9.000000000000682
 20
60.00000000000001
 30
-7.999999999469248
 11
9.000000000000682
 21
38.73723246616188
 31
-7.999999999469248
  0
LINE
  5
1CB7
  8
COTAS
  6
AVEVASHORTDASHED
 10
0.0000000000006143
 20
50.00000000000001
 30
-7.999999999469297
 11
19.42507220544519
 21
50.00000000000001
 31
-7.999999999469297
  0
LINE
  5
1CB8
  8
COTAS
  6
AVEVASHORTDASHED
 10
49.00000000000045
 20
59.99999999999999
 30
-7.999999999646237
 11
49.00000000000045
 21
38.73723246616186
 31
-7.999999999646237
  0
LINE
  5
1CB9
  8
COTAS
  6
AVEVASHORTDASHED
 10
40.00000000000038
 20
49.99999999999999
 30
-7.999999999646286
 11
59.42507220544496
 21
49.99999999999999
 31
-7.999999999646286
  0
LINE
  5
1CBA
  8
COTAS
  6
AVEVASHORTDASHED
 10
87.00000000000108
 20
50.0000000000009
 30
-8.000000000176797
 11
106.4250722054457
 21
50.0000000000009
 31
-8.000000000176797
  0
LINE
  5
1CBB
  8
COTAS
  6
AVEVASHORTDASHED
 10
96.00000000000115
 20
60.0000000000009
 30
-8.000000000176746
 11
96.00000000000115
 21
38.73723246616277
 31
-8.000000000176746
  0
LINE
  5
1CBC
  8
COTAS
  6
AVEVASHORTDASHED
 10
96.00000000000068
 20
20.00000000000091
 30
7.999999998585027
 11
96.00000000000068
 21
-1.26276753383722
 31
7.999999998585027
  0
LINE
  5
1CBD
  8
COTAS
  6
AVEVASHORTDASHED
 10
87.00000000000061
 20
10.00000000000091
 30
7.999999998584975
 11
106.4250722054452
 21
10.00000000000091
 31
7.999999998584975
  0
LINE
  5
1CBE
  8
COTAS
  6
AVEVASHORTDASHED
 10
49.00000000000023
 20
20.0
 30
7.999999999823165
 11
49.00000000000023
 21
-1.262767533838129
 31
7.999999999823165
  0
LINE
  5
1CBF
  8
COTAS
  6
AVEVASHORTDASHED
 10
40.00000000000016
 20
10.0
 30
7.999999999823114
 11
59.42507220544474
 21
10.0
 31
7.999999999823114
  0
LINE
  5
1CC0
  8
COTAS
  6
AVEVASHORTDASHED
 10
9.0
 20
20.0
 30
8.00000000000008
 11
9.0
 21
-1.262767533838129
 31
8.00000000000008
  0
LINE
  5
1CC1
  8
COTAS
  6
AVEVASHORTDASHED
 10
-0.0000000000000711
 20
10.0
 30
8.000000000000028
 11
19.42507220544451
 21
10.0
 31
8.000000000000028
  0
LINE
  5
1CC2
  8
COTAS
  6
AVEVASHORTDASHED
 10
136.0000000000007
 20
20.0
 30
7.999999998408098
 11
136.0000000000007
 21
-1.262767533838129
 31
7.999999998408098
  0
LINE
  5
1CC3
  8
COTAS
  6
AVEVASHORTDASHED
 10
127.0000000000006
 20
10.0
 30
7.999999998408047
 11
146.4250722054452
 21
10.0
 31
7.999999998408047
  0
LINE
  5
1CC4
  8
COTAS
  6
AVEVASHORTDASHED
 10
136.0000000000009
 20
60.0
 30
7.999999998231432
 11
136.0000000000009
 21
38.73723246616187
 31
7.999999998231432
  0
LINE
  5
1CC5
  8
COTAS
  6
AVEVASHORTDASHED
 10
127.0000000000008
 20
50.0
 30
7.999999998231381
 11
146.4250722054454
 21
50.0
 31
7.999999998231381
  0
LINE
  5
1CC6
  8
COTAS
  6
AVEVASHORTDASHED
 10
136.000000000001
 20
93.99999999999999
 30
7.99999999805479
 11
136.000000000001
 21
72.73723246616186
 31
7.99999999805479
  0
LINE
  5
1CC7
  8
COTAS
  6
AVEVASHORTDASHED
 10
127.0000000000009
 20
83.99999999999999
 30
7.999999998054738
 11
146.4250722054455
 21
83.99999999999999
 31
7.999999998054738
  0
LINE
  5
1CC8
  8
COTAS
  6
AVEVASHORTDASHED
 10
153.0000000000009
 20
42.00000000000001
 30
6.999999999948914
 11
153.0000000000009
 21
20.73723246616188
 31
6.999999999948914
  0
LINE
  5
1CC9
  8
COTAS
  6
AVEVASHORTDASHED
 10
144.0000000000009
 20
32.00000000000001
 30
6.999999999948862
 11
163.4250722054454
 21
32.00000000000001
 31
6.999999999948862
  0
LINE
  5
1CCA
  8
COTAS
  6
AVEVASHORTDASHED
 10
136.0000000000014
 20
133.9999999999999
 30
7.999999997878168
 11
136.0000000000014
 21
112.7372324661618
 31
7.999999997878168
  0
LINE
  5
1CCB
  8
COTAS
  6
AVEVASHORTDASHED
 10
127.0000000000013
 20
123.9999999999999
 30
7.999999997878116
 11
146.4250722054459
 21
123.9999999999999
 31
7.999999997878116
  0
LINE
  5
1CCC
  8
COTAS
  6
AVEVASHORTDASHED
 10
153.0000000000014
 20
112.0
 30
6.999999999823708
 11
153.0000000000014
 21
90.7372324661619
 31
6.999999999823708
  0
LINE
  5
1CCD
  8
COTAS
  6
AVEVASHORTDASHED
 10
144.0000000000013
 20
102.0
 30
6.999999999823657
 11
163.4250722054459
 21
102.0
 31
6.999999999823657
  0
LINE
  5
1CCE
  8
COTAS
  6
AVEVASHORTDASHED
 10
191.0000000000014
 20
111.9999999999999
 30
6.999999999949336
 11
191.0000000000014
 21
90.73723246616181
 31
6.999999999949336
  0
LINE
  5
1CCF
  8
COTAS
  6
AVEVASHORTDASHED
 10
182.0000000000013
 20
101.9999999999999
 30
6.999999999949284
 11
201.4250722054459
 21
101.9999999999999
 31
6.999999999949284
  0
LINE
  5
1CD0
  8
COTAS
  6
AVEVASHORTDASHED
 10
229.0000000000014
 20
112.0
 30
7.000000000067166
 11
229.0000000000014
 21
90.73723246616183
 31
7.000000000067166
  0
LINE
  5
1CD1
  8
COTAS
  6
AVEVASHORTDASHED
 10
220.0000000000013
 20
102.0
 30
7.000000000067114
 11
239.4250722054459
 21
102.0
 31
7.000000000067114
  0
LINE
  5
1CD2
  8
COTAS
  6
AVEVASHORTDASHED
 10
229.0000000000009
 20
41.99999999999999
 30
6.99999999983076
 11
229.0000000000009
 21
20.73723246616186
 31
6.99999999983076
  0
LINE
  5
1CD3
  8
COTAS
  6
AVEVASHORTDASHED
 10
220.0000000000009
 20
31.99999999999999
 30
6.999999999830709
 11
239.4250722054454
 21
31.99999999999999
 31
6.999999999830709
  0
LINE
  5
1CD4
  8
COTAS
  6
AVEVASHORTDASHED
 10
191.0000000000009
 20
41.99999999999998
 30
6.999999999889837
 11
191.0000000000009
 21
20.73723246616185
 31
6.999999999889837
  0
LINE
  5
1CD5
  8
COTAS
  6
AVEVASHORTDASHED
 10
182.0000000000009
 20
31.99999999999998
 30
6.999999999889786
 11
201.4250722054454
 21
31.99999999999998
 31
6.999999999889786
  0
LINE
  5
1CD6
  8
COTAS
  6
AVEVASHORTDASHED
 10
8.999999999999998
 20
-46.49681102175288
 30
0.000000000000016
 11
8.999999999999998
 21
-67.759578555591
 31
0.000000000000016
  0
LINE
  5
1CD7
  8
COTAS
  6
AVEVASHORTDASHED
 10
49.00000000000023
 20
-46.49681102175268
 30
0.0000000000000515
 11
49.00000000000023
 21
-67.7595785555908
 31
0.0000000000000515
  0
LINE
  5
1CD8
  8
COTAS
  6
AVEVASHORTDASHED
 10
96.00000000000068
 20
-46.49681102175268
 30
0.0000000000000888
 11
96.00000000000068
 21
-67.7595785555908
 31
0.0000000000000888
  0
LINE
  5
1CD9
  8
COTAS
  6
AVEVASHORTDASHED
 10
136.0000000000007
 20
-46.49681102175359
 30
-0.0000000001768399
 11
136.0000000000007
 21
-67.75957855559172
 31
-0.0000000001768399
  0
LINE
  5
1CDA
  8
COTAS
  6
AVEVASHORTDASHED
 10
229.0000000000009
 20
-46.4968110217527
 30
-0.0000000001102061
 11
229.0000000000009
 21
-67.75957855559082
 31
-0.0000000001102061
  0
LINE
  5
1CDB
  8
COTAS
  6
AVEVASHORTDASHED
 10
191.0000000000009
 20
-46.49681102175271
 30
-0.0000000000511289
 11
191.0000000000009
 21
-67.75957855559085
 31
-0.0000000000511289
  0
LINE
  5
1CDC
  8
COTAS
  6
AVEVASHORTDASHED
 10
153.0000000000009
 20
-46.49681102175268
 30
0.0000000000079474
 11
153.0000000000009
 21
-67.75957855559082
 31
0.0000000000079474
  0
VIEWPORT
  5
16EA
 67
     1
  8
0
 10
143.5
 20
95.0
 30
0.0
 40
462.0
 41
231.0
 68
     1
 69
     1
1001
ACAD
1000
MVIEW
1002
{
1070
    16
1010
0.0
1020
0.0
1030
0.0
1020
0.0
1030
0.0
1010
0.0
1020
0.0
1030
1.0
1020
0.0
1030
1.0
1040
0.0
1040
231.0
1040
143.5
1040
95.0
1040
50.0
1040
0.0
1040
0.0
1070
     0
1070
   100
1070
     1
1070
     0
1070
     0
1070
     0
1070
     0
1070
     0
1040
0.0
1040
0.0
1040
0.0
1040
10.0
1040
10.0
1040
10.0
1040
10.0
1070
     1
1002
{
1002
}
1002
}
  0
VIEWPORT
  5
16EC
 67
     1
  8
VIEWPORTS
 10
143.5
 20
95.0
 30
0.0
 40
287.0
 41
162.7319641113281
 68
     2
 69
     2
1001
ACAD
1000
MVIEW
1002
{
1070
    16
1010
0.0
1020
0.0
1030
0.0
1020
0.0
1030
0.0
1010
0.0
1020
0.0
1030
1.0
1020
0.0
1030
1.0
1040
0.0
1040
305.9693908691406
1040
209.806884765625
1040
148.4082946777344
1040
50.0
1040
0.0
1040
0.0
1070
     0
1070
   100
1070
     1
1070
     0
1070
     0
1070
     0
1070
     0
1070
     0
1040
0.0
1040
0.0
1040
0.0
1040
10.0
1040
10.0
1040
10.0
1040
10.0
1070
     1
1002
{
1002
}
1002
}
  0
ENDSEC
  0
EOF
