  0
SECTION
  2
HEADER
  9
$ACADVER
  1
AC1009
  9
$DWGCODEPAGE
  3
ansi_1252
  9
$INSBASE
 10
0.0
 20
0.0
 30
0.0
  9
$EXTMIN
 10
-82.92833266817274
 20
-118.3359353804262
 30
-0.000000000000079
  9
$EXTMAX
 10
337.0716521028405
 20
178.6640592998592
 30
8.000000000000066
  9
$LIMMIN
 10
0.0
 20
0.0
  9
$LIMMAX
 10
12.0
 20
9.0
  9
$ORTHOMODE
 70
     1
  9
$REGENMODE
 70
     1
  9
$FILLMODE
 70
     1
  9
$QTEXTMODE
 70
     0
  9
$MIRRTEXT
 70
     1
  9
$DRAGMODE
 70
     2
  9
$LTSCALE
 40
1.0
  9
$OSMODE
 70
   511
  9
$ATTMODE
 70
     1
  9
$TEXTSIZE
 40
2.5
  9
$TRACEWID
 40
0.05
  9
$TEXTSTYLE
  7
STANDARD
  9
$CLAYER
  8
0
  9
$CELTYPE
  6
BYLAYER
  9
$CECOLOR
 62
   256
  9
$DIMSCALE
 40
1.0
  9
$DIMASZ
 40
0.18
  9
$DIMEXO
 40
0.625
  9
$DIMDLI
 40
0.38
  9
$DIMRND
 40
0.0
  9
$DIMDLE
 40
0.38
  9
$DIMEXE
 40
0.18
  9
$DIMTP
 40
0.0
  9
$DIMTM
 40
0.0
  9
$DIMTXT
 40
0.18
  9
$DIMCEN
 40
0.09
  9
$DIMTSZ
 40
0.0
  9
$DIMTOL
 70
     0
  9
$DIMLIM
 70
     0
  9
$DIMTIH
 70
     1
  9
$DIMTOH
 70
     1
  9
$DIMSE1
 70
     0
  9
$DIMSE2
 70
     0
  9
$DIMTAD
 70
     0
  9
$DIMZIN
 70
     0
  9
$DIMBLK
  1

  9
$DIMASO
 70
     1
  9
$DIMSHO
 70
     1
  9
$DIMPOST
  1

  9
$DIMAPOST
  1

  9
$DIMALT
 70
     0
  9
$DIMALTD
 70
     2
  9
$DIMALTF
 40
25.4
  9
$DIMLFAC
 40
1.0
  9
$DIMTOFL
 70
     0
  9
$DIMTVP
 40
0.0
  9
$DIMTIX
 70
     0
  9
$DIMSOXD
 70
     0
  9
$DIMSAH
 70
     0
  9
$DIMBLK1
  1

  9
$DIMBLK2
  1

  9
$DIMSTYLE
  2
ISO-25
  9
$DIMCLRD
 70
     0
  9
$DIMCLRE
 70
     0
  9
$DIMCLRT
 70
     0
  9
$DIMTFAC
 40
1.0
  9
$DIMGAP
 40
0.09
  9
$LUNITS
 70
     2
  9
$LUPREC
 70
     4
  9
$SKETCHINC
 40
0.1
  9
$FILLETRAD
 40
0.5
  9
$AUNITS
 70
     0
  9
$AUPREC
 70
     0
  9
$MENU
  1

  9
$ELEVATION
 40
0.0
  9
$PELEVATION
 40
0.0
  9
$THICKNESS
 40
0.0
  9
$LIMCHECK
 70
     0
  9
$CHAMFERA
 40
0.5
  9
$CHAMFERB
 40
0.5
  9
$SKPOLY
 70
     0
  9
$TDCREATE
 40
2447892.875
  9
$TDUPDATE
 40
2457146.943427755
  9
$TDINDWG
 40
0.0184395486
  9
$TDUSRTIMER
 40
2457147.067289445
  9
$USRTIMER
 70
     0
  9
$ANGBASE
 50
0.0
  9
$ANGDIR
 70
     0
  9
$PDMODE
 70
     0
  9
$PDSIZE
 40
0.0
  9
$PLINEWID
 40
0.0
  9
$COORDS
 70
     1
  9
$SPLFRAME
 70
     0
  9
$SPLINETYPE
 70
     6
  9
$SPLINESEGS
 70
     8
  9
$ATTDIA
 70
     0
  9
$ATTREQ
 70
     1
  9
$HANDLING
 70
     1
  9
$HANDSEED
  5
199F
  9
$SURFTAB1
 70
     6
  9
$SURFTAB2
 70
     6
  9
$SURFTYPE
 70
     6
  9
$SURFU
 70
     6
  9
$SURFV
 70
     6
  9
$UCSNAME
  2

  9
$UCSORG
 10
0.0
 20
0.0
 30
0.0
  9
$UCSXDIR
 10
1.0
 20
0.0
 30
0.0
  9
$UCSYDIR
 10
0.0
 20
1.0
 30
0.0
  9
$PUCSNAME
  2

  9
$PUCSORG
 10
0.0
 20
0.0
 30
0.0
  9
$PUCSXDIR
 10
1.0
 20
0.0
 30
0.0
  9
$PUCSYDIR
 10
0.0
 20
1.0
 30
0.0
  9
$USERI1
 70
     0
  9
$USERI2
 70
     0
  9
$USERI3
 70
     0
  9
$USERI4
 70
     0
  9
$USERI5
 70
     0
  9
$USERR1
 40
0.0
  9
$USERR2
 40
0.0
  9
$USERR3
 40
0.0
  9
$USERR4
 40
0.0
  9
$USERR5
 40
0.0
  9
$WORLDVIEW
 70
     1
  9
$SHADEDGE
 70
     3
  9
$SHADEDIF
 70
    70
  9
$TILEMODE
 70
     1
  9
$MAXACTVP
 70
    64
  9
$PLIMCHECK
 70
     0
  9
$PEXTMIN
 10
0.0
 20
0.0
 30
0.0
  9
$PEXTMAX
 10
0.0
 20
0.0
 30
0.0
  9
$PLIMMIN
 10
0.0
 20
0.0
  9
$PLIMMAX
 10
0.0
 20
0.0
  9
$UNITMODE
 70
     0
  9
$VISRETAIN
 70
     1
  9
$PLINEGEN
 70
     0
  9
$PSLTSCALE
 70
     1
  0
ENDSEC
  0
SECTION
  2
TABLES
  0
TABLE
  2
VPORT
 70
     1
  0
VPORT
  2
*ACTIVE
 70
     0
 10
0.0
 20
0.0
 11
1.0
 21
1.0
 12
29.01167233784844
 22
-135.0609110404544
 13
0.0
 23
0.0
 14
0.0
 24
0.0
 15
0.0
 25
0.0
 16
0.0
 26
0.0
 36
1.0
 17
209.8068847656251
 27
148.4082946777345
 37
0.0
 40
378.6749932173642
 41
2.050393700787402
 42
50.0
 43
0.0
 44
0.0
 50
0.0
 51
0.0
 71
    16
 72
     0
 73
     0
 74
     1
 75
     0
 76
     0
 77
     0
 78
     0
  0
ENDTAB
  0
TABLE
  2
LTYPE
 70
     6
  0
LTYPE
  2
CONTINUOUS
 70
     0
  3
Solid line
 72
    65
 73
     0
 40
0.0
  0
LTYPE
  2
AVEVASOLID
 70
     0
  3
Aveva linetype
 72
    65
 73
     1
 40
2.25
 49
2.25
  0
LTYPE
  2
AVEVASOLIDXWIDE
 70
     0
  3
Aveva linetype
 72
    65
 73
     1
 40
2.25
 49
2.25
  0
LTYPE
  2
AVEVADASHEDDOTTED
 70
     0
  3
Aveva linetype
 72
    65
 73
     4
 40
7.771428571428572
 49
5.485714285714286
 49
-1.142857142857143
 49
0.0
 49
-1.142857142857143
  0
LTYPE
  2
AVEVADASHEDDOUBLEDOTTEDWID
 70
     0
  3
Aveva linetype
 72
    65
 73
     6
 40
19.0
 49
14.5
 49
-2.0
 49
0.0
 49
-0.5
 49
0.0
 49
-2.0
  0
LTYPE
  2
AVEVASHORTDASHED
 70
     0
  3
Aveva linetype
 72
    65
 73
     2
 40
2.0
 49
1.5
 49
-0.5
  0
ENDTAB
  0
TABLE
  2
LAYER
 70
    12
  0
LAYER
  2
0
 70
     0
 62
     7
  6
CONTINUOUS
  0
LAYER
  2
-11
 70
     0
 62
     7
  6
CONTINUOUS
  0
LAYER
  2
2001
 70
     0
 62
     7
  6
CONTINUOUS
  0
LAYER
  2
6001
 70
     0
 62
     7
  6
CONTINUOUS
  0
LAYER
  2
-1127
 70
     0
 62
     7
  6
CONTINUOUS
  0
LAYER
  2
-1128
 70
     0
 62
     7
  6
CONTINUOUS
  0
LAYER
  2
-1
 70
     0
 62
     7
  6
CONTINUOUS
  0
LAYER
  2
-203
 70
     0
 62
     7
  6
CONTINUOUS
  0
LAYER
  2
-1102
 70
     0
 62
     7
  6
CONTINUOUS
  0
LAYER
  2
-1109
 70
     0
 62
     7
  6
CONTINUOUS
  0
LAYER
  2
-300
 70
     0
 62
     7
  6
CONTINUOUS
  0
LAYER
  2
VIEWPORTS
 70
     0
 62
    -7
  6
CONTINUOUS
  0
ENDTAB
  0
TABLE
  2
STYLE
 70
     3
  0
STYLE
  2
STANDARD
 70
     0
 40
0.0
 41
1.0
 50
0.0
 71
     0
 42
2.5
  3
txt
  4

  0
STYLE
  2
AVEVATEXTSTYLE1
 70
     0
 40
0.0
 41
1.0
 50
0.0
 71
     0
 42
2.5
  3
Arial Narrow
  4

  0
STYLE
  2
AVEVATEXTSTYLE2
 70
     0
 40
0.0
 41
1.0
 50
0.0
 71
     0
 42
2.5
  3
Arial
  4

  0
ENDTAB
  0
TABLE
  2
VIEW
 70
     0
  0
ENDTAB
  0
TABLE
  2
UCS
 70
     0
  0
ENDTAB
  0
TABLE
  2
APPID
 70
     1
  0
APPID
  2
ACAD
 70
     0
  0
ENDTAB
  0
TABLE
  2
DIMSTYLE
 70
     2
  0
DIMSTYLE
  2
ISO-25
 70
     0
  3

  4

  5

  6

  7

 40
1.0
 41
2.5
 42
0.625
 43
0.3799999952316284
 44
0.1800000071525574
 45
0.0
 46
0.3799999952316284
 47
0.0
 48
0.0
140
2.5
141
0.0900000035762787
142
0.0
143
25.39999961853027
144
1.0
145
0.0
146
1.0
147
0.0900000035762787
 71
     0
 72
     0
 73
     1
 74
     1
 75
     0
 76
     0
 77
     1
 78
     0
170
     0
171
     3
172
     0
173
     0
174
     0
175
     0
176
     0
177
     0
178
     0
  0
DIMSTYLE
  2
STANDARD
 70
     0
  3

  4

  5

  6

  7

 40
1.0
 41
0.18
 42
0.0625
 43
0.38
 44
0.18
 45
0.0
 46
0.0
 47
0.0
 48
0.0
140
0.18
141
0.09
142
0.0
143
25.4
144
1.0
145
0.0
146
1.0
147
0.09
 71
     0
 72
     0
 73
     1
 74
     1
 75
     0
 76
     0
 77
     0
 78
     0
170
     0
171
     2
172
     0
173
     0
174
     0
175
     0
176
     0
177
     0
178
     0
  0
ENDTAB
  0
ENDSEC
  0
SECTION
  2
BLOCKS
  0
BLOCK
  8
0
  2
$MODEL_SPACE
 70
     0
 10
0.0
 20
0.0
 30
0.0
  3
$MODEL_SPACE
  1

  0
ENDBLK
  5
7
  8
0
  0
BLOCK
 67
     1
  8
0
  2
$PAPER_SPACE
 70
     0
 10
0.0
 20
0.0
 30
0.0
  3
$PAPER_SPACE
  1

  0
ENDBLK
  5
A
 67
     1
  8
0
  0
ENDSEC
  0
SECTION
  2
ENTITIES
  0
LINE
  5
65
  8
-11
  6
AVEVASOLID
 62
   253
 10
183.0716521028405
 20
171.6640592998592
 30
0.0
 11
330.0716521028405
 21
171.6640592998592
 31
0.0
  0
LINE
  5
131
  8
-300
  6
AVEVASOLIDXWIDE
 62
    92
 10
-62.73523266278448
 20
-111.2442353778752
 30
0.0
 11
-62.73523266278448
 21
171.7557646221248
 31
0.0
  0
LINE
  5
132
  8
-300
  6
AVEVASOLIDXWIDE
 62
    92
 10
-62.73523266278448
 20
171.7557646221248
 30
0.0
 11
330.0716521028405
 21
171.6640592998592
 31
0.0
  0
LINE
  5
133
  8
-300
  6
AVEVASOLIDXWIDE
 62
    92
 10
330.0716521028405
 20
171.6640592998592
 30
0.0
 11
330.0716521028405
 21
-111.335935454932
 31
0.0
  0
LINE
  5
134
  8
-300
  6
AVEVASOLIDXWIDE
 62
    92
 10
-62.73523266278448
 20
-111.2442353778752
 30
0.0
 11
330.0716521028405
 21
-111.335935454932
 31
0.0
  0
LINE
  5
139
  8
-300
  6
AVEVASOLIDXWIDE
 62
    92
 10
10.00000002980232
 20
0.0
 30
0.0
 11
0.0
 21
0.0
 31
0.0
  0
LINE
  5
13A
  8
-300
  6
AVEVASOLID
 62
    92
 10
-82.92833266817274
 20
178.6640592998592
 30
0.0
 11
-82.92833266817274
 21
-118.3359353804262
 31
0.0
  0
LINE
  5
13B
  8
-300
  6
AVEVASOLID
 62
    92
 10
-82.92833266817274
 20
-118.3359353804262
 30
0.0
 11
337.0716521028405
 21
-118.3359353804262
 31
0.0
  0
LINE
  5
13D
  8
-300
  6
AVEVASOLIDXWIDE
 62
    92
 10
337.0716521028405
 20
-118.3359353804262
 30
0.0
 11
337.0716521028405
 21
-108.3359349780949
 31
0.0
  0
LINE
  5
13E
  8
-300
  6
AVEVASOLIDXWIDE
 62
    92
 10
327.0716521028405
 20
-118.3359353804262
 30
0.0
 11
337.0716521028405
 21
-118.3359353804262
 31
0.0
  0
LINE
  5
13F
  8
-300
  6
AVEVASOLID
 62
    92
 10
337.0716521028405
 20
178.6640592998592
 30
0.0
 11
337.0716521028405
 21
-118.3359353804262
 31
0.0
  0
LINE
  5
142
  8
-300
  6
AVEVASOLID
 62
    92
 10
-82.92833266817274
 20
178.6640592998592
 30
0.0
 11
337.0716521028405
 21
178.6640592998592
 31
0.0
  0
LINE
  5
143
  8
-300
  6
AVEVASOLIDXWIDE
 62
    92
 10
0.0
 20
0.0
 30
0.0
 11
0.0
 21
10.00000040233135
 31
0.0
  0
LINE
  5
151
  8
-300
  6
AVEVASOLIDXWIDE
 62
    92
 10
337.0716521028405
 20
-118.3359353804262
 30
0.0
 11
337.0716521028405
 21
-108.3359349780949
 31
0.0
  0
LINE
  5
152
  8
-300
  6
AVEVASOLIDXWIDE
 62
    92
 10
327.0716521028405
 20
-118.3359353804262
 30
0.0
 11
337.0716521028405
 21
-118.3359353804262
 31
0.0
  0
LINE
  5
153
  8
-300
  6
AVEVASOLID
 62
    92
 10
337.0716521028405
 20
178.6640592998592
 30
0.0
 11
337.0716521028405
 21
-118.3359353804262
 31
0.0
  0
LINE
  5
156
  8
-300
  6
AVEVASOLID
 62
    92
 10
-82.92833266817274
 20
178.6640592998592
 30
0.0
 11
337.0716521028405
 21
178.6640592998592
 31
0.0
  0
LINE
  5
157
  8
-300
  6
AVEVASOLIDXWIDE
 62
    92
 10
0.0
 20
0.0
 30
0.0
 11
0.0
 21
10.00000040233135
 31
0.0
  0
LINE
  5
158
  8
-300
  6
AVEVASOLIDXWIDE
 62
    92
 10
10.00000002980232
 20
0.0
 30
0.0
 11
0.0
 21
0.0
 31
0.0
  0
LINE
  5
159
  8
-300
  6
AVEVASOLID
 62
    92
 10
-82.92833266817274
 20
178.6640592998592
 30
0.0
 11
-82.92833266817274
 21
-118.3359353804262
 31
0.0
  0
LINE
  5
15A
  8
-300
  6
AVEVASOLID
 62
    92
 10
-82.92833266817274
 20
-118.3359353804262
 30
0.0
 11
337.0716521028405
 21
-118.3359353804262
 31
0.0
  0
CIRCLE
  5
17C1
  8
0
 10
-136.0000000000014
 20
124.0
 30
-7.999999997877424
 40
7.499999999999915
210
3.000000000000000E-16
220
5.200000000000000E-15
230
-1.0
  0
CIRCLE
  5
17C2
  8
0
 10
-229.0000000000009
 20
32.00000000000004
 30
-6.999999999830392
 40
3.000000000000039
210
7.000000000000000E-16
220
4.700000000000000E-15
230
-1.0
  0
CIRCLE
  5
17C3
  8
0
 10
-229.0000000000014
 20
102.0000000000001
 30
-7.000000000258769
 40
3.000000000000039
210
1.000000000000000E-15
220
7.600000000000000E-15
230
-1.0
  0
CIRCLE
  5
17C4
  8
0
 10
-191.0000000000009
 20
32.00000000000006
 30
-6.999999999889272
 40
3.000000000000039
210
1.100000000000000E-15
220
9.300000000000000E-15
230
-1.0
  0
CIRCLE
  5
17C5
  8
0
 10
-191.0000000000014
 20
102.0
 30
-6.999999999948469
 40
3.000000000000039
210
5.000000000000000E-16
220
7.000000000000000E-15
230
-1.0
  0
CIRCLE
  5
17C6
  8
0
 10
-153.0000000000009
 20
32.00000000000004
 30
-6.99999999994865
 40
2.999999999999869
210
3.000000000000000E-16
220
5.200000000000000E-15
230
-1.0
  0
CIRCLE
  5
17C7
  8
0
 10
-153.0000000000014
 20
102.0000000000001
 30
-6.999999999822544
 40
3.000000000000041
210
1.700000000000000E-15
220
8.300000000000000E-15
230
-1.0
  0
CIRCLE
  5
17C8
  8
0
 10
-153.0000000000014
 20
102.0
 30
-6.999999999999897
 40
7.500000000000097
210
4.000000000000000E-16
220
5.000000000000000E-15
230
-1.0
  0
CIRCLE
  5
17C9
  8
0
 10
-153.0000000000009
 20
32.00000000000004
 30
-6.999999999940798
 40
7.500000000000097
210
3.000000000000000E-16
220
5.000000000000000E-15
230
-1.0
  0
CIRCLE
  5
17CA
  8
0
 10
-191.0000000000014
 20
102.0
 30
-7.000000000125415
 40
7.5000000000001
210
1.000000000000000E-15
220
5.700000000000000E-15
230
-1.0
  0
CIRCLE
  5
17CB
  8
0
 10
-191.0000000000009
 20
32.00000000000004
 30
-7.000000000066507
 40
7.500000000000102
210
3.000000000000000E-16
220
5.100000000000000E-15
230
-1.0
  0
CIRCLE
  5
17CC
  8
0
 10
-136.0000000000009
 20
50.00000000000003
 30
-7.999999998231086
 40
7.500000000000098
210
3.000000000000000E-16
220
5.000000000000000E-15
230
-1.0
  0
CIRCLE
  5
17CD
  8
0
 10
-136.000000000001
 20
84.00000000000003
 30
-7.999999998054255
 40
7.500000000000094
210
4.000000000000000E-16
220
5.100000000000000E-15
230
-1.0
  0
CIRCLE
  5
17CE
  8
0
 10
96.00000000000115
 20
84.0000000000009
 30
7.999999998939117
 40
7.500000000000097
  0
CIRCLE
  5
17CF
  8
0
 10
-96.00000000000092
 20
50.00000000000003
 30
-7.999999998761793
 40
7.500000000000098
210
3.000000000000000E-16
220
5.100000000000000E-15
230
-1.0
  0
CIRCLE
  5
17D0
  8
0
 10
-96.00000000000068
 20
10.00000000000095
 30
-7.999999998584906
 40
7.500000000000098
210
2.000000000000000E-16
220
5.000000000000000E-15
230
-1.0
  0
CIRCLE
  5
17D1
  8
0
 10
136.0000000000007
 20
10.0
 30
7.999999998408048
 40
7.500000000000098
  0
CIRCLE
  5
17D2
  8
0
 10
96.00000000000136
 20
124.0000000000009
 30
7.999999999116142
 40
2.999999999999996
  0
CIRCLE
  5
17D3
  8
0
 10
96.00000000000115
 20
84.0000000000009
 30
7.999999998939117
 40
2.999999999999996
  0
CIRCLE
  5
17D4
  8
0
 10
136.000000000001
 20
84.0
 30
7.999999998054732
 40
2.999999999999998
  0
CIRCLE
  5
17D5
  8
0
 10
136.0000000000007
 20
10.0
 30
7.999999998408048
 40
3.0
  0
CIRCLE
  5
17D6
  8
0
 10
96.00000000000068
 20
10.00000000000091
 30
7.99999999858497
 40
2.999999999999998
  0
CIRCLE
  5
17D7
  8
0
 10
136.0000000000009
 20
50.0
 30
7.999999998231382
 40
3.000000000000001
  0
LINE
  5
17D8
  8
0
 10
239.0000000000007
 20
0.0
 30
-0.000000000000079
 11
0.0
 21
0.0
 31
0.0
  0
CIRCLE
  5
17D9
  8
0
 10
-9.000000000000002
 20
10.00000000000004
 30
-7.999999999999972
 40
7.500000000000097
210
3.000000000000000E-16
220
5.100000000000000E-15
230
-1.0
  0
CIRCLE
  5
17DA
  8
0
 10
9.0
 20
10.0
 30
8.000000000000027
 40
2.999999999999998
  0
CIRCLE
  5
17DB
  8
0
 10
-9.000000000000457
 20
50.00000000000003
 30
-7.999999999823087
 40
7.500000000000098
210
2.000000000000000E-16
220
5.100000000000000E-15
230
-1.0
  0
CIRCLE
  5
17DC
  8
0
 10
9.000000000000455
 20
50.0
 30
7.999999999823344
 40
2.999999999999998
  0
CIRCLE
  5
17DD
  8
0
 10
-9.000000000000682
 20
84.00000000000003
 30
-7.999999999646196
 40
7.500000000000098
210
2.000000000000000E-16
220
5.000000000000000E-15
230
-1.0
  0
CIRCLE
  5
17DE
  8
0
 10
9.000000000000682
 20
84.0
 30
7.999999999646616
 40
2.999999999999998
  0
CIRCLE
  5
17DF
  8
0
 10
-9.000000000000911
 20
124.0
 30
-7.999999999469271
 40
7.499999999999917
210
3.000000000000000E-16
220
5.100000000000000E-15
230
-1.0
  0
CIRCLE
  5
17E0
  8
0
 10
9.00000000000091
 20
124.0
 30
7.999999999469904
 40
3.0
  0
CIRCLE
  5
17E1
  8
0
 10
49.00000000000023
 20
10.0
 30
7.999999999823114
 40
7.500000000000098
  0
CIRCLE
  5
17E2
  8
0
 10
49.00000000000023
 20
10.0
 30
7.999999999823114
 40
2.999999999999996
  0
CIRCLE
  5
17E3
  8
0
 10
49.00000000000045
 20
50.0
 30
7.999999999646336
 40
7.500000000000096
  0
CIRCLE
  5
17E4
  8
0
 10
49.00000000000045
 20
50.0
 30
7.999999999646336
 40
2.999999999999996
  0
CIRCLE
  5
17E5
  8
0
 10
-49.00000000000045
 20
84.00000000000003
 30
-7.999999999469162
 40
7.500000000000098
210
4.000000000000000E-16
220
5.300000000000000E-15
230
-1.0
  0
CIRCLE
  5
17E6
  8
0
 10
49.00000000000045
 20
84.0
 30
7.999999999469629
 40
3.0
  0
CIRCLE
  5
17E7
  8
0
 10
-49.0000000000009
 20
124.0
 30
-7.999999999292295
 40
7.499999999999922
210
3.000000000000000E-16
220
5.100000000000000E-15
230
-1.0
  0
CIRCLE
  5
17E8
  8
0
 10
49.0000000000009
 20
124.0
 30
7.999999999292942
 40
2.999999999999996
  0
CIRCLE
  5
17E9
  8
0
 10
-96.00000000000136
 20
124.000000000001
 30
-7.999999999115495
 40
7.499999999999912
210
3.000000000000000E-16
220
5.000000000000000E-15
230
-1.0
  0
CIRCLE
  5
17EA
  8
0
 10
-229.0000000000014
 20
102.0
 30
-7.000000000066552
 40
7.500000000000098
210
2.000000000000000E-16
220
5.000000000000000E-15
230
-1.0
  0
CIRCLE
  5
17EB
  8
0
 10
-229.0000000000009
 20
32.00000000000004
 30
-7.000000000007392
 40
7.5000000000001
210
4.000000000000000E-16
220
5.200000000000000E-15
230
-1.0
  0
LINE
  5
17EC
  8
0
 10
74.8000000000002
 20
42.0
 30
0.0000000001927701
 11
74.80000000000064
 21
92.0
 31
0.0000000001930239
  0
LINE
  5
17ED
  8
0
 10
0.0
 20
0.0
 30
0.0
 11
0.0000000000009095
 21
134.0
 31
0.0000000000006571
  0
LINE
  5
17EE
  8
0
 10
0.0000000000009095
 20
134.0
 30
0.0000000000006571
 11
239.0000000000014
 21
134.0
 31
0.0000000000006909
  0
LINE
  5
17EF
  8
0
 10
239.0000000000014
 20
134.0
 30
0.0000000000006909
 11
239.0000000000007
 21
0.0
 31
-0.000000000000079
  0
LINE
  5
17F0
  8
0
 10
59.50000000000045
 20
92.0
 30
0.0000000001930182
 11
59.50000000000045
 21
42.0
 31
0.0000000001927644
  0
LINE
  5
17F1
  8
0
 10
59.50000000000045
 20
42.0
 30
0.0000000001927644
 11
74.8000000000002
 21
42.0
 31
0.0000000001927701
  0
LINE
  5
17F2
  8
0
 10
74.80000000000064
 20
92.0
 30
0.0000000001930239
 11
59.50000000000045
 21
92.0
 31
0.0000000001930182
  0
CIRCLE
  5
17F3
  8
0
 10
96.00000000000092
 20
50.0
 30
7.999999998762075
 40
3.0
  0
CIRCLE
  5
17F4
  8
0
 10
136.0000000000014
 20
124.0
 30
7.999999997878111
 40
2.999999999999998
  0
LINE
  5
17F5
  8
0
 10
0.0
 20
-48.99681102175278
 30
0.0
 11
0.0
 21
-63.99681102175278
 31
0.0
  0
LINE
  5
17F6
  8
0
 10
239.0000000000007
 20
-48.99681102175279
 30
-0.000000000000079
 11
239.0000000000007
 21
-63.99681102175278
 31
-0.000000000000079
  0
LINE
  5
17F7
  8
0
 10
0.0
 20
-63.99681102175278
 30
0.0
 11
239.0000000000007
 21
-63.99681102175278
 31
0.0
  0
LINE
  5
17F8
  8
0
 10
0.0
 20
-48.99681102175278
 30
0.0
 11
239.0000000000007
 21
-48.99681102175278
 31
0.0
  0
LINE
  5
1817
  8
0
  6
AVEVASHORTDASHED
 10
1.499999999999902
 20
-55.99681102175278
 30
0.0
 11
16.5000000000001
 21
-55.99681102175278
 31
0.0
  0
LINE
  5
1818
  8
0
  6
AVEVASHORTDASHED
 10
41.50000000000013
 20
-55.99681102175278
 30
0.0
 11
56.50000000000033
 21
-55.99681102175278
 31
0.0
  0
LINE
  5
1819
  8
0
  6
AVEVASHORTDASHED
 10
88.50000000000058
 20
-55.99681102175278
 30
0.0
 11
103.5000000000008
 21
-55.99681102175278
 31
0.0
  0
LINE
  5
181A
  8
0
  6
AVEVASHORTDASHED
 10
128.5000000000006
 20
-55.99681102175278
 30
0.0
 11
143.5000000000008
 21
-55.99681102175278
 31
0.0
  0
LINE
  5
181E
  8
0
  6
AVEVASHORTDASHED
 10
145.5000000000008
 20
-56.99681102175278
 30
0.0
 11
160.500000000001
 21
-56.99681102175278
 31
0.0
  0
LINE
  5
181F
  8
0
  6
AVEVASHORTDASHED
 10
12.0
 20
-55.99681102175278
 30
8.000000000000027
 11
12.0
 21
-63.99681102175278
 31
8.000000000000027
  0
LINE
  5
1820
  8
0
  6
AVEVASHORTDASHED
 10
6.000000000000002
 20
-55.99681102175281
 30
8.000000000000027
 11
6.000000000000002
 21
-63.99681102175279
 31
8.000000000000027
  0
LINE
  5
1821
  8
0
  6
AVEVASHORTDASHED
 10
52.00000000000023
 20
-55.99681102175278
 30
7.999999999851051
 11
52.00000000000023
 21
-63.99681102175278
 31
7.999999999851051
  0
LINE
  5
1822
  8
0
  6
AVEVASHORTDASHED
 10
46.00000000000023
 20
-55.99681102175278
 30
7.999999999851051
 11
46.00000000000023
 21
-63.99681102175279
 31
7.999999999851051
  0
LINE
  5
1823
  8
0
  6
AVEVASHORTDASHED
 10
99.00000000000068
 20
-55.99681102175278
 30
7.999999998697285
 11
99.00000000000068
 21
-63.99681102175278
 31
7.999999998697285
  0
LINE
  5
1824
  8
0
  6
AVEVASHORTDASHED
 10
93.00000000000068
 20
-55.99681102175278
 30
7.999999998697285
 11
93.00000000000068
 21
-63.99681102175278
 31
7.999999998697285
  0
LINE
  5
1825
  8
0
  6
AVEVASHORTDASHED
 10
139.0000000000007
 20
-55.99681102175278
 30
7.999999998496823
 11
139.0000000000007
 21
-63.99681102175278
 31
7.999999998496823
  0
LINE
  5
1826
  8
0
  6
AVEVASHORTDASHED
 10
133.0000000000007
 20
-55.99681102175278
 30
7.999999998496823
 11
133.0000000000007
 21
-63.99681102175279
 31
7.999999998496823
  0
LINE
  5
1827
  8
0
  6
AVEVASHORTDASHED
 10
160.500000000001
 20
-56.9968110217528
 30
6.999999999941005
 11
160.500000000001
 21
-63.99681102175277
 31
6.999999999941005
  0
LINE
  5
1828
  8
0
  6
AVEVASHORTDASHED
 10
183.5000000000008
 20
-56.99681102175278
 30
0.0
 11
198.500000000001
 21
-56.99681102175278
 31
0.0
  0
LINE
  5
1829
  8
0
  6
AVEVASHORTDASHED
 10
145.5000000000008
 20
-56.9968110217528
 30
6.999999999941
 11
145.5000000000008
 21
-63.99681102175277
 31
6.999999999941
  0
LINE
  5
182A
  8
0
  6
AVEVASHORTDASHED
 10
183.5000000000008
 20
-56.9968110217528
 30
7.000000000066725
 11
183.5000000000008
 21
-63.99681102175277
 31
7.000000000066725
  0
LINE
  5
182B
  8
0
  6
AVEVASHORTDASHED
 10
198.500000000001
 20
-56.9968110217528
 30
7.000000000066729
 11
198.500000000001
 21
-63.99681102175277
 31
7.000000000066729
  0
LINE
  5
182C
  8
0
  6
AVEVASHORTDASHED
 10
221.5000000000008
 20
-56.99681102175278
 30
0.0
 11
236.500000000001
 21
-56.99681102175278
 31
0.0
  0
LINE
  5
182D
  8
0
  6
AVEVASHORTDASHED
 10
221.5000000000008
 20
-56.99681102175277
 30
7.000000000007647
 11
221.5000000000008
 21
-63.99681102175277
 31
7.000000000007647
  0
LINE
  5
182E
  8
0
  6
AVEVASHORTDASHED
 10
236.500000000001
 20
-56.99681102175277
 30
7.000000000007651
 11
236.500000000001
 21
-63.99681102175277
 31
7.000000000007651
  0
LINE
  5
182F
  8
0
  6
AVEVASHORTDASHED
 10
232.0000000000009
 20
-48.99681102175281
 30
7.000000000007651
 11
232.0000000000009
 21
-56.99681102175278
 31
7.000000000007651
  0
LINE
  5
1830
  8
0
  6
AVEVASHORTDASHED
 10
226.0000000000009
 20
-48.99681102175281
 30
7.00000000000765
 11
226.0000000000009
 21
-56.99681102175278
 31
7.00000000000765
  0
LINE
  5
1831
  8
0
  6
AVEVASHORTDASHED
 10
194.0000000000009
 20
-48.99681102175281
 30
7.000000000066729
 11
194.0000000000009
 21
-56.99681102175278
 31
7.000000000066729
  0
LINE
  5
1832
  8
0
  6
AVEVASHORTDASHED
 10
188.0000000000009
 20
-48.99681102175281
 30
7.00000000006673
 11
188.0000000000009
 21
-56.99681102175278
 31
7.00000000006673
  0
LINE
  5
1833
  8
0
  6
AVEVASHORTDASHED
 10
156.0000000000009
 20
-48.99681102175281
 30
6.999999999941004
 11
156.0000000000009
 21
-56.99681102175278
 31
6.999999999941004
  0
LINE
  5
1834
  8
0
  6
AVEVASHORTDASHED
 10
150.0000000000009
 20
-48.99681102175281
 30
6.999999999941005
 11
150.0000000000009
 21
-56.99681102175278
 31
6.999999999941005
  0
LINE
  5
1835
  8
0
  6
AVEVASHORTDASHED
 10
143.5000000000008
 20
-48.99681102175276
 30
7.999999998496823
 11
143.5000000000008
 21
-55.99681102175276
 31
7.999999998496823
  0
LINE
  5
1836
  8
0
  6
AVEVASHORTDASHED
 10
128.5000000000006
 20
-48.99681102175276
 30
7.999999998496819
 11
128.5000000000006
 21
-55.99681102175278
 31
7.999999998496819
  0
LINE
  5
1837
  8
0
  6
AVEVASHORTDASHED
 10
103.5000000000008
 20
-48.99681102175279
 30
7.999999998697285
 11
103.5000000000008
 21
-55.99681102175278
 31
7.999999998697285
  0
LINE
  5
1838
  8
0
  6
AVEVASHORTDASHED
 10
88.50000000000058
 20
-48.99681102175279
 30
7.999999998697281
 11
88.50000000000058
 21
-55.99681102175278
 31
7.999999998697281
  0
LINE
  5
1839
  8
0
  6
AVEVASHORTDASHED
 10
74.8000000000002
 20
-48.99681102175276
 30
0.0000000000272796
 11
74.8000000000002
 21
-63.99681102175278
 31
0.0
  0
LINE
  5
183A
  8
0
  6
AVEVASHORTDASHED
 10
59.50000000000044
 20
-48.99681102175276
 30
0.0000000000272788
 11
59.50000000000044
 21
-63.99681102175278
 31
0.0
  0
LINE
  5
183B
  8
0
  6
AVEVASHORTDASHED
 10
56.50000000000033
 20
-48.99681102175276
 30
7.999999999851051
 11
56.50000000000033
 21
-55.99681102175276
 31
7.999999999851051
  0
LINE
  5
183C
  8
0
  6
AVEVASHORTDASHED
 10
41.50000000000013
 20
-48.99681102175276
 30
7.999999999851047
 11
41.50000000000013
 21
-55.99681102175278
 31
7.999999999851047
  0
LINE
  5
183D
  8
0
  6
AVEVASHORTDASHED
 10
16.5000000000001
 20
-48.99681102175277
 30
8.000000000000027
 11
16.5000000000001
 21
-55.99681102175279
 31
8.000000000000027
  0
LINE
  5
183E
  8
0
  6
AVEVASHORTDASHED
 10
1.499999999999903
 20
-48.99681102175276
 30
8.000000000000023
 11
1.499999999999903
 21
-55.99681102175278
 31
8.000000000000023
  0
TEXT
  5
1980
  8
-300
  6
CONTINUOUS
 62
    92
 10
198.4043458389073
 20
-104.336514203026
 30
0.0
 40
3.125
  1
Verif:
  0
TEXT
  5
1981
  8
-300
  6
CONTINUOUS
 62
    92
 10
198.1384549480164
 20
-98.78333602484781
 30
0.0
 40
3.125
  1
Exec:
  0
TEXT
  5
1982
  8
-300
  6
CONTINUOUS
 62
    92
 10
197.8023195419805
 20
-93.23903594550211
 30
0.0
 40
3.125
  1
Nome:
  0
TEXT
  5
1983
  8
-300
  6
CONTINUOUS
 62
    92
 10
292.8475262961977
 20
-96.0839131885441
 30
0.0
 40
3.125
  1
Rev:
  0
TEXT
  5
1984
  8
-300
  6
CONTINUOUS
 62
    92
 10
292.853782552454
 20
-106.0839131885441
 30
0.0
 40
3.125
  1
Data:
  0
TEXT
  5
1985
  8
-300
  6
CONTINUOUS
 62
    92
 10
198.4231146076761
 20
-109.7833350711735
 30
0.0
 40
3.125
  1
Aprov:
  0
TEXT
  5
1986
  8
-300
  6
CONTINUOUS
 62
     7
 10
216.0469197543781
 20
-98.74923453864176
 30
0.0
 40
3.125
  1
-
  0
TEXT
  5
1987
  8
-300
  6
CONTINUOUS
 62
     7
 10
216.0469197543781
 20
-104.2492364459904
 30
0.0
 40
3.125
  1
-
  0
TEXT
  5
1988
  8
-300
  6
CONTINUOUS
 62
     7
 10
216.0469197543781
 20
-109.7492354923161
 30
0.0
 40
3.125
  1
-
  0
TEXT
  5
1989
  8
-300
  6
CONTINUOUS
 62
     7
 10
310.9477745800078
 20
-96.2136761368791
 30
0.0
 40
3.130000114440918
  1
0
  0
TEXT
  5
198A
  8
-300
  6
CONTINUOUS
 62
     7
 10
307.4015761054001
 20
-106.2543236894151
 30
0.0
 40
3.125
  1
03/05/15
  0
LINE
  5
198B
  8
-300
  6
AVEVASOLID
 62
    92
 10
290.5249622160042
 20
-100.3359349780949
 30
0.0
 11
322.1140430265511
 21
-100.3359349780949
 31
0.0
  0
LINE
  5
198C
  8
-300
  6
AVEVASOLIDXWIDE
 62
    92
 10
337.0716521028405
 20
-118.3359353804262
 30
0.0
 11
337.0716521028405
 21
-108.3359349780949
 31
0.0
  0
LINE
  5
198D
  8
-300
  6
AVEVASOLIDXWIDE
 62
    92
 10
327.0716521028405
 20
-118.3359353804262
 30
0.0
 11
337.0716521028405
 21
-118.3359353804262
 31
0.0
  0
LINE
  5
198E
  8
-300
  6
AVEVASOLID
 62
    92
 10
197.1874120930276
 20
-89.33593497809488
 30
0.0
 11
197.1874120930276
 21
-111.335935454932
 31
0.0
  0
LINE
  5
198F
  8
-300
  6
AVEVASOLID
 62
    92
 10
290.5249622160042
 20
-111.335935454932
 30
0.0
 11
290.5249622160042
 21
-89.33593497809488
 31
0.0
  0
LINE
  5
1990
  8
-300
  6
AVEVASOLID
 62
    92
 10
197.1874120930276
 20
-89.33593497809488
 30
0.0
 11
197.1874120930276
 21
-111.335935454932
 31
0.0
  0
LINE
  5
1991
  8
-300
  6
AVEVASOLID
 62
    92
 10
290.5249622160042
 20
-111.335935454932
 30
0.0
 11
290.5249622160042
 21
-89.33593497809488
 31
0.0
  0
LINE
  5
1992
  8
-300
  6
AVEVASOLIDXWIDE
 62
    92
 10
337.0716521028405
 20
-118.3359353804262
 30
0.0
 11
337.0716521028405
 21
-108.3359349780949
 31
0.0
  0
LINE
  5
1993
  8
-300
  6
AVEVASOLIDXWIDE
 62
    92
 10
327.0716521028405
 20
-118.3359353804262
 30
0.0
 11
337.0716521028405
 21
-118.3359353804262
 31
0.0
  0
LINE
  5
1994
  8
-300
  6
AVEVASOLID
 62
    92
 10
290.5249622160042
 20
-100.3359349780949
 30
0.0
 11
330.0716521028405
 21
-100.3359349780949
 31
0.0
  0
LINE
  5
1995
  8
-300
  6
AVEVASOLIDXWIDE
 62
    92
 10
197.1874120930276
 20
-89.33593497809488
 30
0.0
 11
293.7873876789652
 21
-89.33593497809488
 31
0.0
  0
LINE
  5
1996
  8
-300
  6
AVEVASOLIDXWIDE
 62
    92
 10
197.1874120930276
 20
-89.33593497809488
 30
0.0
 11
330.0716521028405
 21
-89.33593497809488
 31
0.0
  0
LINE
  5
1997
  8
-300
  6
AVEVASOLID
 62
    92
 10
197.1874120930276
 20
-94.83593497809488
 30
0.0
 11
290.5249622160042
 21
-94.83593497809488
 31
0.0
  0
LINE
  5
1998
  8
-300
  6
AVEVASOLID
 62
    92
 10
197.1874120930276
 20
-94.83593497809488
 30
0.0
 11
290.5249622160042
 21
-94.83593497809488
 31
0.0
  0
LINE
  5
1999
  8
-300
  6
AVEVASOLID
 62
    92
 10
197.1874120930276
 20
-100.3359349780949
 30
0.0
 11
290.5249622160042
 21
-100.3359349780949
 31
0.0
  0
LINE
  5
199A
  8
-300
  6
AVEVASOLID
 62
    92
 10
197.1874120930276
 20
-100.3359349780949
 30
0.0
 11
290.5249622160042
 21
-100.3359349780949
 31
0.0
  0
LINE
  5
199B
  8
-300
  6
AVEVASOLID
 62
    92
 10
197.1874120930276
 20
-105.8359349780949
 30
0.0
 11
290.5249622160042
 21
-105.8359349780949
 31
0.0
  0
LINE
  5
199C
  8
-300
  6
AVEVASOLID
 62
    92
 10
197.1874120930276
 20
-105.8359349780949
 30
0.0
 11
290.5249622160042
 21
-105.8359349780949
 31
0.0
  0
TEXT
  5
199D
  8
-300
  6
CONTINUOUS
 62
     7
 10
212.1746753582354
 20
-93.30241271681993
 30
0.0
 40
3.125
  1
-
  0
TEXT
  5
199E
  8
-300
  6
CONTINUOUS
 62
     7
 10
309.320647663588
 20
-117.3915822617073
 30
0.0
 40
3.125
  1
Padrao-A3
  0
VIEWPORT
  5
16EA
 67
     1
  8
0
 10
143.5
 20
95.0
 30
0.0
 40
462.0
 41
231.0
 68
     1
 69
     1
1001
ACAD
1000
MVIEW
1002
{
1070
    16
1010
0.0
1020
0.0
1030
0.0
1020
0.0
1030
0.0
1010
0.0
1020
0.0
1030
1.0
1020
0.0
1030
1.0
1040
0.0
1040
231.0
1040
143.5
1040
95.0
1040
50.0
1040
0.0
1040
0.0
1070
     0
1070
   100
1070
     1
1070
     0
1070
     0
1070
     0
1070
     0
1070
     0
1040
0.0
1040
0.0
1040
0.0
1040
10.0
1040
10.0
1040
10.0
1040
10.0
1070
     1
1002
{
1002
}
1002
}
  0
VIEWPORT
  5
16EC
 67
     1
  8
VIEWPORTS
 10
143.5
 20
95.0
 30
0.0
 40
287.0
 41
162.7319641113281
 68
     2
 69
     2
1001
ACAD
1000
MVIEW
1002
{
1070
    16
1010
0.0
1020
0.0
1030
0.0
1020
0.0
1030
0.0
1010
0.0
1020
0.0
1030
1.0
1020
0.0
1030
1.0
1040
0.0
1040
305.9693908691406
1040
209.806884765625
1040
148.4082946777344
1040
50.0
1040
0.0
1040
0.0
1070
     0
1070
   100
1070
     1
1070
     0
1070
     0
1070
     0
1070
     0
1070
     0
1040
0.0
1040
0.0
1040
0.0
1040
10.0
1040
10.0
1040
10.0
1040
10.0
1070
     1
1002
{
1002
}
1002
}
  0
ENDSEC
  0
EOF
