  0
SECTION
  2
HEADER
  9
$ACADVER
  1
AC1009
  9
$DWGCODEPAGE
  3
ansi_1252
  9
$INSBASE
 10
0.0
 20
0.0
 30
0.0
  9
$EXTMIN
 10
-82.92833266817274
 20
-118.3359353804262
 30
-0.0000000001085606
  9
$EXTMAX
 10
337.0716521028405
 20
178.6640592998592
 30
0.0000000000001044
  9
$LIMMIN
 10
0.0
 20
0.0
  9
$LIMMAX
 10
12.0
 20
9.0
  9
$ORTHOMODE
 70
     1
  9
$REGENMODE
 70
     1
  9
$FILLMODE
 70
     1
  9
$QTEXTMODE
 70
     0
  9
$MIRRTEXT
 70
     1
  9
$DRAGMODE
 70
     2
  9
$LTSCALE
 40
1.0
  9
$OSMODE
 70
   511
  9
$ATTMODE
 70
     1
  9
$TEXTSIZE
 40
2.5
  9
$TRACEWID
 40
0.05
  9
$TEXTSTYLE
  7
STANDARD
  9
$CLAYER
  8
COTAS
  9
$CELTYPE
  6
BYLAYER
  9
$CECOLOR
 62
   256
  9
$DIMSCALE
 40
10.0
  9
$DIMASZ
 40
0.18
  9
$DIMEXO
 40
0.625
  9
$DIMDLI
 40
0.38
  9
$DIMRND
 40
0.0
  9
$DIMDLE
 40
0.38
  9
$DIMEXE
 40
0.18
  9
$DIMTP
 40
0.0
  9
$DIMTM
 40
0.0
  9
$DIMTXT
 40
0.18
  9
$DIMCEN
 40
0.09
  9
$DIMTSZ
 40
0.0
  9
$DIMTOL
 70
     0
  9
$DIMLIM
 70
     0
  9
$DIMTIH
 70
     1
  9
$DIMTOH
 70
     1
  9
$DIMSE1
 70
     0
  9
$DIMSE2
 70
     0
  9
$DIMTAD
 70
     0
  9
$DIMZIN
 70
     0
  9
$DIMBLK
  1

  9
$DIMASO
 70
     1
  9
$DIMSHO
 70
     1
  9
$DIMPOST
  1

  9
$DIMAPOST
  1

  9
$DIMALT
 70
     0
  9
$DIMALTD
 70
     2
  9
$DIMALTF
 40
25.4
  9
$DIMLFAC
 40
1.0
  9
$DIMTOFL
 70
     0
  9
$DIMTVP
 40
0.0
  9
$DIMTIX
 70
     0
  9
$DIMSOXD
 70
     0
  9
$DIMSAH
 70
     0
  9
$DIMBLK1
  1

  9
$DIMBLK2
  1

  9
$DIMSTYLE
  2
ISO-25
  9
$DIMCLRD
 70
     0
  9
$DIMCLRE
 70
     0
  9
$DIMCLRT
 70
     0
  9
$DIMTFAC
 40
1.0
  9
$DIMGAP
 40
0.09
  9
$LUNITS
 70
     2
  9
$LUPREC
 70
     4
  9
$SKETCHINC
 40
0.1
  9
$FILLETRAD
 40
0.5
  9
$AUNITS
 70
     0
  9
$AUPREC
 70
     0
  9
$MENU
  1

  9
$ELEVATION
 40
0.0
  9
$PELEVATION
 40
0.0
  9
$THICKNESS
 40
0.0
  9
$LIMCHECK
 70
     0
  9
$CHAMFERA
 40
0.5
  9
$CHAMFERB
 40
0.5
  9
$SKPOLY
 70
     0
  9
$TDCREATE
 40
2447892.875
  9
$TDUPDATE
 40
2457161.136181308
  9
$TDINDWG
 40
0.0325241204
  9
$TDUSRTIMER
 40
2457161.255547292
  9
$USRTIMER
 70
     0
  9
$ANGBASE
 50
0.0
  9
$ANGDIR
 70
     0
  9
$PDMODE
 70
     0
  9
$PDSIZE
 40
0.0
  9
$PLINEWID
 40
0.0
  9
$COORDS
 70
     1
  9
$SPLFRAME
 70
     0
  9
$SPLINETYPE
 70
     6
  9
$SPLINESEGS
 70
     8
  9
$ATTDIA
 70
     0
  9
$ATTREQ
 70
     1
  9
$HANDLING
 70
     1
  9
$HANDSEED
  5
1DEB
  9
$SURFTAB1
 70
     6
  9
$SURFTAB2
 70
     6
  9
$SURFTYPE
 70
     6
  9
$SURFU
 70
     6
  9
$SURFV
 70
     6
  9
$UCSNAME
  2

  9
$UCSORG
 10
0.0
 20
0.0
 30
0.0
  9
$UCSXDIR
 10
1.0
 20
0.0
 30
0.0
  9
$UCSYDIR
 10
0.0
 20
1.0
 30
0.0
  9
$PUCSNAME
  2

  9
$PUCSORG
 10
0.0
 20
0.0
 30
0.0
  9
$PUCSXDIR
 10
1.0
 20
0.0
 30
0.0
  9
$PUCSYDIR
 10
0.0
 20
1.0
 30
0.0
  9
$USERI1
 70
     0
  9
$USERI2
 70
     0
  9
$USERI3
 70
     0
  9
$USERI4
 70
     0
  9
$USERI5
 70
     0
  9
$USERR1
 40
0.0
  9
$USERR2
 40
0.0
  9
$USERR3
 40
0.0
  9
$USERR4
 40
0.0
  9
$USERR5
 40
0.0
  9
$WORLDVIEW
 70
     1
  9
$SHADEDGE
 70
     3
  9
$SHADEDIF
 70
    70
  9
$TILEMODE
 70
     1
  9
$MAXACTVP
 70
    64
  9
$PLIMCHECK
 70
     0
  9
$PEXTMIN
 10
0.0
 20
0.0
 30
0.0
  9
$PEXTMAX
 10
0.0
 20
0.0
 30
0.0
  9
$PLIMMIN
 10
0.0
 20
0.0
  9
$PLIMMAX
 10
0.0
 20
0.0
  9
$UNITMODE
 70
     0
  9
$VISRETAIN
 70
     1
  9
$PLINEGEN
 70
     0
  9
$PSLTSCALE
 70
     1
  0
ENDSEC
  0
SECTION
  2
TABLES
  0
TABLE
  2
VPORT
 70
     1
  0
VPORT
  2
*ACTIVE
 70
     0
 10
0.0
 20
0.0
 11
1.0
 21
1.0
 12
-82.73522504829128
 22
-118.244232718018
 13
0.0
 23
0.0
 14
0.5
 24
0.5
 15
0.0
 25
0.0
 16
0.0
 26
0.0
 36
1.0
 17
209.8068847656252
 27
148.4082946777345
 37
0.0
 40
302.9399945738911
 41
2.152066115702479
 42
50.0
 43
0.0
 44
0.0
 50
0.0
 51
0.0
 71
    16
 72
     0
 73
     0
 74
     1
 75
     0
 76
     0
 77
     0
 78
     0
  0
ENDTAB
  0
TABLE
  2
LTYPE
 70
     6
  0
LTYPE
  2
CONTINUOUS
 70
     0
  3
Solid line
 72
    65
 73
     0
 40
0.0
  0
LTYPE
  2
AVEVASOLID
 70
     0
  3
Aveva linetype
 72
    65
 73
     1
 40
2.25
 49
2.25
  0
LTYPE
  2
AVEVASOLIDXWIDE
 70
     0
  3
Aveva linetype
 72
    65
 73
     1
 40
2.25
 49
2.25
  0
LTYPE
  2
AVEVASHORTDASHED
 70
     0
  3
Aveva linetype
 72
    65
 73
     2
 40
2.0
 49
1.5
 49
-0.5
  0
ENDTAB
  0
TABLE
  2
LAYER
 70
    15
  0
LAYER
  2
0
 70
     0
 62
     7
  6
CONTINUOUS
  0
LAYER
  2
-11
 70
     0
 62
     7
  6
CONTINUOUS
  0
LAYER
  2
-300
 70
     0
 62
     7
  6
CONTINUOUS
  0
LAYER
  2
VIEWPORTS
 70
     0
 62
    -7
  6
CONTINUOUS
  0
LAYER
  2
COTAS
 70
     0
 62
     4
  6
CONTINUOUS
  0
LAYER
  2
DEFPOINTS
 70
     0
 62
     7
  6
CONTINUOUS
  0
ENDTAB
  0
TABLE
  2
STYLE
 70
     3
  0
STYLE
  2
STANDARD
 70
     0
 40
0.0
 41
1.0
 50
0.0
 71
     0
 42
2.5
  3
txt
  4

  0
ENDTAB
  0
TABLE
  2
VIEW
 70
     0
  0
ENDTAB
  0
TABLE
  2
UCS
 70
     0
  0
ENDTAB
  0
TABLE
  2
APPID
 70
     3
  0
APPID
  2
ACAD
 70
     0
  0
APPID
  2
ACAECLAYERSTANDARD
 70
     0
  0
APPID
  2
ACAD_DSTYLE_DIMRADIAL_EXTE
 70
     0
  0
ENDTAB
  0
TABLE
  2
DIMSTYLE
 70
     2
  0
DIMSTYLE
  2
ISO-25
 70
     0
  3

  4

  5

  6

  7

 40
1.0
 41
2.5
 42
0.625
 43
0.3799999952316284
 44
0.1800000071525574
 45
0.0
 46
0.3799999952316284
 47
0.0
 48
0.0
140
2.5
141
0.0900000035762787
142
0.0
143
25.39999961853027
144
1.0
145
0.0
146
1.0
147
0.0900000035762787
 71
     0
 72
     0
 73
     1
 74
     1
 75
     0
 76
     0
 77
     1
 78
     0
170
     0
171
     3
172
     0
173
     0
174
     0
175
     0
176
     0
177
     0
178
     0
  0
DIMSTYLE
  2
STANDARD
 70
     0
  3

  4

  5

  6

  7

 40
1.0
 41
0.18
 42
0.0625
 43
0.38
 44
0.18
 45
0.0
 46
0.0
 47
0.0
 48
0.0
140
0.18
141
0.09
142
0.0
143
25.4
144
1.0
145
0.0
146
1.0
147
0.09
 71
     0
 72
     0
 73
     1
 74
     1
 75
     0
 76
     0
 77
     0
 78
     0
170
     0
171
     2
172
     0
173
     0
174
     0
175
     0
176
     0
177
     0
178
     0
  0
ENDTAB
  0
ENDSEC
  0
SECTION
  2
BLOCKS
  0
BLOCK
  8
0
  2
$MODEL_SPACE
 70
     0
 10
0.0
 20
0.0
 30
0.0
  3
$MODEL_SPACE
  1

  0
ENDBLK
  5
7
  8
0
  0
BLOCK
 67
     1
  8
0
  2
$PAPER_SPACE
 70
     0
 10
0.0
 20
0.0
 30
0.0
  3
$PAPER_SPACE
  1

  0
ENDBLK
  5
A
 67
     1
  8
0
  0
BLOCK
  8
0
  2
*D0
 70
     1
 10
0.0
 20
0.0
 30
0.0
  3
*D0
  1

  0
LINE
  5
1CFA
  8
0
 62
     0
 10
-0.0000000000090949
 20
69.25
 30
0.0
 11
-0.000000000009095
 21
78.16836978667361
 31
0.0
  0
LINE
  5
1CFB
  8
0
 62
     0
 10
44.30549999999084
 20
69.25000000000568
 30
0.0
 11
44.30549999999084
 21
78.16836978667361
 31
0.0
  0
LINE
  5
1CFC
  8
0
 62
     0
 10
1.799999999990905
 20
76.36836978667361
 30
0.0
 11
18.55274999999088
 21
76.36836978667361
 31
0.0
  0
LINE
  5
1CFD
  8
0
 62
     0
 10
42.50549999999085
 20
76.36836978667361
 30
0.0
 11
25.75274999999087
 21
76.36836978667361
 31
0.0
  0
SOLID
  5
1CFE
  8
0
 62
     0
 10
1.799999999990905
 20
76.66836978667361
 30
0.0
 11
1.799999999990905
 21
76.06836978667361
 31
0.0
 12
-0.0000000000090949
 22
76.36836978667361
 32
0.0
 13
-0.0000000000090949
 23
76.36836978667361
 33
0.0
  0
SOLID
  5
1CFF
  8
0
 62
     0
 10
42.50549999999085
 20
76.06836978667361
 30
0.0
 11
42.50549999999085
 21
76.66836978667361
 31
0.0
 12
44.30549999999084
 22
76.36836978667361
 32
0.0
 13
44.30549999999084
 23
76.36836978667361
 33
0.0
  0
TEXT
  5
1D00
  8
0
  6
CONTINUOUS
 62
     0
 10
19.45274999999087
 20
75.46836978667362
 30
0.0
 40
1.8
  1
44.3
  0
POINT
  5
1D01
  8
DEFPOINTS
 62
     0
 10
-0.0000000000090949
 20
63.0
 30
0.0
  0
POINT
  5
1D02
  8
DEFPOINTS
 62
     0
 10
44.30549999999084
 20
63.00000000000568
 30
0.0
  0
POINT
  5
1D03
  8
DEFPOINTS
 62
     0
 10
44.30549999999084
 20
76.36836978667361
 30
0.0
  0
ENDBLK
  5
1CF9
  8
0
  0
BLOCK
  8
0
  2
*D1
 70
     1
 10
0.0
 20
0.0
 30
0.0
  3
*D1
  1

  0
LINE
  5
1D0B
  8
COTAS
 62
     0
 10
-0.0000000000090949
 20
69.25
 30
0.0
 11
-0.000000000009095
 21
78.00429147688523
 31
0.0
  0
LINE
  5
1D0C
  8
COTAS
 62
     0
 10
44.30549999999084
 20
69.2500000001223
 30
0.0
 11
44.30549999999084
 21
78.00429147688523
 31
0.0
  0
LINE
  5
1D0D
  8
COTAS
 62
     0
 10
1.799999999990905
 20
76.20429147688523
 30
0.0
 11
18.55274999999088
 21
76.20429147688523
 31
0.0
  0
LINE
  5
1D0E
  8
COTAS
 62
     0
 10
42.50549999999085
 20
76.20429147688523
 30
0.0
 11
25.75274999999087
 21
76.20429147688523
 31
0.0
  0
SOLID
  5
1D0F
  8
COTAS
 62
     0
 10
1.799999999990905
 20
76.50429147688523
 30
0.0
 11
1.799999999990905
 21
75.90429147688523
 31
0.0
 12
-0.0000000000090949
 22
76.20429147688523
 32
0.0
 13
-0.0000000000090949
 23
76.20429147688523
 33
0.0
  0
SOLID
  5
1D10
  8
COTAS
 62
     0
 10
42.50549999999085
 20
75.90429147688523
 30
0.0
 11
42.50549999999085
 21
76.50429147688523
 31
0.0
 12
44.30549999999084
 22
76.20429147688523
 32
0.0
 13
44.30549999999084
 23
76.20429147688523
 33
0.0
  0
TEXT
  5
1D11
  8
COTAS
  6
CONTINUOUS
 62
     0
 10
19.45274999999087
 20
75.30429147688524
 30
0.0
 40
1.8
  1
44.3
  0
POINT
  5
1D12
  8
DEFPOINTS
 62
     0
 10
-0.0000000000090949
 20
63.0
 30
0.0
  0
POINT
  5
1D13
  8
DEFPOINTS
 62
     0
 10
44.30549999999084
 20
63.0000000001223
 30
0.0
  0
POINT
  5
1D14
  8
DEFPOINTS
 62
     0
 10
44.30549999999084
 20
76.20429147688523
 30
0.0
  0
ENDBLK
  5
1D0A
  8
0
  0
BLOCK
  8
0
  2
*D2
 70
     1
 10
0.0
 20
0.0
 30
0.0
  3
*D2
  1

  0
LINE
  5
1D1B
  8
COTAS
 62
     0
 10
1.25
 20
0.0
 30
0.0
 11
-24.47804891667185
 21
0.0
 31
0.0
  0
LINE
  5
1D1C
  8
COTAS
 62
     0
 10
-6.250000000009095
 20
63.0
 30
0.0
 11
-24.47804891667185
 21
63.0
 31
0.0
  0
LINE
  5
1D1D
  8
COTAS
 62
     0
 10
-22.67804891667185
 20
1.8
 30
0.0
 11
-22.67804891667185
 21
29.7
 31
0.0
  0
LINE
  5
1D1E
  8
COTAS
 62
     0
 10
-22.67804891667184
 20
61.2
 30
0.0
 11
-22.67804891667184
 21
33.3
 31
0.0
  0
SOLID
  5
1D1F
  8
COTAS
 62
     0
 10
-22.97804891667185
 20
1.8
 30
0.0
 11
-22.37804891667185
 21
1.8
 31
0.0
 12
-22.67804891667185
 22
0.0
 32
0.0
 13
-22.67804891667185
 23
0.0
 33
0.0
  0
SOLID
  5
1D20
  8
COTAS
 62
     0
 10
-22.37804891667184
 20
61.2
 30
0.0
 11
-22.97804891667185
 21
61.2
 31
0.0
 12
-22.67804891667184
 22
63.0
 32
0.0
 13
-22.67804891667184
 23
63.0
 33
0.0
  0
TEXT
  5
1D21
  8
COTAS
  6
CONTINUOUS
 62
     0
 10
-25.22804891667185
 20
30.6
 30
0.0
 40
1.8
  1
63.0
  0
POINT
  5
1D22
  8
DEFPOINTS
 62
     0
 10
7.5
 20
0.0
 30
0.0
  0
POINT
  5
1D23
  8
DEFPOINTS
 62
     0
 10
-0.0000000000090949
 20
63.0
 30
0.0
  0
POINT
  5
1D24
  8
DEFPOINTS
 62
     0
 10
-22.67804891667184
 20
63.0
 30
0.0
  0
ENDBLK
  5
1D1A
  8
0
  0
BLOCK
  8
0
  2
*D3
 70
     1
 10
0.0
 20
0.0
 30
0.0
  3
*D3
  1

  0
LINE
  5
1D2B
  8
COTAS
 62
     0
 10
-6.250000000009095
 20
63.0
 30
0.0
 11
-17.52112858164434
 21
63.0
 31
0.0
  0
LINE
  5
1D2C
  8
COTAS
 62
     0
 10
-6.250000000009094
 20
1.0
 30
0.0
 11
-17.52112858164434
 21
1.000000000000001
 31
0.0
  0
LINE
  5
1D2D
  8
COTAS
 62
     0
 10
-15.72112858164434
 20
61.2
 30
0.0
 11
-15.72112858164434
 21
33.8
 31
0.0
  0
LINE
  5
1D2E
  8
COTAS
 62
     0
 10
-15.72112858164434
 20
2.800000000000001
 30
0.0
 11
-15.72112858164434
 21
30.19999999999999
 31
0.0
  0
SOLID
  5
1D2F
  8
COTAS
 62
     0
 10
-15.42112858164434
 20
61.2
 30
0.0
 11
-16.02112858164434
 21
61.2
 31
0.0
 12
-15.72112858164434
 22
63.0
 32
0.0
 13
-15.72112858164434
 23
63.0
 33
0.0
  0
SOLID
  5
1D30
  8
COTAS
 62
     0
 10
-16.02112858164434
 20
2.800000000000001
 30
0.0
 11
-15.42112858164434
 21
2.800000000000001
 31
0.0
 12
-15.72112858164434
 22
1.000000000000001
 32
0.0
 13
-15.72112858164434
 23
1.000000000000001
 33
0.0
  0
TEXT
  5
1D31
  8
COTAS
  6
CONTINUOUS
 62
     0
 10
-18.27112858164434
 20
31.1
 30
0.0
 40
1.8
  1
62.0
  0
POINT
  5
1D32
  8
DEFPOINTS
 62
     0
 10
-0.0000000000090949
 20
63.0
 30
0.0
  0
POINT
  5
1D33
  8
DEFPOINTS
 62
     0
 10
-0.0000000000090941
 20
1.0
 30
0.0
  0
POINT
  5
1D34
  8
DEFPOINTS
 62
     0
 10
-15.72112858164434
 20
1.000000000000001
 30
0.0
  0
ENDBLK
  5
1D2A
  8
0
  0
BLOCK
  8
0
  2
*D4
 70
     1
 10
0.0
 20
0.0
 30
0.0
  3
*D4
  1

  0
LINE
  5
1D3B
  8
COTAS
 62
     0
 10
8.74999999999886
 20
0.0
 30
0.0
 11
-12.13936002058533
 21
0.0
 31
0.0
  0
LINE
  5
1D3C
  8
COTAS
 62
     0
 10
8.74999999999886
 20
30.0
 30
0.0
 11
-12.13936002058533
 21
30.0
 31
0.0
  0
LINE
  5
1D3D
  8
COTAS
 62
     0
 10
-10.33936002058533
 20
1.8
 30
0.0
 11
-10.33936002058533
 21
13.2
 31
0.0
  0
LINE
  5
1D3E
  8
COTAS
 62
     0
 10
-10.33936002058533
 20
28.2
 30
0.0
 11
-10.33936002058533
 21
16.79999999999999
 31
0.0
  0
SOLID
  5
1D3F
  8
COTAS
 62
     0
 10
-10.63936002058533
 20
1.8
 30
0.0
 11
-10.03936002058533
 21
1.8
 31
0.0
 12
-10.33936002058533
 22
0.0
 32
0.0
 13
-10.33936002058533
 23
0.0
 33
0.0
  0
SOLID
  5
1D40
  8
COTAS
 62
     0
 10
-10.03936002058533
 20
28.2
 30
0.0
 11
-10.63936002058533
 21
28.2
 31
0.0
 12
-10.33936002058533
 22
30.0
 32
0.0
 13
-10.33936002058533
 23
30.0
 33
0.0
  0
TEXT
  5
1D41
  8
COTAS
  6
CONTINUOUS
 62
     0
 10
-12.73936002058533
 20
14.1
 30
0.0
 40
1.8
  1
30.0
  0
POINT
  5
1D42
  8
DEFPOINTS
 62
     0
 10
14.99999999999886
 20
0.0
 30
0.0
  0
POINT
  5
1D43
  8
DEFPOINTS
 62
     0
 10
14.99999999999886
 20
30.0
 30
0.0
  0
POINT
  5
1D44
  8
DEFPOINTS
 62
     0
 10
-10.33936002058533
 20
30.0
 30
0.0
  0
ENDBLK
  5
1D3A
  8
0
  0
BLOCK
  8
0
  2
*D5
 70
     1
 10
0.0
 20
0.0
 30
0.0
  3
*D5
  1

  0
LINE
  5
1D4B
  8
COTAS
 62
     0
 10
14.99999999999886
 20
36.25
 30
0.0
 11
14.99999999999886
 21
41.57890670386386
 31
0.0
  0
LINE
  5
1D4C
  8
COTAS
 62
     0
 10
29.3054999999988
 20
36.25
 30
0.0
 11
29.3054999999988
 21
41.57890670386386
 31
0.0
  0
LINE
  5
1D4D
  8
COTAS
 62
     0
 10
16.79999999999886
 20
39.77890670386387
 30
0.0
 11
18.85274999999884
 21
39.77890670386387
 31
0.0
  0
LINE
  5
1D4E
  8
COTAS
 62
     0
 10
27.5054999999988
 20
39.77890670386387
 30
0.0
 11
25.45274999999883
 21
39.77890670386387
 31
0.0
  0
SOLID
  5
1D4F
  8
COTAS
 62
     0
 10
16.79999999999886
 20
40.07890670386386
 30
0.0
 11
16.79999999999886
 21
39.47890670386387
 31
0.0
 12
14.99999999999886
 22
39.77890670386387
 32
0.0
 13
14.99999999999886
 23
39.77890670386387
 33
0.0
  0
SOLID
  5
1D50
  8
COTAS
 62
     0
 10
27.5054999999988
 20
39.47890670386387
 30
0.0
 11
27.5054999999988
 21
40.07890670386386
 31
0.0
 12
29.3054999999988
 22
39.77890670386387
 32
0.0
 13
29.3054999999988
 23
39.77890670386387
 33
0.0
  0
TEXT
  5
1D51
  8
COTAS
  6
CONTINUOUS
 62
     0
 10
19.75274999999883
 20
38.87890670386387
 30
0.0
 40
1.8
  1
14.3
  0
POINT
  5
1D52
  8
DEFPOINTS
 62
     0
 10
14.99999999999886
 20
30.0
 30
0.0
  0
POINT
  5
1D53
  8
DEFPOINTS
 62
     0
 10
29.3054999999988
 20
30.0
 30
0.0
  0
POINT
  5
1D54
  8
DEFPOINTS
 62
     0
 10
29.3054999999988
 20
39.77890670386387
 30
0.0
  0
ENDBLK
  5
1D4A
  8
0
  0
BLOCK
  8
0
  2
*D6
 70
     1
 10
0.0
 20
0.0
 30
0.0
  3
*D6
  1

  0
LINE
  5
1D5B
  8
COTAS
 62
     0
 10
-0.000000000009095
 20
69.25
 30
0.0
 11
-0.000000000009095
 21
69.14406274831246
 31
0.0
  0
LINE
  5
1D5C
  8
COTAS
 62
     0
 10
10.0
 20
60.25000000002765
 30
0.0
 11
10.0
 21
69.14406274831246
 31
0.0
  0
LINE
  5
1D5D
  8
COTAS
 62
     0
 10
-1.800000000009095
 20
67.34406274831247
 30
0.0
 11
-3.600000000009095
 21
67.34406274831247
 31
0.0
  0
LINE
  5
1D5E
  8
COTAS
 62
     0
 10
11.8
 20
67.34406274831247
 30
0.0
 11
13.6
 21
67.34406274831247
 31
0.0
  0
SOLID
  5
1D5F
  8
COTAS
 62
     0
 10
-1.800000000009095
 20
67.04406274831247
 30
0.0
 11
-1.800000000009095
 21
67.64406274831246
 31
0.0
 12
-0.0000000000090949
 22
67.34406274831247
 32
0.0
 13
-0.0000000000090949
 23
67.34406274831247
 33
0.0
  0
SOLID
  5
1D60
  8
COTAS
 62
     0
 10
11.8
 20
67.64406274831246
 30
0.0
 11
11.8
 21
67.04406274831247
 31
0.0
 12
10.0
 22
67.34406274831247
 32
0.0
 13
10.0
 23
67.34406274831247
 33
0.0
  0
TEXT
  5
1D61
  8
COTAS
  6
CONTINUOUS
 62
     0
 10
2.899999999995452
 20
66.44406274831248
 30
0.0
 40
1.8
  1
10.0
  0
POINT
  5
1D62
  8
DEFPOINTS
 62
     0
 10
-0.0000000000090949
 20
63.0
 30
0.0
  0
POINT
  5
1D63
  8
DEFPOINTS
 62
     0
 10
10.0
 20
54.00000000002765
 30
0.0
  0
POINT
  5
1D64
  8
DEFPOINTS
 62
     0
 10
10.0
 20
67.34406274831247
 30
0.0
  0
ENDBLK
  5
1D5A
  8
0
  0
BLOCK
  8
0
  2
*D7
 70
     1
 10
0.0
 20
0.0
 30
0.0
  3
*D7
  1

  0
LINE
  5
1D69
  8
COTAS
 62
     0
 10
10.0
 20
60.25000000002765
 30
0.0
 11
10.0
 21
69.14406274831246
 31
0.0
  0
LINE
  5
1D6A
  8
COTAS
 62
     0
 10
34.3054999999988
 20
60.2500000000947
 30
0.0
 11
34.3054999999988
 21
69.14406274831246
 31
0.0
  0
LINE
  5
1D6B
  8
COTAS
 62
     0
 10
11.8
 20
67.34406274831247
 30
0.0
 11
18.5527499999994
 21
67.34406274831247
 31
0.0
  0
LINE
  5
1D6C
  8
COTAS
 62
     0
 10
32.5054999999988
 20
67.34406274831247
 30
0.0
 11
25.7527499999994
 21
67.34406274831247
 31
0.0
  0
SOLID
  5
1D6D
  8
COTAS
 62
     0
 10
11.8
 20
67.64406274831246
 30
0.0
 11
11.8
 21
67.04406274831247
 31
0.0
 12
10.0
 22
67.34406274831247
 32
0.0
 13
10.0
 23
67.34406274831247
 33
0.0
  0
SOLID
  5
1D6E
  8
COTAS
 62
     0
 10
32.5054999999988
 20
67.04406274831247
 30
0.0
 11
32.5054999999988
 21
67.64406274831246
 31
0.0
 12
34.3054999999988
 22
67.34406274831247
 32
0.0
 13
34.3054999999988
 23
67.34406274831247
 33
0.0
  0
TEXT
  5
1D6F
  8
COTAS
  6
CONTINUOUS
 62
     0
 10
19.4527499999994
 20
66.44406274831248
 30
0.0
 40
1.8
  1
24.3
  0
POINT
  5
1D70
  8
DEFPOINTS
 62
     0
 10
10.0
 20
54.00000000002765
 30
0.0
  0
POINT
  5
1D71
  8
DEFPOINTS
 62
     0
 10
34.3054999999988
 20
54.0000000000947
 30
0.0
  0
POINT
  5
1D72
  8
DEFPOINTS
 62
     0
 10
34.3054999999988
 20
67.34406274831247
 30
0.0
  0
ENDBLK
  5
1D68
  8
0
  0
BLOCK
  8
0
  2
*D8
 70
     1
 10
0.0
 20
0.0
 30
0.0
  3
*D8
  1

  0
ARC
  5
1D83
  8
COTAS
 62
     0
 10
22.15274999999883
 20
15.0
 30
0.0
 40
9.078676892087547
 50
11.37853861668759
 51
33.62151527199749
  0
SOLID
  5
1D84
  8
COTAS
 62
     0
 10
30.75446454735275
 20
16.76139346022012
 30
0.0
 11
31.3515090395719
 21
16.8208734930948
 31
0.0
 12
31.23142689208638
 22
15.0
 32
0.0
 13
31.23142689208638
 23
15.0
 33
0.0
  0
SOLID
  5
1D85
  8
COTAS
 62
     0
 10
29.94480198330201
 20
20.21696022943279
 30
0.0
 11
29.48056939710499
 21
19.83684431827828
 31
0.0
 12
28.57233795673997
 22
21.41960003244661
 32
0.0
 13
28.57233795673997
 23
21.41960003244661
 33
0.0
  0
TEXT
  5
1D86
  8
COTAS
  6
CONTINUOUS
 62
     0
 10
31.76631779822097
 20
18.9519250994227
 30
0.0
 40
1.8
  1
45°
  0
POINT
  5
1D87
  8
DEFPOINTS
 62
     0
 10
30.92207774193037
 20
17.34973723329104
 30
0.0
  0
POINT
  5
1D88
  8
DEFPOINTS
 62
     0
 10
7.152778216021817
 20
0.0000000000000009
 30
0.0
  0
POINT
  5
1D89
  8
DEFPOINTS
 62
     0
 10
-0.5135379129116622
 20
15.0
 30
0.0
  0
POINT
  5
1D8A
  8
DEFPOINTS
 62
     0
 10
44.81903791290932
 20
15.0
 30
0.0
  0
POINT
  5
1D8B
  8
DEFPOINTS
 62
     0
 10
37.15272178397585
 20
30.0
 30
0.0
  0
ENDBLK
  5
1D82
  8
0
  0
BLOCK
  8
0
  2
*D9
 70
     1
 10
0.0
 20
0.0
 30
0.0
  3
*D9
  1

  0
ARC
  5
1D92
  8
COTAS
 62
     0
 10
22.15274999999883
 20
15.0
 30
0.0
 40
9.07867689208756
 50
326.3784847280028
 51
348.6214613833124
  0
SOLID
  5
1D93
  8
COTAS
 62
     0
 10
29.48056939710501
 20
10.16315568172173
 30
0.0
 11
29.94480198330204
 21
9.783039770567227
 31
0.0
 12
28.57233795674
 22
8.580399967553408
 32
0.0
 13
28.57233795674
 23
8.580399967553408
 33
0.0
  0
SOLID
  5
1D94
  8
COTAS
 62
     0
 10
31.35150903957191
 20
13.1791265069052
 30
0.0
 11
30.75446454735275
 21
13.23860653977988
 31
0.0
 12
31.23142689208638
 22
15.0
 32
0.0
 13
31.23142689208638
 23
15.0
 33
0.0
  0
TEXT
  5
1D95
  8
COTAS
  6
CONTINUOUS
 62
     0
 10
31.76631779822099
 20
9.248074900577322
 30
0.0
 40
1.8
  1
45°
  0
POINT
  5
1D96
  8
DEFPOINTS
 62
     0
 10
30.0151119750248
 20
10.46065662407102
 30
0.0
  0
POINT
  5
1D97
  8
DEFPOINTS
 62
     0
 10
7.152778216021753
 20
29.99999999999993
 30
0.0
  0
POINT
  5
1D98
  8
DEFPOINTS
 62
     0
 10
-0.5135379129116622
 20
15.0
 30
0.0
  0
POINT
  5
1D99
  8
DEFPOINTS
 62
     0
 10
44.81903791290932
 20
15.0
 30
0.0
  0
POINT
  5
1D9A
  8
DEFPOINTS
 62
     0
 10
37.15272178397591
 20
0.0000000000000568
 30
0.0
  0
ENDBLK
  5
1D91
  8
0
  0
BLOCK
  8
0
  2
*D10
 70
     1
 10
0.0
 20
0.0
 30
0.0
  3
*D10
  1

  0
LINE
  5
1DA3
  8
COTAS
 62
     0
 10
22.15274999999946
 20
21.25
 30
0.0
 11
22.15274999999946
 21
37.86679902321146
 31
0.0
  0
LINE
  5
1DA4
  8
COTAS
 62
     0
 10
6.152771281856985
 20
21.25
 30
0.0
 11
6.152771281856985
 21
37.86679902321146
 31
0.0
  0
LINE
  5
1DA5
  8
COTAS
 62
     0
 10
20.35274999999946
 20
36.06679902321146
 30
0.0
 11
17.30276064092822
 21
36.06679902321146
 31
0.0
  0
LINE
  5
1DA6
  8
COTAS
 62
     0
 10
7.952771281856985
 20
36.06679902321146
 30
0.0
 11
11.00276064092822
 21
36.06679902321146
 31
0.0
  0
SOLID
  5
1DA7
  8
COTAS
 62
     0
 10
20.35274999999946
 20
35.76679902321146
 30
0.0
 11
20.35274999999946
 21
36.36679902321146
 31
0.0
 12
22.15274999999946
 22
36.06679902321146
 32
0.0
 13
22.15274999999946
 23
36.06679902321146
 33
0.0
  0
SOLID
  5
1DA8
  8
COTAS
 62
     0
 10
7.952771281856985
 20
36.36679902321146
 30
0.0
 11
7.952771281856985
 21
35.76679902321146
 31
0.0
 12
6.152771281856985
 22
36.06679902321146
 32
0.0
 13
6.152771281856985
 23
36.06679902321146
 33
0.0
  0
TEXT
  5
1DA9
  8
COTAS
  6
CONTINUOUS
 62
     0
 10
11.90276064092822
 20
35.16679902321146
 30
0.0
 40
1.8
  1
16.0
  0
POINT
  5
1DAA
  8
DEFPOINTS
 62
     0
 10
22.15274999999946
 20
15.0
 30
0.0
  0
POINT
  5
1DAB
  8
DEFPOINTS
 62
     0
 10
6.152771281856985
 20
15.0
 30
0.0
  0
POINT
  5
1DAC
  8
DEFPOINTS
 62
     0
 10
6.152771281856985
 20
36.06679902321146
 30
0.0
  0
ENDBLK
  5
1DA2
  8
0
  0
BLOCK
  8
0
  2
*D11
 70
     1
 10
0.0
 20
0.0
 30
0.0
  3
*D11
  1

  0
LINE
  5
1DB5
  8
COTAS
 62
     0
 10
30.38832728493603
 20
26.56785489119856
 30
0.0
 11
22.15274999999883
 21
15.0
 31
0.0
  0
TEXT
  5
1DB6
  8
COTAS
  6
CONTINUOUS
 62
     0
 10
29.9585764113789
 20
29.48877066599852
 30
0.0
 40
1.8
  1
R16.0
  0
SOLID
  5
1DB7
  8
COTAS
 62
     0
 10
30.63271858545431
 20
26.39386382179848
 30
0.0
 11
30.14393598441775
 21
26.74184596059864
 31
0.0
 12
31.43227370133652
 22
28.03420269430824
 32
0.0
 13
31.43227370133652
 23
28.03420269430824
 33
0.0
  0
POINT
  5
1DB8
  8
DEFPOINTS
 62
     0
 10
31.43227370133652
 20
28.03420269430824
 30
0.0
  0
POINT
  5
1DB9
  8
DEFPOINTS
 62
     0
 10
22.15274999999883
 20
15.0
 30
0.0
  0
ENDBLK
  5
1DB4
  8
0
  0
BLOCK
  8
0
  2
*D12
 70
     1
 10
0.0
 20
0.0
 30
0.0
  3
*D12
  1

  0
LINE
  5
1DC5
  8
COTAS
 62
     0
 10
10.99686331636404
 20
26.89258585355102
 30
0.0
 11
10.20786064890337
 21
23.99819908071987
 31
0.0
  0
TEXT
  5
1DC6
  8
COTAS
  6
CONTINUOUS
 62
     0
 10
10.53009539257259
 20
30.02537237033046
 30
0.0
 40
1.8
  1
ø4.8
  0
SOLID
  5
1DC7
  8
COTAS
 62
     0
 10
10.39182357209666
 20
25.81373141116464
 30
0.0
 11
10.97070092666289
 21
25.6559308776725
 31
0.0
 12
10.20786064890337
 22
23.99819908071987
 32
0.0
 13
10.20786064890337
 23
23.99819908071987
 33
0.0
  0
SOLID
  5
1DC8
  8
COTAS
 62
     0
 10
11.28630199364716
 20
26.81368558680495
 30
0.0
 11
10.70742463908093
 21
26.97148612029708
 31
0.0
 12
11.47026491684045
 22
28.62921791724971
 32
0.0
 13
11.47026491684045
 23
28.62921791724971
 33
0.0
  0
POINT
  5
1DC9
  8
DEFPOINTS
 62
     0
 10
11.47026491684045
 20
28.62921791724971
 30
0.0
  0
POINT
  5
1DCA
  8
DEFPOINTS
 62
     0
 10
10.20786064890337
 20
23.99819908071987
 30
0.0
  0
ENDBLK
  5
1DC4
  8
0
  0
BLOCK
  8
0
  2
*D13
 70
     1
 10
0.0
 20
0.0
 30
0.0
  3
*D13
  1

  0
LINE
  5
1DD1
  8
COTAS
 62
     0
 10
8.74999999999886
 20
30.0
 30
0.0
 11
-4.814969902955825
 21
30.0
 31
0.0
  0
LINE
  5
1DD2
  8
COTAS
 62
     0
 10
8.74999999999886
 20
15.0
 30
0.0
 11
-4.814969902955827
 21
15.0
 31
0.0
  0
LINE
  5
1DD3
  8
COTAS
 62
     0
 10
-3.014969902955826
 20
28.2
 30
0.0
 11
-3.014969902955826
 21
24.3
 31
0.0
  0
LINE
  5
1DD4
  8
COTAS
 62
     0
 10
-3.014969902955827
 20
16.8
 30
0.0
 11
-3.014969902955826
 21
20.7
 31
0.0
  0
SOLID
  5
1DD5
  8
COTAS
 62
     0
 10
-2.714969902955826
 20
28.2
 30
0.0
 11
-3.314969902955826
 21
28.2
 31
0.0
 12
-3.014969902955826
 22
30.0
 32
0.0
 13
-3.014969902955826
 23
30.0
 33
0.0
  0
SOLID
  5
1DD6
  8
COTAS
 62
     0
 10
-3.314969902955827
 20
16.8
 30
0.0
 11
-2.714969902955827
 21
16.8
 31
0.0
 12
-3.014969902955827
 22
15.0
 32
0.0
 13
-3.014969902955827
 23
15.0
 33
0.0
  0
TEXT
  5
1DD7
  8
COTAS
  6
CONTINUOUS
 62
     0
 10
-5.264969902955826
 20
21.6
 30
0.0
 40
1.8
  1
15.0
  0
POINT
  5
1DD8
  8
DEFPOINTS
 62
     0
 10
14.99999999999886
 20
30.0
 30
0.0
  0
POINT
  5
1DD9
  8
DEFPOINTS
 62
     0
 10
14.99999999999886
 20
15.0
 30
0.0
  0
POINT
  5
1DDA
  8
DEFPOINTS
 62
     0
 10
-3.014969902955827
 20
15.0
 30
0.0
  0
ENDBLK
  5
1DD0
  8
0
  0
BLOCK
  8
0
  2
*D14
 70
     1
 10
0.0
 20
0.0
 30
0.0
  3
*D14
  1

  0
LINE
  5
1DE1
  8
COTAS
 62
     0
 10
-6.25
 20
-37.71650704209289
 30
0.0
 11
-16.14508993856184
 21
-37.71650704209289
 31
0.0
  0
LINE
  5
1DE2
  8
COTAS
 62
     0
 10
-6.25
 20
-52.71650704209289
 30
0.0
 11
-16.14508993856184
 21
-52.71650704209289
 31
0.0
  0
LINE
  5
1DE3
  8
COTAS
 62
     0
 10
-14.34508993856184
 20
-39.51650704209289
 30
0.0
 11
-14.34508993856184
 21
-43.4165070420929
 31
0.0
  0
LINE
  5
1DE4
  8
COTAS
 62
     0
 10
-14.34508993856184
 20
-50.9165070420929
 30
0.0
 11
-14.34508993856184
 21
-47.01650704209289
 31
0.0
  0
SOLID
  5
1DE5
  8
COTAS
 62
     0
 10
-14.04508993856184
 20
-39.51650704209289
 30
0.0
 11
-14.64508993856184
 21
-39.51650704209289
 31
0.0
 12
-14.34508993856184
 22
-37.71650704209289
 32
0.0
 13
-14.34508993856184
 23
-37.71650704209289
 33
0.0
  0
SOLID
  5
1DE6
  8
COTAS
 62
     0
 10
-14.64508993856184
 20
-50.9165070420929
 30
0.0
 11
-14.04508993856184
 21
-50.9165070420929
 31
0.0
 12
-14.34508993856184
 22
-52.71650704209289
 32
0.0
 13
-14.34508993856184
 23
-52.71650704209289
 33
0.0
  0
TEXT
  5
1DE7
  8
COTAS
  6
CONTINUOUS
 62
     0
 10
-16.59508993856184
 20
-46.11650704209289
 30
0.0
 40
1.8
  1
15.0
  0
POINT
  5
1DE8
  8
DEFPOINTS
 62
     0
 10
0.0
 20
-37.71650704209289
 30
0.0
  0
POINT
  5
1DE9
  8
DEFPOINTS
 62
     0
 10
0.0
 20
-52.71650704209289
 30
0.0
  0
POINT
  5
1DEA
  8
DEFPOINTS
 62
     0
 10
-14.34508993856184
 20
-52.71650704209289
 30
0.0
  0
ENDBLK
  5
1DE0
  8
0
  0
ENDSEC
  0
SECTION
  2
ENTITIES
  0
LINE
  5
65
  8
-11
  6
AVEVASOLID
 62
   253
 10
183.0716521028405
 20
171.6640592998592
 30
0.0
 11
330.0716521028405
 21
171.6640592998592
 31
0.0
  0
LINE
  5
131
  8
-300
  6
AVEVASOLIDXWIDE
 62
    92
 10
-62.73523266278448
 20
-111.2442353778752
 30
0.0
 11
-62.73523266278448
 21
171.7557646221248
 31
0.0
  0
LINE
  5
132
  8
-300
  6
AVEVASOLIDXWIDE
 62
    92
 10
-62.73523266278448
 20
171.7557646221248
 30
0.0
 11
330.0716521028405
 21
171.6640592998592
 31
0.0
  0
LINE
  5
133
  8
-300
  6
AVEVASOLIDXWIDE
 62
    92
 10
330.0716521028405
 20
171.6640592998592
 30
0.0
 11
330.0716521028405
 21
-111.335935454932
 31
0.0
  0
LINE
  5
134
  8
-300
  6
AVEVASOLIDXWIDE
 62
    92
 10
-62.73523266278448
 20
-111.2442353778752
 30
0.0
 11
330.0716521028405
 21
-111.335935454932
 31
0.0
  0
LINE
  5
13A
  8
-300
  6
AVEVASOLID
 62
    92
 10
-82.92833266817274
 20
178.6640592998592
 30
0.0
 11
-82.92833266817274
 21
-118.3359353804262
 31
0.0
  0
LINE
  5
13B
  8
-300
  6
AVEVASOLID
 62
    92
 10
-82.92833266817274
 20
-118.3359353804262
 30
0.0
 11
337.0716521028405
 21
-118.3359353804262
 31
0.0
  0
LINE
  5
13D
  8
-300
  6
AVEVASOLIDXWIDE
 62
    92
 10
337.0716521028405
 20
-118.3359353804262
 30
0.0
 11
337.0716521028405
 21
-108.3359349780949
 31
0.0
  0
LINE
  5
13E
  8
-300
  6
AVEVASOLIDXWIDE
 62
    92
 10
327.0716521028405
 20
-118.3359353804262
 30
0.0
 11
337.0716521028405
 21
-118.3359353804262
 31
0.0
  0
LINE
  5
13F
  8
-300
  6
AVEVASOLID
 62
    92
 10
337.0716521028405
 20
178.6640592998592
 30
0.0
 11
337.0716521028405
 21
-118.3359353804262
 31
0.0
  0
LINE
  5
142
  8
-300
  6
AVEVASOLID
 62
    92
 10
-82.92833266817274
 20
178.6640592998592
 30
0.0
 11
337.0716521028405
 21
178.6640592998592
 31
0.0
  0
LINE
  5
151
  8
-300
  6
AVEVASOLIDXWIDE
 62
    92
 10
337.0716521028405
 20
-118.3359353804262
 30
0.0
 11
337.0716521028405
 21
-108.3359349780949
 31
0.0
  0
LINE
  5
152
  8
-300
  6
AVEVASOLIDXWIDE
 62
    92
 10
327.0716521028405
 20
-118.3359353804262
 30
0.0
 11
337.0716521028405
 21
-118.3359353804262
 31
0.0
  0
LINE
  5
153
  8
-300
  6
AVEVASOLID
 62
    92
 10
337.0716521028405
 20
178.6640592998592
 30
0.0
 11
337.0716521028405
 21
-118.3359353804262
 31
0.0
  0
LINE
  5
156
  8
-300
  6
AVEVASOLID
 62
    92
 10
-82.92833266817274
 20
178.6640592998592
 30
0.0
 11
337.0716521028405
 21
178.6640592998592
 31
0.0
  0
LINE
  5
159
  8
-300
  6
AVEVASOLID
 62
    92
 10
-82.92833266817274
 20
178.6640592998592
 30
0.0
 11
-82.92833266817274
 21
-118.3359353804262
 31
0.0
  0
LINE
  5
15A
  8
-300
  6
AVEVASOLID
 62
    92
 10
-82.92833266817274
 20
-118.3359353804262
 30
0.0
 11
337.0716521028405
 21
-118.3359353804262
 31
0.0
  0
LINE
  5
1732
  8
-300
  6
AVEVASOLIDXWIDE
 62
    92
 10
197.1874120930276
 20
-89.33593497809488
 30
0.0
 11
293.7873876789652
 21
-89.33593497809488
 31
0.0
  0
LINE
  5
1733
  8
-300
  6
AVEVASOLIDXWIDE
 62
    92
 10
197.1874120930276
 20
-89.33593497809488
 30
0.0
 11
330.0716521028405
 21
-89.33593497809488
 31
0.0
  0
TEXT
  5
1766
  8
-300
  6
CONTINUOUS
 62
     7
 10
309.320647663588
 20
-117.3915822617073
 30
0.0
 40
3.125
  1
Padrao-A3
  0
LINE
  5
1918
  8
0
 10
7.500000000000114
 20
1.0
 30
-0.0000000000000057
 11
0.0
 21
1.0
 31
0.0
  0
LINE
  5
1945
  8
0
 10
0.0
 20
-52.71650704209289
 30
-0.0000000001085606
 11
44.30549999999998
 21
-52.71650704209289
 31
-0.0000000001085606
  0
LINE
  5
1947
  8
0
 10
0.0
 20
-37.71650704209289
 30
-0.0000000001085606
 11
44.30549999999998
 21
-37.71650704209289
 31
-0.0000000001085606
  0
LINE
  5
1955
  8
0
  6
AVEVASHORTDASHED
 10
40.55272871814248
 20
-52.71650704209289
 30
-0.0000000000000311
 11
40.55272871814248
 21
-37.71650704209289
 31
-0.0000000000000311
  0
LINE
  5
1957
  8
0
 10
44.30549999999998
 20
-37.71650704209289
 30
0.0000000000000169
 11
44.30549999999998
 21
-52.71650704209289
 31
0.0000000000000169
  0
LINE
  5
1958
  8
0
  6
AVEVASHORTDASHED
 10
35.86643721712723
 20
-37.71650704209289
 30
0.0000000000000843
 11
35.86643721712723
 21
-52.71650704209289
 31
0.0000000000000843
  0
LINE
  5
1959
  8
0
  6
AVEVASHORTDASHED
 10
31.06643721712724
 20
-37.71650704209289
 30
-0.0000000000000394
 11
31.06643721712724
 21
-52.71650704209289
 31
-0.0000000000000394
  0
LINE
  5
195A
  8
0
  6
AVEVASHORTDASHED
 10
13.23906278287269
 20
-37.71650704209289
 30
-0.0000000000000085
 11
13.23906278287269
 21
-52.71650704209289
 31
-0.0000000000000085
  0
LINE
  5
195B
  8
0
  6
AVEVASHORTDASHED
 10
8.552771281857545
 20
-37.71650704209289
 30
0.0000000000000789
 11
8.552771281857545
 21
-52.71650704209289
 31
0.0000000000000789
  0
LINE
  5
195C
  8
0
  6
AVEVASHORTDASHED
 10
3.752771281857562
 20
-37.71650704209289
 30
0.0000000000000789
 11
3.752771281857562
 21
-52.71650704209289
 31
0.0000000000000789
  0
LINE
  5
195D
  8
0
 10
0.0
 20
-37.71650704209289
 30
0.0
 11
0.0
 21
-52.71650704209288
 31
0.0
  0
LINE
  5
195E
  8
0
 10
7.500000000000114
 20
-37.71650704209287
 30
-0.0000000000000057
 11
7.500000000000114
 21
-52.71650704209289
 31
-0.0000000000000057
  0
LINE
  5
195F
  8
0
 10
14.99999999999989
 20
-37.71650704209288
 30
-0.0000000000000085
 11
14.99999999999989
 21
-52.71650704209289
 31
-0.0000000000000085
  0
LINE
  5
1960
  8
0
 10
29.30549999999982
 20
-37.71650704209289
 30
-0.000000000000017
 11
29.30549999999982
 21
-52.71650704209289
 31
-0.000000000000017
  0
LINE
  5
1961
  8
0
 10
36.80549999999994
 20
-37.71650704209289
 30
0.0000000000000676
 11
36.80549999999994
 21
-52.71650704209289
 31
0.0000000000000676
  0
LINE
  5
1B6F
  8
0
 10
14.99999999999886
 20
30.0
 30
-0.0000000000010659
 11
29.3054999999988
 21
30.0
 31
-0.0000000000010744
  0
LINE
  5
1B70
  8
0
 10
14.99999999999886
 20
0.0
 30
0.0000000000000282
 11
14.99999999999886
 21
30.0
 31
-0.0000000000010659
  0
LINE
  5
1B71
  8
0
 10
14.99999999999886
 20
0.0
 30
0.0000000000000282
 11
7.5
 21
0.0
 31
0.0000000000000311
  0
LINE
  5
1B72
  8
0
 10
7.5
 20
0.0
 30
0.0000000000000311
 11
7.5
 21
1.0
 31
-0.0000000000000056
  0
LINE
  5
1B74
  8
0
 10
0.0
 20
1.0
 30
0.0
 11
-0.0000000000090949
 21
63.0
 31
-0.0000000000055976
  0
CIRCLE
  5
1B75
  8
0
 10
-33.4664372171269
 20
26.31370849898471
 30
-0.0000000000000565
 40
2.399999999999991
210
-1.174986034393854E-15
220
-3.644307078332077E-14
230
-1.0
  0
LINE
  5
1B76
  8
0
 10
29.3054999999988
 20
0.0
 30
0.0000000000000198
 11
29.3054999999988
 21
30.0
 31
-0.0000000000010744
  0
LINE
  5
1B77
  8
0
 10
36.80549999999994
 20
1.0
 30
0.0000000000000677
 11
44.3054999999988
 21
1.0
 31
0.000000000000017
  0
LINE
  5
1B78
  8
0
 10
29.3054999999988
 20
0.0
 30
0.0000000000000198
 11
36.80549999999994
 21
0.0
 31
0.0000000000001044
  0
LINE
  5
1B79
  8
0
 10
36.80549999999994
 20
0.0
 30
0.0000000000001044
 11
36.80549999999994
 21
1.0
 31
0.0000000000000677
  0
LINE
  5
1B7A
  8
0
 10
44.30549999999084
 20
63.0000000001223
 30
-0.0000000000056258
 11
-0.0000000000090949
 21
63.0
 31
-0.0000000000055976
  0
LINE
  5
1B7B
  8
0
 10
44.3054999999988
 20
1.0
 30
0.000000000000017
 11
44.30549999999084
 21
63.0000000001223
 31
-0.0000000000056258
  0
CIRCLE
  5
1B7C
  8
0
 10
-33.4664372171269
 20
3.686291501015205
 30
0.0000000000010029
 40
2.399999999999991
210
3.088506833714669E-14
220
-2.821742249258694E-14
230
-1.0
  0
CIRCLE
  5
1B7D
  8
0
 10
-38.15272871814182
 20
15.00000000000003
 30
-0.0000000000000347
 40
2.399999999999992
210
-5.911749768455737E-16
220
-3.633464675407820E-14
230
-1.0
  0
CIRCLE
  5
1B7E
  8
0
 10
10.83906278287191
 20
26.31370849898479
 30
-0.0000000000009277
 40
2.399999999999992
  0
CIRCLE
  5
1B7F
  8
0
 10
10.83906278287191
 20
3.686291501015177
 30
-0.0000000000001042
 40
2.399999999999991
  0
CIRCLE
  5
1B80
  8
0
 10
6.152771281856985
 20
15.0
 30
-0.000000000000423
 40
2.399999999999991
  0
LINE
  5
1C4C
  8
-300
  6
AVEVASOLIDXWIDE
 62
    92
 10
197.1874120930276
 20
-89.33593497809488
 30
0.0
 11
293.7873876789652
 21
-89.33593497809488
 31
0.0
  0
LINE
  5
1C4D
  8
-300
  6
AVEVASOLIDXWIDE
 62
    92
 10
197.1874120930276
 20
-89.33593497809488
 30
0.0
 11
330.0716521028405
 21
-89.33593497809488
 31
0.0
  0
TEXT
  5
1C4E
  8
-300
  6
CONTINUOUS
 62
    92
 10
230.4017851501996
 20
-109.8054927281508
 30
0.0
 40
3.125
  1
Verif:
  0
TEXT
  5
1C4F
  8
-300
  6
CONTINUOUS
 62
    92
 10
198.1358942593087
 20
-109.7523143115541
 30
0.0
 40
3.125
  1
Exec:
  0
TEXT
  5
1C50
  8
-300
  6
CONTINUOUS
 62
    92
 10
197.8023195419805
 20
-98.73903594550212
 30
0.0
 40
3.125
  1
Material:
  0
TEXT
  5
1C51
  8
-300
  6
CONTINUOUS
 62
    92
 10
292.8475262961977
 20
-96.0839131885441
 30
0.0
 40
3.125
  1
Rev:
  0
TEXT
  5
1C52
  8
-300
  6
CONTINUOUS
 62
    92
 10
292.853782552454
 20
-106.0839131885441
 30
0.0
 40
3.125
  1
Data:
  0
TEXT
  5
1C53
  8
-300
  6
CONTINUOUS
 62
    92
 10
262.4205539189684
 20
-109.7833347118037
 30
0.0
 40
3.125
  1
Aprov:
  0
TEXT
  5
1C54
  8
-300
  6
CONTINUOUS
 62
     7
 10
216.0443590656704
 20
-109.7182128253481
 30
0.0
 40
3.125
  1
DR
  0
TEXT
  5
1C55
  8
-300
  6
CONTINUOUS
 62
     7
 10
248.0443590656704
 20
-109.7182149711152
 30
0.0
 40
3.125
  1
DR
  0
TEXT
  5
1C56
  8
-300
  6
CONTINUOUS
 62
     7
 10
280.0443590656704
 20
-109.7492351329464
 30
0.0
 40
3.125
  1
DR
  0
TEXT
  5
1C57
  8
-300
  6
CONTINUOUS
 62
     7
 10
310.9477745800078
 20
-96.2136761368791
 30
0.0
 40
3.130000114440918
  1
0
  0
TEXT
  5
1C58
  8
-300
  6
CONTINUOUS
 62
     7
 10
307.4015761054002
 20
-106.2543236894151
 30
0.0
 40
3.125
  1
03/05/15
  0
LINE
  5
1C59
  8
-300
  6
AVEVASOLID
 62
    92
 10
290.5249622160042
 20
-100.3359349780949
 30
0.0
 11
322.1140430265511
 21
-100.3359349780949
 31
0.0
  0
LINE
  5
1C5A
  8
-300
  6
AVEVASOLID
 62
    92
 10
197.1874120930276
 20
-89.33593497809488
 30
0.0
 11
197.1874120930276
 21
-111.335935454932
 31
0.0
  0
LINE
  5
1C5B
  8
-300
  6
AVEVASOLID
 62
    92
 10
290.5249622160042
 20
-111.335935454932
 30
0.0
 11
290.5249622160042
 21
-89.33593497809488
 31
0.0
  0
LINE
  5
1C5C
  8
-300
  6
AVEVASOLID
 62
    92
 10
290.5249622160042
 20
-100.3359349780949
 30
0.0
 11
330.0716521028405
 21
-100.3359349780949
 31
0.0
  0
LINE
  5
1C5D
  8
-300
  6
AVEVASOLID
 62
    92
 10
197.1874120930276
 20
-94.83593497809488
 30
0.0
 11
290.5249622160042
 21
-94.83593497809488
 31
0.0
  0
LINE
  5
1C5E
  8
-300
  6
AVEVASOLID
 62
    92
 10
197.1874120930276
 20
-94.83593497809488
 30
0.0
 11
290.5249622160042
 21
-94.83593497809488
 31
0.0
  0
LINE
  5
1C5F
  8
-300
  6
AVEVASOLID
 62
    92
 10
197.1874120930276
 20
-100.3359349780949
 30
0.0
 11
290.5249622160042
 21
-100.3359349780949
 31
0.0
  0
LINE
  5
1C60
  8
-300
  6
AVEVASOLID
 62
    92
 10
197.1874120930276
 20
-100.3359349780949
 30
0.0
 11
290.5249622160042
 21
-100.3359349780949
 31
0.0
  0
LINE
  5
1C61
  8
-300
  6
AVEVASOLID
 62
    92
 10
197.1874120930276
 20
-105.8359349780949
 30
0.0
 11
290.5249622160042
 21
-105.8359349780949
 31
0.0
  0
LINE
  5
1C62
  8
-300
  6
AVEVASOLID
 62
    92
 10
197.1874120930276
 20
-105.8359349780949
 30
0.0
 11
290.5249622160042
 21
-105.8359349780949
 31
0.0
  0
TEXT
  5
1C63
  8
-300
  6
CONTINUOUS
 62
     7
 10
222.1746753582354
 20
-98.80241271681994
 30
0.0
 40
3.125
  1
MDF ou Alumínio 6061
  0
TEXT
  5
1C64
  8
-300
  6
CONTINUOUS
 62
     7
 10
212.1746753582354
 20
-93.30241271681994
 30
0.0
 40
3.125
  1
Fabricar-Y-trava-castanha
  0
TEXT
  5
1C65
  8
-300
  6
CONTINUOUS
 62
    92
 10
197.8023195419805
 20
-93.23903594550212
 30
0.0
 40
3.125
  1
Nome:
  0
LINE
  5
1C66
  8
-300
  6
AVEVASOLIDXWIDE
 62
    92
 10
197.1874120930276
 20
-89.33593497809488
 30
0.0
 11
330.0716521028405
 21
-89.33593497809488
 31
0.0
  0
TEXT
  5
1C67
  8
-300
  6
CONTINUOUS
 62
    92
 10
197.8023195419805
 20
-104.2390359455021
 30
0.0
 40
3.125
  1
Qtd:
  0
LINE
  5
1C68
  8
-300
  6
AVEVASOLIDXWIDE
 62
    92
 10
197.1874120930276
 20
-89.33593497809488
 30
0.0
 11
290.5249622160042
 21
-89.33593497809488
 31
0.0
  0
LINE
  5
1C69
  8
-300
  6
AVEVASOLID
 62
    92
 10
290.5249622160042
 20
-111.335935454932
 30
0.0
 11
290.5249622160042
 21
-89.33593497809488
 31
0.0
  0
LINE
  5
1C6A
  8
-300
  6
AVEVASOLID
 62
    92
 10
197.1874120930276
 20
-89.33593497809488
 30
0.0
 11
197.1874120930276
 21
-111.335935454932
 31
0.0
  0
LINE
  5
1C6B
  8
-300
  6
AVEVASOLIDXWIDE
 62
    92
 10
197.1874120930276
 20
-89.33593497809488
 30
0.0
 11
290.5249622160042
 21
-89.33593497809488
 31
0.0
  0
TEXT
  5
1C6C
  8
-300
  6
CONTINUOUS
 62
     7
 10
210.1687941204283
 20
-104.3024127168199
 30
0.0
 40
3.125
  1
1
  0
DIMENSION
  5
1D05
  8
COTAS
  2
*D1
 10
44.30549999999084
 20
76.20429147688523
 30
0.0
 11
22.15274999999087
 21
76.20429147688523
 31
0.0
 70
    32
  3
ISO-25
 13
-0.0000000000090949
 23
63.0
 33
-0.0000000000055976
 14
44.30549999999084
 24
63.0000000001223
 34
-0.0000000000056258
1001
ACAD
1000
DSTYLE
1002
{
1070
   287
1070
     5
1070
   171
1070
     2
1070
   143
1040
25.4
1070
    41
1040
0.18
1070
   141
1040
0.09
1070
   271
1070
     1
1070
    46
1040
0.38
1070
    43
1040
0.38
1070
    44
1040
0.18
1070
   147
1040
0.09
1070
    40
1040
10.0
1070
    77
1070
     0
1070
   279
1070
     2
1070
   140
1040
0.18
1002
}
  0
DIMENSION
  5
1D15
  8
COTAS
  2
*D2
 10
-22.67804891667184
 20
63.0
 30
0.0
 11
-22.67804891667185
 21
31.5
 31
0.0
 70
    32
  3
ISO-25
 13
7.5
 23
0.0
 33
0.0000000000000311
 14
-0.0000000000090949
 24
63.0
 34
-0.0000000000055976
 50
90.0
1001
ACAD
1000
DSTYLE
1002
{
1070
   287
1070
     5
1070
   171
1070
     2
1070
   143
1040
25.4
1070
    41
1040
0.18
1070
   141
1040
0.09
1070
   271
1070
     1
1070
    46
1040
0.38
1070
    43
1040
0.38
1070
    44
1040
0.18
1070
   147
1040
0.09
1070
    40
1040
10.0
1070
    77
1070
     0
1070
   279
1070
     2
1070
   140
1040
0.18
1002
}
  0
DIMENSION
  5
1D25
  8
COTAS
  2
*D3
 10
-15.72112858164434
 20
1.000000000000001
 30
0.0
 11
-15.72112858164434
 21
32.0
 31
0.0
 70
    32
  3
ISO-25
 13
-0.0000000000090949
 23
63.0
 33
-0.0000000000055976
 14
-0.0000000000090941
 24
1.0
 34
0.0
 50
90.0
1001
ACAD
1000
DSTYLE
1002
{
1070
   287
1070
     5
1070
   171
1070
     2
1070
   143
1040
25.4
1070
    41
1040
0.18
1070
   141
1040
0.09
1070
   271
1070
     1
1070
    46
1040
0.38
1070
    43
1040
0.38
1070
    44
1040
0.18
1070
   147
1040
0.09
1070
    40
1040
10.0
1070
    77
1070
     0
1070
   279
1070
     2
1070
   140
1040
0.18
1002
}
  0
DIMENSION
  5
1D35
  8
COTAS
  2
*D4
 10
-10.33936002058533
 20
30.0
 30
0.0
 11
-10.33936002058533
 21
15.0
 31
0.0
 70
    32
  3
ISO-25
 13
14.99999999999886
 23
0.0
 33
0.0000000000000282
 14
14.99999999999886
 24
30.0
 34
-0.0000000000010659
 50
90.0
1001
ACAD
1000
DSTYLE
1002
{
1070
   287
1070
     5
1070
   171
1070
     2
1070
   143
1040
25.4
1070
    41
1040
0.18
1070
   141
1040
0.09
1070
   271
1070
     1
1070
    46
1040
0.38
1070
    43
1040
0.38
1070
    44
1040
0.18
1070
   147
1040
0.09
1070
    40
1040
10.0
1070
    77
1070
     0
1070
   279
1070
     2
1070
   140
1040
0.18
1002
}
  0
DIMENSION
  5
1D45
  8
COTAS
  2
*D5
 10
29.3054999999988
 20
39.77890670386387
 30
0.0
 11
22.15274999999883
 21
39.77890670386387
 31
0.0
 70
    32
  3
ISO-25
 13
14.99999999999886
 23
30.0
 33
-0.0000000000010659
 14
29.3054999999988
 24
30.0
 34
-0.0000000000010744
1001
ACAD
1000
DSTYLE
1002
{
1070
   287
1070
     5
1070
   171
1070
     2
1070
   143
1040
25.4
1070
    41
1040
0.18
1070
   141
1040
0.09
1070
   271
1070
     1
1070
    46
1040
0.38
1070
    43
1040
0.38
1070
    44
1040
0.18
1070
   147
1040
0.09
1070
    40
1040
10.0
1070
    77
1070
     0
1070
   279
1070
     2
1070
   140
1040
0.18
1002
}
  0
LINE
  5
1D73
  8
COTAS
  6
AVEVASHORTDASHED
 10
-0.5135379129116622
 20
15.0
 30
-0.0000000000010701
 11
44.81903791290932
 21
15.0
 31
-0.0000000000010701
  0
LINE
  5
1D75
  8
COTAS
 10
22.15274999999883
 20
30.0
 30
-0.0000000000010701
 11
22.15274999999883
 21
2.857349122042429
 31
-0.0000000000010701
  0
LINE
  5
1D76
  8
COTAS
  6
AVEVASHORTDASHED
 10
7.152778216022446
 20
-0.0000000000000009
 30
0.0000000000000323
 11
37.15272178397647
 21
30.0
 31
-0.0000000000010782
  0
LINE
  5
1D7B
  8
COTAS
  6
AVEVASHORTDASHED
 10
7.152778216021817
 20
0.0000000000000009
 30
-0.0000000000005149
 11
37.15272178397585
 21
30.0
 31
-0.0000000000016254
  0
LINE
  5
1D7C
  8
COTAS
  6
AVEVASHORTDASHED
 10
7.152778216021753
 20
29.99999999999993
 30
-0.0000000000005149
 11
37.15272178397591
 21
0.0000000000000568
 31
-0.0000000000016254
  0
DIMENSION
  5
1D7D
  8
COTAS
  2
*D8
 10
37.15272178397585
 20
30.0
 30
0.0
 11
33.86631779822097
 21
19.8519250994227
 31
0.0
 70
    34
  1
<>
  3
ISO-25
 13
-0.5135379129116622
 23
15.0
 33
0.0
 14
44.81903791290932
 24
15.0
 34
0.0
 15
7.152778216021817
 25
0.0000000000000009
 35
0.0
 16
30.92207774193037
 26
17.34973723329104
 36
0.0
1001
ACAD
1000
DSTYLE
1002
{
1070
   287
1070
     5
1070
   171
1070
     2
1070
   143
1040
25.4
1070
    41
1040
0.18
1070
   141
1040
0.09
1070
   271
1070
     1
1070
    46
1040
0.38
1070
    43
1040
0.38
1070
    44
1040
0.18
1070
   147
1040
0.09
1070
    40
1040
10.0
1070
    77
1070
     0
1070
   279
1070
     2
1070
   140
1040
0.18
1002
}
  0
DIMENSION
  5
1D8C
  8
COTAS
  2
*D9
 10
37.15272178397591
 20
0.0000000000000568
 30
0.0
 11
33.86631779822099
 21
10.14807490057732
 31
0.0
 70
    34
  1
<>
  3
ISO-25
 13
-0.5135379129116622
 23
15.0
 33
0.0
 14
44.81903791290932
 24
15.0
 34
0.0
 15
7.152778216021753
 25
29.99999999999993
 35
0.0
 16
30.0151119750248
 26
10.46065662407102
 36
0.0
1001
ACAD
1000
DSTYLE
1002
{
1070
   287
1070
     5
1070
   171
1070
     2
1070
   143
1040
25.4
1070
    41
1040
0.18
1070
   141
1040
0.09
1070
   271
1070
     1
1070
    46
1040
0.38
1070
    43
1040
0.38
1070
    44
1040
0.18
1070
   147
1040
0.09
1070
    40
1040
10.0
1070
    77
1070
     0
1070
   279
1070
     2
1070
   140
1040
0.18
1002
}
  0
CIRCLE
  5
1D9B
  8
COTAS
 10
22.15274999999883
 20
15.0
 30
-0.0000000000010701
 40
0.0
  0
CIRCLE
  5
1D9C
  8
COTAS
 10
22.15274999999883
 20
15.0
 30
-0.0000000000010701
 40
0.0
  0
ARC
  5
1DAD
  8
COTAS
  6
AVEVASHORTDASHED
 10
22.15274999999883
 20
15.0
 30
-0.0000000000010701
 40
16.0
 50
122.1898260376098
 51
240.3353687197708
  0
DIMENSION
  5
1DAF
  8
COTAS
  2
*D11
 10
22.15274999999883
 20
15.0
 30
-0.0000000000010701
 11
33.1085764113789
 21
30.38877066599852
 31
-0.0000000000010701
 70
   164
  1
<>
  3
ISO-25
 15
31.43227370133652
 25
28.03420269430824
 35
-0.0000000000010701
 40
0.0
1001
ACAD
1000
DSTYLE
1002
{
1070
   287
1070
     5
1070
   171
1070
     2
1070
   143
1040
25.4
1070
    41
1040
0.18
1070
   141
1040
0.09
1070
   271
1070
     1
1070
    46
1040
0.38
1070
    43
1040
0.38
1070
    44
1040
0.18
1070
   147
1040
0.09
1070
    40
1040
10.0
1070
    77
1070
     0
1070
   279
1070
     2
1070
   140
1040
0.18
1002
}
1001
ACAD_DSTYLE_DIMRADIAL_EXTE
1070
   387
1070
     1
1070
   388
1040
0.0
1070
   390
1040
6.283185307179586
  0
ARC
  5
1DBA
  8
COTAS
  6
AVEVASHORTDASHED
 10
22.15274999999883
 20
15.0
 30
-0.0000000000010701
 40
16.0
 50
300.3163483807263
 51
60.51650992921336
  0
DIMENSION
  5
1DBF
  8
COTAS
  2
*D12
 10
10.20786064890337
 20
23.99819908071987
 30
-0.0000000000009277
 11
13.23009539257259
 21
30.92537237033046
 31
0.0
 70
   163
  1
<>
  3
ISO-25
 15
11.47026491684045
 25
28.62921791724971
 35
-0.0000000000009277
 40
0.0
1001
ACAD
1000
DSTYLE
1002
{
1070
   287
1070
     5
1070
   171
1070
     2
1070
   143
1040
25.4
1070
    41
1040
0.18
1070
   141
1040
0.09
1070
   271
1070
     1
1070
    46
1040
0.38
1070
    43
1040
0.38
1070
    44
1040
0.18
1070
   147
1040
0.09
1070
    40
1040
10.0
1070
    77
1070
     0
1070
   279
1070
     2
1070
   140
1040
0.18
1002
}
1001
ACAD_DSTYLE_DIMRADIAL_EXTE
1070
   387
1070
     1
1070
   388
1040
0.0
1070
   390
1040
6.283185307179586
  0
DIMENSION
  5
1DCB
  8
COTAS
  2
*D13
 10
-3.014969902955827
 20
15.0
 30
0.0
 11
-3.014969902955826
 21
22.5
 31
0.0
 70
    32
  3
ISO-25
 13
14.99999999999886
 23
30.0
 33
-0.0000000000010659
 14
14.99999999999886
 24
15.0
 34
-0.0000000000005188
 50
90.0
1001
ACAD
1000
DSTYLE
1002
{
1070
   287
1070
     5
1070
   171
1070
     2
1070
   143
1040
25.4
1070
    41
1040
0.18
1070
   141
1040
0.09
1070
   271
1070
     1
1070
    46
1040
0.38
1070
    43
1040
0.38
1070
    44
1040
0.18
1070
   147
1040
0.09
1070
    40
1040
10.0
1070
    77
1070
     0
1070
   279
1070
     2
1070
   140
1040
0.18
1002
}
  0
DIMENSION
  5
1DDB
  8
COTAS
  2
*D14
 10
-14.34508993856184
 20
-52.71650704209289
 30
0.0
 11
-14.34508993856184
 21
-45.21650704209289
 31
0.0
 70
    32
  3
ISO-25
 13
0.0
 23
-37.71650704209289
 33
-0.0000000001085606
 14
0.0
 24
-52.71650704209289
 34
-0.0000000001085606
 50
90.0
1001
ACAD
1000
DSTYLE
1002
{
1070
   287
1070
     5
1070
   171
1070
     2
1070
   143
1040
25.4
1070
    41
1040
0.18
1070
   141
1040
0.09
1070
   271
1070
     1
1070
    46
1040
0.38
1070
    43
1040
0.38
1070
    44
1040
0.18
1070
   147
1040
0.09
1070
    40
1040
10.0
1070
    77
1070
     0
1070
   279
1070
     2
1070
   140
1040
0.18
1002
}
  0
VIEWPORT
  5
16EA
 67
     1
  8
0
 10
143.5
 20
95.0
 30
0.0
 40
462.0
 41
231.0
 68
     1
 69
     1
1001
ACAD
1000
MVIEW
1002
{
1070
    16
1010
0.0
1020
0.0
1030
0.0
1020
0.0
1030
0.0
1010
0.0
1020
0.0
1030
1.0
1020
0.0
1030
1.0
1040
0.0
1040
231.0
1040
143.5
1040
95.0
1040
50.0
1040
0.0
1040
0.0
1070
     0
1070
   100
1070
     1
1070
     0
1070
     0
1070
     0
1070
     0
1070
     0
1040
0.0
1040
0.0
1040
0.0
1040
10.0
1040
10.0
1040
10.0
1040
10.0
1070
     1
1002
{
1002
}
1002
}
  0
VIEWPORT
  5
16EC
 67
     1
  8
VIEWPORTS
 10
143.5
 20
95.0
 30
0.0
 40
287.0
 41
162.7319641113281
 68
     2
 69
     2
1001
ACAD
1000
MVIEW
1002
{
1070
    16
1010
0.0
1020
0.0
1030
0.0
1020
0.0
1030
0.0
1010
0.0
1020
0.0
1030
1.0
1020
0.0
1030
1.0
1040
0.0
1040
305.9693908691406
1040
209.806884765625
1040
148.4082946777344
1040
50.0
1040
0.0
1040
0.0
1070
     0
1070
   100
1070
     1
1070
     0
1070
     0
1070
     0
1070
     0
1070
     0
1040
0.0
1040
0.0
1040
0.0
1040
10.0
1040
10.0
1040
10.0
1040
10.0
1070
     1
1002
{
1002
}
1002
}
  0
ENDSEC
  0
EOF
