  0
SECTION
  2
HEADER
  9
$ACADVER
  1
AC1009
  9
$DWGCODEPAGE
  3
ansi_1252
  9
$INSBASE
 10
0.0
 20
0.0
 30
0.0
  9
$EXTMIN
 10
-221.1972444554907
 20
-118.3359353804262
 30
-1.764705882385661
  9
$EXTMAX
 10
449.0716490570431
 20
657.4957962164692
 30
11.00000000008134
  9
$LIMMIN
 10
0.0
 20
0.0
  9
$LIMMAX
 10
12.0
 20
9.0
  9
$ORTHOMODE
 70
     1
  9
$REGENMODE
 70
     1
  9
$FILLMODE
 70
     1
  9
$QTEXTMODE
 70
     0
  9
$MIRRTEXT
 70
     1
  9
$DRAGMODE
 70
     2
  9
$LTSCALE
 40
1.0
  9
$OSMODE
 70
   511
  9
$ATTMODE
 70
     1
  9
$TEXTSIZE
 40
2.5
  9
$TRACEWID
 40
0.05
  9
$TEXTSTYLE
  7
STANDARD
  9
$CLAYER
  8
0
  9
$CELTYPE
  6
BYLAYER
  9
$CECOLOR
 62
   256
  9
$DIMSCALE
 40
1.0
  9
$DIMASZ
 40
0.18
  9
$DIMEXO
 40
0.625
  9
$DIMDLI
 40
0.38
  9
$DIMRND
 40
0.0
  9
$DIMDLE
 40
0.38
  9
$DIMEXE
 40
0.18
  9
$DIMTP
 40
0.0
  9
$DIMTM
 40
0.0
  9
$DIMTXT
 40
0.18
  9
$DIMCEN
 40
0.09
  9
$DIMTSZ
 40
0.0
  9
$DIMTOL
 70
     0
  9
$DIMLIM
 70
     0
  9
$DIMTIH
 70
     1
  9
$DIMTOH
 70
     1
  9
$DIMSE1
 70
     0
  9
$DIMSE2
 70
     0
  9
$DIMTAD
 70
     0
  9
$DIMZIN
 70
     0
  9
$DIMBLK
  1

  9
$DIMASO
 70
     1
  9
$DIMSHO
 70
     1
  9
$DIMPOST
  1

  9
$DIMAPOST
  1

  9
$DIMALT
 70
     0
  9
$DIMALTD
 70
     2
  9
$DIMALTF
 40
25.4
  9
$DIMLFAC
 40
1.0
  9
$DIMTOFL
 70
     0
  9
$DIMTVP
 40
0.0
  9
$DIMTIX
 70
     0
  9
$DIMSOXD
 70
     0
  9
$DIMSAH
 70
     0
  9
$DIMBLK1
  1

  9
$DIMBLK2
  1

  9
$DIMSTYLE
  2
ISO-25
  9
$DIMCLRD
 70
     0
  9
$DIMCLRE
 70
     0
  9
$DIMCLRT
 70
     0
  9
$DIMTFAC
 40
1.0
  9
$DIMGAP
 40
0.09
  9
$LUNITS
 70
     2
  9
$LUPREC
 70
     4
  9
$SKETCHINC
 40
0.1
  9
$FILLETRAD
 40
0.5
  9
$AUNITS
 70
     0
  9
$AUPREC
 70
     0
  9
$MENU
  1

  9
$ELEVATION
 40
0.0
  9
$PELEVATION
 40
0.0
  9
$THICKNESS
 40
0.0
  9
$LIMCHECK
 70
     0
  9
$CHAMFERA
 40
0.5
  9
$CHAMFERB
 40
0.5
  9
$SKPOLY
 70
     0
  9
$TDCREATE
 40
2447892.875
  9
$TDUPDATE
 40
2457149.97627507
  9
$TDINDWG
 40
0.0566526273
  9
$TDUSRTIMER
 40
2457150.100591146
  9
$USRTIMER
 70
     0
  9
$ANGBASE
 50
0.0
  9
$ANGDIR
 70
     0
  9
$PDMODE
 70
     0
  9
$PDSIZE
 40
0.0
  9
$PLINEWID
 40
0.0
  9
$COORDS
 70
     1
  9
$SPLFRAME
 70
     0
  9
$SPLINETYPE
 70
     6
  9
$SPLINESEGS
 70
     8
  9
$ATTDIA
 70
     0
  9
$ATTREQ
 70
     1
  9
$HANDLING
 70
     1
  9
$HANDSEED
  5
2093
  9
$SURFTAB1
 70
     6
  9
$SURFTAB2
 70
     6
  9
$SURFTYPE
 70
     6
  9
$SURFU
 70
     6
  9
$SURFV
 70
     6
  9
$UCSNAME
  2

  9
$UCSORG
 10
0.0
 20
0.0
 30
0.0
  9
$UCSXDIR
 10
1.0
 20
0.0
 30
0.0
  9
$UCSYDIR
 10
0.0
 20
1.0
 30
0.0
  9
$PUCSNAME
  2

  9
$PUCSORG
 10
0.0
 20
0.0
 30
0.0
  9
$PUCSXDIR
 10
1.0
 20
0.0
 30
0.0
  9
$PUCSYDIR
 10
0.0
 20
1.0
 30
0.0
  9
$USERI1
 70
     0
  9
$USERI2
 70
     0
  9
$USERI3
 70
     0
  9
$USERI4
 70
     0
  9
$USERI5
 70
     0
  9
$USERR1
 40
0.0
  9
$USERR2
 40
0.0
  9
$USERR3
 40
0.0
  9
$USERR4
 40
0.0
  9
$USERR5
 40
0.0
  9
$WORLDVIEW
 70
     1
  9
$SHADEDGE
 70
     3
  9
$SHADEDIF
 70
    70
  9
$TILEMODE
 70
     1
  9
$MAXACTVP
 70
    64
  9
$PLIMCHECK
 70
     0
  9
$PEXTMIN
 10
0.0
 20
0.0
 30
0.0
  9
$PEXTMAX
 10
0.0
 20
0.0
 30
0.0
  9
$PLIMMIN
 10
0.0
 20
0.0
  9
$PLIMMAX
 10
0.0
 20
0.0
  9
$UNITMODE
 70
     0
  9
$VISRETAIN
 70
     1
  9
$PLINEGEN
 70
     0
  9
$PSLTSCALE
 70
     1
  0
ENDSEC
  0
SECTION
  2
TABLES
  0
TABLE
  2
VPORT
 70
     1
  0
VPORT
  2
*ACTIVE
 70
     0
 10
0.0
 20
0.0
 11
1.0
 21
1.0
 12
-95.86968246484878
 22
121.1716357402871
 13
0.0
 23
0.0
 14
0.0
 24
0.0
 15
0.0
 25
0.0
 16
0.0
 26
0.0
 36
1.0
 17
209.806884765625
 27
148.4082946777344
 37
0.0
 40
791.3483662288334
 41
2.050393700787402
 42
50.0
 43
0.0
 44
0.0
 50
0.0
 51
0.0
 71
    16
 72
     0
 73
     0
 74
     1
 75
     0
 76
     1
 77
     0
 78
     0
  0
ENDTAB
  0
TABLE
  2
LTYPE
 70
     6
  0
LTYPE
  2
CONTINUOUS
 70
     0
  3
Solid line
 72
    65
 73
     0
 40
0.0
  0
LTYPE
  2
AVEVASOLID
 70
     0
  3
Aveva linetype
 72
    65
 73
     1
 40
2.25
 49
2.25
  0
LTYPE
  2
AVEVASOLIDXWIDE
 70
     0
  3
Aveva linetype
 72
    65
 73
     1
 40
2.25
 49
2.25
  0
LTYPE
  2
AVEVADASHEDDOTTED
 70
     0
  3
Aveva linetype
 72
    65
 73
     4
 40
7.771428571428572
 49
5.485714285714286
 49
-1.142857142857143
 49
0.0
 49
-1.142857142857143
  0
LTYPE
  2
AVEVADASHEDDOUBLEDOTTEDWID
 70
     0
  3
Aveva linetype
 72
    65
 73
     6
 40
19.0
 49
14.5
 49
-2.0
 49
0.0
 49
-0.5
 49
0.0
 49
-2.0
  0
LTYPE
  2
AVEVASHORTDASHED
 70
     0
  3
Aveva linetype
 72
    65
 73
     2
 40
2.0
 49
1.5
 49
-0.5
  0
ENDTAB
  0
TABLE
  2
LAYER
 70
    14
  0
LAYER
  2
0
 70
     0
 62
     7
  6
CONTINUOUS
  0
LAYER
  2
-11
 70
     0
 62
     7
  6
CONTINUOUS
  0
LAYER
  2
2001
 70
     0
 62
     7
  6
CONTINUOUS
  0
LAYER
  2
6001
 70
     0
 62
     7
  6
CONTINUOUS
  0
LAYER
  2
-1127
 70
     0
 62
     7
  6
CONTINUOUS
  0
LAYER
  2
-1128
 70
     0
 62
     7
  6
CONTINUOUS
  0
LAYER
  2
-1
 70
     0
 62
     7
  6
CONTINUOUS
  0
LAYER
  2
-203
 70
     0
 62
     7
  6
CONTINUOUS
  0
LAYER
  2
-1102
 70
     0
 62
     7
  6
CONTINUOUS
  0
LAYER
  2
-1109
 70
     0
 62
     7
  6
CONTINUOUS
  0
LAYER
  2
-300
 70
     0
 62
     7
  6
CONTINUOUS
  0
LAYER
  2
VIEWPORTS
 70
     0
 62
    -7
  6
CONTINUOUS
  0
LAYER
  2
DEFPOINTS
 70
     0
 62
     7
  6
CONTINUOUS
  0
LAYER
  2
COTAS
 70
     0
 62
     4
  6
CONTINUOUS
  0
ENDTAB
  0
TABLE
  2
STYLE
 70
     3
  0
STYLE
  2
STANDARD
 70
     0
 40
0.0
 41
1.0
 50
0.0
 71
     0
 42
2.5
  3
txt
  4

  0
STYLE
  2
AVEVATEXTSTYLE1
 70
     0
 40
0.0
 41
1.0
 50
0.0
 71
     0
 42
2.5
  3
Arial Narrow
  4

  0
STYLE
  2
AVEVATEXTSTYLE2
 70
     0
 40
0.0
 41
1.0
 50
0.0
 71
     0
 42
2.5
  3
Arial
  4

  0
ENDTAB
  0
TABLE
  2
VIEW
 70
     0
  0
ENDTAB
  0
TABLE
  2
UCS
 70
     0
  0
ENDTAB
  0
TABLE
  2
APPID
 70
     1
  0
APPID
  2
ACAD
 70
     0
  0
ENDTAB
  0
TABLE
  2
DIMSTYLE
 70
     2
  0
DIMSTYLE
  2
ISO-25
 70
     0
  3

  4

  5

  6

  7

 40
1.0
 41
2.5
 42
0.625
 43
0.3799999952316284
 44
0.1800000071525574
 45
0.0
 46
0.3799999952316284
 47
0.0
 48
0.0
140
2.5
141
0.0900000035762787
142
0.0
143
25.39999961853027
144
1.0
145
0.0
146
1.0
147
0.0900000035762787
 71
     0
 72
     0
 73
     1
 74
     1
 75
     0
 76
     0
 77
     1
 78
     0
170
     0
171
     3
172
     0
173
     0
174
     0
175
     0
176
     0
177
     0
178
     0
  0
DIMSTYLE
  2
STANDARD
 70
     0
  3

  4

  5

  6

  7

 40
1.0
 41
0.18
 42
0.0625
 43
0.38
 44
0.18
 45
0.0
 46
0.0
 47
0.0
 48
0.0
140
0.18
141
0.09
142
0.0
143
25.4
144
1.0
145
0.0
146
1.0
147
0.09
 71
     0
 72
     0
 73
     1
 74
     1
 75
     0
 76
     0
 77
     0
 78
     0
170
     0
171
     2
172
     0
173
     0
174
     0
175
     0
176
     0
177
     0
178
     0
  0
ENDTAB
  0
ENDSEC
  0
SECTION
  2
BLOCKS
  0
BLOCK
  8
0
  2
$MODEL_SPACE
 70
     0
 10
0.0
 20
0.0
 30
0.0
  3
$MODEL_SPACE
  1

  0
ENDBLK
  5
7
  8
0
  0
BLOCK
 67
     1
  8
0
  2
$PAPER_SPACE
 70
     0
 10
0.0
 20
0.0
 30
0.0
  3
$PAPER_SPACE
  1

  0
ENDBLK
  5
A
 67
     1
  8
0
  0
BLOCK
  8
0
  2
*D0
 70
     1
 10
0.0
 20
0.0
 30
0.0
  3
*D0
  1

  0
LINE
  5
1E0F
  8
0
 62
     0
 10
10.04268953762892
 20
419.4440049720306
 30
0.0
 11
10.04268953762892
 21
427.1673401380609
 31
0.0
  0
LINE
  5
1E10
  8
0
 62
     0
 10
210.0426895376288
 20
419.4440049720306
 30
0.0
 11
210.0426895376288
 21
427.1673401380609
 31
0.0
  0
LINE
  5
1E11
  8
0
 62
     0
 10
10.22268953762892
 20
426.9873401380609
 30
0.0
 11
109.4126895376288
 21
426.9873401380609
 31
0.0
  0
LINE
  5
1E12
  8
0
 62
     0
 10
209.8626895376288
 20
426.9873401380609
 30
0.0
 11
110.6726895376289
 21
426.9873401380609
 31
0.0
  0
SOLID
  5
1E13
  8
0
 62
     0
 10
10.22268953762892
 20
427.0173401380608
 30
0.0
 11
10.22268953762892
 21
426.9573401380609
 31
0.0
 12
10.04268953762892
 22
426.9873401380609
 32
0.0
 13
10.04268953762892
 23
426.9873401380609
 33
0.0
  0
SOLID
  5
1E14
  8
0
 62
     0
 10
209.8626895376288
 20
426.9573401380609
 30
0.0
 11
209.8626895376288
 21
427.0173401380608
 31
0.0
 12
210.0426895376288
 22
426.9873401380609
 32
0.0
 13
210.0426895376288
 23
426.9873401380609
 33
0.0
  0
TEXT
  5
1E15
  8
0
  6
CONTINUOUS
 62
     0
 10
109.5026895376289
 20
426.8973401380608
 30
0.0
 40
0.18
  1
200.0000
  0
POINT
  5
1E16
  8
DEFPOINTS
 62
     0
 10
10.04268953762892
 20
418.8190049720306
 30
0.0
  0
POINT
  5
1E17
  8
DEFPOINTS
 62
     0
 10
210.0426895376288
 20
418.8190049720306
 30
0.0
  0
POINT
  5
1E18
  8
DEFPOINTS
 62
     0
 10
210.0426895376288
 20
426.9873401380609
 30
0.0
  0
ENDBLK
  5
1E0E
  8
0
  0
BLOCK
  8
0
  2
*D1
 70
     1
 10
0.0
 20
0.0
 30
0.0
  3
*D1
  1

  0
LINE
  5
1E94
  8
0
 62
     0
 10
0.0426895376285756
 20
522.870796216469
 30
0.0
 11
0.0426895376285756
 21
501.9498064316729
 31
0.0
  0
LINE
  5
1E95
  8
0
 62
     0
 10
223.0426895376287
 20
522.8707962164689
 30
0.0
 11
223.0426895376287
 21
501.9498064316729
 31
0.0
  0
LINE
  5
1E96
  8
0
 62
     0
 10
0.2226895376285756
 20
502.1298064316729
 30
0.0
 11
110.8826895376286
 21
502.1298064316729
 31
0.0
  0
LINE
  5
1E97
  8
0
 62
     0
 10
222.8626895376287
 20
502.1298064316729
 30
0.0
 11
112.2026895376286
 21
502.1298064316729
 31
0.0
  0
SOLID
  5
1E98
  8
0
 62
     0
 10
0.2226895376285756
 20
502.1598064316728
 30
0.0
 11
0.2226895376285756
 21
502.0998064316729
 31
0.0
 12
0.0426895376285756
 22
502.1298064316729
 32
0.0
 13
0.0426895376285756
 23
502.1298064316729
 33
0.0
  0
SOLID
  5
1E99
  8
0
 62
     0
 10
222.8626895376287
 20
502.0998064316729
 30
0.0
 11
222.8626895376287
 21
502.1598064316728
 31
0.0
 12
223.0426895376287
 22
502.1298064316729
 32
0.0
 13
223.0426895376287
 23
502.1298064316729
 33
0.0
  0
TEXT
  5
1E9A
  8
0
  6
CONTINUOUS
 62
     0
 10
110.9726895376286
 20
502.0398064316728
 30
0.0
 40
0.18
  1
223.0000
  0
POINT
  5
1E9B
  8
DEFPOINTS
 62
     0
 10
0.0426895376285756
 20
523.495796216469
 30
0.0
  0
POINT
  5
1E9C
  8
DEFPOINTS
 62
     0
 10
223.0426895376287
 20
523.4957962164689
 30
0.0
  0
POINT
  5
1E9D
  8
DEFPOINTS
 62
     0
 10
223.0426895376287
 20
502.1298064316729
 30
0.0
  0
ENDBLK
  5
1E93
  8
0
  0
ENDSEC
  0
SECTION
  2
ENTITIES
  0
LINE
  5
65
  8
-11
  6
AVEVASOLID
 62
   253
 10
264.2716490570431
 20
229.6640582359163
 30
0.0
 11
440.6716490570431
 21
229.6640582359163
 31
0.0
  0
LINE
  5
131
  8
-300
  6
AVEVASOLIDXWIDE
 62
    92
 10
-30.69661266170684
 20
-109.825895377365
 30
0.0
 11
-30.69661266170684
 21
229.774104622635
 31
0.0
  0
LINE
  5
132
  8
-300
  6
AVEVASOLIDXWIDE
 62
    92
 10
-30.69661266170684
 20
229.774104622635
 30
0.0
 11
440.6716490570431
 21
229.6640582359163
 31
0.0
  0
LINE
  5
133
  8
-300
  6
AVEVASOLIDXWIDE
 62
    92
 10
440.6716490570431
 20
229.6640582359163
 30
0.0
 11
440.6716490570431
 21
-109.9359354698331
 31
0.0
  0
LINE
  5
134
  8
-300
  6
AVEVASOLIDXWIDE
 62
    92
 10
-30.69661266170684
 20
-109.825895377365
 30
0.0
 11
440.6716490570431
 21
-109.9359354698331
 31
0.0
  0
LINE
  5
13A
  8
-300
  6
AVEVASOLID
 62
    92
 10
-54.92833266817274
 20
238.0640582359163
 30
0.0
 11
-54.92833266817274
 21
-118.3359353804262
 31
0.0
  0
LINE
  5
13B
  8
-300
  6
AVEVASOLID
 62
    92
 10
-54.92833266817274
 20
-118.3359353804262
 30
0.0
 11
449.0716490570431
 21
-118.3359353804262
 31
0.0
  0
LINE
  5
13D
  8
-300
  6
AVEVASOLIDXWIDE
 62
    92
 10
449.0716490570431
 20
-118.3359353804262
 30
0.0
 11
449.0716490570431
 21
-106.3359348976286
 31
0.0
  0
LINE
  5
13E
  8
-300
  6
AVEVASOLIDXWIDE
 62
    92
 10
437.0716490570431
 20
-118.3359353804262
 30
0.0
 11
449.0716490570431
 21
-118.3359353804262
 31
0.0
  0
LINE
  5
13F
  8
-300
  6
AVEVASOLID
 62
    92
 10
449.0716490570431
 20
238.0640582359163
 30
0.0
 11
449.0716490570431
 21
-118.3359353804262
 31
0.0
  0
LINE
  5
142
  8
-300
  6
AVEVASOLID
 62
    92
 10
-54.92833266817274
 20
238.0640582359163
 30
0.0
 11
449.0716490570431
 21
238.0640582359163
 31
0.0
  0
LINE
  5
14C
  8
-300
  6
AVEVASOLID
 62
    92
 10
307.7874090472303
 20
-87.93593499299595
 30
0.0
 11
307.7874090472303
 21
-109.9359354698331
 31
0.0
  0
LINE
  5
151
  8
-300
  6
AVEVASOLIDXWIDE
 62
    92
 10
449.0716490570431
 20
-118.3359353804262
 30
0.0
 11
449.0716490570431
 21
-106.3359348976286
 31
0.0
  0
LINE
  5
152
  8
-300
  6
AVEVASOLIDXWIDE
 62
    92
 10
437.0716490570431
 20
-118.3359353804262
 30
0.0
 11
449.0716490570431
 21
-118.3359353804262
 31
0.0
  0
LINE
  5
153
  8
-300
  6
AVEVASOLID
 62
    92
 10
449.0716490570431
 20
238.0640582359163
 30
0.0
 11
449.0716490570431
 21
-118.3359353804262
 31
0.0
  0
LINE
  5
156
  8
-300
  6
AVEVASOLID
 62
    92
 10
-54.92833266817274
 20
238.0640582359163
 30
0.0
 11
449.0716490570431
 21
238.0640582359163
 31
0.0
  0
LINE
  5
159
  8
-300
  6
AVEVASOLID
 62
    92
 10
-54.92833266817274
 20
238.0640582359163
 30
0.0
 11
-54.92833266817274
 21
-118.3359353804262
 31
0.0
  0
LINE
  5
15A
  8
-300
  6
AVEVASOLID
 62
    92
 10
-54.92833266817274
 20
-118.3359353804262
 30
0.0
 11
449.0716490570431
 21
-118.3359353804262
 31
0.0
  0
TEXT
  5
1766
  8
-300
  6
CONTINUOUS
 62
     7
 10
415.7704437299401
 20
-117.2027116379635
 30
0.0
 40
3.75
  1
Padrao-A3
  0
CIRCLE
  5
1CC5
  8
0
 10
-371.0000000000005
 20
43.99999999999937
 30
-0.0000000000001092
 40
2.999999999999999
210
1.678510484549289E-15
220
3.491655361970004E-16
230
-1.0
  0
CIRCLE
  5
1CC6
  8
0
 10
-371.0000000000005
 20
89.99999999999937
 30
-0.0000000000000702
 40
3.0
210
1.949089256500020E-15
220
-1.042425437791236E-17
230
-1.0
  0
CIRCLE
  5
1CC7
  8
0
 10
-10.00000000000034
 20
43.99999999999977
 30
0.0000000000000066
 40
3.0
210
2.175401231199696E-15
220
1.046906892002465E-16
230
-1.0
  0
CIRCLE
  5
1CC8
  8
0
 10
-10.00000000000034
 20
89.99999999999943
 30
-0.0000000000000439
 40
2.999999999999997
210
1.950716118640701E-15
220
1.649578654383610E-17
230
-1.0
  0
CIRCLE
  5
1CC9
  8
0
 10
-33.00000000000011
 20
7.499999999999773
 30
-0.0000000000000202
 40
2.999999999999998
210
1.338156416317502E-15
220
4.377772465043576E-16
230
-1.0
  0
CIRCLE
  5
1CCA
  8
0
 10
-322.9999999999998
 20
52.50000000000028
 30
-0.0000000000909824
 40
3.00000000000004
210
1.317124011935641E-15
220
4.013480535095750E-16
230
-1.0
  0
CIRCLE
  5
1CCB
  8
0
 10
-33.00000000000011
 20
52.49999999999898
 30
0.0000000000000213
 40
2.999999999999993
210
1.889625147665894E-15
220
5.063235323147082E-16
230
-1.0
  0
CIRCLE
  5
1CCC
  8
0
 10
-322.9999999999998
 20
7.500000000000455
 30
0.0000000000000915
 40
2.999999999999999
210
2.152210620220622E-15
220
-3.221716725262979E-17
230
-1.0
  0
CIRCLE
  5
1CCD
  8
0
 10
-384.0000000000005
 20
89.99999999999937
 30
-0.0000000000000486
 40
2.999999999999992
210
1.879977655031907E-15
220
2.428612866367496E-17
230
-1.0
  0
CIRCLE
  5
1CCE
  8
0
 10
-384.0000000000003
 20
43.99999999999937
 30
0.0000000000001301
 40
2.999999999999993
210
2.311198435755160E-15
220
3.474914609494141E-16
230
-1.0
  0
CIRCLE
  5
1CCF
  8
0
 10
-102.0
 20
81.49999999999989
 30
-10.9999999999644
 40
7.500000000000099
210
1.879977655031907E-15
220
-3.453462926555057E-31
230
-1.0
  0
CIRCLE
  5
1CD0
  8
0
 10
102.0
 20
52.5
 30
10.99999999999238
 40
7.500000000000098
  0
CIRCLE
  5
1CD1
  8
0
 10
-101.9999999999999
 20
12.50000000000012
 30
-11.00000000001974
 40
7.499999999999917
210
1.974796887631989E-15
220
1.398860140649338E-16
230
-1.0
  0
CIRCLE
  5
1CD2
  8
0
 10
-222.0000000000001
 20
52.5
 30
-10.99999999992921
 40
7.500000000000099
210
2.132308015624843E-15
220
-3.216161560510688E-17
230
-1.0
  0
CIRCLE
  5
1CD3
  8
0
 10
-222.0
 20
81.50000000000023
 30
-10.99999999995682
 40
7.500000000000098
210
2.073202720609393E-15
220
1.055225774152841E-16
230
-1.0
  0
CIRCLE
  5
1CD4
  8
0
 10
-222.0000000000003
 20
121.5000000000011
 30
-10.99999999998455
 40
7.500000000000098
210
2.012279232133096E-15
220
-3.696496980933734E-31
230
-1.0
  0
CIRCLE
  5
1CD5
  8
0
 10
-102.0
 20
121.5000000000002
 30
-10.99999999993661
 40
7.500000000000102
210
1.974796887631989E-15
220
-1.398860140649346E-16
230
-1.0
  0
CIRCLE
  5
1CD6
  8
0
 10
-62.00000000000034
 20
121.5000000000012
 30
-10.99999999996223
 40
3.0
210
2.058957450688646E-14
220
7.107201707004924E-15
230
-1.0
  0
CIRCLE
  5
1CD7
  8
0
 10
-101.9999999999998
 20
81.50000000000094
 30
-10.99999999996435
 40
3.000000000000001
210
-1.805063590274775E-14
220
2.322603426380083E-14
230
-1.0
  0
CIRCLE
  5
1CD8
  8
0
 10
-261.9999999999997
 20
81.50000000000074
 30
-10.9999999999684
 40
2.999999999999997
210
-1.616437732643177E-14
220
1.075256281540243E-14
230
-1.0
  0
CIRCLE
  5
1CD9
  8
0
 10
-262.0000000000003
 20
121.5000000000011
 30
-10.99999999993619
 40
2.999999999999998
210
3.606288332926432E-15
220
2.486319309307619E-15
230
-1.0
  0
CIRCLE
  5
1CDA
  8
0
 10
-102.0
 20
121.5000000000002
 30
-10.99999999993653
 40
2.999999999999997
210
2.214201044736791E-15
220
3.497388385859783E-16
230
-1.0
  0
CIRCLE
  5
1CDB
  8
0
 10
-62.00000000000014
 20
81.49999999999989
 30
-10.99999999982477
 40
2.999999999999997
210
1.985486776745474E-15
220
1.462616492034839E-16
230
-1.0
  0
CIRCLE
  5
1CDC
  8
0
 10
-323.0
 20
126.5000000000002
 30
-0.0000000000001537
 40
2.999999999999991
210
1.663113695936011E-15
220
-3.337687475838649E-16
230
-1.0
  0
CIRCLE
  5
1CDD
  8
0
 10
-322.9999999999999
 20
81.49999999999915
 30
0.0000000000001058
 40
2.999999999999999
210
2.092038295389939E-15
220
4.125880711942123E-16
230
-1.0
  0
CIRCLE
  5
1CDE
  8
0
 10
-62.0
 20
12.50000000000011
 30
0.0000000000000218
 40
2.999999999999997
210
2.178911969432793E-15
220
8.681342957760868E-16
230
-1.0
  0
CIRCLE
  5
1CDF
  8
0
 10
-222.0000000000002
 20
52.49999999999966
 30
0.0000000000001988
 40
2.999999999999997
210
3.684842510356892E-15
220
9.873505748861118E-16
230
-1.0
  0
CIRCLE
  5
1CE0
  8
0
 10
-222.0
 20
12.49999999999932
 30
0.0000000000003121
 40
2.999999999999997
210
3.819639659155884E-15
220
-7.016564223722311E-31
230
-1.0
  0
CIRCLE
  5
1CE1
  8
0
 10
-102.0
 20
52.49999999999966
 30
-0.0000000000000589
 40
3.000000000000002
210
2.767998188079587E-15
220
-4.213867096022903E-29
230
-1.0
  0
CIRCLE
  5
1CE2
  8
0
 10
-62.00000000000011
 20
52.5
 30
-0.0000000000000779
 40
2.999999999999996
210
2.507384470913491E-15
220
-3.622334940407083E-16
230
-1.0
  0
CIRCLE
  5
1CE3
  8
0
 10
-102.0
 20
81.50000000000023
 30
0.0000000000002594
 40
2.999999999999998
210
2.491817825275150E-15
220
2.035914847765255E-15
230
-1.0
  0
CIRCLE
  5
1CE4
  8
0
 10
-62.0
 20
121.5000000000002
 30
0.0000000000000616
 40
3.0
210
2.403606926027618E-15
220
3.023175005649623E-16
230
-1.0
  0
CIRCLE
  5
1CE5
  8
0
 10
-102.0
 20
121.5000000000002
 30
0.0000000000000217
 40
2.999999999999997
210
2.231661259819009E-15
220
-4.099495227927749E-31
230
-1.0
  0
CIRCLE
  5
1CE6
  8
0
 10
-62.00000000000011
 20
81.50000000000023
 30
0.0000000000000379
 40
2.999999999999997
210
2.340151121764716E-15
220
-3.461064397351867E-16
230
-1.0
  0
CIRCLE
  5
1CE7
  8
0
 10
-222.0000000000002
 20
81.50000000000023
 30
0.0000000000004215
 40
2.999999999999999
210
-1.648437346009940E-15
220
1.512867123202636E-14
230
-1.0
  0
CIRCLE
  5
1CE8
  8
0
 10
-262.0000000000001
 20
81.50000000000017
 30
-0.0000000000056255
 40
2.999999999999999
210
-1.733511467655573E-14
220
-6.272650953105255E-15
230
-1.0
  0
CIRCLE
  5
1CE9
  8
0
 10
-262.0000000000001
 20
121.5000000000002
 30
-0.0000000000000413
 40
3.0
210
1.599762086086858E-15
220
1.293282494068516E-15
230
-1.0
  0
CIRCLE
  5
1CEA
  8
0
 10
-222.0000000000002
 20
121.5000000000002
 30
0.0000000000000974
 40
2.999999999999997
210
2.819966482547860E-15
220
5.878323715234139E-17
230
-1.0
  0
CIRCLE
  5
1CEB
  8
0
 10
-222.0
 20
81.50000000000023
 30
-10.99999999995693
 40
3.0
210
1.657015262448985E-15
220
4.257812007017010E-17
230
-1.0
  0
CIRCLE
  5
1CEC
  8
0
 10
-222.0000000000003
 20
121.5000000000011
 30
-10.99999999998456
 40
2.999999999999998
210
1.950716118640698E-15
220
1.649578654383049E-17
230
-1.0
  0
CIRCLE
  5
1CED
  8
0
 10
-62.00000000000002
 20
52.50000000000034
 30
-10.99999999928069
 40
2.999999999999998
210
2.003148327330764E-15
220
9.130904802332097E-18
230
-1.0
  0
CIRCLE
  5
1CEE
  8
0
 10
261.9999999999999
 20
12.49999999999932
 30
10.99999999990202
 40
2.999999999999859
  0
CIRCLE
  5
1CEF
  8
0
 10
262.0
 20
12.49999999999932
 30
0.0000000000006627
 40
2.999999999999858
  0
CIRCLE
  5
1CF0
  8
0
 10
262.0000000000001
 20
52.49999999999926
 30
0.0000000000007981
 40
3.000000000000039
  0
CIRCLE
  5
1CF1
  8
0
 10
262.0000000000001
 20
52.4999999999996
 30
10.99999999987436
 40
3.00000000000004
  0
CIRCLE
  5
1CF2
  8
0
 10
101.9999999999999
 20
12.50000000000011
 30
0.000000000000251
 40
2.999999999999858
  0
CIRCLE
  5
1CF3
  8
0
 10
101.9999999999999
 20
12.50000000000011
 30
11.00000000001995
 40
2.999999999999858
  0
CIRCLE
  5
1CF4
  8
0
 10
-102.0
 20
52.5
 30
-10.99999999999232
 40
3.000000000000001
210
7.778645577751656E-16
220
-2.781458414127994E-16
230
-1.0
  0
CIRCLE
  5
1CF5
  8
0
 10
-62.00000000000002
 20
12.50000000000011
 30
-11.00000000004726
 40
2.999999999999997
210
2.051539024039773E-15
220
-9.905100257922591E-17
230
-1.0
  0
CIRCLE
  5
1CF6
  8
0
 10
-222.0000000000001
 20
12.49999999999961
 30
-10.99999999989953
 40
2.999999999999997
210
8.964111361114142E-15
220
2.619084316502129E-14
230
-1.0
  0
CIRCLE
  5
1CF7
  8
0
 10
-222.0000000000002
 20
52.49999999999992
 30
-10.99999999992867
 40
2.999999999999996
210
6.177588675136261E-15
220
-6.939942143534283E-15
230
-1.0
  0
CIRCLE
  5
1CF8
  8
0
 10
-262.0000000000001
 20
121.5000000000011
 30
-10.99999999993682
 40
7.500000000000098
210
1.979203837857800E-15
220
5.728826336518710E-17
230
-1.0
  0
CIRCLE
  5
1CF9
  8
0
 10
-261.9999999999999
 20
81.50000000000063
 30
-10.99999999996451
 40
7.500000000000098
210
2.023454289780933E-15
220
-4.170588291923444E-17
230
-1.0
  0
CIRCLE
  5
1CFA
  8
0
 10
-262.0000000000001
 20
52.4999999999996
 30
-10.99999999987384
 40
7.500000000000099
210
1.950716118640678E-15
220
-1.649578654384092E-17
230
-1.0
  0
CIRCLE
  5
1CFB
  8
0
 10
-261.9999999999999
 20
12.49999999999932
 30
-10.99999999990151
 40
7.49999999999992
210
1.936681079913133E-15
220
-7.559815221996313E-17
230
-1.0
  0
CIRCLE
  5
1CFC
  8
0
 10
-222.0
 20
12.49999999999932
 30
-10.9999999999014
 40
7.499999999999918
210
2.012279232133097E-15
220
-3.696496980933736E-31
230
-1.0
  0
CIRCLE
  5
1CFD
  8
0
 10
-62.00000000000014
 20
121.5000000000011
 30
-10.99999999996424
 40
7.500000000000098
210
1.979203837857800E-15
220
5.728826336518688E-17
230
-1.0
  0
CIRCLE
  5
1CFE
  8
0
 10
-62.00000000000014
 20
81.49999999999989
 30
-10.99999999982479
 40
7.500000000000099
210
1.950716118640678E-15
220
-1.649578654384092E-17
230
-1.0
  0
CIRCLE
  5
1CFF
  8
0
 10
-62.00000000000014
 20
52.5
 30
-10.99999999985276
 40
7.500000000000099
210
1.968367375057534E-15
220
-2.535252250319360E-17
230
-1.0
  0
CIRCLE
  5
1D00
  8
0
 10
-62.00000000000002
 20
12.50000000000011
 30
-11.00000000004727
 40
7.500000000000102
210
1.936681079913115E-15
220
-7.559815221997883E-17
230
-1.0
  0
CIRCLE
  5
1D01
  8
0
 10
-127.0
 20
6.5
 30
-0.0000000002729362
 40
3.000000000000039
210
1.954168599807794E-15
220
-2.938062167172333E-17
230
-1.0
  0
LINE
  5
1D02
  8
0
 10
0.0
 20
134.0000000000002
 30
0.0
 11
423.0
 21
134.0000000000002
 31
0.0000000000008516
  0
LINE
  5
1D03
  8
0
 10
137.0
 20
15.30000000000018
 30
0.0000000000002764
 11
186.0
 21
15.30000000000018
 31
0.0000000000003751
  0
CIRCLE
  5
1D04
  8
0
 10
-196.0
 20
6.5
 30
-0.0000000000880495
 40
3.000000000000042
210
2.136623987936342E-15
220
-5.921400628764304E-17
230
-1.0
  0
LINE
  5
1D05
  8
0
 10
137.0
 20
0.0
 30
0.0000000000002764
 11
137.0
 21
15.30000000000018
 31
0.0000000000002764
  0
LINE
  5
1D06
  8
0
 10
423.0
 20
134.0000000000002
 30
0.0000000000008516
 11
423.0
 21
-0.0000000000001137
 31
0.0000000000008516
  0
LINE
  5
1D07
  8
0
 10
423.0
 20
-0.0000000000001137
 30
0.0000000000008516
 11
186.0
 21
0.0
 31
0.0000000000003751
  0
LINE
  5
1D08
  8
0
 10
186.0
 20
0.0
 30
0.0000000000003751
 11
186.0
 21
15.30000000000018
 31
0.0000000000003751
  0
LINE
  5
1D09
  8
0
 10
137.0
 20
0.0
 30
0.0000000000002764
 11
0.0
 21
0.0
 31
0.0
  0
LINE
  5
1D0A
  8
0
 10
0.0
 20
0.0
 30
0.0
 11
0.0
 21
134.0000000000002
 31
0.0
  0
CIRCLE
  5
1D0B
  8
0
 10
-33.00000000000011
 20
126.5000000000002
 30
-0.0000000000000052
 40
2.999999999999989
210
1.879977655031935E-15
220
3.253724281355418E-18
230
-1.0
  0
CIRCLE
  5
1D0C
  8
0
 10
-33.00000000000011
 20
81.49999999999989
 30
-0.0000000000000025
 40
2.999999999999998
210
1.943017724334103E-15
220
1.223501214508508E-17
230
-1.0
  0
CIRCLE
  5
1D0D
  8
0
 10
-210.0000000000002
 20
89.99999999999943
 30
0.0000000000966943
 40
3.00000000000004
210
2.089824805739249E-15
220
-1.402725676056816E-16
230
-1.0
  0
LINE
  5
1D0E
  8
0
 10
137.0
 20
-50.0
 30
0.0000000000002764
 11
0.0
 21
-50.0
 31
0.0
  0
LINE
  5
1D0F
  8
0
 10
423.0
 20
-50.00000000000011
 30
0.0000000000008516
 11
186.0
 21
-50.0
 31
0.0000000000003751
  0
LINE
  5
1D10
  8
0
 10
137.0
 20
-35.0
 30
0.0000000000002764
 11
0.0
 21
-35.0
 31
0.0
  0
LINE
  5
1D11
  8
0
 10
423.0
 20
-35.00000000000011
 30
0.0000000000008516
 11
186.0
 21
-35.0
 31
0.0000000000003751
  0
LINE
  5
1D12
  8
0
  6
CONTINUOUS
 10
137.0
 20
-35.0
 30
0.0000000000002764
 11
137.0
 21
-50.0
 31
0.0000000000002764
  0
LINE
  5
1D13
  8
0
 10
137.0
 20
-50.0
 30
0.0000000000002764
 11
186.0
 21
-50.0
 31
0.0000000000003751
  0
LINE
  5
1D14
  8
0
  6
CONTINUOUS
 10
186.0
 20
-50.0
 30
0.0000000000003751
 11
186.0
 21
-35.0
 31
0.0000000000003751
  0
LINE
  5
1D15
  8
0
 10
186.0
 20
-35.0
 30
0.0000000000003751
 11
137.0
 21
-35.0
 31
0.0000000000002764
  0
LINE
  5
1D26
  8
0
 10
0.0
 20
-35.0
 30
0.0
 11
0.0
 21
-50.0
 31
0.0
  0
LINE
  5
1D28
  8
0
 10
423.0
 20
-35.00000000000011
 30
0.0000000000008516
 11
423.0
 21
-50.00000000000011
 31
0.0000000000008516
  0
LINE
  5
1D2A
  8
0
  6
AVEVASHORTDASHED
 10
387.0000000000003
 20
-35.0000000000001
 30
0.0000000000007796
 11
387.0000000000003
 21
-50.00000000000009
 31
0.0000000000007796
  0
LINE
  5
1D2B
  8
0
  6
AVEVASHORTDASHED
 10
381.0000000000003
 20
-35.00000000000009
 30
0.0000000000007657
 11
381.0000000000003
 21
-50.00000000000007
 31
0.0000000000007657
  0
LINE
  5
1D2C
  8
0
  6
AVEVASHORTDASHED
 10
374.0000000000005
 20
-35.00000000000007
 30
0.0000000000007523
 11
374.0000000000005
 21
-50.00000000000007
 31
0.0000000000007523
  0
LINE
  5
1D2D
  8
0
  6
AVEVASHORTDASHED
 10
368.0000000000005
 20
-35.00000000000007
 30
0.0000000000007423
 11
368.0000000000005
 21
-50.00000000000007
 31
0.0000000000007423
  0
LINE
  5
1D2E
  8
0
  6
AVEVASHORTDASHED
 10
325.9999999999998
 20
-35.00000000000007
 30
0.0000000000006099
 11
325.9999999999998
 21
-50.00000000000007
 31
0.0000000000006099
  0
LINE
  5
1D2F
  8
0
  6
AVEVASHORTDASHED
 10
319.9999999999998
 20
-35.00000000000006
 30
0.000000000000597
 11
319.9999999999998
 21
-50.00000000000006
 31
0.000000000000597
  0
LINE
  5
1D30
  8
0
  6
AVEVASHORTDASHED
 10
213.0000000000003
 20
-35.00000000000001
 30
-0.0000000000962618
 11
213.0000000000003
 21
-50.0
 31
-0.0000000000962618
  0
LINE
  5
1D31
  8
0
  6
AVEVASHORTDASHED
 10
207.0000000000002
 20
-35.00000000000001
 30
-0.0000000000962743
 11
207.0000000000002
 21
-50.00000000000003
 31
-0.0000000000962743
  0
LINE
  5
1D32
  8
0
  6
AVEVASHORTDASHED
 10
199.0
 20
-35.0
 30
0.0000000000884744
 11
199.0
 21
-50.00000000000001
 31
0.0000000000884744
  0
LINE
  5
1D33
  8
0
  6
AVEVASHORTDASHED
 10
193.0
 20
-35.0
 30
0.0000000000884615
 11
193.0
 21
-50.00000000000001
 31
0.0000000000884615
  0
LINE
  5
1D34
  8
0
  6
AVEVASHORTDASHED
 10
130.0
 20
-35.0
 30
0.0000000002731901
 11
130.0
 21
-50.0
 31
0.0000000002731901
  0
LINE
  5
1D35
  8
0
  6
AVEVASHORTDASHED
 10
124.0
 20
-35.0
 30
0.0000000002731784
 11
124.0
 21
-50.0
 31
0.0000000002731784
  0
LINE
  5
1D36
  8
0
  6
AVEVASHORTDASHED
 10
36.00000000000011
 20
-35.0
 30
0.0000000000000717
 11
36.00000000000011
 21
-50.0
 31
0.0000000000000717
  0
LINE
  5
1D37
  8
0
  6
AVEVASHORTDASHED
 10
30.00000000000012
 20
-35.0
 30
0.0000000000000637
 11
30.00000000000012
 21
-49.99999999999999
 31
0.0000000000000637
  0
LINE
  5
1D38
  8
0
  6
AVEVASHORTDASHED
 10
13.00000000000034
 20
-35.0
 30
0.0000000000000262
 11
13.00000000000034
 21
-50.00000000000001
 31
0.0000000000000262
  0
LINE
  5
1D39
  8
0
  6
AVEVASHORTDASHED
 10
7.000000000000341
 20
-35.0
 30
0.0000000000000132
 11
7.000000000000341
 21
-50.0
 31
0.0000000000000132
  0
LINE
  5
1D3E
  8
0
  6
AVEVASHORTDASHED
 10
65.00000000000095
 20
-42.0
 30
-1.764705882385661
 11
65.00000000000095
 21
-50.0
 31
-1.764705882352802
  0
LINE
  5
1D3F
  8
0
  6
AVEVASHORTDASHED
 10
54.49999999999994
 20
-42.0
 30
-1.764705882352802
 11
69.50000000000014
 21
-42.0
 31
-1.764705882352802
  0
LINE
  5
1D40
  8
0
  6
AVEVASHORTDASHED
 10
59.00000000000004
 20
-42.0
 30
-0.8235294117645813
 11
59.00000000000004
 21
-50.0
 31
-1.764705882352802
  0
LINE
  5
1D41
  8
0
  6
AVEVASHORTDASHED
 10
69.50000000000014
 20
-35.0
 30
0.0000000000001039
 11
69.50000000000014
 21
-42.0
 31
-0.8235294117645839
  0
LINE
  5
1D42
  8
0
  6
AVEVASHORTDASHED
 10
54.49999999999994
 20
-35.0
 30
0.0000000000001137
 11
54.49999999999994
 21
-42.0
 31
-0.8235294117645795
  0
LINE
  5
1D43
  8
0
  6
AVEVASHORTDASHED
 10
105.000000000001
 20
-42.0
 30
-1.764705882385584
 11
105.000000000001
 21
-50.0
 31
-1.764705882352725
  0
LINE
  5
1D44
  8
0
  6
AVEVASHORTDASHED
 10
94.49999999999996
 20
-42.0
 30
-1.764705882352725
 11
109.5000000000001
 21
-42.0
 31
-1.764705882352725
  0
LINE
  5
1D45
  8
0
  6
AVEVASHORTDASHED
 10
99.00000000000006
 20
-42.0
 30
-0.8235294117645043
 11
99.00000000000006
 21
-50.0
 31
-1.764705882352725
  0
LINE
  5
1D46
  8
0
  6
AVEVASHORTDASHED
 10
109.5000000000001
 20
-35.0
 30
0.0000000000001809
 11
109.5000000000001
 21
-42.0
 31
-0.823529411764507
  0
LINE
  5
1D47
  8
0
  6
AVEVASHORTDASHED
 10
94.49999999999996
 20
-35.0
 30
0.0000000000001907
 11
94.49999999999996
 21
-42.0
 31
-0.8235294117645026
  0
LINE
  5
1D48
  8
0
  6
AVEVASHORTDASHED
 10
225.0000000000011
 20
-42.0
 30
-1.764705882385345
 11
225.0000000000011
 21
-50.0
 31
-1.764705882352486
  0
LINE
  5
1D49
  8
0
  6
AVEVASHORTDASHED
 10
214.5000000000001
 20
-42.0
 30
-1.764705882352486
 11
229.5000000000003
 21
-42.0
 31
-1.764705882352486
  0
LINE
  5
1D4A
  8
0
  6
AVEVASHORTDASHED
 10
219.0000000000002
 20
-42.0
 30
-0.8235294117642651
 11
219.0000000000002
 21
-50.0
 31
-1.764705882352486
  0
LINE
  5
1D4B
  8
0
  6
AVEVASHORTDASHED
 10
229.5000000000003
 20
-35.0
 30
0.0000000000004201
 11
229.5000000000003
 21
-42.0
 31
-0.8235294117642677
  0
LINE
  5
1D4C
  8
0
  6
AVEVASHORTDASHED
 10
214.5000000000001
 20
-35.0
 30
0.0000000000004299
 11
214.5000000000001
 21
-42.0
 31
-0.8235294117642633
  0
LINE
  5
1D4D
  8
0
  6
AVEVASHORTDASHED
 10
265.000000000001
 20
-42.00000000000006
 30
-1.764705882385262
 11
265.000000000001
 21
-50.00000000000006
 31
-1.764705882352403
  0
LINE
  5
1D4E
  8
0
  6
AVEVASHORTDASHED
 10
254.4999999999999
 20
-42.00000000000006
 30
-1.764705882352403
 11
269.5000000000001
 21
-42.00000000000006
 31
-1.764705882352403
  0
LINE
  5
1D4F
  8
0
  6
AVEVASHORTDASHED
 10
259.0000000000001
 20
-42.00000000000006
 30
-0.8235294117641822
 11
259.0000000000001
 21
-50.00000000000006
 31
-1.764705882352403
  0
LINE
  5
1D50
  8
0
  6
AVEVASHORTDASHED
 10
269.5000000000001
 20
-35.00000000000006
 30
0.000000000000503
 11
269.5000000000001
 21
-42.00000000000006
 31
-0.8235294117641848
  0
LINE
  5
1D51
  8
0
  6
AVEVASHORTDASHED
 10
254.4999999999999
 20
-35.00000000000006
 30
0.0000000000005128
 11
254.4999999999999
 21
-42.00000000000006
 31
-0.8235294117641804
  0
CIRCLE
  5
1DC1
  8
0
 10
-10.04268953762892
 20
372.8190049720309
 30
0.0000000000000412
 40
3.0
210
2.175401231199696E-15
220
1.046906892002465E-16
230
-1.0
  0
CIRCLE
  5
1DC2
  8
0
 10
-10.04268953762892
 20
418.8190049720306
 30
-0.0000000000000384
 40
2.999999999999997
210
1.950716118640701E-15
220
1.649578654383610E-17
230
-1.0
  0
CIRCLE
  5
1DC3
  8
0
 10
-33.04268953762869
 20
336.3190049720309
 30
0.0000000000001238
 40
2.999999999999998
210
1.338156416317502E-15
220
4.377772465043576E-16
230
-1.0
  0
CIRCLE
  5
1DC5
  8
0
 10
-33.04268953762869
 20
381.3190049720301
 30
0.0000000000001879
 40
2.999999999999993
210
1.889625147665894E-15
220
5.063235323147082E-16
230
-1.0
  0
CIRCLE
  5
1DC9
  8
0
 10
-102.0426895376286
 20
410.3190049720311
 30
-10.9999999999644
 40
7.500000000000099
210
1.879977655031907E-15
220
-3.453462926555057E-31
230
-1.0
  0
CIRCLE
  5
1DCA
  8
0
 10
102.0426895376286
 20
381.3190049720312
 30
10.99999999999238
 40
7.500000000000098
  0
CIRCLE
  5
1DCB
  8
0
 10
-102.0426895376285
 20
341.3190049720313
 30
-11.0000000000197
 40
7.499999999999917
210
1.974796887631989E-15
220
1.398860140649338E-16
230
-1.0
  0
CIRCLE
  5
1DCF
  8
0
 10
-102.0426895376286
 20
450.3190049720314
 30
-10.99999999993666
 40
7.500000000000102
210
1.974796887631989E-15
220
-1.398860140649346E-16
230
-1.0
  0
CIRCLE
  5
1DD0
  8
0
 10
-62.04268953762892
 20
450.3190049720324
 30
-10.99999999995989
 40
3.0
210
2.058957450688646E-14
220
7.107201707004924E-15
230
-1.0
  0
CIRCLE
  5
1DD1
  8
0
 10
-102.0426895376284
 20
410.3190049720321
 30
-10.99999999995672
 40
3.000000000000001
210
-1.805063590274775E-14
220
2.322603426380083E-14
230
-1.0
  0
CIRCLE
  5
1DD4
  8
0
 10
-102.0426895376286
 20
450.3190049720314
 30
-10.99999999993641
 40
2.999999999999997
210
2.214201044736791E-15
220
3.497388385859783E-16
230
-1.0
  0
CIRCLE
  5
1DD5
  8
0
 10
-62.04268953762871
 20
410.3190049720311
 30
-10.99999999982472
 40
2.999999999999997
210
1.985486776745474E-15
220
1.462616492034839E-16
230
-1.0
  0
CIRCLE
  5
1DD8
  8
0
 10
-62.04268953762858
 20
341.3190049720313
 30
0.0000000000003074
 40
2.999999999999997
210
2.178911969432793E-15
220
8.681342957760868E-16
230
-1.0
  0
CIRCLE
  5
1DDB
  8
0
 10
-102.0426895376286
 20
381.3190049720308
 30
-0.0000000000000588
 40
3.000000000000002
210
2.767998188079587E-15
220
-4.213867096022903E-29
230
-1.0
  0
CIRCLE
  5
1DDC
  8
0
 10
-62.04268953762869
 20
381.3190049720312
 30
-0.0000000000001969
 40
2.999999999999996
210
2.507384470913491E-15
220
-3.622334940407083E-16
230
-1.0
  0
CIRCLE
  5
1DDD
  8
0
 10
-102.0426895376286
 20
410.3190049720314
 30
0.0000000000009289
 40
2.999999999999998
210
2.491817825275150E-15
220
2.035914847765255E-15
230
-1.0
  0
CIRCLE
  5
1DDE
  8
0
 10
-62.04268953762858
 20
450.3190049720314
 30
0.0000000000001612
 40
3.0
210
2.403606926027618E-15
220
3.023175005649623E-16
230
-1.0
  0
CIRCLE
  5
1DDF
  8
0
 10
-102.0426895376286
 20
450.3190049720314
 30
0.0000000000000218
 40
2.999999999999997
210
2.231661259819009E-15
220
-4.099495227927749E-31
230
-1.0
  0
CIRCLE
  5
1DE0
  8
0
 10
-62.04268953762869
 20
410.3190049720314
 30
-0.0000000000000758
 40
2.999999999999997
210
2.340151121764716E-15
220
-3.461064397351867E-16
230
-1.0
  0
CIRCLE
  5
1DE7
  8
0
 10
-62.0426895376286
 20
381.3190049720315
 30
-10.99999999928068
 40
2.999999999999998
210
2.003148327330764E-15
220
9.130904802332097E-18
230
-1.0
  0
CIRCLE
  5
1DEC
  8
0
 10
102.0426895376285
 20
341.3190049720313
 30
0.000000000000251
 40
2.999999999999858
  0
CIRCLE
  5
1DED
  8
0
 10
102.0426895376285
 20
341.3190049720313
 30
11.00000000001995
 40
2.999999999999858
  0
CIRCLE
  5
1DEE
  8
0
 10
-102.0426895376286
 20
381.3190049720312
 30
-10.99999999999241
 40
3.000000000000001
210
7.778645577751656E-16
220
-2.781458414127994E-16
230
-1.0
  0
CIRCLE
  5
1DEF
  8
0
 10
-62.0426895376286
 20
341.3190049720313
 30
-11.0000000000473
 40
2.999999999999997
210
2.051539024039773E-15
220
-9.905100257922591E-17
230
-1.0
  0
CIRCLE
  5
1DF7
  8
0
 10
-62.04268953762871
 20
450.3190049720323
 30
-10.99999999996422
 40
7.500000000000098
210
1.979203837857800E-15
220
5.728826336518688E-17
230
-1.0
  0
CIRCLE
  5
1DF8
  8
0
 10
-62.04268953762871
 20
410.3190049720311
 30
-10.99999999982479
 40
7.500000000000099
210
1.950716118640678E-15
220
-1.649578654384092E-17
230
-1.0
  0
CIRCLE
  5
1DF9
  8
0
 10
-62.04268953762871
 20
381.3190049720312
 30
-10.99999999985276
 40
7.500000000000099
210
1.968367375057534E-15
220
-2.535252250319360E-17
230
-1.0
  0
CIRCLE
  5
1DFA
  8
0
 10
-62.0426895376286
 20
341.3190049720313
 30
-11.0000000000473
 40
7.500000000000102
210
1.936681079913115E-15
220
-7.559815221997883E-17
230
-1.0
  0
CIRCLE
  5
1DFB
  8
0
 10
-127.0426895376286
 20
335.3190049720312
 30
-0.0000000002729458
 40
3.000000000000039
210
1.954168599807794E-15
220
-2.938062167172333E-17
230
-1.0
  0
LINE
  5
1DFC
  8
0
 10
0.0426895376285756
 20
462.8190049720314
 30
0.0
 11
220.0426895376286
 21
462.8190049720313
 31
0.0000000000004429
  0
LINE
  5
1DFD
  8
0
 10
137.0426895376286
 20
344.1190049720313
 30
0.0000000000002764
 11
186.0426895376286
 21
344.1190049720313
 31
0.0000000000003751
  0
CIRCLE
  5
1DFE
  8
0
 10
-196.0426895376286
 20
335.3190049720312
 30
-0.0000000000880689
 40
3.000000000000042
210
2.136623987936342E-15
220
-5.921400628764304E-17
230
-1.0
  0
LINE
  5
1DFF
  8
0
 10
137.0426895376286
 20
328.8190049720312
 30
0.0000000000002764
 11
137.0426895376286
 21
344.1190049720313
 31
0.0000000000002764
  0
LINE
  5
1E01
  8
0
 10
220.0426895376286
 20
328.8190049720312
 30
0.0000000000004435
 11
186.0426895376286
 21
328.8190049720312
 31
0.0000000000003751
  0
LINE
  5
1E02
  8
0
 10
186.0426895376286
 20
328.8190049720312
 30
0.0000000000003751
 11
186.0426895376286
 21
344.1190049720313
 31
0.0000000000003751
  0
LINE
  5
1E03
  8
0
 10
137.0426895376286
 20
328.8190049720312
 30
0.0000000000002764
 11
0.0426895376285756
 21
328.8190049720312
 31
0.0
  0
LINE
  5
1E04
  8
0
 10
0.0426895376285756
 20
328.8190049720312
 30
0.0
 11
0.0426895376285756
 21
462.8190049720314
 31
0.0
  0
CIRCLE
  5
1E05
  8
0
 10
-33.04268953762869
 20
455.3190049720314
 30
-0.0000000000000041
 40
2.999999999999989
210
1.879977655031935E-15
220
3.253724281355418E-18
230
-1.0
  0
CIRCLE
  5
1E06
  8
0
 10
-33.04268953762869
 20
410.3190049720311
 30
0.0000000000000016
 40
2.999999999999998
210
1.943017724334103E-15
220
1.223501214508508E-17
230
-1.0
  0
CIRCLE
  5
1E07
  8
0
 10
-210.0426895376288
 20
418.8190049720306
 30
0.0000000000966483
 40
3.00000000000004
210
2.089824805739249E-15
220
-1.402725676056816E-16
230
-1.0
  0
CIRCLE
  5
1E61
  8
0
 10
-171.0426895376291
 20
567.4957962164683
 30
-0.000000000096595
 40
2.999999999999999
210
1.678510484549289E-15
220
3.491655361970004E-16
230
-1.0
  0
CIRCLE
  5
1E62
  8
0
 10
-171.0426895376291
 20
613.4957962164683
 30
-0.0000000000967983
 40
3.0
210
1.949089256500020E-15
220
-1.042425437791236E-17
230
-1.0
  0
CIRCLE
  5
1E63
  8
0
 10
-123.0426895376285
 20
575.9957962164692
 30
-0.0000000001873686
 40
3.00000000000004
210
1.317124011935641E-15
220
4.013480535095750E-16
230
-1.0
  0
CIRCLE
  5
1E64
  8
0
 10
-123.0426895376285
 20
530.9957962164694
 30
-0.0000000000966887
 40
2.999999999999999
210
2.152210620220622E-15
220
-3.221716725262979E-17
230
-1.0
  0
CIRCLE
  5
1E65
  8
0
 10
-184.0426895376291
 20
613.4957962164683
 30
-0.0000000000967447
 40
2.999999999999992
210
1.879977655031907E-15
220
2.428612866367496E-17
230
-1.0
  0
CIRCLE
  5
1E66
  8
0
 10
-184.042689537629
 20
567.4957962164683
 30
-0.0000000000964831
 40
2.999999999999993
210
2.311198435755160E-15
220
3.474914609494141E-16
230
-1.0
  0
CIRCLE
  5
1E67
  8
0
 10
-22.04268953762883
 20
575.995796216469
 30
-11.00000000002598
 40
7.500000000000099
210
2.132308015624843E-15
220
-3.216161560510688E-17
230
-1.0
  0
CIRCLE
  5
1E68
  8
0
 10
-22.04268953762871
 20
604.9957962164692
 30
-11.00000000005351
 40
7.500000000000098
210
2.073202720609393E-15
220
1.055225774152841E-16
230
-1.0
  0
CIRCLE
  5
1E69
  8
0
 10
-22.04268953762894
 20
644.9957962164701
 30
-11.00000000008128
 40
7.500000000000098
210
2.012279232133096E-15
220
-3.696496980933734E-31
230
-1.0
  0
CIRCLE
  5
1E6A
  8
0
 10
-62.0426895376284
 20
604.9957962164698
 30
-11.00000000005587
 40
2.999999999999997
210
-1.616437732643177E-14
220
1.075256281540243E-14
230
-1.0
  0
CIRCLE
  5
1E6B
  8
0
 10
-62.04268953762896
 20
644.9957962164701
 30
-11.00000000003194
 40
2.999999999999998
210
3.606288332926432E-15
220
2.486319309307619E-15
230
-1.0
  0
CIRCLE
  5
1E6C
  8
0
 10
-123.0426895376287
 20
649.9957962164692
 30
-0.0000000000969939
 40
2.999999999999991
210
1.663113695936011E-15
220
-3.337687475838649E-16
230
-1.0
  0
CIRCLE
  5
1E6D
  8
0
 10
-123.0426895376286
 20
604.9957962164681
 30
-0.0000000000964294
 40
2.999999999999999
210
2.092038295389939E-15
220
4.125880711942123E-16
230
-1.0
  0
CIRCLE
  5
1E6E
  8
0
 10
-22.04268953762892
 20
575.9957962164686
 30
-0.0000000000963541
 40
2.999999999999997
210
3.684842510356892E-15
220
9.873505748861118E-16
230
-1.0
  0
CIRCLE
  5
1E6F
  8
0
 10
-22.04268953762869
 20
535.9957962164683
 30
-0.0000000000967846
 40
2.999999999999997
210
3.819639659155884E-15
220
-7.016564223722311E-31
230
-1.0
  0
CIRCLE
  5
1E70
  8
0
 10
-22.04268953762892
 20
604.9957962164692
 30
-0.000000000087662
 40
2.999999999999999
210
-1.648437346009940E-15
220
1.512867123202636E-14
230
-1.0
  0
CIRCLE
  5
1E71
  8
0
 10
-62.0426895376288
 20
604.9957962164692
 30
-0.0000000001017758
 40
2.999999999999999
210
-1.733511467655573E-14
220
-6.272650953105255E-15
230
-1.0
  0
CIRCLE
  5
1E72
  8
0
 10
-62.0426895376288
 20
644.9957962164692
 30
-0.0000000000960171
 40
3.0
210
1.599762086086858E-15
220
1.293282494068516E-15
230
-1.0
  0
CIRCLE
  5
1E73
  8
0
 10
-22.04268953762892
 20
644.9957962164692
 30
-0.0000000000967687
 40
2.999999999999997
210
2.819966482547860E-15
220
5.878323715234139E-17
230
-1.0
  0
CIRCLE
  5
1E74
  8
0
 10
-22.04268953762871
 20
604.9957962164692
 30
-11.00000000005357
 40
3.0
210
1.657015262448985E-15
220
4.257812007017010E-17
230
-1.0
  0
CIRCLE
  5
1E75
  8
0
 10
-22.04268953762894
 20
644.9957962164701
 30
-11.00000000008128
 40
2.999999999999998
210
1.950716118640698E-15
220
1.649578654383049E-17
230
-1.0
  0
CIRCLE
  5
1E76
  8
0
 10
62.04268953762858
 20
535.9957962164683
 30
10.99999999999835
 40
2.999999999999859
  0
CIRCLE
  5
1E77
  8
0
 10
62.04268953762869
 20
535.9957962164683
 30
0.0000000000969956
 40
2.999999999999858
  0
CIRCLE
  5
1E78
  8
0
 10
62.0426895376288
 20
575.9957962164683
 30
0.000000000097131
 40
3.000000000000039
  0
CIRCLE
  5
1E79
  8
0
 10
62.0426895376288
 20
575.9957962164685
 30
10.99999999997069
 40
3.00000000000004
  0
CIRCLE
  5
1E7A
  8
0
 10
-22.04268953762879
 20
535.9957962164686
 30
-10.99999999998394
 40
2.999999999999997
210
8.964111361114142E-15
220
2.619084316502129E-14
230
-1.0
  0
CIRCLE
  5
1E7B
  8
0
 10
-22.04268953762887
 20
575.9957962164689
 30
-11.00000000002987
 40
2.999999999999996
210
6.177588675136261E-15
220
-6.939942143534283E-15
230
-1.0
  0
CIRCLE
  5
1E7C
  8
0
 10
-62.04268953762882
 20
644.9957962164701
 30
-11.00000000003352
 40
7.500000000000098
210
1.979203837857800E-15
220
5.728826336518710E-17
230
-1.0
  0
CIRCLE
  5
1E7D
  8
0
 10
-62.0426895376286
 20
604.9957962164697
 30
-11.00000000006128
 40
7.500000000000098
210
2.023454289780933E-15
220
-4.170588291923444E-17
230
-1.0
  0
CIRCLE
  5
1E7E
  8
0
 10
-62.04268953762882
 20
575.9957962164685
 30
-10.99999999997057
 40
7.500000000000099
210
1.950716118640678E-15
220
-1.649578654384092E-17
230
-1.0
  0
CIRCLE
  5
1E7F
  8
0
 10
-62.0426895376286
 20
535.9957962164683
 30
-10.99999999999827
 40
7.49999999999992
210
1.936681079913133E-15
220
-7.559815221996313E-17
230
-1.0
  0
CIRCLE
  5
1E80
  8
0
 10
-22.04268953762871
 20
535.9957962164683
 30
-10.99999999999813
 40
7.499999999999918
210
2.012279232133097E-15
220
-3.696496980933736E-31
230
-1.0
  0
LINE
  5
1E81
  8
0
 10
4.042689537628888
 20
657.4957962164692
 30
0.0000000000967436
 11
223.0426895376287
 21
657.4957962164692
 31
0.0000000000971845
  0
LINE
  5
1E82
  8
0
 10
223.0426895376287
 20
657.4957962164692
 30
0.0000000000971845
 11
223.0426895376287
 21
523.4957962164689
 31
0.0000000000971845
  0
LINE
  5
1E83
  8
0
 10
223.0426895376287
 20
523.4957962164689
 30
0.0000000000971845
 11
4.04268953762886
 21
523.495796216469
 31
0.0000000000967442
  0
CIRCLE
  5
1E84
  8
0
 10
-10.04268953762892
 20
613.4957962164684
 30
-0.00000000000013
 40
3.00000000000004
210
2.089824805739249E-15
220
-1.402725676056816E-16
230
-1.0
  0
LINE
  5
1E86
  8
0
  6
AVEVASHORTDASHED
 10
0.0426895376285756
 20
523.495796216469
 30
0.0
 11
0.0426895376285756
 21
535.4421735712187
 31
0.0
  0
LINE
  5
1E8D
  8
0
  6
AVEVASHORTDASHED
 10
0.0426895376285756
 20
523.495796216469
 30
0.0000000000967362
 11
-13.95731046237131
 21
523.495796216469
 31
0.000000000096708
  0
TEXT
  5
1EC4
  8
-300
  6
CONTINUOUS
 62
     7
 10
-221.1972444554907
 20
400.3344962578707
 30
0.0
 40
30.0
  1
Parte 1
  0
TEXT
  5
1EEB
  8
-300
  6
CONTINUOUS
 62
     7
 10
-215.9047396290277
 20
586.5878043145115
 30
0.0
 40
30.0
  1
Parte 2
  0
LINE
  5
1EEC
  8
0
  6
AVEVASHORTDASHED
 10
6.672169554953584
 20
422.864086393406
 30
0.0000000000000649
 11
-26.2903686702786
 21
453.0396015792993
 31
0.0
  0
LINE
  5
1EED
  8
0
  6
AVEVASHORTDASHED
 10
-26.2903686702786
 20
453.0396015792993
 30
0.0
 11
-83.08088355858719
 21
453.0396015792993
 31
0.0
  0
TEXT
  5
1F14
  8
-300
  6
CONTINUOUS
 62
     7
 10
-82.16472726604978
 20
455.0643718427496
 30
0.0
 40
3.75
  1
Ponto Referencia
  0
LINE
  5
1F3D
  8
0
  6
AVEVASHORTDASHED
 10
6.691645671498918
 20
617.7394798837074
 30
0.0000000000000649
 11
-26.27089255373326
 21
647.9149950696008
 31
0.0
  0
LINE
  5
1F3E
  8
0
  6
AVEVASHORTDASHED
 10
-26.27089255373326
 20
647.9149950696008
 30
0.0
 11
-83.06140744204185
 21
647.9149950696008
 31
0.0
  0
TEXT
  5
1F3F
  8
-300
  6
CONTINUOUS
 62
     7
 10
-82.14525114950445
 20
649.9397653330509
 30
0.0
 40
3.75
  1
Ponto Referencia
  0
LINE
  5
2072
  8
-300
  6
AVEVASOLIDXWIDE
 62
    92
 10
307.7874090472303
 20
-87.93593499299595
 30
0.0
 11
404.3873846331679
 21
-87.93593499299595
 31
0.0
  0
LINE
  5
2073
  8
-300
  6
AVEVASOLIDXWIDE
 62
    92
 10
307.7874090472303
 20
-87.93593499299595
 30
0.0
 11
440.6716490570431
 21
-87.93593499299595
 31
0.0
  0
TEXT
  5
2074
  8
-300
  6
CONTINUOUS
 62
    92
 10
341.0017821044023
 20
-108.4054927430519
 30
0.0
 40
3.125
  1
Verif:
  0
TEXT
  5
2075
  8
-300
  6
CONTINUOUS
 62
    92
 10
308.7358912135114
 20
-108.3523143264552
 30
0.0
 40
3.125
  1
Exec:
  0
TEXT
  5
2076
  8
-300
  6
CONTINUOUS
 62
    92
 10
308.4023164961831
 20
-97.3390359604032
 30
0.0
 40
3.125
  1
Material:
  0
TEXT
  5
2077
  8
-300
  6
CONTINUOUS
 62
    92
 10
403.4475232504004
 20
-94.68391320344517
 30
0.0
 40
3.125
  1
Rev:
  0
TEXT
  5
2078
  8
-300
  6
CONTINUOUS
 62
    92
 10
403.4537795066566
 20
-104.6839132034452
 30
0.0
 40
3.125
  1
Data:
  0
TEXT
  5
2079
  8
-300
  6
CONTINUOUS
 62
    92
 10
373.020550873171
 20
-108.3833347267048
 30
0.0
 40
3.125
  1
Aprov:
  0
TEXT
  5
207A
  8
-300
  6
CONTINUOUS
 62
     7
 10
326.644356019873
 20
-108.3182128402492
 30
0.0
 40
3.125
  1
DR
  0
TEXT
  5
207B
  8
-300
  6
CONTINUOUS
 62
     7
 10
358.6443560198731
 20
-108.3182149860163
 30
0.0
 40
3.125
  1
DR
  0
TEXT
  5
207C
  8
-300
  6
CONTINUOUS
 62
     7
 10
390.6443560198731
 20
-108.3492351478475
 30
0.0
 40
3.125
  1
DR
  0
TEXT
  5
207D
  8
-300
  6
CONTINUOUS
 62
     7
 10
421.5477715342104
 20
-94.81367615178017
 30
0.0
 40
3.130000114440918
  1
0
  0
TEXT
  5
207E
  8
-300
  6
CONTINUOUS
 62
     7
 10
418.0015730596028
 20
-104.8543237043162
 30
0.0
 40
3.125
  1
03/05/15
  0
LINE
  5
207F
  8
-300
  6
AVEVASOLID
 62
    92
 10
401.1249591702069
 20
-98.93593499299597
 30
0.0
 11
432.7140399807537
 21
-98.93593499299597
 31
0.0
  0
LINE
  5
2080
  8
-300
  6
AVEVASOLID
 62
    92
 10
307.7874090472303
 20
-87.93593499299595
 30
0.0
 11
307.7874090472303
 21
-109.9359354698331
 31
0.0
  0
LINE
  5
2081
  8
-300
  6
AVEVASOLID
 62
    92
 10
401.1249591702069
 20
-109.9359354698331
 30
0.0
 11
401.1249591702069
 21
-87.93593499299595
 31
0.0
  0
LINE
  5
2082
  8
-300
  6
AVEVASOLID
 62
    92
 10
401.1249591702069
 20
-98.93593499299597
 30
0.0
 11
440.6716490570431
 21
-98.93593499299597
 31
0.0
  0
LINE
  5
2083
  8
-300
  6
AVEVASOLID
 62
    92
 10
307.7874090472303
 20
-93.43593499299595
 30
0.0
 11
401.1249591702069
 21
-93.43593499299595
 31
0.0
  0
LINE
  5
2084
  8
-300
  6
AVEVASOLID
 62
    92
 10
307.7874090472303
 20
-93.43593499299595
 30
0.0
 11
401.1249591702069
 21
-93.43593499299595
 31
0.0
  0
LINE
  5
2085
  8
-300
  6
AVEVASOLID
 62
    92
 10
307.7874090472303
 20
-98.93593499299597
 30
0.0
 11
401.1249591702069
 21
-98.93593499299597
 31
0.0
  0
LINE
  5
2086
  8
-300
  6
AVEVASOLID
 62
    92
 10
307.7874090472303
 20
-98.93593499299597
 30
0.0
 11
401.1249591702069
 21
-98.93593499299597
 31
0.0
  0
LINE
  5
2087
  8
-300
  6
AVEVASOLID
 62
    92
 10
307.7874090472303
 20
-104.435934992996
 30
0.0
 11
401.1249591702069
 21
-104.435934992996
 31
0.0
  0
LINE
  5
2088
  8
-300
  6
AVEVASOLID
 62
    92
 10
307.7874090472303
 20
-104.435934992996
 30
0.0
 11
401.1249591702069
 21
-104.435934992996
 31
0.0
  0
TEXT
  5
2089
  8
-300
  6
CONTINUOUS
 62
     7
 10
332.774672312438
 20
-97.40241273172101
 30
0.0
 40
3.125
  1
MDF ou Alumínio 6061
  0
TEXT
  5
208A
  8
-300
  6
CONTINUOUS
 62
     7
 10
322.774672312438
 20
-91.90241273172101
 30
0.0
 40
3.125
  1
Fabricar-Y-mesa
  0
TEXT
  5
208B
  8
-300
  6
CONTINUOUS
 62
    92
 10
308.4023164961831
 20
-91.8390359604032
 30
0.0
 40
3.125
  1
Nome:
  0
LINE
  5
208C
  8
-300
  6
AVEVASOLIDXWIDE
 62
    92
 10
307.7874090472303
 20
-87.93593499299595
 30
0.0
 11
440.6716490570431
 21
-87.93593499299595
 31
0.0
  0
TEXT
  5
208D
  8
-300
  6
CONTINUOUS
 62
    92
 10
308.4023164961831
 20
-102.8390359604032
 30
0.0
 40
3.125
  1
Qtd:
  0
LINE
  5
208E
  8
-300
  6
AVEVASOLIDXWIDE
 62
    92
 10
307.7874090472303
 20
-87.93593499299595
 30
0.0
 11
401.1249591702069
 21
-87.93593499299595
 31
0.0
  0
LINE
  5
208F
  8
-300
  6
AVEVASOLID
 62
    92
 10
401.1249591702069
 20
-109.9359354698331
 30
0.0
 11
401.1249591702069
 21
-87.93593499299595
 31
0.0
  0
LINE
  5
2090
  8
-300
  6
AVEVASOLID
 62
    92
 10
307.7874090472303
 20
-87.93593499299595
 30
0.0
 11
307.7874090472303
 21
-109.9359354698331
 31
0.0
  0
LINE
  5
2091
  8
-300
  6
AVEVASOLIDXWIDE
 62
    92
 10
307.7874090472303
 20
-87.93593499299595
 30
0.0
 11
401.1249591702069
 21
-87.93593499299595
 31
0.0
  0
TEXT
  5
2092
  8
-300
  6
CONTINUOUS
 62
     7
 10
320.7687910746309
 20
-102.902412731721
 30
0.0
 40
3.125
  1
1
  0
VIEWPORT
  5
16EA
 67
     1
  8
0
 10
143.5
 20
95.0
 30
0.0
 40
462.0
 41
231.0
 68
     1
 69
     1
1001
ACAD
1000
MVIEW
1002
{
1070
    16
1010
0.0
1020
0.0
1030
0.0
1020
0.0
1030
0.0
1010
0.0
1020
0.0
1030
1.0
1020
0.0
1030
1.0
1040
0.0
1040
231.0
1040
143.5
1040
95.0
1040
50.0
1040
0.0
1040
0.0
1070
     0
1070
   100
1070
     1
1070
     0
1070
     0
1070
     0
1070
     0
1070
     0
1040
0.0
1040
0.0
1040
0.0
1040
10.0
1040
10.0
1040
10.0
1040
10.0
1070
     1
1002
{
1002
}
1002
}
  0
VIEWPORT
  5
16EC
 67
     1
  8
VIEWPORTS
 10
143.5
 20
95.0
 30
0.0
 40
287.0
 41
162.7319641113281
 68
     2
 69
     2
1001
ACAD
1000
MVIEW
1002
{
1070
    16
1010
0.0
1020
0.0
1030
0.0
1020
0.0
1030
0.0
1010
0.0
1020
0.0
1030
1.0
1020
0.0
1030
1.0
1040
0.0
1040
305.9693908691406
1040
209.806884765625
1040
148.4082946777344
1040
50.0
1040
0.0
1040
0.0
1070
     0
1070
   100
1070
     1
1070
     0
1070
     0
1070
     0
1070
     0
1070
     0
1040
0.0
1040
0.0
1040
0.0
1040
10.0
1040
10.0
1040
10.0
1040
10.0
1070
     1
1002
{
1002
}
1002
}
  0
ENDSEC
  0
EOF
