  0
SECTION
  2
HEADER
  9
$ACADVER
  1
AC1009
  9
$DWGCODEPAGE
  3
ansi_1252
  9
$INSBASE
 10
0.0
 20
0.0
 30
0.0
  9
$EXTMIN
 10
-82.92833266817274
 20
-118.3359353804262
 30
-1.764705882385775
  9
$EXTMAX
 10
337.0716521028405
 20
178.6640592998592
 30
8.000000000000107
  9
$LIMMIN
 10
0.0
 20
0.0
  9
$LIMMAX
 10
12.0
 20
9.0
  9
$ORTHOMODE
 70
     1
  9
$REGENMODE
 70
     1
  9
$FILLMODE
 70
     1
  9
$QTEXTMODE
 70
     0
  9
$MIRRTEXT
 70
     1
  9
$DRAGMODE
 70
     2
  9
$LTSCALE
 40
1.0
  9
$OSMODE
 70
   511
  9
$ATTMODE
 70
     1
  9
$TEXTSIZE
 40
2.5
  9
$TRACEWID
 40
0.05
  9
$TEXTSTYLE
  7
STANDARD
  9
$CLAYER
  8
0
  9
$CELTYPE
  6
BYLAYER
  9
$CECOLOR
 62
   256
  9
$DIMSCALE
 40
1.0
  9
$DIMASZ
 40
0.18
  9
$DIMEXO
 40
0.625
  9
$DIMDLI
 40
0.38
  9
$DIMRND
 40
0.0
  9
$DIMDLE
 40
0.38
  9
$DIMEXE
 40
0.18
  9
$DIMTP
 40
0.0
  9
$DIMTM
 40
0.0
  9
$DIMTXT
 40
0.18
  9
$DIMCEN
 40
0.09
  9
$DIMTSZ
 40
0.0
  9
$DIMTOL
 70
     0
  9
$DIMLIM
 70
     0
  9
$DIMTIH
 70
     1
  9
$DIMTOH
 70
     1
  9
$DIMSE1
 70
     0
  9
$DIMSE2
 70
     0
  9
$DIMTAD
 70
     0
  9
$DIMZIN
 70
     0
  9
$DIMBLK
  1

  9
$DIMASO
 70
     1
  9
$DIMSHO
 70
     1
  9
$DIMPOST
  1

  9
$DIMAPOST
  1

  9
$DIMALT
 70
     0
  9
$DIMALTD
 70
     2
  9
$DIMALTF
 40
25.4
  9
$DIMLFAC
 40
1.0
  9
$DIMTOFL
 70
     0
  9
$DIMTVP
 40
0.0
  9
$DIMTIX
 70
     0
  9
$DIMSOXD
 70
     0
  9
$DIMSAH
 70
     0
  9
$DIMBLK1
  1

  9
$DIMBLK2
  1

  9
$DIMSTYLE
  2
ISO-25
  9
$DIMCLRD
 70
     0
  9
$DIMCLRE
 70
     0
  9
$DIMCLRT
 70
     0
  9
$DIMTFAC
 40
1.0
  9
$DIMGAP
 40
0.09
  9
$LUNITS
 70
     2
  9
$LUPREC
 70
     4
  9
$SKETCHINC
 40
0.1
  9
$FILLETRAD
 40
0.5
  9
$AUNITS
 70
     0
  9
$AUPREC
 70
     0
  9
$MENU
  1

  9
$ELEVATION
 40
0.0
  9
$PELEVATION
 40
0.0
  9
$THICKNESS
 40
0.0
  9
$LIMCHECK
 70
     0
  9
$CHAMFERA
 40
0.5
  9
$CHAMFERB
 40
0.5
  9
$SKPOLY
 70
     0
  9
$TDCREATE
 40
2447892.875
  9
$TDUPDATE
 40
2457146.9846
  9
$TDINDWG
 40
0.0449541551
  9
$TDUSRTIMER
 40
2457147.104146458
  9
$USRTIMER
 70
     0
  9
$ANGBASE
 50
0.0
  9
$ANGDIR
 70
     0
  9
$PDMODE
 70
     0
  9
$PDSIZE
 40
0.0
  9
$PLINEWID
 40
0.0
  9
$COORDS
 70
     1
  9
$SPLFRAME
 70
     0
  9
$SPLINETYPE
 70
     6
  9
$SPLINESEGS
 70
     8
  9
$ATTDIA
 70
     0
  9
$ATTREQ
 70
     1
  9
$HANDLING
 70
     1
  9
$HANDSEED
  5
1BDA
  9
$SURFTAB1
 70
     6
  9
$SURFTAB2
 70
     6
  9
$SURFTYPE
 70
     6
  9
$SURFU
 70
     6
  9
$SURFV
 70
     6
  9
$UCSNAME
  2

  9
$UCSORG
 10
0.0
 20
0.0
 30
0.0
  9
$UCSXDIR
 10
1.0
 20
0.0
 30
0.0
  9
$UCSYDIR
 10
0.0
 20
1.0
 30
0.0
  9
$PUCSNAME
  2

  9
$PUCSORG
 10
0.0
 20
0.0
 30
0.0
  9
$PUCSXDIR
 10
1.0
 20
0.0
 30
0.0
  9
$PUCSYDIR
 10
0.0
 20
1.0
 30
0.0
  9
$USERI1
 70
     0
  9
$USERI2
 70
     0
  9
$USERI3
 70
     0
  9
$USERI4
 70
     0
  9
$USERI5
 70
     0
  9
$USERR1
 40
0.0
  9
$USERR2
 40
0.0
  9
$USERR3
 40
0.0
  9
$USERR4
 40
0.0
  9
$USERR5
 40
0.0
  9
$WORLDVIEW
 70
     1
  9
$SHADEDGE
 70
     3
  9
$SHADEDIF
 70
    70
  9
$TILEMODE
 70
     1
  9
$MAXACTVP
 70
    64
  9
$PLIMCHECK
 70
     0
  9
$PEXTMIN
 10
0.0
 20
0.0
 30
0.0
  9
$PEXTMAX
 10
0.0
 20
0.0
 30
0.0
  9
$PLIMMIN
 10
0.0
 20
0.0
  9
$PLIMMAX
 10
0.0
 20
0.0
  9
$UNITMODE
 70
     0
  9
$VISRETAIN
 70
     1
  9
$PLINEGEN
 70
     0
  9
$PSLTSCALE
 70
     1
  0
ENDSEC
  0
SECTION
  2
TABLES
  0
TABLE
  2
VPORT
 70
     1
  0
VPORT
  2
*ACTIVE
 70
     0
 10
0.0
 20
0.0
 11
1.0
 21
1.0
 12
-82.73522504829123
 22
-118.2442327180179
 13
0.0
 23
0.0
 14
0.0
 24
0.0
 15
0.0
 25
0.0
 16
0.0
 26
0.0
 36
1.0
 17
209.8068847656251
 27
148.4082946777344
 37
0.0
 40
302.9399945738911
 41
2.050393700787402
 42
50.0
 43
0.0
 44
0.0
 50
0.0
 51
0.0
 71
    16
 72
     0
 73
     0
 74
     1
 75
     1
 76
     0
 77
     0
 78
     0
  0
ENDTAB
  0
TABLE
  2
LTYPE
 70
     6
  0
LTYPE
  2
CONTINUOUS
 70
     0
  3
Solid line
 72
    65
 73
     0
 40
0.0
  0
LTYPE
  2
AVEVASOLID
 70
     0
  3
Aveva linetype
 72
    65
 73
     1
 40
2.25
 49
2.25
  0
LTYPE
  2
AVEVASOLIDXWIDE
 70
     0
  3
Aveva linetype
 72
    65
 73
     1
 40
2.25
 49
2.25
  0
LTYPE
  2
AVEVADASHEDDOTTED
 70
     0
  3
Aveva linetype
 72
    65
 73
     4
 40
7.771428571428572
 49
5.485714285714286
 49
-1.142857142857143
 49
0.0
 49
-1.142857142857143
  0
LTYPE
  2
AVEVADASHEDDOUBLEDOTTEDWID
 70
     0
  3
Aveva linetype
 72
    65
 73
     6
 40
19.0
 49
14.5
 49
-2.0
 49
0.0
 49
-0.5
 49
0.0
 49
-2.0
  0
LTYPE
  2
AVEVASHORTDASHED
 70
     0
  3
Aveva linetype
 72
    65
 73
     2
 40
2.0
 49
1.5
 49
-0.5
  0
ENDTAB
  0
TABLE
  2
LAYER
 70
    12
  0
LAYER
  2
0
 70
     0
 62
     7
  6
CONTINUOUS
  0
LAYER
  2
-11
 70
     0
 62
     7
  6
CONTINUOUS
  0
LAYER
  2
2001
 70
     0
 62
     7
  6
CONTINUOUS
  0
LAYER
  2
6001
 70
     0
 62
     7
  6
CONTINUOUS
  0
LAYER
  2
-1127
 70
     0
 62
     7
  6
CONTINUOUS
  0
LAYER
  2
-1128
 70
     0
 62
     7
  6
CONTINUOUS
  0
LAYER
  2
-1
 70
     0
 62
     7
  6
CONTINUOUS
  0
LAYER
  2
-203
 70
     0
 62
     7
  6
CONTINUOUS
  0
LAYER
  2
-1102
 70
     0
 62
     7
  6
CONTINUOUS
  0
LAYER
  2
-1109
 70
     0
 62
     7
  6
CONTINUOUS
  0
LAYER
  2
-300
 70
     0
 62
     7
  6
CONTINUOUS
  0
LAYER
  2
VIEWPORTS
 70
     0
 62
    -7
  6
CONTINUOUS
  0
ENDTAB
  0
TABLE
  2
STYLE
 70
     3
  0
STYLE
  2
STANDARD
 70
     0
 40
0.0
 41
1.0
 50
0.0
 71
     0
 42
2.5
  3
txt
  4

  0
STYLE
  2
AVEVATEXTSTYLE1
 70
     0
 40
0.0
 41
1.0
 50
0.0
 71
     0
 42
2.5
  3
Arial Narrow
  4

  0
STYLE
  2
AVEVATEXTSTYLE2
 70
     0
 40
0.0
 41
1.0
 50
0.0
 71
     0
 42
2.5
  3
Arial
  4

  0
ENDTAB
  0
TABLE
  2
VIEW
 70
     0
  0
ENDTAB
  0
TABLE
  2
UCS
 70
     0
  0
ENDTAB
  0
TABLE
  2
APPID
 70
     1
  0
APPID
  2
ACAD
 70
     0
  0
ENDTAB
  0
TABLE
  2
DIMSTYLE
 70
     2
  0
DIMSTYLE
  2
ISO-25
 70
     0
  3

  4

  5

  6

  7

 40
1.0
 41
2.5
 42
0.625
 43
0.3799999952316284
 44
0.1800000071525574
 45
0.0
 46
0.3799999952316284
 47
0.0
 48
0.0
140
2.5
141
0.0900000035762787
142
0.0
143
25.39999961853027
144
1.0
145
0.0
146
1.0
147
0.0900000035762787
 71
     0
 72
     0
 73
     1
 74
     1
 75
     0
 76
     0
 77
     1
 78
     0
170
     0
171
     3
172
     0
173
     0
174
     0
175
     0
176
     0
177
     0
178
     0
  0
DIMSTYLE
  2
STANDARD
 70
     0
  3

  4

  5

  6

  7

 40
1.0
 41
0.18
 42
0.0625
 43
0.38
 44
0.18
 45
0.0
 46
0.0
 47
0.0
 48
0.0
140
0.18
141
0.09
142
0.0
143
25.4
144
1.0
145
0.0
146
1.0
147
0.09
 71
     0
 72
     0
 73
     1
 74
     1
 75
     0
 76
     0
 77
     0
 78
     0
170
     0
171
     2
172
     0
173
     0
174
     0
175
     0
176
     0
177
     0
178
     0
  0
ENDTAB
  0
ENDSEC
  0
SECTION
  2
BLOCKS
  0
BLOCK
  8
0
  2
$MODEL_SPACE
 70
     0
 10
0.0
 20
0.0
 30
0.0
  3
$MODEL_SPACE
  1

  0
ENDBLK
  5
7
  8
0
  0
BLOCK
 67
     1
  8
0
  2
$PAPER_SPACE
 70
     0
 10
0.0
 20
0.0
 30
0.0
  3
$PAPER_SPACE
  1

  0
ENDBLK
  5
A
 67
     1
  8
0
  0
ENDSEC
  0
SECTION
  2
ENTITIES
  0
LINE
  5
65
  8
-11
  6
AVEVASOLID
 62
   253
 10
183.0716521028405
 20
171.6640592998592
 30
0.0
 11
330.0716521028405
 21
171.6640592998592
 31
0.0
  0
TEXT
  5
110
  8
-300
  6
CONTINUOUS
 62
    92
 10
198.4043458389073
 20
-104.336514203026
 30
0.0
 40
3.125
  1
Verif:
  0
TEXT
  5
113
  8
-300
  6
CONTINUOUS
 62
    92
 10
198.1384549480164
 20
-98.78333602484781
 30
0.0
 40
3.125
  1
Exec:
  0
TEXT
  5
118
  8
-300
  6
CONTINUOUS
 62
    92
 10
197.8023195419805
 20
-93.23903594550211
 30
0.0
 40
3.125
  1
Nome:
  0
TEXT
  5
119
  8
-300
  6
CONTINUOUS
 62
    92
 10
292.8475262961977
 20
-96.0839131885441
 30
0.0
 40
3.125
  1
Rev:
  0
TEXT
  5
11A
  8
-300
  6
CONTINUOUS
 62
    92
 10
292.853782552454
 20
-106.0839131885441
 30
0.0
 40
3.125
  1
Data:
  0
TEXT
  5
11F
  8
-300
  6
CONTINUOUS
 62
    92
 10
198.4231146076761
 20
-109.7833350711735
 30
0.0
 40
3.125
  1
Aprov:
  0
TEXT
  5
123
  8
-300
  6
CONTINUOUS
 62
     7
 10
216.0469197543781
 20
-98.74923453864176
 30
0.0
 40
3.125
  1
DR
  0
TEXT
  5
124
  8
-300
  6
CONTINUOUS
 62
     7
 10
216.0469197543781
 20
-104.2492364459904
 30
0.0
 40
3.125
  1
DR
  0
TEXT
  5
126
  8
-300
  6
CONTINUOUS
 62
     7
 10
216.0469197543781
 20
-109.7492354923161
 30
0.0
 40
3.125
  1
DR
  0
TEXT
  5
12C
  8
-300
  6
CONTINUOUS
 62
     7
 10
310.9477745800078
 20
-96.2136761368791
 30
0.0
 40
3.130000114440918
  1
0
  0
TEXT
  5
12D
  8
-300
  6
CONTINUOUS
 62
     7
 10
307.4015761054001
 20
-106.2543236894151
 30
0.0
 40
3.125
  1
03/05/15
  0
LINE
  5
131
  8
-300
  6
AVEVASOLIDXWIDE
 62
    92
 10
-62.73523266278448
 20
-111.2442353778752
 30
0.0
 11
-62.73523266278448
 21
171.7557646221248
 31
0.0
  0
LINE
  5
132
  8
-300
  6
AVEVASOLIDXWIDE
 62
    92
 10
-62.73523266278448
 20
171.7557646221248
 30
0.0
 11
330.0716521028405
 21
171.6640592998592
 31
0.0
  0
LINE
  5
133
  8
-300
  6
AVEVASOLIDXWIDE
 62
    92
 10
330.0716521028405
 20
171.6640592998592
 30
0.0
 11
330.0716521028405
 21
-111.335935454932
 31
0.0
  0
LINE
  5
134
  8
-300
  6
AVEVASOLIDXWIDE
 62
    92
 10
-62.73523266278448
 20
-111.2442353778752
 30
0.0
 11
330.0716521028405
 21
-111.335935454932
 31
0.0
  0
LINE
  5
136
  8
-300
  6
AVEVASOLID
 62
    92
 10
290.5249622160042
 20
-100.3359349780949
 30
0.0
 11
322.1140430265511
 21
-100.3359349780949
 31
0.0
  0
LINE
  5
13A
  8
-300
  6
AVEVASOLID
 62
    92
 10
-82.92833266817274
 20
178.6640592998592
 30
0.0
 11
-82.92833266817274
 21
-118.3359353804262
 31
0.0
  0
LINE
  5
13B
  8
-300
  6
AVEVASOLID
 62
    92
 10
-82.92833266817274
 20
-118.3359353804262
 30
0.0
 11
337.0716521028405
 21
-118.3359353804262
 31
0.0
  0
LINE
  5
13D
  8
-300
  6
AVEVASOLIDXWIDE
 62
    92
 10
337.0716521028405
 20
-118.3359353804262
 30
0.0
 11
337.0716521028405
 21
-108.3359349780949
 31
0.0
  0
LINE
  5
13E
  8
-300
  6
AVEVASOLIDXWIDE
 62
    92
 10
327.0716521028405
 20
-118.3359353804262
 30
0.0
 11
337.0716521028405
 21
-118.3359353804262
 31
0.0
  0
LINE
  5
13F
  8
-300
  6
AVEVASOLID
 62
    92
 10
337.0716521028405
 20
178.6640592998592
 30
0.0
 11
337.0716521028405
 21
-118.3359353804262
 31
0.0
  0
LINE
  5
142
  8
-300
  6
AVEVASOLID
 62
    92
 10
-82.92833266817274
 20
178.6640592998592
 30
0.0
 11
337.0716521028405
 21
178.6640592998592
 31
0.0
  0
LINE
  5
144
  8
-300
  6
AVEVASOLID
 62
    92
 10
197.1874120930276
 20
-89.33593497809488
 30
0.0
 11
197.1874120930276
 21
-111.335935454932
 31
0.0
  0
LINE
  5
145
  8
-300
  6
AVEVASOLID
 62
    92
 10
290.5249622160042
 20
-111.335935454932
 30
0.0
 11
290.5249622160042
 21
-89.33593497809488
 31
0.0
  0
LINE
  5
14C
  8
-300
  6
AVEVASOLID
 62
    92
 10
197.1874120930276
 20
-89.33593497809488
 30
0.0
 11
197.1874120930276
 21
-111.335935454932
 31
0.0
  0
LINE
  5
14D
  8
-300
  6
AVEVASOLID
 62
    92
 10
290.5249622160042
 20
-111.335935454932
 30
0.0
 11
290.5249622160042
 21
-89.33593497809488
 31
0.0
  0
LINE
  5
151
  8
-300
  6
AVEVASOLIDXWIDE
 62
    92
 10
337.0716521028405
 20
-118.3359353804262
 30
0.0
 11
337.0716521028405
 21
-108.3359349780949
 31
0.0
  0
LINE
  5
152
  8
-300
  6
AVEVASOLIDXWIDE
 62
    92
 10
327.0716521028405
 20
-118.3359353804262
 30
0.0
 11
337.0716521028405
 21
-118.3359353804262
 31
0.0
  0
LINE
  5
153
  8
-300
  6
AVEVASOLID
 62
    92
 10
337.0716521028405
 20
178.6640592998592
 30
0.0
 11
337.0716521028405
 21
-118.3359353804262
 31
0.0
  0
LINE
  5
156
  8
-300
  6
AVEVASOLID
 62
    92
 10
-82.92833266817274
 20
178.6640592998592
 30
0.0
 11
337.0716521028405
 21
178.6640592998592
 31
0.0
  0
LINE
  5
159
  8
-300
  6
AVEVASOLID
 62
    92
 10
-82.92833266817274
 20
178.6640592998592
 30
0.0
 11
-82.92833266817274
 21
-118.3359353804262
 31
0.0
  0
LINE
  5
15A
  8
-300
  6
AVEVASOLID
 62
    92
 10
-82.92833266817274
 20
-118.3359353804262
 30
0.0
 11
337.0716521028405
 21
-118.3359353804262
 31
0.0
  0
LINE
  5
15D
  8
-300
  6
AVEVASOLID
 62
    92
 10
290.5249622160042
 20
-100.3359349780949
 30
0.0
 11
330.0716521028405
 21
-100.3359349780949
 31
0.0
  0
LINE
  5
1732
  8
-300
  6
AVEVASOLIDXWIDE
 62
    92
 10
197.1874120930276
 20
-89.33593497809488
 30
0.0
 11
293.7873876789652
 21
-89.33593497809488
 31
0.0
  0
LINE
  5
1733
  8
-300
  6
AVEVASOLIDXWIDE
 62
    92
 10
197.1874120930276
 20
-89.33593497809488
 30
0.0
 11
330.0716521028405
 21
-89.33593497809488
 31
0.0
  0
LINE
  5
1734
  8
-300
  6
AVEVASOLID
 62
    92
 10
197.1874120930276
 20
-94.83593497809488
 30
0.0
 11
290.5249622160042
 21
-94.83593497809488
 31
0.0
  0
LINE
  5
1735
  8
-300
  6
AVEVASOLID
 62
    92
 10
197.1874120930276
 20
-94.83593497809488
 30
0.0
 11
290.5249622160042
 21
-94.83593497809488
 31
0.0
  0
LINE
  5
1736
  8
-300
  6
AVEVASOLID
 62
    92
 10
197.1874120930276
 20
-100.3359349780949
 30
0.0
 11
290.5249622160042
 21
-100.3359349780949
 31
0.0
  0
LINE
  5
1737
  8
-300
  6
AVEVASOLID
 62
    92
 10
197.1874120930276
 20
-100.3359349780949
 30
0.0
 11
290.5249622160042
 21
-100.3359349780949
 31
0.0
  0
LINE
  5
1738
  8
-300
  6
AVEVASOLID
 62
    92
 10
197.1874120930276
 20
-105.8359349780949
 30
0.0
 11
290.5249622160042
 21
-105.8359349780949
 31
0.0
  0
LINE
  5
1739
  8
-300
  6
AVEVASOLID
 62
    92
 10
197.1874120930276
 20
-105.8359349780949
 30
0.0
 11
290.5249622160042
 21
-105.8359349780949
 31
0.0
  0
TEXT
  5
173B
  8
-300
  6
CONTINUOUS
 62
     7
 10
212.1746753582354
 20
-93.30241271681993
 30
0.0
 40
3.125
  1
Fabricar-mdf-15mm-X-mesa
  0
TEXT
  5
1766
  8
-300
  6
CONTINUOUS
 62
     7
 10
309.320647663588
 20
-117.3915822617073
 30
0.0
 40
3.125
  1
Padrao-A3
  0
LINE
  5
1A26
  8
0
 10
0.0
 20
-24.0
 30
0.0
 11
0.0
 21
-39.0
 31
0.0
  0
LINE
  5
1A28
  8
0
 10
0.0
 20
-39.0
 30
0.0
 11
240.0000000000009
 21
-39.0
 31
0.0
  0
LINE
  5
1A29
  8
0
 10
0.0
 20
-24.0
 30
0.0
 11
240.0000000000009
 21
-24.0
 31
0.0
  0
CIRCLE
  5
1B18
  8
0
 10
-180.0000000000009
 20
29.0000000000008
 30
-8.000000000000163
 40
7.500000000000102
210
-1.553482874764215E-15
220
1.326368618516748E-17
230
-1.0
  0
CIRCLE
  5
1B19
  8
0
 10
-220.0000000000009
 20
29.00000000000051
 30
-7.999999999999861
 40
7.500000000000098
210
0.0
220
0.0
230
-1.0
  0
CIRCLE
  5
1B1A
  8
0
 10
220.0000000000009
 20
29.00000000000051
 30
7.999999999999861
 40
2.999999999999996
  0
CIRCLE
  5
1B1B
  8
0
 10
180.0000000000009
 20
29.0000000000008
 30
7.999999999999885
 40
2.999999999999999
  0
CIRCLE
  5
1B1C
  8
0
 10
220.0000000000009
 20
29.00000000000051
 30
0.0000000000817339
 40
2.999999999999996
  0
CIRCLE
  5
1B1D
  8
0
 10
180.0000000000009
 20
69.00000000000068
 30
7.999999999999885
 40
3.0
  0
CIRCLE
  5
1B1E
  8
0
 10
60.00000000000091
 20
29.00000000000051
 30
7.999999999999906
 40
3.0
  0
CIRCLE
  5
1B1F
  8
0
 10
60.00000000000091
 20
69.0000000000004
 30
-0.0000000000987214
 40
2.999999999999998
  0
CIRCLE
  5
1B20
  8
0
 10
60.00000000000091
 20
69.0000000000004
 30
7.999999999999906
 40
2.999999999999998
  0
CIRCLE
  5
1B21
  8
0
 10
180.0000000000009
 20
69.00000000000068
 30
-0.0000000000085051
 40
3.0
  0
CIRCLE
  5
1B22
  8
0
 10
-60.00000000000091
 20
124.0000000000007
 30
-7.999999999999895
 40
7.500000000000096
210
0.0
220
0.0
230
-1.0
  0
CIRCLE
  5
1B23
  8
0
 10
180.0000000000009
 20
124.0000000000007
 30
7.999999999999895
 40
7.500000000000096
  0
CIRCLE
  5
1B24
  8
0
 10
220.0
 20
124.0000000000007
 30
7.999999999999851
 40
7.500000000000098
  0
CIRCLE
  5
1B25
  8
0
 10
-19.99999999999998
 20
29.00000000000051
 30
-7.999999999999992
 40
7.500000000000098
210
-3.106965749528432E-15
220
-2.652737237033093E-17
230
-1.0
  0
ARC
  5
1B26
  8
0
 10
-19.99999999999998
 20
84.00000000000048
 30
-7.999999999999989
 40
7.500000000000099
 50
0.0000000000000136
 51
180.0
210
-3.007964248051051E-15
220
0.0
230
-1.0
  0
LINE
  5
1B27
  8
0
 10
12.5
 20
69.0000000000004
 30
7.999999999999929
 11
12.5
 21
84.00000000000048
 31
7.999999999999952
  0
ARC
  5
1B28
  8
0
 10
-20.0
 20
69.0000000000004
 30
-7.999999999999929
 40
7.500000000000099
 50
180.0
 51
0.0
210
0.0
220
0.0
230
-1.0
  0
LINE
  5
1B29
  8
0
 10
27.5
 20
84.00000000000048
 30
7.999999999999906
 11
27.5
 21
69.0000000000004
 31
7.999999999999929
  0
LINE
  5
1B2A
  8
0
 10
52.5
 20
69.0000000000004
 30
7.999999999999906
 11
52.5
 21
84.00000000000048
 31
7.999999999999906
  0
ARC
  5
1B2B
  8
0
 10
-60.00000000000091
 20
84.00000000000048
 30
-7.999999999999906
 40
7.500000000000099
 50
0.0
 51
180.0
210
0.0
220
0.0
230
-1.0
  0
ARC
  5
1B2C
  8
0
 10
-60.00000000000091
 20
69.00000000000048
 30
-7.999999999999906
 40
7.500000000000099
 50
180.0000000000006
 51
359.9999999999993
210
0.0
220
0.0
230
-1.0
  0
LINE
  5
1B2D
  8
0
 10
67.50000000000091
 20
84.00000000000048
 30
7.999999999999906
 11
67.50000000000091
 21
69.0000000000004
 31
7.999999999999906
  0
LINE
  5
1B2E
  8
0
 10
187.5000000000009
 20
84.0000000000008
 30
7.999999999999872
 11
187.5000000000009
 21
69.00000000000068
 31
7.999999999999885
  0
ARC
  5
1B2F
  8
0
 10
-180.0000000000009
 20
69.00000000000068
 30
-7.999999999999885
 40
7.500000000000099
 50
180.0
 51
0.0
210
0.0
220
0.0
230
-1.0
  0
LINE
  5
1B30
  8
0
 10
172.5000000000009
 20
84.0000000000008
 30
7.999999999999895
 11
172.5000000000009
 21
69.00000000000068
 31
7.999999999999885
  0
ARC
  5
1B31
  8
0
 10
-180.0000000000009
 20
84.0000000000008
 30
-8.000000000000155
 40
7.5000000000001
 50
0.0
 51
180.0
210
-1.503982124025526E-15
220
0.0
230
-1.0
  0
ARC
  5
1B32
  8
0
 10
-220.0
 20
69.00000000000048
 30
-7.999999999999861
 40
7.500000000000099
 50
180.0000000000002
 51
359.9999999999998
210
0.0
220
0.0
230
-1.0
  0
LINE
  5
1B33
  8
0
 10
227.5000000000009
 20
84.00000000000048
 30
7.999999999999861
 11
227.5
 21
69.0000000000004
 31
7.999999999999861
  0
ARC
  5
1B34
  8
0
 10
-220.0000000000009
 20
84.00000000000048
 30
-7.999999999999861
 40
7.500000000000099
 50
0.0
 51
180.0
210
0.0
220
0.0
230
-1.0
  0
LINE
  5
1B35
  8
0
 10
212.5000000000009
 20
84.00000000000048
 30
7.999999999999861
 11
212.5
 21
69.0000000000004
 31
7.999999999999861
  0
LINE
  5
1B36
  8
0
 10
95.0
 20
59.00000000000048
 30
-0.0000000001338018
 11
95.0
 21
74.00000000000048
 31
-0.0000000001338018
  0
LINE
  5
1B37
  8
0
 10
95.0
 20
74.00000000000048
 30
-0.0000000001338018
 11
145.0
 21
74.00000000000068
 31
-0.0000000001338018
  0
CIRCLE
  5
1B38
  8
0
 10
-98.0
 20
79.0000000000006
 30
0.0000000002675697
 40
3.00000000000004
210
3.228895003215442E-29
220
8.651798085562815E-30
230
-1.0
  0
LINE
  5
1B39
  8
0
 10
145.0
 20
59.0000000000006
 30
-0.0000000001338018
 11
145.0
 21
74.00000000000068
 31
-0.0000000001338018
  0
LINE
  5
1B3A
  8
0
 10
145.0
 20
59.0000000000006
 30
-0.0000000001338018
 11
95.0
 21
59.00000000000048
 31
-0.0000000001338018
  0
CIRCLE
  5
1B3B
  8
0
 10
-142.0
 20
79.00000000000068
 30
0.0000000002674711
 40
3.00000000000004
210
0.0
220
-9.640911051445795E-16
230
-1.0
  0
CIRCLE
  5
1B3C
  8
0
 10
-98.0
 20
54.0000000000006
 30
0.0000000002676036
 40
3.000000000000039
210
9.712996036447093E-31
220
-3.624939470173608E-30
230
-1.0
  0
CIRCLE
  5
1B3D
  8
0
 10
-142.0
 20
54.00000000000068
 30
0.0000000002675561
 40
3.00000000000004
210
4.174636943088959E-16
220
-7.230683288584590E-16
230
-1.0
  0
CIRCLE
  5
1B3E
  8
0
 10
-225.0000000000009
 20
143.0000000000008
 30
0.0000000002677164
 40
7.500000000000098
210
0.0
220
0.0
230
-1.0
  0
CIRCLE
  5
1B3F
  8
0
 10
-195.0000000000009
 20
143.0000000000008
 30
0.0000000002677164
 40
7.500000000000098
210
0.0
220
0.0
230
-1.0
  0
CIRCLE
  5
1B40
  8
0
 10
-165.0
 20
143.0000000000008
 30
0.0000000002677164
 40
7.500000000000099
210
0.0
220
0.0
230
-1.0
  0
CIRCLE
  5
1B41
  8
0
 10
165.0
 20
10.00000000000057
 30
-0.0000000006370192
 40
7.500000000000096
  0
CIRCLE
  5
1B42
  8
0
 10
195.0000000000009
 20
10.00000000000057
 30
-0.0000000006370192
 40
7.500000000000098
  0
CIRCLE
  5
1B43
  8
0
 10
225.0000000000009
 20
10.00000000000057
 30
-0.0000000006370192
 40
7.500000000000099
  0
CIRCLE
  5
1B44
  8
0
 10
45.0
 20
10.0000000000004
 30
-0.0000000004130011
 40
7.500000000000099
  0
CIRCLE
  5
1B45
  8
0
 10
15.0
 20
10.0000000000004
 30
-0.0000000004130011
 40
7.500000000000098
  0
CIRCLE
  5
1B46
  8
0
 10
75.0
 20
10.0000000000004
 30
-0.0000000004130011
 40
7.500000000000099
  0
CIRCLE
  5
1B47
  8
0
 10
-45.0
 20
143.0000000000005
 30
0.000000000133892
 40
7.500000000000099
210
0.0
220
0.0
230
-1.0
  0
CIRCLE
  5
1B48
  8
0
 10
-75.0
 20
143.0000000000005
 30
0.000000000133892
 40
7.500000000000096
210
0.0
220
0.0
230
-1.0
  0
CIRCLE
  5
1B49
  8
0
 10
-15.0
 20
143.0000000000005
 30
0.000000000133892
 40
7.5000000000001
210
0.0
220
0.0
230
-1.0
  0
CIRCLE
  5
1B4A
  8
0
 10
20.0
 20
124.0000000000007
 30
7.99999999999994
 40
7.500000000000099
  0
CIRCLE
  5
1B4B
  8
0
 10
-60.00000000000091
 20
29.00000000000051
 30
-7.999999999999906
 40
7.500000000000099
210
0.0
220
0.0
230
-1.0
  0
CIRCLE
  5
1B4C
  8
0
 10
-15.00000000000001
 20
143.0000000000005
 30
-6.999999999866163
 40
3.00000000000004
210
8.349273886178184E-16
220
-4.820455525722812E-16
230
-1.0
  0
CIRCLE
  5
1B4D
  8
0
 10
-45.00000000000001
 20
143.0000000000005
 30
-6.999999999866288
 40
3.000000000000039
210
8.995092468811621E-16
220
-1.557995717476295E-15
230
-1.0
  0
CIRCLE
  5
1B4E
  8
0
 10
-75.0
 20
143.0000000000006
 30
-6.999999999866294
 40
3.00000000000004
210
4.820455525722609E-16
220
-1.799018493762416E-15
230
-1.0
  0
CIRCLE
  5
1B4F
  8
0
 10
-15.0
 20
10.00000000000011
 30
-6.999999999586993
 40
3.00000000000004
210
4.174636943089106E-16
220
-2.410227762861456E-16
230
-1.0
  0
CIRCLE
  5
1B50
  8
0
 10
-45.0
 20
10.00000000000039
 30
-6.999999999586995
 40
3.00000000000004
210
2.410227762861434E-16
220
-8.995092468812045E-16
230
-1.0
  0
CIRCLE
  5
1B51
  8
0
 10
-75.0
 20
10.0000000000005
 30
-6.999999999677272
 40
3.00000000000004
210
2.410227762861304E-16
220
-8.995092468812081E-16
230
-1.0
  0
CIRCLE
  5
1B52
  8
0
 10
-165.0
 20
10.00000000000055
 30
-6.999999999362998
 40
3.00000000000004
210
0.0
220
-1.928182210289159E-15
230
-1.0
  0
CIRCLE
  5
1B53
  8
0
 10
-195.0000000000009
 20
10.00000000000056
 30
-6.999999999732349
 40
3.00000000000004
210
8.349273886178211E-16
220
-4.820455525722911E-16
230
-1.0
  0
CIRCLE
  5
1B54
  8
0
 10
-225.0000000000009
 20
10.00000000000067
 30
-6.999999999362911
 40
3.00000000000004
210
4.820455525722610E-16
220
-1.799018493762416E-15
230
-1.0
  0
CIRCLE
  5
1B55
  8
0
 10
60.00000000000091
 20
84.00000000000048
 30
-0.0000000000000903
 40
3.000000000000002
  0
CIRCLE
  5
1B56
  8
0
 10
20.0
 20
84.00000000000048
 30
-0.0000000000000677
 40
2.999999999999999
  0
CIRCLE
  5
1B57
  8
0
 10
20.0
 20
124.0000000000007
 30
-0.0000000000000677
 40
2.999999999999997
  0
CIRCLE
  5
1B58
  8
0
 10
60.00000000000091
 20
124.0000000000007
 30
-0.0000000000000903
 40
2.999999999999997
  0
LINE
  5
1B59
  8
0
 10
0.0
 20
0.0
 30
0.0
 11
0.0
 21
153.0000000000003
 31
-0.0000000000001016
  0
CIRCLE
  5
1B5A
  8
0
 10
180.0000000000009
 20
84.0000000000008
 30
-0.0000000000001128
 40
2.999999999999997
  0
LINE
  5
1B5B
  8
0
 10
0.0
 20
0.0
 30
0.0
 11
240.0000000000009
 21
0.0000000000007958
 31
0.0
  0
CIRCLE
  5
1B5C
  8
0
 10
220.0
 20
124.0000000000007
 30
-0.0000000000001354
 40
3.000000000000002
  0
CIRCLE
  5
1B5D
  8
0
 10
180.0000000000009
 20
124.0000000000007
 30
-0.0000000000001128
 40
2.999999999999997
  0
LINE
  5
1B5E
  8
0
 10
240.0000000000009
 20
153.0000000000007
 30
-0.0000000000001918
 11
240.0000000000009
 21
0.0000000000007958
 31
0.0
  0
CIRCLE
  5
1B5F
  8
0
 10
220.0000000000009
 20
84.00000000000048
 30
-0.0000000000001354
 40
2.999999999999997
  0
LINE
  5
1B60
  8
0
 10
0.0
 20
153.0000000000003
 30
-0.0000000000001016
 11
240.0000000000009
 21
153.0000000000007
 31
-0.0000000000001918
  0
CIRCLE
  5
1B61
  8
0
 10
20.0
 20
84.00000000000048
 30
7.999999999999929
 40
2.999999999999999
  0
CIRCLE
  5
1B62
  8
0
 10
20.0
 20
124.0000000000007
 30
7.99999999999994
 40
3.0
  0
CIRCLE
  5
1B63
  8
0
 10
60.00000000000091
 20
84.00000000000048
 30
7.999999999999906
 40
2.999999999999999
  0
CIRCLE
  5
1B64
  8
0
 10
60.00000000000091
 20
124.0000000000007
 30
7.999999999999895
 40
3.0
  0
CIRCLE
  5
1B65
  8
0
 10
220.0
 20
124.0000000000007
 30
7.999999999999851
 40
2.999999999999998
  0
CIRCLE
  5
1B66
  8
0
 10
220.0
 20
69.0000000000004
 30
7.999999999999861
 40
2.999999999999998
  0
CIRCLE
  5
1B67
  8
0
 10
180.0000000000009
 20
29.0000000000008
 30
0.0000000000817451
 40
3.0
  0
CIRCLE
  5
1B68
  8
0
 10
220.0
 20
69.0000000000004
 30
-0.0000000000084825
 40
2.999999999999998
  0
CIRCLE
  5
1B69
  8
0
 10
180.0000000000009
 20
124.0000000000007
 30
7.999999999999895
 40
3.0
  0
CIRCLE
  5
1B6A
  8
0
 10
180.0000000000009
 20
84.0000000000008
 30
7.999999999999885
 40
2.999999999999999
  0
CIRCLE
  5
1B6B
  8
0
 10
220.0000000000009
 20
84.00000000000048
 30
7.999999999999861
 40
2.999999999999998
  0
CIRCLE
  5
1B6C
  8
0
 10
-15.0
 20
143.0000000000005
 30
-6.999999999866106
 40
7.500000000000096
210
0.0
220
0.0
230
-1.0
  0
CIRCLE
  5
1B6D
  8
0
 10
-45.0
 20
143.0000000000005
 30
-6.999999999866106
 40
7.500000000000098
210
0.0
220
0.0
230
-1.0
  0
CIRCLE
  5
1B6E
  8
0
 10
-75.0
 20
143.0000000000005
 30
-6.999999999866106
 40
7.500000000000099
210
0.0
220
0.0
230
-1.0
  0
CIRCLE
  5
1B6F
  8
0
 10
15.0
 20
10.0000000000004
 30
6.999999999586997
 40
7.500000000000099
  0
CIRCLE
  5
1B70
  8
0
 10
45.0
 20
10.0000000000004
 30
6.999999999586997
 40
7.500000000000099
  0
CIRCLE
  5
1B71
  8
0
 10
75.0
 20
10.0000000000004
 30
6.999999999586997
 40
7.500000000000098
  0
CIRCLE
  5
1B72
  8
0
 10
-225.0000000000009
 20
143.0000000000008
 30
-6.999999999732282
 40
7.500000000000099
210
0.0
220
0.0
230
-1.0
  0
CIRCLE
  5
1B73
  8
0
 10
-195.0000000000009
 20
143.0000000000008
 30
-6.999999999732282
 40
7.500000000000099
210
0.0
220
0.0
230
-1.0
  0
CIRCLE
  5
1B74
  8
0
 10
-165.0
 20
143.0000000000008
 30
-6.999999999732282
 40
7.500000000000098
210
0.0
220
0.0
230
-1.0
  0
CIRCLE
  5
1B75
  8
0
 10
165.0
 20
10.00000000000057
 30
6.999999999362978
 40
7.500000000000096
  0
CIRCLE
  5
1B76
  8
0
 10
195.0000000000009
 20
10.00000000000057
 30
6.999999999362978
 40
7.500000000000096
  0
CIRCLE
  5
1B77
  8
0
 10
225.0000000000009
 20
10.00000000000057
 30
6.999999999362978
 40
7.500000000000099
  0
CIRCLE
  5
1B78
  8
0
 10
-225.0000000000009
 20
143.0000000000008
 30
-6.999999999732505
 40
3.000000000000038
210
7.230683288584280E-16
220
-2.698527740643605E-15
230
-1.0
  0
CIRCLE
  5
1B79
  8
0
 10
-195.0000000000009
 20
143.0000000000008
 30
-6.99999999973214
 40
3.00000000000004
210
1.252391082926725E-15
220
-7.230683288584205E-16
230
-1.0
  0
CIRCLE
  5
1B7A
  8
0
 10
-164.9999999999999
 20
143.0000000000006
 30
-6.999999999735133
 40
3.00000000000004
210
-1.503982124025525E-14
220
-2.892273315433739E-15
230
-1.0
  0
CIRCLE
  5
1B7B
  8
0
 10
20.0
 20
69.0000000000004
 30
7.999999999999929
 40
2.999999999999998
  0
CIRCLE
  5
1B7C
  8
0
 10
60.00000000000091
 20
29.00000000000051
 30
-0.0000000001889942
 40
3.0
  0
CIRCLE
  5
1B7D
  8
0
 10
20.00000000000091
 20
29.00000000000051
 30
-0.0000000002793008
 40
3.0
  0
CIRCLE
  5
1B7E
  8
0
 10
20.0
 20
29.00000000000051
 30
7.999999999999929
 40
3.0
  0
CIRCLE
  5
1B7F
  8
0
 10
20.0
 20
69.0000000000004
 30
-0.0000000001889942
 40
2.999999999999998
  0
LINE
  5
1B80
  8
0
 10
240.0000000000009
 20
-24.0
 30
0.0
 11
240.0000000000009
 21
-39.0
 31
0.0
  0
LINE
  5
1B85
  8
0
  6
AVEVASHORTDASHED
 10
145.0
 20
-23.99999999999999
 30
-0.0000000001338018
 11
145.0
 21
-39.0
 31
-0.0000000001338018
  0
LINE
  5
1B86
  8
0
  6
AVEVASHORTDASHED
 10
139.0
 20
-24.00000000000001
 30
-0.0000000002675371
 11
139.0
 21
-39.0
 31
-0.0000000002675371
  0
LINE
  5
1B87
  8
0
  6
AVEVASHORTDASHED
 10
101.0
 20
-24.0
 30
-0.0000000002676036
 11
101.0
 21
-39.0
 31
-0.0000000002676036
  0
LINE
  5
1B88
  8
0
  6
AVEVASHORTDASHED
 10
95.0
 20
-24.0
 30
-0.0000000001338018
 11
95.0
 21
-39.0
 31
-0.0000000001338018
  0
LINE
  5
1B8E
  8
0
  6
AVEVASHORTDASHED
 10
12.4999999999999
 20
-31.0
 30
0.0
 11
27.5000000000001
 21
-31.0
 31
0.0
  0
LINE
  5
1B8F
  8
0
  6
AVEVASHORTDASHED
 10
23.00000000000091
 20
-30.99999999999999
 30
-0.0000000000328589
 11
23.00000000000091
 21
-39.0
 31
0.0
  0
LINE
  5
1B90
  8
0
  6
AVEVASHORTDASHED
 10
17.0
 20
-30.99999999999999
 30
0.9411764705882213
 11
17.0
 21
-39.0
 31
0.0
  0
LINE
  5
1B91
  8
0
  6
AVEVASHORTDASHED
 10
27.5000000000001
 20
-24.00000000000001
 30
1.764705882352906
 11
27.5000000000001
 21
-30.99999999999999
 31
0.9411764705882186
  0
LINE
  5
1B92
  8
0
  6
AVEVASHORTDASHED
 10
12.4999999999999
 20
-24.00000000000001
 30
1.764705882352916
 11
12.4999999999999
 21
-30.99999999999999
 31
0.9411764705882231
  0
LINE
  5
1B9D
  8
0
  6
AVEVASHORTDASHED
 10
63.0000000000018
 20
-30.99999999999998
 30
-1.764705882385775
 11
63.0000000000018
 21
-38.99999999999999
 31
-1.764705882352916
  0
LINE
  5
1B9E
  8
0
  6
AVEVASHORTDASHED
 10
52.50000000000079
 20
-30.99999999999999
 30
-1.764705882352916
 11
67.50000000000098
 21
-30.99999999999999
 31
-1.764705882352916
  0
LINE
  5
1B9F
  8
0
  6
AVEVASHORTDASHED
 10
57.00000000000089
 20
-30.99999999999998
 30
-0.823529411764695
 11
57.00000000000089
 21
-38.99999999999999
 31
-1.764705882352916
  0
LINE
  5
1BA0
  8
0
  6
AVEVASHORTDASHED
 10
67.50000000000098
 20
-23.99999999999999
 30
-0.0000000000000098
 11
67.50000000000098
 21
-30.99999999999997
 31
-0.8235294117646976
  0
LINE
  5
1BA1
  8
0
  6
AVEVASHORTDASHED
 10
52.50000000000079
 20
-24.0
 30
0.0
 11
52.50000000000079
 21
-30.99999999999998
 31
-0.8235294117646932
  0
LINE
  5
1BB2
  8
0
  6
AVEVASHORTDASHED
 10
22.5000000000001
 20
-32.00000000000001
 30
1.441176470503186
 11
22.5000000000001
 21
-39.0
 31
0.0
  0
LINE
  5
1BB3
  8
0
  6
AVEVASHORTDASHED
 10
7.499999999999902
 20
-32.0
 30
-0.0000000000850296
 11
7.499999999999902
 21
-39.0
 31
0.0
  0
LINE
  5
1BB4
  8
0
  6
AVEVASHORTDASHED
 10
7.499999999999902
 20
-32.0
 30
0.0
 11
22.50000000000011
 21
-32.0
 31
0.0
  0
LINE
  5
1BB5
  8
0
  6
AVEVASHORTDASHED
 10
18.00000000000004
 20
-24.0
 30
3.08823529393543
 11
18.00000000000004
 21
-32.0
 31
1.4411764705032
  0
LINE
  5
1BB6
  8
0
  6
AVEVASHORTDASHED
 10
11.99999999999996
 20
-24.0
 30
3.088235293935429
 11
11.99999999999996
 21
-32.0
 31
1.4411764705032
  0
LINE
  5
1BB7
  8
0
  6
AVEVASHORTDASHED
 10
52.5000000000001
 20
-32.00000000000001
 30
1.441176470503186
 11
52.5000000000001
 21
-39.0
 31
0.0
  0
LINE
  5
1BB8
  8
0
  6
AVEVASHORTDASHED
 10
37.4999999999999
 20
-32.0
 30
-0.0000000000850296
 11
37.4999999999999
 21
-39.0
 31
0.0
  0
LINE
  5
1BB9
  8
0
  6
AVEVASHORTDASHED
 10
37.4999999999999
 20
-32.0
 30
0.0
 11
52.50000000000011
 21
-32.0
 31
0.0
  0
LINE
  5
1BBA
  8
0
  6
AVEVASHORTDASHED
 10
48.00000000000004
 20
-24.0
 30
3.08823529393543
 11
48.00000000000004
 21
-32.0
 31
1.4411764705032
  0
LINE
  5
1BBB
  8
0
  6
AVEVASHORTDASHED
 10
41.99999999999996
 20
-24.0
 30
3.088235293935429
 11
41.99999999999996
 21
-32.0
 31
1.4411764705032
  0
LINE
  5
1BBC
  8
0
  6
AVEVASHORTDASHED
 10
82.50000000000011
 20
-32.00000000000001
 30
1.441176470503186
 11
82.50000000000011
 21
-39.0
 31
0.0
  0
LINE
  5
1BBD
  8
0
  6
AVEVASHORTDASHED
 10
67.49999999999991
 20
-32.0
 30
-0.0000000000850296
 11
67.49999999999991
 21
-39.0
 31
0.0
  0
LINE
  5
1BBE
  8
0
  6
AVEVASHORTDASHED
 10
67.49999999999991
 20
-32.0
 30
0.0
 11
82.50000000000011
 21
-32.0
 31
0.0
  0
LINE
  5
1BBF
  8
0
  6
AVEVASHORTDASHED
 10
78.00000000000006
 20
-24.0
 30
3.08823529393543
 11
78.00000000000006
 21
-32.0
 31
1.4411764705032
  0
LINE
  5
1BC0
  8
0
  6
AVEVASHORTDASHED
 10
71.99999999999997
 20
-24.0
 30
3.088235293935429
 11
71.99999999999997
 21
-32.0
 31
1.4411764705032
  0
LINE
  5
1BC1
  8
0
  6
AVEVASHORTDASHED
 10
217.0
 20
-30.99999999999999
 30
-0.0000000000328589
 11
217.0
 21
-39.0
 31
0.0
  0
LINE
  5
1BC2
  8
0
  6
AVEVASHORTDASHED
 10
227.500000000001
 20
-31.0
 30
0.0
 11
212.5000000000008
 21
-31.0
 31
0.0
  0
LINE
  5
1BC3
  8
0
  6
AVEVASHORTDASHED
 10
223.0000000000009
 20
-30.99999999999999
 30
0.9411764705882213
 11
223.0000000000009
 21
-39.0
 31
0.0
  0
LINE
  5
1BC4
  8
0
  6
AVEVASHORTDASHED
 10
212.5000000000008
 20
-24.00000000000001
 30
1.764705882352906
 11
212.5000000000008
 21
-30.99999999999999
 31
0.9411764705882186
  0
LINE
  5
1BC5
  8
0
  6
AVEVASHORTDASHED
 10
227.500000000001
 20
-24.00000000000001
 30
1.764705882352916
 11
227.500000000001
 21
-30.99999999999999
 31
0.9411764705882231
  0
LINE
  5
1BC6
  8
0
  6
AVEVASHORTDASHED
 10
176.9999999999991
 20
-30.99999999999998
 30
-1.764705882385775
 11
176.9999999999991
 21
-38.99999999999999
 31
-1.764705882352916
  0
LINE
  5
1BC7
  8
0
  6
AVEVASHORTDASHED
 10
187.5000000000001
 20
-30.99999999999999
 30
-1.764705882352916
 11
172.4999999999999
 21
-30.99999999999999
 31
-1.764705882352916
  0
LINE
  5
1BC8
  8
0
  6
AVEVASHORTDASHED
 10
183.0
 20
-30.99999999999998
 30
-0.823529411764695
 11
183.0
 21
-38.99999999999999
 31
-1.764705882352916
  0
LINE
  5
1BC9
  8
0
  6
AVEVASHORTDASHED
 10
172.4999999999999
 20
-23.99999999999999
 30
-0.0000000000000098
 11
172.4999999999999
 21
-30.99999999999997
 31
-0.8235294117646976
  0
LINE
  5
1BCA
  8
0
  6
AVEVASHORTDASHED
 10
187.5000000000001
 20
-24.0
 30
0.0
 11
187.5000000000001
 21
-30.99999999999998
 31
-0.8235294117646932
  0
LINE
  5
1BCB
  8
0
  6
AVEVASHORTDASHED
 10
217.5000000000008
 20
-32.00000000000001
 30
1.441176470503186
 11
217.5000000000008
 21
-39.0
 31
0.0
  0
LINE
  5
1BCC
  8
0
  6
AVEVASHORTDASHED
 10
232.500000000001
 20
-32.0
 30
-0.0000000000850296
 11
232.500000000001
 21
-39.0
 31
0.0
  0
LINE
  5
1BCD
  8
0
  6
AVEVASHORTDASHED
 10
232.500000000001
 20
-32.0
 30
0.0
 11
217.5000000000008
 21
-32.0
 31
0.0
  0
LINE
  5
1BCE
  8
0
  6
AVEVASHORTDASHED
 10
222.0000000000009
 20
-24.0
 30
3.08823529393543
 11
222.0000000000009
 21
-32.0
 31
1.4411764705032
  0
LINE
  5
1BCF
  8
0
  6
AVEVASHORTDASHED
 10
228.0000000000009
 20
-24.0
 30
3.088235293935429
 11
228.0000000000009
 21
-32.0
 31
1.4411764705032
  0
LINE
  5
1BD0
  8
0
  6
AVEVASHORTDASHED
 10
187.5000000000008
 20
-32.00000000000001
 30
1.441176470503186
 11
187.5000000000008
 21
-39.0
 31
0.0
  0
LINE
  5
1BD1
  8
0
  6
AVEVASHORTDASHED
 10
202.500000000001
 20
-32.0
 30
-0.0000000000850296
 11
202.500000000001
 21
-39.0
 31
0.0
  0
LINE
  5
1BD2
  8
0
  6
AVEVASHORTDASHED
 10
202.500000000001
 20
-32.0
 30
0.0
 11
187.5000000000008
 21
-32.0
 31
0.0
  0
LINE
  5
1BD3
  8
0
  6
AVEVASHORTDASHED
 10
192.0000000000009
 20
-24.0
 30
3.08823529393543
 11
192.0000000000009
 21
-32.0
 31
1.4411764705032
  0
LINE
  5
1BD4
  8
0
  6
AVEVASHORTDASHED
 10
198.000000000001
 20
-24.0
 30
3.088235293935429
 11
198.000000000001
 21
-32.0
 31
1.4411764705032
  0
LINE
  5
1BD5
  8
0
  6
AVEVASHORTDASHED
 10
157.5000000000008
 20
-32.00000000000001
 30
1.441176470503186
 11
157.5000000000008
 21
-39.0
 31
0.0
  0
LINE
  5
1BD6
  8
0
  6
AVEVASHORTDASHED
 10
172.500000000001
 20
-32.0
 30
-0.0000000000850296
 11
172.500000000001
 21
-39.0
 31
0.0
  0
LINE
  5
1BD7
  8
0
  6
AVEVASHORTDASHED
 10
172.500000000001
 20
-32.0
 30
0.0
 11
157.5000000000008
 21
-32.0
 31
0.0
  0
LINE
  5
1BD8
  8
0
  6
AVEVASHORTDASHED
 10
162.0000000000009
 20
-24.0
 30
3.08823529393543
 11
162.0000000000009
 21
-32.0
 31
1.4411764705032
  0
LINE
  5
1BD9
  8
0
  6
AVEVASHORTDASHED
 10
168.0000000000009
 20
-24.0
 30
3.088235293935429
 11
168.0000000000009
 21
-32.0
 31
1.4411764705032
  0
VIEWPORT
  5
16EA
 67
     1
  8
0
 10
143.5
 20
95.0
 30
0.0
 40
462.0
 41
231.0
 68
     1
 69
     1
1001
ACAD
1000
MVIEW
1002
{
1070
    16
1010
0.0
1020
0.0
1030
0.0
1020
0.0
1030
0.0
1010
0.0
1020
0.0
1030
1.0
1020
0.0
1030
1.0
1040
0.0
1040
231.0
1040
143.5
1040
95.0
1040
50.0
1040
0.0
1040
0.0
1070
     0
1070
   100
1070
     1
1070
     0
1070
     0
1070
     0
1070
     0
1070
     0
1040
0.0
1040
0.0
1040
0.0
1040
10.0
1040
10.0
1040
10.0
1040
10.0
1070
     1
1002
{
1002
}
1002
}
  0
VIEWPORT
  5
16EC
 67
     1
  8
VIEWPORTS
 10
143.5
 20
95.0
 30
0.0
 40
287.0
 41
162.7319641113281
 68
     2
 69
     2
1001
ACAD
1000
MVIEW
1002
{
1070
    16
1010
0.0
1020
0.0
1030
0.0
1020
0.0
1030
0.0
1010
0.0
1020
0.0
1030
1.0
1020
0.0
1030
1.0
1040
0.0
1040
305.9693908691406
1040
209.806884765625
1040
148.4082946777344
1040
50.0
1040
0.0
1040
0.0
1070
     0
1070
   100
1070
     1
1070
     0
1070
     0
1070
     0
1070
     0
1070
     0
1040
0.0
1040
0.0
1040
0.0
1040
10.0
1040
10.0
1040
10.0
1040
10.0
1070
     1
1002
{
1002
}
1002
}
  0
ENDSEC
  0
EOF
