  0
SECTION
  2
HEADER
  9
$ACADVER
  1
AC1009
  9
$DWGCODEPAGE
  3
ansi_1252
  9
$INSBASE
 10
0.0
 20
0.0
 30
0.0
  9
$EXTMIN
 10
-82.92833266817274
 20
-118.3359353804262
 30
-0.0000000002008843
  9
$EXTMAX
 10
337.0716521028405
 20
178.6640592998592
 30
0.0000000002444114
  9
$LIMMIN
 10
0.0
 20
0.0
  9
$LIMMAX
 10
12.0
 20
9.0
  9
$ORTHOMODE
 70
     1
  9
$REGENMODE
 70
     1
  9
$FILLMODE
 70
     1
  9
$QTEXTMODE
 70
     0
  9
$MIRRTEXT
 70
     1
  9
$DRAGMODE
 70
     2
  9
$LTSCALE
 40
1.0
  9
$OSMODE
 70
   511
  9
$ATTMODE
 70
     1
  9
$TEXTSIZE
 40
2.5
  9
$TRACEWID
 40
0.05
  9
$TEXTSTYLE
  7
STANDARD
  9
$CLAYER
  8
COTAS
  9
$CELTYPE
  6
BYLAYER
  9
$CECOLOR
 62
   256
  9
$DIMSCALE
 40
10.0
  9
$DIMASZ
 40
0.18
  9
$DIMEXO
 40
0.625
  9
$DIMDLI
 40
0.38
  9
$DIMRND
 40
0.0
  9
$DIMDLE
 40
0.38
  9
$DIMEXE
 40
0.18
  9
$DIMTP
 40
0.0
  9
$DIMTM
 40
0.0
  9
$DIMTXT
 40
0.18
  9
$DIMCEN
 40
0.09
  9
$DIMTSZ
 40
0.0
  9
$DIMTOL
 70
     0
  9
$DIMLIM
 70
     0
  9
$DIMTIH
 70
     1
  9
$DIMTOH
 70
     1
  9
$DIMSE1
 70
     0
  9
$DIMSE2
 70
     0
  9
$DIMTAD
 70
     0
  9
$DIMZIN
 70
     0
  9
$DIMBLK
  1

  9
$DIMASO
 70
     1
  9
$DIMSHO
 70
     1
  9
$DIMPOST
  1

  9
$DIMAPOST
  1

  9
$DIMALT
 70
     0
  9
$DIMALTD
 70
     2
  9
$DIMALTF
 40
25.4
  9
$DIMLFAC
 40
1.0
  9
$DIMTOFL
 70
     0
  9
$DIMTVP
 40
0.0
  9
$DIMTIX
 70
     0
  9
$DIMSOXD
 70
     0
  9
$DIMSAH
 70
     0
  9
$DIMBLK1
  1

  9
$DIMBLK2
  1

  9
$DIMSTYLE
  2
ISO-25
  9
$DIMCLRD
 70
     0
  9
$DIMCLRE
 70
     0
  9
$DIMCLRT
 70
     0
  9
$DIMTFAC
 40
1.0
  9
$DIMGAP
 40
0.09
  9
$LUNITS
 70
     2
  9
$LUPREC
 70
     4
  9
$SKETCHINC
 40
0.1
  9
$FILLETRAD
 40
0.5
  9
$AUNITS
 70
     0
  9
$AUPREC
 70
     0
  9
$MENU
  1

  9
$ELEVATION
 40
0.0
  9
$PELEVATION
 40
0.0
  9
$THICKNESS
 40
0.0
  9
$LIMCHECK
 70
     0
  9
$CHAMFERA
 40
0.5
  9
$CHAMFERB
 40
0.5
  9
$SKPOLY
 70
     0
  9
$TDCREATE
 40
2447892.875
  9
$TDUPDATE
 40
2457161.146583403
  9
$TDINDWG
 40
0.0282006366
  9
$TDUSRTIMER
 40
2457161.269767396
  9
$USRTIMER
 70
     0
  9
$ANGBASE
 50
0.0
  9
$ANGDIR
 70
     0
  9
$PDMODE
 70
     0
  9
$PDSIZE
 40
0.0
  9
$PLINEWID
 40
0.0
  9
$COORDS
 70
     1
  9
$SPLFRAME
 70
     0
  9
$SPLINETYPE
 70
     6
  9
$SPLINESEGS
 70
     8
  9
$ATTDIA
 70
     0
  9
$ATTREQ
 70
     1
  9
$HANDLING
 70
     1
  9
$HANDSEED
  5
1DF4
  9
$SURFTAB1
 70
     6
  9
$SURFTAB2
 70
     6
  9
$SURFTYPE
 70
     6
  9
$SURFU
 70
     6
  9
$SURFV
 70
     6
  9
$UCSNAME
  2

  9
$UCSORG
 10
0.0
 20
0.0
 30
0.0
  9
$UCSXDIR
 10
1.0
 20
0.0
 30
0.0
  9
$UCSYDIR
 10
0.0
 20
1.0
 30
0.0
  9
$PUCSNAME
  2

  9
$PUCSORG
 10
0.0
 20
0.0
 30
0.0
  9
$PUCSXDIR
 10
1.0
 20
0.0
 30
0.0
  9
$PUCSYDIR
 10
0.0
 20
1.0
 30
0.0
  9
$USERI1
 70
     0
  9
$USERI2
 70
     0
  9
$USERI3
 70
     0
  9
$USERI4
 70
     0
  9
$USERI5
 70
     0
  9
$USERR1
 40
0.0
  9
$USERR2
 40
0.0
  9
$USERR3
 40
0.0
  9
$USERR4
 40
0.0
  9
$USERR5
 40
0.0
  9
$WORLDVIEW
 70
     1
  9
$SHADEDGE
 70
     3
  9
$SHADEDIF
 70
    70
  9
$TILEMODE
 70
     1
  9
$MAXACTVP
 70
    64
  9
$PLIMCHECK
 70
     0
  9
$PEXTMIN
 10
0.0
 20
0.0
 30
0.0
  9
$PEXTMAX
 10
0.0
 20
0.0
 30
0.0
  9
$PLIMMIN
 10
0.0
 20
0.0
  9
$PLIMMAX
 10
0.0
 20
0.0
  9
$UNITMODE
 70
     0
  9
$VISRETAIN
 70
     1
  9
$PLINEGEN
 70
     0
  9
$PSLTSCALE
 70
     1
  0
ENDSEC
  0
SECTION
  2
TABLES
  0
TABLE
  2
VPORT
 70
     1
  0
VPORT
  2
*ACTIVE
 70
     0
 10
0.0
 20
0.0
 11
1.0
 21
1.0
 12
-82.73522504829123
 22
-118.2442327180179
 13
0.0
 23
0.0
 14
0.5
 24
0.5
 15
0.0
 25
0.0
 16
0.0
 26
0.0
 36
1.0
 17
209.8068847656251
 27
148.4082946777344
 37
0.0
 40
302.9399945738911
 41
2.152066115702479
 42
50.0
 43
0.0
 44
0.0
 50
0.0
 51
0.0
 71
    16
 72
     0
 73
     0
 74
     1
 75
     0
 76
     0
 77
     0
 78
     0
  0
ENDTAB
  0
TABLE
  2
LTYPE
 70
     6
  0
LTYPE
  2
CONTINUOUS
 70
     0
  3
Solid line
 72
    65
 73
     0
 40
0.0
  0
LTYPE
  2
AVEVASOLID
 70
     0
  3
Aveva linetype
 72
    65
 73
     1
 40
2.25
 49
2.25
  0
LTYPE
  2
AVEVASOLIDXWIDE
 70
     0
  3
Aveva linetype
 72
    65
 73
     1
 40
2.25
 49
2.25
  0
LTYPE
  2
AVEVASHORTDASHED
 70
     0
  3
Aveva linetype
 72
    65
 73
     2
 40
2.0
 49
1.5
 49
-0.5
  0
ENDTAB
  0
TABLE
  2
LAYER
 70
    14
  0
LAYER
  2
0
 70
     0
 62
     7
  6
CONTINUOUS
  0
LAYER
  2
-11
 70
     0
 62
     7
  6
CONTINUOUS
  0
LAYER
  2
-300
 70
     0
 62
     7
  6
CONTINUOUS
  0
LAYER
  2
VIEWPORTS
 70
     0
 62
    -7
  6
CONTINUOUS
  0
LAYER
  2
COTAS
 70
     0
 62
     4
  6
CONTINUOUS
  0
LAYER
  2
DEFPOINTS
 70
     0
 62
     7
  6
CONTINUOUS
  0
ENDTAB
  0
TABLE
  2
STYLE
 70
     3
  0
STYLE
  2
STANDARD
 70
     0
 40
0.0
 41
1.0
 50
0.0
 71
     0
 42
2.5
  3
txt
  4

  0
ENDTAB
  0
TABLE
  2
VIEW
 70
     0
  0
ENDTAB
  0
TABLE
  2
UCS
 70
     0
  0
ENDTAB
  0
TABLE
  2
APPID
 70
     3
  0
APPID
  2
ACAD
 70
     0
  0
APPID
  2
ACAD_DSTYLE_DIMRADIAL_EXTE
 70
     0
  0
APPID
  2
ACAD_DSTYLE_DIMRADIAL_EXT0
 70
     0
  0
ENDTAB
  0
TABLE
  2
DIMSTYLE
 70
     2
  0
DIMSTYLE
  2
ISO-25
 70
     0
  3

  4

  5

  6

  7

 40
1.0
 41
2.5
 42
0.625
 43
0.3799999952316284
 44
0.1800000071525574
 45
0.0
 46
0.3799999952316284
 47
0.0
 48
0.0
140
2.5
141
0.0900000035762787
142
0.0
143
25.39999961853027
144
1.0
145
0.0
146
1.0
147
0.0900000035762787
 71
     0
 72
     0
 73
     1
 74
     1
 75
     0
 76
     0
 77
     1
 78
     0
170
     0
171
     3
172
     0
173
     0
174
     0
175
     0
176
     0
177
     0
178
     0
  0
DIMSTYLE
  2
STANDARD
 70
     0
  3

  4

  5

  6

  7

 40
1.0
 41
0.18
 42
0.0625
 43
0.38
 44
0.18
 45
0.0
 46
0.0
 47
0.0
 48
0.0
140
0.18
141
0.09
142
0.0
143
25.4
144
1.0
145
0.0
146
1.0
147
0.09
 71
     0
 72
     0
 73
     1
 74
     1
 75
     0
 76
     0
 77
     0
 78
     0
170
     0
171
     2
172
     0
173
     0
174
     0
175
     0
176
     0
177
     0
178
     0
  0
ENDTAB
  0
ENDSEC
  0
SECTION
  2
BLOCKS
  0
BLOCK
  8
0
  2
$MODEL_SPACE
 70
     0
 10
0.0
 20
0.0
 30
0.0
  3
$MODEL_SPACE
  1

  0
ENDBLK
  5
7
  8
0
  0
BLOCK
 67
     1
  8
0
  2
$PAPER_SPACE
 70
     0
 10
0.0
 20
0.0
 30
0.0
  3
$PAPER_SPACE
  1

  0
ENDBLK
  5
A
 67
     1
  8
0
  0
BLOCK
  8
0
  2
*D1
 70
     1
 10
0.0
 20
0.0
 30
0.0
  3
*D1
  1

  0
LINE
  5
1C6A
  8
COTAS
 62
     0
 10
55.61637620160788
 20
26.56785489119856
 30
0.0
 11
47.38079891667068
 21
15.0
 31
0.0
  0
TEXT
  5
1C6B
  8
COTAS
  6
CONTINUOUS
 62
     0
 10
55.18662532805075
 20
29.48877066599852
 30
0.0
 40
1.8
  1
R16.0
  0
SOLID
  5
1C6C
  8
COTAS
 62
     0
 10
55.86076750212616
 20
26.39386382179848
 30
0.0
 11
55.3719849010896
 21
26.74184596059865
 31
0.0
 12
56.66032261800837
 22
28.03420269430824
 32
0.0
 13
56.66032261800837
 23
28.03420269430824
 33
0.0
  0
POINT
  5
1C6D
  8
DEFPOINTS
 62
     0
 10
56.66032261800837
 20
28.03420269430824
 30
0.0
  0
POINT
  5
1C6E
  8
DEFPOINTS
 62
     0
 10
47.38079891667068
 20
15.0
 30
0.0
  0
ENDBLK
  5
1C6F
  8
0
  0
BLOCK
  8
0
  2
*D2
 70
     1
 10
0.0
 20
0.0
 30
0.0
  3
*D2
  1

  0
LINE
  5
1C73
  8
COTAS
 62
     0
 10
40.22804891667071
 20
36.25
 30
0.0
 11
40.22804891667071
 21
41.57890670386386
 31
0.0
  0
LINE
  5
1C74
  8
COTAS
 62
     0
 10
54.53354891667065
 20
36.25
 30
0.0
 11
54.53354891667065
 21
41.57890670386386
 31
0.0
  0
LINE
  5
1C75
  8
COTAS
 62
     0
 10
42.02804891667071
 20
39.77890670386387
 30
0.0
 11
44.08079891667069
 21
39.77890670386387
 31
0.0
  0
LINE
  5
1C76
  8
COTAS
 62
     0
 10
52.73354891667066
 20
39.77890670386387
 30
0.0
 11
50.68079891667068
 21
39.77890670386387
 31
0.0
  0
SOLID
  5
1C77
  8
COTAS
 62
     0
 10
42.02804891667071
 20
40.07890670386386
 30
0.0
 11
42.02804891667071
 21
39.47890670386387
 31
0.0
 12
40.22804891667071
 22
39.77890670386387
 32
0.0
 13
40.22804891667071
 23
39.77890670386387
 33
0.0
  0
SOLID
  5
1C78
  8
COTAS
 62
     0
 10
52.73354891667066
 20
39.47890670386387
 30
0.0
 11
52.73354891667066
 21
40.07890670386386
 31
0.0
 12
54.53354891667065
 22
39.77890670386387
 32
0.0
 13
54.53354891667065
 23
39.77890670386387
 33
0.0
  0
TEXT
  5
1C79
  8
COTAS
  6
CONTINUOUS
 62
     0
 10
44.98079891667069
 20
38.87890670386387
 30
0.0
 40
1.8
  1
14.3
  0
POINT
  5
1C7A
  8
DEFPOINTS
 62
     0
 10
40.22804891667071
 20
30.0
 30
0.0
  0
POINT
  5
1C7B
  8
DEFPOINTS
 62
     0
 10
54.53354891667065
 20
30.0
 30
0.0
  0
POINT
  5
1C7C
  8
DEFPOINTS
 62
     0
 10
54.53354891667065
 20
39.77890670386387
 30
0.0
  0
ENDBLK
  5
1C7D
  8
0
  0
BLOCK
  8
0
  2
*D3
 70
     1
 10
0.0
 20
0.0
 30
0.0
  3
*D3
  1

  0
LINE
  5
1C81
  8
COTAS
 62
     0
 10
26.47804891667185
 20
0.0000000000000007
 30
0.0
 11
0.750000000000004
 21
-0.0000000000000001
 31
0.0
  0
LINE
  5
1C82
  8
COTAS
 62
     0
 10
18.97804891666275
 20
63.0
 30
0.0
 11
0.750000000000008
 21
63.0
 31
0.0
  0
LINE
  5
1C83
  8
COTAS
 62
     0
 10
2.550000000000004
 20
1.8
 30
0.0
 11
2.550000000000006
 21
29.7
 31
0.0
  0
LINE
  5
1C84
  8
COTAS
 62
     0
 10
2.550000000000008
 20
61.2
 30
0.0
 11
2.550000000000006
 21
33.3
 31
0.0
  0
SOLID
  5
1C85
  8
COTAS
 62
     0
 10
2.250000000000004
 20
1.8
 30
0.0
 11
2.850000000000004
 21
1.8
 31
0.0
 12
2.550000000000004
 22
0.0
 32
0.0
 13
2.550000000000004
 23
0.0
 33
0.0
  0
SOLID
  5
1C86
  8
COTAS
 62
     0
 10
2.850000000000008
 20
61.2
 30
0.0
 11
2.250000000000008
 21
61.2
 31
0.0
 12
2.550000000000008
 22
63.0
 32
0.0
 13
2.550000000000008
 23
63.0
 33
0.0
  0
TEXT
  5
1C87
  8
COTAS
  6
CONTINUOUS
 62
     0
 10
0.0000000000000062
 20
30.6
 30
0.0
 40
1.8
  1
63.0
  0
POINT
  5
1C88
  8
DEFPOINTS
 62
     0
 10
32.72804891667185
 20
0.0000000000000009
 30
0.0
  0
POINT
  5
1C89
  8
DEFPOINTS
 62
     0
 10
25.22804891666275
 20
63.0
 30
0.0
  0
POINT
  5
1C8A
  8
DEFPOINTS
 62
     0
 10
2.550000000000008
 20
63.0
 30
0.0
  0
ENDBLK
  5
1C8B
  8
0
  0
BLOCK
  8
0
  2
*D4
 70
     1
 10
0.0
 20
0.0
 30
0.0
  3
*D4
  1

  0
LINE
  5
1C8F
  8
COTAS
 62
     0
 10
18.97804891666275
 20
63.0
 30
0.0
 11
7.706920335027513
 21
63.0
 31
0.0
  0
LINE
  5
1C90
  8
COTAS
 62
     0
 10
18.97804891666275
 20
1.000000000000001
 30
0.0
 11
7.706920335027509
 21
1.000000000000002
 31
0.0
  0
LINE
  5
1C91
  8
COTAS
 62
     0
 10
9.506920335027512
 20
61.2
 30
0.0
 11
9.50692033502751
 21
33.8
 31
0.0
  0
LINE
  5
1C92
  8
COTAS
 62
     0
 10
9.506920335027509
 20
2.800000000000002
 30
0.0
 11
9.50692033502751
 21
30.19999999999999
 31
0.0
  0
SOLID
  5
1C93
  8
COTAS
 62
     0
 10
9.806920335027513
 20
61.2
 30
0.0
 11
9.206920335027512
 21
61.2
 31
0.0
 12
9.506920335027512
 22
63.0
 32
0.0
 13
9.506920335027512
 23
63.0
 33
0.0
  0
SOLID
  5
1C94
  8
COTAS
 62
     0
 10
9.206920335027508
 20
2.800000000000002
 30
0.0
 11
9.80692033502751
 21
2.800000000000002
 31
0.0
 12
9.506920335027509
 22
1.000000000000002
 32
0.0
 13
9.506920335027509
 23
1.000000000000002
 33
0.0
  0
TEXT
  5
1C95
  8
COTAS
  6
CONTINUOUS
 62
     0
 10
6.956920335027511
 20
31.1
 30
0.0
 40
1.8
  1
62.0
  0
POINT
  5
1C96
  8
DEFPOINTS
 62
     0
 10
25.22804891666275
 20
63.0
 30
0.0
  0
POINT
  5
1C97
  8
DEFPOINTS
 62
     0
 10
25.22804891666275
 20
1.000000000000001
 30
0.0
  0
POINT
  5
1C98
  8
DEFPOINTS
 62
     0
 10
9.506920335027509
 20
1.000000000000002
 30
0.0
  0
ENDBLK
  5
1C99
  8
0
  0
BLOCK
  8
0
  2
*D5
 70
     1
 10
0.0
 20
0.0
 30
0.0
  3
*D5
  1

  0
LINE
  5
1C9D
  8
COTAS
 62
     0
 10
33.97804891667071
 20
0.0000000000000007
 30
0.0
 11
13.08868889608652
 21
-0.0000000000000001
 31
0.0
  0
LINE
  5
1C9E
  8
COTAS
 62
     0
 10
33.97804891667071
 20
30.0
 30
0.0
 11
13.08868889608652
 21
30.0
 31
0.0
  0
LINE
  5
1C9F
  8
COTAS
 62
     0
 10
14.88868889608652
 20
1.8
 30
0.0
 11
14.88868889608652
 21
13.2
 31
0.0
  0
LINE
  5
1CA0
  8
COTAS
 62
     0
 10
14.88868889608652
 20
28.2
 30
0.0
 11
14.88868889608652
 21
16.79999999999999
 31
0.0
  0
SOLID
  5
1CA1
  8
COTAS
 62
     0
 10
14.58868889608652
 20
1.8
 30
0.0
 11
15.18868889608652
 21
1.8
 31
0.0
 12
14.88868889608652
 22
0.0
 32
0.0
 13
14.88868889608652
 23
0.0
 33
0.0
  0
SOLID
  5
1CA2
  8
COTAS
 62
     0
 10
15.18868889608652
 20
28.2
 30
0.0
 11
14.58868889608652
 21
28.2
 31
0.0
 12
14.88868889608652
 22
30.0
 32
0.0
 13
14.88868889608652
 23
30.0
 33
0.0
  0
TEXT
  5
1CA3
  8
COTAS
  6
CONTINUOUS
 62
     0
 10
12.48868889608652
 20
14.1
 30
0.0
 40
1.8
  1
30.0
  0
POINT
  5
1CA4
  8
DEFPOINTS
 62
     0
 10
40.22804891667071
 20
0.0000000000000009
 30
0.0
  0
POINT
  5
1CA5
  8
DEFPOINTS
 62
     0
 10
40.22804891667071
 20
30.0
 30
0.0
  0
POINT
  5
1CA6
  8
DEFPOINTS
 62
     0
 10
14.88868889608652
 20
30.0
 30
0.0
  0
ENDBLK
  5
1CA7
  8
0
  0
BLOCK
  8
0
  2
*D6
 70
     1
 10
0.0
 20
0.0
 30
0.0
  3
*D6
  1

  0
LINE
  5
1CAB
  8
COTAS
 62
     0
 10
33.97804891667071
 20
30.0
 30
0.0
 11
20.41307901371602
 21
30.0
 31
0.0
  0
LINE
  5
1CAC
  8
COTAS
 62
     0
 10
33.97804891667071
 20
15.0
 30
0.0
 11
20.41307901371602
 21
15.0
 31
0.0
  0
LINE
  5
1CAD
  8
COTAS
 62
     0
 10
22.21307901371602
 20
28.2
 30
0.0
 11
22.21307901371602
 21
24.3
 31
0.0
  0
LINE
  5
1CAE
  8
COTAS
 62
     0
 10
22.21307901371602
 20
16.8
 30
0.0
 11
22.21307901371602
 21
20.7
 31
0.0
  0
SOLID
  5
1CAF
  8
COTAS
 62
     0
 10
22.51307901371602
 20
28.2
 30
0.0
 11
21.91307901371602
 21
28.2
 31
0.0
 12
22.21307901371602
 22
30.0
 32
0.0
 13
22.21307901371602
 23
30.0
 33
0.0
  0
SOLID
  5
1CB0
  8
COTAS
 62
     0
 10
21.91307901371602
 20
16.8
 30
0.0
 11
22.51307901371602
 21
16.8
 31
0.0
 12
22.21307901371602
 22
15.0
 32
0.0
 13
22.21307901371602
 23
15.0
 33
0.0
  0
TEXT
  5
1CB1
  8
COTAS
  6
CONTINUOUS
 62
     0
 10
19.96307901371602
 20
21.6
 30
0.0
 40
1.8
  1
15.0
  0
POINT
  5
1CB2
  8
DEFPOINTS
 62
     0
 10
40.22804891667071
 20
30.0
 30
0.0
  0
POINT
  5
1CB3
  8
DEFPOINTS
 62
     0
 10
40.22804891667071
 20
15.0
 30
0.0
  0
POINT
  5
1CB4
  8
DEFPOINTS
 62
     0
 10
22.21307901371602
 20
15.0
 30
0.0
  0
ENDBLK
  5
1CB5
  8
0
  0
BLOCK
  8
0
  2
*D7
 70
     1
 10
0.0
 20
0.0
 30
0.0
  3
*D7
  1

  0
LINE
  5
1CB9
  8
COTAS
 62
     0
 10
25.22804891666275
 20
69.25
 30
0.0
 11
25.22804891666276
 21
78.00429147688523
 31
0.0
  0
LINE
  5
1CBA
  8
COTAS
 62
     0
 10
69.5335489166627
 20
69.2500000001223
 30
0.0
 11
69.5335489166627
 21
78.00429147688523
 31
0.0
  0
LINE
  5
1CBB
  8
COTAS
 62
     0
 10
27.02804891666276
 20
76.20429147688523
 30
0.0
 11
43.78079891666272
 21
76.20429147688523
 31
0.0
  0
LINE
  5
1CBC
  8
COTAS
 62
     0
 10
67.7335489166627
 20
76.20429147688523
 30
0.0
 11
50.98079891666272
 21
76.20429147688523
 31
0.0
  0
SOLID
  5
1CBD
  8
COTAS
 62
     0
 10
27.02804891666276
 20
76.50429147688523
 30
0.0
 11
27.02804891666276
 21
75.90429147688523
 31
0.0
 12
25.22804891666276
 22
76.20429147688523
 32
0.0
 13
25.22804891666276
 23
76.20429147688523
 33
0.0
  0
SOLID
  5
1CBE
  8
COTAS
 62
     0
 10
67.7335489166627
 20
75.90429147688523
 30
0.0
 11
67.7335489166627
 21
76.50429147688523
 31
0.0
 12
69.5335489166627
 22
76.20429147688523
 32
0.0
 13
69.5335489166627
 23
76.20429147688523
 33
0.0
  0
TEXT
  5
1CBF
  8
COTAS
  6
CONTINUOUS
 62
     0
 10
44.68079891666272
 20
75.30429147688524
 30
0.0
 40
1.8
  1
44.3
  0
POINT
  5
1CC0
  8
DEFPOINTS
 62
     0
 10
25.22804891666275
 20
63.0
 30
0.0
  0
POINT
  5
1CC1
  8
DEFPOINTS
 62
     0
 10
69.5335489166627
 20
63.0000000001223
 30
0.0
  0
POINT
  5
1CC2
  8
DEFPOINTS
 62
     0
 10
69.5335489166627
 20
76.20429147688523
 30
0.0
  0
ENDBLK
  5
1CC3
  8
0
  0
BLOCK
  8
0
  2
*D8
 70
     1
 10
0.0
 20
0.0
 30
0.0
  3
*D8
  1

  0
LINE
  5
1CD6
  8
COTAS
 62
     0
 10
177.4911105876188
 20
26.51441848419526
 30
0.0
 11
169.2555333026816
 21
14.94656359299669
 31
0.0
  0
TEXT
  5
1CD7
  8
COTAS
  6
CONTINUOUS
 62
     0
 10
177.0613597140617
 20
29.43533425899521
 30
0.0
 40
1.8
  1
R16.0
  0
SOLID
  5
1CD8
  8
COTAS
 62
     0
 10
177.7355018881371
 20
26.34042741479518
 30
0.0
 11
177.2467192871005
 21
26.68840955359534
 31
0.0
 12
178.5350570040193
 22
27.98076628730493
 32
0.0
 13
178.5350570040193
 23
27.98076628730493
 33
0.0
  0
POINT
  5
1CD9
  8
DEFPOINTS
 62
     0
 10
178.5350570040193
 20
27.98076628730493
 30
0.0
  0
POINT
  5
1CDA
  8
DEFPOINTS
 62
     0
 10
169.2555333026816
 20
14.94656359299669
 30
0.0
  0
ENDBLK
  5
1CD5
  8
0
  0
BLOCK
  8
0
  2
*D9
 70
     1
 10
0.0
 20
0.0
 30
0.0
  3
*D9
  1

  0
LINE
  5
1CDE
  8
COTAS
 62
     0
 10
162.1027833026816
 20
36.1965635929967
 30
0.0
 11
162.1027833026816
 21
41.52547029686056
 31
0.0
  0
LINE
  5
1CDF
  8
COTAS
 62
     0
 10
176.4082833026814
 20
36.1965635929967
 30
0.0
 11
176.4082833026814
 21
41.52547029686056
 31
0.0
  0
LINE
  5
1CE0
  8
COTAS
 62
     0
 10
163.9027833026817
 20
39.72547029686056
 30
0.0
 11
165.9555333026815
 21
39.72547029686056
 31
0.0
  0
LINE
  5
1CE1
  8
COTAS
 62
     0
 10
174.6082833026814
 20
39.72547029686056
 30
0.0
 11
172.5555333026815
 21
39.72547029686056
 31
0.0
  0
SOLID
  5
1CE2
  8
COTAS
 62
     0
 10
163.9027833026817
 20
40.02547029686056
 30
0.0
 11
163.9027833026817
 21
39.42547029686057
 31
0.0
 12
162.1027833026816
 22
39.72547029686056
 32
0.0
 13
162.1027833026816
 23
39.72547029686056
 33
0.0
  0
SOLID
  5
1CE3
  8
COTAS
 62
     0
 10
174.6082833026814
 20
39.42547029686057
 30
0.0
 11
174.6082833026814
 21
40.02547029686056
 31
0.0
 12
176.4082833026814
 22
39.72547029686056
 32
0.0
 13
176.4082833026814
 23
39.72547029686056
 33
0.0
  0
TEXT
  5
1CE4
  8
COTAS
  6
CONTINUOUS
 62
     0
 10
166.8555333026815
 20
38.82547029686057
 30
0.0
 40
1.8
  1
14.3
  0
POINT
  5
1CE5
  8
DEFPOINTS
 62
     0
 10
162.1027833026816
 20
29.94656359299669
 30
0.0
  0
POINT
  5
1CE6
  8
DEFPOINTS
 62
     0
 10
176.4082833026814
 20
29.94656359299669
 30
0.0
  0
POINT
  5
1CE7
  8
DEFPOINTS
 62
     0
 10
176.4082833026814
 20
39.72547029686056
 30
0.0
  0
ENDBLK
  5
1CDD
  8
0
  0
BLOCK
  8
0
  2
*D10
 70
     1
 10
0.0
 20
0.0
 30
0.0
  3
*D10
  1

  0
LINE
  5
1CEB
  8
COTAS
 62
     0
 10
148.3527833026828
 20
-0.0534364070033064
 30
0.0
 11
122.624734386011
 21
-0.0534364070033033
 31
0.0
  0
LINE
  5
1CEC
  8
COTAS
 62
     0
 10
140.852783302682
 20
59.9465635929967
 30
0.0
 11
122.624734386011
 21
59.9465635929967
 31
0.0
  0
LINE
  5
1CED
  8
COTAS
 62
     0
 10
124.424734386011
 20
1.746563592996696
 30
0.0
 11
124.424734386011
 21
28.1465635929967
 31
0.0
  0
LINE
  5
1CEE
  8
COTAS
 62
     0
 10
124.424734386011
 20
58.1465635929967
 30
0.0
 11
124.424734386011
 21
31.74656359299669
 31
0.0
  0
SOLID
  5
1CEF
  8
COTAS
 62
     0
 10
124.124734386011
 20
1.746563592996696
 30
0.0
 11
124.724734386011
 21
1.746563592996696
 31
0.0
 12
124.424734386011
 22
-0.0534364070033035
 32
0.0
 13
124.424734386011
 23
-0.0534364070033035
 33
0.0
  0
SOLID
  5
1CF0
  8
COTAS
 62
     0
 10
124.724734386011
 20
58.1465635929967
 30
0.0
 11
124.124734386011
 21
58.1465635929967
 31
0.0
 12
124.424734386011
 22
59.9465635929967
 32
0.0
 13
124.424734386011
 23
59.9465635929967
 33
0.0
  0
TEXT
  5
1CF1
  8
COTAS
  6
CONTINUOUS
 62
     0
 10
122.0247343860109
 20
29.04656359299669
 30
0.0
 40
1.8
  1
60.0
  0
POINT
  5
1CF2
  8
DEFPOINTS
 62
     0
 10
154.6027833026828
 20
-0.0534364070033071
 30
0.0
  0
POINT
  5
1CF3
  8
DEFPOINTS
 62
     0
 10
147.102783302682
 20
59.9465635929967
 30
0.0
  0
POINT
  5
1CF4
  8
DEFPOINTS
 62
     0
 10
124.424734386011
 20
59.9465635929967
 30
0.0
  0
ENDBLK
  5
1CEA
  8
0
  0
BLOCK
  8
0
  2
*D11
 70
     1
 10
0.0
 20
0.0
 30
0.0
  3
*D11
  1

  0
LINE
  5
1CF8
  8
COTAS
 62
     0
 10
140.852783302682
 20
59.9465635929967
 30
0.0
 11
129.5816547210384
 21
59.9465635929967
 31
0.0
  0
LINE
  5
1CF9
  8
COTAS
 62
     0
 10
140.8527833026737
 20
0.9465635929966933
 30
0.0
 11
129.5816547210384
 21
0.946563592996694
 31
0.0
  0
LINE
  5
1CFA
  8
COTAS
 62
     0
 10
131.3816547210384
 20
58.1465635929967
 30
0.0
 11
131.3816547210384
 21
32.24656359299669
 31
0.0
  0
LINE
  5
1CFB
  8
COTAS
 62
     0
 10
131.3816547210384
 20
2.746563592996694
 30
0.0
 11
131.3816547210384
 21
28.6465635929967
 31
0.0
  0
SOLID
  5
1CFC
  8
COTAS
 62
     0
 10
131.6816547210385
 20
58.1465635929967
 30
0.0
 11
131.0816547210384
 21
58.1465635929967
 31
0.0
 12
131.3816547210384
 22
59.9465635929967
 32
0.0
 13
131.3816547210384
 23
59.9465635929967
 33
0.0
  0
SOLID
  5
1CFD
  8
COTAS
 62
     0
 10
131.0816547210384
 20
2.746563592996694
 30
0.0
 11
131.6816547210385
 21
2.746563592996694
 31
0.0
 12
131.3816547210384
 22
0.9465635929966939
 32
0.0
 13
131.3816547210384
 23
0.9465635929966939
 33
0.0
  0
TEXT
  5
1CFE
  8
COTAS
  6
CONTINUOUS
 62
     0
 10
128.8316547210384
 20
29.54656359299669
 30
0.0
 40
1.8
  1
59.0
  0
POINT
  5
1CFF
  8
DEFPOINTS
 62
     0
 10
147.102783302682
 20
59.9465635929967
 30
0.0
  0
POINT
  5
1D00
  8
DEFPOINTS
 62
     0
 10
147.1027833026737
 20
0.9465635929966929
 30
0.0
  0
POINT
  5
1D01
  8
DEFPOINTS
 62
     0
 10
131.3816547210384
 20
0.9465635929966939
 30
0.0
  0
ENDBLK
  5
1CF7
  8
0
  0
BLOCK
  8
0
  2
*D12
 70
     1
 10
0.0
 20
0.0
 30
0.0
  3
*D12
  1

  0
LINE
  5
1D05
  8
COTAS
 62
     0
 10
155.8527833026816
 20
-0.0534364070033071
 30
0.0
 11
134.9634232820974
 21
-0.0534364070033071
 31
0.0
  0
LINE
  5
1D06
  8
COTAS
 62
     0
 10
155.8527833026816
 20
29.94656359299669
 30
0.0
 11
134.9634232820974
 21
29.94656359299669
 31
0.0
  0
LINE
  5
1D07
  8
COTAS
 62
     0
 10
136.7634232820974
 20
1.746563592996693
 30
0.0
 11
136.7634232820974
 21
13.14656359299669
 31
0.0
  0
LINE
  5
1D08
  8
COTAS
 62
     0
 10
136.7634232820974
 20
28.14656359299669
 30
0.0
 11
136.7634232820974
 21
16.74656359299669
 31
0.0
  0
SOLID
  5
1D09
  8
COTAS
 62
     0
 10
136.4634232820974
 20
1.746563592996693
 30
0.0
 11
137.0634232820975
 21
1.746563592996693
 31
0.0
 12
136.7634232820974
 22
-0.0534364070033071
 32
0.0
 13
136.7634232820974
 23
-0.0534364070033071
 33
0.0
  0
SOLID
  5
1D0A
  8
COTAS
 62
     0
 10
137.0634232820975
 20
28.14656359299669
 30
0.0
 11
136.4634232820974
 21
28.14656359299669
 31
0.0
 12
136.7634232820974
 22
29.94656359299669
 32
0.0
 13
136.7634232820974
 23
29.94656359299669
 33
0.0
  0
TEXT
  5
1D0B
  8
COTAS
  6
CONTINUOUS
 62
     0
 10
134.3634232820974
 20
14.04656359299669
 30
0.0
 40
1.8
  1
30.0
  0
POINT
  5
1D0C
  8
DEFPOINTS
 62
     0
 10
162.1027833026816
 20
-0.0534364070033071
 30
0.0
  0
POINT
  5
1D0D
  8
DEFPOINTS
 62
     0
 10
162.1027833026816
 20
29.94656359299669
 30
0.0
  0
POINT
  5
1D0E
  8
DEFPOINTS
 62
     0
 10
136.7634232820974
 20
29.94656359299669
 30
0.0
  0
ENDBLK
  5
1D04
  8
0
  0
BLOCK
  8
0
  2
*D13
 70
     1
 10
0.0
 20
0.0
 30
0.0
  3
*D13
  1

  0
LINE
  5
1D12
  8
COTAS
 62
     0
 10
155.8527833026816
 20
29.94656359299669
 30
0.0
 11
142.287813399727
 21
29.9465635929967
 31
0.0
  0
LINE
  5
1D13
  8
COTAS
 62
     0
 10
155.8527833026816
 20
14.94656359299669
 30
0.0
 11
142.287813399727
 21
14.9465635929967
 31
0.0
  0
LINE
  5
1D14
  8
COTAS
 62
     0
 10
144.087813399727
 20
28.1465635929967
 30
0.0
 11
144.087813399727
 21
24.24656359299669
 31
0.0
  0
LINE
  5
1D15
  8
COTAS
 62
     0
 10
144.087813399727
 20
16.7465635929967
 30
0.0
 11
144.087813399727
 21
20.6465635929967
 31
0.0
  0
SOLID
  5
1D16
  8
COTAS
 62
     0
 10
144.387813399727
 20
28.1465635929967
 30
0.0
 11
143.787813399727
 21
28.1465635929967
 31
0.0
 12
144.087813399727
 22
29.9465635929967
 32
0.0
 13
144.087813399727
 23
29.9465635929967
 33
0.0
  0
SOLID
  5
1D17
  8
COTAS
 62
     0
 10
143.787813399727
 20
16.7465635929967
 30
0.0
 11
144.387813399727
 21
16.7465635929967
 31
0.0
 12
144.087813399727
 22
14.9465635929967
 32
0.0
 13
144.087813399727
 23
14.9465635929967
 33
0.0
  0
TEXT
  5
1D18
  8
COTAS
  6
CONTINUOUS
 62
     0
 10
141.837813399727
 20
21.54656359299669
 30
0.0
 40
1.8
  1
15.0
  0
POINT
  5
1D19
  8
DEFPOINTS
 62
     0
 10
162.1027833026816
 20
29.94656359299669
 30
0.0
  0
POINT
  5
1D1A
  8
DEFPOINTS
 62
     0
 10
162.1027833026816
 20
14.94656359299669
 30
0.0
  0
POINT
  5
1D1B
  8
DEFPOINTS
 62
     0
 10
144.087813399727
 20
14.9465635929967
 30
0.0
  0
ENDBLK
  5
1D11
  8
0
  0
BLOCK
  8
0
  2
*D14
 70
     1
 10
0.0
 20
0.0
 30
0.0
  3
*D14
  1

  0
LINE
  5
1D1F
  8
COTAS
 62
     0
 10
147.102783302682
 20
66.1965635929967
 30
0.0
 11
147.102783302682
 21
77.95085506988192
 31
0.0
  0
LINE
  5
1D20
  8
COTAS
 62
     0
 10
191.4082833026816
 20
66.19656359311885
 30
0.0
 11
191.4082833026816
 21
77.95085506988192
 31
0.0
  0
LINE
  5
1D21
  8
COTAS
 62
     0
 10
148.902783302682
 20
76.15085506988193
 30
0.0
 11
165.6555333026818
 21
76.15085506988193
 31
0.0
  0
LINE
  5
1D22
  8
COTAS
 62
     0
 10
189.6082833026816
 20
76.15085506988193
 30
0.0
 11
172.8555333026818
 21
76.15085506988193
 31
0.0
  0
SOLID
  5
1D23
  8
COTAS
 62
     0
 10
148.902783302682
 20
76.45085506988192
 30
0.0
 11
148.902783302682
 21
75.85085506988193
 31
0.0
 12
147.102783302682
 22
76.15085506988193
 32
0.0
 13
147.102783302682
 23
76.15085506988193
 33
0.0
  0
SOLID
  5
1D24
  8
COTAS
 62
     0
 10
189.6082833026816
 20
75.85085506988193
 30
0.0
 11
189.6082833026816
 21
76.45085506988192
 31
0.0
 12
191.4082833026816
 22
76.15085506988193
 32
0.0
 13
191.4082833026816
 23
76.15085506988193
 33
0.0
  0
TEXT
  5
1D25
  8
COTAS
  6
CONTINUOUS
 62
     0
 10
166.5555333026818
 20
75.25085506988194
 30
0.0
 40
1.8
  1
44.3
  0
POINT
  5
1D26
  8
DEFPOINTS
 62
     0
 10
147.102783302682
 20
59.9465635929967
 30
0.0
  0
POINT
  5
1D27
  8
DEFPOINTS
 62
     0
 10
191.4082833026816
 20
59.94656359311885
 30
0.0
  0
POINT
  5
1D28
  8
DEFPOINTS
 62
     0
 10
191.4082833026816
 20
76.15085506988193
 30
0.0
  0
ENDBLK
  5
1D1E
  8
0
  0
BLOCK
  8
0
  2
*D15
 70
     1
 10
0.0
 20
0.0
 30
0.0
  3
*D15
  1

  0
LINE
  5
1D3B
  8
COTAS
 62
     0
 10
146.4777833026816
 20
-37.71650704209289
 30
0.0
 11
141.1112601134843
 21
-37.71650704209289
 31
0.0
  0
LINE
  5
1D3C
  8
COTAS
 62
     0
 10
146.4777833026816
 20
-52.71650704209289
 30
0.0
 11
141.1112601134843
 21
-52.71650704209289
 31
0.0
  0
LINE
  5
1D3D
  8
COTAS
 62
     0
 10
141.2912601134843
 20
-37.89650704209289
 30
0.0
 11
141.2912601134843
 21
-45.03650704209289
 31
0.0
  0
LINE
  5
1D3E
  8
COTAS
 62
     0
 10
141.2912601134843
 20
-52.53650704209289
 30
0.0
 11
141.2912601134843
 21
-45.3965070420929
 31
0.0
  0
SOLID
  5
1D3F
  8
COTAS
 62
     0
 10
141.3212601134843
 20
-37.89650704209289
 30
0.0
 11
141.2612601134843
 21
-37.89650704209289
 31
0.0
 12
141.2912601134843
 22
-37.71650704209289
 32
0.0
 13
141.2912601134843
 23
-37.71650704209289
 33
0.0
  0
SOLID
  5
1D40
  8
COTAS
 62
     0
 10
141.2612601134843
 20
-52.53650704209289
 30
0.0
 11
141.3212601134843
 21
-52.53650704209289
 31
0.0
 12
141.2912601134843
 22
-52.71650704209289
 32
0.0
 13
141.2912601134843
 23
-52.71650704209289
 33
0.0
  0
TEXT
  5
1D41
  8
COTAS
  6
CONTINUOUS
 62
     0
 10
140.8412601134843
 20
-45.30650704209289
 30
0.0
 40
0.18
  1
15.0000
  0
POINT
  5
1D42
  8
DEFPOINTS
 62
     0
 10
147.1027833026816
 20
-37.71650704209289
 30
0.0
  0
POINT
  5
1D43
  8
DEFPOINTS
 62
     0
 10
147.1027833026816
 20
-52.71650704209289
 30
0.0
  0
POINT
  5
1D44
  8
DEFPOINTS
 62
     0
 10
141.2912601134843
 20
-52.71650704209289
 30
0.0
  0
ENDBLK
  5
1D3A
  8
0
  0
BLOCK
  8
0
  2
*D16
 70
     1
 10
0.0
 20
0.0
 30
0.0
  3
*D16
  1

  0
LINE
  5
1D4D
  8
COTAS
 62
     0
 10
140.8527833026816
 20
-37.71650704209289
 30
0.0
 11
133.274661112222
 21
-37.71650704209289
 31
0.0
  0
LINE
  5
1D4E
  8
COTAS
 62
     0
 10
140.8527833026816
 20
-52.71650704209288
 30
0.0
 11
133.274661112222
 21
-52.71650704209288
 31
0.0
  0
LINE
  5
1D4F
  8
COTAS
 62
     0
 10
135.074661112222
 20
-39.51650704209289
 30
0.0
 11
135.074661112222
 21
-43.41650704209289
 31
0.0
  0
LINE
  5
1D50
  8
COTAS
 62
     0
 10
135.074661112222
 20
-50.91650704209288
 30
0.0
 11
135.074661112222
 21
-47.01650704209288
 31
0.0
  0
SOLID
  5
1D51
  8
COTAS
 62
     0
 10
135.374661112222
 20
-39.51650704209289
 30
0.0
 11
134.774661112222
 21
-39.51650704209289
 31
0.0
 12
135.074661112222
 22
-37.71650704209289
 32
0.0
 13
135.074661112222
 23
-37.71650704209289
 33
0.0
  0
SOLID
  5
1D52
  8
COTAS
 62
     0
 10
134.774661112222
 20
-50.91650704209288
 30
0.0
 11
135.374661112222
 21
-50.91650704209288
 31
0.0
 12
135.074661112222
 22
-52.71650704209288
 32
0.0
 13
135.074661112222
 23
-52.71650704209288
 33
0.0
  0
TEXT
  5
1D53
  8
COTAS
  6
CONTINUOUS
 62
     0
 10
132.824661112222
 20
-46.11650704209288
 30
0.0
 40
1.8
  1
15.0
  0
POINT
  5
1D54
  8
DEFPOINTS
 62
     0
 10
147.1027833026816
 20
-37.71650704209289
 30
0.0
  0
POINT
  5
1D55
  8
DEFPOINTS
 62
     0
 10
147.1027833026816
 20
-52.71650704209288
 30
0.0
  0
POINT
  5
1D56
  8
DEFPOINTS
 62
     0
 10
135.074661112222
 20
-52.71650704209288
 30
0.0
  0
ENDBLK
  5
1D4C
  8
0
  0
BLOCK
  8
0
  2
*D17
 70
     1
 10
0.0
 20
0.0
 30
0.0
  3
*D17
  1

  0
LINE
  5
1D5F
  8
COTAS
 62
     0
 10
-6.25
 20
-52.71650704209289
 30
0.0
 11
-13.87482804416847
 21
-52.71650704209289
 31
0.0
  0
LINE
  5
1D60
  8
COTAS
 62
     0
 10
-6.25
 20
-37.71650704209289
 30
0.0
 11
-13.87482804416847
 21
-37.71650704209289
 31
0.0
  0
LINE
  5
1D61
  8
COTAS
 62
     0
 10
-12.07482804416847
 20
-50.9165070420929
 30
0.0
 11
-12.07482804416847
 21
-47.01650704209289
 31
0.0
  0
LINE
  5
1D62
  8
COTAS
 62
     0
 10
-12.07482804416847
 20
-39.51650704209289
 30
0.0
 11
-12.07482804416847
 21
-43.4165070420929
 31
0.0
  0
SOLID
  5
1D63
  8
COTAS
 62
     0
 10
-12.37482804416847
 20
-50.9165070420929
 30
0.0
 11
-11.77482804416847
 21
-50.9165070420929
 31
0.0
 12
-12.07482804416847
 22
-52.71650704209289
 32
0.0
 13
-12.07482804416847
 23
-52.71650704209289
 33
0.0
  0
SOLID
  5
1D64
  8
COTAS
 62
     0
 10
-11.77482804416847
 20
-39.51650704209289
 30
0.0
 11
-12.37482804416847
 21
-39.51650704209289
 31
0.0
 12
-12.07482804416847
 22
-37.71650704209289
 32
0.0
 13
-12.07482804416847
 23
-37.71650704209289
 33
0.0
  0
TEXT
  5
1D65
  8
COTAS
  6
CONTINUOUS
 62
     0
 10
-14.32482804416847
 20
-46.11650704209289
 30
0.0
 40
1.8
  1
15.0
  0
POINT
  5
1D66
  8
DEFPOINTS
 62
     0
 10
0.0
 20
-52.71650704209289
 30
0.0
  0
POINT
  5
1D67
  8
DEFPOINTS
 62
     0
 10
0.0
 20
-37.71650704209289
 30
0.0
  0
POINT
  5
1D68
  8
DEFPOINTS
 62
     0
 10
-12.07482804416847
 20
-37.71650704209289
 30
0.0
  0
ENDBLK
  5
1D5E
  8
0
  0
BLOCK
  8
0
  2
*D18
 70
     1
 10
0.0
 20
0.0
 30
0.0
  3
*D18
  1

  0
LINE
  5
1D6F
  8
COTAS
 62
     0
 10
0.0
 20
66.25000000000003
 30
0.0
 11
0.0
 21
77.95085506988192
 31
0.0
  0
LINE
  5
1D70
  8
COTAS
 62
     0
 10
55.00000000000102
 20
66.25000000000003
 30
0.0
 11
55.00000000000102
 21
77.95085506988192
 31
0.0
  0
LINE
  5
1D71
  8
COTAS
 62
     0
 10
1.8
 20
76.15085506988193
 30
0.0
 11
24.05000000000051
 21
76.15085506988193
 31
0.0
  0
LINE
  5
1D72
  8
COTAS
 62
     0
 10
53.20000000000103
 20
76.15085506988193
 30
0.0
 11
30.95000000000051
 21
76.15085506988193
 31
0.0
  0
SOLID
  5
1D73
  8
COTAS
 62
     0
 10
1.8
 20
76.45085506988192
 30
0.0
 11
1.8
 21
75.85085506988193
 31
0.0
 12
0.0
 22
76.15085506988193
 32
0.0
 13
0.0
 23
76.15085506988193
 33
0.0
  0
SOLID
  5
1D74
  8
COTAS
 62
     0
 10
53.20000000000103
 20
75.85085506988193
 30
0.0
 11
53.20000000000103
 21
76.45085506988192
 31
0.0
 12
55.00000000000102
 22
76.15085506988193
 32
0.0
 13
55.00000000000102
 23
76.15085506988193
 33
0.0
  0
TEXT
  5
1D75
  8
COTAS
  6
CONTINUOUS
 62
     0
 10
24.95000000000051
 20
75.25085506988194
 30
0.0
 40
1.8
  1
55.0
  0
POINT
  5
1D76
  8
DEFPOINTS
 62
     0
 10
0.0
 20
60.00000000000003
 30
0.0
  0
POINT
  5
1D77
  8
DEFPOINTS
 62
     0
 10
55.00000000000102
 20
60.00000000000003
 30
0.0
  0
POINT
  5
1D78
  8
DEFPOINTS
 62
     0
 10
55.00000000000102
 20
76.15085506988193
 30
0.0
  0
ENDBLK
  5
1D6E
  8
0
  0
BLOCK
  8
0
  2
*D19
 70
     1
 10
0.0
 20
0.0
 30
0.0
  3
*D19
  1

  0
LINE
  5
1D7F
  8
COTAS
 62
     0
 10
-6.25
 20
60.00000000000003
 30
0.0
 11
-19.63042852429156
 21
60.00000000000003
 31
0.0
  0
LINE
  5
1D80
  8
COTAS
 62
     0
 10
-6.25
 20
0.0000000000000004
 30
0.0
 11
-19.63042852429157
 21
0.0000000000000012
 31
0.0
  0
LINE
  5
1D81
  8
COTAS
 62
     0
 10
-17.83042852429156
 20
58.20000000000003
 30
0.0
 11
-17.83042852429156
 21
31.80000000000001
 31
0.0
  0
LINE
  5
1D82
  8
COTAS
 62
     0
 10
-17.83042852429157
 20
1.800000000000001
 30
0.0
 11
-17.83042852429157
 21
28.20000000000002
 31
0.0
  0
SOLID
  5
1D83
  8
COTAS
 62
     0
 10
-17.53042852429156
 20
58.20000000000003
 30
0.0
 11
-18.13042852429156
 21
58.20000000000003
 31
0.0
 12
-17.83042852429156
 22
60.00000000000003
 32
0.0
 13
-17.83042852429156
 23
60.00000000000003
 33
0.0
  0
SOLID
  5
1D84
  8
COTAS
 62
     0
 10
-18.13042852429157
 20
1.800000000000001
 30
0.0
 11
-17.53042852429157
 21
1.800000000000001
 31
0.0
 12
-17.83042852429157
 22
0.0000000000000011
 32
0.0
 13
-17.83042852429157
 23
0.0000000000000011
 33
0.0
  0
TEXT
  5
1D85
  8
COTAS
  6
CONTINUOUS
 62
     0
 10
-20.23042852429156
 20
29.10000000000001
 30
0.0
 40
1.8
  1
60.0
  0
POINT
  5
1D86
  8
DEFPOINTS
 62
     0
 10
0.0
 20
60.00000000000003
 30
0.0
  0
POINT
  5
1D87
  8
DEFPOINTS
 62
     0
 10
0.0
 20
0.0
 30
0.0
  0
POINT
  5
1D88
  8
DEFPOINTS
 62
     0
 10
-17.83042852429157
 20
0.0000000000000011
 30
0.0
  0
ENDBLK
  5
1D7E
  8
0
  0
BLOCK
  8
0
  2
*D20
 70
     1
 10
0.0
 20
0.0
 30
0.0
  3
*D20
  1

  0
LINE
  5
1D91
  8
COTAS
 62
     0
 10
0.0
 20
66.25000000000003
 30
0.0
 11
0.0
 21
71.525617001698
 31
0.0
  0
LINE
  5
1D92
  8
COTAS
 62
     0
 10
10.49999999999989
 20
58.74999999998562
 30
0.0
 11
10.49999999999989
 21
71.525617001698
 31
0.0
  0
LINE
  5
1D93
  8
COTAS
 62
     0
 10
-1.8
 20
69.725617001698
 30
0.0
 11
-3.6
 21
69.725617001698
 31
0.0
  0
LINE
  5
1D94
  8
COTAS
 62
     0
 10
12.29999999999989
 20
69.725617001698
 30
0.0
 11
14.09999999999989
 21
69.725617001698
 31
0.0
  0
SOLID
  5
1D95
  8
COTAS
 62
     0
 10
-1.8
 20
69.425617001698
 30
0.0
 11
-1.8
 21
70.025617001698
 31
0.0
 12
0.0
 22
69.725617001698
 32
0.0
 13
0.0
 23
69.725617001698
 33
0.0
  0
SOLID
  5
1D96
  8
COTAS
 62
     0
 10
12.29999999999989
 20
70.025617001698
 30
0.0
 11
12.29999999999989
 21
69.425617001698
 31
0.0
 12
10.49999999999989
 22
69.725617001698
 32
0.0
 13
10.49999999999989
 23
69.725617001698
 33
0.0
  0
TEXT
  5
1D97
  8
COTAS
  6
CONTINUOUS
 62
     0
 10
2.999999999999945
 20
68.825617001698
 30
0.0
 40
1.8
  1
10.5
  0
POINT
  5
1D98
  8
DEFPOINTS
 62
     0
 10
0.0
 20
60.00000000000003
 30
0.0
  0
POINT
  5
1D99
  8
DEFPOINTS
 62
     0
 10
10.49999999999989
 20
52.49999999998562
 30
0.0
  0
POINT
  5
1D9A
  8
DEFPOINTS
 62
     0
 10
10.49999999999989
 20
69.725617001698
 30
0.0
  0
ENDBLK
  5
1D90
  8
0
  0
BLOCK
  8
0
  2
*D21
 70
     1
 10
0.0
 20
0.0
 30
0.0
  3
*D21
  1

  0
LINE
  5
1D9F
  8
COTAS
 62
     0
 10
10.49999999999989
 20
58.74999999998562
 30
0.0
 11
10.49999999999989
 21
71.525617001698
 31
0.0
  0
LINE
  5
1DA0
  8
COTAS
 62
     0
 10
44.5
 20
58.75
 30
0.0
 11
44.5
 21
71.525617001698
 31
0.0
  0
LINE
  5
1DA1
  8
COTAS
 62
     0
 10
12.29999999999989
 20
69.725617001698
 30
0.0
 11
24.04999999999994
 21
69.725617001698
 31
0.0
  0
LINE
  5
1DA2
  8
COTAS
 62
     0
 10
42.7
 20
69.725617001698
 30
0.0
 11
30.94999999999994
 21
69.725617001698
 31
0.0
  0
SOLID
  5
1DA3
  8
COTAS
 62
     0
 10
12.29999999999989
 20
70.025617001698
 30
0.0
 11
12.29999999999989
 21
69.425617001698
 31
0.0
 12
10.49999999999989
 22
69.725617001698
 32
0.0
 13
10.49999999999989
 23
69.725617001698
 33
0.0
  0
SOLID
  5
1DA4
  8
COTAS
 62
     0
 10
42.7
 20
69.425617001698
 30
0.0
 11
42.7
 21
70.025617001698
 31
0.0
 12
44.5
 22
69.725617001698
 32
0.0
 13
44.5
 23
69.725617001698
 33
0.0
  0
TEXT
  5
1DA5
  8
COTAS
  6
CONTINUOUS
 62
     0
 10
24.94999999999994
 20
68.825617001698
 30
0.0
 40
1.8
  1
34.0
  0
POINT
  5
1DA6
  8
DEFPOINTS
 62
     0
 10
10.49999999999989
 20
52.49999999998562
 30
0.0
  0
POINT
  5
1DA7
  8
DEFPOINTS
 62
     0
 10
44.5
 20
52.5
 30
0.0
  0
POINT
  5
1DA8
  8
DEFPOINTS
 62
     0
 10
44.5
 20
69.725617001698
 30
0.0
  0
ENDBLK
  5
1D9E
  8
0
  0
BLOCK
  8
0
  2
*D22
 70
     1
 10
0.0
 20
0.0
 30
0.0
  3
*D22
  1

  0
LINE
  5
1DAF
  8
COTAS
 62
     0
 10
-6.25
 20
60.00000000000003
 30
0.0
 11
-10.88351637841641
 21
60.00000000000003
 31
0.0
  0
LINE
  5
1DB0
  8
COTAS
 62
     0
 10
4.24999999999989
 20
52.49999999998562
 30
0.0
 11
-10.88351637841641
 21
52.49999999998562
 31
0.0
  0
LINE
  5
1DB1
  8
COTAS
 62
     0
 10
-9.083516378416412
 20
58.20000000000003
 30
0.0
 11
-9.083516378416412
 21
54.29999999998562
 31
0.0
  0
SOLID
  5
1DB2
  8
COTAS
 62
     0
 10
-8.783516378416412
 20
58.20000000000003
 30
0.0
 11
-9.383516378416413
 21
58.20000000000003
 31
0.0
 12
-9.083516378416412
 22
60.00000000000003
 32
0.0
 13
-9.083516378416412
 23
60.00000000000003
 33
0.0
  0
SOLID
  5
1DB3
  8
COTAS
 62
     0
 10
-9.383516378416413
 20
54.29999999998562
 30
0.0
 11
-8.783516378416412
 21
54.29999999998562
 31
0.0
 12
-9.083516378416412
 22
52.49999999998562
 32
0.0
 13
-9.083516378416412
 23
52.49999999998562
 33
0.0
  0
TEXT
  5
1DB4
  8
COTAS
  6
CONTINUOUS
 62
     0
 10
-14.93351637841641
 20
55.34999999999282
 30
0.0
 40
1.8
  1
7.5
  0
POINT
  5
1DB5
  8
DEFPOINTS
 62
     0
 10
0.0
 20
60.00000000000003
 30
0.0
  0
POINT
  5
1DB6
  8
DEFPOINTS
 62
     0
 10
10.49999999999989
 20
52.49999999998562
 30
0.0
  0
POINT
  5
1DB7
  8
DEFPOINTS
 62
     0
 10
-9.083516378416412
 20
52.49999999998562
 30
0.0
  0
ENDBLK
  5
1DAE
  8
0
  0
BLOCK
  8
0
  2
*D23
 70
     1
 10
0.0
 20
0.0
 30
0.0
  3
*D23
  1

  0
LINE
  5
1DBC
  8
COTAS
 62
     0
 10
4.24999999999989
 20
52.49999999998562
 30
0.0
 11
-10.88351637841641
 21
52.49999999998562
 31
0.0
  0
LINE
  5
1DBD
  8
COTAS
 62
     0
 10
4.24999999999989
 20
7.5
 30
0.0
 11
-10.88351637841642
 21
7.500000000000001
 31
0.0
  0
LINE
  5
1DBE
  8
COTAS
 62
     0
 10
-9.083516378416412
 20
50.69999999998562
 30
0.0
 11
-9.083516378416414
 21
31.7999999999928
 31
0.0
  0
LINE
  5
1DBF
  8
COTAS
 62
     0
 10
-9.083516378416416
 20
9.3
 30
0.0
 11
-9.083516378416414
 21
28.19999999999281
 31
0.0
  0
SOLID
  5
1DC0
  8
COTAS
 62
     0
 10
-8.783516378416412
 20
50.69999999998562
 30
0.0
 11
-9.383516378416413
 21
50.69999999998562
 31
0.0
 12
-9.083516378416412
 22
52.49999999998562
 32
0.0
 13
-9.083516378416412
 23
52.49999999998562
 33
0.0
  0
SOLID
  5
1DC1
  8
COTAS
 62
     0
 10
-9.383516378416417
 20
9.3
 30
0.0
 11
-8.783516378416415
 21
9.3
 31
0.0
 12
-9.083516378416416
 22
7.500000000000001
 32
0.0
 13
-9.083516378416416
 23
7.500000000000001
 33
0.0
  0
TEXT
  5
1DC2
  8
COTAS
  6
CONTINUOUS
 62
     0
 10
-11.63351637841641
 20
29.09999999999281
 30
0.0
 40
1.8
  1
45.0
  0
POINT
  5
1DC3
  8
DEFPOINTS
 62
     0
 10
10.49999999999989
 20
52.49999999998562
 30
0.0
  0
POINT
  5
1DC4
  8
DEFPOINTS
 62
     0
 10
10.49999999999989
 20
7.5
 30
0.0
  0
POINT
  5
1DC5
  8
DEFPOINTS
 62
     0
 10
-9.083516378416416
 20
7.500000000000001
 30
0.0
  0
ENDBLK
  5
1DBB
  8
0
  0
BLOCK
  8
0
  2
*D24
 70
     1
 10
0.0
 20
0.0
 30
0.0
  3
*D24
  1

  0
LINE
  5
1DCD
  8
COTAS
 62
     0
 10
158.080912826947
 20
26.84393333057652
 30
0.0
 11
157.3855791199835
 21
23.92562713760082
 31
0.0
  0
TEXT
  5
1DCE
  8
COTAS
  6
CONTINUOUS
 62
     0
 10
157.464644579041
 20
30.40997771328499
 30
0.0
 40
1.8
  1
ø4.8
  0
SOLID
  5
1DCF
  8
COTAS
 62
     0
 10
157.510948724864
 20
25.7461442240826
 30
0.0
 11
158.0946099634592
 21
25.6070774826899
 31
0.0
 12
157.3855791199835
 22
23.92562713760082
 32
0.0
 13
157.3855791199835
 23
23.92562713760082
 33
0.0
  0
SOLID
  5
1DD0
  8
COTAS
 62
     0
 10
158.3727434462446
 20
26.77439995988016
 30
0.0
 11
157.7890822076494
 21
26.91346670127287
 31
0.0
 12
158.4981130511251
 22
28.59491704636194
 32
0.0
 13
158.4981130511251
 23
28.59491704636194
 33
0.0
  0
POINT
  5
1DD1
  8
DEFPOINTS
 62
     0
 10
158.4981130511251
 20
28.59491704636194
 30
0.0
  0
POINT
  5
1DD2
  8
DEFPOINTS
 62
     0
 10
157.3855791199835
 20
23.92562713760082
 30
0.0
  0
ENDBLK
  5
1DCC
  8
0
  0
BLOCK
  8
0
  2
*D25
 70
     1
 10
0.0
 20
0.0
 30
0.0
  3
*D25
  1

  0
LINE
  5
1DD9
  8
COTAS
 62
     0
 10
11.52575248408666
 20
53.12276146426382
 30
0.0
 11
7.935618789783024
 21
50.94309633929016
 31
0.0
  0
TEXT
  5
1DDA
  8
COTAS
  6
CONTINUOUS
 62
     0
 10
13.20472994160977
 20
55.19236562372259
 30
0.0
 40
1.8
  1
ø6.0
  0
SOLID
  5
1DDB
  8
COTAS
 62
     0
 10
9.318557149843578
 20
52.1336766567291
 30
0.0
 11
9.629937881982666
 21
51.62080041468574
 31
0.0
 12
7.935618789783024
 22
50.94309633929016
 32
0.0
 13
7.935618789783024
 23
50.94309633929016
 33
0.0
  0
SOLID
  5
1DDC
  8
COTAS
 62
     0
 10
11.6814428501562
 20
52.86632334324214
 30
0.0
 11
11.37006211801711
 21
53.3791995852855
 31
0.0
 12
13.06438121021676
 22
54.05690366068108
 32
0.0
 13
13.06438121021676
 23
54.05690366068108
 33
0.0
  0
POINT
  5
1DDD
  8
DEFPOINTS
 62
     0
 10
13.06438121021676
 20
54.05690366068108
 30
0.0
  0
POINT
  5
1DDE
  8
DEFPOINTS
 62
     0
 10
7.935618789783024
 20
50.94309633929016
 30
0.0
  0
ENDBLK
  5
1DD8
  8
0
  0
ENDSEC
  0
SECTION
  2
ENTITIES
  0
LINE
  5
65
  8
-11
  6
AVEVASOLID
 62
   253
 10
183.0716521028405
 20
171.6640592998592
 30
0.0
 11
330.0716521028405
 21
171.6640592998592
 31
0.0
  0
LINE
  5
131
  8
-300
  6
AVEVASOLIDXWIDE
 62
    92
 10
-62.73523266278448
 20
-111.2442353778752
 30
0.0
 11
-62.73523266278448
 21
171.7557646221248
 31
0.0
  0
LINE
  5
132
  8
-300
  6
AVEVASOLIDXWIDE
 62
    92
 10
-62.73523266278448
 20
171.7557646221248
 30
0.0
 11
330.0716521028405
 21
171.6640592998592
 31
0.0
  0
LINE
  5
133
  8
-300
  6
AVEVASOLIDXWIDE
 62
    92
 10
330.0716521028405
 20
171.6640592998592
 30
0.0
 11
330.0716521028405
 21
-111.335935454932
 31
0.0
  0
LINE
  5
134
  8
-300
  6
AVEVASOLIDXWIDE
 62
    92
 10
-62.73523266278448
 20
-111.2442353778752
 30
0.0
 11
330.0716521028405
 21
-111.335935454932
 31
0.0
  0
LINE
  5
13A
  8
-300
  6
AVEVASOLID
 62
    92
 10
-82.92833266817274
 20
178.6640592998592
 30
0.0
 11
-82.92833266817274
 21
-118.3359353804262
 31
0.0
  0
LINE
  5
13B
  8
-300
  6
AVEVASOLID
 62
    92
 10
-82.92833266817274
 20
-118.3359353804262
 30
0.0
 11
337.0716521028405
 21
-118.3359353804262
 31
0.0
  0
LINE
  5
13D
  8
-300
  6
AVEVASOLIDXWIDE
 62
    92
 10
337.0716521028405
 20
-118.3359353804262
 30
0.0
 11
337.0716521028405
 21
-108.3359349780949
 31
0.0
  0
LINE
  5
13E
  8
-300
  6
AVEVASOLIDXWIDE
 62
    92
 10
327.0716521028405
 20
-118.3359353804262
 30
0.0
 11
337.0716521028405
 21
-118.3359353804262
 31
0.0
  0
LINE
  5
13F
  8
-300
  6
AVEVASOLID
 62
    92
 10
337.0716521028405
 20
178.6640592998592
 30
0.0
 11
337.0716521028405
 21
-118.3359353804262
 31
0.0
  0
LINE
  5
142
  8
-300
  6
AVEVASOLID
 62
    92
 10
-82.92833266817274
 20
178.6640592998592
 30
0.0
 11
337.0716521028405
 21
178.6640592998592
 31
0.0
  0
LINE
  5
151
  8
-300
  6
AVEVASOLIDXWIDE
 62
    92
 10
337.0716521028405
 20
-118.3359353804262
 30
0.0
 11
337.0716521028405
 21
-108.3359349780949
 31
0.0
  0
LINE
  5
152
  8
-300
  6
AVEVASOLIDXWIDE
 62
    92
 10
327.0716521028405
 20
-118.3359353804262
 30
0.0
 11
337.0716521028405
 21
-118.3359353804262
 31
0.0
  0
LINE
  5
153
  8
-300
  6
AVEVASOLID
 62
    92
 10
337.0716521028405
 20
178.6640592998592
 30
0.0
 11
337.0716521028405
 21
-118.3359353804262
 31
0.0
  0
LINE
  5
156
  8
-300
  6
AVEVASOLID
 62
    92
 10
-82.92833266817274
 20
178.6640592998592
 30
0.0
 11
337.0716521028405
 21
178.6640592998592
 31
0.0
  0
LINE
  5
159
  8
-300
  6
AVEVASOLID
 62
    92
 10
-82.92833266817274
 20
178.6640592998592
 30
0.0
 11
-82.92833266817274
 21
-118.3359353804262
 31
0.0
  0
LINE
  5
15A
  8
-300
  6
AVEVASOLID
 62
    92
 10
-82.92833266817274
 20
-118.3359353804262
 30
0.0
 11
337.0716521028405
 21
-118.3359353804262
 31
0.0
  0
LINE
  5
1732
  8
-300
  6
AVEVASOLIDXWIDE
 62
    92
 10
197.1874120930276
 20
-89.33593497809488
 30
0.0
 11
293.7873876789652
 21
-89.33593497809488
 31
0.0
  0
LINE
  5
1733
  8
-300
  6
AVEVASOLIDXWIDE
 62
    92
 10
197.1874120930276
 20
-89.33593497809488
 30
0.0
 11
330.0716521028405
 21
-89.33593497809488
 31
0.0
  0
TEXT
  5
1766
  8
-300
  6
CONTINUOUS
 62
     7
 10
309.320647663588
 20
-117.3915822617073
 30
0.0
 40
3.125
  1
Padrao-A3
  0
CIRCLE
  5
1910
  8
0
 10
157.9418460855543
 20
3.632855094011902
 30
0.0000000001085521
 40
2.399999999999992
  0
CIRCLE
  5
1911
  8
0
 10
153.2555545845391
 20
14.9465635929967
 30
0.0000000001086395
 40
2.399999999999991
  0
LINE
  5
1913
  8
0
 10
162.1027833026815
 20
29.9465635929967
 30
0.0000000001085324
 11
176.4082833026814
 21
29.9465635929967
 31
0.0000000001085239
  0
LINE
  5
1914
  8
0
 10
162.1027833026815
 20
-0.0534364070033035
 30
0.0000000001085521
 11
154.6027833026817
 21
-0.0534364070033035
 31
0.0000000001085549
  0
CIRCLE
  5
1915
  8
0
 10
-180.5692205198088
 20
26.26027209198138
 30
-0.0000000001087812
 40
2.399999999999991
210
-1.455341044071821E-15
220
2.063401413685382E-16
230
-1.0
  0
LINE
  5
1916
  8
0
 10
191.4082833026816
 20
59.94656359311885
 30
0.0000000001084929
 11
147.1027833026816
 21
59.9465635929967
 31
0.0000000001085211
  0
LINE
  5
1917
  8
0
 10
154.6027833026817
 20
-0.0534364070033035
 30
0.0000000001085549
 11
154.6027833026817
 21
0.9465635929966965
 31
0.0000000001085549
  0
LINE
  5
1918
  8
0
 10
154.6027833026817
 20
0.9465635929966965
 30
0.0000000001085549
 11
147.1027833026816
 21
0.9465635929966965
 31
0.0000000001085606
  0
LINE
  5
1919
  8
0
 10
147.1027833026816
 20
0.9465635929966965
 30
0.0000000001085606
 11
147.1027833026816
 21
59.9465635929967
 31
0.0000000001085211
  0
LINE
  5
191A
  8
0
 10
176.4082833026814
 20
-0.0534364070033035
 30
0.0000000001085436
 11
176.4082833026814
 21
29.9465635929967
 31
0.0000000001085239
  0
LINE
  5
191B
  8
0
 10
191.4082833026816
 20
0.9465635929965828
 30
0.0000000001085775
 11
191.4082833026816
 21
59.94656359311885
 31
0.0000000001084929
  0
LINE
  5
191C
  8
0
 10
183.9082833026815
 20
0.9465635929965828
 30
0.0000000001086282
 11
191.4082833026816
 21
0.9465635929965828
 31
0.0000000001085775
  0
LINE
  5
191D
  8
0
 10
176.4082833026814
 20
-0.0534364070033035
 30
0.0000000001085436
 11
183.9082833026815
 21
-0.0534364070034172
 31
0.0000000001086282
  0
LINE
  5
191E
  8
0
 10
162.1027833026815
 20
-0.0534364070033035
 30
0.0000000001085521
 11
162.1027833026815
 21
29.9465635929967
 31
0.0000000001085324
  0
LINE
  5
191F
  8
0
 10
183.9082833026815
 20
-0.0534364070034172
 30
0.0000000001086282
 11
183.9082833026815
 21
0.9465635929965828
 31
0.0000000001086282
  0
CIRCLE
  5
1920
  8
0
 10
-180.5692205198088
 20
3.632855094011902
 30
-0.000000000103839
 40
2.399999999999993
210
2.575478658920730E-14
220
2.575733015944181E-14
230
-1.0
  0
CIRCLE
  5
1921
  8
0
 10
-185.2555120208241
 20
14.9465635929967
 30
-0.0000000001085291
 40
2.399999999999993
210
2.515608114765556E-18
220
-2.515608114765623E-18
230
-1.0
  0
CIRCLE
  5
1922
  8
0
 10
157.9418460855543
 20
26.26027209198138
 30
0.000000000108538
 40
2.399999999999994
  0
CIRCLE
  5
1937
  8
0
 10
-44.5
 20
7.5
 30
-0.0000000002532745
 40
3.000000000000041
210
-2.585283840707524E-12
220
6.436049987857164E-12
230
-1.0
  0
CIRCLE
  5
1938
  8
0
 10
-10.49999999999989
 20
7.5
 30
-0.0000000001653782
 40
3.00000000000004
210
-2.585606913072922E-12
220
6.436054555975228E-12
230
-1.0
  0
CIRCLE
  5
1939
  8
0
 10
-44.5
 20
52.5
 30
0.0000000000363302
 40
3.00000000000004
210
-2.585356864431153E-12
220
6.435777459610416E-12
230
-1.0
  0
LINE
  5
193A
  8
0
 10
55.00000000000102
 20
59.99999999999983
 30
0.0000000000518012
 11
55.00000000000102
 21
0.0
 31
0.0000000001864997
  0
LINE
  5
193B
  8
0
 10
0.0
 20
0.0
 30
0.0
 11
55.00000000000102
 21
0.0
 31
0.0000000001864997
  0
LINE
  5
193C
  8
0
 10
0.0
 20
60.00000000000003
 30
0.0000000002300249
 11
55.00000000000102
 21
59.99999999999983
 31
0.0000000000518012
  0
CIRCLE
  5
193D
  8
0
 10
-10.49999999999989
 20
52.49999999998562
 30
0.0000000000807514
 40
3.00000000000004
210
6.418482382756902E-13
220
5.702664456652696E-12
230
-1.0
  0
LINE
  5
193E
  8
0
 10
0.0
 20
60.00000000000003
 30
0.0000000002300249
 11
0.0
 21
0.0
 31
0.0
  0
LINE
  5
1940
  8
0
 10
0.0
 20
-37.71650704209289
 30
0.0
 11
0.0
 21
-52.71650704209287
 31
0.0
  0
LINE
  5
1941
  8
0
 10
55.00000000000102
 20
-37.71650704209289
 30
0.0000000001864997
 11
55.00000000000102
 21
-52.71650704209289
 31
0.0000000001864997
  0
LINE
  5
1944
  8
0
 10
0.0
 20
-52.71650704209289
 30
0.0
 11
55.00000000000104
 21
-52.71650704209289
 31
0.0
  0
LINE
  5
1945
  8
0
 10
147.1027833026816
 20
-52.71650704209289
 30
0.0000000001085606
 11
191.4082833026816
 21
-52.71650704209289
 31
0.0000000001085606
  0
LINE
  5
1946
  8
0
 10
0.0
 20
-37.71650704209289
 30
0.0
 11
55.00000000000104
 21
-37.71650704209289
 31
0.0
  0
LINE
  5
1947
  8
0
 10
147.1027833026816
 20
-37.71650704209289
 30
0.0000000001085606
 11
191.4082833026816
 21
-37.71650704209289
 31
0.0000000001085606
  0
LINE
  5
194C
  8
0
  6
AVEVASHORTDASHED
 10
47.50000000000004
 20
-37.71650704209289
 30
0.0000000001787439
 11
47.50000000000004
 21
-52.71650704209289
 31
0.0000000001787439
  0
LINE
  5
194D
  8
0
  6
AVEVASHORTDASHED
 10
41.49999999999996
 20
-37.71650704209289
 30
0.0000000001942556
 11
41.49999999999996
 21
-52.71650704209289
 31
0.0000000001942556
  0
LINE
  5
194E
  8
0
  6
AVEVASHORTDASHED
 10
13.49999999999993
 20
-37.71650704209288
 30
0.0000000001787429
 11
13.49999999999993
 21
-52.71650704209289
 31
0.0000000001787429
  0
LINE
  5
194F
  8
0
  6
AVEVASHORTDASHED
 10
7.499999999999846
 20
-37.71650704209289
 30
0.0000000001942565
 11
7.499999999999846
 21
-52.71650704209289
 31
0.0000000001942565
  0
LINE
  5
1955
  8
0
  6
AVEVASHORTDASHED
 10
187.6555120208241
 20
-52.71650704209289
 30
0.0000000002170901
 11
187.6555120208241
 21
-37.71650704209289
 31
0.0000000002170901
  0
LINE
  5
1957
  8
0
 10
191.4082833026816
 20
-37.71650704209289
 30
0.0000000002171381
 11
191.4082833026816
 21
-52.71650704209289
 31
0.0000000002171381
  0
LINE
  5
1958
  8
0
  6
AVEVASHORTDASHED
 10
182.9692205198088
 20
-37.71650704209289
 30
0.0000000002172055
 11
182.9692205198088
 21
-52.71650704209289
 31
0.0000000002172055
  0
LINE
  5
1959
  8
0
  6
AVEVASHORTDASHED
 10
178.1692205198088
 20
-37.71650704209289
 30
0.0000000002170818
 11
178.1692205198088
 21
-52.71650704209289
 31
0.0000000002170818
  0
LINE
  5
195A
  8
0
  6
AVEVASHORTDASHED
 10
160.3418460855543
 20
-37.71650704209289
 30
0.0000000002171127
 11
160.3418460855543
 21
-52.71650704209289
 31
0.0000000002171127
  0
LINE
  5
195B
  8
0
  6
AVEVASHORTDASHED
 10
155.6555545845391
 20
-37.71650704209289
 30
0.0000000002172001
 11
155.6555545845391
 21
-52.71650704209289
 31
0.0000000002172001
  0
LINE
  5
195C
  8
0
  6
AVEVASHORTDASHED
 10
150.8555545845392
 20
-37.71650704209289
 30
0.0000000002172001
 11
150.8555545845392
 21
-52.71650704209289
 31
0.0000000002172001
  0
LINE
  5
195D
  8
0
 10
147.1027833026816
 20
-37.71650704209289
 30
0.0000000002171212
 11
147.1027833026816
 21
-52.71650704209288
 31
0.0000000002171212
  0
LINE
  5
195E
  8
0
 10
154.6027833026817
 20
-37.71650704209287
 30
0.0000000002171155
 11
154.6027833026817
 21
-52.71650704209289
 31
0.0000000002171155
  0
LINE
  5
195F
  8
0
 10
162.1027833026815
 20
-37.71650704209288
 30
0.0000000002171127
 11
162.1027833026815
 21
-52.71650704209289
 31
0.0000000002171127
  0
LINE
  5
1960
  8
0
 10
176.4082833026814
 20
-37.71650704209289
 30
0.0000000002171042
 11
176.4082833026814
 21
-52.71650704209289
 31
0.0000000002171042
  0
LINE
  5
1961
  8
0
 10
183.9082833026815
 20
-37.71650704209289
 30
0.0000000002171888
 11
183.9082833026815
 21
-52.71650704209289
 31
0.0000000002171888
  0
TEXT
  5
1988
  8
-300
  6
CONTINUOUS
 62
     7
 10
-15.29357280871345
 20
-67.06627777129002
 30
0.0
 40
3.125
  1
Fabricar-Z-trava-castanha-2
  0
TEXT
  5
19AF
  8
-300
  6
CONTINUOUS
 62
     7
 10
130.5158094680851
 20
-66.14417490930359
 30
-0.0000000002008843
 40
3.125
  1
Fabricar-Z-trava-castanha
  0
LINE
  5
19B1
  8
0
 10
-15.29357280871345
 20
-68.89822986446127
 30
0.0
 11
70.29357280871449
 21
-68.89822986446127
 31
0.0
  0
LINE
  5
19DB
  8
0
 10
208.1989606791415
 20
-68.89822986446126
 30
0.0
 11
130.3121059262216
 21
-68.89822986446126
 31
0.0
  0
LINE
  5
1B9D
  8
-300
  6
AVEVASOLIDXWIDE
 62
    92
 10
197.1874120930276
 20
-89.33593497809488
 30
0.0
 11
293.7873876789652
 21
-89.33593497809488
 31
0.0
  0
LINE
  5
1B9E
  8
-300
  6
AVEVASOLIDXWIDE
 62
    92
 10
197.1874120930276
 20
-89.33593497809488
 30
0.0
 11
330.0716521028405
 21
-89.33593497809488
 31
0.0
  0
TEXT
  5
1B9F
  8
-300
  6
CONTINUOUS
 62
    92
 10
230.4017851501996
 20
-109.8054927281508
 30
0.0
 40
3.125
  1
Verif:
  0
TEXT
  5
1BA0
  8
-300
  6
CONTINUOUS
 62
    92
 10
198.1358942593087
 20
-109.7523143115541
 30
0.0
 40
3.125
  1
Exec:
  0
TEXT
  5
1BA1
  8
-300
  6
CONTINUOUS
 62
    92
 10
197.8023195419805
 20
-98.73903594550212
 30
0.0
 40
3.125
  1
Material:
  0
TEXT
  5
1BA2
  8
-300
  6
CONTINUOUS
 62
    92
 10
292.8475262961977
 20
-96.0839131885441
 30
0.0
 40
3.125
  1
Rev:
  0
TEXT
  5
1BA3
  8
-300
  6
CONTINUOUS
 62
    92
 10
292.853782552454
 20
-106.0839131885441
 30
0.0
 40
3.125
  1
Data:
  0
TEXT
  5
1BA4
  8
-300
  6
CONTINUOUS
 62
    92
 10
262.4205539189684
 20
-109.7833347118037
 30
0.0
 40
3.125
  1
Aprov:
  0
TEXT
  5
1BA5
  8
-300
  6
CONTINUOUS
 62
     7
 10
216.0443590656704
 20
-109.7182128253481
 30
0.0
 40
3.125
  1
DR
  0
TEXT
  5
1BA6
  8
-300
  6
CONTINUOUS
 62
     7
 10
248.0443590656704
 20
-109.7182149711152
 30
0.0
 40
3.125
  1
DR
  0
TEXT
  5
1BA7
  8
-300
  6
CONTINUOUS
 62
     7
 10
280.0443590656704
 20
-109.7492351329464
 30
0.0
 40
3.125
  1
DR
  0
TEXT
  5
1BA8
  8
-300
  6
CONTINUOUS
 62
     7
 10
310.9477745800078
 20
-96.2136761368791
 30
0.0
 40
3.130000114440918
  1
0
  0
TEXT
  5
1BA9
  8
-300
  6
CONTINUOUS
 62
     7
 10
307.4015761054001
 20
-106.2543236894151
 30
0.0
 40
3.125
  1
03/05/15
  0
LINE
  5
1BAA
  8
-300
  6
AVEVASOLID
 62
    92
 10
290.5249622160042
 20
-100.3359349780949
 30
0.0
 11
322.1140430265511
 21
-100.3359349780949
 31
0.0
  0
LINE
  5
1BAB
  8
-300
  6
AVEVASOLID
 62
    92
 10
197.1874120930276
 20
-89.33593497809488
 30
0.0
 11
197.1874120930276
 21
-111.335935454932
 31
0.0
  0
LINE
  5
1BAC
  8
-300
  6
AVEVASOLID
 62
    92
 10
290.5249622160042
 20
-111.335935454932
 30
0.0
 11
290.5249622160042
 21
-89.33593497809488
 31
0.0
  0
LINE
  5
1BAD
  8
-300
  6
AVEVASOLID
 62
    92
 10
290.5249622160042
 20
-100.3359349780949
 30
0.0
 11
330.0716521028405
 21
-100.3359349780949
 31
0.0
  0
LINE
  5
1BAE
  8
-300
  6
AVEVASOLID
 62
    92
 10
197.1874120930276
 20
-94.83593497809488
 30
0.0
 11
290.5249622160042
 21
-94.83593497809488
 31
0.0
  0
LINE
  5
1BAF
  8
-300
  6
AVEVASOLID
 62
    92
 10
197.1874120930276
 20
-94.83593497809488
 30
0.0
 11
290.5249622160042
 21
-94.83593497809488
 31
0.0
  0
LINE
  5
1BB0
  8
-300
  6
AVEVASOLID
 62
    92
 10
197.1874120930276
 20
-100.3359349780949
 30
0.0
 11
290.5249622160042
 21
-100.3359349780949
 31
0.0
  0
LINE
  5
1BB1
  8
-300
  6
AVEVASOLID
 62
    92
 10
197.1874120930276
 20
-100.3359349780949
 30
0.0
 11
290.5249622160042
 21
-100.3359349780949
 31
0.0
  0
LINE
  5
1BB2
  8
-300
  6
AVEVASOLID
 62
    92
 10
197.1874120930276
 20
-105.8359349780949
 30
0.0
 11
290.5249622160042
 21
-105.8359349780949
 31
0.0
  0
LINE
  5
1BB3
  8
-300
  6
AVEVASOLID
 62
    92
 10
197.1874120930276
 20
-105.8359349780949
 30
0.0
 11
290.5249622160042
 21
-105.8359349780949
 31
0.0
  0
TEXT
  5
1BB4
  8
-300
  6
CONTINUOUS
 62
     7
 10
222.1746753582354
 20
-98.80241271681994
 30
0.0
 40
3.125
  1
MDF ou Alumínio 6061
  0
TEXT
  5
1BB5
  8
-300
  6
CONTINUOUS
 62
     7
 10
212.1746753582354
 20
-93.30241271681994
 30
0.0
 40
3.125
  1
Fabricar-Z-trava-castanha
  0
TEXT
  5
1BB6
  8
-300
  6
CONTINUOUS
 62
    92
 10
197.8023195419805
 20
-93.23903594550212
 30
0.0
 40
3.125
  1
Nome:
  0
LINE
  5
1BB7
  8
-300
  6
AVEVASOLIDXWIDE
 62
    92
 10
197.1874120930276
 20
-89.33593497809488
 30
0.0
 11
330.0716521028405
 21
-89.33593497809488
 31
0.0
  0
TEXT
  5
1BB8
  8
-300
  6
CONTINUOUS
 62
    92
 10
197.8023195419805
 20
-104.2390359455021
 30
0.0
 40
3.125
  1
Qtd:
  0
LINE
  5
1BB9
  8
-300
  6
AVEVASOLIDXWIDE
 62
    92
 10
197.1874120930276
 20
-89.33593497809488
 30
0.0
 11
290.5249622160042
 21
-89.33593497809488
 31
0.0
  0
LINE
  5
1BBA
  8
-300
  6
AVEVASOLID
 62
    92
 10
290.5249622160042
 20
-111.335935454932
 30
0.0
 11
290.5249622160042
 21
-89.33593497809488
 31
0.0
  0
LINE
  5
1BBB
  8
-300
  6
AVEVASOLID
 62
    92
 10
197.1874120930276
 20
-89.33593497809488
 30
0.0
 11
197.1874120930276
 21
-111.335935454932
 31
0.0
  0
LINE
  5
1BBC
  8
-300
  6
AVEVASOLIDXWIDE
 62
    92
 10
197.1874120930276
 20
-89.33593497809488
 30
0.0
 11
290.5249622160042
 21
-89.33593497809488
 31
0.0
  0
TEXT
  5
1BBD
  8
-300
  6
CONTINUOUS
 62
     7
 10
210.1687941204283
 20
-104.3024127168199
 30
0.0
 40
3.125
  1
1
  0
LINE
  5
1CC7
  8
COTAS
  6
AVEVASHORTDASHED
 10
146.5892453897711
 20
14.94656359299669
 30
0.0000000001085846
 11
191.9218212155921
 21
14.94656359299669
 31
0.0000000001085846
  0
LINE
  5
1CC8
  8
COTAS
 10
169.2555333026816
 20
29.94656359299669
 30
0.0000000001085846
 11
169.2555333026816
 21
2.803912715039122
 31
0.0000000001085846
  0
LINE
  5
1CC9
  8
COTAS
  6
AVEVASHORTDASHED
 10
154.2555615187052
 20
-0.0534364070033071
 30
0.000000000109687
 11
184.2555050866593
 21
29.94656359299669
 31
0.0000000001085765
  0
LINE
  5
1CCA
  8
COTAS
  6
AVEVASHORTDASHED
 10
154.2555615187046
 20
-0.0534364070033035
 30
0.0000000001091398
 11
184.2555050866586
 21
29.94656359299669
 31
0.0000000001080293
  0
LINE
  5
1CCB
  8
COTAS
  6
AVEVASHORTDASHED
 10
154.2555615187046
 20
29.94656359299662
 30
0.0000000001091398
 11
184.2555050866587
 21
-0.0534364070032503
 31
0.0000000001080293
  0
DIMENSION
  5
1CCC
  8
COTAS
  2
*D8
 10
169.2555333026816
 20
14.94656359299669
 30
0.0000000001085846
 11
180.2113597140617
 21
30.33533425899521
 31
0.0000000001085846
 70
   164
  1
<>
  3
ISO-25
 15
178.5350570040193
 25
27.98076628730493
 35
0.0000000001085846
 40
0.0
1001
ACAD
1000
DSTYLE
1002
{
1070
   287
1070
     5
1070
   171
1070
     2
1070
   143
1040
25.4
1070
    41
1040
0.18
1070
   141
1040
0.09
1070
   271
1070
     1
1070
    46
1040
0.38
1070
    43
1040
0.38
1070
    44
1040
0.18
1070
   147
1040
0.09
1070
    40
1040
10.0
1070
    77
1070
     0
1070
   279
1070
     2
1070
   140
1040
0.18
1002
}
1001
ACAD_DSTYLE_DIMRADIAL_EXTE
1070
   387
1070
     1
1070
   388
1040
0.0
1070
   390
1040
6.283185307179586
  0
DIMENSION
  5
1CCD
  8
COTAS
  2
*D9
 10
176.4082833026814
 20
39.72547029686056
 30
0.0000000001096547
 11
169.2555333026815
 21
39.72547029686056
 31
0.0000000001096547
 70
    32
  3
ISO-25
 13
162.1027833026816
 23
29.94656359299669
 33
0.0000000001096547
 14
176.4082833026814
 24
29.94656359299669
 34
0.0000000001085239
1001
ACAD
1000
DSTYLE
1002
{
1070
   287
1070
     5
1070
   171
1070
     2
1070
   143
1040
25.4
1070
    41
1040
0.18
1070
   141
1040
0.09
1070
   271
1070
     1
1070
    46
1040
0.38
1070
    43
1040
0.38
1070
    44
1040
0.18
1070
   147
1040
0.09
1070
    40
1040
10.0
1070
    77
1070
     0
1070
   279
1070
     2
1070
   140
1040
0.18
1002
}
  0
DIMENSION
  5
1CCE
  8
COTAS
  2
*D10
 10
124.424734386011
 20
59.9465635929967
 30
0.0000000001096547
 11
124.424734386011
 21
29.9465635929967
 31
0.0000000001096547
 70
    32
  3
ISO-25
 13
154.6027833026828
 23
-0.0534364070033071
 33
0.0000000001096858
 14
147.102783302682
 24
59.9465635929967
 34
0.0000000001096547
 50
90.0
1001
ACAD
1000
DSTYLE
1002
{
1070
   287
1070
     5
1070
   171
1070
     2
1070
   143
1040
25.4
1070
    41
1040
0.18
1070
   141
1040
0.09
1070
   271
1070
     1
1070
    46
1040
0.38
1070
    43
1040
0.38
1070
    44
1040
0.18
1070
   147
1040
0.09
1070
    40
1040
10.0
1070
    77
1070
     0
1070
   279
1070
     2
1070
   140
1040
0.18
1002
}
  0
DIMENSION
  5
1CCF
  8
COTAS
  2
*D11
 10
131.3816547210384
 20
0.9465635929966939
 30
0.0000000001096547
 11
131.3816547210384
 21
30.4465635929967
 31
0.0000000001096547
 70
    32
  3
ISO-25
 13
147.102783302682
 23
59.9465635929967
 33
0.0000000001085211
 14
147.1027833026737
 24
0.9465635929966929
 34
0.0000000001096547
 50
90.0
1001
ACAD
1000
DSTYLE
1002
{
1070
   287
1070
     5
1070
   171
1070
     2
1070
   143
1040
25.4
1070
    41
1040
0.18
1070
   141
1040
0.09
1070
   271
1070
     1
1070
    46
1040
0.38
1070
    43
1040
0.38
1070
    44
1040
0.18
1070
   147
1040
0.09
1070
    40
1040
10.0
1070
    77
1070
     0
1070
   279
1070
     2
1070
   140
1040
0.18
1002
}
  0
DIMENSION
  5
1CD0
  8
COTAS
  2
*D12
 10
136.7634232820974
 20
29.94656359299669
 30
0.0000000001096547
 11
136.7634232820974
 21
14.94656359299669
 31
0.0000000001096547
 70
    32
  3
ISO-25
 13
162.1027833026816
 23
-0.0534364070033071
 33
0.0000000001096829
 14
162.1027833026816
 24
29.94656359299669
 34
0.0000000001096547
 50
90.0
1001
ACAD
1000
DSTYLE
1002
{
1070
   287
1070
     5
1070
   171
1070
     2
1070
   143
1040
25.4
1070
    41
1040
0.18
1070
   141
1040
0.09
1070
   271
1070
     1
1070
    46
1040
0.38
1070
    43
1040
0.38
1070
    44
1040
0.18
1070
   147
1040
0.09
1070
    40
1040
10.0
1070
    77
1070
     0
1070
   279
1070
     2
1070
   140
1040
0.18
1002
}
  0
DIMENSION
  5
1CD1
  8
COTAS
  2
*D13
 10
144.087813399727
 20
14.9465635929967
 30
0.0000000001096547
 11
144.087813399727
 21
22.4465635929967
 31
0.0000000001096547
 70
    32
  3
ISO-25
 13
162.1027833026816
 23
29.94656359299669
 33
0.0000000001085888
 14
162.1027833026816
 24
14.94656359299669
 34
0.0000000001091359
 50
90.0
1001
ACAD
1000
DSTYLE
1002
{
1070
   287
1070
     5
1070
   171
1070
     2
1070
   143
1040
25.4
1070
    41
1040
0.18
1070
   141
1040
0.09
1070
   271
1070
     1
1070
    46
1040
0.38
1070
    43
1040
0.38
1070
    44
1040
0.18
1070
   147
1040
0.09
1070
    40
1040
10.0
1070
    77
1070
     0
1070
   279
1070
     2
1070
   140
1040
0.18
1002
}
  0
DIMENSION
  5
1CD2
  8
COTAS
  2
*D14
 10
191.4082833026816
 20
76.15085506988193
 30
0.0000000001096547
 11
169.2555333026818
 21
76.15085506988193
 31
0.0000000001096547
 70
    32
  3
ISO-25
 13
147.102783302682
 23
59.9465635929967
 33
0.0000000001096547
 14
191.4082833026816
 24
59.94656359311885
 34
0.0000000001084929
1001
ACAD
1000
DSTYLE
1002
{
1070
   287
1070
     5
1070
   171
1070
     2
1070
   143
1040
25.4
1070
    41
1040
0.18
1070
   141
1040
0.09
1070
   271
1070
     1
1070
    46
1040
0.38
1070
    43
1040
0.38
1070
    44
1040
0.18
1070
   147
1040
0.09
1070
    40
1040
10.0
1070
    77
1070
     0
1070
   279
1070
     2
1070
   140
1040
0.18
1002
}
  0
LINE
  5
1D29
  8
0
 10
185.2555120208241
 20
14.9465635929967
 30
0.0000000001085295
 11
153.2555545845391
 21
14.9465635929967
 31
0.0000000001086395
  0
ARC
  5
1D2D
  8
COTAS
  6
AVEVASHORTDASHED
 10
169.2555333026822
 20
14.94656359299669
 30
0.0000000001091317
 40
16.0
 50
300.9574750366353
 51
59.49050825126406
  0
ARC
  5
1D32
  8
COTAS
  6
AVEVASHORTDASHED
 10
169.2555333026822
 20
14.94656359299669
 30
0.0000000001091317
 40
16.0
 50
119.1419335194911
 51
239.7498417005585
  0
DIMENSION
  5
1D47
  8
COTAS
  2
*D16
 10
135.074661112222
 20
-52.71650704209288
 30
0.0
 11
135.074661112222
 21
-45.21650704209289
 31
0.0
 70
    32
  3
ISO-25
 13
147.1027833026816
 23
-37.71650704209289
 33
0.0000000002171212
 14
147.1027833026816
 24
-52.71650704209288
 34
0.0000000002171212
 50
90.0
1001
ACAD
1000
DSTYLE
1002
{
1070
   287
1070
     5
1070
   171
1070
     2
1070
   143
1040
25.4
1070
    41
1040
0.18
1070
   141
1040
0.09
1070
   271
1070
     1
1070
    46
1040
0.38
1070
    43
1040
0.38
1070
    44
1040
0.18
1070
   147
1040
0.09
1070
    40
1040
10.0
1070
    77
1070
     0
1070
   279
1070
     2
1070
   140
1040
0.18
1002
}
  0
DIMENSION
  5
1D59
  8
COTAS
  2
*D17
 10
-12.07482804416847
 20
-37.71650704209289
 30
0.0
 11
-12.07482804416847
 21
-45.21650704209289
 31
0.0
 70
    32
  3
ISO-25
 13
0.0
 23
-52.71650704209289
 33
0.0
 14
0.0
 24
-37.71650704209289
 34
0.0
 50
90.0
1001
ACAD
1000
DSTYLE
1002
{
1070
   287
1070
     5
1070
   171
1070
     2
1070
   143
1040
25.4
1070
    41
1040
0.18
1070
   141
1040
0.09
1070
   271
1070
     1
1070
    46
1040
0.38
1070
    43
1040
0.38
1070
    44
1040
0.18
1070
   147
1040
0.09
1070
    40
1040
10.0
1070
    77
1070
     0
1070
   279
1070
     2
1070
   140
1040
0.18
1002
}
  0
DIMENSION
  5
1D69
  8
COTAS
  2
*D18
 10
55.00000000000102
 20
76.15085506988193
 30
0.0
 11
27.50000000000051
 21
76.15085506988193
 31
0.0
 70
    32
  3
ISO-25
 13
0.0
 23
60.00000000000003
 33
0.0000000002300249
 14
55.00000000000102
 24
60.00000000000003
 34
0.0000000000518012
1001
ACAD
1000
DSTYLE
1002
{
1070
   287
1070
     5
1070
   171
1070
     2
1070
   143
1040
25.4
1070
    41
1040
0.18
1070
   141
1040
0.09
1070
   271
1070
     1
1070
    46
1040
0.38
1070
    43
1040
0.38
1070
    44
1040
0.18
1070
   147
1040
0.09
1070
    40
1040
10.0
1070
    77
1070
     0
1070
   279
1070
     2
1070
   140
1040
0.18
1002
}
  0
DIMENSION
  5
1D79
  8
COTAS
  2
*D19
 10
-17.83042852429157
 20
0.0000000000000011
 30
0.0
 11
-17.83042852429156
 21
30.00000000000001
 31
0.0
 70
    32
  3
ISO-25
 13
0.0
 23
60.00000000000003
 33
0.0000000002300249
 14
0.0
 24
0.0
 34
0.0
 50
90.0
1001
ACAD
1000
DSTYLE
1002
{
1070
   287
1070
     5
1070
   171
1070
     2
1070
   143
1040
25.4
1070
    41
1040
0.18
1070
   141
1040
0.09
1070
   271
1070
     1
1070
    46
1040
0.38
1070
    43
1040
0.38
1070
    44
1040
0.18
1070
   147
1040
0.09
1070
    40
1040
10.0
1070
    77
1070
     0
1070
   279
1070
     2
1070
   140
1040
0.18
1002
}
  0
DIMENSION
  5
1D8B
  8
COTAS
  2
*D20
 10
10.49999999999989
 20
69.725617001698
 30
0.0
 11
5.249999999999945
 21
69.725617001698
 31
0.0
 70
    32
  3
ISO-25
 13
0.0
 23
60.00000000000003
 33
0.0000000002300249
 14
10.49999999999989
 24
52.49999999998562
 34
0.0000000002253779
1001
ACAD
1000
DSTYLE
1002
{
1070
   287
1070
     5
1070
   171
1070
     2
1070
   143
1040
25.4
1070
    41
1040
0.18
1070
   141
1040
0.09
1070
   271
1070
     1
1070
    46
1040
0.38
1070
    43
1040
0.38
1070
    44
1040
0.18
1070
   147
1040
0.09
1070
    40
1040
10.0
1070
    77
1070
     0
1070
   279
1070
     2
1070
   140
1040
0.18
1002
}
  0
DIMENSION
  5
1D9B
  8
COTAS
  2
*D21
 10
44.5
 20
69.725617001698
 30
0.0
 11
27.49999999999994
 21
69.725617001698
 31
0.0
 70
    32
  3
ISO-25
 13
10.49999999999989
 23
52.49999999998562
 33
0.0000000002253779
 14
44.5
 24
52.5
 34
0.0000000001864997
1001
ACAD
1000
DSTYLE
1002
{
1070
   287
1070
     5
1070
   171
1070
     2
1070
   143
1040
25.4
1070
    41
1040
0.18
1070
   141
1040
0.09
1070
   271
1070
     1
1070
    46
1040
0.38
1070
    43
1040
0.38
1070
    44
1040
0.18
1070
   147
1040
0.09
1070
    40
1040
10.0
1070
    77
1070
     0
1070
   279
1070
     2
1070
   140
1040
0.18
1002
}
  0
DIMENSION
  5
1DA9
  8
COTAS
  2
*D22
 10
-9.083516378416412
 20
52.49999999998562
 30
0.0
 11
-13.13351637841641
 21
56.24999999999282
 31
0.0
 70
    32
  3
ISO-25
 13
0.0
 23
60.00000000000003
 33
0.0000000002300249
 14
10.49999999999989
 24
52.49999999998562
 34
0.0000000002253779
 50
90.0
1001
ACAD
1000
DSTYLE
1002
{
1070
   287
1070
     5
1070
   171
1070
     2
1070
   143
1040
25.4
1070
    41
1040
0.18
1070
   141
1040
0.09
1070
   271
1070
     1
1070
    46
1040
0.38
1070
    43
1040
0.38
1070
    44
1040
0.18
1070
   147
1040
0.09
1070
    40
1040
10.0
1070
    77
1070
     0
1070
   279
1070
     2
1070
   140
1040
0.18
1002
}
  0
DIMENSION
  5
1DB8
  8
COTAS
  2
*D23
 10
-9.083516378416416
 20
7.500000000000001
 30
0.0
 11
-9.083516378416414
 21
29.99999999999281
 31
0.0
 70
    32
  3
ISO-25
 13
10.49999999999989
 23
52.49999999998562
 33
0.0000000002253779
 14
10.49999999999989
 24
7.5
 34
0.0000000001864997
 50
90.0
1001
ACAD
1000
DSTYLE
1002
{
1070
   287
1070
     5
1070
   171
1070
     2
1070
   143
1040
25.4
1070
    41
1040
0.18
1070
   141
1040
0.09
1070
   271
1070
     1
1070
    46
1040
0.38
1070
    43
1040
0.38
1070
    44
1040
0.18
1070
   147
1040
0.09
1070
    40
1040
10.0
1070
    77
1070
     0
1070
   279
1070
     2
1070
   140
1040
0.18
1002
}
  0
DIMENSION
  5
1DC7
  8
COTAS
  2
*D24
 10
157.3855791199835
 20
23.92562713760082
 30
0.000000000108538
 11
160.164644579041
 21
31.30997771328499
 31
0.0
 70
   163
  1
<>
  3
ISO-25
 15
158.4981130511251
 25
28.59491704636194
 35
0.000000000108538
 40
0.0
1001
ACAD
1000
DSTYLE
1002
{
1070
   287
1070
     5
1070
   171
1070
     2
1070
   143
1040
25.4
1070
    41
1040
0.18
1070
   141
1040
0.09
1070
   271
1070
     1
1070
    46
1040
0.38
1070
    43
1040
0.38
1070
    44
1040
0.18
1070
   147
1040
0.09
1070
    40
1040
10.0
1070
    77
1070
     0
1070
   279
1070
     2
1070
   140
1040
0.18
1002
}
1001
ACAD_DSTYLE_DIMRADIAL_EXT0
1070
   387
1070
     1
1070
   388
1040
0.0
1070
   390
1040
6.283185307179586
  0
DIMENSION
  5
1DD3
  8
COTAS
  2
*D25
 10
7.935618789783024
 20
50.94309633929016
 30
0.0000000002148534
 11
15.75472994160977
 21
56.09236562372259
 31
0.0
 70
   163
  1
<>
  3
ISO-25
 15
13.06438121021676
 25
54.05690366068108
 35
0.0000000002359023
 40
0.0
1001
ACAD
1000
DSTYLE
1002
{
1070
   287
1070
     5
1070
   171
1070
     2
1070
   143
1040
25.4
1070
    41
1040
0.18
1070
   141
1040
0.09
1070
   271
1070
     1
1070
    46
1040
0.38
1070
    43
1040
0.38
1070
    44
1040
0.18
1070
   147
1040
0.09
1070
    40
1040
10.0
1070
    77
1070
     0
1070
   279
1070
     2
1070
   140
1040
0.18
1002
}
1001
ACAD_DSTYLE_DIMRADIAL_EXT0
1070
   387
1070
     1
1070
   388
1040
0.0
1070
   390
1040
6.283185307179586
  0
LINE
  5
1DDF
  8
COTAS
  6
AVEVASHORTDASHED
 10
10.49999999999989
 20
59.16568133513874
 30
0.0000000002253779
 11
10.49999999999989
 21
45.8343186648325
 31
0.0000000002253779
  0
LINE
  5
1DE0
  8
COTAS
  6
AVEVASHORTDASHED
 10
17.16568133515301
 20
52.49999999998562
 30
0.0000000002253779
 11
3.834318664846768
 21
52.49999999998562
 31
0.0000000002253779
  0
LINE
  5
1DE1
  8
COTAS
  6
AVEVASHORTDASHED
 10
44.5
 20
59.16568133513874
 30
0.0
 11
44.5
 21
45.8343186648325
 31
0.0
  0
LINE
  5
1DE2
  8
COTAS
  6
AVEVASHORTDASHED
 10
51.16568133515312
 20
52.49999999998562
 30
0.0
 11
37.83431866484688
 21
52.49999999998562
 31
0.0
  0
LINE
  5
1DE3
  8
COTAS
  6
AVEVASHORTDASHED
 10
44.5
 20
14.16568133515312
 30
0.0000000001864997
 11
44.5
 21
0.834318664846883
 31
0.0000000001864997
  0
LINE
  5
1DE4
  8
COTAS
  6
AVEVASHORTDASHED
 10
51.16568133515312
 20
7.5
 30
0.0000000001864997
 11
37.83431866484688
 21
7.5
 31
0.0000000001864997
  0
LINE
  5
1DE5
  8
COTAS
  6
AVEVASHORTDASHED
 10
10.49999999999989
 20
14.16568133515312
 30
0.0000000001864997
 11
10.49999999999989
 21
0.834318664846883
 31
0.0000000001864997
  0
LINE
  5
1DE6
  8
COTAS
  6
AVEVASHORTDASHED
 10
17.16568133515301
 20
7.5
 30
0.0000000001864997
 11
3.834318664846769
 21
7.5
 31
0.0000000001864997
  0
LINE
  5
1DE9
  8
COTAS
  6
AVEVASHORTDASHED
 10
10.49999999999989
 20
-34.0508257069398
 30
-0.0000000000193082
 11
10.49999999999989
 21
-55.6722079210092
 31
-0.0000000000193082
  0
LINE
  5
1DEB
  8
COTAS
  6
AVEVASHORTDASHED
 10
44.5
 20
-34.0508257069398
 30
-0.0000000000193082
 11
44.5
 21
-55.6722079210092
 31
-0.0000000000193082
  0
LINE
  5
1DF0
  8
COTAS
  6
AVEVASHORTDASHED
 10
153.2555333026822
 20
-34.0508257069398
 30
0.0000000000892524
 11
153.2555333026822
 21
-55.6722079210092
 31
0.0000000000892524
  0
LINE
  5
1DF1
  8
COTAS
  6
AVEVASHORTDASHED
 10
157.9418354446411
 20
-34.0508257069398
 30
0.0000000000892524
 11
157.9418354446411
 21
-55.6722079210092
 31
0.0000000000892524
  0
LINE
  5
1DF2
  8
COTAS
  6
AVEVASHORTDASHED
 10
180.5692205198088
 20
-34.0508257069398
 30
0.0000000000892524
 11
180.5692205198088
 21
-55.6722079210092
 31
0.0000000000892524
  0
LINE
  5
1DF3
  8
COTAS
  6
AVEVASHORTDASHED
 10
185.2554110360913
 20
-34.0508257069398
 30
0.0000000000892524
 11
185.2554110360913
 21
-55.6722079210092
 31
0.0000000000892524
  0
VIEWPORT
  5
16EA
 67
     1
  8
0
 10
143.5
 20
95.0
 30
0.0
 40
462.0
 41
231.0
 68
     1
 69
     1
1001
ACAD
1000
MVIEW
1002
{
1070
    16
1010
0.0
1020
0.0
1030
0.0
1020
0.0
1030
0.0
1010
0.0
1020
0.0
1030
1.0
1020
0.0
1030
1.0
1040
0.0
1040
231.0
1040
143.5
1040
95.0
1040
50.0
1040
0.0
1040
0.0
1070
     0
1070
   100
1070
     1
1070
     0
1070
     0
1070
     0
1070
     0
1070
     0
1040
0.0
1040
0.0
1040
0.0
1040
10.0
1040
10.0
1040
10.0
1040
10.0
1070
     1
1002
{
1002
}
1002
}
  0
VIEWPORT
  5
16EC
 67
     1
  8
VIEWPORTS
 10
143.5
 20
95.0
 30
0.0
 40
287.0
 41
162.7319641113281
 68
     2
 69
     2
1001
ACAD
1000
MVIEW
1002
{
1070
    16
1010
0.0
1020
0.0
1030
0.0
1020
0.0
1030
0.0
1010
0.0
1020
0.0
1030
1.0
1020
0.0
1030
1.0
1040
0.0
1040
305.9693908691406
1040
209.806884765625
1040
148.4082946777344
1040
50.0
1040
0.0
1040
0.0
1070
     0
1070
   100
1070
     1
1070
     0
1070
     0
1070
     0
1070
     0
1070
     0
1040
0.0
1040
0.0
1040
0.0
1040
10.0
1040
10.0
1040
10.0
1040
10.0
1070
     1
1002
{
1002
}
1002
}
  0
ENDSEC
  0
EOF
