  0
SECTION
  2
HEADER
  9
$ACADVER
  1
AC1009
  9
$DWGCODEPAGE
  3
ansi_1252
  9
$INSBASE
 10
0.0
 20
0.0
 30
0.0
  9
$EXTMIN
 10
-82.92833266817274
 20
-118.3359353804262
 30
-0.000000000000079
  9
$EXTMAX
 10
337.0716521028405
 20
178.6640592998592
 30
0.0000000002444114
  9
$LIMMIN
 10
0.0
 20
0.0
  9
$LIMMAX
 10
12.0
 20
9.0
  9
$ORTHOMODE
 70
     0
  9
$REGENMODE
 70
     1
  9
$FILLMODE
 70
     1
  9
$QTEXTMODE
 70
     0
  9
$MIRRTEXT
 70
     1
  9
$DRAGMODE
 70
     2
  9
$LTSCALE
 40
1.0
  9
$OSMODE
 70
   511
  9
$ATTMODE
 70
     1
  9
$TEXTSIZE
 40
2.5
  9
$TRACEWID
 40
0.05
  9
$TEXTSTYLE
  7
STANDARD
  9
$CLAYER
  8
0
  9
$CELTYPE
  6
BYLAYER
  9
$CECOLOR
 62
   256
  9
$DIMSCALE
 40
1.0
  9
$DIMASZ
 40
0.18
  9
$DIMEXO
 40
0.625
  9
$DIMDLI
 40
0.38
  9
$DIMRND
 40
0.0
  9
$DIMDLE
 40
0.38
  9
$DIMEXE
 40
0.18
  9
$DIMTP
 40
0.0
  9
$DIMTM
 40
0.0
  9
$DIMTXT
 40
0.18
  9
$DIMCEN
 40
0.09
  9
$DIMTSZ
 40
0.0
  9
$DIMTOL
 70
     0
  9
$DIMLIM
 70
     0
  9
$DIMTIH
 70
     1
  9
$DIMTOH
 70
     1
  9
$DIMSE1
 70
     0
  9
$DIMSE2
 70
     0
  9
$DIMTAD
 70
     0
  9
$DIMZIN
 70
     0
  9
$DIMBLK
  1

  9
$DIMASO
 70
     1
  9
$DIMSHO
 70
     1
  9
$DIMPOST
  1

  9
$DIMAPOST
  1

  9
$DIMALT
 70
     0
  9
$DIMALTD
 70
     2
  9
$DIMALTF
 40
25.4
  9
$DIMLFAC
 40
1.0
  9
$DIMTOFL
 70
     0
  9
$DIMTVP
 40
0.0
  9
$DIMTIX
 70
     0
  9
$DIMSOXD
 70
     0
  9
$DIMSAH
 70
     0
  9
$DIMBLK1
  1

  9
$DIMBLK2
  1

  9
$DIMSTYLE
  2
ISO-25
  9
$DIMCLRD
 70
     0
  9
$DIMCLRE
 70
     0
  9
$DIMCLRT
 70
     0
  9
$DIMTFAC
 40
1.0
  9
$DIMGAP
 40
0.09
  9
$LUNITS
 70
     2
  9
$LUPREC
 70
     4
  9
$SKETCHINC
 40
0.1
  9
$FILLETRAD
 40
0.5
  9
$AUNITS
 70
     0
  9
$AUPREC
 70
     0
  9
$MENU
  1

  9
$ELEVATION
 40
0.0
  9
$PELEVATION
 40
0.0
  9
$THICKNESS
 40
0.0
  9
$LIMCHECK
 70
     0
  9
$CHAMFERA
 40
0.5
  9
$CHAMFERB
 40
0.5
  9
$SKPOLY
 70
     0
  9
$TDCREATE
 40
2447892.875
  9
$TDUPDATE
 40
2457146.978325498
  9
$TDINDWG
 40
0.0247433218
  9
$TDUSRTIMER
 40
2457147.103199572
  9
$USRTIMER
 70
     0
  9
$ANGBASE
 50
0.0
  9
$ANGDIR
 70
     0
  9
$PDMODE
 70
     0
  9
$PDSIZE
 40
0.0
  9
$PLINEWID
 40
0.0
  9
$COORDS
 70
     1
  9
$SPLFRAME
 70
     0
  9
$SPLINETYPE
 70
     6
  9
$SPLINESEGS
 70
     8
  9
$ATTDIA
 70
     0
  9
$ATTREQ
 70
     1
  9
$HANDLING
 70
     1
  9
$HANDSEED
  5
1A59
  9
$SURFTAB1
 70
     6
  9
$SURFTAB2
 70
     6
  9
$SURFTYPE
 70
     6
  9
$SURFU
 70
     6
  9
$SURFV
 70
     6
  9
$UCSNAME
  2

  9
$UCSORG
 10
0.0
 20
0.0
 30
0.0
  9
$UCSXDIR
 10
1.0
 20
0.0
 30
0.0
  9
$UCSYDIR
 10
0.0
 20
1.0
 30
0.0
  9
$PUCSNAME
  2

  9
$PUCSORG
 10
0.0
 20
0.0
 30
0.0
  9
$PUCSXDIR
 10
1.0
 20
0.0
 30
0.0
  9
$PUCSYDIR
 10
0.0
 20
1.0
 30
0.0
  9
$USERI1
 70
     0
  9
$USERI2
 70
     0
  9
$USERI3
 70
     0
  9
$USERI4
 70
     0
  9
$USERI5
 70
     0
  9
$USERR1
 40
0.0
  9
$USERR2
 40
0.0
  9
$USERR3
 40
0.0
  9
$USERR4
 40
0.0
  9
$USERR5
 40
0.0
  9
$WORLDVIEW
 70
     1
  9
$SHADEDGE
 70
     3
  9
$SHADEDIF
 70
    70
  9
$TILEMODE
 70
     1
  9
$MAXACTVP
 70
    64
  9
$PLIMCHECK
 70
     0
  9
$PEXTMIN
 10
0.0
 20
0.0
 30
0.0
  9
$PEXTMAX
 10
0.0
 20
0.0
 30
0.0
  9
$PLIMMIN
 10
0.0
 20
0.0
  9
$PLIMMAX
 10
0.0
 20
0.0
  9
$UNITMODE
 70
     0
  9
$VISRETAIN
 70
     1
  9
$PLINEGEN
 70
     0
  9
$PSLTSCALE
 70
     1
  0
ENDSEC
  0
SECTION
  2
TABLES
  0
TABLE
  2
VPORT
 70
     1
  0
VPORT
  2
*ACTIVE
 70
     0
 10
0.0
 20
0.0
 11
1.0
 21
1.0
 12
-82.73522504829123
 22
-118.2442327180179
 13
0.0
 23
0.0
 14
0.0
 24
0.0
 15
0.0
 25
0.0
 16
0.0
 26
0.0
 36
1.0
 17
209.8068847656251
 27
148.4082946777344
 37
0.0
 40
302.9399945738911
 41
2.050393700787402
 42
50.0
 43
0.0
 44
0.0
 50
0.0
 51
0.0
 71
    16
 72
     0
 73
     0
 74
     1
 75
     0
 76
     0
 77
     0
 78
     0
  0
ENDTAB
  0
TABLE
  2
LTYPE
 70
     6
  0
LTYPE
  2
CONTINUOUS
 70
     0
  3
Solid line
 72
    65
 73
     0
 40
0.0
  0
LTYPE
  2
AVEVASOLID
 70
     0
  3
Aveva linetype
 72
    65
 73
     1
 40
2.25
 49
2.25
  0
LTYPE
  2
AVEVASOLIDXWIDE
 70
     0
  3
Aveva linetype
 72
    65
 73
     1
 40
2.25
 49
2.25
  0
LTYPE
  2
AVEVADASHEDDOTTED
 70
     0
  3
Aveva linetype
 72
    65
 73
     4
 40
7.771428571428572
 49
5.485714285714286
 49
-1.142857142857143
 49
0.0
 49
-1.142857142857143
  0
LTYPE
  2
AVEVADASHEDDOUBLEDOTTEDWID
 70
     0
  3
Aveva linetype
 72
    65
 73
     6
 40
19.0
 49
14.5
 49
-2.0
 49
0.0
 49
-0.5
 49
0.0
 49
-2.0
  0
LTYPE
  2
AVEVASHORTDASHED
 70
     0
  3
Aveva linetype
 72
    65
 73
     2
 40
2.0
 49
1.5
 49
-0.5
  0
ENDTAB
  0
TABLE
  2
LAYER
 70
    12
  0
LAYER
  2
0
 70
     0
 62
     7
  6
CONTINUOUS
  0
LAYER
  2
-11
 70
     0
 62
     7
  6
CONTINUOUS
  0
LAYER
  2
2001
 70
     0
 62
     7
  6
CONTINUOUS
  0
LAYER
  2
6001
 70
     0
 62
     7
  6
CONTINUOUS
  0
LAYER
  2
-1127
 70
     0
 62
     7
  6
CONTINUOUS
  0
LAYER
  2
-1128
 70
     0
 62
     7
  6
CONTINUOUS
  0
LAYER
  2
-1
 70
     0
 62
     7
  6
CONTINUOUS
  0
LAYER
  2
-203
 70
     0
 62
     7
  6
CONTINUOUS
  0
LAYER
  2
-1102
 70
     0
 62
     7
  6
CONTINUOUS
  0
LAYER
  2
-1109
 70
     0
 62
     7
  6
CONTINUOUS
  0
LAYER
  2
-300
 70
     0
 62
     7
  6
CONTINUOUS
  0
LAYER
  2
VIEWPORTS
 70
     0
 62
    -7
  6
CONTINUOUS
  0
ENDTAB
  0
TABLE
  2
STYLE
 70
     3
  0
STYLE
  2
STANDARD
 70
     0
 40
0.0
 41
1.0
 50
0.0
 71
     0
 42
2.5
  3
txt
  4

  0
STYLE
  2
AVEVATEXTSTYLE1
 70
     0
 40
0.0
 41
1.0
 50
0.0
 71
     0
 42
2.5
  3
Arial Narrow
  4

  0
STYLE
  2
AVEVATEXTSTYLE2
 70
     0
 40
0.0
 41
1.0
 50
0.0
 71
     0
 42
2.5
  3
Arial
  4

  0
ENDTAB
  0
TABLE
  2
VIEW
 70
     0
  0
ENDTAB
  0
TABLE
  2
UCS
 70
     0
  0
ENDTAB
  0
TABLE
  2
APPID
 70
     1
  0
APPID
  2
ACAD
 70
     0
  0
ENDTAB
  0
TABLE
  2
DIMSTYLE
 70
     2
  0
DIMSTYLE
  2
ISO-25
 70
     0
  3

  4

  5

  6

  7

 40
1.0
 41
2.5
 42
0.625
 43
0.3799999952316284
 44
0.1800000071525574
 45
0.0
 46
0.3799999952316284
 47
0.0
 48
0.0
140
2.5
141
0.0900000035762787
142
0.0
143
25.39999961853027
144
1.0
145
0.0
146
1.0
147
0.0900000035762787
 71
     0
 72
     0
 73
     1
 74
     1
 75
     0
 76
     0
 77
     1
 78
     0
170
     0
171
     3
172
     0
173
     0
174
     0
175
     0
176
     0
177
     0
178
     0
  0
DIMSTYLE
  2
STANDARD
 70
     0
  3

  4

  5

  6

  7

 40
1.0
 41
0.18
 42
0.0625
 43
0.38
 44
0.18
 45
0.0
 46
0.0
 47
0.0
 48
0.0
140
0.18
141
0.09
142
0.0
143
25.4
144
1.0
145
0.0
146
1.0
147
0.09
 71
     0
 72
     0
 73
     1
 74
     1
 75
     0
 76
     0
 77
     0
 78
     0
170
     0
171
     2
172
     0
173
     0
174
     0
175
     0
176
     0
177
     0
178
     0
  0
ENDTAB
  0
ENDSEC
  0
SECTION
  2
BLOCKS
  0
BLOCK
  8
0
  2
$MODEL_SPACE
 70
     0
 10
0.0
 20
0.0
 30
0.0
  3
$MODEL_SPACE
  1

  0
ENDBLK
  5
7
  8
0
  0
BLOCK
 67
     1
  8
0
  2
$PAPER_SPACE
 70
     0
 10
0.0
 20
0.0
 30
0.0
  3
$PAPER_SPACE
  1

  0
ENDBLK
  5
A
 67
     1
  8
0
  0
ENDSEC
  0
SECTION
  2
ENTITIES
  0
LINE
  5
65
  8
-11
  6
AVEVASOLID
 62
   253
 10
183.0716521028405
 20
171.6640592998592
 30
0.0
 11
330.0716521028405
 21
171.6640592998592
 31
0.0
  0
TEXT
  5
110
  8
-300
  6
CONTINUOUS
 62
    92
 10
198.4043458389073
 20
-104.336514203026
 30
0.0
 40
3.125
  1
Verif:
  0
TEXT
  5
113
  8
-300
  6
CONTINUOUS
 62
    92
 10
198.1384549480164
 20
-98.78333602484781
 30
0.0
 40
3.125
  1
Exec:
  0
TEXT
  5
118
  8
-300
  6
CONTINUOUS
 62
    92
 10
197.8023195419805
 20
-93.23903594550211
 30
0.0
 40
3.125
  1
Nome:
  0
TEXT
  5
119
  8
-300
  6
CONTINUOUS
 62
    92
 10
292.8475262961977
 20
-96.0839131885441
 30
0.0
 40
3.125
  1
Rev:
  0
TEXT
  5
11A
  8
-300
  6
CONTINUOUS
 62
    92
 10
292.853782552454
 20
-106.0839131885441
 30
0.0
 40
3.125
  1
Data:
  0
TEXT
  5
11F
  8
-300
  6
CONTINUOUS
 62
    92
 10
198.4231146076761
 20
-109.7833350711735
 30
0.0
 40
3.125
  1
Aprov:
  0
TEXT
  5
123
  8
-300
  6
CONTINUOUS
 62
     7
 10
216.0469197543781
 20
-98.74923453864176
 30
0.0
 40
3.125
  1
DR
  0
TEXT
  5
124
  8
-300
  6
CONTINUOUS
 62
     7
 10
216.0469197543781
 20
-104.2492364459904
 30
0.0
 40
3.125
  1
DR
  0
TEXT
  5
126
  8
-300
  6
CONTINUOUS
 62
     7
 10
216.0469197543781
 20
-109.7492354923161
 30
0.0
 40
3.125
  1
DR
  0
TEXT
  5
12C
  8
-300
  6
CONTINUOUS
 62
     7
 10
310.9477745800078
 20
-96.2136761368791
 30
0.0
 40
3.130000114440918
  1
0
  0
TEXT
  5
12D
  8
-300
  6
CONTINUOUS
 62
     7
 10
307.4015761054001
 20
-106.2543236894151
 30
0.0
 40
3.125
  1
03/05/15
  0
LINE
  5
131
  8
-300
  6
AVEVASOLIDXWIDE
 62
    92
 10
-62.73523266278448
 20
-111.2442353778752
 30
0.0
 11
-62.73523266278448
 21
171.7557646221248
 31
0.0
  0
LINE
  5
132
  8
-300
  6
AVEVASOLIDXWIDE
 62
    92
 10
-62.73523266278448
 20
171.7557646221248
 30
0.0
 11
330.0716521028405
 21
171.6640592998592
 31
0.0
  0
LINE
  5
133
  8
-300
  6
AVEVASOLIDXWIDE
 62
    92
 10
330.0716521028405
 20
171.6640592998592
 30
0.0
 11
330.0716521028405
 21
-111.335935454932
 31
0.0
  0
LINE
  5
134
  8
-300
  6
AVEVASOLIDXWIDE
 62
    92
 10
-62.73523266278448
 20
-111.2442353778752
 30
0.0
 11
330.0716521028405
 21
-111.335935454932
 31
0.0
  0
LINE
  5
136
  8
-300
  6
AVEVASOLID
 62
    92
 10
290.5249622160042
 20
-100.3359349780949
 30
0.0
 11
322.1140430265511
 21
-100.3359349780949
 31
0.0
  0
LINE
  5
13A
  8
-300
  6
AVEVASOLID
 62
    92
 10
-82.92833266817274
 20
178.6640592998592
 30
0.0
 11
-82.92833266817274
 21
-118.3359353804262
 31
0.0
  0
LINE
  5
13B
  8
-300
  6
AVEVASOLID
 62
    92
 10
-82.92833266817274
 20
-118.3359353804262
 30
0.0
 11
337.0716521028405
 21
-118.3359353804262
 31
0.0
  0
LINE
  5
13D
  8
-300
  6
AVEVASOLIDXWIDE
 62
    92
 10
337.0716521028405
 20
-118.3359353804262
 30
0.0
 11
337.0716521028405
 21
-108.3359349780949
 31
0.0
  0
LINE
  5
13E
  8
-300
  6
AVEVASOLIDXWIDE
 62
    92
 10
327.0716521028405
 20
-118.3359353804262
 30
0.0
 11
337.0716521028405
 21
-118.3359353804262
 31
0.0
  0
LINE
  5
13F
  8
-300
  6
AVEVASOLID
 62
    92
 10
337.0716521028405
 20
178.6640592998592
 30
0.0
 11
337.0716521028405
 21
-118.3359353804262
 31
0.0
  0
LINE
  5
142
  8
-300
  6
AVEVASOLID
 62
    92
 10
-82.92833266817274
 20
178.6640592998592
 30
0.0
 11
337.0716521028405
 21
178.6640592998592
 31
0.0
  0
LINE
  5
144
  8
-300
  6
AVEVASOLID
 62
    92
 10
197.1874120930276
 20
-89.33593497809488
 30
0.0
 11
197.1874120930276
 21
-111.335935454932
 31
0.0
  0
LINE
  5
145
  8
-300
  6
AVEVASOLID
 62
    92
 10
290.5249622160042
 20
-111.335935454932
 30
0.0
 11
290.5249622160042
 21
-89.33593497809488
 31
0.0
  0
LINE
  5
14C
  8
-300
  6
AVEVASOLID
 62
    92
 10
197.1874120930276
 20
-89.33593497809488
 30
0.0
 11
197.1874120930276
 21
-111.335935454932
 31
0.0
  0
LINE
  5
14D
  8
-300
  6
AVEVASOLID
 62
    92
 10
290.5249622160042
 20
-111.335935454932
 30
0.0
 11
290.5249622160042
 21
-89.33593497809488
 31
0.0
  0
LINE
  5
151
  8
-300
  6
AVEVASOLIDXWIDE
 62
    92
 10
337.0716521028405
 20
-118.3359353804262
 30
0.0
 11
337.0716521028405
 21
-108.3359349780949
 31
0.0
  0
LINE
  5
152
  8
-300
  6
AVEVASOLIDXWIDE
 62
    92
 10
327.0716521028405
 20
-118.3359353804262
 30
0.0
 11
337.0716521028405
 21
-118.3359353804262
 31
0.0
  0
LINE
  5
153
  8
-300
  6
AVEVASOLID
 62
    92
 10
337.0716521028405
 20
178.6640592998592
 30
0.0
 11
337.0716521028405
 21
-118.3359353804262
 31
0.0
  0
LINE
  5
156
  8
-300
  6
AVEVASOLID
 62
    92
 10
-82.92833266817274
 20
178.6640592998592
 30
0.0
 11
337.0716521028405
 21
178.6640592998592
 31
0.0
  0
LINE
  5
159
  8
-300
  6
AVEVASOLID
 62
    92
 10
-82.92833266817274
 20
178.6640592998592
 30
0.0
 11
-82.92833266817274
 21
-118.3359353804262
 31
0.0
  0
LINE
  5
15A
  8
-300
  6
AVEVASOLID
 62
    92
 10
-82.92833266817274
 20
-118.3359353804262
 30
0.0
 11
337.0716521028405
 21
-118.3359353804262
 31
0.0
  0
LINE
  5
15D
  8
-300
  6
AVEVASOLID
 62
    92
 10
290.5249622160042
 20
-100.3359349780949
 30
0.0
 11
330.0716521028405
 21
-100.3359349780949
 31
0.0
  0
LINE
  5
1732
  8
-300
  6
AVEVASOLIDXWIDE
 62
    92
 10
197.1874120930276
 20
-89.33593497809488
 30
0.0
 11
293.7873876789652
 21
-89.33593497809488
 31
0.0
  0
LINE
  5
1733
  8
-300
  6
AVEVASOLIDXWIDE
 62
    92
 10
197.1874120930276
 20
-89.33593497809488
 30
0.0
 11
330.0716521028405
 21
-89.33593497809488
 31
0.0
  0
LINE
  5
1734
  8
-300
  6
AVEVASOLID
 62
    92
 10
197.1874120930276
 20
-94.83593497809488
 30
0.0
 11
290.5249622160042
 21
-94.83593497809488
 31
0.0
  0
LINE
  5
1735
  8
-300
  6
AVEVASOLID
 62
    92
 10
197.1874120930276
 20
-94.83593497809488
 30
0.0
 11
290.5249622160042
 21
-94.83593497809488
 31
0.0
  0
LINE
  5
1736
  8
-300
  6
AVEVASOLID
 62
    92
 10
197.1874120930276
 20
-100.3359349780949
 30
0.0
 11
290.5249622160042
 21
-100.3359349780949
 31
0.0
  0
LINE
  5
1737
  8
-300
  6
AVEVASOLID
 62
    92
 10
197.1874120930276
 20
-100.3359349780949
 30
0.0
 11
290.5249622160042
 21
-100.3359349780949
 31
0.0
  0
LINE
  5
1738
  8
-300
  6
AVEVASOLID
 62
    92
 10
197.1874120930276
 20
-105.8359349780949
 30
0.0
 11
290.5249622160042
 21
-105.8359349780949
 31
0.0
  0
LINE
  5
1739
  8
-300
  6
AVEVASOLID
 62
    92
 10
197.1874120930276
 20
-105.8359349780949
 30
0.0
 11
290.5249622160042
 21
-105.8359349780949
 31
0.0
  0
TEXT
  5
173B
  8
-300
  6
CONTINUOUS
 62
     7
 10
212.1746753582354
 20
-93.30241271681993
 30
0.0
 40
3.125
  1
Fabricar-mdf-15mm-Z-trava-castanha
  0
TEXT
  5
1766
  8
-300
  6
CONTINUOUS
 62
     7
 10
309.320647663588
 20
-117.3915822617073
 30
0.0
 40
3.125
  1
Padrao-A3
  0
CIRCLE
  5
1910
  8
0
 10
73.33896760091852
 20
3.632855094011902
 30
0.0000000001085521
 40
2.399999999999992
  0
CIRCLE
  5
1911
  8
0
 10
68.65267609990337
 20
14.9465635929967
 30
0.0000000001086395
 40
2.399999999999991
  0
LINE
  5
1913
  8
0
 10
77.4999048180457
 20
29.9465635929967
 30
0.0000000001085324
 11
91.80540481804564
 21
29.9465635929967
 31
0.0000000001085239
  0
LINE
  5
1914
  8
0
 10
77.4999048180457
 20
-0.0534364070033035
 30
0.0000000001085521
 11
69.99990481804593
 21
-0.0534364070033035
 31
0.0000000001085549
  0
CIRCLE
  5
1915
  8
0
 10
-95.96634203517306
 20
26.26027209198138
 30
-0.0000000001086581
 40
2.399999999999991
210
-1.455341044071821E-15
220
2.063401413685382E-16
230
-1.0
  0
LINE
  5
1916
  8
0
 10
106.8054048180458
 20
59.94656359311885
 30
0.0000000001084929
 11
62.49990481804582
 21
59.9465635929967
 31
0.0000000001085211
  0
LINE
  5
1917
  8
0
 10
69.99990481804593
 20
-0.0534364070033035
 30
0.0000000001085549
 11
69.99990481804593
 21
0.9465635929966965
 31
0.0000000001085549
  0
LINE
  5
1918
  8
0
 10
69.99990481804593
 20
0.9465635929966965
 30
0.0000000001085549
 11
62.49990481804582
 21
0.9465635929966965
 31
0.0000000001085606
  0
LINE
  5
1919
  8
0
 10
62.49990481804582
 20
0.9465635929966965
 30
0.0000000001085606
 11
62.49990481804582
 21
59.9465635929967
 31
0.0000000001085211
  0
LINE
  5
191A
  8
0
 10
91.80540481804564
 20
-0.0534364070033035
 30
0.0000000001085436
 11
91.80540481804564
 21
29.9465635929967
 31
0.0000000001085239
  0
LINE
  5
191B
  8
0
 10
106.8054048180458
 20
0.9465635929965828
 30
0.0000000001085775
 11
106.8054048180458
 21
59.94656359311885
 31
0.0000000001084929
  0
LINE
  5
191C
  8
0
 10
99.30540481804576
 20
0.9465635929965828
 30
0.0000000001086282
 11
106.8054048180458
 21
0.9465635929965828
 31
0.0000000001085775
  0
LINE
  5
191D
  8
0
 10
91.80540481804564
 20
-0.0534364070033035
 30
0.0000000001085436
 11
99.30540481804576
 21
-0.0534364070034172
 31
0.0000000001086282
  0
LINE
  5
191E
  8
0
 10
77.4999048180457
 20
-0.0534364070033035
 30
0.0000000001085521
 11
77.4999048180457
 21
29.9465635929967
 31
0.0000000001085324
  0
LINE
  5
191F
  8
0
 10
99.30540481804576
 20
-0.0534364070034172
 30
0.0000000001086282
 11
99.30540481804576
 21
0.9465635929965828
 31
0.0000000001086282
  0
CIRCLE
  5
1920
  8
0
 10
-95.96634203517306
 20
3.632855094011902
 30
-0.0000000001060179
 40
2.399999999999993
210
2.575478658920730E-14
220
2.575733015944181E-14
230
-1.0
  0
CIRCLE
  5
1921
  8
0
 10
-100.6526335361883
 20
14.9465635929967
 30
-0.0000000001085293
 40
2.399999999999993
210
2.515608114765556E-18
220
-2.515608114765623E-18
230
-1.0
  0
CIRCLE
  5
1922
  8
0
 10
73.33896760091852
 20
26.26027209198138
 30
0.000000000108538
 40
2.399999999999994
  0
CIRCLE
  5
1937
  8
0
 10
-44.5
 20
7.5
 30
-0.0000000002532745
 40
3.000000000000041
210
-2.585283840707524E-12
220
6.436049987857164E-12
230
-1.0
  0
CIRCLE
  5
1938
  8
0
 10
-10.49999999999989
 20
7.5
 30
-0.0000000001653782
 40
3.00000000000004
210
-2.585606913072922E-12
220
6.436054555975228E-12
230
-1.0
  0
CIRCLE
  5
1939
  8
0
 10
-44.5
 20
52.5
 30
0.0000000000363302
 40
3.00000000000004
210
-2.585356864431153E-12
220
6.435777459610416E-12
230
-1.0
  0
LINE
  5
193A
  8
0
 10
55.00000000000102
 20
59.99999999999983
 30
0.0000000000518012
 11
55.00000000000102
 21
0.0
 31
0.0000000001864997
  0
LINE
  5
193B
  8
0
 10
0.0
 20
0.0
 30
0.0
 11
55.00000000000102
 21
0.0
 31
0.0000000001864997
  0
LINE
  5
193C
  8
0
 10
0.0
 20
60.00000000000003
 30
0.0000000002300249
 11
55.00000000000102
 21
59.99999999999983
 31
0.0000000000518012
  0
CIRCLE
  5
193D
  8
0
 10
-10.49999999999989
 20
52.49999999998562
 30
0.0000000000807514
 40
3.00000000000004
210
6.418482382756902E-13
220
5.702664456652696E-12
230
-1.0
  0
LINE
  5
193E
  8
0
 10
0.0
 20
60.00000000000003
 30
0.0000000002300249
 11
0.0
 21
0.0
 31
0.0
  0
LINE
  5
1940
  8
0
 10
0.0
 20
-37.71650704209289
 30
0.0
 11
0.0
 21
-52.71650704209287
 31
0.0
  0
LINE
  5
1941
  8
0
 10
55.00000000000102
 20
-37.71650704209289
 30
0.0000000001864997
 11
55.00000000000102
 21
-52.71650704209289
 31
0.0000000001864997
  0
LINE
  5
1944
  8
0
 10
0.0
 20
-52.71650704209289
 30
0.0
 11
55.00000000000104
 21
-52.71650704209289
 31
0.0
  0
LINE
  5
1945
  8
0
 10
62.49990481804582
 20
-52.71650704209289
 30
0.0
 11
106.8054048180458
 21
-52.71650704209289
 31
0.0
  0
LINE
  5
1946
  8
0
 10
0.0
 20
-37.71650704209289
 30
0.0
 11
55.00000000000104
 21
-37.71650704209289
 31
0.0
  0
LINE
  5
1947
  8
0
 10
62.49990481804582
 20
-37.71650704209289
 30
0.0
 11
106.8054048180458
 21
-37.71650704209289
 31
0.0
  0
LINE
  5
194C
  8
0
  6
AVEVASHORTDASHED
 10
47.50000000000004
 20
-37.71650704209289
 30
0.0000000001787439
 11
47.50000000000004
 21
-52.71650704209289
 31
0.0000000001787439
  0
LINE
  5
194D
  8
0
  6
AVEVASHORTDASHED
 10
41.49999999999996
 20
-37.71650704209289
 30
0.0000000001942556
 11
41.49999999999996
 21
-52.71650704209289
 31
0.0000000001942556
  0
LINE
  5
194E
  8
0
  6
AVEVASHORTDASHED
 10
13.49999999999993
 20
-37.71650704209288
 30
0.0000000001787429
 11
13.49999999999993
 21
-52.71650704209289
 31
0.0000000001787429
  0
LINE
  5
194F
  8
0
  6
AVEVASHORTDASHED
 10
7.499999999999846
 20
-37.71650704209289
 30
0.0000000001942565
 11
7.499999999999846
 21
-52.71650704209289
 31
0.0000000001942565
  0
LINE
  5
1955
  8
0
  6
AVEVASHORTDASHED
 10
103.0526335361883
 20
-52.71650704209289
 30
0.0000000001085295
 11
103.0526335361883
 21
-37.71650704209289
 31
0.0000000001085295
  0
LINE
  5
1957
  8
0
 10
106.8054048180458
 20
-37.71650704209289
 30
0.0000000001085775
 11
106.8054048180458
 21
-52.71650704209289
 31
0.0000000001085775
  0
LINE
  5
1958
  8
0
  6
AVEVASHORTDASHED
 10
98.36634203517305
 20
-37.71650704209289
 30
0.0000000001086449
 11
98.36634203517305
 21
-52.71650704209289
 31
0.0000000001086449
  0
LINE
  5
1959
  8
0
  6
AVEVASHORTDASHED
 10
93.56634203517307
 20
-37.71650704209289
 30
0.0000000001085212
 11
93.56634203517307
 21
-52.71650704209289
 31
0.0000000001085212
  0
LINE
  5
195A
  8
0
  6
AVEVASHORTDASHED
 10
75.73896760091851
 20
-37.71650704209289
 30
0.0000000001085521
 11
75.73896760091851
 21
-52.71650704209289
 31
0.0000000001085521
  0
LINE
  5
195B
  8
0
  6
AVEVASHORTDASHED
 10
71.05267609990337
 20
-37.71650704209289
 30
0.0000000001086395
 11
71.05267609990337
 21
-52.71650704209289
 31
0.0000000001086395
  0
LINE
  5
195C
  8
0
  6
AVEVASHORTDASHED
 10
66.25267609990338
 20
-37.71650704209289
 30
0.0000000001086395
 11
66.25267609990338
 21
-52.71650704209289
 31
0.0000000001086395
  0
LINE
  5
195D
  8
0
 10
62.49990481804582
 20
-37.71650704209289
 30
0.0000000001085606
 11
62.49990481804582
 21
-52.71650704209288
 31
0.0000000001085606
  0
LINE
  5
195E
  8
0
 10
69.99990481804593
 20
-37.71650704209287
 30
0.0000000001085549
 11
69.99990481804593
 21
-52.71650704209289
 31
0.0000000001085549
  0
LINE
  5
195F
  8
0
 10
77.4999048180457
 20
-37.71650704209288
 30
0.0000000001085521
 11
77.4999048180457
 21
-52.71650704209289
 31
0.0000000001085521
  0
LINE
  5
1960
  8
0
 10
91.80540481804564
 20
-37.71650704209289
 30
0.0000000001085436
 11
91.80540481804564
 21
-52.71650704209289
 31
0.0000000001085436
  0
LINE
  5
1961
  8
0
 10
99.30540481804576
 20
-37.71650704209289
 30
0.0000000001086282
 11
99.30540481804576
 21
-52.71650704209289
 31
0.0000000001086282
  0
TEXT
  5
1988
  8
-300
  6
CONTINUOUS
 62
     7
 10
9.501261145501232
 20
76.43611552648001
 30
0.0
 40
3.125
  1
Fabricar-mdf-15mm-Z-trava-castanha-2
  0
TEXT
  5
19AF
  8
-300
  6
CONTINUOUS
 62
     7
 10
79.11544068600861
 20
69.71895785151877
 30
0.0
 40
3.125
  1
Fabricar-mdf-15mm-Z-trava-castanha
  0
LINE
  5
19B0
  8
0
 10
9.501261145501232
 20
74.60416343330876
 30
0.0
 11
9.501261145501232
 21
76.43611552648001
 31
0.0
  0
LINE
  5
19B1
  8
0
 10
9.501261145501232
 20
74.60416343330876
 30
0.0
 11
115.4491572005717
 21
74.60416343330876
 31
0.0
  0
LINE
  5
19B2
  8
0
 10
115.4491572005717
 20
74.60416343330876
 30
0.0
 11
9.501261145501232
 21
74.60416343330876
 31
0.0
  0
LINE
  5
19B3
  8
0
 10
9.501261145501232
 20
74.60416343330876
 30
0.0
 11
3.08942881940186
 21
62.08582412997191
 31
0.0
  0
LINE
  5
19DA
  8
0
 10
78.91173714414508
 20
66.96490289636111
 30
0.0000000002008843
 11
75.7058209810954
 21
60.70573324469269
 31
0.0000000002008843
  0
LINE
  5
19DB
  8
0
 10
184.8596331992155
 20
66.96490289636111
 30
0.0000000002008843
 11
78.91173714414508
 21
66.96490289636111
 31
0.0000000002008843
  0
VIEWPORT
  5
16EA
 67
     1
  8
0
 10
143.5
 20
95.0
 30
0.0
 40
462.0
 41
231.0
 68
     1
 69
     1
1001
ACAD
1000
MVIEW
1002
{
1070
    16
1010
0.0
1020
0.0
1030
0.0
1020
0.0
1030
0.0
1010
0.0
1020
0.0
1030
1.0
1020
0.0
1030
1.0
1040
0.0
1040
231.0
1040
143.5
1040
95.0
1040
50.0
1040
0.0
1040
0.0
1070
     0
1070
   100
1070
     1
1070
     0
1070
     0
1070
     0
1070
     0
1070
     0
1040
0.0
1040
0.0
1040
0.0
1040
10.0
1040
10.0
1040
10.0
1040
10.0
1070
     1
1002
{
1002
}
1002
}
  0
VIEWPORT
  5
16EC
 67
     1
  8
VIEWPORTS
 10
143.5
 20
95.0
 30
0.0
 40
287.0
 41
162.7319641113281
 68
     2
 69
     2
1001
ACAD
1000
MVIEW
1002
{
1070
    16
1010
0.0
1020
0.0
1030
0.0
1020
0.0
1030
0.0
1010
0.0
1020
0.0
1030
1.0
1020
0.0
1030
1.0
1040
0.0
1040
305.9693908691406
1040
209.806884765625
1040
148.4082946777344
1040
50.0
1040
0.0
1040
0.0
1070
     0
1070
   100
1070
     1
1070
     0
1070
     0
1070
     0
1070
     0
1070
     0
1040
0.0
1040
0.0
1040
0.0
1040
10.0
1040
10.0
1040
10.0
1040
10.0
1070
     1
1002
{
1002
}
1002
}
  0
ENDSEC
  0
EOF
